<?xml version="1.0" encoding="UTF-8"?>
<!DOCTYPE svg PUBLIC "-//W3C//DTD SVG 1.1//EN" "http://www.w3.org/Graphics/SVG/1.1/DTD/svg11.dtd">
<svg xmlns="http://www.w3.org/2000/svg" version="1.1" width="192px" height="192px" style="shape-rendering:geometricPrecision; text-rendering:geometricPrecision; image-rendering:optimizeQuality; fill-rule:evenodd; clip-rule:evenodd" xmlns:xlink="http://www.w3.org/1999/xlink">
<g><path style="opacity:0.65" fill="#fefffe" d="M 94.5,92.5 C 95.783,90.1318 97.4497,87.9651 99.5,86C 104.214,85.1904 108.714,85.6904 113,87.5C 114.167,87.1667 115.333,86.8333 116.5,86.5C 117.146,84.0228 118.646,82.3561 121,81.5C 124.422,83.0302 126.922,84.8636 128.5,87C 131.758,87.2117 134.924,87.7117 138,88.5C 139.488,86.1798 141.321,86.0131 143.5,88C 144.576,89.7261 144.743,91.5594 144,93.5C 141.553,96.0861 140.887,98.7527 142,101.5C 142.772,101.355 143.439,101.022 144,100.5C 145.993,94.5061 148.993,89.1728 153,84.5C 155.481,86.3137 158.315,86.9804 161.5,86.5C 160.529,100.799 162.196,101.133 166.5,87.5C 168.782,86.0996 170.282,86.7663 171,89.5C 171.884,84.6267 173.384,79.96 175.5,75.5C 174.572,74.2322 174.405,72.8989 175,71.5C 176.333,70.1667 177.667,68.8333 179,67.5C 180.299,68.09 181.132,69.09 181.5,70.5C 179.704,74.3448 178.87,78.3448 179,82.5C 180.833,80.6667 182.667,78.8333 184.5,77C 188.256,74.4567 190.089,75.29 190,79.5C 185.022,82.6445 180.855,86.6445 177.5,91.5C 181.09,98.3478 184.423,105.348 187.5,112.5C 186.5,113.833 185.5,113.833 184.5,112.5C 182.098,106.025 178.931,100.025 175,94.5C 173.566,99.8181 171.566,104.818 169,109.5C 167.426,108.016 166.093,106.349 165,104.5C 164.027,107.779 162.527,110.779 160.5,113.5C 159.522,113.023 158.689,112.357 158,111.5C 157.667,108.167 157.333,104.833 157,101.5C 154.993,106.02 153.493,110.687 152.5,115.5C 151.022,115.762 149.689,115.429 148.5,114.5C 146.747,111.995 145.247,109.329 144,106.5C 140.794,108.124 138.128,107.458 136,104.5C 136.716,96.7463 134.549,95.2463 129.5,100C 123.719,102.057 118.053,104.39 112.5,107C 111.133,109.672 110.133,112.505 109.5,115.5C 106.12,122.207 103.12,122.04 100.5,115C 103.332,114.02 104.998,112.02 105.5,109C 103.326,105.996 100.992,103.163 98.5,100.5C 97.0419,103.372 95.8752,106.372 95,109.5C 94,110.5 93,111.5 92,112.5C 91.2935,110.919 90.4601,109.419 89.5,108C 83.8949,107.769 78.5615,108.936 73.5,111.5C 71.5414,110.252 70.0414,108.585 69,106.5C 61.6688,109.388 54.1688,111.888 46.5,114C 45.283,115.648 44.4497,117.481 44,119.5C 40.3475,120.995 38.3475,119.661 38,115.5C 36.1684,116.858 34.3351,117.192 32.5,116.5C 34.9163,114.733 37.5829,113.233 40.5,112C 42.2658,109.904 43.5991,107.571 44.5,105C 43.376,104.751 42.376,104.251 41.5,103.5C 40.9399,101.146 40.2733,98.813 39.5,96.5C 28.5258,101.077 17.1925,104.41 5.5,106.5C 2.19637,106.366 0.529705,104.7 0.5,101.5C 1.65253,95.8335 4.65253,91.3335 9.5,88C 17.0788,82.7546 24.9122,77.9212 33,73.5C 36.7486,74.4591 37.4153,76.4591 35,79.5C 25.7036,84.5653 17.2036,90.7319 9.5,98C 19.785,96.5091 30.1183,95.0091 40.5,93.5C 40.5,87.8333 40.5,82.1667 40.5,76.5C 41.5,76.5 42.5,76.5 43.5,76.5C 43.8159,81.8444 44.3159,87.1778 45,92.5C 51.8586,88.2819 54.5253,90.2819 53,98.5C 57.6394,87.8878 62.8061,77.5545 68.5,67.5C 68.1667,66.8333 67.8333,66.1667 67.5,65.5C 72.9503,64.4734 74.7837,66.8067 73,72.5C 70.8489,76.8022 68.6822,81.1356 66.5,85.5C 73.4678,86.8724 76.6345,91.2057 76,98.5C 78.171,94.1976 79.3377,89.8643 79.5,85.5C 83.3363,87.641 87.3363,88.141 91.5,87C 94.0352,87.9282 95.0352,89.7615 94.5,92.5 Z M 110.5,89.5 C 111.873,89.3433 113.207,89.51 114.5,90C 111.74,94.78 109.073,99.6134 106.5,104.5C 104.673,102.5 103.006,100.333 101.5,98C 103.833,96.8333 106.167,95.6667 108.5,94.5C 109.95,93.1502 110.617,91.4835 110.5,89.5 Z M 155.5,89.5 C 156.573,90.2506 156.74,91.2506 156,92.5C 153.484,97.5311 150.984,102.531 148.5,107.5C 147.5,107 146.5,106.5 145.5,106C 149.667,100.986 153.001,95.4864 155.5,89.5 Z M 103.5,90.5 C 103.217,91.2891 102.717,91.9558 102,92.5C 101.472,91.184 101.972,90.5173 103.5,90.5 Z M 119.5,90.5 C 124.691,90.0585 129.691,90.5585 134.5,92C 128.448,95.4594 122.114,97.7927 115.5,99C 116.932,96.1971 118.266,93.3637 119.5,90.5 Z M 169.5,90.5 C 170.598,91.6009 170.765,92.9343 170,94.5C 168.964,97.2954 167.631,99.962 166,102.5C 166.839,98.4889 168.006,94.4889 169.5,90.5 Z M 94.5,92.5 C 94.0296,93.6935 93.0296,94.3601 91.5,94.5C 88.8208,93.1785 86.1541,93.1785 83.5,94.5C 83.5,93.5 83.5,92.5 83.5,91.5C 86.7877,91.073 89.7877,91.7397 92.5,93.5C 93.1835,93.1373 93.8501,92.8039 94.5,92.5 Z M 67.5,92.5 C 69.893,94.7617 70.0597,97.4284 68,100.5C 64.0294,103.075 59.8627,104.909 55.5,106C 57.6012,102.634 59.2679,99.1337 60.5,95.5C 63.0631,94.9117 65.3964,93.9117 67.5,92.5 Z M 91.5,98.5 C 92.2389,98.369 92.9056,98.5357 93.5,99C 92.8333,100.333 92.1667,101.667 91.5,103C 87.1255,103.539 82.7922,103.872 78.5,104C 79.5596,102.702 80.7263,101.535 82,100.5C 85.3242,99.9496 88.4909,99.2829 91.5,98.5 Z M 72.5,103.5 C 73.7733,104.077 73.7733,104.743 72.5,105.5C 71.537,105.03 71.537,104.363 72.5,103.5 Z"/></g>
<g><path style="opacity:0.455" fill="#fefffe" d="M 111.5,118.5 C 116.934,118.59 118.601,121.257 116.5,126.5C 115.167,122.5 113.833,122.5 112.5,126.5C 111.52,123.914 111.187,121.247 111.5,118.5 Z"/></g>
<g><path style="opacity:0.362" fill="#fefffe" d="M 144.5,118.5 C 146.5,118.5 148.5,118.5 150.5,118.5C 150.64,120.124 149.973,121.29 148.5,122C 150.037,123.11 150.703,124.61 150.5,126.5C 148.5,126.5 146.5,126.5 144.5,126.5C 144.5,123.833 144.5,121.167 144.5,118.5 Z"/></g>
<g><path style="opacity:0.444" fill="#fefffe" d="M 177.5,118.5 C 182.881,118.452 184.547,120.952 182.5,126C 180.866,126.494 179.199,126.66 177.5,126.5C 177.5,123.833 177.5,121.167 177.5,118.5 Z M 179.5,121.5 C 181.337,121.639 181.67,122.306 180.5,123.5C 179.702,123.043 179.369,122.376 179.5,121.5 Z"/></g>
</svg>
