<?xml version="1.0" encoding="UTF-8"?>
<!DOCTYPE svg PUBLIC "-//W3C//DTD SVG 1.1//EN" "http://www.w3.org/Graphics/SVG/1.1/DTD/svg11.dtd">
<svg xmlns="http://www.w3.org/2000/svg" version="1.1" width="192px" height="192px" style="shape-rendering:geometricPrecision; text-rendering:geometricPrecision; image-rendering:optimizeQuality; fill-rule:evenodd; clip-rule:evenodd" xmlns:xlink="http://www.w3.org/1999/xlink">
<g><path style="opacity:0.818" fill="#fefffe" d="M 9.5,31.5 C 66.8372,31.1667 124.171,31.5 181.5,32.5C 186.167,33.1667 188.833,35.8333 189.5,40.5C 190.833,77.5 190.833,114.5 189.5,151.5C 188.833,156.167 186.167,158.833 181.5,159.5C 124.167,160.833 66.8333,160.833 9.5,159.5C 4.83333,158.833 2.16667,156.167 1.5,151.5C 0.166667,114.5 0.166667,77.5 1.5,40.5C 2.16667,38.8333 2.83333,37.1667 3.5,35.5C 5.79258,34.348 7.79258,33.0147 9.5,31.5 Z M 15.5,36.5 C 20.8333,36.5 26.1667,36.5 31.5,36.5C 31.5,45.5 31.5,54.5 31.5,63.5C 35.1667,63.5 38.8333,63.5 42.5,63.5C 42.5,54.5 42.5,45.5 42.5,36.5C 47.8333,36.5 53.1667,36.5 58.5,36.5C 58.5,45.5 58.5,54.5 58.5,63.5C 60.8333,63.5 63.1667,63.5 65.5,63.5C 65.5,64.5 65.5,65.5 65.5,66.5C 69.3107,66.5958 69.3107,67.2624 65.5,68.5C 63.2573,69.4742 60.924,69.8076 58.5,69.5C 58.5,87.8333 58.5,106.167 58.5,124.5C 62.1667,124.5 65.8333,124.5 69.5,124.5C 69.5,115.5 69.5,106.5 69.5,97.5C 74.8333,97.5 80.1667,97.5 85.5,97.5C 85.5,106.5 85.5,115.5 85.5,124.5C 87.8333,124.5 90.1667,124.5 92.5,124.5C 92.5,125.5 92.5,126.5 92.5,127.5C 96.3107,127.596 96.3107,128.262 92.5,129.5C 90.2573,130.474 87.924,130.808 85.5,130.5C 85.5,138.5 85.5,146.5 85.5,154.5C 80.1667,154.5 74.8333,154.5 69.5,154.5C 69.5,146.5 69.5,138.5 69.5,130.5C 65.8333,130.5 62.1667,130.5 58.5,130.5C 58.5,138.5 58.5,146.5 58.5,154.5C 53.1667,154.5 47.8333,154.5 42.5,154.5C 42.5,146.5 42.5,138.5 42.5,130.5C 40.1667,130.5 37.8333,130.5 35.5,130.5C 35.5,128.5 35.5,126.5 35.5,124.5C 37.8333,124.5 40.1667,124.5 42.5,124.5C 42.5,106.167 42.5,87.8333 42.5,69.5C 38.8333,69.5 35.1667,69.5 31.5,69.5C 31.5,77.8333 31.5,86.1667 31.5,94.5C 26.1667,94.5 20.8333,94.5 15.5,94.5C 15.5,86.1667 15.5,77.8333 15.5,69.5C 13.1667,69.5 10.8333,69.5 8.5,69.5C 8.5,67.5 8.5,65.5 8.5,63.5C 10.8333,63.5 13.1667,63.5 15.5,63.5C 15.5,54.5 15.5,45.5 15.5,36.5 Z M 74.5,63.5 C 81.5079,63.3337 88.5079,63.5004 95.5,64C 94.3909,65.813 95.0576,66.6463 97.5,66.5C 97.5,74.8333 97.5,83.1667 97.5,91.5C 95.0576,91.3537 94.3909,92.187 95.5,94C 88.5079,94.4996 81.5079,94.6663 74.5,94.5C 74.5,93.5 74.5,92.5 74.5,91.5C 73.5,91.5 72.5,91.5 71.5,91.5C 71.5,83.1667 71.5,74.8333 71.5,66.5C 72.5,66.5 73.5,66.5 74.5,66.5C 74.5,65.5 74.5,64.5 74.5,63.5 Z M 100.5,64.5 C 102.607,63.5318 104.941,63.1984 107.5,63.5C 107.169,71.8599 107.502,80.1932 108.5,88.5C 110.523,90.1733 112.856,90.8399 115.5,90.5C 115.5,84.8333 115.5,79.1667 115.5,73.5C 117.5,73.5 119.5,73.5 121.5,73.5C 121.5,79.1667 121.5,84.8333 121.5,90.5C 124.664,90.4422 127.664,89.7755 130.5,88.5C 130.5,80.1667 130.5,71.8333 130.5,63.5C 132.5,63.5 134.5,63.5 136.5,63.5C 136.5,72.8333 136.5,82.1667 136.5,91.5C 135.5,91.5 134.5,91.5 133.5,91.5C 133.5,92.5 133.5,93.5 133.5,94.5C 123.5,94.5 113.5,94.5 103.5,94.5C 103.5,93.5 103.5,92.5 103.5,91.5C 102.448,91.6495 101.448,91.4828 100.5,91C 101.828,82.0684 101.828,73.2351 100.5,64.5 Z M 93.5,106.5 C 95.2884,105.378 97.2884,105.211 99.5,106C 97.8122,108.825 96.9789,111.991 97,115.5C 96.502,112.518 96.3354,109.518 96.5,106.5C 95.5,106.5 94.5,106.5 93.5,106.5 Z M 118.5,105.5 C 119.552,105.351 120.552,105.517 121.5,106C 118.833,107.667 118.833,109.333 121.5,111C 118.833,112.333 118.833,113.667 121.5,115C 120.552,115.483 119.552,115.649 118.5,115.5C 118.5,112.167 118.5,108.833 118.5,105.5 Z M 127.5,105.5 C 129.527,105.338 131.527,105.505 133.5,106C 132.207,106.49 130.873,106.657 129.5,106.5C 129.227,108.451 129.893,109.951 131.5,111C 130.027,111.71 129.36,112.876 129.5,114.5C 130.873,114.343 132.207,114.51 133.5,115C 131.527,115.495 129.527,115.662 127.5,115.5C 127.5,112.167 127.5,108.833 127.5,105.5 Z M 100.5,108.5 C 100.56,107.957 100.893,107.624 101.5,107.5C 102.833,109.5 102.833,111.5 101.5,113.5C 101.593,111.89 101.26,110.224 100.5,108.5 Z M 142.5,107.5 C 143.404,108.209 143.737,109.209 143.5,110.5C 144.833,110.5 146.167,110.5 147.5,110.5C 148.773,112.084 148.773,112.418 147.5,111.5C 146.167,111.5 144.833,111.5 143.5,111.5C 143.657,112.873 143.49,114.207 143,115.5C 142.503,112.854 142.336,110.187 142.5,107.5 Z M 100.5,125.5 C 108.316,124.508 116.316,124.174 124.5,124.5C 124.5,125.833 124.5,127.167 124.5,128.5C 117.666,128.089 110.999,128.756 104.5,130.5C 104.5,132.5 104.5,134.5 104.5,136.5C 108.846,136.334 113.179,136.501 117.5,137C 116.167,138 116.167,139 117.5,140C 113.179,140.499 108.846,140.666 104.5,140.5C 104.5,143.167 104.5,145.833 104.5,148.5C 105.5,148.5 106.5,148.5 107.5,148.5C 107.5,149.5 107.5,150.5 107.5,151.5C 113.167,151.5 118.833,151.5 124.5,151.5C 124.5,152.5 124.5,153.5 124.5,154.5C 115.678,154.979 107.011,154.312 98.5,152.5C 98.3336,143.827 98.5002,135.16 99,126.5C 99.9138,127.654 100.747,127.487 101.5,126C 101.272,125.601 100.938,125.435 100.5,125.5 Z M 130.5,124.5 C 137.508,124.334 144.508,124.5 151.5,125C 150.346,125.914 150.513,126.747 152,127.5C 152.333,127.167 152.667,126.833 153,126.5C 153.498,129.482 153.665,132.482 153.5,135.5C 152.5,135.5 151.5,135.5 150.5,135.5C 150.5,137.5 150.5,139.5 150.5,141.5C 151.5,141.5 152.5,141.5 153.5,141.5C 153.5,145.833 153.5,150.167 153.5,154.5C 151.5,154.5 149.5,154.5 147.5,154.5C 147.5,150.5 147.5,146.5 147.5,142.5C 143.014,140.898 138.347,140.232 133.5,140.5C 133.5,145.167 133.5,149.833 133.5,154.5C 131.5,154.5 129.5,154.5 127.5,154.5C 127.334,145.161 127.5,135.827 128,126.5C 129.813,127.609 130.646,126.942 130.5,124.5 Z M 159.5,124.5 C 166.5,124.5 173.5,124.5 180.5,124.5C 181.666,129.536 182.333,134.703 182.5,140C 185.452,151.349 181.285,156.182 170,154.5C 165.302,154.462 160.802,153.628 156.5,152C 157.833,144 157.833,136 156.5,128C 157.448,127.517 158.448,127.351 159.5,127.5C 159.5,126.5 159.5,125.5 159.5,124.5 Z"/></g>
<g><path style="opacity:0.713" fill="#fefffe" d="M 80.5,67.5 C 84.347,67.3808 88.0137,68.0475 91.5,69.5C 91.5,75.8333 91.5,82.1667 91.5,88.5C 86.7279,91.4913 82.2279,91.1579 78,87.5C 77.3333,81.8333 77.3333,76.1667 78,70.5C 79.417,69.9221 80.2504,68.9221 80.5,67.5 Z"/></g>
<g><path style="opacity:0.651" fill="#fefffe" d="M 136.5,128.5 C 140.347,128.381 144.014,129.047 147.5,130.5C 147.5,131.833 147.5,133.167 147.5,134.5C 143.014,136.102 138.347,136.768 133.5,136.5C 133.5,134.5 133.5,132.5 133.5,130.5C 135.179,130.715 136.179,130.048 136.5,128.5 Z"/></g>
<g><path style="opacity:0.756" fill="#fefffe" d="M 165.5,128.5 C 174.483,126.816 178.149,130.483 176.5,139.5C 176.266,143.631 175.6,147.631 174.5,151.5C 171.5,151.5 168.5,151.5 165.5,151.5C 162.899,143.793 162.899,136.127 165.5,128.5 Z"/></g>
</svg>
