<?xml version="1.0" encoding="UTF-8"?>
<!DOCTYPE svg PUBLIC "-//W3C//DTD SVG 1.1//EN" "http://www.w3.org/Graphics/SVG/1.1/DTD/svg11.dtd">
<svg xmlns="http://www.w3.org/2000/svg" version="1.1" width="192px" height="192px" style="shape-rendering:geometricPrecision; text-rendering:geometricPrecision; image-rendering:optimizeQuality; fill-rule:evenodd; clip-rule:evenodd" xmlns:xlink="http://www.w3.org/1999/xlink">
<g><path style="opacity:0.8" fill="#fefffe" d="M 105.5,75.5 C 101.863,80.6576 98.363,85.9909 95,91.5C 87.7931,98.2603 81.7931,105.927 77,114.5C 70.6359,121.199 63.9692,127.532 57,133.5C 59.956,125.249 63.7894,117.249 68.5,109.5C 68.1667,109.167 67.8333,108.833 67.5,108.5C 45.0492,104.703 22.7159,100.37 0.5,95.5C 24.4893,90.3364 48.4893,85.1697 72.5,80C 66.7494,70.4968 60.7494,61.1635 54.5,52C 55.5,51.3333 56.5,51.3333 57.5,52C 65.0565,57.8891 72.8898,63.3891 81,68.5C 81.3333,68.1667 81.6667,67.8333 82,67.5C 86.348,45.7784 90.848,24.1117 95.5,2.5C 100.535,24.1734 104.868,46.0067 108.5,68C 107.349,70.4649 106.349,72.9649 105.5,75.5 Z"/></g>
<g><path style="opacity:0.817" fill="#fefffe" d="M 82.5,8.5 C 84.5,8.5 86.5,8.5 88.5,8.5C 87.0385,16.4749 85.7051,24.4749 84.5,32.5C 65.257,35.9017 50.4237,45.9017 40,62.5C 36.9976,68.9972 34.1642,75.4972 31.5,82C 23.8837,83.8233 16.2171,85.3233 8.5,86.5C 12.4873,56.0185 27.8207,33.1852 54.5,18C 63.5785,13.6967 72.9118,10.53 82.5,8.5 Z"/></g>
<g><path style="opacity:0.789" fill="#fefffe" d="M 105.5,75.5 C 110.78,71.3769 114.28,66.0436 116,59.5C 118.333,56.8333 120.667,54.1667 123,51.5C 123.938,47.431 125.105,43.431 126.5,39.5C 120.692,35.7858 114.359,33.4525 107.5,32.5C 106.167,24.5011 104.834,16.5011 103.5,8.5C 119.559,10.0745 134.225,15.4078 147.5,24.5C 149.856,22.31 152.356,20.31 155,18.5C 150.965,26.8457 145.631,34.5124 139,41.5C 138.619,44.0411 137.786,46.3745 136.5,48.5C 137.228,50.1547 137.395,51.8214 137,53.5C 135,55.5 133,57.5 131,59.5C 130.845,61.856 130.845,64.1893 131,66.5C 123.5,71.3333 117.333,77.5 112.5,85C 107.5,88.1667 102.5,91.3333 97.5,94.5C 97.1667,94.1667 96.8333,93.8333 96.5,93.5C 99.571,87.4595 102.571,81.4595 105.5,75.5 Z"/></g>
<g><path style="opacity:0.766" fill="#fefffe" d="M 173.5,16.5 C 180.636,19.0436 185.303,24.0436 187.5,31.5C 177.508,35.0831 167.842,39.4165 158.5,44.5C 158.167,44 157.833,43.5 157.5,43C 159,38.5 160.5,34 162,29.5C 164.984,24.3529 168.818,20.0196 173.5,16.5 Z"/></g>
<g><path style="opacity:0.706" fill="#fefffe" d="M 175.5,45.5 C 177.989,45.2978 180.323,45.7978 182.5,47C 184.211,48.1332 184.711,49.6332 184,51.5C 181.833,53.6667 179.667,55.8333 177.5,58C 172.213,59.6878 168.213,58.1878 165.5,53.5C 167.409,48.9117 170.743,46.245 175.5,45.5 Z"/></g>
<g><path style="opacity:0.692" fill="#fefffe" d="M 150.5,53.5 C 155.623,53.1058 158.123,55.4391 158,60.5C 157.097,61.7014 155.931,62.5348 154.5,63C 150.789,63.8253 147.122,63.6586 143.5,62.5C 145.506,59.1708 147.839,56.1708 150.5,53.5 Z"/></g>
<g><path style="opacity:0.783" fill="#fefffe" d="M 163.5,62.5 C 168.575,62.6488 173.575,63.3155 178.5,64.5C 181.118,72.9755 182.785,81.6422 183.5,90.5C 175.332,89.5999 167.332,87.9332 159.5,85.5C 158.239,80.0495 156.572,74.7162 154.5,69.5C 157.75,67.3884 160.75,65.0551 163.5,62.5 Z"/></g>
<g><path style="opacity:0.798" fill="#fefffe" d="M 140.5,70.5 C 142.806,70.9926 145.139,71.3259 147.5,71.5C 147.54,74.4245 146.707,77.0912 145,79.5C 142.5,82 140,84.5 137.5,87C 155.274,90.5208 172.941,94.3541 190.5,98.5C 166.809,103.271 143.143,108.105 119.5,113C 124.79,120.413 129.957,127.913 135,135.5C 135.591,136.483 135.257,137.15 134,137.5C 125.683,132.173 117.35,126.84 109,121.5C 105.035,144.297 100.535,166.964 95.5,189.5C 90.8362,166.514 86.1695,143.514 81.5,120.5C 80.109,121.645 78.7757,121.645 77.5,120.5C 87.2926,108.616 98.9593,99.1161 112.5,92C 114.543,90.292 116.21,88.292 117.5,86C 125.365,80.9402 133.032,75.7736 140.5,70.5 Z"/></g>
<g><path style="opacity:0.808" fill="#fefffe" d="M 8.5,104.5 C 16.1591,105.932 23.8258,107.432 31.5,109C 34.6089,121.055 40.4423,131.555 49,140.5C 48.6941,145.072 46.3607,148.405 42,150.5C 40.3232,153.853 38.1566,156.853 35.5,159.5C 19.3102,144.786 10.3102,126.452 8.5,104.5 Z"/></g>
<g><path style="opacity:0.819" fill="#fefffe" d="M 180.5,105.5 C 181.675,105.281 182.675,105.614 183.5,106.5C 176.618,144.217 154.951,169.05 118.5,181C 113.565,182.267 108.565,183.1 103.5,183.5C 104.294,175.739 105.627,168.072 107.5,160.5C 133.859,152.974 151.193,136.141 159.5,110C 166.724,108.924 173.724,107.424 180.5,105.5 Z"/></g>
<g><path style="opacity:0.792" fill="#fefffe" d="M 76.5,125.5 C 77.4972,125.47 78.1639,125.97 78.5,127C 76.6678,133.511 73.1678,139.011 68,143.5C 66.9305,146.208 65.7639,148.875 64.5,151.5C 66.4566,153.485 68.7899,154.985 71.5,156C 75.3849,157.095 79.2183,158.261 83,159.5C 85.0394,167.403 86.5394,175.403 87.5,183.5C 70.2994,181.813 54.7994,175.813 41,165.5C 38.5952,166.953 36.0952,168.287 33.5,169.5C 33.1667,169.167 32.8333,168.833 32.5,168.5C 41.8333,157.5 51.1667,146.5 60.5,135.5C 65.9304,132.129 71.2637,128.796 76.5,125.5 Z"/></g>
</svg>
