<?xml version="1.0" encoding="UTF-8"?>
<!DOCTYPE svg PUBLIC "-//W3C//DTD SVG 1.1//EN" "http://www.w3.org/Graphics/SVG/1.1/DTD/svg11.dtd">
<svg xmlns="http://www.w3.org/2000/svg" version="1.1" width="192px" height="192px" style="shape-rendering:geometricPrecision; text-rendering:geometricPrecision; image-rendering:optimizeQuality; fill-rule:evenodd; clip-rule:evenodd" xmlns:xlink="http://www.w3.org/1999/xlink">
<g><path style="opacity:0.815" fill="#fefffe" d="M 50.5,5.5 C 69.2884,2.03405 84.4551,7.70071 96,22.5C 103.612,38.7267 101.278,53.3934 89,66.5C 82.5,61.3333 76.6667,55.5 71.5,49C 74.479,41.6166 73.979,34.45 70,27.5C 64,22.1667 58,22.1667 52,27.5C 49.6263,33.0366 47.6263,38.7033 46,44.5C 45.6608,47.036 45.1608,49.536 44.5,52C 45.8986,54.2383 45.2319,54.905 42.5,54C 36.7552,49.9075 32.9219,44.4075 31,37.5C 27.9368,43.0768 26.1034,49.0768 25.5,55.5C 16.7839,30.2655 25.1172,13.5988 50.5,5.5 Z"/></g>
<g><path style="opacity:0.76" fill="#fefffe" d="M 63.5,57.5 C 61.0403,52.3446 60.8736,47.0113 63,41.5C 63.414,41.0426 63.914,40.7093 64.5,40.5C 65.2586,45.6126 67.0919,50.2793 70,54.5C 77.473,61.0613 84.473,68.0613 91,75.5C 93.622,79.7975 95.122,84.4641 95.5,89.5C 97.1965,90.3636 98.3632,91.6969 99,93.5C 100.351,91.981 101.851,90.6477 103.5,89.5C 104.989,98.3526 101.989,105.353 94.5,110.5C 93.919,107.625 92.919,104.958 91.5,102.5C 87.7121,100.744 83.7121,100.078 79.5,100.5C 80.1667,97.8333 80.8333,95.1667 81.5,92.5C 75.1434,91.1222 68.8101,91.2889 62.5,93C 64.7148,93.1705 66.7148,93.8372 68.5,95C 67.1981,97.2129 66.1981,99.5463 65.5,102C 66.5224,104.316 68.0224,104.816 70,103.5C 69.7468,106.133 69.7468,108.8 70,111.5C 71.5095,112.09 73.0095,112.756 74.5,113.5C 70.6296,119.436 65.2963,122.102 58.5,121.5C 64.4485,117.368 63.7818,115.534 56.5,116C 63.6799,108.559 62.6799,102.559 53.5,98C 49.6684,97.2378 46.0018,97.7378 42.5,99.5C 42.1667,99.1667 41.8333,98.8333 41.5,98.5C 44.3104,93.8561 47.9771,90.0227 52.5,87C 42.6784,85.5834 42.3451,83.5834 51.5,81C 46.2409,80.6292 41.9075,82.4625 38.5,86.5C 40.5,87.1667 42.5,87.8333 44.5,88.5C 36.5898,91.4548 29.2565,95.4548 22.5,100.5C 22.1667,100.167 21.8333,99.8333 21.5,99.5C 24.8782,88.3532 20.5449,83.1865 8.5,84C 14.7506,80.2919 20.9173,76.4586 27,72.5C 27.5205,70.7111 27.1871,69.0444 26,67.5C 23.9575,65.2878 21.7908,63.2878 19.5,61.5C 23.7813,61.0802 28.1146,60.9135 32.5,61C 30.4027,56.9097 30.0694,53.0764 31.5,49.5C 33.607,51.5302 35.607,53.6969 37.5,56C 43.3587,59.9216 49.3587,63.2549 55.5,66C 53.6667,64.1667 51.8333,62.3333 50,60.5C 49.3333,55.5 49.3333,50.5 50,45.5C 50.9143,43.3359 52.081,41.3359 53.5,39.5C 54.26,47.0279 57.5934,53.0279 63.5,57.5 Z M 63.5,57.5 C 66.0892,58.4194 68.0892,60.086 69.5,62.5C 66.9108,61.5806 64.9108,59.914 63.5,57.5 Z M 74.5,80.5 C 74.8966,79.475 75.5632,79.3083 76.5,80C 78.9535,81.7401 80.4535,83.9067 81,86.5C 78.3098,84.9731 76.1432,82.9731 74.5,80.5 Z"/></g>
<g><path style="opacity:0.748" fill="#fefffe" d="M 150.5,64.5 C 151.289,64.7828 151.956,65.2828 152.5,66C 150.208,67.2899 148.208,68.9565 146.5,71C 147,71.5 147.5,72 148,72.5C 164.201,66.2974 178.368,69.2974 190.5,81.5C 180.734,81.6092 171.4,83.6092 162.5,87.5C 148.91,82.3101 138.076,85.6434 130,97.5C 125.655,104.862 121.321,112.195 117,119.5C 113.039,117.043 109.206,114.376 105.5,111.5C 104.479,110.998 104.312,110.332 105,109.5C 112.59,98.5753 122.09,89.742 133.5,83C 132.5,82.3333 131.5,82.3333 130.5,83C 123.812,86.0287 117.979,90.1954 113,95.5C 112.5,95.3333 112,95.1667 111.5,95C 115.201,84.9604 121.534,76.9604 130.5,71C 131.332,70.3123 131.998,70.479 132.5,71.5C 130.789,73.2403 129.956,75.2403 130,77.5C 136.493,72.4824 143.327,68.1491 150.5,64.5 Z"/></g>
<g><path style="opacity:0.825" fill="#fefffe" d="M 16.5,90.5 C 17.9468,91.1342 18.6134,92.3009 18.5,94C 16.9071,100.093 16.4071,106.259 17,112.5C 22.3281,105.926 28.8281,100.926 36.5,97.5C 36.4857,100.768 36.819,104.101 37.5,107.5C 39.8333,106 42.1667,104.5 44.5,103C 46.9018,102.186 49.2351,102.353 51.5,103.5C 40.5942,115.461 37.7608,129.128 43,144.5C 51.9735,156.895 62.8068,158.728 75.5,150C 80.3898,145.447 84.8898,140.613 89,135.5C 94.6326,139.629 100.133,143.962 105.5,148.5C 97.8347,163 86.5014,173.5 71.5,180C 50.5092,186.055 32.5092,181.222 17.5,165.5C 16.276,167.828 16.276,170.161 17.5,172.5C 15.6707,173.282 14.1707,172.616 13,170.5C 3.40043,158.098 0.0670999,144.098 3,128.5C 4.48434,124.246 5.15101,119.913 5,115.5C 3.66667,116.833 2.33333,118.167 1,119.5C 0.955487,112.573 2.95549,106.239 7,100.5C 10.3709,97.2975 13.5375,93.9641 16.5,90.5 Z"/></g>
<g><path style="opacity:0.81" fill="#fefffe" d="M 71.5,96.5 C 72.9245,98.1443 74.5911,99.6443 76.5,101C 80.5,102 84.5,103 88.5,104C 90.3155,107.275 91.9822,110.608 93.5,114C 98.0556,114.109 102.389,115.109 106.5,117C 114.545,124.047 122.878,130.713 131.5,137C 135.93,139.082 139.763,138.249 143,134.5C 142.432,124.085 144.765,123.085 150,131.5C 153.403,138.264 152.903,144.764 148.5,151C 158.039,152.672 164.706,149.172 168.5,140.5C 167.596,135.264 164.596,131.93 159.5,130.5C 172.161,129.255 180.994,134.589 186,146.5C 187.49,158.347 182.656,166.514 171.5,171C 166.9,172.317 162.234,173.317 157.5,174C 162.273,177.381 167.44,178.215 173,176.5C 173.667,177.167 173.667,177.833 173,178.5C 161.77,187.292 149.604,188.792 136.5,183C 129.994,178.486 126.16,172.319 125,164.5C 120.694,170.378 121.194,176.045 126.5,181.5C 119.243,181.101 114.743,177.101 113,169.5C 112.667,164.5 112.333,159.5 112,154.5C 111.71,152.048 111.044,149.715 110,147.5C 101.963,139.795 93.63,132.461 85,125.5C 83.3333,120.5 81.6667,115.5 80,110.5C 75.3418,107.847 72.1751,104.013 70.5,99C 70.7432,98.0979 71.0766,97.2646 71.5,96.5 Z"/></g>
</svg>
