<?xml version="1.0" encoding="UTF-8"?>
<!-- Generator: visioncortex VTracer 0.6.4 -->
<svg version="1.1" xmlns="http://www.w3.org/2000/svg" width="290" height="277">
<path d="M0 0 C4.5109436 1.41726235 6.95392342 3.66259724 10.1875 7.0625 C13.26744837 10.46904813 13.26744837 10.46904813 17 13 C17 13.66 17 14.32 17 15 C17.60328125 15.2371875 18.2065625 15.474375 18.828125 15.71875 C21.50191836 17.29609572 22.31498302 18.77169611 23.75 21.5 C24.17796875 22.2940625 24.6059375 23.088125 25.046875 23.90625 C26 26 26 26 26 28 C26.85464844 28.14888672 26.85464844 28.14888672 27.7265625 28.30078125 C34.40962002 30.35622334 40.38956863 36.91670387 45 42 C45 42.66 45 43.32 45 44 C44.01 44 43.02 44 42 44 C43.53693667 44.96590091 45.07980878 45.92235999 46.625 46.875 C47.48351562 47.40867188 48.34203125 47.94234375 49.2265625 48.4921875 C51.96203857 50.09467025 51.96203857 50.09467025 55.0234375 50.94921875 C58.35395851 52.12495386 60.33340563 53.64269042 63 55.9375 C65.76943635 58.25985245 67.85561531 59.93771641 71.1875 61.375 C75.77720439 64.0268292 78.39493981 68.45729174 81 73 C81.33333333 74.33333333 81.66666667 75.66666667 82 77 C82.70125 77.268125 83.4025 77.53625 84.125 77.8125 C87.66599806 79.27508616 89.43395712 81.3269133 92.0390625 84.07421875 C94.1107921 86.10880579 96.28761895 87.7799671 98.625 89.5 C102.70655074 92.57686133 105.27477736 95.69239003 108 100 C107.67 98.865625 107.34 97.73125 107 96.5625 C105.52190688 90.66061044 105.3459212 84.87528788 107 79 C106.34 79 105.68 79 105 79 C104.67 82.3 104.34 85.6 104 89 C97.11254787 85.55627393 92.07300734 81.16382603 89 74 C88.22938013 68.97595879 88.01340466 64.08706855 88 59 C92.29378813 60.92287034 94.77153701 63.62478869 98 67 C98.15339844 65.91332031 98.30679688 64.82664062 98.46484375 63.70703125 C99.16107012 61.28820805 99.57286799 60.27714113 101.70751953 58.89208984 C103.96928703 58.01492833 106.22215004 57.32577726 108.5625 56.6875 C109.33658203 56.44966797 110.11066406 56.21183594 110.90820312 55.96679688 C113.26110118 55.25955608 115.62237629 54.61864479 118 54 C118.7410498 53.80132324 119.48209961 53.60264648 120.24560547 53.39794922 C125.87209208 52.00277861 131.21720404 51.69662034 137 51.75 C138.25683594 51.73839844 138.25683594 51.73839844 139.5390625 51.7265625 C145.30052877 51.74439986 150.41577262 52.58142611 156 54 C154.35 55.98 152.7 57.96 151 60 C152.11375 60.12375 153.2275 60.2475 154.375 60.375 C158 61 158 61 160 63 C163.59679066 62.67673447 163.59679066 62.67673447 167 62 C163.40201885 69.34870678 159.94503061 76.3699796 153 81 C152.01 81 151.02 81 150 81 C149.9175 81.66 149.835 82.32 149.75 83 C148.21591101 89.13635594 145.15508463 94.25133185 141 99 C143.31 97.68 145.62 96.36 148 95 C148 94.34 148 93.68 148 93 C148.66 93 149.32 93 150 93 C150.3403125 92.1646875 150.3403125 92.1646875 150.6875 91.3125 C153.07529049 87.10544056 156.73496787 84.21014238 160.4375 81.1875 C163.02761785 79.0151431 164.9439211 76.833411 166.875 74.0625 C171.62067127 67.45155151 177.3325046 63.49639385 185 61 C187.12802546 58.69433317 187.12802546 58.69433317 189 56 C190.66666667 54.33333333 192.33333333 52.66666667 194 51 C194.66 50.154375 195.32 49.30875 196 48.4375 C198 46 198 46 200.6875 44 C203.48755726 41.57832885 203.31988173 40.52427891 204 37 C207.79351963 29.52489212 213.83376323 23.74117519 219.75 17.9375 C220.61238281 17.07189453 221.47476563 16.20628906 222.36328125 15.31445312 C228.73255599 9 228.73255599 9 231 9 C230.53539398 17.28954952 229.91491662 25.55356716 229.0625 33.8125 C228.98789551 34.5947998 228.91329102 35.37709961 228.83642578 36.18310547 C228.23359182 41.76640818 228.23359182 41.76640818 226 44 C226.33 44.66 226.66 45.32 227 46 C224.97963465 51.82340601 221.89698666 57.21289383 218 62 C217.34 62 216.68 62 216 62 C215.67 61.34 215.34 60.68 215 60 C215.1546875 61.2375 215.1546875 61.2375 215.3125 62.5 C214.75227335 68.77453849 211.1304742 73.21306795 206.5625 77.375 C203.537517 79.81070059 200.73290752 80.8880701 197 82 C194.9819245 83.30581356 192.97946592 84.63636792 191 86 C190.01 86.33 189.02 86.66 188 87 C189.32 87.66 190.64 88.32 192 89 C192 89.99 192 90.98 192 92 C195.63 91.01 199.26 90.02 203 89 C202.07231541 92.71073836 201.25832301 94.35013901 199.125 97.375 C194.20067775 103.88644442 194.20067775 103.88644442 193.6875 111.625 C194.68203869 114.1823852 195.66128449 116.60943659 197 119 C193.375 122 193.375 122 190 122 C190.66 122.66 191.32 123.32 192 124 C192.33644531 123.53980469 192.67289063 123.07960938 193.01953125 122.60546875 C195.90777283 120.26411315 199.11666071 119.92264341 202.6875 119.3125 C203.38939453 119.18294922 204.09128906 119.05339844 204.81445312 118.91992188 C206.54107423 118.60278739 208.27031635 118.29998203 210 118 C210.03738281 117.41347656 210.07476562 116.82695313 210.11328125 116.22265625 C211.86139752 111.84081415 217.00061275 110.48170233 221.078125 108.59375 C225.56739732 106.67540729 230.07008983 105.68512895 234.8671875 104.81640625 C241.36115734 103.61388051 247.71581101 101.76592284 254.09350586 100.06811523 C255.04362549 99.81618408 255.99374512 99.56425293 256.97265625 99.3046875 C257.82093994 99.07765137 258.66922363 98.85061523 259.54321289 98.61669922 C262.01681154 97.99577999 264.49549122 97.4794737 267 97 C267 97.66 267 98.32 267 99 C265.12109375 100.375 265.12109375 100.375 262.4375 102 C258.36078009 104.51642891 254.34129065 107.08457373 250.36816406 109.76171875 C247.82877236 111.47262909 245.27779272 113.16571737 242.72460938 114.85595703 C241.20298551 115.86534682 239.68698474 116.88320225 238.171875 117.90234375 C233.24285418 121.07210714 229.09371161 122.67640785 223.3046875 123.578125 C219.96094362 124.19020015 217.08446404 125.59797089 214 127 C212.42523579 127.60608572 210.84131679 128.18881099 209.25 128.75 C208.51265625 129.01296875 207.7753125 129.2759375 207.015625 129.546875 C205 130 205 130 202 129 C199.4390706 130.79857668 199.4390706 130.79857668 197 133 C196.01 133.66 195.02 134.32 194 135 C198.96073422 136.32286246 203.91111512 136.08893197 209 136 C207.48324105 140.55027685 204.16216604 141.42737598 200.046875 143.5703125 C193.0059639 146.87412463 186.76835307 148.43157517 179 148 C179.66 148.33 180.32 148.66 181 149 C181 149.66 181 150.32 181 151 C175.19306819 154.59844445 171.70484909 155.47733963 165 154 C164.01 153.67 163.02 153.34 162 153 C160.27204648 152.93197033 158.54164635 152.91504355 156.8125 152.9375 C155.91144531 152.94652344 155.01039063 152.95554688 154.08203125 152.96484375 C153.39496094 152.97644531 152.70789063 152.98804688 152 153 C150.58614089 155.38162009 150.58614089 155.38162009 150 158 C151.98 157.67 153.96 157.34 156 157 C158.31777747 160.82980397 160 163.82726483 160 168.375 C158.70107791 173.08359258 156.9375751 177.52104732 155 182 C154.34 182 153.68 182 153 182 C152.67 180.02 152.34 178.04 152 176 C151.74605469 176.97582031 151.49210938 177.95164063 151.23046875 178.95703125 C150.71419922 180.86548828 150.71419922 180.86548828 150.1875 182.8125 C149.85105469 184.07707031 149.51460937 185.34164062 149.16796875 186.64453125 C148.1097393 189.68472891 147.54331672 191.12561042 145 193 C144.67 193 144.34 193 144 193 C143.86722656 192.08476562 143.73445312 191.16953125 143.59765625 190.2265625 C143.42105469 189.03804687 143.24445313 187.84953125 143.0625 186.625 C142.88847656 185.44164062 142.71445313 184.25828125 142.53515625 183.0390625 C142.16537214 180.09297619 142.16537214 180.09297619 141 178 C140.87044922 179.16015625 140.87044922 179.16015625 140.73828125 180.34375 C139.81551381 187.1840811 138.52597424 192.63821867 134 198 C133.67 198 133.34 198 133 198 C132.86722656 197.02417969 132.73445312 196.04835937 132.59765625 195.04296875 C132.33275391 193.13451172 132.33275391 193.13451172 132.0625 191.1875 C131.88847656 189.92292969 131.71445313 188.65835938 131.53515625 187.35546875 C131.09607545 184.01678297 131.09607545 184.01678297 130 181 C126.04 190.9 126.04 190.9 122 201 C121.34 201 120.68 201 120 201 C119.823479 200.4652002 119.64695801 199.93040039 119.46508789 199.37939453 C118.66579184 196.96074202 117.86417455 194.54286513 117.0625 192.125 C116.78470703 191.28324219 116.50691406 190.44148437 116.22070312 189.57421875 C115.95322266 188.76855469 115.68574219 187.96289062 115.41015625 187.1328125 C115.16402588 186.38918457 114.91789551 185.64555664 114.66430664 184.87939453 C114.02437575 182.94577687 114.02437575 182.94577687 113 181 C111.8838344 184.71429898 111.6875805 188.39161508 111.4375 192.25 C111.31181641 194.14492188 111.31181641 194.14492188 111.18359375 196.078125 C111.12300781 197.04234375 111.06242187 198.0065625 111 199 C106.89192445 195.22501166 103.30349659 191.64855689 102.8203125 185.83984375 C102.81344293 183.89232003 102.89939987 181.94493585 103 180 C100.31780178 185.36439644 99.6847405 189.01006953 100 195 C99.01 195 98.02 195 97 195 C96.15321949 193.13103445 95.32313789 191.25449819 94.5 189.375 C94.0359375 188.33085937 93.571875 187.28671875 93.09375 186.2109375 C91.97232602 182.91875709 91.792862 180.44884777 92 177 C91.34 177 90.68 177 90 177 C89.505 183.435 89.505 183.435 89 190 C88.01 189.67 87.02 189.34 86 189 C84.83203125 186.05859375 84.83203125 186.05859375 83.8125 182.4375 C83.46832031 181.23996094 83.12414062 180.04242188 82.76953125 178.80859375 C82.51558594 177.88175781 82.26164062 176.95492187 82 176 C81.34 176 80.68 176 80 176 C79.2986924 169.40770855 81.50397814 165.50623443 85 160 C86.65 160.66 88.3 161.32 90 162 C90.45218674 158.12128967 90.45218674 158.12128967 88.5 156.375 C88.005 155.92125 87.51 155.4675 87 155 C87 154.34 87 153.68 87 153 C81.39 153.33 75.78 153.66 70 154 C70 154.66 70 155.32 70 156 C65.40128146 155.79962011 61.92456281 155.56605886 57.9375 153.125 C56 151 56 151 56 148 C55.27039063 147.87496094 54.54078125 147.74992188 53.7890625 147.62109375 C44.13868739 145.47206064 36.59795835 139.08716059 30 132 C30 131.34 30 130.68 30 130 C31.10859375 130.144375 32.2171875 130.28875 33.359375 130.4375 C34.82289983 130.62513139 36.28644244 130.81262412 37.75 131 C38.47960938 131.09539062 39.20921875 131.19078125 39.9609375 131.2890625 C43.34856804 131.72021548 46.57854859 132 50 132 C49.7525 131.2265625 49.7525 131.2265625 49.5 130.4375 C48.84951 127.26636124 48.9379266 124.22781666 49 121 C48.484375 120.773125 47.96875 120.54625 47.4375 120.3125 C44.07596873 118.5024447 41.07088856 116.26003596 38 114 C38.495 112.515 38.495 112.515 39 111 C43.95 110.01 43.95 110.01 49 109 C49.60066031 101.23145998 49.09518144 95.82768194 45.09375 89.05859375 C44 87 44 87 44 84 C47.96 84.99 51.92 85.98 56 87 C56 86.34 56 85.68 56 85 C57.4589426 85.47730838 58.91713496 85.95691042 60.375 86.4375 C61.18710938 86.70433594 61.99921875 86.97117187 62.8359375 87.24609375 C65 88 65 88 67 89 C66.01 87.35 65.02 85.7 64 84 C63.484375 84.185625 62.96875 84.37125 62.4375 84.5625 C57.7782392 85.39877758 54.1189974 84.70545488 50.125 82.1875 C49.09375 81.465625 48.0625 80.74375 47 80 C45.56978402 79.41922918 44.13151014 78.85807055 42.6875 78.3125 C37.01920808 75.89698001 32.78991155 71.80506643 29 67 C28.25 64.71875 28.25 64.71875 28 63 C26.87658203 62.86658203 26.87658203 62.86658203 25.73046875 62.73046875 C21.06898711 61.48340571 18.7049732 57.82739765 16 54 C14.5625 50.5 14.5625 50.5 14 48 C15.98 47.505 15.98 47.505 18 47 C16.6078125 46.38125 16.6078125 46.38125 15.1875 45.75 C11.53154195 43.74280735 9.73628206 42.20502124 8.39492798 38.18792725 C7.78904296 35.92417885 7.25381793 33.65320432 6.73828125 31.3671875 C6.54276169 30.53414093 6.34724213 29.70109436 6.14579773 28.84280396 C5.52556826 26.18889786 4.91916955 23.53203468 4.3125 20.875 C3.89342223 19.07922989 3.47350961 17.28365438 3.05273438 15.48828125 C2.65550684 13.78142278 2.25899747 12.07439698 1.86328125 10.3671875 C1.6758284 9.55885468 1.48837555 8.75052185 1.29524231 7.91769409 C0 2.23753959 0 2.23753959 0 0 Z M31 36 C30.67 36.66 30.34 37.32 30 38 C30.66 38 31.32 38 32 38 C31.67 37.34 31.34 36.68 31 36 Z M57 75 C58 77 58 77 58 77 Z M103 75 C104 77 104 77 104 77 Z M60 79 C60.66 80.32 61.32 81.64 62 83 C62 82.01 62 81.02 62 80 C61.34 79.67 60.68 79.34 60 79 Z M84 85 C84.33 85.66 84.66 86.32 85 87 C85.66 86.67 86.32 86.34 87 86 C86.01 85.67 85.02 85.34 84 85 Z M180 87 C179.34 88.65 178.68 90.3 178 92 C180.31 91.34 182.62 90.68 185 90 C184.01 89.67 183.02 89.34 182 89 C181.34 88.34 180.68 87.68 180 87 Z M177 92 C178 94 178 94 178 94 Z M154 93 C154.33 93.66 154.66 94.32 155 95 C155.33 94.34 155.66 93.68 156 93 C155.34 93 154.68 93 154 93 Z M57 101 C56.8096251 103.92067712 56.8096251 103.92067712 57.875 106.125 C59.38747363 109.99021039 60.16894083 113.94195575 61 118 C60.34 118.33 59.68 118.66 59 119 C59.433125 119.68707031 59.86625 120.37414062 60.3125 121.08203125 C61.1478125 122.43361328 61.1478125 122.43361328 62 123.8125 C62.556875 124.70582031 63.11375 125.59914063 63.6875 126.51953125 C65 129 65 129 65 132 C66.45537568 132.83848804 67.91440373 133.67063934 69.375 134.5 C70.18710938 134.9640625 70.99921875 135.428125 71.8359375 135.90625 C73.89336874 137.15035859 73.89336874 137.15035859 76 137 C76 137.66 76 138.32 76 139 C74.02 139.495 74.02 139.495 72 140 C74.41700987 139.85870713 76.83350429 139.71213513 79.25 139.5625 C79.93191406 139.52318359 80.61382812 139.48386719 81.31640625 139.44335938 C84.66556781 139.23200452 87.76147038 138.8518741 91 138 C92.49789742 137.91033713 93.99943021 137.86986106 95.5 137.875 C96.2528125 137.87242187 97.005625 137.86984375 97.78125 137.8671875 C100 138 100 138 102.09375 138.6328125 C104.3208691 139.29313508 104.3208691 139.29313508 107 137 C107.25015873 133.41642759 107.25015873 133.41642759 107 130 C108.32 129.34 109.64 128.68 111 128 C109.700625 127.938125 108.40125 127.87625 107.0625 127.8125 C95.96639885 126.47958301 89.256443 118.74472702 82 111 C81.67 111.66 81.34 112.32 81 113 C78.45203691 112.28887016 75.91320251 111.55706904 73.375 110.8125 C72.66214844 110.61591797 71.94929688 110.41933594 71.21484375 110.21679688 C65.08220673 108.38825831 61.52448265 105.52448265 57 101 Z M179.6875 106.75 C174.37483749 109.44132484 169.07906993 111.47147038 163.3984375 113.23828125 C161.01994086 113.92523826 161.01994086 113.92523826 159 115 C158.67 114.34 158.34 113.68 158 113 C156.7934375 114.546875 156.7934375 114.546875 155.5625 116.125 C150.26530103 122.2553265 144.06601688 126.46106178 136.01953125 127.8984375 C133.28217684 128.03609942 131.35288319 127.36619024 129 126 C129 126.66 129 127.32 129 128 C129.639375 128.185625 130.27875 128.37125 130.9375 128.5625 C133 130 133 130 133.75 133.625 C133.8325 134.73875 133.915 135.8525 134 137 C134.99 137 135.98 137 137 137 C137.33 137.99 137.66 138.98 138 140 C138.82177734 139.51080078 138.82177734 139.51080078 139.66015625 139.01171875 C142.42937215 137.81434493 144.4304696 137.76662298 147.4375 137.8125 C148.36433594 137.81894531 149.29117188 137.82539063 150.24609375 137.83203125 C152.92351717 137.99533509 155.37603432 138.46525818 158 139 C159.70504864 139.13474549 161.4149232 139.21862244 163.125 139.25 C164.39730469 139.28867188 164.39730469 139.28867188 165.6953125 139.328125 C168.51641034 138.92647717 169.14493811 138.08439646 171 136 C172.19122863 135.36277071 173.40045227 134.75808713 174.625 134.1875 C176.48406011 133.23037294 176.48406011 133.23037294 178 132 C178.9934389 129.03996532 178.9934389 129.03996532 179 126 C179.375 123.6875 179.375 123.6875 180 122 C180.99 121.67 181.98 121.34 183 121 C183 120.34 183 119.68 183 119 C182.34 119 181.68 119 181 119 C181.66 118.01 182.32 117.02 183 116 C183.25617018 113.98265985 183.5099168 111.96459417 183.71484375 109.94140625 C184.04840303 107.67046158 184.78581656 105.9426935 186 104 C183.85859231 104 181.50927851 105.79539751 179.6875 106.75 Z M113 125 C112.01 126.485 112.01 126.485 111 128 C111.99 127.67 112.98 127.34 114 127 C113.67 126.34 113.34 125.68 113 125 Z M120 139 C116.36366461 142.47998507 116.36366461 142.47998507 115 147 C114.01 147.33 113.02 147.66 112 148 C110.17450722 150.46470319 108.93087217 153.08069676 108 156 C108.72716976 159.34498088 109.59358892 160.59358892 112 163 C115.04928156 161.93469849 115.04928156 161.93469849 118 160 C118.97474816 156.91038542 118.97474816 156.91038542 119 154 C121 155 121 155 122.25 157.9375 C123.74725985 161.26948869 123.74725985 161.26948869 127.1875 162.375 C128.115625 162.58125 129.04375 162.7875 130 163 C131.66846734 161.30504044 131.66846734 161.30504044 133 159 C132.59110526 154.9928315 131.11223978 151.94101368 129.1875 148.4375 C128.68605469 147.50808594 128.18460938 146.57867187 127.66796875 145.62109375 C126.0020814 143.00327077 124.34733814 141.02356736 122 139 C121.34 139 120.68 139 120 139 Z M104 174 C105 178 105 178 105 178 Z M139 174 C140 176 140 176 140 176 Z " fill="#FFFFFF" transform="translate(23,0)"/>
<path d="M0 0 C0.66 0.33 1.32 0.66 2 1 C2.24478428 23.25058098 2.24478428 23.25058098 -6 33 C-7.52512364 35.08019463 -9.04583828 37.16362778 -10.5625 39.25 C-13.89965337 43.63858525 -17.34350591 47.87472462 -21 52 C-22.31223496 48.06329512 -21.24296256 45.87511856 -20 42 C-21.32131039 43.72786743 -22.64257079 45.4557731 -23.96362305 47.18383789 C-25.12182021 48.69797441 -26.28085003 50.21147434 -27.44067383 51.72436523 C-30.54265504 55.77313925 -33.62955424 59.83190093 -36.6875 63.9140625 C-37.27442627 64.69338135 -37.86135254 65.4727002 -38.46606445 66.27563477 C-39.60248981 67.78533499 -40.73395162 69.29878593 -41.86010742 70.81616211 C-42.37420166 71.49686768 -42.8882959 72.17757324 -43.41796875 72.87890625 C-43.86938232 73.4829126 -44.3207959 74.08691895 -44.78588867 74.70922852 C-45.18654541 75.13518311 -45.58720215 75.5611377 -46 76 C-46.66 76 -47.32 76 -48 76 C-46.64223374 70.24735875 -45.177361 64.54625842 -43.5 58.87890625 C-43.09998779 57.51995239 -43.09998779 57.51995239 -42.69189453 56.13354492 C-42.15877519 54.33327132 -41.61840786 52.53512365 -41.06982422 50.73950195 C-39.32491954 44.83054429 -38.39688472 39.14759609 -38 33 C-38.99 32.67 -39.98 32.34 -41 32 C-41 33.98 -41 35.96 -41 38 C-45.05391422 36.64869526 -46.08257424 34.04828362 -48.0625 30.5 C-48.41957031 29.86723145 -48.77664062 29.23446289 -49.14453125 28.58251953 C-52.49155495 22.44891128 -54 17.08435805 -54 10 C-53.34 10 -52.68 10 -52 10 C-50.61061923 11.96147874 -49.2739589 13.96166576 -48 16 C-47.67 13.36 -47.34 10.72 -47 8 C-46.01 8 -45.02 8 -44 8 C-43.39520315 9.35388533 -42.79120246 10.70812632 -42.1875 12.0625 C-41.81882813 12.87847656 -41.45015625 13.69445312 -41.0703125 14.53515625 C-40.41485695 16.04461774 -39.79585334 17.57140019 -39.2421875 19.12109375 C-38.52455588 21.23477991 -38.52455588 21.23477991 -37 24 C-34.68805807 25.09616096 -34.68805807 25.09616096 -32 25 C-30.96875 25.103125 -29.9375 25.20625 -28.875 25.3125 C-25.94552569 25.31120671 -25.94552569 25.31120671 -24.42578125 23.30859375 C-22.88376142 20.81178905 -22.09267956 18.57350698 -21.3125 15.75 C-20.93544922 14.41195312 -20.93544922 14.41195312 -20.55078125 13.046875 C-20.36902344 12.37140625 -20.18726563 11.6959375 -20 11 C-19.34 11 -18.68 11 -18 11 C-15.38411497 14.55760365 -14.50642192 17.64477147 -14 22 C-11.42924159 18.98552165 -10.47792934 16.64020229 -9.8125 12.75 C-9.65394531 11.85796875 -9.49539062 10.9659375 -9.33203125 10.046875 C-9.22246094 9.37140625 -9.11289063 8.6959375 -9 8 C-8.01 8 -7.02 8 -6 8 C-4.3122919 6.23598598 -4.3122919 6.23598598 -2.8125 4 C-2.28269531 3.2575 -1.75289062 2.515 -1.20703125 1.75 C-0.80871094 1.1725 -0.41039062 0.595 0 0 Z " fill="#FFFFFF" transform="translate(175,201)"/>
<path d="M0 0 C0 3.96 0 7.92 0 12 C1.32 11.34 2.64 10.68 4 10 C6.45904149 13.68856223 6.15290851 15.64210738 6 20 C6 21.32 6 22.64 6 24 C3.32946082 27.18981069 1.25721298 29.52697634 -3 30 C-2.34 28.02 -1.68 26.04 -1 24 C-10.84002436 26.58948009 -19.01140519 33.32440605 -27.125 39.203125 C-32.11906344 42.8214849 -37.17367765 46.3539649 -42.22680664 49.88916016 C-45.18910629 51.97130791 -48.0676571 54.05541438 -50.87109375 56.3515625 C-53 58 -53 58 -55 58 C-53.737051 54.50666408 -52.30606779 51.82257525 -49.98828125 48.92578125 C-49.39845459 48.18030029 -48.80862793 47.43481934 -48.20092773 46.66674805 C-47.57774658 45.88984619 -46.95456543 45.11294434 -46.3125 44.3125 C-42.38595179 39.35430376 -38.49522217 34.42130461 -34.9375 29.1875 C-30.93488117 23.33906196 -25.88783619 17.2959454 -19 15 C-17.83582056 13.24040004 -17.83582056 13.24040004 -16.9375 11.125 C-14.70312508 6.26142085 -13.1831581 3.77504297 -8.0625 1.8125 C-7.18722656 1.46832031 -6.31195313 1.12414062 -5.41015625 0.76953125 C-3 0 -3 0 0 0 Z " fill="#FFFFFF" transform="translate(95,173)"/>
<path d="M0 0 C1.16660156 0.10699219 2.33320313 0.21398437 3.53515625 0.32421875 C14.85101186 1.71779703 21.70280894 6.35766289 30.60351562 13.21191406 C35.08680513 16.55702535 39.77146159 19.60531335 44.4375 22.6875 C45.35619873 23.29956299 46.27489746 23.91162598 47.22143555 24.54223633 C51.50287171 27.45439798 51.50287171 27.45439798 56 30 C56 30.66 56 31.32 56 32 C50.68481224 31.43701719 45.82711657 30.52744458 40.68359375 29.00390625 C40.02343765 28.81030014 39.36328156 28.61669403 38.68312073 28.41722107 C36.59948669 27.80476991 34.51849012 27.18386811 32.4375 26.5625 C31.03988345 26.14981476 29.64209803 25.737701 28.24414062 25.32617188 C25.66614515 24.56678261 23.08943853 23.80349096 20.51342773 23.03735352 C13.11933314 20.72333454 13.11933314 20.72333454 5.5 19.5625 C0.05903825 19.0248922 -4.06521038 17.57838101 -8.375 14.0625 C-10 12 -10 12 -10.4375 10 C-11.29046136 6.96724849 -13.56781142 5.87091429 -16 4 C-16 3.34 -16 2.68 -16 2 C-10.26654963 -1.04970764 -6.37177551 -1.11167147 0 0 Z " fill="#FFFFFF" transform="translate(223,151)"/>
<path d="M0 0 C0 0.66 0 1.32 0 2 C2.31 2 4.62 2 7 2 C7 2.66 7 3.32 7 4 C4.35973729 4.87604583 1.71518861 5.72562669 -0.9375 6.5625 C-1.67291016 6.80935547 -2.40832031 7.05621094 -3.16601562 7.31054688 C-8.8253741 9.06519514 -13.20670326 9.05124796 -19 8 C-20.37103882 7.7688147 -20.37103882 7.7688147 -21.76977539 7.53295898 C-24.7055444 7.02489701 -27.63403148 6.48598219 -30.5625 5.9375 C-31.57119141 5.75123047 -32.57988281 5.56496094 -33.61914062 5.37304688 C-36.07996816 4.91820197 -38.54021974 4.46046882 -41 4 C-41 3.34 -41 2.68 -41 2 C-36.71743261 1.08774165 -32.43103221 0.19746531 -28.13989258 -0.67333984 C-26.68294096 -0.97212717 -25.22716823 -1.27672757 -23.77270508 -1.58740234 C-21.67297265 -2.03482734 -19.56978642 -2.46067054 -17.46484375 -2.8828125 C-15.57173462 -3.27557373 -15.57173462 -3.27557373 -13.64038086 -3.67626953 C-8.25966761 -4.15476365 -4.46405009 -2.97603339 0 0 Z " fill="#FFFFFF" transform="translate(41,117)"/>
<path d="M0 0 C3.69425083 0.90842234 7.3457082 1.94257201 11 3 C11.82016602 3.23638184 12.64033203 3.47276367 13.48535156 3.71630859 C16.27005059 4.53365539 19.04123612 5.38828203 21.8125 6.25 C23.17314575 6.64457397 23.17314575 6.64457397 24.5612793 7.04711914 C30.89868931 9.06758159 34.18362246 11.6041953 38 17 C41.02056661 21.05491928 41.02056661 21.05491928 45 24 C45 24.66 45 25.32 45 26 C44.29875 25.690625 43.5975 25.38125 42.875 25.0625 C40.07853039 23.92476547 40.07853039 23.92476547 37.3125 23.5625 C28.12451548 22.00227621 21.90089212 19.03596074 14.75 13.0625 C13.22538499 11.82246262 11.6993735 10.58413995 10.171875 9.34765625 C9.46224609 8.7664502 8.75261719 8.18524414 8.02148438 7.58642578 C6.21547754 6.16910303 4.39128325 4.90999576 2.453125 3.68359375 C1.64359375 3.12800781 0.8340625 2.57242188 0 2 C0 1.34 0 0.68 0 0 Z " fill="#FFFFFF" transform="translate(15,67)"/>
<path d="M0 0 C0.99 0.33 1.98 0.66 3 1 C3.73046875 2.84765625 3.73046875 2.84765625 4.1875 5.0625 C4.34605469 5.79597656 4.50460938 6.52945313 4.66796875 7.28515625 C4.77753906 7.85105469 4.88710937 8.41695312 5 9 C5.99 9 6.98 9 8 9 C9.09402885 12.31855418 9.16624301 13.64111067 7.671875 16.8671875 C7.03765625 17.85976562 6.4034375 18.85234375 5.75 19.875 C3.08579173 24.18240259 0.82274746 28.28230069 -1 33 C-1.66 33 -2.32 33 -3 33 C-3.66 32.01 -4.32 31.02 -5 30 C-5.66 30.33 -6.32 30.66 -7 31 C-7.55520426 24.08968981 -5.51627257 18.12122446 -3.5 11.5625 C-3.16613281 10.44939453 -2.83226562 9.33628906 -2.48828125 8.18945312 C-1.66735492 5.45694118 -0.83773028 2.7273977 0 0 Z " fill="#FFFFFF" transform="translate(186,180)"/>
<path d="M0 0 C11.92325621 -1.52644816 11.92325621 -1.52644816 16.93359375 2.15625 C23 8.9118 23 8.9118 23 12 C23.66 12 24.32 12 25 12 C25 12.66 25 13.32 25 14 C22.8851768 13.76122964 20.77045268 13.52154754 18.65625 13.27734375 C16.86773002 13.09060122 15.07540647 12.93756337 13.28125 12.81640625 C12.4046875 12.75324219 11.528125 12.69007813 10.625 12.625 C9.40683594 12.55152344 9.40683594 12.55152344 8.1640625 12.4765625 C5.48986356 11.88765948 4.63521179 11.17866497 3 9 C2.05078125 6.73828125 2.05078125 6.73828125 1.3125 4.3125 C1.06113281 3.50425781 0.80976563 2.69601563 0.55078125 1.86328125 C0.36902344 1.24839844 0.18726563 0.63351563 0 0 Z " fill="#FFFFFF" transform="translate(197,161)"/>
<path d="M0 0 C-1.72159374 1.94470746 -3.45166256 3.88057309 -5.1875 5.8125 C-5.67025391 6.35970703 -6.15300781 6.90691406 -6.65039062 7.47070312 C-11.40132012 12.73179955 -16.51629277 15.3302382 -23 18 C-23 15 -23 15 -21.1875 13.125 C-20.465625 12.42375 -19.74375 11.7225 -19 11 C-18.59394531 10.21109375 -18.18789062 9.4221875 -17.76953125 8.609375 C-15.48376729 5.23875618 -13.08877055 4.00829626 -9.5 2.125 C-8.3553125 1.50882813 -7.210625 0.89265625 -6.03125 0.2578125 C-3 -1 -3 -1 0 0 Z " fill="#FFFFFF" transform="translate(272,52)"/>
<path d="M0 0 C8.78303197 1.33076242 14.49944737 5.09585808 20 12 C21.23046875 14.7578125 21.23046875 14.7578125 22 17 C6.96371553 11.06603774 6.96371553 11.06603774 2 3 C1.34 2.67 0.68 2.34 0 2 C0 1.34 0 0.68 0 0 Z " fill="#FFFFFF" transform="translate(215,178)"/>
<path d="M0 0 C1.36520781 4.09562342 0.15055168 5.85074323 -1.61328125 9.64453125 C-3.48019227 12.81565053 -5.79777174 15.13160053 -8.51171875 17.58984375 C-10.11771138 18.95069389 -10.11771138 18.95069389 -11 21 C-11.99 21 -12.98 21 -14 21 C-12.44450435 15.03726667 -11.02691027 9.75907578 -7 5 C-4.75 4.125 -4.75 4.125 -3 4 C-3 3.34 -3 2.68 -3 2 C-2.01 1.34 -1.02 0.68 0 0 Z " fill="#FFFFFF" transform="translate(100,207)"/>
<path d="M0 0 C6.29252827 5.88774575 8.52692968 12.4359929 8.95703125 20.91015625 C8.97121094 21.59980469 8.98539063 22.28945313 9 23 C4.95177706 21.65059235 3.54789431 19.35249252 1 16 C-0.14077657 12.57767028 -0.09815117 9.91326783 -0.0625 6.3125 C-0.05347656 5.13300781 -0.04445313 3.95351563 -0.03515625 2.73828125 C-0.02355469 1.83464844 -0.01195313 0.93101562 0 0 Z " fill="#FFFFFF" transform="translate(73,0)"/>
<path d="M0 0 C0 0.66 0 1.32 0 2 C-0.639375 2.103125 -1.27875 2.20625 -1.9375 2.3125 C-2.618125 2.539375 -3.29875 2.76625 -4 3 C-4.33 3.99 -4.66 4.98 -5 6 C-10.58465714 7.79506837 -16.17181635 8.4873357 -22 9 C-20.47872463 4.4361739 -17.19329807 3.41194138 -13.078125 1.23046875 C-8.62885426 -0.54811029 -4.70697367 -0.55135917 0 0 Z " fill="#FFFFFF" transform="translate(83,163)"/>
<path d="M0 0 C5.19584017 2.17927071 8.14778302 6.26381864 11 11 C11.79925559 13.82062872 11.94618223 16.04002285 12 19 C10 19 10 19 8.0625 17.125 C7.381875 16.42375 6.70125 15.7225 6 15 C5.01 14.34 4.02 13.68 3 13 C2.05078125 10.9765625 2.05078125 10.9765625 1.3125 8.625 C1.06113281 7.85414062 0.80976562 7.08328125 0.55078125 6.2890625 C0 4 0 4 0 0 Z " fill="#FFFFFF" transform="translate(93,33)"/>
<path d="M0 0 C-1.47877618 4.87996139 -4.06812975 8.77650313 -8 12 C-11.26496108 13.38882673 -14.53035671 14.28001473 -18 15 C-17.34 13.68 -16.68 12.36 -16 11 C-15.34 11 -14.68 11 -14 11 C-13.773125 10.24332031 -13.54625 9.48664063 -13.3125 8.70703125 C-11.70285023 5.3871286 -10.18543807 4.47930891 -7 2.6875 C-6.113125 2.17574219 -5.22625 1.66398437 -4.3125 1.13671875 C-2 0 -2 0 0 0 Z " fill="#FFFFFF" transform="translate(244,84)"/>
<path d="M0 0 C0.66 0 1.32 0 2 0 C7.40738209 5.57124215 6.79725333 12.59974668 7 20 C6.01 20 5.02 20 4 20 C0.11716499 12.81205283 -1.72442619 8.09153828 0 0 Z " fill="#FFFFFF" transform="translate(190,208)"/>
<path d="M0 0 C-2.69402126 7.25313415 -5.06687635 10.59646657 -12 14 C-12.66 14 -13.32 14 -14 14 C-13.71125 13.443125 -13.4225 12.88625 -13.125 12.3125 C-11.93169491 10.03294363 -11.93169491 10.03294363 -11.3125 7.5625 C-9.04649328 3.13839165 -5.02361021 0 0 0 Z " fill="#FFFFFF" transform="translate(200,38)"/>
<path d="M0 0 C0.99 0.33 1.98 0.66 3 1 C3.62638406 10.93514711 3.62638406 10.93514711 1.125 15.1875 C-1 17 -1 17 -3 17 C-3.3540919 10.48208608 -3.03901852 5.82478551 0 0 Z " fill="#FFFFFF" transform="translate(173,24)"/>
<path d="M0 0 C-1 3 -1 3 -3.16796875 4.67578125 C-6.47191176 6.22065943 -8.68665678 6.30703329 -12.3125 6.1875 C-13.91544922 6.14689453 -13.91544922 6.14689453 -15.55078125 6.10546875 C-16.35902344 6.07066406 -17.16726562 6.03585938 -18 6 C-17 3 -17 3 -14.0625 1.3125 C-9.46349544 -0.52710182 -4.87368665 -0.26476769 0 0 Z " fill="#FFFFFF" transform="translate(49,134)"/>
<path d="M0 0 C7.07487342 -0.64317031 11.09493185 1.17264102 17 5 C17 5.66 17 6.32 17 7 C10.10088455 7.27055355 5.68128825 5.89574052 0 2 C0 1.34 0 0.68 0 0 Z " fill="#FFFFFF" transform="translate(236,140)"/>
<path d="M0 0 C0.99 0.33 1.98 0.66 3 1 C0.07923745 5.90688109 -3.27878868 9.72073499 -8 13 C-8.66 13 -9.32 13 -10 13 C-8.90875514 7.40737011 -6.07800443 4.83689736 -1.97265625 1.22265625 C-1.32167969 0.81917969 -0.67070312 0.41570313 0 0 Z " fill="#FFFFFF" transform="translate(221,38)"/>
<path d="M0 0 C3.49167166 0.29097264 4.76200675 0.75539583 7.25 3.3125 C8.79239724 5.68118147 9.59162913 7.24349664 10 10 C5.89665529 9.06742166 4.28397854 8.35870974 1.625 5 C0 2 0 2 0 0 Z " fill="#FFFFFF" transform="translate(195,174)"/>
<path d="M0 0 C3.80443255 0.54349036 5.6081779 2.03084153 8 5 C8.75 7.75 8.75 7.75 9 10 C5.91085915 9.66902062 4.9973069 8.99715301 2.8125 6.6875 C1.20592291 4.30533398 0.41425314 2.79620867 0 0 Z " fill="#FFFFFF" transform="translate(77,35)"/>
<path d="M0 0 C0 0.66 0 1.32 0 2 C-6.75 5 -6.75 5 -9 5 C-9 4.34 -9 3.68 -9 3 C-5.63316085 0.56839395 -4.26649636 0 0 0 Z " fill="#FFFFFF" transform="translate(257,88)"/>
<path d="M0 0 C0.66 0 1.32 0 2 0 C2 0.66 2 1.32 2 2 C2.99 2.33 3.98 2.66 5 3 C5 3.99 5 4.98 5 6 C4.01 6 3.02 6 2 6 C0 3 0 3 0 0 Z " fill="#FFFFFF" transform="translate(117,50)"/>
<path d="M0 0 C0.66 0 1.32 0 2 0 C1.6875 1.9375 1.6875 1.9375 1 4 C0.01 4.33 -0.98 4.66 -2 5 C-1.125 1.125 -1.125 1.125 0 0 Z " fill="#FFFFFF" transform="translate(74,210)"/>
<path d="M0 0 C-0.33 0.99 -0.66 1.98 -1 3 C-3.0625 3.6875 -3.0625 3.6875 -5 4 C-5 3.01 -5 2.02 -5 1 C-2 0 -2 0 0 0 Z " fill="#FFFFFF" transform="translate(239,102)"/>
<path d="M0 0 C-0.33 0.99 -0.66 1.98 -1 3 C-3.0625 3.6875 -3.0625 3.6875 -5 4 C-4.67 3.01 -4.34 2.02 -4 1 C-2 0 -2 0 0 0 Z " fill="#FFFFFF" transform="translate(72,215)"/>
<path d="M0 0 C1.98 0.99 1.98 0.99 4 2 C4 2.99 4 3.98 4 5 C2 3.625 2 3.625 0 2 C0 1.34 0 0.68 0 0 Z " fill="#FFFFFF" transform="translate(64,24)"/>
<path d="M0 0 C1.65 0 3.3 0 5 0 C5 0.66 5 1.32 5 2 C3.35 2 1.7 2 0 2 C0 1.34 0 0.68 0 0 Z " fill="#FFFFFF" transform="translate(49,103)"/>
<path d="M0 0 C0.66 0 1.32 0 2 0 C1.67 1.32 1.34 2.64 1 4 C0.34 4 -0.32 4 -1 4 C-0.67 2.68 -0.34 1.36 0 0 Z " fill="#FFFFFF" transform="translate(201,52)"/>
<path d="M0 0 C1.32 0.33 2.64 0.66 4 1 C4 1.66 4 2.32 4 3 C2.68 2.67 1.36 2.34 0 2 C0 1.34 0 0.68 0 0 Z " fill="#FFFFFF" transform="translate(99,59)"/>
</svg>
