<?xml version="1.0" encoding="UTF-8"?>
<!-- Generator: visioncortex VTracer 0.6.4 -->
<svg version="1.1" xmlns="http://www.w3.org/2000/svg" width="290" height="278">
<path d="M0 0 C3.41866185 1.1189901 6.83460056 2.24609377 10.25 3.375 C11.85548706 3.90323364 11.85548706 3.90323364 13.4934082 4.44213867 C19.40326377 6.40470339 25.26510419 8.44910411 31.08984375 10.65234375 C44.00267655 15.51889986 55.90334361 19.1329988 69.60351562 20.58691406 C76.59410491 21.43712087 83.54232308 22.59728595 90.4956665 23.70666504 C93.09388365 24.12004929 95.6930443 24.52697684 98.29248047 24.93261719 C99.90596076 25.18661862 101.51940632 25.44084075 103.1328125 25.6953125 C103.88185852 25.81184174 104.63090454 25.92837097 105.40264893 26.0484314 C108.37481034 26.52198341 111.13853565 27.04617855 114 28 C114 28.66 114 29.32 114 30 C113.40786713 30.14874573 112.81573425 30.29749146 112.20565796 30.45074463 C104.59099974 32.36650639 96.98165227 34.30270252 89.375 36.25 C88.15637268 36.56180206 86.93774536 36.87360413 85.68218994 37.19485474 C67.96671045 41.74607392 50.46497683 46.70199662 33.12646484 52.53027344 C32.39214233 52.77364944 31.65781982 53.01702545 30.90124512 53.26777649 C28.95935755 53.91341877 27.02217703 54.57317196 25.08544922 55.23413086 C22.11471043 55.97152662 20.7628798 56.21422352 18 55 C16.28125 53.20703125 16.28125 53.20703125 14.5 50.8125 C11.1451811 46.43936549 7.66992991 42.22618922 4.0625 38.0625 C-0.41078806 32.8842747 -4.77952826 27.6421788 -9.0625 22.3046875 C-10.97555113 19.94951283 -10.97555113 19.94951283 -13.25 17.8203125 C-15 16 -15 16 -15 14 C-9.362806 14.61413333 -4.59665605 16.59213402 0.5625 18.8125 C1.46766357 19.19978271 2.37282715 19.58706543 3.30541992 19.98608398 C13.64030917 24.53635426 23.3334987 30.18766642 33 36 C27.13600438 28.44136344 20.19465657 21.93933008 12.94921875 15.72265625 C8.25656498 11.57544119 3.51085108 7.21766484 0 2 C0 1.34 0 0.68 0 0 Z " fill="#FFFFFF" transform="translate(176,104)"/>
<path d="M0 0 C-2.587571 9.73858323 -6.78706834 18.0331569 -11.75927734 26.75 C-12.84105964 28.71176813 -13.78491182 30.6793715 -14.70703125 32.71875 C-17.34399842 37.52838764 -19.53007219 40.14982909 -24.69384766 41.92724609 C-31.55479044 43.68331438 -38.50713105 44.6791465 -45.52685547 45.56054688 C-48.76972456 45.9708635 -51.99377812 46.44552844 -55.22265625 46.953125 C-60.1410805 47.7147872 -65.05214106 48.4567222 -70 49 C-71.06863281 49.12890625 -72.13726562 49.2578125 -73.23828125 49.390625 C-77.24395961 48.82405097 -78.67406386 46.88001548 -81.375 43.9375 C-82.34442857 42.90963879 -83.31578626 41.88359362 -84.2890625 40.859375 C-85.18367188 39.91578125 -86.07828125 38.9721875 -87 38 C-88.22965712 36.87322256 -89.47742782 35.76557425 -90.75 34.6875 C-94.78258311 31.2464735 -98.63571164 27.6271605 -102.5 24 C-108.30355541 18.55929994 -114.16862186 13.22712266 -120.25390625 8.1015625 C-120.99511719 7.46992188 -121.73632812 6.83828125 -122.5 6.1875 C-123.1703125 5.62417969 -123.840625 5.06085938 -124.53125 4.48046875 C-126 3 -126 3 -126 1 C-117.33042283 3.09201715 -108.76589659 5.45930043 -100.2109375 7.9765625 C-98.94528961 8.34727875 -97.67964172 8.717995 -96.37564087 9.09994507 C-93.72475162 9.87663711 -91.07435171 10.65496979 -88.42431641 11.43457031 C-85.02684729 12.43394076 -81.6282494 13.42940974 -78.22929955 14.42373085 C-74.97261538 15.37692401 -71.71680796 16.33309351 -68.4609375 17.2890625 C-67.24022552 17.6463443 -66.01951355 18.0036261 -64.7618103 18.37173462 C-63.63949005 18.7023288 -62.5171698 19.03292297 -61.36083984 19.37353516 C-60.37111176 19.6642691 -59.38138367 19.95500305 -58.36166382 20.25454712 C-56 21 -56 21 -54 22 C-54 22.66 -54 23.32 -54 24 C-58.29 25.98 -62.58 27.96 -67 30 C-50.73627671 30.710087 -40.55540524 29.46455078 -28.10791016 18.75976562 C-24.34216462 15.61597435 -20.31000697 12.83851461 -16.3125 10 C-14.84958655 8.93842802 -13.38731032 7.87597714 -11.92578125 6.8125 C-2.45814134 0 -2.45814134 0 0 0 Z " fill="#FFFFFF" transform="translate(158,152)"/>
<path d="M0 0 C2.48161888 1.75322563 4.69526106 3.76630381 6.9375 5.8125 C8.27692313 7.0043791 9.61677669 8.19577466 10.95703125 9.38671875 C11.6320166 9.99177246 12.30700195 10.59682617 13.00244141 11.22021484 C16.00729297 13.8974781 19.06349642 16.51293101 22.125 19.125 C22.69686035 19.61419922 23.2687207 20.10339844 23.85791016 20.60742188 C25.57106012 22.07264784 27.28548796 23.53636826 29 25 C29.57024902 25.48774902 30.14049805 25.97549805 30.72802734 26.47802734 C32.42097274 27.92507542 34.11596535 29.36966207 35.8125 30.8125 C36.34593018 31.26633057 36.87936035 31.72016113 37.42895508 32.18774414 C41.34144615 35.4946655 45.35966579 38.62855172 49.48828125 41.66015625 C49.98714844 42.10230469 50.48601562 42.54445312 51 43 C51 43.66 51 44.32 51 45 C37.52345186 41.76599402 24.18106018 38.06295887 10.83154297 34.34448242 C7.08516783 33.30140986 3.33756696 32.2628267 -0.41015625 31.22460938 C-2.79174034 30.56276507 -5.17325347 29.9006653 -7.5546875 29.23828125 C-8.67535614 28.92788406 -9.79602478 28.61748688 -10.95065308 28.29768372 C-11.97997955 28.01035873 -13.00930603 27.72303375 -14.06982422 27.42700195 C-14.97642792 27.174814 -15.88303162 26.92262604 -16.81710815 26.66279602 C-19 26 -19 26 -21 25 C-21 24.34 -21 23.68 -21 23 C-19.25 21.7109375 -19.25 21.7109375 -17 20.375 C-16.2575 19.92898437 -15.515 19.48296875 -14.75 19.0234375 C-14.1725 18.68570313 -13.595 18.34796875 -13 18 C-29.74149919 17.57825358 -39.80382038 23.28349795 -53.13525391 32.94873047 C-57.72531154 36.23539011 -62.45281768 39.3022434 -67.1875 42.375 C-68.01894531 42.92776611 -68.85039062 43.48053223 -69.70703125 44.05004883 C-70.47789062 44.55689209 -71.24875 45.06373535 -72.04296875 45.5859375 C-72.71352295 46.0298584 -73.38407715 46.4737793 -74.07495117 46.93115234 C-76.04770781 48.02648888 -77.79551448 48.56088393 -80 49 C-78.60734799 44.42513816 -76.75756131 40.26388636 -74.5 36.0625 C-74.15614258 35.42006348 -73.81228516 34.77762695 -73.45800781 34.11572266 C-69.44423127 26.77140353 -64.83549667 19.82561604 -60 13 C-59.50459717 12.15356934 -59.00919434 11.30713867 -58.4987793 10.43505859 C-54.74243927 6.77450799 -50.79098501 6.56008859 -45.72265625 5.796875 C-44.71915634 5.62875305 -43.71565643 5.4606311 -42.68174744 5.28741455 C-39.47820942 4.75519061 -36.27087666 4.25214305 -33.0625 3.75 C-30.90658281 3.39777567 -28.75097855 3.04363025 -26.59570312 2.6875 C-21.84012594 1.90377685 -17.0819462 1.13877671 -12.32069397 0.39031982 C-10.65865407 0.11077968 -9.00305615 -0.2081744 -7.35325623 -0.55267334 C-4.39430908 -1.1151348 -2.86024639 -1.01025096 0 0 Z " fill="#FFFFFF" transform="translate(212,71)"/>
<path d="M0 0 C1.75673299 1.54924484 3.33459631 3.22129052 4.9453125 4.921875 C17.64870163 17.77016971 34.8171122 29.9085561 51 38 C51 38.66 51 39.32 51 40 C49.20703125 41.54296875 49.20703125 41.54296875 46.8125 43.1875 C46.03519531 43.73792969 45.25789063 44.28835937 44.45703125 44.85546875 C41.38241059 46.28768473 40.22632148 45.89059916 37 45 C34.79370117 43.9152832 34.79370117 43.9152832 32.54296875 42.55078125 C31.68848145 42.03862061 30.83399414 41.52645996 29.95361328 40.9987793 C29.0407959 40.44230713 28.12797852 39.88583496 27.1875 39.3125 C25.23095507 38.13721087 23.27390423 36.96276361 21.31640625 35.7890625 C20.29305176 35.17321289 19.26969727 34.55736328 18.21533203 33.92285156 C12.71208691 30.63176891 7.1677791 27.41139949 1.625 24.1875 C-0.42449154 22.99351083 -2.47397182 21.79950232 -4.5234375 20.60546875 C-6.01557104 19.73688646 -7.50773617 18.86835842 -9 18 C-6.79637456 20.77336621 -4.57278179 23.51343331 -2.25 26.1875 C0 29 0 29 0 31 C-16.14859008 27.87100666 -32.19888696 24.34206654 -48.25 20.75 C-50.76037203 20.18990407 -53.27078843 19.63000698 -55.78125 19.0703125 C-61.85467875 17.71582743 -67.92756037 16.35891226 -74 15 C-74 14.34 -74 13.68 -74 13 C-65.53067486 10.99102204 -57.04831403 9.17262781 -48.49609375 7.5546875 C-47.36978043 7.33934357 -46.2434671 7.12399963 -45.08302307 6.90213013 C-41.53495605 6.22408529 -37.98627607 5.54932304 -34.4375 4.875 C-30.85668354 4.19305431 -27.27600752 3.51038901 -23.6955719 2.82644653 C-21.47994297 2.40336201 -19.26408046 1.98149838 -17.04795837 1.56100464 C-16.04914139 1.37055573 -15.0503244 1.18010681 -14.02124023 0.98388672 C-13.14555893 0.81750702 -12.26987762 0.65112732 -11.36766052 0.47970581 C-9.84692699 0.17159377 -8.33283339 -0.17268703 -6.83070374 -0.56149292 C-4.05885708 -1.22543125 -2.70666267 -1.0071303 0 0 Z " fill="#FFFFFF" transform="translate(74,119)"/>
<path d="M0 0 C3.96838815 1.56330442 6.41568292 4.32116605 9.1875 7.4375 C9.66509766 7.96593506 10.14269531 8.49437012 10.63476562 9.03881836 C14.61570604 13.48036891 18.40230026 18.06243838 22.125 22.72265625 C23.8513886 24.94736756 23.8513886 24.94736756 25.58349609 26.37744141 C28.25247522 29.43466913 27.59568133 33.4277761 27.625 37.3125 C27.67011719 38.15490234 27.71523437 38.99730469 27.76171875 39.86523438 C27.8287044 45.98485202 27.8287044 45.98485202 25.64355469 48.66162109 C24.44105435 49.65652694 23.20474875 50.61148203 21.94384766 51.53125 C19.96601487 53.02567879 18.56189323 54.54336904 16.984375 56.44921875 C11.15816383 63.28932086 4.61919607 69.48458143 -1.75 75.8125 C-3.09007753 77.14755184 -4.42992318 78.48283647 -5.76953125 79.81835938 C-8.70601886 82.74509358 -11.64468852 85.6696155 -14.58538818 88.59211731 C-16.05931489 90.05903274 -17.53012784 91.5290228 -19 93 C-20.25476962 89.23569113 -19.54847004 88.12171983 -18.15625 84.4609375 C-17.73754639 83.33558594 -17.31884277 82.21023437 -16.88745117 81.05078125 C-16.42959229 79.83777344 -15.9717334 78.62476563 -15.5 77.375 C-10.9454541 65.04259276 -7.0940693 52.62993417 -3.76269531 39.90576172 C-3.01263729 37.04814629 -2.23824798 34.197961 -1.4609375 31.34765625 C-0.99315568 29.58637119 -0.5269242 27.82467339 -0.0625 26.0625 C0.14930908 25.28841797 0.36111816 24.51433594 0.5793457 23.71679688 C2.65857498 15.57351802 2.76950203 7.96231834 0 0 Z " fill="#FFFFFF" transform="translate(162,142)"/>
<path d="M0 0 C1.12415796 3.29526269 0.9422947 4.87427862 -0.5546875 7.9921875 C-0.91836426 8.76933105 -1.28204102 9.54647461 -1.65673828 10.34716797 C-2.05876465 11.18135254 -2.46079102 12.01553711 -2.875 12.875 C-3.70594287 14.66536153 -4.53396226 16.45708219 -5.359375 18.25 C-6.0080957 19.65378906 -6.0080957 19.65378906 -6.66992188 21.0859375 C-8.9043857 25.98141477 -11.03634434 30.91579881 -13.125 35.875 C-13.52702637 36.79522949 -13.92905273 37.71545898 -14.34326172 38.66357422 C-14.70693848 39.5351416 -15.07061523 40.40670898 -15.4453125 41.3046875 C-15.77031738 42.06765137 -16.09532227 42.83061523 -16.43017578 43.61669922 C-17.6832614 48.85775398 -15.72460833 53.02375887 -13.2265625 57.5703125 C-12.65373535 58.62283203 -12.0809082 59.67535156 -11.49072266 60.75976562 C-10.87503418 61.87029297 -10.2593457 62.98082031 -9.625 64.125 C-9.00028809 65.26904297 -8.37557617 66.41308594 -7.73193359 67.59179688 C-4.72142064 73.10372791 -1.67182549 78.59401637 1.375 84.0859375 C1.88369629 85.00487793 2.39239258 85.92381836 2.91650391 86.87060547 C3.87227327 88.59367813 4.83272252 90.31416509 5.79833984 92.03173828 C6.22324707 92.79470215 6.6481543 93.55766602 7.0859375 94.34375 C7.4576709 95.00568359 7.8294043 95.66761719 8.21240234 96.34960938 C9 98 9 98 9 100 C6.07356763 98.67143806 3.9299237 97.20435823 1.609375 94.98828125 C0.98659668 94.39901855 0.36381836 93.80975586 -0.27783203 93.20263672 C-1.25405518 92.26701904 -1.25405518 92.26701904 -2.25 91.3125 C-3.60592129 90.02904981 -4.96268222 88.74648604 -6.3203125 87.46484375 C-6.96387695 86.85624512 -7.60744141 86.24764648 -8.27050781 85.62060547 C-10.76284892 83.28517912 -13.33544528 81.05322921 -15.92578125 78.828125 C-18.19775698 76.82570571 -20.40991543 74.76686883 -22.6237793 72.70068359 C-28.88378278 66.85970304 -35.28976659 61.32515517 -42 56 C-41.31203757 52.48098675 -39.89686234 49.69697375 -38.19140625 46.5546875 C-37.3264856 44.95149658 -37.3264856 44.95149658 -36.4440918 43.31591797 C-35.17380708 40.99291384 -33.90106151 38.67146298 -32.62426758 36.35205078 C-31.97584825 35.17232469 -31.32765458 33.99247455 -30.6796875 32.8125 C-30.35854477 32.22886688 -30.03740204 31.64523376 -29.70652771 31.04391479 C-27.82649449 27.6008976 -26.083239 24.12636967 -24.4453125 20.5625 C-19.43230418 9.9605708 -14.46183585 5.25129603 -3.3671875 1.1171875 C-2.25601563 0.74851563 -1.14484375 0.37984375 0 0 Z " fill="#FFFFFF" transform="translate(112,37)"/>
<path d="M0 0 C-1.4662694 7.79985914 -4.0186683 15.12371537 -6.65270996 22.58554077 C-13.33713399 41.5535947 -19.25698211 60.72940273 -25 80 C-25.66 80 -26.32 80 -27 80 C-27.30703857 79.18958252 -27.61407715 78.37916504 -27.93041992 77.54418945 C-29.09503957 74.47068712 -30.25995228 71.39729618 -31.42504883 68.32397461 C-31.92451103 67.0063092 -32.42386407 65.6886024 -32.9230957 64.37084961 C-33.40808538 63.09073083 -33.89328448 61.81069136 -34.37869263 60.5307312 C-34.86374585 59.2510176 -35.34801759 57.97100753 -35.83151245 56.69070435 C-37.02226128 53.54420885 -38.23029804 50.40670655 -39.47900391 47.28271484 C-39.93581543 46.13109863 -40.39262695 44.97948242 -40.86328125 43.79296875 C-41.27489502 42.77098389 -41.68650879 41.74899902 -42.1105957 40.69604492 C-43 38 -43 38 -43 34 C-40.8157678 32.3113499 -38.72826294 30.91396542 -36.375 29.5 C-24.9321315 22.24354681 -15.0706836 13.44620703 -5.72973633 3.65673828 C-2.20381519 0 -2.20381519 0 0 0 Z " fill="#FFFFFF" transform="translate(149,44)"/>
<path d="M0 0 C0.89708109 1.38174571 1.76697652 2.78116739 2.625 4.1875 C3.35589844 5.35345703 3.35589844 5.35345703 4.1015625 6.54296875 C5 9 5 9 4.21533203 11.38647461 C3.08918897 13.80820251 1.8744015 16.01493549 0.453125 18.2734375 C-0.05468506 19.08723877 -0.56249512 19.90104004 -1.08569336 20.73950195 C-2.22135804 22.5378737 -3.35761406 24.33587211 -4.49438477 26.13354492 C-7.61863461 31.09797329 -10.63744768 36.08324302 -13.48046875 41.21484375 C-20.01931282 52.8494066 -25.06467586 61.26229009 -38 66 C-39.1838937 62.4483189 -38.74629056 61.51930454 -37.55859375 58.0546875 C-37.22641846 57.06895752 -36.89424316 56.08322754 -36.55200195 55.06762695 C-35.79773034 52.90692381 -35.04232669 50.74661558 -34.28588867 48.58666992 C-31.81220364 41.55732994 -31.81220364 41.55732994 -29.8671875 34.37109375 C-26.32613446 20.06854602 -14.85082703 10.33304895 -4 1 C-2 0 -2 0 0 0 Z " fill="#FFFFFF" transform="translate(215,173)"/>
<path d="M0 0 C0.66 0 1.32 0 2 0 C3.71854488 3.76769636 5.42721975 7.53969625 7.12695312 11.31591797 C7.70630016 12.59935957 8.28830901 13.88160313 8.87304688 15.16259766 C9.7141005 17.00633595 10.54542115 18.85420052 11.375 20.703125 C11.87773437 21.81333008 12.38046875 22.92353516 12.8984375 24.06738281 C14 27 14 27 14 31 C9.90926712 33.1414269 5.81581524 35.27752682 1.71972656 37.40869141 C0.32605774 38.13476363 -1.06685056 38.86229756 -2.45898438 39.59130859 C-4.45766245 40.63762511 -6.45899747 41.67869127 -8.4609375 42.71875 C-9.08495453 43.04685669 -9.70897156 43.37496338 -10.35189819 43.7130127 C-14.77225659 46 -14.77225659 46 -17 46 C-14.58222436 38.56697354 -11.93282611 31.22469296 -9.23876953 23.88818359 C-8.49924215 21.87293482 -7.76318832 19.85643974 -7.02734375 17.83984375 C-6.54968856 16.53638158 -6.07183089 15.23299359 -5.59375 13.9296875 C-5.16771484 12.76679199 -4.74167969 11.60389648 -4.30273438 10.40576172 C-2.95799602 6.89018825 -1.5047903 3.44948464 0 0 Z " fill="#FFFFFF" transform="translate(137,0)"/>
<path d="M0 0 C-1.90368419 5.90100104 -3.99182113 11.68383602 -6.3203125 17.4296875 C-6.62444061 18.18669952 -6.92856873 18.94371155 -7.24191284 19.72366333 C-8.20045569 22.10845188 -9.16253244 24.49179304 -10.125 26.875 C-11.09397902 29.27987789 -12.06219979 31.68505728 -13.0295105 34.09060669 C-13.62827579 35.57906988 -14.22810555 37.06710542 -14.82913208 38.55465698 C-15.95662135 41.3530448 -17.04565735 44.13697206 -18 47 C-18.99 47 -19.98 47 -21 47 C-21.38671875 45.96101563 -21.7734375 44.92203125 -22.171875 43.8515625 C-22.69776469 42.4426516 -23.22381734 41.03380151 -23.75 39.625 C-24.02150879 38.89635742 -24.29301758 38.16771484 -24.57275391 37.41699219 C-26.38720139 32.5691662 -28.29055116 27.77156398 -30.3359375 23.015625 C-31 21 -31 21 -31 17 C-29.99582031 16.443125 -28.99164063 15.88625 -27.95703125 15.3125 C-19.99794717 10.87742699 -12.16377856 6.32632556 -4.4765625 1.43359375 C-2 0 -2 0 0 0 Z " fill="#FFFFFF" transform="translate(169,231)"/>
<path d="M0 0 C1.28027344 2.28491211 1.28027344 2.28491211 2.359375 5.27734375 C2.75253906 6.34791016 3.14570312 7.41847656 3.55078125 8.52148438 C3.94652344 9.64876953 4.34226562 10.77605469 4.75 11.9375 C5.16121094 13.06091797 5.57242188 14.18433594 5.99609375 15.34179688 C9 23.63996314 9 23.63996314 9 26 C3.3712358 25.42896595 -1.15139867 23.35284958 -6.1875 20.9375 C-7.02450439 20.53845459 -7.86150879 20.13940918 -8.72387695 19.72827148 C-15.27754757 16.5214256 -21.63630881 13.02620051 -27 8 C-27 7.34 -27 6.68 -27 6 C-23.25512292 4.79590683 -19.50342524 3.61464949 -15.75 2.4375 C-14.68652344 2.09525391 -13.62304688 1.75300781 -12.52734375 1.40039062 C-11.50253906 1.08134766 -10.47773437 0.76230469 -9.421875 0.43359375 C-8.00793457 -0.01415405 -8.00793457 -0.01415405 -6.56542969 -0.47094727 C-3.82444555 -1.03620351 -2.49930251 -1.27056874 0 0 Z " fill="#FFFFFF" transform="translate(119,209)"/>
<path d="M0 0 C7.2163056 1.30335315 13.19370545 3.69676382 19.75 6.9375 C20.66910156 7.38029297 21.58820313 7.82308594 22.53515625 8.27929688 C32.34514477 13.04232314 32.34514477 13.04232314 35 15 C35 15.99 35 16.98 35 18 C22.13 20.475 22.13 20.475 9 23 C5.36501685 15.40692408 2.1639386 8.13050656 0 0 Z " fill="#FFFFFF" transform="translate(165,40)"/>
<path d="M0 0 C3 0 3 0 4.7890625 1.64453125 C5.39492187 2.35996094 6.00078125 3.07539063 6.625 3.8125 C7.23601562 4.52019531 7.84703125 5.22789062 8.4765625 5.95703125 C10 8 10 8 11 11 C7.71057634 12.33891561 4.41810891 13.67017703 1.125 15 C0.18785156 15.3815625 -0.74929687 15.763125 -1.71484375 16.15625 C-2.61074219 16.5171875 -3.50664063 16.878125 -4.4296875 17.25 C-5.25710449 17.58515625 -6.08452148 17.9203125 -6.93701172 18.265625 C-9 19 -9 19 -11 19 C-9.40986525 14.50464608 -7.11059625 10.68459444 -4.5625 6.6875 C-4.16740234 6.04232422 -3.77230469 5.39714844 -3.36523438 4.73242188 C-2.32647947 3.09910509 -1.17038205 1.54173322 0 0 Z " fill="#FFFFFF" transform="translate(61,203)"/>
<path d="M0 0 C0 3.77796867 -1.44622731 6.34158224 -3.125 9.625 C-3.43904785 10.24584473 -3.7530957 10.86668945 -4.07666016 11.50634766 C-6.67909382 16.56059602 -9.471513 21.52426816 -13 26 C-13.33 26 -13.66 26 -14 26 C-13.98839844 24.80761719 -13.97679687 23.61523438 -13.96484375 22.38671875 C-13.95546408 20.82031406 -13.94636407 19.25390769 -13.9375 17.6875 C-13.92912109 16.90181641 -13.92074219 16.11613281 -13.91210938 15.30664062 C-13.90888672 14.54931641 -13.90566406 13.79199219 -13.90234375 13.01171875 C-13.89710693 12.31522217 -13.89187012 11.61872559 -13.88647461 10.90112305 C-13.93104009 8.77502032 -13.93104009 8.77502032 -15 6 C-10.05 4.02 -5.1 2.04 0 0 Z " fill="#FFFFFF" transform="translate(247,160)"/>
<path d="M0 0 C-1.59506198 2.31927398 -3.20029756 4.63018941 -4.8125 6.9375 C-5.26431641 7.59685547 -5.71613281 8.25621094 -6.18164062 8.93554688 C-6.84389648 9.87817383 -6.84389648 9.87817383 -7.51953125 10.83984375 C-7.92276611 11.42113037 -8.32600098 12.00241699 -8.74145508 12.60131836 C-10 14 -10 14 -13 15 C-14.13033298 13.75482035 -15.25405036 12.50363348 -16.375 11.25 C-17.00148437 10.55390625 -17.62796875 9.8578125 -18.2734375 9.140625 C-19.88286414 7.14522726 -20.90140836 5.29820321 -22 3 C-18.89857059 2.29973482 -15.7935359 1.61701544 -12.6875 0.9375 C-11.80642578 0.73833984 -10.92535156 0.53917969 -10.01757812 0.33398438 C-9.17001953 0.15029297 -8.32246094 -0.03339844 -7.44921875 -0.22265625 C-6.27879028 -0.48187866 -6.27879028 -0.48187866 -5.0847168 -0.74633789 C-3 -1 -3 -1 0 0 Z " fill="#FFFFFF" transform="translate(241,51)"/>
<path d="M0 0 C3.25048942 3.84348411 5.78782869 7.82398529 8.25 12.1875 C8.61351562 12.81591797 8.97703125 13.44433594 9.3515625 14.09179688 C12 18.74647556 12 18.74647556 12 21 C7.26210835 19.55676531 3.01141849 17.62773267 -1.375 15.375 C-2.01566406 15.05015625 -2.65632812 14.7253125 -3.31640625 14.390625 C-4.87947501 13.59742593 -6.44000622 12.79922969 -8 12 C-8 11.34 -8 10.68 -8 10 C-6.66666667 8.66666667 -5.33333333 7.33333333 -4 6 C-2.63178949 4.02369593 -1.29048808 2.02790984 0 0 Z " fill="#FFFFFF" transform="translate(227,201)"/>
<path d="M0 0 C1.12019531 0.42152344 2.24039063 0.84304687 3.39453125 1.27734375 C4.86717658 1.83075824 6.33983343 2.38414205 7.8125 2.9375 C8.55048828 3.21529297 9.28847656 3.49308594 10.04882812 3.77929688 C11.11713867 4.18051758 11.11713867 4.18051758 12.20703125 4.58984375 C12.8616333 4.83597412 13.51623535 5.08210449 14.19067383 5.33569336 C15.78311815 5.92037033 17.39066676 6.46355559 19 7 C18.36934243 10.21852831 17.21979305 12.50801069 15.4375 15.25 C14.98246094 15.95640625 14.52742188 16.6628125 14.05859375 17.390625 C13.70925781 17.92171875 13.35992187 18.4528125 13 19 C8.24560803 17.51697865 6.58075903 13.56174619 4.25 9.5 C3.83878906 8.81035156 3.42757812 8.12070312 3.00390625 7.41015625 C0 2.29054194 0 2.29054194 0 0 Z " fill="#FFFFFF" transform="translate(51,50)"/>
<path d="M0 0 C0.66 0.33 1.32 0.66 2 1 C2 5.95 2 10.9 2 16 C-7.625 21 -7.625 21 -11 21 C-9.3003494 16.26525903 -6.86340973 12.03832889 -4.375 7.6875 C-3.95476563 6.94693359 -3.53453125 6.20636719 -3.1015625 5.44335938 C-2.07051505 3.62730989 -1.03563954 1.81343467 0 0 Z " fill="#FFFFFF" transform="translate(54,86)"/>
</svg>
