<?xml version="1.0" encoding="UTF-8"?>
<!-- Generator: visioncortex VTracer 0.6.4 -->
<svg version="1.1" xmlns="http://www.w3.org/2000/svg" width="274" height="290">
<path d="M0 0 C5.55322511 0.51724736 9.74619424 1.9552124 14.6875 4.5 C15.38593018 4.85747314 16.08436035 5.21494629 16.80395508 5.58325195 C33.49503428 14.37476558 47.28690863 27.89167745 57 44 C57.3707666 44.60730957 57.7415332 45.21461914 58.12353516 45.84033203 C69.17913642 64.30087799 76.43616426 85.83080859 76.3125 107.4375 C76.30831055 108.44304932 76.30412109 109.44859863 76.29980469 110.48461914 C76.19052522 117.66393128 75.57111271 124.2368557 73 131 C72.74476563 131.72832031 72.48953125 132.45664063 72.2265625 133.20703125 C68.76338933 141.51546963 60.87307393 147.14380052 53 151 C52.34 151 51.68 151 51 151 C51 150.34 51 149.68 51 149 C51.75796875 148.4328125 52.5159375 147.865625 53.296875 147.28125 C56.4724403 144.60129315 57.5986415 142.28943319 59.25 138.5 C59.75015625 137.3759375 60.2503125 136.251875 60.765625 135.09375 C67.39326825 118.48269478 62.41738657 98.68078682 55.68457031 82.92089844 C51.86246477 74.40552983 47.86882598 65.9711885 43 58 C43.4577719 59.68765239 43.9162489 61.37511352 44.375 63.0625 C44.78492188 64.58037109 44.78492188 64.58037109 45.203125 66.12890625 C45.7963676 68.26632442 46.44620478 70.38819265 47.125 72.5 C48.10906792 76.43627169 48.41470091 80.21240495 48.7109375 84.25 C48.97364799 86.7492998 49.45896287 88.95950533 50.125 91.375 C52.022794 99.2352662 50.74174438 107.50514959 48 115 C47.34 115 46.68 115 46 115 C45.81566406 114.45472656 45.63132812 113.90945312 45.44140625 113.34765625 C41.3791026 102.78566677 33.04056585 95.82395901 23 91 C10.31950505 85.69188584 -1.49316532 83.62125909 -15.1875 83.6875 C-16.96761475 83.69378418 -16.96761475 83.69378418 -18.78369141 83.70019531 C-31.66680215 83.86538593 -43.06065074 86.11630443 -55.328125 90.1328125 C-57.54275108 90.85159465 -59.73411214 91.47129283 -62 92 C-59.11454028 82.92904331 -50.22760808 75.87464288 -42.09912109 71.45629883 C-23.51813021 62.16134858 -3.87376917 61.94122239 16 67 C7.72612356 63.50361996 -0.07065264 61.07795725 -9 60 C-9 59.34 -9 58.68 -9 58 C5.69179415 54.28559606 17.9923714 55.34100701 31 63 C18.36315068 31.28629596 18.36315068 31.28629596 1 2 C0.505 1.01 0.505 1.01 0 0 Z M41 55 C42 57 42 57 42 57 Z " fill="#FEFEFE" transform="translate(120,0)"/>
<path d="M0 0 C0.66 0 1.32 0 2 0 C6.63375076 27.95449817 5.14060653 51.5230769 -11.75 75.4375 C-28.69285162 98.12262163 -52.9537896 116.02516502 -81.43457031 120.68652344 C-99.96747284 122.95110726 -118.7354315 121.98540937 -134.1015625 110.41796875 C-137.53280742 107.60872241 -137.53280742 107.60872241 -139 106 C-139 105.34 -139 104.68 -139 104 C-133.93356341 104.90573168 -129.14651376 106.49132026 -124.25390625 108.0625 C-118.79518892 109.63523969 -113.79823983 110.1203902 -108.125 110.0625 C-106.97257812 110.05347656 -105.82015625 110.04445313 -104.6328125 110.03515625 C-103.32957031 110.01775391 -103.32957031 110.01775391 -102 110 C-102.81984375 109.74605469 -103.6396875 109.49210937 -104.484375 109.23046875 C-105.56203125 108.88628906 -106.6396875 108.54210937 -107.75 108.1875 C-108.81734375 107.85105469 -109.8846875 107.51460938 -110.984375 107.16796875 C-113.81022657 106.07350033 -115.78332771 105.04988384 -118 103 C-118 102.34 -118 101.68 -118 101 C-117.14019531 101.09539062 -116.28039062 101.19078125 -115.39453125 101.2890625 C-92.30856535 103.45415854 -72.16285571 94.65649895 -54.546875 80.07421875 C-43.41180593 70.56019427 -34.2008786 60.11211705 -26 48 C-25.25492187 46.91589844 -24.50984375 45.83179688 -23.7421875 44.71484375 C-14.47242167 30.77697004 -5.72197062 15.76868649 0 0 Z " fill="#FEFEFE" transform="translate(269,65)"/>
<path d="M0 0 C1 3 1 3 0.875 6.9375 C0.8232678 23.02621531 9.55921941 38.30129404 20 50 C20.62132813 50.73992187 21.24265625 51.47984375 21.8828125 52.2421875 C24.99699608 55.92258628 28.07742327 59.14721692 32 62 C31.64808594 61.56171875 31.29617187 61.1234375 30.93359375 60.671875 C19.91214448 46.51377307 14.58586382 34.0164622 16 16 C16.54695312 13.60586561 17.23843628 11.33930528 18 9 C18.66 9 19.32 9 20 9 C20.20753906 9.66644531 20.41507813 10.33289063 20.62890625 11.01953125 C29.39419294 37.24204165 53.53378319 60.21242847 77.421875 73.28125 C91.33822515 79.96595968 105.33268888 82.34915783 120.6875 82.125 C121.87794922 82.11597656 123.06839844 82.10695313 124.29492188 82.09765625 C127.19683367 82.07434772 130.09830317 82.04163123 133 82 C132 85 132 85 129.69921875 86.46484375 C107.444775 97.34671832 82.01664762 101.51773706 57.97070312 93.68896484 C41.4792487 87.92349354 28.52403717 79.06084377 16 67 C15.26910156 66.34386719 14.53820312 65.68773437 13.78515625 65.01171875 C2.28903154 54.38064897 -8.6502386 35.76220652 -10.4375 20.1875 C-10.22460295 12.35592999 -5.11388075 5.55221338 0 0 Z " fill="#FEFEFE" transform="translate(96,142)"/>
<path d="M0 0 C0.70640625 0.50144531 1.4128125 1.00289063 2.140625 1.51953125 C2.140625 2.17953125 2.140625 2.83953125 2.140625 3.51953125 C1.07585937 3.58269531 0.01109375 3.64585938 -1.0859375 3.7109375 C-17.06193403 4.9437047 -30.06154125 10.93035796 -41.07421875 22.93359375 C-45.37257394 28.104427 -48.84305979 33.51590385 -51.859375 39.51953125 C-51.45847656 39.01164062 -51.05757812 38.50375 -50.64453125 37.98046875 C-46.27868477 32.69393356 -41.80851045 28.91616602 -35.859375 25.51953125 C-35.1375 25.10445312 -34.415625 24.689375 -33.671875 24.26171875 C-27.73566831 21.23001319 -22.44027392 21.07670441 -15.859375 21.51953125 C-15.859375 22.17953125 -15.859375 22.83953125 -15.859375 23.51953125 C-16.808125 23.95265625 -17.756875 24.38578125 -18.734375 24.83203125 C-38.78840717 36.46981297 -51.79966952 66.14592288 -57.859375 87.51953125 C-62.74699047 106.09071349 -61.68476733 124.87074365 -57.859375 143.51953125 C-64.33491689 141.36101729 -68.78318283 131.50278189 -71.86035156 125.59912109 C-82.42907829 103.4375662 -83.26526025 75.68702415 -75.1953125 52.62109375 C-66.76921585 29.83685913 -53.48588306 9.53351045 -31.359375 -1.98046875 C-21.17405413 -6.34560626 -9.81066422 -5.07956522 0 0 Z " fill="#FEFEFE" transform="translate(129.859375,92.48046875)"/>
<path d="M0 0 C0.66 0 1.32 0 2 0 C3.1547859 3.03834201 4.29719021 6.08119853 5.4375 9.125 C5.76298828 9.9809375 6.08847656 10.836875 6.42382812 11.71875 C8.07327814 16.13995622 9.45067377 20.28043661 10 25 C10.82242188 25.26683594 11.64484375 25.53367187 12.4921875 25.80859375 C17.12480843 27.38203404 21.68486766 29.12898148 26.25390625 30.87695312 C29.47908635 32.09935125 32.64351588 33.21064753 36 34 C36 34.99 36 35.98 36 37 C34.865625 37.38671875 33.73125 37.7734375 32.5625 38.171875 C31.04156737 38.69762949 29.52073961 39.22368746 28 39.75 C27.25621094 40.00265625 26.51242188 40.2553125 25.74609375 40.515625 C23.48069641 41.30358929 21.24279076 42.1501313 19 43 C17.92492187 43.33789551 17.92492187 43.33789551 16.828125 43.68261719 C13.30984705 45.0135447 11.48101426 46.18988755 9.53125 49.47363281 C8.20328129 52.52937789 7.07415579 55.59633976 6 58.75 C5.41025391 60.36841797 5.41025391 60.36841797 4.80859375 62.01953125 C3.8463442 64.6715849 2.91157863 67.33019499 2 70 C1.34 70 0.68 70 0 70 C-0.22848633 69.31486328 -0.45697266 68.62972656 -0.69238281 67.92382812 C-5.43226942 53.15659049 -5.43226942 53.15659049 -16.0078125 42.66015625 C-20.85837682 40.55629703 -25.83268546 39.0915683 -31 38 C-32.53527344 37.67322266 -32.53527344 37.67322266 -34.1015625 37.33984375 C-34.72804688 37.22769531 -35.35453125 37.11554688 -36 37 C-36 36.01 -36 35.02 -36 34 C-35.39003174 33.80365967 -34.78006348 33.60731934 -34.15161133 33.4050293 C-31.36978827 32.5055952 -28.59116287 31.59664776 -25.8125 30.6875 C-24.85279297 30.37876953 -23.89308594 30.07003906 -22.90429688 29.75195312 C-21.50727539 29.29272461 -21.50727539 29.29272461 -20.08203125 28.82421875 C-19.22843018 28.54666748 -18.3748291 28.26911621 -17.49536133 27.9831543 C-13.59624022 26.44692881 -10.73999916 25.3082409 -8.62207031 21.56396484 C-8.27756836 20.62246582 -7.93306641 19.6809668 -7.578125 18.7109375 C-7.19269531 17.68742187 -6.80726563 16.66390625 -6.41015625 15.609375 C-5.83587891 14.00835937 -5.83587891 14.00835937 -5.25 12.375 C-4.46532878 10.25714951 -3.6789634 8.13992567 -2.890625 6.0234375 C-2.38063965 4.61457275 -2.38063965 4.61457275 -1.86035156 3.17724609 C-1 1 -1 1 0 0 Z " fill="#FEFEFE" transform="translate(141,98)"/>
<path d="M0 0 C9.05955677 4.89446393 18.03998271 9.92628316 27 15 C27.64308105 15.36351563 28.28616211 15.72703125 28.94873047 16.1015625 C36.84954051 20.58686452 41.5664313 25.1308049 45.0625 33.5625 C44.96382285 37.41090892 43.07271921 39.79670668 41 43 C36.21877276 42.49075686 33.22228472 41.17745158 29.25 38.5 C28.30640625 37.8709375 27.3628125 37.241875 26.390625 36.59375 C25.60171875 36.0678125 24.8128125 35.541875 24 35 C23.34 34.67 22.68 34.34 22 34 C26.42154487 39.56838307 30.72861435 43.61182282 37 47 C36.125 51.75 36.125 51.75 35 54 C25.5697194 54.7087476 19.08707216 52.75430812 11.75 46.75 C3.4815798 39.04047898 -0.61914169 29.00868769 -1.09375 17.7824707 C-1.13335883 15.41658558 -1.13657049 13.05366579 -1.125 10.6875 C-1.12886719 9.87732422 -1.13273438 9.06714844 -1.13671875 8.23242188 C-1.12676222 2.25352444 -1.12676222 2.25352444 0 0 Z " fill="#FEFEFE" transform="translate(16,84)"/>
<path d="M0 0 C-0.33 2.31 -0.66 4.62 -1 7 C-5.00064296 8.17665969 -8.90399524 9.18079905 -13 10 C-7.555 10.495 -7.555 10.495 -2 11 C-2.94179894 19.94708995 -2.94179894 19.94708995 -5.5625 22.5546875 C-13.80257319 27.10666342 -22.0948794 25.10830908 -30.68359375 22.734375 C-36.71523918 21.39874562 -42.83882522 21.24409026 -49 21 C-45.61183964 11.45450976 -36.10592438 4.92808785 -27.23046875 0.671875 C-17.62285007 -3.14429801 -9.88912759 -2.31228035 0 0 Z " fill="#FEFEFE" transform="translate(49,142)"/>
<path d="M0 0 C1.8551971 5.56559131 -1.68519619 11.77937864 -4 17 C-10.18645713 28.83365891 -19.11613426 38.47953707 -31.90625 43.03515625 C-36.38521562 44.32948099 -40.32064035 45.15121809 -45 45 C-45 44.34 -45 43.68 -45 43 C-43.25278326 41.78746664 -41.45052126 40.65358918 -39.625 39.5625 C-35.21114323 36.93727056 -35.21114323 36.93727056 -32 33 C-32.54269531 33.30035156 -33.08539063 33.60070312 -33.64453125 33.91015625 C-34.35996094 34.29042969 -35.07539063 34.67070312 -35.8125 35.0625 C-36.52019531 35.44535156 -37.22789062 35.82820313 -37.95703125 36.22265625 C-40 37 -40 37 -43 36 C-42.45416736 34.28626847 -41.88738528 32.57920537 -41.3125 30.875 C-40.99925781 29.92367187 -40.68601563 28.97234375 -40.36328125 27.9921875 C-36.5828847 19.69481285 -30.79183025 16.93224915 -22.875 13.0625 C-20.80670698 12.02066437 -18.74027315 10.97512901 -16.67578125 9.92578125 C-15.69303223 9.42643066 -14.7102832 8.92708008 -13.69775391 8.41259766 C-8.92855954 5.91535253 -4.42225863 3.07071259 0 0 Z " fill="#FEFEFE" transform="translate(237,101)"/>
<path d="M0 0 C4.04256117 1.91216261 7.84940131 4.21393932 11.6875 6.5 C12.37650391 6.90347656 13.06550781 7.30695313 13.77539062 7.72265625 C18.88309152 10.76618304 18.88309152 10.76618304 20 13 C20.99 12.67 21.98 12.34 23 12 C25.69921875 12.77734375 25.69921875 12.77734375 28.6875 13.9375 C29.68136719 14.31777344 30.67523438 14.69804687 31.69921875 15.08984375 C32.45847656 15.39019531 33.21773437 15.69054687 34 16 C33.38655335 20.12066133 32.48908953 23.98665087 31.2578125 27.96484375 C30.91492188 29.08850342 30.57203125 30.21216309 30.21875 31.36987305 C29.8578125 32.54718994 29.496875 33.72450684 29.125 34.9375 C26.21467679 44.56440023 23.59759677 54.06494508 22 64 C21.01 64 20.02 64 19 64 C18.89768066 63.36763428 18.79536133 62.73526855 18.68994141 62.08374023 C17.35698172 54.2805184 15.47387217 46.69241021 13.375 39.0625 C13.02816162 37.79865479 12.68132324 36.53480957 12.32397461 35.23266602 C9.49652941 25.12209459 5.95686621 15.43067943 1.72094727 5.82983398 C0.96462102 3.91020472 0.45766328 2.00988375 0 0 Z " fill="#FEFEFE" transform="translate(121,226)"/>
<path d="M0 0 C-3.28483843 10.83996683 -14.83847616 18.48962051 -24.27734375 23.8671875 C-39.03853911 31.05991542 -52.91003717 31.42245089 -69 31 C-69 30.01 -69 29.02 -69 28 C-68.24976563 27.75765625 -67.49953125 27.5153125 -66.7265625 27.265625 C-61.68398419 25.61440288 -56.70795048 23.92569264 -51.8125 21.875 C-47.26931337 20.00470923 -42.8198347 18.93287123 -38 18 C-39.98 17.67 -41.96 17.34 -44 17 C-44 16.34 -44 15.68 -44 15 C-43.01 14.484375 -42.02 13.96875 -41 13.4375 C-37.95071577 11.76279469 -36.05416358 9.95372513 -33.75 7.375 C-28.40635205 2.43186215 -21.4681069 2.80016832 -14.55859375 2.38671875 C-9.55445223 2.07245908 -4.9366685 0 0 0 Z " fill="#FEFEFE" transform="translate(274,157)"/>
<path d="M0 0 C2 1 2 1 2.9296875 3.2578125 C3.24164063 4.20398438 3.55359375 5.15015625 3.875 6.125 C5.49684116 10.80151193 7.38975911 14.80496999 10 19 C9.67 16.03 9.34 13.06 9 10 C17.87071156 14.43535578 22.53747368 21.71917273 25.66455078 30.96484375 C26.58001752 33.81790662 27.46687936 36.67656062 28.30126953 39.55444336 C29.24211286 42.77520351 30.12102565 45.18153847 32 48 C31.67 48.99 31.34 49.98 31 51 C17.93224508 43.99873569 3.69594604 36.19123506 -1.875 21.625 C-4.12742322 13.84877697 -3.73374904 7.15635232 0 0 Z " fill="#FEFEFE" transform="translate(87,195)"/>
<path d="M0 0 C0.66 0 1.32 0 2 0 C2.83986084 1.93467942 3.67168027 3.87285129 4.5 5.8125 C4.9640625 6.89144531 5.428125 7.97039063 5.90625 9.08203125 C7 12 7 12 7 15 C7.99580078 15.29003906 7.99580078 15.29003906 9.01171875 15.5859375 C17.78207381 18.17223199 17.78207381 18.17223199 22 20 C22 20.66 22 21.32 22 22 C20.06441401 22.67220351 18.12645628 23.33758077 16.1875 24 C15.10855469 24.37125 14.02960938 24.7425 12.91796875 25.125 C10 26 10 26 7 26 C6.87753906 26.71542969 6.75507813 27.43085937 6.62890625 28.16796875 C5.98864625 31.05112713 5.06448444 33.58592473 3.9375 36.3125 C3.57527344 37.19550781 3.21304688 38.07851563 2.83984375 38.98828125 C2.56269531 39.65214844 2.28554687 40.31601562 2 41 C-0.74515677 38.61666905 -1.89080018 36.31090681 -3.1875 32.9375 C-3.53167969 32.05964844 -3.87585938 31.18179688 -4.23046875 30.27734375 C-5 28 -5 28 -5 26 C-6.56159059 25.51787786 -8.12431928 25.03944127 -9.6875 24.5625 C-10.55761719 24.29566406 -11.42773438 24.02882813 -12.32421875 23.75390625 C-14.87025921 23.03655471 -17.4003423 22.482459 -20 22 C-20 21.34 -20 20.68 -20 20 C-17.8765984 19.16260219 -15.7512272 18.33019717 -13.625 17.5 C-12.44164062 17.0359375 -11.25828125 16.571875 -10.0390625 16.09375 C-7 15 -7 15 -5 15 C-4.80664062 14.41992188 -4.61328125 13.83984375 -4.4140625 13.2421875 C-2.94270833 8.828125 -1.47135417 4.4140625 0 0 Z " fill="#FEFEFE" transform="translate(203,20)"/>
<path d="M0 0 C2 3 2 3 2.625 5.5 C4.51408241 8.9346953 6.70168234 9.35410054 10.3203125 10.51953125 C10.87460938 10.67808594 11.42890625 10.83664063 12 11 C12 11.66 12 12.32 12 13 C11.18595703 13.31130859 11.18595703 13.31130859 10.35546875 13.62890625 C6.32645329 15.36392372 3.73668287 16.57348949 2 20.75 C1.67 21.8225 1.34 22.895 1 24 C0.34 24 -0.32 24 -1 24 C-1.144375 22.741875 -1.28875 21.48375 -1.4375 20.1875 C-1.86642701 17.95170303 -1.86642701 17.95170303 -3 16 C-5.87394404 14.38701861 -8.77982829 13.6360833 -12 13 C-12 12.34 -12 11.68 -12 11 C-10.7625 10.67 -9.525 10.34 -8.25 10 C-4.57293035 8.66347646 -3.21411572 7.32146877 -1.5 3.8125 C-0.97329707 2.55249945 -0.46376265 1.28450051 0 0 Z " fill="#FEFEFE" transform="translate(223,60)"/>
<path d="M0 0 C0.66 0 1.32 0 2 0 C2.32871094 0.83144531 2.32871094 0.83144531 2.6640625 1.6796875 C4.7787493 6.64863535 4.7787493 6.64863535 9.25 9.5 C10.1575 9.665 11.065 9.83 12 10 C12 10.99 12 11.98 12 13 C10.906875 13.185625 9.81375 13.37125 8.6875 13.5625 C5.0509502 14.57516528 5.0509502 14.57516528 3.8671875 16.69140625 C2.94073788 18.83650143 2.94073788 18.83650143 2 22 C1.34 22 0.68 22 0 22 C-0.350625 20.906875 -0.70125 19.81375 -1.0625 18.6875 C-2.37683541 15.53564713 -3.53564713 14.37683541 -6.6875 13.0625 C-8.3271875 12.5365625 -8.3271875 12.5365625 -10 12 C-10 11.34 -10 10.68 -10 10 C-7.36 9.34 -4.72 8.68 -2 8 C-1.34 5.36 -0.68 2.72 0 0 Z " fill="#FEFEFE" transform="translate(102,29)"/>
<path d="M0 0 C0.66 0 1.32 0 2 0 C2.4125 0.94875 2.825 1.8975 3.25 2.875 C5.0040131 6.00716624 5.70851757 6.86500606 9 8 C9 8.66 9 9.32 9 10 C8.21625 10.226875 7.4325 10.45375 6.625 10.6875 C3.78125 11.78125 3.78125 11.78125 2.6875 14.625 C2.460625 15.40875 2.23375 16.1925 2 17 C1.34 17 0.68 17 0 17 C-0.4125 16.071875 -0.825 15.14375 -1.25 14.1875 C-2.93441786 11.11945319 -4.08454083 9.80959535 -7 8 C-5.824375 7.4121875 -5.824375 7.4121875 -4.625 6.8125 C-1.64843582 4.75725331 -1.01176437 3.40320742 0 0 Z " fill="#FEFEFE" transform="translate(195,195)"/>
<path d="M0 0 C0.66 0 1.32 0 2 0 C2.061875 0.61875 2.12375 1.2375 2.1875 1.875 C2.828919 4.27761141 2.828919 4.27761141 5.5625 5.25 C6.366875 5.4975 7.17125 5.745 8 6 C8 6.66 8 7.32 8 8 C6.824375 8.0928125 6.824375 8.0928125 5.625 8.1875 C4.75875 8.455625 3.8925 8.72375 3 9 C1.62533375 11.47636012 1.62533375 11.47636012 1 14 C-1 11 -1 11 -1 9 C-2.32 8.67 -3.64 8.34 -5 8 C-5 7.34 -5 6.68 -5 6 C-4.360625 5.525625 -3.72125 5.05125 -3.0625 4.5625 C-0.71627037 3.0908635 -0.71627037 3.0908635 0 0 Z " fill="#FEFEFE" transform="translate(75,45)"/>
</svg>
