<?xml version="1.0" encoding="UTF-8"?>
<!-- Generator: visioncortex VTracer 0.6.4 -->
<svg version="1.1" xmlns="http://www.w3.org/2000/svg" width="219" height="290">
<path d="M0 0 C0.66 0 1.32 0 2 0 C2.08133179 1.02371704 2.08133179 1.02371704 2.16430664 2.06811523 C3.65465305 20.19646987 5.87452598 38.18100404 8.4375 56.1875 C8.5825296 57.21914276 8.7275592 58.25078552 8.87698364 59.31369019 C9.852016 66.22012938 10.88916936 73.11408643 12 80 C12.2284964 81.43324615 12.2284964 81.43324615 12.46160889 82.89544678 C12.91349869 85.6555668 13.39773198 88.40780351 13.89453125 91.16015625 C14.02750107 91.97840378 14.16047089 92.79665131 14.29747009 93.63969421 C15.34416982 99.13333446 16.90664752 101.69526172 21.25 105.25 C23.80323855 106.91491722 23.80323855 106.91491722 26 108 C27.60758778 106.63704515 29.20884855 105.26620088 30.78515625 103.8671875 C33 102 33 102 35.62109375 100.1953125 C40.78373097 96.34394018 43.45736995 93.25346983 44.40356445 86.90527344 C44.76663588 83.26895494 44.93860422 79.65304912 45 76 C45.0309375 74.75734375 45.061875 73.5146875 45.09375 72.234375 C45.1198217 69.4838105 45.09532837 66.74863469 45 64 C48.37578463 65.3968764 50.17125605 66.81622288 52 70 C52.76497859 73.94510386 52.86027539 77.88577447 52.94482422 81.89941406 C52.98238233 83.32928109 53.04489621 84.75866127 53.12939453 86.18652344 C53.57763868 94.26194939 53.51780392 101.04209077 48.24462891 107.53173828 C46.12886354 109.86644456 43.93302076 112.10188453 41.68164062 114.30566406 C38.91773067 117.09043977 36.45094391 120.1157964 33.9375 123.125 C32.44648566 124.86379224 30.94807625 126.59596226 29.44824219 128.32714844 C28.50068988 129.42165761 27.55590989 130.51857457 26.61425781 131.61816406 C19.85841241 139.47323269 12.64054149 146.2481226 4 152 C3.34 152 2.68 152 2 152 C-0.08032121 131.84488794 -0.08032121 131.84488794 4.42578125 126.30078125 C7.33683171 123.45452513 10.61101698 121.2410336 14 119 C15.43557672 117.79297281 16.8566079 116.56798938 18.25 115.3125 C19.1575 114.549375 20.065 113.78625 21 113 C14.17148431 117.4511806 7.56276111 122.16686378 1 127 C-4.00002605 124.27387115 -8.47287434 121.27659294 -12.9375 117.75 C-13.52595703 117.29109375 -14.11441406 116.8321875 -14.72070312 116.359375 C-16.15028342 115.24360502 -17.57560423 114.12238102 -19 113 C-16.26131919 116.58817902 -13.37492436 119.63078357 -10 122.625 C-9.154375 123.38039063 -8.30875 124.13578125 -7.4375 124.9140625 C-5.14091164 126.99170197 -5.14091164 126.99170197 -2.87207031 128.29760742 C-1 130 -1 130 -0.54589844 132.4519043 C-0.5668457 133.39976807 -0.58779297 134.34763184 -0.609375 135.32421875 C-0.62226562 136.35224609 -0.63515625 137.38027344 -0.6484375 138.43945312 C-0.68195313 139.51130859 -0.71546875 140.58316406 -0.75 141.6875 C-0.76804688 142.77095703 -0.78609375 143.85441406 -0.8046875 144.97070312 C-0.85186492 147.64802146 -0.91767751 150.32356909 -1 153 C-15.49457403 144.84345926 -26.52698029 131.4392655 -36.796875 118.67578125 C-39.76490378 115.07099452 -42.89514151 111.62840341 -46.0546875 108.19140625 C-46.69664063 107.46824219 -47.33859375 106.74507813 -48 106 C-48.52239258 105.43007324 -49.04478516 104.86014648 -49.58300781 104.27294922 C-52.29891619 99.91645249 -51.68633228 94.59306967 -51.81835938 89.58276367 C-51.87475453 87.57125558 -51.96317027 85.56291518 -52.0546875 83.55273438 C-52.1165625 81.64137695 -52.1165625 81.64137695 -52.1796875 79.69140625 C-52.21819824 78.52810791 -52.25670898 77.36480957 -52.29638672 76.16625977 C-51.7914047 70.77160426 -48.93043879 67.53739491 -45 64 C-44.67 64 -44.34 64 -44 64 C-43.98018066 64.69561035 -43.96036133 65.3912207 -43.93994141 66.10791016 C-43.84427876 69.28063321 -43.73476696 72.45273487 -43.625 75.625 C-43.5940625 76.71941406 -43.563125 77.81382813 -43.53125 78.94140625 C-43.19303003 88.24245555 -42.13424359 93.46482124 -35.30859375 99.96484375 C-31.67952623 103.16407248 -27.88635034 106.12122197 -24 109 C-23.814375 108.443125 -23.62875 107.88625 -23.4375 107.3125 C-22 105 -22 105 -18.5703125 103.12109375 C-14.87751627 100.58815299 -14.16258455 98.15454375 -13.1796875 93.84765625 C-12.71083162 91.25274344 -12.27774826 88.66705975 -11.875 86.0625 C-11.63474443 84.64522067 -11.39276117 83.22823327 -11.14916992 81.81152344 C-7.15484164 58.08443361 -4.26110039 34.13849367 -1.8996582 10.19824219 C-1.79355225 9.13766602 -1.68744629 8.07708984 -1.578125 6.984375 C-1.48950195 6.06366211 -1.40087891 5.14294922 -1.30957031 4.19433594 C-1 2 -1 2 0 0 Z " fill="#FFFFFF" transform="translate(109,16)"/>
<path d="M0 0 C0.54414551 0.26216309 1.08829102 0.52432617 1.64892578 0.79443359 C4.13919476 1.99164775 6.63205931 3.18335973 9.125 4.375 C10.40890625 4.99375 10.40890625 4.99375 11.71875 5.625 C23.57873306 11.28129961 32.92259946 12.12454667 46 12 C46 17.61 46 23.22 46 29 C40.68715876 31.72821577 35.68037809 34.15233167 30 36 C29.98969254 36.99780487 29.97938507 37.99560974 29.96876526 39.02365112 C29.87114786 48.41199033 29.76842499 57.80026153 29.66066074 67.18848991 C29.60541902 72.01544762 29.55199702 76.84241137 29.50268555 81.66943359 C29.45506043 86.32490552 29.4027183 90.98030239 29.34705925 95.63568497 C29.32662729 97.4147264 29.30791561 99.19378842 29.29092598 100.97286606 C29.26690057 103.45838641 29.23684354 105.94376424 29.20532227 108.42919922 C29.1995668 109.17006775 29.19381134 109.91093628 29.18788147 110.67425537 C29.11405216 115.77189568 29.11405216 115.77189568 28 118 C28.5259375 118.226875 29.051875 118.45375 29.59375 118.6875 C33.51441127 120.82604251 36.89752024 123.68920804 40.34423828 126.50854492 C43.3346048 128.94621724 46.25686263 131.21799013 49.5859375 133.17578125 C53.28038323 135.57585466 55.56037804 137.3055904 58 141 C59.41876174 148.23459144 58.74560934 155.71405846 58 163 C54.13263224 160.51662532 50.67281038 157.94460594 47.3125 154.8125 C42.96272174 150.8327775 38.48308931 147.07605747 33.8984375 143.37109375 C31.36964779 141.30239381 28.88433052 139.19145285 26.40820312 137.06030273 C25.88162109 136.60727783 25.35503906 136.15425293 24.8125 135.6875 C24.28591797 135.23383057 23.75933594 134.78016113 23.21679688 134.31274414 C20.10352981 131.66803669 16.92203415 129.17552482 13.6171875 126.7734375 C12.88137451 126.23759033 12.14556152 125.70174316 11.38745117 125.1496582 C9.9430427 124.10758746 8.49024347 123.07703031 7.02856445 122.05932617 C6.37331787 121.5872876 5.71807129 121.11524902 5.04296875 120.62890625 C4.45539795 120.21713135 3.86782715 119.80535645 3.26245117 119.38110352 C2 118 2 118 2 114 C3.96875 111.640625 3.96875 111.640625 6.5 109.25 C7.3353125 108.45078125 8.170625 107.6515625 9.03125 106.828125 C9.6809375 106.22484375 10.330625 105.6215625 11 105 C12.65 105.99 14.3 106.98 16 108 C15.67 107.34 15.34 106.68 15 106 C14.84530633 103.82325217 14.74997894 101.6421652 14.68359375 99.4609375 C14.62075195 97.50800781 14.62075195 97.50800781 14.55664062 95.515625 C14.51682701 94.13541955 14.47711478 92.75521117 14.4375 91.375 C14.39430593 89.98696585 14.35069135 88.59894472 14.30664062 87.2109375 C14.20028 83.80739744 14.09825286 80.40378222 14 77 C13.67 77 13.34 77 13 77 C12.67 78.65 12.34 80.3 12 82 C11.34 82 10.68 82 10 82 C10.01776489 81.21232239 10.03552979 80.42464478 10.05383301 79.61309814 C10.21502294 72.14117808 10.33637247 64.6701164 10.41449738 57.19690323 C10.45601579 53.35592944 10.51219884 49.51640773 10.60351562 45.67626953 C10.69130083 41.96082343 10.73844905 38.24676149 10.75901794 34.53035736 C10.77364904 33.12218206 10.80221747 31.71407117 10.84584045 30.30649567 C11.16298256 19.63586697 8.88876969 13.18685401 2 5 C1.34 4.34 0.68 3.68 0 3 C0 2.01 0 1.02 0 0 Z " fill="#FFFFFF" transform="translate(0,33)"/>
<path d="M0 0 C0.495 1.485 0.495 1.485 1 3 C-0.328125 5.0859375 -0.328125 5.0859375 -2.25 7.375 C-6.80713883 12.85486528 -9.38197829 16.38984186 -9.34057617 23.71801758 C-9.34101425 24.37223694 -9.34145233 25.0264563 -9.34190369 25.70050049 C-9.33982456 27.8488213 -9.31653662 29.99634789 -9.29296875 32.14453125 C-9.28736964 33.63953729 -9.28310103 35.13454885 -9.28010559 36.62956238 C-9.26868152 40.55385686 -9.23923573 44.47781531 -9.20599365 48.40197754 C-9.17523993 52.41051692 -9.16158896 56.41911089 -9.14648438 60.42773438 C-9.11436333 68.28531001 -9.06319691 76.14261314 -9 84 C-9.66 84 -10.32 84 -11 84 C-12.3790248 77.104876 -12.5613762 70.01798074 -13 63 C-13.33 77.19 -13.66 91.38 -14 106 C-12.63106761 106.05270463 -12.63106761 106.05270463 -10 105 C-5.05 109.95 -5.05 109.95 0 115 C-1.86502201 118.73004401 -2.55055248 119.72296091 -5.67578125 122.06640625 C-6.41497803 122.62884033 -7.1541748 123.19127441 -7.91577148 123.77075195 C-8.70669189 124.36202881 -9.4976123 124.95330566 -10.3125 125.5625 C-11.95740851 126.81550681 -13.60062691 128.0707353 -15.2421875 129.328125 C-16.05268555 129.94880859 -16.86318359 130.56949219 -17.69824219 131.20898438 C-20.85012181 133.66148638 -23.90651744 136.21291422 -26.9375 138.8125 C-27.45795898 139.25851563 -27.97841797 139.70453125 -28.51464844 140.1640625 C-29.02286133 140.59976563 -29.53107422 141.03546875 -30.0546875 141.484375 C-33.7277283 144.62156104 -37.46689542 147.67181704 -41.21484375 150.71875 C-43.26021482 152.39406094 -45.29301108 154.07979845 -47.31640625 155.78125 C-47.86804443 156.2445874 -48.41968262 156.7079248 -48.98803711 157.18530273 C-50.54829061 158.49796344 -52.10623715 159.81336479 -53.6640625 161.12890625 C-56 163 -56 163 -57 163 C-59.03808868 144.77297495 -59.03808868 144.77297495 -55.94970703 139.05566406 C-53.12894611 135.7612109 -49.6035245 133.49988257 -45.93457031 131.24169922 C-42.51032764 129.04385745 -39.41351784 126.42679469 -36.25 123.875 C-35.06950993 122.95341678 -33.88736486 122.03394723 -32.703125 121.1171875 C-30.78689558 119.63159732 -30.78689558 119.63159732 -29 118 C-28.90493948 115.44410112 -28.87443239 112.91532028 -28.88647461 110.35913086 C-28.88632858 109.55919205 -28.88618256 108.75925323 -28.8860321 107.93507385 C-28.88673145 105.27830335 -28.89452482 102.62160207 -28.90234375 99.96484375 C-28.90420785 98.12781309 -28.90563179 96.29078194 -28.90663147 94.45375061 C-28.91045725 89.60890338 -28.92028804 84.76408592 -28.93133545 79.91925049 C-28.94154828 74.97937422 -28.94612881 70.03949315 -28.95117188 65.09960938 C-28.96191026 55.39972647 -28.9789874 45.69986571 -29 36 C-30.60681641 35.36771484 -30.60681641 35.36771484 -32.24609375 34.72265625 C-33.64328302 34.16940681 -35.04041551 33.61601398 -36.4375 33.0625 C-37.14455078 32.78470703 -37.85160156 32.50691406 -38.58007812 32.22070312 C-43.88671875 30.11328125 -43.88671875 30.11328125 -45 29 C-45.07325168 26.13732433 -45.09238205 23.299281 -45.0625 20.4375 C-45.05573242 19.22803711 -45.05573242 19.22803711 -45.04882812 17.99414062 C-45.03700518 15.99606244 -45.01906914 13.99802217 -45 12 C-44.14019531 12.03480469 -43.28039062 12.06960937 -42.39453125 12.10546875 C-26.70619853 12.46474355 -14.70434942 8.10713935 -1 1 C-0.67 0.67 -0.34 0.34 0 0 Z " fill="#FFFFFF" transform="translate(218,33)"/>
<path d="M0 0 C0.66 0 1.32 0 2 0 C0.40741893 4.98043534 -2.54119352 8.66328458 -5.6875 12.75 C-6.19216797 13.41515625 -6.69683594 14.0803125 -7.21679688 14.765625 C-11.56293285 20.47988722 -11.56293285 20.47988722 -13.85668945 23.20947266 C-18.04174372 28.26972838 -20.32352325 32.50174757 -21.8125 38.875 C-22.15571289 40.23153687 -22.15571289 40.23153687 -22.50585938 41.61547852 C-23.19706835 44.39246803 -23.86237692 47.17448597 -24.51763916 49.96014404 C-25.05110723 52.21612739 -25.59407856 54.46970341 -26.13818359 56.72314453 C-34.54409195 91.59496529 -41.2661103 126.59799397 -47 162 C-47.99 162.33 -48.98 162.66 -50 163 C-50.1451001 162.06768555 -50.2902002 161.13537109 -50.43969727 160.17480469 C-55.31446322 128.98021665 -61.01207287 98.07854204 -68.125 67.3125 C-68.33096802 66.41706482 -68.53693604 65.52162964 -68.74914551 64.59906006 C-70.83371485 55.57321206 -73.01537574 46.57412223 -75.51171875 37.65234375 C-75.69207672 36.97617508 -75.87243469 36.30000641 -76.05825806 35.60334778 C-78.03367536 28.78127209 -82.0448385 23.88413899 -86.62988281 18.60449219 C-89.04490414 15.77635246 -91.29540391 12.82193633 -93.5625 9.875 C-93.99199951 9.33004883 -94.42149902 8.78509766 -94.86401367 8.22363281 C-96.74572492 5.80740095 -98.02210228 3.93369315 -99 1 C-94.57280713 2.64009809 -91.90187303 6.0296256 -88.8125 9.4375 C-88.23371094 10.06930176 -87.65492187 10.70110352 -87.05859375 11.35205078 C-82.16146012 16.73753746 -77.54221861 22.31287291 -73 28 C-71.97154034 29.26163133 -70.94148185 30.52196036 -69.91015625 31.78125 C-53.20051808 52.19922288 -53.20051808 52.19922288 -48 60 C-47.71084717 59.51168701 -47.42169434 59.02337402 -47.1237793 58.52026367 C-44.04259067 53.43967733 -40.61822475 48.86754432 -36.8125 44.3125 C-32.72694498 39.36458001 -28.7295184 34.37971506 -24.875 29.25 C-21.16553951 24.38020584 -17.24205826 19.85728754 -13.05444336 15.40429688 C-9.03594139 11.1152153 -5.39434792 6.61518685 -1.77734375 1.984375 C-1.19082031 1.32953125 -0.60429687 0.6746875 0 0 Z " fill="#FFFFFF" transform="translate(158,127)"/>
<path d="M0 0 C3.39269369 1.24704815 6.13876261 2.6698359 9.05859375 4.7890625 C14.40687208 8.43738008 20.10611577 10.88722312 26.0625 13.375 C27.11888672 13.82488281 28.17527344 14.27476563 29.26367188 14.73828125 C31.83911128 15.83371701 34.41775522 16.92072865 37 18 C37.25544188 27.64012693 37.45059741 37.27908102 37.56993389 46.92185974 C37.62722695 51.40013562 37.70485188 55.87608861 37.82983398 60.35302734 C37.94981168 64.67802525 38.01521401 69.00079748 38.04364967 73.32733154 C38.0638973 74.97339932 38.10344348 76.61935182 38.16303062 78.26446533 C38.61083202 91.14594144 38.61083202 91.14594144 34.63833618 95.71826172 C31.84479851 97.76268535 29.0561445 99.38447132 26 101 C24.45601237 102.13584652 22.92988596 103.29715783 21.4375 104.5 C18.2393617 107 18.2393617 107 16 107 C15.80867373 105.463316 15.67412463 103.91952045 15.5625 102.375 C15.48128906 101.51648438 15.40007812 100.65796875 15.31640625 99.7734375 C16 97 16 97 17.57397461 95.96789551 C18.20956299 95.5846814 18.84515137 95.20146729 19.5 94.80664062 C22.22973818 92.52798458 22.93485735 91.334997 23.62303162 87.79605103 C23.81107759 83.62072486 23.7877123 79.49633393 23.68359375 75.3203125 C23.67052616 73.78191384 23.66056746 72.2434859 23.65357971 70.70504761 C23.62694399 66.66994779 23.55826525 62.63663218 23.48065186 58.60223389 C23.40884269 54.47985977 23.37703082 50.35719524 23.34179688 46.234375 C23.26688561 38.15543423 23.14753114 30.0779395 23 22 C22.45730469 21.79721436 21.91460937 21.59442871 21.35546875 21.38549805 C20.28232422 20.98391479 20.28232422 20.98391479 19.1875 20.57421875 C18.12595703 20.17722778 18.12595703 20.17722778 17.04296875 19.7722168 C10.92049939 17.45799947 7.19214247 14.4591275 2.734375 9.7421875 C1.1035325 7.91911674 1.1035325 7.91911674 -1 7 C-0.67 4.69 -0.34 2.38 0 0 Z " fill="#FFFFFF" transform="translate(146,58)"/>
<path d="M0 0 C0.43219965 3.07942252 0.68265396 5.02446249 0 8 C-2.31729872 10.81346 -5.07880298 12.84492824 -8 15 C-8.763125 15.721875 -9.52625 16.44375 -10.3125 17.1875 C-13.0732548 19.0494044 -15.53794862 20.00573567 -18.66796875 21.11328125 C-19.66465576 21.46817627 -20.66134277 21.82307129 -21.68823242 22.1887207 C-22.83255737 22.59030396 -22.83255737 22.59030396 -24 23 C-24.16241044 31.89264238 -24.28667806 40.78477202 -24.3626852 49.67857552 C-24.39917127 53.80871195 -24.44863223 57.93783159 -24.52807617 62.06738281 C-24.60430839 66.05508233 -24.64602509 70.04180598 -24.6641407 74.03017807 C-24.67704463 75.54930864 -24.70224511 77.06838757 -24.7401104 78.58710098 C-25.2505571 86.81152237 -25.2505571 86.81152237 -22.41908264 94.2046814 C-20.56904629 95.83171966 -20.56904629 95.83171966 -18.57397461 96.96789551 C-17 98 -17 98 -16.31640625 100.7734375 C-16.39761719 101.63195312 -16.47882812 102.49046875 -16.5625 103.375 C-16.62566406 104.24898438 -16.68882813 105.12296875 -16.75390625 106.0234375 C-16.83511719 106.67570312 -16.91632812 107.32796875 -17 108 C-17.57601456 107.70043396 -18.15202911 107.40086792 -18.74549866 107.09222412 C-20.92590935 105.98749317 -20.92590935 105.98749317 -22.99778748 105.27838135 C-29.30853105 102.9844771 -34.51347827 99.87530411 -38 94 C-40.81085135 82.49236363 -39.67880494 70.14427321 -39.16729736 58.40887451 C-38.9921598 53.96535807 -38.91549707 49.52020448 -38.83007812 45.07421875 C-38.64871185 36.37829002 -38.35934338 27.69038686 -38 19 C-37.2819519 18.69132492 -36.56390381 18.38264984 -35.82409668 18.06462097 C-32.53623629 16.64700859 -29.25249983 15.22007547 -25.96875 13.79296875 C-24.83920898 13.30759644 -23.70966797 12.82222412 -22.54589844 12.32214355 C-17.25527475 10.01570195 -4.97254114 0 0 0 Z " fill="#FFFFFF" transform="translate(74,57)"/>
<path d="M0 0 C0.20945074 9.1973096 0.36890215 18.39378626 0.46630955 27.59296894 C0.51308537 31.86565791 0.57641846 36.13670384 0.67895508 40.40844727 C0.77746785 44.53887503 0.83070474 48.66773312 0.85389519 52.79924583 C0.87039839 54.36736938 0.90262623 55.93541652 0.95157051 57.50286293 C1.19546047 65.6447079 1.03808189 71.67635104 -4.35351562 78.31494141 C-5.87451379 79.90374502 -7.42102902 81.46879689 -9 83 C-10.08796784 84.24988243 -11.16578115 85.50887448 -12.22265625 86.78515625 C-13.16837424 87.87838043 -14.11497407 88.97084244 -15.0625 90.0625 C-19.84577321 95.60514468 -24.48432951 101.23587943 -29 107 C-30.9877987 101.31935847 -28.52599948 95.49097226 -27.125 89.875 C-26.86203125 88.6890625 -26.5990625 87.503125 -26.328125 86.28125 C-24.10807983 77.38142292 -20.45025078 72.36990164 -14 66 C-11.29081842 62.94257085 -10.63319474 61.1100164 -10.69458008 57.03881836 C-10.70060745 56.05356674 -10.70663483 55.06831512 -10.71284485 54.0532074 C-10.73155136 52.99279739 -10.75025787 51.93238739 -10.76953125 50.83984375 C-10.77163189 48.57877692 -10.77223459 46.3177083 -10.77148438 44.05664062 C-10.78592604 40.50374523 -10.81227802 36.95218816 -10.8659668 33.3996582 C-11.18081395 9.52291613 -11.18081395 9.52291613 -3.91674805 1.49438477 C-2 0 -2 0 0 0 Z " fill="#FFFFFF" transform="translate(157,150)"/>
<path d="M0 0 C10.2433701 10.15841308 10.2433701 10.15841308 10.48486328 17.27001953 C10.45182849 19.3080876 10.39569917 21.34587126 10.3203125 23.3828125 C10.29777885 25.62498356 10.27700159 27.86717283 10.2578125 30.109375 C10.2000522 33.61219431 10.12538155 37.11260657 10.01757812 40.61425781 C9.01958822 55.68058597 9.01958822 55.68058597 14.84526062 68.95751953 C16.32106999 70.50629003 17.83364007 71.99154881 19.39282227 73.45605469 C23.00720478 76.98277683 23.99708562 80.17775297 25 85 C25.45673287 86.64476826 25.91916329 88.28796298 26.38671875 89.9296875 C26.8233914 91.57731207 27.25697996 93.22575707 27.6875 94.875 C27.91244141 95.71546875 28.13738281 96.5559375 28.36914062 97.421875 C28.58119141 98.22882813 28.79324219 99.03578125 29.01171875 99.8671875 C29.29728638 100.95169189 29.29728638 100.95169189 29.58862305 102.05810547 C30 104 30 104 30 107 C29.34 107 28.68 107 28 107 C26.62508701 105.49212839 25.32635538 103.91460239 24.0625 102.3125 C23.26070312 101.30960937 22.45890625 100.30671875 21.6328125 99.2734375 C21.20516602 98.7381543 20.77751953 98.20287109 20.33691406 97.65136719 C17.25827515 93.84860721 14.04902725 90.15327542 10.87109375 86.43359375 C10.42962509 85.89080276 9.98815643 85.34801178 9.53330994 84.78877258 C7.98148131 82.92053811 7.98148131 82.92053811 5.99708557 81.07292175 C-0.06973422 74.71886116 -0.98687621 69.15296697 -0.90637207 60.73703003 C-0.86553673 59.17622613 -0.82380906 57.61544535 -0.78125 56.0546875 C-0.76630092 54.43233042 -0.75492652 52.80993685 -0.74694824 51.18753052 C-0.71662197 46.94842144 -0.63823664 42.71155837 -0.54931641 38.47332764 C-0.46699697 34.13617325 -0.43083926 29.79865045 -0.390625 25.4609375 C-0.30521537 16.97293561 -0.16895532 8.48674835 0 0 Z " fill="#FFFFFF" transform="translate(62,149)"/>
<path d="M0 0 C0.66 0 1.32 0 2 0 C1.47517393 3.89723466 0.94186792 7.79320761 0.40087891 11.68823242 C0.12869976 13.66068822 -0.13686807 15.63405266 -0.40234375 17.60742188 C-0.57636719 18.85458984 -0.75039062 20.10175781 -0.9296875 21.38671875 C-1.08679199 22.53358154 -1.24389648 23.68044434 -1.40576172 24.86206055 C-2.59976216 31.1671089 -4.7112389 34.13257018 -9.875 37.8125 C-10.81218872 38.49179565 -10.81218872 38.49179565 -11.76831055 39.18481445 C-18.83548727 44.13796931 -26.32709203 48.40749301 -33.8125 52.6875 C-34.44726257 53.05114655 -35.08202515 53.41479309 -35.73602295 53.78945923 C-37.55616083 54.82828296 -39.38041278 55.85934021 -41.20703125 56.88671875 C-42.2741333 57.48701904 -43.34123535 58.08731934 -44.44067383 58.70581055 C-47 60 -47 60 -49 60 C-49.13792969 59.28972656 -49.27585938 58.57945313 -49.41796875 57.84765625 C-49.95557107 55.00578345 -49.95557107 55.00578345 -50.80078125 52.30859375 C-51.47488346 48.52641725 -51.45405456 46.60277615 -50 43 C-44.92539195 38.43662414 -38.52831052 35.49293072 -32.51806641 32.35888672 C-28.19660542 30.02678939 -24.248332 27.22086708 -20.21484375 24.42578125 C-18 23 -18 23 -15 22 C-13.41632937 20.1549799 -13.41632937 20.1549799 -11.93359375 17.8515625 C-11.36576172 17.01109375 -10.79792969 16.170625 -10.21289062 15.3046875 C-9.62701172 14.42039062 -9.04113281 13.53609375 -8.4375 12.625 C-7.55288086 11.31015625 -7.55288086 11.31015625 -6.65039062 9.96875 C-5.09266848 7.65077439 -3.54413014 5.3270423 -2 3 C-1.34 2.01 -0.68 1.02 0 0 Z " fill="#FFFFFF" transform="translate(99,0)"/>
<path d="M0 0 C3.80243037 1.26747679 4.21703681 2.55081132 6.25 5.9375 C6.87003906 6.93136719 7.49007812 7.92523438 8.12890625 8.94921875 C9.29965661 10.85810399 10.45580936 12.77610783 11.58984375 14.70703125 C15.72218003 21.28441736 20.15950472 24.28163282 26.94921875 27.86279297 C31.44504041 30.35583312 35.76807227 33.14906105 40.125 35.875 C41.96033089 37.01920276 43.79622921 38.16249608 45.6328125 39.3046875 C46.42574707 39.79952637 47.21868164 40.29436523 48.03564453 40.80419922 C49.97551395 42.02237563 49.97551395 42.02237563 52 43 C52.02721176 44.89575251 52.04649136 46.79161979 52.0625 48.6875 C52.07410156 49.74324219 52.08570313 50.79898438 52.09765625 51.88671875 C52.00865425 54.72410262 51.64939838 57.2438919 51 60 C44.92072069 58.37885885 39.85378976 55.19947231 34.5 52 C33.52691895 51.4220166 32.55383789 50.8440332 31.55126953 50.24853516 C23.72601124 45.54768061 16.28401683 40.50017597 9 35 C7.97302002 34.40481567 7.97302002 34.40481567 6.92529297 33.79760742 C4.14855365 31.20502163 4.08623317 28.93281927 3.515625 25.21484375 C3.41030457 24.55795059 3.30498413 23.90105743 3.19647217 23.22425842 C2.86489962 21.13081412 2.55738798 19.03461723 2.25 16.9375 C2.028878 15.52254584 1.80623835 14.10782796 1.58203125 12.69335938 C0 2.58466046 0 2.58466046 0 0 Z " fill="#FFFFFF" transform="translate(118,0)"/>
<path d="M0 0 C4.54702601 1.97074493 8.18448899 5.18170121 11.99267578 8.28222656 C15.45990676 11.07915589 18.95757608 13.66869073 22.69921875 16.08984375 C34.16807569 23.71835335 34.16807569 23.71835335 35.74365234 28.03955078 C36.43520316 32.47589525 35.92904315 36.60981572 35 41 C30.03431329 37.30756629 26.4160279 32.9881352 22.55859375 28.16796875 C19.75791534 24.67402032 16.85507834 21.2715085 13.9375 17.875 C13.42977051 17.28243408 12.92204102 16.68986816 12.39892578 16.0793457 C8.78372073 11.87405795 5.09368849 7.74358186 1.328125 3.671875 C0 2 0 2 0 0 Z " fill="#FFFFFF" transform="translate(23,175)"/>
<path d="M0 0 C0 4.12744343 -1.61750496 5.04694583 -4.4375 8 C-5.36811909 8.99139757 -6.29645674 9.984941 -7.22265625 10.98046875 C-7.92672607 11.737229 -7.92672607 11.737229 -8.64501953 12.50927734 C-11.42020628 15.5624828 -13.96582219 18.80506085 -16.5546875 22.015625 C-19.99342556 26.21242353 -23.54244373 30.31187675 -27.10302734 34.40551758 C-29.8395242 37.50197485 -29.8395242 37.50197485 -32 41 C-32.66 41 -33.32 41 -34 41 C-35.07914645 35.90050402 -35.82030091 30.97374649 -34 26 C-30.08914605 21.10750601 -24.47619903 17.85194894 -19.26660156 14.49462891 C-15.93306964 12.29645113 -12.81865918 9.84875826 -9.6875 7.375 C-6.4725793 4.89691772 -3.25381282 2.42683426 0 0 Z " fill="#FFFFFF" transform="translate(195,175)"/>
<path d="M0 0 C1.051875 0.58007812 1.051875 0.58007812 2.125 1.171875 C7.69832834 4.23114762 13.29206196 7.19987945 19 10 C19 12.64 19 15.28 19 18 C16.3725162 16.71319131 13.74803317 15.42082322 11.125 14.125 C10.37863281 13.76019531 9.63226563 13.39539062 8.86328125 13.01953125 C8.14785156 12.66503906 7.43242187 12.31054688 6.6953125 11.9453125 C5.7055542 11.45828857 5.7055542 11.45828857 4.69580078 10.96142578 C3 10 3 10 1 8 C0.43479997 5.34462628 0.26211802 2.70855287 0 0 Z " fill="#FFFFFF" transform="translate(124,45)"/>
<path d="M0 0 C1.67166723 3.34333445 1.01494483 5.4682916 0 9 C-2.38054417 11.16515092 -5.06896918 12.51191208 -7.9375 13.9375 C-8.67935547 14.33517578 -9.42121094 14.73285156 -10.18554688 15.14257812 C-15.61022214 18 -15.61022214 18 -18 18 C-18 15.36 -18 12.72 -18 10 C-17.20335938 9.61328125 -16.40671875 9.2265625 -15.5859375 8.828125 C-10.15723678 6.16000445 -4.9085743 3.54508144 0 0 Z " fill="#FFFFFF" transform="translate(94,45)"/>
<path d="M0 0 C0.66 0 1.32 0 2 0 C2.79283123 3.31222235 3.58404696 6.62482868 4.375 9.9375 C4.59671875 10.86369141 4.8184375 11.78988281 5.046875 12.74414062 C6.41672236 18.48541267 7.73460974 24.23478738 9 30 C6.53199953 28.84826645 4.95216435 27.95216435 3 26 C2.49755859 24.03222656 2.49755859 24.03222656 2.1484375 21.640625 C1.95507812 20.33738281 1.95507812 20.33738281 1.7578125 19.0078125 C1.63148437 18.09773438 1.50515625 17.18765625 1.375 16.25 C1.2409375 15.35539062 1.106875 14.46078125 0.96875 13.5390625 C0.31104223 8.98879857 -0.16795139 4.611029 0 0 Z " fill="#FFFFFF" transform="translate(122,89)"/>
<path d="M0 0 C0.66 0 1.32 0 2 0 C1.54351481 5.99437132 0.94977812 11.97419156 0.1875 17.9375 C0.05730469 18.99839844 -0.07289062 20.05929688 -0.20703125 21.15234375 C-1.13587216 24.487935 -2.30576985 25.87027522 -5 28 C-5.66 28 -6.32 28 -7 28 C-4.66666667 18.66666667 -2.33333333 9.33333333 0 0 Z " fill="#FFFFFF" transform="translate(95,91)"/>
</svg>
