<?xml version="1.0" encoding="UTF-8"?>
<!-- Generator: visioncortex VTracer 0.6.4 -->
<svg version="1.1" xmlns="http://www.w3.org/2000/svg" width="290" height="276">
<path d="M0 0 C5.28 0 10.56 0 16 0 C15.67 3.63 15.34 7.26 15 11 C19.95 11 24.9 11 30 11 C30 15.95 30 20.9 30 26 C25.05 26 20.1 26 15 26 C15.14163991 36.7500595 15.28724468 47.50005757 15.4375 58.25 C15.44852123 59.03871365 15.45954247 59.82742729 15.47089767 60.64004135 C15.80011666 84.09917384 16.1942876 107.55143756 17 131 C18.22203125 130.6803125 19.4440625 130.360625 20.703125 130.03125 C25.16028422 128.92383247 29.44111926 127.95208439 34 129 C36.8399407 132.11700808 38 133.76193341 38 138 C37.04480469 138.25394531 36.08960938 138.50789062 35.10546875 138.76953125 C34.48486572 138.93485352 33.8642627 139.10017578 33.22485352 139.27050781 C31.85717362 139.63434836 30.48916686 139.99696224 29.12084961 140.35839844 C26.01357744 141.18195128 22.9194055 142.02378035 19.8359375 142.93359375 C18.92070312 143.20300781 18.00546875 143.47242188 17.0625 143.75 C15.87333984 144.11351562 15.87333984 144.11351562 14.66015625 144.484375 C6.53383202 146.05952155 -0.5139442 144.13444293 -8.375 142.0625 C-9.46683594 141.78470703 -10.55867188 141.50691406 -11.68359375 141.22070312 C-19.66095344 139.16952328 -19.66095344 139.16952328 -22 138 C-20.80100302 134.9168649 -19.52299523 131.93720508 -18 129 C-13.5116784 128.83678831 -9.59485687 128.97674361 -5.21484375 130.0078125 C-4.42070068 130.19230957 -3.62655762 130.37680664 -2.80834961 130.56689453 C-2.21159424 130.70981934 -1.61483887 130.85274414 -1 131 C0.06871662 110.14779968 0.50871418 89.28060341 0.99578857 68.40863037 C1.1081674 63.61417763 1.22315231 58.81978738 1.33789062 54.02539062 C1.56108424 44.6836513 1.78123711 35.34184414 2 26 C-3.28 26 -8.56 26 -14 26 C-14 21.05 -14 16.1 -14 11 C-3.5 10.875 -3.5 10.875 1 12 C0.67 8.04 0.34 4.08 0 0 Z " fill="#FFFFFF" transform="translate(137,68)"/>
<path d="M0 0 C0.80660568 0.01886765 1.61321136 0.03773529 2.44425964 0.05717468 C4.136013 0.09879693 5.82769301 0.14350475 7.51928711 0.19116211 C10.11492918 0.26197685 12.71058358 0.31599994 15.30664062 0.36914062 C16.95445369 0.41174363 18.60224172 0.45532839 20.25 0.5 C21.41557182 0.52203239 21.41557182 0.52203239 22.60469055 0.54450989 C28.06387096 0.72012096 28.06387096 0.72012096 30.29296875 2.94921875 C30.10546875 5.01171875 30.10546875 5.01171875 29.29296875 6.94921875 C28.30296875 7.27921875 27.31296875 7.60921875 26.29296875 7.94921875 C26.61869873 8.65079102 26.94442871 9.35236328 27.2800293 10.07519531 C27.7419165 11.0700293 28.20380371 12.06486328 28.6796875 13.08984375 C29.20022705 14.21084473 29.7207666 15.3318457 30.25708008 16.48681641 C31.41512308 18.98097981 32.57243271 21.47548182 33.72924805 23.97021484 C36.51778843 29.98228796 39.31006925 35.99247039 42.12303162 41.99316406 C43.32931581 44.56695127 44.53287493 47.14200841 45.73623657 49.71716309 C46.31541524 50.95453907 46.89596055 52.19127629 47.47787476 53.42736816 C48.29075485 55.15439948 49.0986269 56.88378533 49.90625 58.61328125 C50.36813721 59.5976416 50.83002441 60.58200195 51.3059082 61.59619141 C52.29296875 63.94921875 52.29296875 63.94921875 52.29296875 65.94921875 C53.28296875 65.94921875 54.27296875 65.94921875 55.29296875 65.94921875 C53.86372992 72.02348376 52.35702888 75.906512 46.9375 79.51953125 C35.83013006 86.00535799 24.62543875 87.55246223 12.10546875 84.69921875 C3.55340696 82.32607628 -2.7213066 78.51230953 -7.70703125 70.94921875 C-8.40234375 68.1953125 -8.40234375 68.1953125 -8.70703125 65.94921875 C-7.71703125 65.94921875 -6.72703125 65.94921875 -5.70703125 65.94921875 C-5.5492923 65.42270721 -5.39155334 64.89619568 -5.22903442 64.35372925 C-3.24356689 58.04362899 -0.58301323 52.2453376 2.36328125 46.33203125 C2.84497772 45.35305878 3.32667419 44.3740863 3.82296753 43.365448 C5.34925389 40.26568266 6.88320082 37.16979215 8.41796875 34.07421875 C9.95852435 30.95657644 11.49744536 27.83814187 13.03439331 24.71871948 C13.98798782 22.7843684 14.94390289 20.85115921 15.90237427 18.91921997 C16.3330722 18.04756195 16.76377014 17.17590393 17.20751953 16.27783203 C17.58707794 15.51221954 17.96663635 14.74660706 18.35769653 13.95779419 C19.39867085 11.8217556 19.39867085 11.8217556 20.29296875 8.94921875 C8.41296875 8.61921875 -3.46703125 8.28921875 -15.70703125 7.94921875 C-15.70703125 5.63921875 -15.70703125 3.32921875 -15.70703125 0.94921875 C-10.39655314 0.04520492 -5.37795015 -0.14558286 0 0 Z M20.29296875 19.94921875 C19.76509766 21.08798462 19.76509766 21.08798462 19.2265625 22.24975586 C17.88213549 25.14944447 16.53735022 28.04896653 15.19223022 30.94833374 C14.59451425 32.2367284 13.99687786 33.52515999 13.39932251 34.81362915 C9.4609646 43.3044659 5.51003265 51.78895559 1.47851562 60.23608398 C-0.04909987 62.97727643 -0.04909987 62.97727643 -0.70703125 65.94921875 C6.55296875 65.94921875 13.81296875 65.94921875 21.29296875 65.94921875 C21.29296875 50.76921875 21.29296875 35.58921875 21.29296875 19.94921875 C20.96296875 19.94921875 20.63296875 19.94921875 20.29296875 19.94921875 Z M26.29296875 21.94921875 C26.29296875 36.46921875 26.29296875 50.98921875 26.29296875 65.94921875 C33.22296875 65.94921875 40.15296875 65.94921875 47.29296875 65.94921875 C46.08133771 62.31432564 45.02568305 59.16294312 43.41357422 55.77978516 C43.05335175 55.01944977 42.69312927 54.25911438 42.32199097 53.47573853 C41.93858551 52.67550262 41.55518005 51.87526672 41.16015625 51.05078125 C40.76345734 50.21582123 40.36675842 49.38086121 39.95803833 48.52059937 C38.69791944 45.87025057 37.43302124 43.22221565 36.16796875 40.57421875 C35.30957864 38.77098429 34.4515023 36.96760043 33.59375 35.1640625 C31.49711841 30.75737658 29.39619929 26.35275868 27.29296875 21.94921875 C26.96296875 21.94921875 26.63296875 21.94921875 26.29296875 21.94921875 Z " fill="#FFFFFF" transform="translate(184.70703125,82.05078125)"/>
<path d="M0 0 C0 2.64 0 5.28 0 8 C-11.88 8 -23.76 8 -36 8 C-27.47656399 26.63933518 -27.47656399 26.63933518 -18.5 45.0625 C-10 61.84077996 -10 61.84077996 -10 66 C-9.01 66 -8.02 66 -7 66 C-7.3776634 71.28728758 -9.17860596 74.45635139 -13 78 C-20.76172767 84.49563025 -31.50947759 86.65747076 -41.46484375 86.28515625 C-51.30648883 85.17816073 -60.09884257 82.48399755 -66.9375 75.0625 C-69.08135675 71.87919755 -69.72914645 69.7919497 -70 66 C-69.34 66 -68.68 66 -68 66 C-67.73960938 64.98679687 -67.47921875 63.97359375 -67.2109375 62.9296875 C-66.11168049 59.09859458 -64.46991197 55.64706218 -62.625 52.125 C-58.88915749 44.82304522 -55.29728548 37.45783561 -51.75 30.0625 C-50.98937256 28.48202881 -50.98937256 28.48202881 -50.21337891 26.86962891 C-47.37704702 20.95443955 -44.61982332 15.01437668 -42 9 C-43.32 7.68 -44.64 6.36 -46 5 C-45.34 3.68 -44.68 2.36 -44 1 C-39.0195719 0.85612777 -34.03910365 0.71376603 -29.05859375 0.57275391 C-27.36717588 0.52465825 -25.67576933 0.47616258 -23.984375 0.42724609 C-21.54169597 0.35667341 -19.09897873 0.28757861 -16.65625 0.21875 C-15.91008423 0.19687622 -15.16391846 0.17500244 -14.3951416 0.15246582 C-9.59475858 0.01900996 -4.8022645 -0.01898128 0 0 Z M-42 21 C-44.83540574 26.76314226 -47.66478418 32.52921416 -50.48999023 38.29736328 C-51.45181951 40.25930682 -52.41502695 42.22057534 -53.37963867 44.18115234 C-54.76583861 46.99921193 -56.14706558 49.81966117 -57.52734375 52.640625 C-57.95965805 53.51680481 -58.39197235 54.39298462 -58.83738708 55.29571533 C-59.23772659 56.11626404 -59.6380661 56.93681274 -60.05053711 57.78222656 C-60.40361435 58.50170471 -60.75669159 59.22118286 -61.12046814 59.96246338 C-62.18263435 62.27207965 -62.18263435 62.27207965 -63 66 C-55.74 66 -48.48 66 -41 66 C-41 51.15 -41 36.3 -41 21 C-41.33 21 -41.66 21 -42 21 Z M-36 22 C-36 36.52 -36 51.04 -36 66 C-28.74 66 -21.48 66 -14 66 C-20.94233438 51.30539223 -27.95589404 36.64607211 -35 22 C-35.33 22 -35.66 22 -36 22 Z " fill="#FFFFFF" transform="translate(121,82)"/>
<path d="M0 0 C15.50790466 3.91425478 31.96660857 11.28486438 44.140625 21.859375 C45.96224281 23.2041808 45.96224281 23.2041808 48.29296875 22.97265625 C51.97955311 21.64803936 55.06957861 19.58834849 58.3125 17.4375 C70.26236906 9.76737718 82.20283534 3.59104286 96 0 C94.8178461 3.54646169 93.89863849 4.02720364 90.9375 6.1875 C72.06130245 20.98016484 59.64344588 38.76566847 49 60 C48.34 60 47.68 60 47 60 C46.73896484 59.48203857 46.47792969 58.96407715 46.20898438 58.43041992 C41.13492526 48.42114963 36.13414426 38.72658718 29 30 C28.55398437 29.45005371 28.10796875 28.90010742 27.6484375 28.33349609 C20.24997419 19.26592759 12.552691 10.77288294 2.875 4.0625 C1.92625 3.381875 0.9775 2.70125 0 2 C0 1.34 0 0.68 0 0 Z " fill="#FFFFFF" transform="translate(97,216)"/>
<path d="M0 0 C4.07210173 1.35736724 4.56819532 3.25343487 6.6875 6.9375 C13.11997075 17.77589448 21.4018834 26.85638356 30 36 C30.60585937 36.66 31.21171875 37.32 31.8359375 38 C36.27708476 42.67945273 41.38519579 46.34944633 46.62109375 50.08203125 C47.40613281 50.71496094 48.19117188 51.34789062 49 52 C49 52.66 49 53.32 49 54 C32.78664976 49.58796 17.13941262 42.2402295 3.89453125 31.80078125 C1.96085534 30.75834701 1.96085534 30.75834701 -0.34375 31.59765625 C-3.47266555 33.24953961 -6.38587107 35.14645163 -9.3125 37.125 C-34.98722024 54 -34.98722024 54 -47 54 C-45.75930965 50.27792894 -44.61055119 49.86885653 -41.375 47.75 C-24.74950453 35.99525516 -9.13050313 18.26100626 0 0 Z " fill="#FFFFFF" transform="translate(144,0)"/>
<path d="M0 0 C1.27875 0.28875 2.5575 0.5775 3.875 0.875 C5.58298037 1.25160437 7.29132767 1.62654766 9 2 C9.75796875 2.16757812 10.5159375 2.33515625 11.296875 2.5078125 C15.12527693 3.31717264 18.81214118 3.98541285 22.72265625 4.2890625 C34.23394272 5.26440303 34.23394272 5.26440303 37.8125 9.25 C38.92185663 10.80086381 39.97913015 12.38951081 41 14 C42.48667772 16.19829711 43.98250111 18.38574491 45.5 20.5625 C46.11415771 21.45171143 46.11415771 21.45171143 46.74072266 22.35888672 C51.81035515 29.4805583 58.12404453 35.34637558 64.37939453 41.40966797 C69.58477249 46.51780777 74.96850434 52.273869 78 59 C77.505 59.99 77.505 59.99 77 61 C60.92084492 53.13996638 45.13564635 44.96809302 32.71777344 31.74780273 C30.98791549 29.98770423 29.18448777 28.39887475 27.3046875 26.80078125 C22.2308541 22.39656133 17.58508303 17.60683591 12.91210938 12.78515625 C9.76618932 9.58726278 6.70898276 6.67615142 3.00390625 4.1328125 C2.01261719 3.42898437 1.02132812 2.72515625 0 2 C0 1.34 0 0.68 0 0 Z " fill="#FFFFFF" transform="translate(163,19)"/>
<path d="M0 0 C0 2 0 2 -1.29296875 3.3046875 C-1.91816406 3.82289062 -2.54335937 4.34109375 -3.1875 4.875 C-6.91997872 8.05549243 -10.57931452 11.30452111 -14.1875 14.625 C-14.74058838 15.13377686 -15.29367676 15.64255371 -15.86352539 16.16674805 C-19.89321888 19.90410822 -23.7721503 23.76918229 -27.625 27.6875 C-40.88077841 41.07321772 -56.51779492 52.70769899 -74 60 C-74.99 60 -75.98 60 -77 60 C-75.72786298 55.36242114 -74.10038443 52.55410877 -70.8125 49.0625 C-70.00683594 48.20011719 -69.20117188 47.33773437 -68.37109375 46.44921875 C-65.83763233 43.83228249 -63.26901212 41.25668092 -60.67578125 38.69921875 C-53.72309889 31.64929608 -47.45244042 23.78830932 -41.66796875 15.765625 C-41.27528809 15.22260742 -40.88260742 14.67958984 -40.47802734 14.12011719 C-39.36759424 12.57658261 -38.27130044 11.02290519 -37.17578125 9.46875 C-32.95800883 4.6830549 -27.937593 4.62154368 -21.875 4.0625 C-15.71268128 3.42751007 -9.94444099 2.41798028 -4.00390625 0.5859375 C-2 0 -2 0 0 0 Z " fill="#FFFFFF" transform="translate(127,19)"/>
<path d="M0 0 C-1.45002023 4.10839064 -3.3979134 7.50344613 -6 11 C-6.66 11 -7.32 11 -8 11 C-8 11.66 -8 12.32 -8 13 C-12.30232558 17.76744186 -12.30232558 17.76744186 -16 19 C-16.6758539 20.32870001 -17.34095769 21.66288166 -18 23 C-19.39948251 24.41367604 -20.84363953 25.78355296 -22.3125 27.125 C-29.08700773 33.71187559 -34.27690312 41.41022746 -39.62475586 49.16577148 C-43.05562671 53.74168711 -43.05562671 53.74168711 -46.07788086 54.56835938 C-46.86557861 54.65923828 -47.65327637 54.75011719 -48.46484375 54.84375 C-49.78125854 55.00943481 -49.78125854 55.00943481 -51.12426758 55.1784668 C-52.05263428 55.28457275 -52.98100098 55.39067871 -53.9375 55.5 C-61.82183701 56.50147468 -69.35808305 57.76912984 -77 60 C-77 59.34 -77 58.68 -77 58 C-75.53344727 56.53710938 -75.53344727 56.53710938 -73.50390625 54.84375 C-69.19707525 51.17948948 -65.05246522 47.37751688 -60.9375 43.5 C-59.83668091 42.46721924 -59.83668091 42.46721924 -58.71362305 41.41357422 C-54.43348595 37.37529182 -50.26477741 33.25529762 -46.16821289 29.03149414 C-35.59503652 18.1689847 -16.19579734 0 0 0 Z " fill="#FFFFFF" transform="translate(241,191)"/>
<path d="M0 0 C15.81634724 2.65963621 29.3834134 13.60043395 41 24 C41.74048584 24.65218506 42.48097168 25.30437012 43.24389648 25.97631836 C49.68058086 31.68774252 55.77259152 37.68562379 61.8125 43.8125 C63.6291099 45.65471399 65.4480401 47.49464345 67.26953125 49.33203125 C68.05948486 50.13358643 68.84943848 50.9351416 69.66333008 51.76098633 C71.99932137 54.07743678 71.99932137 54.07743678 74.7956543 56.16674805 C75.52308838 56.77172119 76.25052246 57.37669434 77 58 C77 58.66 77 59.32 77 60 C75.56333984 59.60167969 75.56333984 59.60167969 74.09765625 59.1953125 C72.75314078 58.8365247 71.40803842 58.47993223 70.0625 58.125 C69.34682861 57.93212402 68.63115723 57.73924805 67.89379883 57.54052734 C64.07112839 56.56709099 60.48883457 55.88587972 56.5390625 55.78125 C44.96701185 55.43778141 44.96701185 55.43778141 40.765625 51.1171875 C38.31097089 48.16435028 36.19671519 45.0135467 34.14501953 41.77148438 C32.54646274 39.29832274 30.73244826 37.03273485 28.875 34.75 C28.23949219 33.95980469 27.60398437 33.16960937 26.94921875 32.35546875 C22.14684809 26.5522032 17.10142794 21.04076573 11.70166016 15.78833008 C6.94604933 11.15828786 3.14396358 6.85427702 0 1 C0 0.67 0 0.34 0 0 Z " fill="#FFFFFF" transform="translate(49,191)"/>
<path d="M0 0 C2.07875948 1.07707745 4.12008752 2.22850755 6.125 3.4375 C7.23359375 4.0975 8.3421875 4.7575 9.484375 5.4375 C18.49302881 11.12717609 18.49302881 11.12717609 20.125 15.4375 C2.20353538 29.33721862 2.20353538 29.33721862 -5.64453125 29.4921875 C-10.49522632 27.90852647 -14.18643535 25.02985084 -18.25 22 C-19.08144531 21.40123047 -19.91289062 20.80246094 -20.76953125 20.18554688 C-25.26572936 16.88907322 -25.26572936 16.88907322 -26.875 15.4375 C-26.875 14.7775 -26.875 14.1175 -26.875 13.4375 C-24.33595886 11.33772263 -21.65019573 9.50786218 -18.94140625 7.6328125 C-15.88432221 5.52616358 -15.88432221 5.52616358 -13.33984375 3.1796875 C-8.58996676 -0.88280892 -6.02972504 -2.33661647 0 0 Z " fill="#FFFFFF" transform="translate(269.875,120.5625)"/>
<path d="M0 0 C3.27503194 1.99514293 6.31885164 4.24967321 9.375 6.5625 C10.20644531 7.17802734 11.03789063 7.79355469 11.89453125 8.42773438 C13.93721946 9.94214115 15.97179341 11.46628404 18 13 C16.4523399 17.64298031 12.72215645 19.38856548 8.8125 22.125 C7.67844727 22.95064453 7.67844727 22.95064453 6.52148438 23.79296875 C-1.06967855 29.15221127 -1.06967855 29.15221127 -6 29 C-8.67005527 27.92674249 -10.91214704 26.86186094 -13.375 25.4375 C-14.03185791 25.07269531 -14.68871582 24.70789063 -15.36547852 24.33203125 C-20.22163079 21.58419487 -24.67334535 18.53196298 -29 15 C-27.50065581 10.58246912 -24.09058947 8.76882888 -20.3125 6.4375 C-19.71244141 6.05142578 -19.11238281 5.66535156 -18.49414062 5.26757812 C-6.52926699 -2.27633254 -6.52926699 -2.27633254 0 0 Z " fill="#FFFFFF" transform="translate(29,121)"/>
<path d="M0 0 C1.34888732 0.00015905 2.69778075 0.00584927 4.04663086 0.01586914 C5.10991859 0.01799156 5.10991859 0.01799156 6.19468689 0.02015686 C8.46699173 0.02577096 10.73919936 0.03832576 13.01147461 0.05102539 C14.54858257 0.05603858 16.08569206 0.0606018 17.62280273 0.06469727 C21.39823103 0.07574497 25.17358632 0.09301898 28.94897461 0.11352539 C28.94897461 0.77352539 28.94897461 1.43352539 28.94897461 2.11352539 C27.02562296 3.48692333 25.03168786 4.76204999 23.01147461 5.98852539 C21.90932617 6.66657227 20.80717773 7.34461914 19.67163086 8.04321289 C17.67802637 9.23846721 15.89859789 10.12993622 13.68232727 10.85191345 C11.15009466 11.70203245 9.13330971 12.56745515 6.94897461 14.11352539 C5.42839908 17.23785907 5.28381139 20.3130365 5.08178711 23.75024414 C4.99065643 24.70308792 4.89952576 25.6559317 4.80563354 26.63764954 C4.52160947 29.69010704 4.2959723 32.74348983 4.07397461 35.80102539 C3.81917527 38.80073054 3.55228014 41.7991668 3.28338623 44.79763794 C3.10813751 46.75690408 2.93772127 48.71660883 2.77227783 50.67672729 C2.02074077 59.2642532 0.64336928 67.66644867 -1.05102539 76.11352539 C-2.04102539 75.78352539 -3.03102539 75.45352539 -4.05102539 75.11352539 C-4.79968553 71.77058763 -5.17709777 68.68094086 -5.18041992 65.25756836 C-5.18357208 64.31823456 -5.18672424 63.37890076 -5.18997192 62.41110229 C-5.18794769 61.40282379 -5.18592346 60.39454529 -5.18383789 59.35571289 C-5.18479462 58.29804718 -5.18575134 57.24038147 -5.18673706 56.15066528 C-5.18741737 53.90635112 -5.18557344 51.66203499 -5.18139648 49.41772461 C-5.17612066 46.04935028 -5.18130745 42.68111391 -5.18774414 39.31274414 C-5.19128567 29.21845812 -5.11119764 19.14201767 -4.60571289 9.05883789 C-4.56697052 8.26065643 -4.52822815 7.46247498 -4.48831177 6.6401062 C-4.11593609 0.15314958 -4.11593609 0.15314958 0 0 Z " fill="#FFFFFF" transform="translate(43.051025390625,46.886474609375)"/>
<path d="M0 0 C16.335 0.495 16.335 0.495 33 1 C33.62701576 11.0322521 34.16622666 20.89944307 34.203125 30.92578125 C34.20882507 32.16120163 34.21452515 33.39662201 34.22039795 34.66947937 C34.22974229 37.24473234 34.2363391 39.8199967 34.24023438 42.39526367 C34.25009099 46.34899793 34.28127119 50.30224322 34.3125 54.25585938 C34.31901767 56.77083028 34.32427296 59.28580485 34.328125 61.80078125 C34.3404718 62.98190994 34.3528186 64.16303864 34.36553955 65.37995911 C34.36253845 66.46927231 34.35953735 67.55858551 34.35644531 68.6809082 C34.36191376 70.11742485 34.36191376 70.11742485 34.36749268 71.58296204 C33.94023192 74.39310092 33.19446121 75.26614361 31 77 C28.27855774 67.50739088 26.99269024 58.0303421 25.9375 48.25 C25.7761595 46.80199746 25.61405276 45.35408008 25.45117188 43.90625 C25.37132553 43.19088074 25.29147919 42.47551147 25.20921326 41.73846436 C25.04685686 40.30315876 24.88059235 38.86828963 24.71034241 37.43389893 C24.28426907 33.80296811 23.93697715 30.19221177 23.72631836 26.54199219 C23.44644803 19.27692878 23.44644803 19.27692878 20.3293457 12.96777344 C18.15809775 11.54129763 16.13000777 10.62742551 13.6875 9.75 C12.16870766 9.10332167 10.65172702 8.45236945 9.13671875 7.796875 C8.06623291 7.35698242 8.06623291 7.35698242 6.97412109 6.90820312 C4.25933366 5.65925318 2.1426287 4.06992474 0 2 C0 1.34 0 0.68 0 0 Z " fill="#FFFFFF" transform="translate(218,46)"/>
<path d="M0 0 C0.66 0 1.32 0 2 0 C3.48203779 2.96407559 3.11920826 5.62079165 3.11352539 8.92822266 C3.11367142 9.64052536 3.11381744 10.35282806 3.1139679 11.0867157 C3.11327011 13.44586206 3.10548397 15.80492989 3.09765625 18.1640625 C3.0957916 19.79788164 3.09436792 21.43170134 3.09336853 23.06552124 C3.08954709 27.3694818 3.07971998 31.67340871 3.06866455 35.97735596 C3.05664574 41.13937688 3.05204641 46.30140904 3.04621124 51.46343994 C3.03650804 59.30898338 3.01734888 67.15445295 3 75 C-8.22 75.33 -19.44 75.66 -31 76 C-25.32044199 70.32044199 -25.32044199 70.32044199 -22.25 68.4375 C-21.57195312 68.01210937 -20.89390625 67.58671875 -20.1953125 67.1484375 C-18 66 -18 66 -15.5546875 65.2890625 C-12.86720398 64.48540987 -11.18266726 63.77603926 -9 62 C-8.1244555 59.24796314 -8.1244555 59.24796314 -7.8671875 55.9765625 C-7.7213623 54.71884033 -7.57553711 53.46111816 -7.42529297 52.1652832 C-7.28334058 50.77687468 -7.14158215 49.38844632 -7 48 C-6.8379167 46.55212298 -6.67398027 45.10445234 -6.50830078 43.65698242 C-5.89605481 38.25465391 -5.3201454 32.84856641 -4.75 27.44165039 C-2.06341774 2.06341774 -2.06341774 2.06341774 0 0 Z " fill="#FFFFFF" transform="translate(249,147)"/>
<path d="M0 0 C0.66 0 1.32 0 2 0 C2.59905813 3.58086514 3.17520777 7.16516691 3.75 10.75 C3.93916992 11.88421387 4.12833984 13.01842773 4.32324219 14.18701172 C5.32468966 20.4817046 6.10299129 26.67420844 6.45819092 33.03479004 C6.63889669 36.26894323 6.87233628 39.49873996 7.1036377 42.72961426 C7.20052745 44.31532537 7.27018838 45.90295511 7.31140137 47.49108887 C7.45335646 52.75117537 7.83764261 57.15637201 10 62 C14.024845 65.61572108 19.04072059 67.36424537 24.04919434 69.199646 C27.05506191 70.43285861 29.43091316 72.01140373 32 74 C32 74.66 32 75.32 32 76 C21.11 75.67 10.22 75.34 -1 75 C-1.61235538 65.20231396 -2.15791125 55.58799867 -2.16796875 45.80078125 C-2.17129715 44.63669235 -2.17462555 43.47260345 -2.17805481 42.27323914 C-2.18306023 39.84760935 -2.18546515 37.42197284 -2.18530273 34.99633789 C-2.18751822 31.281952 -2.2058193 27.56785035 -2.22460938 23.85351562 C-2.2275389 21.48177184 -2.22952664 19.11002666 -2.23046875 16.73828125 C-2.23765427 15.63309647 -2.24483978 14.52791168 -2.25224304 13.38923645 C-2.24916641 12.36013657 -2.24608978 11.33103668 -2.24291992 10.27075195 C-2.24434494 9.37081009 -2.24576996 8.47086823 -2.24723816 7.5436554 C-1.97345505 4.72689808 -1.16448831 2.56657979 0 0 Z " fill="#FFFFFF" transform="translate(40,147)"/>
<path d="M0 0 C2.13208008 0.18432617 2.13208008 0.18432617 4.76953125 0.79296875 C5.73375 1.01041748 6.69796875 1.22786621 7.69140625 1.4519043 C8.72136719 1.69465088 9.75132813 1.93739746 10.8125 2.1875 C12.39417969 2.53518433 12.39417969 2.53518433 14.0078125 2.88989258 C18.28533203 3.84026934 22.45171855 4.81466542 26.60546875 6.21875 C36.90315313 9.66520847 46.38304276 5.70342689 56.39697266 2.74511719 C59.66851382 1.80863776 62.90514845 1.0649143 66.25 0.4375 C67.12140625 0.27121094 67.9928125 0.10492188 68.890625 -0.06640625 C71 0 71 0 72.796875 1.28515625 C74 3 74 3 74 6 C73.2678125 6.23332031 72.535625 6.46664062 71.78125 6.70703125 C65.65059865 8.77247688 59.78031624 11.05551331 53.9375 13.8515625 C52.87724609 14.3571167 51.81699219 14.8626709 50.72460938 15.38354492 C48.59262538 16.41095847 46.46864954 17.45517583 44.35351562 18.5168457 C36.88528402 22.10981144 36.88528402 22.10981144 32.9453125 21.62109375 C31.97335938 21.08613281 31.00140625 20.55117187 30 20 C28.34460796 19.24496698 26.68529639 18.49850319 25.0234375 17.7578125 C23.14005721 16.8814275 21.25726681 16.00377395 19.375 15.125 C11.6997234 11.58090647 4.15023865 8.30407591 -4 6 C-2.84826645 3.53199953 -1.95216435 1.95216435 0 0 Z " fill="#FFFFFF" transform="translate(110,207)"/>
<path d="M0 0 C2.64 0 5.28 0 8 0 C8.04669403 10.3805798 8.08205505 20.76113391 8.10362434 31.14179802 C8.11398545 35.9638736 8.12800125 40.78587643 8.15087891 45.60791016 C8.17288501 50.27637555 8.18462601 54.94477174 8.18975449 59.61328506 C8.19340114 61.3791322 8.20051899 63.1449763 8.21146011 64.9107933 C8.28179657 76.75215855 7.55804957 88.2591453 6 100 C2.37 99.67 -1.26 99.34 -5 99 C-4.52820313 97.70964844 -4.05640625 96.41929687 -3.5703125 95.08984375 C-1.96131081 90.2486583 -1.29283705 85.62979834 -0.875 80.5625 C-0.80152344 79.80001953 -0.72804688 79.03753906 -0.65234375 78.25195312 C-0.40103797 75.50302065 -0.19546076 72.75349409 0 70 C0.08975098 68.75323486 0.17950195 67.50646973 0.27197266 66.22192383 C1.07625502 54.10742072 1.15389918 42.00960582 1.13037109 29.87182617 C1.12492359 26.51541808 1.13039646 23.15913887 1.13671875 19.80273438 C1.13605935 17.66145804 1.13478105 15.52018178 1.1328125 13.37890625 C1.13483673 12.3790419 1.13686096 11.37917755 1.13894653 10.34901428 C1.13579437 9.42632248 1.13264221 8.50363068 1.12939453 7.55297852 C1.12859894 6.7434523 1.12780334 5.93392609 1.12698364 5.09986877 C1.07906145 2.80653969 1.07906145 2.80653969 0 0 Z " fill="#FFFFFF" transform="translate(128,96)"/>
<path d="M0 0 C2.64 0 5.28 0 8 0 C7.67 0.99 7.34 1.98 7 3 C6.90963176 4.33055882 6.8721156 5.66515607 6.87060547 6.9987793 C6.86750366 7.8028421 6.86440186 8.60690491 6.86120605 9.43533325 C6.86416687 10.74158157 6.86416687 10.74158157 6.8671875 12.07421875 C6.86577759 12.98211151 6.86436768 13.89000427 6.86291504 14.82540894 C6.86077625 17.77947871 6.86707684 20.73344107 6.875 23.6875 C6.8765509 24.68941376 6.87810181 25.69132751 6.87969971 26.72360229 C6.91310911 45.00864168 7.14990338 63.22040822 8.875 81.4375 C8.94122559 82.17750244 9.00745117 82.91750488 9.07568359 83.67993164 C9.65896676 89.10172902 11.1505282 93.87100033 13 99 C7.555 99.495 7.555 99.495 2 100 C0.94953309 93.75620114 0.6664574 87.55285692 0.44140625 81.23046875 C0.39915421 80.06057907 0.35690216 78.89068939 0.31336975 77.68534851 C-0.16456858 62.97612249 -0.11369468 48.26608098 -0.06866455 33.55096436 C-0.05819197 29.7481749 -0.05381726 25.94537802 -0.04882812 22.14257812 C-0.03829671 14.76169959 -0.02137187 7.38085599 0 0 Z " fill="#FFFFFF" transform="translate(154,96)"/>
<path d="M0 0 C1.68359375 1.64453125 1.68359375 1.64453125 3.4375 3.8125 C5.28066886 6.07625772 6.83362404 7.88216255 9.22265625 9.57421875 C9.80917969 10.04472656 10.39570313 10.51523437 11 11 C11 14 11 14 9.3203125 15.75390625 C8.23363281 16.64916016 8.23363281 16.64916016 7.125 17.5625 C6.40570313 18.16191406 5.68640625 18.76132812 4.9453125 19.37890625 C3.98238281 20.18134766 3.98238281 20.18134766 3 21 C2.34 21.66 1.68 22.32 1 23 C-3.06676846 23.16267074 -5.00251573 22.75239793 -8.2734375 20.28515625 C-12.39649723 16.40079997 -12.39649723 16.40079997 -14 14 C-14.03752252 10.90439242 -12.82806992 9.79664184 -10.8203125 7.421875 C-9.93085938 6.54015625 -9.04140625 5.6584375 -8.125 4.75 C-7.24070313 3.85796875 -6.35640625 2.9659375 -5.4453125 2.046875 C-3 0 -3 0 0 0 Z " fill="#FFFFFF" transform="translate(147,45)"/>
<path d="M0 0 C6.60070143 3.6003826 12.82710595 7.71163941 19 12 C19.73347656 12.495 20.46695312 12.99 21.22265625 13.5 C26.36304048 17.34164596 27.91136517 21.7705896 29 28 C29.1875 31.625 29.1875 31.625 29 34 C28.34 34 27.68 34 27 34 C25.84375 32.41796875 25.84375 32.41796875 24.5 30.1875 C21.28998256 25.19588365 17.50229662 20.98338689 13.46484375 16.6484375 C11.30172533 14.32419933 9.20093814 11.96433811 7.125 9.5625 C5.32509516 7.48175894 3.53706216 5.54893236 1.5625 3.625 C0 2 0 2 0 0 Z " fill="#FFFFFF" transform="translate(6,144)"/>
<path d="M0 0 C0.99 0.33 1.98 0.66 3 1 C2.5875 1.38929688 2.175 1.77859375 1.75 2.1796875 C-2.71347229 6.50367628 -6.54557839 11.10821827 -10.30078125 16.05859375 C-11.14189453 17.01958984 -11.14189453 17.01958984 -12 18 C-12.66 18 -13.32 18 -14 18 C-14.2475 18.54140625 -14.495 19.0828125 -14.75 19.640625 C-16.27988604 22.5282849 -18.09150997 25.09776018 -20 27.75 C-20.70125 28.73484375 -21.4025 29.7196875 -22.125 30.734375 C-23.053125 31.85585937 -23.053125 31.85585937 -24 33 C-24.66 33 -25.32 33 -26 33 C-25.75433248 30.29765731 -25.42812856 27.67580352 -25 25 C-24.896875 24.2678125 -24.79375 23.535625 -24.6875 22.78125 C-22.87227171 14.72617446 -16.55488992 11.31861104 -10 7 C-9.09121094 6.38511719 -8.18242187 5.77023438 -7.24609375 5.13671875 C-5.72019259 4.11047062 -4.18729861 3.09446397 -2.64453125 2.09375 C-1.03650092 1.10223152 -1.03650092 1.10223152 0 0 Z " fill="#FFFFFF" transform="translate(281,145)"/>
<path d="M0 0 C0.66 0 1.32 0 2 0 C1.6533867 2.19217711 1.27121858 4.37874358 0.875 6.5625 C0.66617188 7.78066406 0.45734375 8.99882813 0.2421875 10.25390625 C-2.62400327 18.89754445 -9.35676224 22.92542508 -16.875 27.4375 C-17.75414062 27.97826172 -18.63328125 28.51902344 -19.5390625 29.07617188 C-21.68642241 30.39493095 -23.83980537 31.70241196 -26 33 C-26 30 -26 30 -23.91015625 27.6875 C-22.97042969 26.800625 -22.03070312 25.91375 -21.0625 25 C-13.59541631 17.79152707 -7.16152324 9.85071253 -1.19140625 1.36328125 C-0.79824219 0.91339844 -0.40507813 0.46351562 0 0 Z " fill="#FFFFFF" transform="translate(34,92)"/>
<path d="M0 0 C3.22558921 3.14173507 6.15503552 6.33768872 8.9375 9.875 C13.50029555 15.54369346 18.42716537 20.81249212 23.47827148 26.04833984 C24.35721069 26.96993896 24.35721069 26.96993896 25.25390625 27.91015625 C25.78314697 28.45808838 26.3123877 29.00602051 26.85766602 29.57055664 C28 31 28 31 28 33 C23.40175051 30.79193609 19.2494934 27.99447368 15 25.1875 C14.19304687 24.66607422 13.38609375 24.14464844 12.5546875 23.60742188 C3.25699227 17.46265795 3.25699227 17.46265795 1.171875 11.71875 C1.03265625 10.9865625 0.8934375 10.254375 0.75 9.5 C0.60304687 8.72785156 0.45609375 7.95570312 0.3046875 7.16015625 C-0.03558207 4.74773225 -0.15694852 2.43270206 0 0 Z " fill="#FFFFFF" transform="translate(255,92)"/>
<path d="M0 0 C0.99 0.33 1.98 0.66 3 1 C3 3.97 3 6.94 3 10 C-0.3 9.67 -3.6 9.34 -7 9 C-5.04783565 5.09567131 -3.12613393 2.96160056 0 0 Z " fill="#FFFFFF" transform="translate(133,68)"/>
<path d="M0 0 C3.81936528 1.55603771 6.26044438 3.95604931 9 7 C9 7.66 9 8.32 9 9 C5.7 9 2.4 9 -1 9 C-1.09765625 2.84765625 -1.09765625 2.84765625 -1 1 C-0.67 0.67 -0.34 0.34 0 0 Z " fill="#FFFFFF" transform="translate(155,68)"/>
</svg>
