<?xml version="1.0" encoding="UTF-8"?>
<!-- Generator: visioncortex VTracer 0.6.4 -->
<svg version="1.1" xmlns="http://www.w3.org/2000/svg" width="287" height="290">
<path d="M0 0 C0.33 0 0.66 0 1 0 C2.27561592 15.84598442 -0.37299436 37.29264659 -9 51 C-12.76984262 55.40268624 -16.78855345 57.76238751 -21.875 60.3125 C-22.67075439 60.72201904 -23.46650879 61.13153809 -24.28637695 61.5534668 C-26.11637902 62.49418871 -27.94866733 63.43047099 -29.78271484 64.36328125 C-35.56814376 67.30648321 -41.34019148 70.27567206 -47.1116333 73.2461853 C-49.15118353 74.29384524 -51.19331098 75.33633555 -53.23583984 76.37817383 C-55.75526798 77.66468782 -58.26169592 78.97214068 -60.75927734 80.30053711 C-62.65461024 81.29446602 -64.57039295 82.25366112 -66.52587891 83.12329102 C-71.30059304 85.46820618 -72.77457149 88.10438492 -74.6875 93.05078125 C-75.48282026 95.46341943 -76.25258513 97.88459385 -77 100.3125 C-77.83556862 102.85831585 -78.69409306 105.39614395 -79.5546875 107.93359375 C-79.96686523 109.15546387 -80.37904297 110.37733398 -80.80371094 111.63623047 C-83.22534007 118.44545621 -86.49687535 124.69721792 -90 131 C-90.65340423 132.22730058 -91.30573767 133.4551718 -91.95703125 134.68359375 C-97.86824074 145.63504095 -105.57892019 154.58505332 -113.95703125 163.7109375 C-116.06531115 166.07317846 -118.04338186 168.5113576 -120 171 C-120.99 170.67 -121.98 170.34 -123 170 C-122.52691406 169.40316406 -122.05382812 168.80632812 -121.56640625 168.19140625 C-107.96241036 150.34444868 -100.17525332 129.69601347 -95.625 107.8125 C-95.45105713 107.00578857 -95.27711426 106.19907715 -95.09790039 105.36791992 C-94.25657133 101.02315247 -93.96801226 97.20665229 -94.375 92.79296875 C-94.7483346 87.04000478 -94.91947055 82.13584239 -92 77 C-84.8440484 70.14502834 -76.14705965 65.29334327 -67.5980835 60.38568115 C-61.51465257 56.84709415 -56.31610701 52.61404162 -51 48 C-49.25429813 46.57804029 -47.50475319 45.16077485 -45.75 43.75 C-43.82975344 42.17101023 -41.91334333 40.58734774 -40 39 C-39.46455566 38.55769043 -38.92911133 38.11538086 -38.37744141 37.65966797 C-29.98034414 30.68417397 -22.09769675 23.27817548 -14.375 15.5625 C-13.52172119 14.71002686 -12.66844238 13.85755371 -11.78930664 12.97924805 C-8.39022282 9.54972164 -5.03577499 6.14150289 -1.9765625 2.40234375 C-1.32429688 1.60957031 -0.67203125 0.81679688 0 0 Z " fill="#FFFFFF" transform="translate(286,60)"/>
<path d="M0 0 C0.66 0 1.32 0 2 0 C3.26313837 1.45414954 4.45780319 2.96777252 5.625 4.5 C9.81158197 9.7383165 14.31464606 14.51648336 19.0625 19.25 C19.72266113 19.91064453 20.38282227 20.57128906 21.06298828 21.25195312 C25.55193555 25.69311016 30.21180608 29.88538396 35 34 C36.1292868 34.98524106 37.25821082 35.97089816 38.38671875 36.95703125 C48.99529703 46.16235004 59.93139754 54.65754555 71.5 62.625 C72.30896729 63.18856201 73.11793457 63.75212402 73.95141602 64.33276367 C77.56569989 66.81546074 81.0971409 69.14052044 85.0703125 71.0078125 C88.61982828 72.74746529 91.26579205 74.13938175 94 77 C95.23309912 81.99086238 95.13234995 86.63062303 94.99121094 91.73876953 C95.00528111 95.35871126 95.58488562 98.82453031 96.25 102.375 C96.37930908 103.06891846 96.50861816 103.76283691 96.6418457 104.4777832 C101.05933992 127.07247681 108.42294255 150.70904257 123 169 C123.66 169.33 124.32 169.66 125 170 C125 170.66 125 171.32 125 172 C109.12959672 164.96612416 97.50816632 142.80464264 90 128 C89.61859863 127.25492187 89.23719727 126.50984375 88.84423828 125.7421875 C76.57752756 101.54262293 76.57752756 101.54262293 74.69116211 88.93603516 C73.71792221 86.20986333 72.38058841 85.70589932 69.84765625 84.36328125 C68.48894409 83.63334961 68.48894409 83.63334961 67.1027832 82.88867188 C66.09948975 82.36853516 65.09619629 81.84839844 64.0625 81.3125 C63.02375732 80.76013672 61.98501465 80.20777344 60.91479492 79.63867188 C54.33291715 76.16905135 47.68686242 72.83696074 41.015625 69.54296875 C40.25354233 69.16578201 39.49145966 68.78859528 38.70628357 68.39997864 C34.91658998 66.5258387 31.12149818 64.66459242 27.31469727 62.82543945 C25.90367332 62.13390225 24.49277871 61.44210107 23.08203125 60.75 C22.44021912 60.44519211 21.79840698 60.14038422 21.137146 59.82633972 C13.84216969 56.21943871 9.96678275 51.35604069 7 44 C5.97721207 40.94901693 5.15060312 37.87209621 4.375 34.75 C4.16335205 33.9151709 3.9517041 33.0803418 3.73364258 32.22021484 C1.02558381 21.33535522 -0.326561 11.24821218 0 0 Z " fill="#FFFFFF" transform="translate(0,60)"/>
<path d="M0 0 C0.804375 -0.00128906 1.60875 -0.00257812 2.4375 -0.00390625 C3.283125 -0.00003906 4.12875 0.00382812 5 0.0078125 C6.2684375 0.00201172 6.2684375 0.00201172 7.5625 -0.00390625 C8.366875 -0.00261719 9.17125 -0.00132813 10 0 C10.7425 0.00112793 11.485 0.00225586 12.25 0.00341797 C14 0.1328125 14 0.1328125 15 1.1328125 C15.11587992 2.85150755 15.16187229 4.57494663 15.18081665 6.29743958 C15.20238831 7.97735489 15.20238831 7.97735489 15.22439575 9.69120789 C15.23493988 10.93110977 15.24548401 12.17101166 15.25634766 13.44848633 C15.27095032 14.74608887 15.28555298 16.04369141 15.30059814 17.38061523 C15.4312697 29.38611765 15.49683375 41.39256662 15.54844093 53.39864063 C15.58725916 62.26753562 15.65541865 71.13515102 15.76298869 80.00348455 C15.83611071 86.24395916 15.874319 92.48408653 15.88746679 98.72497195 C15.89629457 102.4483876 15.92022892 106.17022439 15.98213577 109.8931675 C16.05064053 114.06083699 16.04684182 118.22557573 16.03759766 122.39379883 C16.06838409 123.61143417 16.09917053 124.82906952 16.13088989 126.08360291 C16.02622375 134.8022472 13.50593842 139.38430922 8.22524071 145.9908247 C6 148.1328125 6 148.1328125 3 148.1328125 C-2.44441436 143.69075435 -5.99659511 138.40800618 -6.74707031 131.38525391 C-7.05519617 125.4018456 -6.82547171 119.42897263 -6.625 113.4453125 C-6.58145902 111.1482725 -6.54245703 108.85114279 -6.50756836 106.55395508 C-6.43445763 102.0861335 -6.34610327 97.61920406 -6.23798275 93.15209103 C-5.99968351 83.2339231 -5.88998216 73.31614023 -5.80218506 63.39561653 C-5.76094198 58.74378387 -5.71611739 54.09198578 -5.67138672 49.44018555 C-5.66254833 48.52101317 -5.65370995 47.6018408 -5.64460373 46.65481472 C-5.55688878 37.61270225 -5.46595753 28.57067544 -5.34768867 19.52890396 C-5.32692851 17.88433066 -5.30793402 16.23973407 -5.29075432 14.59511948 C-5.26689963 12.33830956 -5.23694393 10.08166368 -5.20532227 7.82495117 C-5.18977798 6.55109055 -5.1742337 5.27722992 -5.15821838 3.96476746 C-4.91861989 -0.32381221 -3.90869396 0.00593769 0 0 Z " fill="#FFFFFF" transform="translate(139,99.8671875)"/>
<path d="M0 0 C4.30865605 0.92798208 7.72953893 3.04950359 11.5 5.25 C21.9331239 11.20768265 32.80702068 16.13618233 43.7265625 21.1171875 C44.81388672 21.62515869 45.90121094 22.13312988 47.02148438 22.65649414 C49.88367433 23.9971579 49.88367433 23.9971579 52.46289062 24.87280273 C55.78984823 26.14045375 57.50693242 27.10685313 59.25830078 30.27929688 C60.408239 33.2583244 61.34457209 36.25042354 62.25 39.3125 C73.24926483 72.70511505 93.33056142 100.57793416 122 121 C121.505 122.485 121.505 122.485 121 124 C104.3239401 113.38247084 87.89212498 102.55291232 72.95703125 89.5546875 C70.10534634 87.09101256 67.19324048 84.72796404 64.25 82.375 C59.92755981 78.86184106 56.00156091 75.11223377 52.12109375 71.12109375 C50.11376203 69.11376203 48.04083713 67.27077096 45.875 65.4375 C42.48688973 62.53244704 39.61142138 59.38614057 36.73046875 55.984375 C34.9814776 53.97875986 33.14910652 52.11327433 31.25 50.25 C28.92552928 47.96731752 26.83949796 45.70514406 25 43 C25.33 42.34 25.66 41.68 26 41 C27.50626953 41.39832031 27.50626953 41.39832031 29.04296875 41.8046875 C37.66399306 44.04462948 46.15658476 45.84914459 55 47 C55 46.34 55 45.68 55 45 C50.01424861 43.6056797 45.03003346 42.22923227 39.98828125 41.05078125 C26.52653816 37.89111851 18.59005009 34.80272255 10.9609375 22.7890625 C6.58418261 15.48356321 3.03491534 7.96665277 0 0 Z " fill="#FFFFFF" transform="translate(12,121)"/>
<path d="M0 0 C-3.40874636 11.65753588 -10.91768205 28.60709447 -21.2421875 35.49609375 C-27.66573134 38.78596347 -34.59058854 40.21921671 -41.63012695 41.56958008 C-46.18492624 42.46341026 -49.90519899 43.6954538 -54 46 C-54 46.33 -54 46.66 -54 47 C-50.29033024 46.38276989 -46.58254849 45.75483655 -42.875 45.125 C-41.82828125 44.95097656 -40.7815625 44.77695313 -39.703125 44.59765625 C-34.64454333 43.73321508 -29.81294128 42.84856914 -25 41 C-25 44 -25 44 -27.0859375 46.2421875 C-27.54452148 46.67370117 -28.00310547 47.10521484 -28.47558594 47.54980469 C-30.10900178 49.10369484 -31.63593407 50.72541641 -33.1640625 52.3828125 C-33.72335449 52.98738281 -34.28264648 53.59195313 -34.85888672 54.21484375 C-35.4417041 54.84519531 -36.02452148 55.47554687 -36.625 56.125 C-45.03632524 65.17143451 -53.55893704 74.01401126 -63 82 C-63.88429687 82.7734375 -64.76859375 83.546875 -65.6796875 84.34375 C-80.84910967 97.53347192 -97.15650989 109.09532711 -114.14086914 119.81762695 C-115.77462051 120.85666279 -117.38901246 121.92600831 -119 123 C-119.99 122.67 -120.98 122.34 -122 122 C-116.40379797 116.92887372 -110.68747745 112.06858194 -104.7734375 107.37109375 C-98.61784293 102.10849389 -93.43692417 96.32977783 -88.5625 89.875 C-87.99829346 89.12927734 -87.43408691 88.38355469 -86.8527832 87.61523438 C-75.42594349 72.33361633 -60.65279222 49.54907408 -58.80834961 29.96508789 C-57.47058898 26.71300836 -54.81960875 26.06537909 -51.71875 24.609375 C-51.07752701 24.30351471 -50.43630402 23.99765442 -49.77565002 23.68252563 C-47.6898494 22.6915201 -45.59523904 21.72086773 -43.5 20.75 C-42.07155036 20.07507042 -40.64373397 19.39879899 -39.21655273 18.72119141 C-35.15257751 16.79634789 -31.07814673 14.89459895 -27 13 C-26.00887207 12.53883789 -25.01774414 12.07767578 -23.99658203 11.60253906 C-23.15337402 11.2103418 -22.31016602 10.81814453 -21.44140625 10.4140625 C-19.98174573 9.73442892 -18.52210772 9.05474697 -17.0625 8.375 C-16.40435303 8.07045898 -15.74620605 7.76591797 -15.06811523 7.45214844 C-10.74991773 5.42957883 -4.61061196 0 0 0 Z " fill="#FFFFFF" transform="translate(275,121)"/>
<path d="M0 0 C0.66 0 1.32 0 2 0 C2.17128418 0.60996826 2.34256836 1.21993652 2.51904297 1.84838867 C3.30154704 4.62889351 4.08823266 7.40819863 4.875 10.1875 C5.14441406 11.14720703 5.41382813 12.10691406 5.69140625 13.09570312 C6.08779297 14.49272461 6.08779297 14.49272461 6.4921875 15.91796875 C6.73308105 16.77156982 6.97397461 17.6251709 7.22216797 18.50463867 C7.97599332 21.0516237 7.97599332 21.0516237 9.08642578 23.6418457 C10.09733706 26.25125032 10.15849564 28.22632638 10 31 C10.53625 31.14695312 11.0725 31.29390625 11.625 31.4453125 C19.92834761 33.82159948 27.94236411 36.91090634 36 40 C36 40.66 36 41.32 36 42 C35.29915283 42.20979492 34.59830566 42.41958984 33.8762207 42.63574219 C20.43183507 46.21122095 20.43183507 46.21122095 9.43359375 53.953125 C8.25548399 56.98588279 7.64016561 59.81478575 7 63 C5.77065474 66.04957746 4.40516615 69.02785068 3 72 C4.19544434 71.9685791 4.19544434 71.9685791 5.41503906 71.93652344 C9.02656434 71.85336678 12.63788824 71.80133966 16.25 71.75 C17.50425781 71.71648437 18.75851563 71.68296875 20.05078125 71.6484375 C21.25605469 71.63554688 22.46132812 71.62265625 23.703125 71.609375 C24.81333008 71.58842773 25.92353516 71.56748047 27.06738281 71.54589844 C30.66215968 72.10253222 31.85135048 73.11188873 34 76 C33.7 80.3 33.7 80.3 32 82 C30.03630847 82.0940067 28.06920801 82.11743381 26.10327148 82.11352539 C24.84203964 82.11344986 23.5808078 82.11337433 22.28135681 82.11329651 C20.89460206 82.1081891 19.50784771 82.10297309 18.12109375 82.09765625 C16.71004791 82.09579201 15.29900143 82.09436814 13.88795471 82.09336853 C10.16759465 82.08954379 6.4472734 82.0797139 2.72692871 82.06866455 C-1.06680781 82.05844948 -4.86055058 82.05387071 -8.65429688 82.04882812 C-16.10288231 82.03809158 -23.55143572 82.0210157 -31 82 C-32.078125 80.16796875 -32.078125 80.16796875 -33 78 C-31.67172689 75.14421282 -30.85356058 73.42678029 -28 72 C-26.04225931 71.84621148 -24.07982648 71.75028537 -22.1171875 71.68359375 C-20.95058594 71.64169922 -19.78398438 71.59980469 -18.58203125 71.55664062 C-17.35871094 71.51732422 -16.13539062 71.47800781 -14.875 71.4375 C-13.64394531 71.39431641 -12.41289062 71.35113281 -11.14453125 71.30664062 C-8.09647147 71.20031296 -5.0483281 71.09828219 -2 71 C-2.40992188 69.97519531 -2.81984375 68.95039062 -3.2421875 67.89453125 C-4.32552083 65.18619792 -5.40885417 62.47786458 -6.4921875 59.76953125 C-6.89727539 58.79681274 -6.89727539 58.79681274 -7.31054688 57.80444336 C-8 56 -8 56 -8.5859375 53.2421875 C-11.05956368 49.31991837 -15.48045102 48.6399306 -19.75 47.3125 C-20.64460938 47.01794922 -21.53921875 46.72339844 -22.4609375 46.41992188 C-24.96901262 45.59684413 -27.48363142 44.7972705 -30 44 C-32.00107094 43.33655481 -34.00166041 42.67162738 -36 42 C-36 41.34 -36 40.68 -36 40 C-31.87685942 38.49485354 -27.75119298 36.99675628 -23.625 35.5 C-22.449375 35.07074219 -21.27375 34.64148437 -20.0625 34.19921875 C-18.94101563 33.79316406 -17.81953125 33.38710938 -16.6640625 32.96875 C-15.62717285 32.59169922 -14.5902832 32.21464844 -13.52197266 31.82617188 C-11 31 -11 31 -9 31 C-8.80966187 29.70231689 -8.80966187 29.70231689 -8.61547852 28.37841797 C-8.01977858 25.10856643 -7.1780899 22.10395937 -6.15234375 18.9453125 C-5.79462891 17.83671875 -5.43691406 16.728125 -5.06835938 15.5859375 C-4.69517578 14.44382812 -4.32199219 13.30171875 -3.9375 12.125 C-3.56044922 10.9596875 -3.18339844 9.794375 -2.79492188 8.59375 C-1.86705064 5.72791984 -0.935297 2.86341352 0 0 Z " fill="#FFFFFF" transform="translate(143,0)"/>
<path d="M0 0 C3.96 0 7.92 0 12 0 C12 41.58 12 83.16 12 126 C6.84586623 124.28195541 4.45976888 119.47904129 1.95803833 114.881073 C-2.3499805 105.50925937 -1.08374224 94.5358152 -0.87890625 84.47265625 C-0.86208861 82.02789164 -0.84929239 79.58309638 -0.84031677 77.13829041 C-0.8062018 70.75072237 -0.71801143 64.36504084 -0.61798096 57.97821045 C-0.52537224 51.44211334 -0.48469376 44.90570684 -0.43945312 38.36914062 C-0.34336981 25.5786051 -0.19007121 12.78946034 0 0 Z " fill="#FFFFFF" transform="translate(116,100)"/>
<path d="M0 0 C0.13192965 10.96341743 0.26241223 21.92685109 0.39115143 32.89030647 C0.45100212 37.98352004 0.51131298 43.07672722 0.57275391 48.16992188 C0.63225981 53.10422348 0.69045466 58.0385391 0.74781799 62.97286606 C0.76969174 64.83588059 0.79200287 66.69889005 0.81480408 68.56189346 C0.86821034 72.93661975 0.91489054 77.31115561 0.9465332 81.68609619 C0.97538939 85.44035442 1.0508231 89.19111865 1.14526367 92.9442749 C1.17989047 94.91189952 1.21416102 96.87953045 1.24804688 98.84716797 C1.27864449 99.75080645 1.3092421 100.65444492 1.34076691 101.58546638 C1.44881764 110.07054015 -1.40022393 115.56230123 -7 122 C-8.3270933 123.33954429 -9.65949601 124.67387609 -11 126 C-11.13074651 110.73560865 -11.26115113 95.4712144 -11.39115143 80.20681667 C-11.45152396 73.1189148 -11.51200735 66.03101391 -11.57275391 58.94311523 C-11.6313798 52.10261829 -11.68969387 45.26211874 -11.74781799 38.42161751 C-11.77004168 35.81215387 -11.79236976 33.20269113 -11.81480408 30.59322929 C-11.84621368 26.93772482 -11.87725173 23.28221736 -11.90820312 19.62670898 C-11.91755386 18.54848877 -11.9269046 17.47026855 -11.9365387 16.359375 C-11.97951215 11.23936202 -12.01059236 6.12019338 -12 1 C-7.94150823 0.01612321 -4.16468745 -0.03924323 0 0 Z " fill="#FFFFFF" transform="translate(171,100)"/>
<path d="M0 0 C0.63671631 0.41612549 1.27343262 0.83225098 1.92944336 1.26098633 C9.31841912 6.03304697 16.83977 10.47785502 24.5625 14.6875 C25.42959595 15.19108032 25.42959595 15.19108032 26.31420898 15.70483398 C33.08620919 19.82556694 33.08620919 19.82556694 40.70776367 20.68969727 C43.33624515 19.68341138 45.59518019 18.45948193 48 17 C49.70072497 16.12416677 51.40256436 15.25049441 53.10546875 14.37890625 C54.80278736 13.44609856 56.49680591 12.50726142 58.1875 11.5625 C59.03763672 11.09779297 59.88777344 10.63308594 60.76367188 10.15429688 C64.66043832 7.99678217 68.39563225 5.78992598 71.98828125 3.15234375 C75 1 75 1 77 1 C75.62407725 3.93656066 74.03314363 6.4584615 72.09375 9.0546875 C71.51971436 9.8271582 70.94567871 10.59962891 70.35424805 11.39550781 C69.74234619 12.21374023 69.13044434 13.03197266 68.5 13.875 C67.22466371 15.59591212 65.94992772 17.31726926 64.67578125 19.0390625 C64.04881348 19.88500977 63.4218457 20.73095703 62.77587891 21.60253906 C54.43405311 32.86411856 46.0644159 44.30262922 40 57 C35.89199456 55.63066485 35.56715285 53.79375163 33.5625 50 C24.97494511 34.2913079 13.62505187 19.76395229 2.3125 5.9375 C0.94444356 3.91798811 0.52388245 2.35502298 0 0 Z " fill="#FFFFFF" transform="translate(105,233)"/>
<path d="M0 0 C1.23468018 -0.00953201 2.46936035 -0.01906403 3.74145508 -0.02888489 C5.09456409 -0.02862349 6.44767312 -0.02768661 7.80078125 -0.02612305 C9.18318817 -0.03000838 10.56559389 -0.03434272 11.94799805 -0.03910828 C14.84655628 -0.04657513 17.74499273 -0.04627566 20.64355469 -0.04101562 C24.36298105 -0.03521642 28.08191017 -0.05215997 31.80125427 -0.0753603 C34.65623909 -0.09007154 37.51110338 -0.09097302 40.36611938 -0.08785057 C41.7376911 -0.08836498 43.10926936 -0.09362507 44.48080444 -0.10366249 C46.3960187 -0.11595937 48.31133314 -0.10731832 50.2265625 -0.09765625 C51.31751221 -0.09828568 52.40846191 -0.0989151 53.5324707 -0.0995636 C54.38413818 0.0239296 55.23580566 0.14742279 56.11328125 0.2746582 C58.11328125 3.2746582 58.11328125 3.2746582 57.86328125 5.8371582 C57.11328125 8.2746582 57.11328125 8.2746582 55.11328125 10.2746582 C52.61512756 10.52862549 52.61512756 10.52862549 49.42602539 10.53344727 C48.23461441 10.53975159 47.04320343 10.54605591 45.81568909 10.55255127 C44.52299606 10.54850281 43.23030304 10.54445435 41.8984375 10.5402832 C40.56326731 10.54163013 39.22809759 10.54357089 37.89292908 10.54608154 C35.09271583 10.54903254 32.29263008 10.54473674 29.49243164 10.53540039 C25.90322985 10.52401675 22.31432751 10.53055835 18.72513676 10.54254532 C15.96705369 10.54977406 13.20904155 10.54747116 10.45095634 10.54228973 C8.4839089 10.54030637 6.51685871 10.54638123 4.54981995 10.55255127 C3.35525681 10.54624695 2.16069366 10.53994263 0.92993164 10.53344727 C-0.64986732 10.53106049 -0.64986732 10.53106049 -2.26158142 10.52862549 C-4.88671875 10.2746582 -4.88671875 10.2746582 -7.88671875 8.2746582 C-8.19921875 5.2746582 -8.19921875 5.2746582 -7.88671875 2.2746582 C-5.18516092 -0.42689962 -3.77878508 0.01595889 0 0 Z " fill="#FFFFFF" transform="translate(118.88671875,85.725341796875)"/>
<path d="M0 0 C-2.2691212 2.2691212 -3.79522397 2.77923333 -6.8125 3.8046875 C-8.28734863 4.30597168 -8.28734863 4.30597168 -9.79199219 4.81738281 C-30.39730852 11.61055103 -50.49163632 15.14079884 -72 18 C-72.33 17.34 -72.66 16.68 -73 16 C-53.78972401 9.68754801 -35.00357883 3.77473857 -15 0.625 C-13.85861572 0.44485352 -12.71723145 0.26470703 -11.54125977 0.07910156 C-10.47576904 -0.07848633 -9.41027832 -0.23607422 -8.3125 -0.3984375 C-7.35988281 -0.53942871 -6.40726562 -0.68041992 -5.42578125 -0.82568359 C-3 -1 -3 -1 0 0 Z " fill="#FFFFFF" transform="translate(107,59)"/>
<path d="M0 0 C24.98757122 2.62577639 48.34064126 8.62857127 72 17 C72 17.66 72 18.32 72 19 C47.03042422 15.55920118 23.64612396 11.02801187 0 2 C0 1.34 0 0.68 0 0 Z " fill="#FFFFFF" transform="translate(180,58)"/>
<path d="M0 0 C0 0.99 0 1.98 0 3 C-22.59434774 7.60043759 -43.9343236 9.92196513 -67 9 C-67 8.34 -67 7.68 -67 7 C-62.87647343 6.17990349 -58.75094556 5.37033077 -54.625 4.5625 C-53.46871094 4.33240234 -52.31242188 4.10230469 -51.12109375 3.86523438 C-39.01458615 1.50549137 -27.17370205 0.78352458 -14.875 0.4375 C-13.42707378 0.39419844 -11.97915698 0.35058094 -10.53125 0.30664062 C-7.02093422 0.20078894 -3.51051087 0.09919761 0 0 Z " fill="#FFFFFF" transform="translate(247,40)"/>
<path d="M0 0 C4.42536097 0.095219 8.85028632 0.20162578 13.27514648 0.31738281 C14.77312306 0.35511603 16.2711733 0.39005313 17.76928711 0.421875 C31.57411013 0.71845394 44.92780703 2.11292973 58.4375 5.125 C59.27603516 5.30675781 60.11457031 5.48851562 60.97851562 5.67578125 C62.9868382 6.11187415 64.99361102 6.55509566 67 7 C67 7.66 67 8.32 67 9 C44.2355961 9.90390119 23.27036556 7.69375418 1 3 C0.67 2.01 0.34 1.02 0 0 Z " fill="#FFFFFF" transform="translate(39,40)"/>
<path d="M0 0 C-6.76961831 7.07049024 -14.28688418 10.98125846 -23.01513672 15.05957031 C-26.00240358 16.47493955 -28.9334344 17.9920494 -31.875 19.5 C-36.75531915 22 -36.75531915 22 -39 22 C-39 21.34 -39 20.68 -39 20 C-37.25963506 18.69921177 -35.45418109 17.48511105 -33.625 16.3125 C-29.60063866 13.70376695 -25.63979117 11.05525438 -21.75 8.25 C-6.80100464 -2.26700155 -6.80100464 -2.26700155 0 0 Z " fill="#FFFFFF" transform="translate(108,70)"/>
<path d="M0 0 C13.56371597 0.61653254 24.94849317 11.00453707 35.31103516 18.78833008 C36.9929479 20.06230674 36.9929479 20.06230674 39 21 C39 21.66 39 22.32 39 23 C34.14462254 21.52227643 29.75959512 19.53582564 25.25 17.25 C24.54770264 16.89583008 23.84540527 16.54166016 23.12182617 16.17675781 C15.65405814 12.37211569 8.43010674 8.42540256 2 3 C1.34 2.67 0.68 2.34 0 2 C0 1.34 0 0.68 0 0 Z " fill="#FFFFFF" transform="translate(179,69)"/>
<path d="M0 0 C0 0.99 0 1.98 0 3 C-2.27266339 4.93430902 -4.50652794 6.66142534 -6.9375 8.375 C-7.62465088 8.86597168 -8.31180176 9.35694336 -9.01977539 9.86279297 C-22.6453988 19.48974903 -22.6453988 19.48974903 -32 20 C-30.20321213 14.6096364 -25.02864447 12.09250957 -20.1875 9.48535156 C-17.14420808 7.98649066 -14.08123398 6.54414156 -11 5.125 C-9.93910156 4.62742187 -8.87820312 4.12984375 -7.78515625 3.6171875 C-5.19380833 2.40322271 -2.59886898 1.1977563 0 0 Z " fill="#FFFFFF" transform="translate(211,14)"/>
<path d="M0 0 C6.25513895 1.88948715 11.93906035 4.27847928 17.6875 7.375 C18.40744141 7.74882812 19.12738281 8.12265625 19.86914062 8.5078125 C24.38841219 10.91369636 28.26480181 13.48244328 32 17 C32 17.66 32 18.32 32 19 C23.54040126 18.10082356 17.85433284 14.87566493 11 10 C9.96359375 9.28457031 8.9271875 8.56914062 7.859375 7.83203125 C2.1828283 3.83661569 2.1828283 3.83661569 0 2 C0 1.34 0 0.68 0 0 Z " fill="#FFFFFF" transform="translate(76,15)"/>
<path d="M0 0 C-1.33704445 5.48188225 -3.83501657 9.27689968 -8 13 C-10.31889847 14.31977388 -12.4567297 15.1352881 -15 16 C-13.69523126 10.70326024 -11.57148314 8.19290496 -7.5 4.625 C-6.5203125 3.75101563 -5.540625 2.87703125 -4.53125 1.9765625 C-2 0 -2 0 0 0 Z " fill="#FFFFFF" transform="translate(178,10)"/>
<path d="M0 0 C12.81707282 7.87454147 12.81707282 7.87454147 14.625 14.1796875 C14.74875 14.78039063 14.8725 15.38109375 15 16 C7.54030125 13.12081803 3.88368385 8.96635791 0 2 C0 1.34 0 0.68 0 0 Z " fill="#FFFFFF" transform="translate(109,10)"/>
</svg>
