<?xml version="1.0" encoding="UTF-8"?>
<!-- Generator: visioncortex VTracer 0.6.4 -->
<svg version="1.1" xmlns="http://www.w3.org/2000/svg" width="282" height="290">
<path d="M0 0 C1.14662109 0.97453125 1.14662109 0.97453125 2.31640625 1.96875 C5.3815689 4.28881489 7.26793154 4.3906827 11 5 C19.17288054 9.08644027 23.13277764 17.24043748 26.171875 25.5078125 C28.93417764 33.82077987 28.93417764 33.82077987 29 37 C27.125 39.0625 27.125 39.0625 25 41 C23.70271653 49.36027127 27.45620682 55.33862122 32.125 62.05859375 C34.36246972 65.08598099 36.65814164 68.05284848 39 71 C39.52722656 71.68320313 40.05445313 72.36640625 40.59765625 73.0703125 C46.39298152 80.27007593 53.6439968 85.20181673 62 89 C58.70814323 85.61307156 55.32308177 82.56015373 51.625 79.625 C41.55291223 71.39274693 32.88203564 61.76407128 27 50 C26.42528736 42.75862069 26.42528736 42.75862069 28.5625 39.9375 C32.2158562 38.532363 34.22882011 38.93149903 38 40 C44.02538595 43.72188966 48.7875194 48.71115682 53.625 53.8125 C64.67042964 65.05610554 76.16284062 71.21072878 90.59301758 77.27319336 C108.21395495 84.79136301 125.08527882 98.16189255 132.93457031 116.140625 C138.05425006 129.23616747 140.26004983 142.28007456 140.4140625 156.328125 C140.43342865 157.44314392 140.4527948 158.55816284 140.4727478 159.70697021 C140.53188347 163.22123896 140.57866186 166.73554165 140.625 170.25 C140.66324067 172.65235697 140.70229581 175.05470113 140.7421875 177.45703125 C140.83752953 183.30457256 140.92276409 189.15219297 141 195 C137.09351647 193.69783882 135.76922614 191.25900988 133.4375 188.0625 C116.43362133 165.62551655 93.60601503 148.43090653 69.9921875 133.48828125 C69.33476563 132.99714844 68.67734375 132.50601563 68 132 C68 131.34 68 130.68 68 130 C69.134375 130.391875 70.26875 130.78375 71.4375 131.1875 C76.16039362 132.75929103 80.91705628 134.20573264 85.6875 135.625 C86.41187256 135.84309326 87.13624512 136.06118652 87.88256836 136.28588867 C91.90407511 137.47237381 95.83756525 138.41004862 100 139 C93.1057888 135.36712224 86.14494308 132.19474689 78.9375 129.25 C62.86745177 122.59772509 47.90988491 114.46584117 34 104 C32.65228516 102.99646484 32.65228516 102.99646484 31.27734375 101.97265625 C20.23960861 92.90915016 2.70095365 72.45335406 0 58 C-0.08626242 56.0754538 -0.11771338 54.14815361 -0.11352539 52.22167969 C-0.11344986 51.0607782 -0.11337433 49.89987671 -0.11329651 48.70379639 C-0.10813522 47.45576233 -0.10297394 46.20772827 -0.09765625 44.921875 C-0.0962413 43.64016418 -0.09482635 42.35845337 -0.09336853 41.03790283 C-0.08955901 37.6381636 -0.07974214 34.2384674 -0.06866455 30.83874512 C-0.05841674 27.366461 -0.0538637 23.8941699 -0.04882812 20.421875 C-0.03811841 13.61456571 -0.02106084 6.80728492 0 0 Z M5 7 C6 9 6 9 6 9 Z M6 12 C4.67734945 37.08137346 8.93940796 62.38439843 25.75 81.6875 C28.32745518 84.51991927 30.45602327 86.50737917 34 88 C33.195625 86.96875 32.39125 85.9375 31.5625 84.875 C28.6717766 81.01612459 25.99507694 77.04482174 23.375 73 C23.00318604 72.4313623 22.63137207 71.86272461 22.24829102 71.27685547 C17.66268596 64.12921536 14.51293407 57.5167869 13 49.125 C12.84047852 48.2887207 12.68095703 47.45244141 12.51660156 46.59082031 C10.38071308 35.11198106 8.69524741 23.55057639 7 12 C6.67 12 6.34 12 6 12 Z " fill="#FEFEFE" transform="translate(0,95)"/>
<path d="M0 0 C0.33 0 0.66 0 1 0 C1.18673834 7.59799543 1.32819372 15.19574825 1.41449738 22.79552746 C1.45595666 26.32602631 1.51202275 29.85493672 1.60351562 33.38452148 C1.70843396 37.4583102 1.7461287 41.53047566 1.78125 45.60546875 C1.82254028 46.8507988 1.86383057 48.09612885 1.90637207 49.37919617 C1.91144645 59.45880872 -1.1882219 65.0497059 -7 73 C-7.56596893 73.81085556 -8.13193787 74.62171112 -8.71505737 75.45713806 C-10.07976401 77.40359222 -11.49323234 79.29948921 -12.9375 81.1875 C-13.44982178 81.86111572 -13.96214355 82.53473145 -14.48999023 83.22875977 C-25.6462345 97.7515474 -38.12313802 108.08450158 -54 117 C-54.97815674 117.556875 -54.97815674 117.556875 -55.97607422 118.125 C-66.37337747 124.00650913 -77.09503913 128.66914734 -88.19921875 133.0546875 C-91.91234782 134.52841438 -95.46725821 136.13696204 -99 138 C-89.48060785 135.95931593 -80.45307806 133.69764946 -71.44140625 129.953125 C-69 129 -69 129 -67 129 C-68.15413628 132.46240884 -68.84379676 132.84455238 -71.796875 134.78515625 C-72.58425049 135.31052979 -73.37162598 135.83590332 -74.18286133 136.37719727 C-75.03001709 136.93334717 -75.87717285 137.48949707 -76.75 138.0625 C-97.67570153 152.10071874 -122.8066046 169.57300125 -135.625 191.8203125 C-136.305625 192.89925781 -136.305625 192.89925781 -137 194 C-137.66 194 -138.32 194 -139 194 C-139.02511494 188.88118835 -139.04305163 183.7624142 -139.05493164 178.64355469 C-139.05989522 176.90982436 -139.06666827 175.17609806 -139.07543945 173.44238281 C-139.226535 142.7610981 -139.226535 142.7610981 -135.875 129.3125 C-135.65473145 128.42240234 -135.43446289 127.53230469 -135.20751953 126.61523438 C-129.91398337 106.49322113 -116.12685078 91.53453521 -98.5625 81 C-93.00771399 77.82284834 -87.24265995 75.38476564 -81.3125 73 C-73.59365418 69.88968274 -67.41575426 66.37348371 -61 61 C-60.38898438 60.525625 -59.77796875 60.05125 -59.1484375 59.5625 C-55.92991083 57.02573021 -53.50075455 54.22678006 -51 51 C-46.18187778 45.76889587 -39.46066798 38.58182626 -32.125 37.625 C-29 38 -29 38 -26.5625 40.0625 C-24.99357037 43.0120877 -24.48596039 44.65715689 -25.21484375 47.93359375 C-28.98254285 57.84957794 -36.76063351 65.51967051 -44 73 C-44.71542969 73.75539063 -45.43085938 74.51078125 -46.16796875 75.2890625 C-50.75074116 80.02733816 -55.70644318 84.0788468 -61 88 C-44.48581937 81.32405464 -32.03197275 66.92971604 -24.375 51 C-23.03043572 47.542549 -22.32286884 44.72422139 -23 41 C-23.680625 40.195625 -24.36125 39.39125 -25.0625 38.5625 C-27 36 -27 36 -27.0625 33 C-24.66265597 21.85786698 -20.2611439 11.80410572 -11 5 C-8.5835203 3.84929538 -6.41316221 3.09443708 -3.8125 2.5 C-1.76715335 2.0962237 -1.76715335 2.0962237 0 0 Z M-5 9 C-5.16081055 10.0422876 -5.32162109 11.0845752 -5.48730469 12.15844727 C-6.09792634 16.10164872 -6.7193668 20.04308713 -7.34375 23.98413086 C-7.61028137 25.67574008 -7.87404784 27.36778775 -8.13476562 29.06030273 C-12.78451691 59.20320965 -12.78451691 59.20320965 -19.9375 69.5 C-20.35451172 70.13679688 -20.77152344 70.77359375 -21.20117188 71.4296875 C-24.02001684 75.69934448 -27.00996433 79.84925282 -30 84 C-27.03079788 84.3268587 -27.03079788 84.3268587 -25.421875 82.63671875 C-7.28768103 61.49428232 -3.6407012 36.14087832 -4 9 C-4.33 9 -4.66 9 -5 9 Z " fill="#FEFEFE" transform="translate(281,96)"/>
<path d="M0 0 C4.81174458 4.80039613 6.80319525 9.53467211 6.96875 16.33984375 C6.87984161 23.04030297 5.72063775 27.552652 0.9609375 32.3671875 C-4.72214419 37.072411 -10.99266717 39.83363887 -18.4375 39.5234375 C-27.27701908 38.30909763 -32.35147377 35.17008982 -38.046875 28.43359375 C-42.1397153 22.81210226 -42.0326506 17.43670663 -41.34375 10.65234375 C-39.61545664 4.42220841 -35.66553938 0.17309087 -30.34375 -3.34765625 C-27.34375 -4.66015625 -27.34375 -4.66015625 -24.34375 -5.34765625 C-23.291875 -5.59515625 -22.24 -5.84265625 -21.15625 -6.09765625 C-13.04686376 -6.62941928 -6.30280567 -5.28247443 0 0 Z " fill="#FEFEFE" transform="translate(158.34375,51.34765625)"/>
<path d="M0 0 C11.12775585 2.17966352 20.21795609 5.81211596 27.53125 14.78125 C30.80388361 19.72501566 32.65683954 25.25864743 34 31 C34.36351562 29.99839844 34.72703125 28.99679688 35.1015625 27.96484375 C39.29027914 16.74088777 42.94760191 9.95680452 53.96484375 4.2890625 C58.82980785 2.22286153 63.82771156 1.02904168 69 0 C69.57968251 9.1299995 67.49840525 15.50011143 61.49194336 22.52075195 C58.87473443 25.11569041 55.7684085 26.86246402 52.625 28.75 C44.99024867 33.56927518 40.81410667 38.91897408 36.453125 46.79296875 C35.97359375 47.52128906 35.4940625 48.24960938 35 49 C34.34 49 33.68 49 33 49 C31.89572571 47.18242421 30.86742136 45.31848467 29.875 43.4375 C25.44033198 35.64711412 20.18352781 31.46366282 12.875 26.5 C5.25389007 21.20853811 1.71930454 16.69439656 -0.65234375 7.6484375 C-1.02347057 4.82120173 -0.71800312 2.7432671 0 0 Z " fill="#FEFEFE" transform="translate(107,141)"/>
<path d="M0 0 C5.70076622 1.90025541 7.69423392 8.28150854 10.25 13.375 C11.1705881 15.24807777 12.08856792 17.12244991 13 19 C13.66 18.01 14.32 17.02 15 16 C15.66 16 16.32 16 17 16 C19.94702357 21.64846184 20.97410198 26.62914909 20 33 C18.5 35.25 18.5 35.25 16 37 C14.60114116 38.03760015 13.20553715 39.0795969 11.8125 40.125 C11.11769531 40.62257812 10.42289063 41.12015625 9.70703125 41.6328125 C7.87212987 42.90694728 7.87212987 42.90694728 7 45 C6.34 45 5.68 45 5 45 C4.95101562 44.28714844 4.90203125 43.57429688 4.8515625 42.83984375 C4.41871477 37.29491509 3.75971184 32.27913551 2 27 C1.34 27 0.68 27 0 27 C-1.40454548 33.11980533 -2.23268915 38.71739294 -2 45 C-5.47064731 43.4467033 -8.22929462 41.3770513 -11.1875 39 C-12.50814453 37.948125 -12.50814453 37.948125 -13.85546875 36.875 C-16 35 -16 35 -17 33 C-17.1228777 31.06539059 -17.17554888 29.12597096 -17.1875 27.1875 C-17.20167969 26.14980469 -17.21585937 25.11210937 -17.23046875 24.04296875 C-16.99714427 20.96229467 -16.30118886 18.78238408 -15 16 C-14.34 16 -13.68 16 -13 16 C-12.34 16.99 -11.68 17.98 -11 19 C-10.70867187 18.38253906 -10.41734375 17.76507813 -10.1171875 17.12890625 C-7.18422436 11.06929373 -3.87009643 5.50591039 0 0 Z " fill="#FEFEFE" transform="translate(140,108)"/>
<path d="M0 0 C0.495 2.97 0.495 2.97 1 6 C-26.88260557 16.11069479 -54.36429686 21 -84 21 C-84 20.34 -84 19.68 -84 19 C-44.64262887 5.24003733 -44.64262887 5.24003733 -24 2 C-23.20142578 1.87447754 -22.40285156 1.74895508 -21.58007812 1.61962891 C-14.3596059 0.52741823 -7.3040683 -0.08809732 0 0 Z " fill="#FEFEFE" transform="translate(112,73)"/>
<path d="M0 0 C24.24853628 0.34461744 47.107112 6.39504353 70 14 C71.12954102 14.37495605 72.25908203 14.74991211 73.42285156 15.13623047 C76.2828457 16.08802647 79.14189826 17.04253909 82 18 C82 18.99 82 19.98 82 21 C53.3734912 19.53204148 25.86467938 16.92582654 -1 6 C-0.67 4.02 -0.34 2.04 0 0 Z " fill="#FEFEFE" transform="translate(170,73)"/>
<path d="M0 0 C18.22390777 3.66201456 18.22390777 3.66201456 23 9 C23.83283522 11.18349545 24.47985383 13.39273942 25.14453125 15.6328125 C27.66359879 22.60338295 32.9300577 27.03900441 38.7421875 31.32421875 C41.97403976 33.72294647 44.96802139 36.35508249 48 39 C47.505 39.99 47.505 39.99 47 41 C46.0925 40.525625 45.185 40.05125 44.25 39.5625 C39.07506744 37.30046762 33.57202682 37.26533461 28 37 C28 36.34 28 35.68 28 35 C29.485 34.505 29.485 34.505 31 34 C29.20984719 32.20984719 26.36510051 32.52871418 23.9375 32.25 C14.89033322 30.89391483 9.81948127 27.49357992 4.03125 20.55078125 C3 19 3 19 3 17 C4.32 17 5.64 17 7 17 C6.21625 16.05125 5.4325 15.1025 4.625 14.125 C1.45929019 9.75757599 0.70943064 5.26249294 0 0 Z " fill="#FEFEFE" transform="translate(82,140)"/>
<path d="M0 0 C-0.27182693 5.87146171 -1.28781466 10.31693447 -4.16015625 15.46875 C-5.08014801 16.85505645 -5.08014801 16.85505645 -5 18 C-4.34 18 -3.68 18 -3 18 C-3.49222966 22.26599041 -6.03254905 25.10264631 -9 28 C-14.6158285 32.30148566 -20.13276483 32.82232193 -27.0859375 33.60546875 C-29.88701251 33.68506414 -29.88701251 33.68506414 -31 35 C-29.515 35.495 -29.515 35.495 -28 36 C-28 36.66 -28 37.32 -28 38 C-29.03447266 38.05607422 -29.03447266 38.05607422 -30.08984375 38.11328125 C-36.48646465 38.56078148 -42.03070248 39.65649801 -48 42 C-46.49790982 38.09801861 -44.29413428 36.55482032 -40.875 34.25 C-31.81068635 27.79241708 -26.63765243 22.45371193 -22.51953125 11.953125 C-19.76293803 6.59583843 -15.77433603 4.65302642 -10.27734375 2.87109375 C-9.27380859 2.56365234 -9.27380859 2.56365234 -8.25 2.25 C-7.22326172 1.91935547 -7.22326172 1.91935547 -6.17578125 1.58203125 C-1.21350932 0 -1.21350932 0 0 0 Z " fill="#FEFEFE" transform="translate(200,139)"/>
<path d="M0 0 C25.05483631 0.5736781 48.15729458 3.05243153 72 11 C72 12.32 72 13.64 72 15 C48.28116354 19.31251572 21.48693361 10.87001422 0 1 C0 0.67 0 0.34 0 0 Z " fill="#FEFEFE" transform="translate(40,52)"/>
<path d="M0 0 C-1.46346135 2.92692271 -3.30567374 2.98950232 -6.37109375 4.0234375 C-7.49475342 4.40306641 -8.61841309 4.78269531 -9.77612305 5.17382812 C-10.98437744 5.57021484 -12.19263184 5.96660156 -13.4375 6.375 C-14.66057861 6.77912109 -15.88365723 7.18324219 -17.14379883 7.59960938 C-31.07146488 12.11678919 -45.42916327 16.16399164 -60.1875 16.125 C-61.17105469 16.12757812 -62.15460938 16.13015625 -63.16796875 16.1328125 C-65.88105607 16.00557806 -68.35733657 15.60873052 -71 15 C-71 13.68 -71 12.36 -71 11 C-68.79494288 10.21865623 -66.58652456 9.45017003 -64.375 8.6875 C-63.14523438 8.25824219 -61.91546875 7.82898437 -60.6484375 7.38671875 C-49.93035825 4.01237341 -38.97672159 2.4550308 -27.82128906 1.49194336 C-25.73658804 1.31133807 -23.65355306 1.11659655 -21.5703125 0.91992188 C-14.36867964 0.258802 -7.23435583 -0.20431758 0 0 Z " fill="#FEFEFE" transform="translate(242,52)"/>
<path d="M0 0 C-1.6002062 3.79937227 -4.02842062 6.42802289 -6.8125 9.4375 C-7.66457031 10.36433594 -8.51664063 11.29117188 -9.39453125 12.24609375 C-17.28897424 20.59029511 -25.33174598 28.29031945 -36 33 C-38.25390625 32.84375 -38.25390625 32.84375 -40 32 C-43 27.82142857 -43 27.82142857 -43 25 C-43.66 25 -44.32 25 -45 25 C-45 24.01 -45 23.02 -45 22 C-42.96337158 20.39695664 -41.00788847 19.0409315 -38.8125 17.6875 C-37.85899658 17.08929443 -37.85899658 17.08929443 -36.88623047 16.47900391 C-30.82846336 12.75658041 -24.52957228 9.80365815 -18 7 C-16.56555675 6.36127941 -15.1320063 5.72055108 -13.69921875 5.078125 C-12.23723019 4.42651983 -10.77499373 3.77547055 -9.3125 3.125 C-8.61656738 2.8141748 -7.92063477 2.50334961 -7.20361328 2.18310547 C-2.23077824 0 -2.23077824 0 0 0 Z " fill="#FEFEFE" transform="translate(208,25)"/>
<path d="M0 0 C32.34379059 12.34321337 32.34379059 12.34321337 44 22 C43.32902328 26.19360449 41.1441606 29.40334352 39 33 C23.24368413 30.39263812 10.62200334 15.94414016 1.22265625 3.890625 C0 2 0 2 0 0 Z " fill="#FEFEFE" transform="translate(75,25)"/>
<path d="M0 0 C0.66 0 1.32 0 2 0 C6.86040367 13.02686873 9.71410596 26.03526118 9 40 C6.52076199 40.02685095 4.0418116 40.04676547 1.5625 40.0625 C0.85544922 40.07087891 0.14839844 40.07925781 -0.58007812 40.08789062 C-2.38693559 40.09653588 -4.19387603 40.05220011 -6 40 C-7 39 -7 39 -7.08984375 36.2109375 C-6.5908256 23.64591647 -3.46913939 12.04619464 0 0 Z " fill="#FEFEFE" transform="translate(140,0)"/>
<path d="M0 0 C1 2 1 2 0.43017578 3.8125 C-0.65288371 6.21810562 -1.74569379 8.61565785 -2.875 11 C-3.28121582 11.85980469 -3.68743164 12.71960938 -4.10595703 13.60546875 C-7.50150443 20.51414696 -11.34458826 25.73070071 -17 31 C-18.00222469 31.99777035 -19.00313969 32.99687013 -20 34 C-21.65 33.34 -23.3 32.68 -25 32 C-23.72061023 18.56640744 -9.53977281 8.38073499 0 0 Z " fill="#FEFEFE" transform="translate(179,11)"/>
<path d="M0 0 C0.99 0 1.98 0 3 0 C4.18785851 1.39149139 5.36662037 2.7920315 6.4921875 4.234375 C8.12872917 6.15073985 9.882908 7.69315612 11.8125 9.3125 C17.83012173 14.46394891 24.28220019 20.39016052 27 28 C26.67 28.99 26.34 29.98 26 31 C23.4375 32.1875 23.4375 32.1875 21 33 C11.23055244 24.14405923 5.73630658 14.19305372 1 2 C0.67 1.34 0.34 0.68 0 0 Z " fill="#FEFEFE" transform="translate(102,12)"/>
<path d="M0 0 C0.66 0 1.32 0 2 0 C2.391875 1.11375 2.78375 2.2275 3.1875 3.375 C4.42482967 6.31960666 4.73606497 6.85882545 7.6875 8.4375 C8.450625 8.623125 9.21375 8.80875 10 9 C10 9.99 10 10.98 10 12 C8.02 12.33 6.04 12.66 4 13 C3.855625 13.78375 3.71125 14.5675 3.5625 15.375 C3 18 3 18 2 20 C1.34 20 0.68 20 0 20 C-0.20625 19.071875 -0.4125 18.14375 -0.625 17.1875 C-1.74446192 13.73995905 -1.74446192 13.73995905 -5.125 12.125 C-6.07375 11.75375 -7.0225 11.3825 -8 11 C-8 10.34 -8 9.68 -8 9 C-6.02 8.67 -4.04 8.34 -2 8 C-1.34 5.36 -0.68 2.72 0 0 Z " fill="#FEFEFE" transform="translate(87,110)"/>
<path d="M0 0 C0.66 0 1.32 0 2 0 C2.66 2.31 3.32 4.62 4 7 C4.78375 7.144375 5.5675 7.28875 6.375 7.4375 C9 8 9 8 11 9 C11 9.66 11 10.32 11 11 C8.69 11.33 6.38 11.66 4 12 C3.34 14.31 2.68 16.62 2 19 C1.34 19 0.68 19 0 19 C-0.2784375 17.6078125 -0.2784375 17.6078125 -0.5625 16.1875 C-2.10727559 12.76212803 -2.38621238 12.4794021 -5.625 11.125 C-6.73875 10.75375 -7.8525 10.3825 -9 10 C-8.67 9.34 -8.34 8.68 -8 8 C-6.5459375 7.62875 -6.5459375 7.62875 -5.0625 7.25 C-1.69520182 6.2895788 -1.69520182 6.2895788 -0.625 2.875 C-0.41875 1.92625 -0.2125 0.9775 0 0 Z " fill="#FEFEFE" transform="translate(193,111)"/>
<path d="M0 0 C0.66 1.32 1.32 2.64 2 4 C-11.34831461 15 -11.34831461 15 -17 15 C-15.32015334 9.62449069 -11.87250803 3.74679542 -6.9765625 0.76953125 C-4.55726562 -0.17236892 -2.57336647 -0.1429648 0 0 Z " fill="#FEFEFE" transform="translate(117,84)"/>
<path d="M0 0 C5.3391517 0.418757 8.19479416 1.19479416 12 5 C18 12.21428571 18 12.21428571 18 15 C10.52568154 12.8918589 3.84698511 9.09253542 -2 4 C-1.34 2.68 -0.68 1.36 0 0 Z " fill="#FEFEFE" transform="translate(165,84)"/>
<path d="M0 0 C0.33 0.66 0.66 1.32 1 2 C1.66 2 2.32 2 3 2 C2.34 3.65 1.68 5.3 1 7 C0.34 7 -0.32 7 -1 7 C-1 6.34 -1 5.68 -1 5 C-1.66 5 -2.32 5 -3 5 C-3 4.01 -3 3.02 -3 2 C-2.01 1.34 -1.02 0.68 0 0 Z " fill="#FEFEFE" transform="translate(173,121)"/>
<path d="M0 0 C0.33 1.32 0.66 2.64 1 4 C0.34 4 -0.32 4 -1 4 C-1 4.66 -1 5.32 -1 6 C-1.66 6 -2.32 6 -3 6 C-3.66 4.35 -4.32 2.7 -5 1 C-3 0 -3 0 0 0 Z " fill="#FEFEFE" transform="translate(112,122)"/>
<path d="M0 0 C0.66 0 1.32 0 2 0 C2.33 1.98 2.66 3.96 3 6 C1.68 6 0.36 6 -1 6 C-0.67 4.02 -0.34 2.04 0 0 Z " fill="#FEFEFE" transform="translate(107,107)"/>
</svg>
