<?xml version="1.0" encoding="UTF-8"?>
<!-- Generator: visioncortex VTracer 0.6.4 -->
<svg version="1.1" xmlns="http://www.w3.org/2000/svg" width="278" height="290">
<path d="M0 0 C1.34093911 3.01304132 1.23241551 4.62997505 1 8 C1.86625 7.690625 2.7325 7.38125 3.625 7.0625 C7 7 7 7 8.59375 8.2109375 C14.81722013 15.22821759 17.35142007 21.99120365 18.3125 31.265625 C19.14573183 34.57961522 20.55648859 35.69011812 23 38 C24.89790745 43.13433909 24.24556759 49.08150319 23.5625 54.41796875 C22.44156338 62.60628069 22.44156338 62.60628069 25.9375 69.75 C26.50339844 70.34296875 27.06929687 70.9359375 27.65234375 71.546875 C29 73 29 73 29 75 C31.64 74.34 34.28 73.68 37 73 C36.60753981 80.45674362 32.08619255 86.50674549 27.4375 92.0625 C24.86037597 94.1109832 23.24981496 94.72144443 20 95 C19 92 19 92 19 90 C18.52820313 90.6290625 18.05640625 91.258125 17.5703125 91.90625 C13.39961703 95.30365543 8.59613216 95.19765198 3.37890625 95.77734375 C2.59128906 95.88175781 1.80367188 95.98617187 0.9921875 96.09375 C0.27401855 96.17302734 -0.44415039 96.25230469 -1.18408203 96.33398438 C-3.20916611 96.8625998 -3.20916611 96.8625998 -4.24951172 99.05664062 C-4.49717285 99.69794922 -4.74483398 100.33925781 -5 101 C-3.35 100.34 -1.7 99.68 0 99 C3.37960557 105.75921115 3.92579638 117.14027885 2.19140625 124.37109375 C-0.0538446 128.96651371 -3.03101957 132.78190776 -7 136 C-7.66 136 -8.32 136 -9 136 C-9 130.72 -9 125.44 -9 120 C-11.42863691 122.42863691 -11.61718687 124.50848647 -12.37109375 127.7734375 C-13.80624146 132.85439524 -16.41931823 138.0938017 -20 142 C-20.66 142 -21.32 142 -22 142 C-22.495 133.09 -22.495 133.09 -23 124 C-23.66 124 -24.32 124 -25 124 C-25.16604736 124.62567871 -25.33209473 125.25135742 -25.50317383 125.89599609 C-26.26119672 128.72563271 -27.03660134 131.55021527 -27.8125 134.375 C-28.07353516 135.35984375 -28.33457031 136.3446875 -28.60351562 137.359375 C-28.99506836 138.77089844 -28.99506836 138.77089844 -29.39453125 140.2109375 C-29.63018799 141.08024902 -29.86584473 141.94956055 -30.10864258 142.84521484 C-31 145 -31 145 -34 147 C-34.81694231 144.29293656 -35.62866494 141.58448604 -36.4375 138.875 C-36.66759766 138.11445313 -36.89769531 137.35390625 -37.13476562 136.5703125 C-38.37636362 132.39566417 -39.39875379 128.32620837 -40 124 C-40.99 124 -41.98 124 -43 124 C-43.33 129.94 -43.66 135.88 -44 142 C-48.00056412 140.66647863 -48.32304993 139.08548583 -50.1875 135.375 C-52.50663424 130.57639632 -53.71902629 127.27285946 -53 122 C-53.66 122 -54.32 122 -55 122 C-55.33 121.34 -55.66 120.68 -56 120 C-56.85298376 123.67387495 -57.10789471 127.0447393 -57.0625 130.8125 C-57.05347656 131.78832031 -57.04445312 132.76414063 -57.03515625 133.76953125 C-57.02355469 134.50558594 -57.01195312 135.24164063 -57 136 C-60.63328617 134.54983806 -62.11741577 132.77807683 -64.1875 129.5 C-64.69667969 128.7059375 -65.20585938 127.911875 -65.73046875 127.09375 C-67.75630304 123.75268176 -68.09010998 122.10647305 -67.87890625 118.2109375 C-67.83056641 117.26992187 -67.78222656 116.32890625 -67.73242188 115.359375 C-67.67634766 114.37453125 -67.62027344 113.3896875 -67.5625 112.375 C-67.48418945 110.88613281 -67.48418945 110.88613281 -67.40429688 109.3671875 C-67.27441051 106.91115432 -67.13943836 104.4555064 -67 102 C-66.34 102 -65.68 102 -65 102 C-64.67 101.34 -64.34 100.68 -64 100 C-62.68 100.66 -61.36 101.32 -60 102 C-60.70378621 99.9853943 -60.70378621 99.9853943 -62 98 C-63.91548469 97.16847622 -63.91548469 97.16847622 -66.17578125 96.91015625 C-67.41811523 96.69262695 -67.41811523 96.69262695 -68.68554688 96.47070312 C-70.42481501 96.20043767 -72.16439638 95.93217975 -73.90429688 95.66601562 C-79.56911518 94.6699554 -82.37631824 93.53520583 -86 89 C-86.12375 89.804375 -86.2475 90.60875 -86.375 91.4375 C-86.684375 92.7059375 -86.684375 92.7059375 -87 94 C-87.99 94.495 -87.99 94.495 -89 95 C-95.96204348 90.0271118 -99.57771237 83.79116545 -103 76 C-103 75.01 -103 74.02 -103 73 C-100.03 73.66 -97.06 74.32 -94 75 C-93.67 73.68 -93.34 72.36 -93 71 C-92.31164062 70.31808594 -91.62328125 69.63617188 -90.9140625 68.93359375 C-87.97121731 64.42323306 -88.89500401 60.27731353 -89.375 55.0625 C-90.40335864 42.89091138 -90.40335864 42.89091138 -88 38 C-87.48050781 37.4946875 -86.96101563 36.989375 -86.42578125 36.46875 C-84.34856477 34.32893248 -84.47649992 32.42853251 -84.1875 29.5 C-82.98329254 21.15150288 -79.01768546 13.01768546 -73 7 C-70.75 6.1875 -70.75 6.1875 -69 6 C-69 6.99 -69 7.98 -69 9 C-68.34 8.67 -67.68 8.34 -67 8 C-67 6.948125 -67 5.89625 -67 4.8125 C-65.84434935 0.40658191 -65.22247893 0.04208193 -61.5 -2.25 C-43.65423249 -11.7965946 -16.64428219 -13.05490655 0 0 Z M-3 13 C-3.15855469 13.75023438 -3.31710938 14.50046875 -3.48046875 15.2734375 C-4.95511584 21.74233137 -6.85029334 27.25138299 -10.109375 33.0390625 C-10.55023438 34.00972656 -10.55023438 34.00972656 -11 35 C-10.67 35.66 -10.34 36.32 -10 37 C-6.88935187 32.47833622 -3.85675306 27.91261331 -1.0625 23.1875 C-0.64097656 22.47980469 -0.21945313 21.77210937 0.21484375 21.04296875 C1.17928948 18.53349054 1.07268587 17.44818738 0 15 C-0.99 14.34 -1.98 13.68 -3 13 Z M-64 14 C-65.64555699 15.22809091 -65.64555699 15.22809091 -67 17 C-66.56813397 19.9101242 -65.53651955 22.01487167 -63.93359375 24.453125 C-63.3293457 25.38125 -63.3293457 25.38125 -62.71289062 26.328125 C-62.29201172 26.96234375 -61.87113281 27.5965625 -61.4375 28.25 C-61.01275391 28.8996875 -60.58800781 29.549375 -60.15039062 30.21875 C-59.1052694 31.81578918 -58.05330163 33.4083442 -57 35 C-55.60595408 32.79338586 -55.60595408 32.79338586 -57.14453125 29.41015625 C-57.69261672 27.95792978 -58.24898621 26.50880965 -58.8125 25.0625 C-59.08642578 24.33353516 -59.36035156 23.60457031 -59.64257812 22.85351562 C-60.88956498 19.59101526 -62.04499891 16.93250163 -64 14 Z M-79 52 C-80.46343456 54.92686912 -80.1704426 57.55453613 -80.1875 60.8125 C-80.20167969 62.03582031 -80.21585938 63.25914062 -80.23046875 64.51953125 C-79.90643557 69.41298143 -78.9376577 72.01425729 -75.5625 75.5625 C-68.01811091 81.37149693 -58.18577174 82.78164284 -49 84 C-48.67 82.68 -48.34 81.36 -48 80 C-46.68 80 -45.36 80 -44 80 C-43.505 78.515 -43.505 78.515 -43 77 C-39.9375 75.3125 -39.9375 75.3125 -37 74 C-37.66 73.67 -38.32 73.34 -39 73 C-38.505 71.515 -38.505 71.515 -38 70 C-38.66 69.67 -39.32 69.34 -40 69 C-40.5259375 69.99 -40.5259375 69.99 -41.0625 71 C-43 73 -43 73 -46.2109375 73.39453125 C-50.66010257 72.93126767 -53.14561533 71.36236157 -56.5625 68.6875 C-57.15313232 68.24615723 -57.74376465 67.80481445 -58.35229492 67.35009766 C-60.25160609 65.92054093 -62.1279179 64.46500422 -64 63 C-64.65677734 62.48743652 -65.31355469 61.97487305 -65.99023438 61.44677734 C-68.55060596 59.44374423 -71.10911542 57.43930094 -73.64477539 55.4050293 C-76.05306823 53.05421769 -76.05306823 53.05421769 -79 52 Z M5.75 56.875 C5.12536865 57.36589111 4.5007373 57.85678223 3.85717773 58.36254883 C0.68208915 60.8580893 -2.46674551 63.3777159 -5.57421875 65.95703125 C-6.69528585 66.86722033 -7.81637849 67.77737794 -8.9375 68.6875 C-9.93652344 69.51636719 -10.93554688 70.34523438 -11.96484375 71.19921875 C-15.63369116 73.37597378 -17.8008536 73.54618969 -22 73 C-24.4375 70.5 -24.4375 70.5 -26 68 C-26.12375 68.804375 -26.2475 69.60875 -26.375 70.4375 C-26.684375 71.7059375 -26.684375 71.7059375 -27 73 C-27.66 73.33 -28.32 73.66 -29 74 C-24.7362719 76.35910353 -24.7362719 76.35910353 -20 77 C-20.226875 77.928125 -20.45375 78.85625 -20.6875 79.8125 C-21.36319983 82.96826848 -21.36319983 82.96826848 -19.5625 84.875 C-19.046875 85.24625 -18.53125 85.6175 -18 86 C-16.8553125 85.319375 -16.8553125 85.319375 -15.6875 84.625 C-12.71006157 83.11164477 -9.91736979 82.57077962 -6.625 82.0625 C-1.45323702 81.20638727 2.55498376 79.75260306 7 77 C8.11375 76.34 9.2275 75.68 10.375 75 C14.30597698 70.50745488 14.80319603 65.86627222 15 60 C14.61995593 57.10547828 13.96090876 54.77595865 13 52 C10.56089651 52 7.67398312 55.34126474 5.75 56.875 Z M-44 81 C-43 84 -43 84 -43 84 Z M-34 85 C-36.37991292 87.98366664 -38.15780178 90.99935182 -39.8125 94.4375 C-40.27269531 95.36433594 -40.73289063 96.29117188 -41.20703125 97.24609375 C-42.25400584 100.00083952 -42.25400584 100.00083952 -41.26953125 102.796875 C-40.20652723 105.17717998 -40.20652723 105.17717998 -37.875 105.8125 C-36.946875 105.9053125 -36.946875 105.9053125 -36 106 C-34.5393715 103.35261084 -34 102.10551666 -34 99 C-30.98672434 100.50663783 -30.38943382 103.03166411 -29 106 C-28.01 106 -27.02 106 -26 106 C-24.16540934 102.10971167 -23.81861559 100.53263675 -25.23046875 96.38671875 C-25.86223208 95.1429759 -26.51527334 93.90984713 -27.1875 92.6875 C-27.66413086 91.73907227 -27.66413086 91.73907227 -28.15039062 90.77148438 C-30.13478551 86.86143839 -30.13478551 86.86143839 -34 85 Z " fill="#FFFFFF" transform="translate(172,65)"/>
<path d="M0 0 C0.66 0 1.32 0 2 0 C2.63400269 6.27602426 3.10019787 12.51825791 3.2902832 18.82324219 C3.82928732 36.25155969 5.49018515 53.65549494 9 70.75 C9.15380127 71.50571289 9.30760254 72.26142578 9.46606445 73.04003906 C10.64546184 78.37328505 12.40433719 82.87244959 15.6875 87.25 C17 89 17 89 17 91 C16.09181519 91.41173462 16.09181519 91.41173462 15.1652832 91.83178711 C-8.32593686 102.57382695 -30.49817087 115.38308669 -52.00683594 129.67773438 C-55.78190242 132.18211459 -59.57832964 134.65355221 -63.375 137.125 C-64.0959082 137.59921387 -64.81681641 138.07342773 -65.55957031 138.56201172 C-66.22827148 138.99787598 -66.89697266 139.43374023 -67.5859375 139.8828125 C-68.1742334 140.26840332 -68.7625293 140.65399414 -69.36865234 141.05126953 C-71 142 -71 142 -74 143 C-73.59910156 143.51691406 -73.19820312 144.03382813 -72.78515625 144.56640625 C-72 147 -72 147 -73.30859375 150.15234375 C-74.00789614 151.41981872 -74.71840277 152.68114981 -75.4375 153.9375 C-82.21461755 166.55042766 -85.93855685 180.33066554 -90 194 C-90.66 194 -91.32 194 -92 194 C-92.1952124 193.28158936 -92.3904248 192.56317871 -92.59155273 191.82299805 C-96.44763254 177.80404046 -100.59401682 164.47222729 -107.21484375 151.5 C-109 148 -109 148 -110 145 C-109.02417969 144.45730469 -108.04835938 143.91460937 -107.04296875 143.35546875 C-105.75766633 142.6330725 -104.47251813 141.91040182 -103.1875 141.1875 C-102.54490234 140.83107422 -101.90230469 140.47464844 -101.24023438 140.10742188 C-98.09250496 138.32968868 -95.4997826 136.5981347 -93 134 C-88.59149788 134 -85.91150158 136.36659826 -82.6484375 139.0390625 C-81.83246094 139.51472656 -81.83246094 139.51472656 -81 140 C-80.01 139.67 -79.02 139.34 -78 139 C-79.32 138.67 -80.64 138.34 -82 138 C-82 137.34 -82 136.68 -82 136 C-81.25621094 135.59652344 -80.51242188 135.19304687 -79.74609375 134.77734375 C-58.2362966 122.81616966 -37.89829949 108.63018318 -18.3203125 93.7421875 C-14.83295659 91.12373509 -12.64138118 89.75142445 -8.3125 89.375 C-7.10013672 89.26285156 -7.10013672 89.26285156 -5.86328125 89.1484375 C-5.24839844 89.09945312 -4.63351563 89.05046875 -4 89 C-4.54269531 88.54109375 -5.08539063 88.0821875 -5.64453125 87.609375 C-6.35996094 86.99578125 -7.07539063 86.3821875 -7.8125 85.75 C-8.87404297 84.84507812 -8.87404297 84.84507812 -9.95703125 83.921875 C-11.91889671 82.07629602 -13.45669625 80.20054668 -15 78 C-14.7834375 78.75023437 -14.566875 79.50046875 -14.34375 80.2734375 C-14 83 -14 83 -14.90625 84.8515625 C-23.81223495 94.76165359 -35.66960286 102.15931354 -47 109 C-48.08023438 109.65355469 -49.16046875 110.30710937 -50.2734375 110.98046875 C-58.70945609 116 -58.70945609 116 -61 116 C-61 115.34 -61 114.68 -61 114 C-59.48299575 112.81436542 -57.90746545 111.70347878 -56.3125 110.625 C-49.31319162 105.65369636 -43.17206255 99.95103972 -37 94 C-36.19199951 93.22487061 -36.19199951 93.22487061 -35.36767578 92.43408203 C-23.39376869 81.26226981 -23.39376869 81.26226981 -16 67 C-15.53668941 65.63140491 -15.06892823 64.26431155 -14.59765625 62.8984375 C-14.08585192 61.39065405 -13.57413492 59.88284095 -13.0625 58.375 C-12.81048828 57.64410156 -12.55847656 56.91320312 -12.29882812 56.16015625 C-8.48640893 44.86915516 -6.28702556 33.44394799 -4.4375 21.6875 C-4.02455021 19.06554075 -3.60557945 16.44476316 -3.18359375 13.82421875 C-2.91373657 12.10851685 -2.91373657 12.10851685 -2.63842773 10.3581543 C-1.96368419 6.80897746 -1.04152627 3.45683474 0 0 Z M-17 75 C-16 77 -16 77 -16 77 Z " fill="#FFFFFF" transform="translate(230,96)"/>
<path d="M0 0 C11.85883632 -1.37893446 23.60019328 6.28472036 32.61083984 13.24414062 C43.24327191 21.67601418 52.32239681 30.41894747 58 43 C58 43.66 58 44.32 58 45 C56.39592672 45.02708567 54.7917215 45.04643483 53.1875 45.0625 C51.84751953 45.07990234 51.84751953 45.07990234 50.48046875 45.09765625 C48 45 48 45 45 44 C46.06360458 47.74505618 46.06360458 47.74505618 48 51 C50.09545706 51.68975461 51.86198667 51.81119306 54.0625 51.83203125 C56 52 56 52 59 54 C58.51256056 61.59733196 56.97983442 68.66170069 55 76 C54.66354259 77.33254842 54.3288672 78.66555808 54 80 C50.01457486 78.63356852 47.07460137 76.89890986 44 74 C44 73.01 44 72.02 44 71 C43.34 71.66 42.68 72.32 42 73 C42.38414062 73.88042969 42.76828125 74.76085937 43.1640625 75.66796875 C43.64617187 76.82941406 44.12828125 77.99085937 44.625 79.1875 C45.11226562 80.33605469 45.59953125 81.48460938 46.1015625 82.66796875 C47 86 47 86 46.42578125 88.625 C44.75074249 91.41520155 42.87506241 93.52272146 40.5625 95.8125 C39.78003906 96.60269531 38.99757812 97.39289063 38.19140625 98.20703125 C36 100 36 100 33 100 C33 100.99 33 101.98 33 103 C31.21118264 104.00508801 29.41885304 105.00392736 27.625 106 C26.62726563 106.556875 25.62953125 107.11375 24.6015625 107.6875 C22 109 22 109 20 109 C19.49487756 107.39743892 18.99608373 105.79288208 18.5 104.1875 C18.2215625 103.29417969 17.943125 102.40085937 17.65625 101.48046875 C17 99 17 99 17 96 C19.5 94.3125 19.5 94.3125 22 93 C18.535 93.495 18.535 93.495 15 94 C14.51789063 92.89140625 14.03578125 91.7828125 13.5390625 90.640625 C12.90109778 89.17705887 12.26307384 87.71351856 11.625 86.25 C11.30789062 85.52039063 10.99078125 84.79078125 10.6640625 84.0390625 C10.3546875 83.33007812 10.0453125 82.62109375 9.7265625 81.890625 C9.44377441 81.24125977 9.16098633 80.59189453 8.86962891 79.92285156 C7.96411991 77.92066492 6.99481594 75.95913944 6 74 C6.99 73.525625 7.98 73.05125 9 72.5625 C15.00164981 69.12252999 21.25505024 62.80191697 23.59765625 56.1875 C26.20453252 42.01419214 22.53310401 29.07293176 15.140625 17.00390625 C10.71227563 10.78967146 5.38548019 5.38548019 0 0 Z M45 66 C46 68 46 68 46 68 Z " fill="#FFFFFF" transform="translate(180,0)"/>
<path d="M0 0 C-0.95117134 1.1725131 -1.91117009 2.33787015 -2.875 3.5 C-3.40867188 4.1496875 -3.94234375 4.799375 -4.4921875 5.46875 C-4.98976562 5.9740625 -5.48734375 6.479375 -6 7 C-6.66 7 -7.32 7 -8 7 C-8.2475 7.556875 -8.495 8.11375 -8.75 8.6875 C-10 11 -10 11 -11.75 13.125 C-20.03006499 23.70508304 -24.88690527 35.32842354 -24.37890625 48.9296875 C-23.31664179 57.53731498 -19.41520203 64.22365626 -13 70 C-10.71307688 71.57504044 -8.50374031 72.77367822 -6 74 C-7.157502 77.08667199 -8.49410984 80.01000458 -10 82.9375 C-11.66606553 86.2136811 -12.9414587 89.47152899 -14 93 C-17.465 93.495 -17.465 93.495 -21 94 C-19.68 94.99 -18.36 95.98 -17 97 C-17.59924224 101.19469571 -18.57499941 105.00999834 -20 109 C-24.32464532 107.4274017 -28.12178595 105.4611743 -32 103 C-32.33 102.01 -32.66 101.02 -33 100 C-34.32977275 99.6527345 -35.66373517 99.32138015 -37 99 C-38.81640625 97.51171875 -38.81640625 97.51171875 -40.5625 95.6875 C-41.14128906 95.09324219 -41.72007813 94.49898438 -42.31640625 93.88671875 C-43.14978516 92.95279297 -43.14978516 92.95279297 -44 92 C-44.59167969 91.36449219 -45.18335938 90.72898437 -45.79296875 90.07421875 C-47 88 -47 88 -46.671875 85.6328125 C-46.36765625 84.80523437 -46.0634375 83.97765625 -45.75 83.125 C-44.47856109 79.40932939 -43.39332296 75.9332296 -43 72 C-43.33 71.34 -43.66 70.68 -44 70 C-44.3403125 71.0828125 -44.3403125 71.0828125 -44.6875 72.1875 C-46.26335128 75.56432417 -48.20876616 77.55767039 -51 80 C-51.66 80 -52.32 80 -53 80 C-56.23968479 71.41326264 -57.97553333 63.1123614 -59 54 C-53.3984375 51.0390625 -53.3984375 51.0390625 -49.8125 50.6875 C-46.6706007 50.26943309 -46.6706007 50.26943309 -45.125 46.9375 C-44.75375 45.968125 -44.3825 44.99875 -44 44 C-44.82757813 44.24556641 -44.82757813 44.24556641 -45.671875 44.49609375 C-48.26614007 45.05760414 -50.59835411 45.09739008 -53.25 45.0625 C-54.14203125 45.05347656 -55.0340625 45.04445312 -55.953125 45.03515625 C-56.62859375 45.02355469 -57.3040625 45.01195312 -58 45 C-56.05369296 38.23757606 -52.25863556 33.49838959 -48 28 C-47.51402344 27.35675781 -47.02804688 26.71351562 -46.52734375 26.05078125 C-36.81088362 13.89812412 -16.40622169 -1.42662797 0 0 Z M-46 65 C-45 67 -45 67 -45 67 Z " fill="#FFFFFF" transform="translate(98,0)"/>
<path d="M0 0 C0.66 0 1.32 0 2 0 C4.68137773 7.17551788 5.8499945 14.04574529 6.8125 21.625 C11.06048747 52.90082968 11.06048747 52.90082968 26 80 C26.82886719 80.93585938 27.65773437 81.87171875 28.51171875 82.8359375 C31.29350041 85.93613073 34.1399901 88.97211995 37 92 C37.7321875 92.78632813 38.464375 93.57265625 39.21875 94.3828125 C46.32003605 101.77556925 54.47218484 108.3147899 63 114 C63 114.66 63 115.32 63 116 C50.9543276 111.51371605 40.16703832 103.7309122 30 96 C29.42878418 95.56864746 28.85756836 95.13729492 28.26904297 94.69287109 C26.60055674 93.418763 24.95359184 92.12164028 23.3125 90.8125 C22.35988281 90.05582031 21.40726563 89.29914063 20.42578125 88.51953125 C17.4882292 85.46845062 16.44231868 82.950699 15 79 C14.690625 80.0828125 14.690625 80.0828125 14.375 81.1875 C12.54751837 84.9255306 10.29561194 86.49246917 7 89 C8.27875 89 9.5575 89 10.875 89 C16.24076233 89.63029047 18.96698339 91.97887547 22.97265625 95.44140625 C35.6802976 106.18141281 49.98257607 115.09577898 64 124 C64.78874512 124.50289551 65.57749023 125.00579102 66.39013672 125.52392578 C68.6110244 126.93781164 70.83556533 128.34566145 73.0625 129.75 C74.0537085 130.37781372 74.0537085 130.37781372 75.06494141 131.01831055 C77.69438172 132.66214562 80.04547617 134.01515872 83 135 C81.79368355 138.61894934 80.12772135 139.44380402 76.984375 141.42578125 C73.97624806 142.29624318 72.78775027 141.44778191 70 140 C66.94918968 138.13771207 63.97544428 136.16738138 61 134.1875 C45.76480858 124.18593045 30.29446537 114.65280754 14.5 105.5625 C13.92121094 105.2272934 13.34242187 104.89208679 12.74609375 104.54672241 C3.87140248 99.41651533 -5.23882725 94.25372425 -15 91 C-13.80378773 88.5078911 -12.50861232 86.20531091 -11.05078125 83.84765625 C-8.89738461 80.06771626 -7.78593662 76.24829034 -6.9375 72 C-6.7739502 71.19731689 -6.61040039 70.39463379 -6.44189453 69.56762695 C-2.12910909 46.80243119 -1.38878415 23.10069146 0 0 Z " fill="#FFFFFF" transform="translate(46,96)"/>
<path d="M0 0 C0.66 0 1.32 0 2 0 C1.96519531 0.93457031 1.93039062 1.86914062 1.89453125 2.83203125 C1.54609799 19.73934054 4.59513269 35.01535004 9.83813477 51.08007812 C10.14549561 52.05267578 10.45285645 53.02527344 10.76953125 54.02734375 C11.05417236 54.89093506 11.33881348 55.75452637 11.63208008 56.64428711 C12.07823841 59.50094386 11.54779062 60.60739545 10 63 C6.13640462 67.77897029 1.19687731 71.55316241 -3.625 75.3125 C-4.17518799 75.7451416 -4.72537598 76.1777832 -5.29223633 76.62353516 C-8.39573702 78.9958935 -11.29322701 80.75292582 -15 82 C-16.87495148 69.71054529 -16.87495148 69.71054529 -14.87109375 65.79296875 C-13.3125 64.125 -13.3125 64.125 -11.62890625 62.56640625 C-7.14811396 58.25753885 -4.61529918 51.0722968 -4 45 C-4.11963971 41.69439902 -4.40378911 38.42016921 -4.69140625 35.125 C-6.71006972 10.2874628 -6.71006972 10.2874628 -1 1 C-0.67 0.67 -0.34 0.34 0 0 Z " fill="#FFFFFF" transform="translate(255,57)"/>
<path d="M0 0 C3.76826977 3.54082871 5.72030799 7.29685256 6.25195312 12.43505859 C6.33153209 15.19226574 6.31147406 17.92988219 6.25 20.6875 C6.23682739 22.15461426 6.23682739 22.15461426 6.22338867 23.65136719 C6.1546675 28.72577232 5.8978711 33.70528501 5.3125 38.75 C4.41796387 47.78611139 8.14660622 55.55614451 13 63 C14.1446875 64.2684375 14.1446875 64.2684375 15.3125 65.5625 C18.29762624 69.87434901 17.20398408 74.57211141 16.5 79.5 C16.335 80.325 16.17 81.15 16 82 C11.37294875 80.52658145 8.14662978 77.84404939 4.5625 74.6875 C3.45980843 73.73287303 2.35694469 72.7784449 1.25390625 71.82421875 C0.71523926 71.35161621 0.17657227 70.87901367 -0.37841797 70.39208984 C-1.44735797 69.47443012 -2.53497895 68.57803356 -3.64111328 67.70556641 C-9.60011776 63.00128285 -9.60011776 63.00128285 -11 59 C-10.55573357 55.81807036 -9.50227295 52.89713167 -8.4375 49.875 C-7.85362019 48.07216616 -7.2756176 46.26741964 -6.703125 44.4609375 C-6.41244141 43.54795898 -6.12175781 42.63498047 -5.82226562 41.69433594 C-1.6269741 27.94753152 -0.30172483 14.31684316 0 0 Z " fill="#FFFFFF" transform="translate(22,57)"/>
<path d="M0 0 C3.03152225 1.62949491 5.16298997 3.41802398 7.6328125 5.8046875 C10.15256143 8.14148437 12.68806462 9.53407163 15.6875 11.1875 C18.19140625 12.859375 18.19140625 12.859375 20 15 C20.54706732 19.52525591 19.97318176 23.56735707 19 28 C14.85423429 26.50999482 11.2446011 24.44586142 7.5625 22.0625 C6.96139404 21.67497559 6.36028809 21.28745117 5.7409668 20.88818359 C-11.36042269 9.6558969 -11.36042269 9.6558969 -17 3 C-17 2.34 -17 1.68 -17 1 C-11.99580477 -1.50209761 -5.40878569 -0.7486584 0 0 Z " fill="#FFFFFF" transform="translate(17,129)"/>
<path d="M0 0 C0.66 0.33 1.32 0.66 2 1 C0.44301354 5.05760108 -2.42836354 7.42223092 -5.6875 10.125 C-6.53731445 10.835354 -6.53731445 10.835354 -7.40429688 11.56005859 C-11.77983604 15.14642952 -16.31515505 18.45531068 -21 21.625 C-21.62221436 22.05055176 -22.24442871 22.47610352 -22.88549805 22.91455078 C-26.21887174 25.11030514 -29.00828416 26.56151606 -33 27 C-33.36368892 25.39796533 -33.71561952 23.79325797 -34.0625 22.1875 C-34.25972656 21.29417969 -34.45695313 20.40085938 -34.66015625 19.48046875 C-35 17 -35 17 -34 14 C-31.55859375 12.16796875 -31.55859375 12.16796875 -28.4375 10.1875 C-24.71107784 7.81852892 -21.37291839 5.47902754 -18.125 2.5 C-12.92674043 -1.5638936 -6.24789562 -0.64774771 0 0 Z " fill="#FFFFFF" transform="translate(276,129)"/>
<path d="M0 0 C0.66 0 1.32 0 2 0 C2.45890625 1.19496094 2.9178125 2.38992188 3.390625 3.62109375 C4.01000375 5.22672184 4.62982344 6.83217989 5.25 8.4375 C5.56775391 9.26193604 5.88550781 10.08637207 6.21289062 10.93579102 C7.85585006 15.16825194 9.55656403 19.33164935 11.5 23.4375 C13 27 13 27 12 30 C10.07421875 31.38671875 10.07421875 31.38671875 7.6875 32.6875 C6.90761719 33.12449219 6.12773437 33.56148437 5.32421875 34.01171875 C3 35 3 35 -1 35 C-3.578125 33.6875 -3.578125 33.6875 -6.25 32 C-7.14203125 31.443125 -8.0340625 30.88625 -8.953125 30.3125 C-9.62859375 29.879375 -10.3040625 29.44625 -11 29 C-9.71599314 25.01251079 -8.2742181 21.16242634 -6.625 17.3125 C-4.21873185 11.60743101 -2.05741071 5.83890861 0 0 Z " fill="#FFFFFF" transform="translate(138,13)"/>
<path d="M0 0 C5.43683334 1.49212776 9.69063815 4.1009183 14.375 7.125 C15.47908203 7.82689453 15.47908203 7.82689453 16.60546875 8.54296875 C18.40730078 9.68958913 20.20416431 10.84401076 22 12 C21.34780691 15.66692236 20.35780516 19.05043879 19.125 22.5625 C17.297312 27.88061022 15.95754222 33.1971115 14.80859375 38.69921875 C14.54175781 39.45847656 14.27492188 40.21773437 14 41 C12.515 41.495 12.515 41.495 11 42 C10.84442627 41.32122803 10.68885254 40.64245605 10.52856445 39.94311523 C7.77182849 27.99051509 5.026096 16.15455079 0.8828125 4.59765625 C0 2 0 2 0 0 Z " fill="#FFFFFF" transform="translate(63,210)"/>
<path d="M0 0 C-0.82432954 4.88638718 -2.34853545 9.52747557 -3.8125 14.25 C-6.61664578 23.4188967 -8.93861345 32.6388799 -11 42 C-13.4889573 39.81103567 -14.48183427 38.1851376 -15.28125 34.98046875 C-15.48363281 34.20509766 -15.68601563 33.42972656 -15.89453125 32.63085938 C-16.09433594 31.82455078 -16.29414063 31.01824219 -16.5 30.1875 C-17.87051082 24.73640373 -19.41542704 20.02639334 -22 15 C-22 14.01 -22 13.02 -22 12 C-19.62800607 10.35303063 -17.31857284 8.91272572 -14.8125 7.5 C-14.13896484 7.10941406 -13.46542969 6.71882812 -12.77148438 6.31640625 C-11.4544602 5.55317468 -10.13437191 4.79520206 -8.81103516 4.04296875 C-7.23351082 3.13447806 -5.68244464 2.18034755 -4.13671875 1.21875 C-2 0 -2 0 0 0 Z " fill="#FFFFFF" transform="translate(215,210)"/>
<path d="M0 0 C1.00496852 3.01490557 1.10335303 5.04181692 1.0625 8.1875 C1.05347656 9.08855469 1.04445313 9.98960938 1.03515625 10.91796875 C1.02355469 11.60503906 1.01195313 12.29210938 1 13 C0.05898437 13.44730469 -0.88203125 13.89460938 -1.8515625 14.35546875 C-3.10958875 14.96570537 -4.36738929 15.57640747 -5.625 16.1875 C-6.24246094 16.47947266 -6.85992187 16.77144531 -7.49609375 17.07226562 C-10.77021575 18.67486218 -13.56191676 20.34681326 -16.33203125 22.73046875 C-19 25 -19 25 -21.0625 25.125 C-23.87857414 23.48986018 -25.86067051 21.43645859 -28 19 C-28 18.34 -28 17.68 -28 17 C-25.57030579 15.35106361 -23.14225303 13.81701991 -20.625 12.3125 C-14.8587719 8.80267758 -9.26240342 5.18285268 -3.8203125 1.1796875 C-2 0 -2 0 0 0 Z " fill="#FFFFFF" transform="translate(115,38)"/>
<path d="M0 0 C4.13565022 1.65426009 7.01403815 3.21043857 10.625 5.6875 C16.34823478 9.5716308 22.14788078 13.31362569 28 17 C26.42003387 20.32072528 24.92110579 22.68029835 22 25 C18.14361859 24.67446131 15.72219474 22.44331189 12.75 20.125 C8.25090774 16.75521009 4.36254916 14.61888276 -1 13 C-0.67 8.71 -0.34 4.42 0 0 Z " fill="#FFFFFF" transform="translate(163,38)"/>
<path d="M0 0 C3.465 1.98 3.465 1.98 7 4 C7 4.66 7 5.32 7 6 C5.50634766 7.29345703 5.50634766 7.29345703 3.4140625 8.7578125 C2.65222656 9.29768799 1.89039063 9.83756348 1.10546875 10.39379883 C-0.12236328 11.25074341 -0.12236328 11.25074341 -1.375 12.125 C-7.5136781 16.46821112 -13.49588515 20.86198663 -19.25 25.70703125 C-21 27 -21 27 -23 27 C-22.4138021 24.97495272 -21.71771282 22.98225446 -21 21 C-20.77441406 20.26136719 -20.54882812 19.52273437 -20.31640625 18.76171875 C-16.70013898 9.35342174 -8.20529191 5.07166104 0 0 Z " fill="#FFFFFF" transform="translate(180,228)"/>
<path d="M0 0 C2.7160789 1.70430267 5.42214613 3.42051017 8.11328125 5.1640625 C9.72509798 6.18916921 11.35626544 7.18937245 13.04296875 8.0859375 C19.4794662 11.76814428 22.42673554 19.32136296 25 26 C24.67 26.66 24.34 27.32 24 28 C23.175 27.33355469 22.35 26.66710937 21.5 25.98046875 C12.61995391 18.87253142 3.44145161 12.33926036 -6 6 C-4.75453595 2.26360784 -3.36595047 1.81243487 0 0 Z " fill="#FFFFFF" transform="translate(97,228)"/>
</svg>
