<?xml version="1.0" encoding="UTF-8"?>
<!-- Generator: visioncortex VTracer 0.6.4 -->
<svg version="1.1" xmlns="http://www.w3.org/2000/svg" width="259" height="290">
<path d="M0 0 C0 0.66 0 1.32 0 2 C-0.99966797 2.49306641 -0.99966797 2.49306641 -2.01953125 2.99609375 C-15.28089468 9.84007012 -27.65632572 19.58013524 -33 34 C-36.66159065 47.07710947 -35.11917758 59.36436484 -29 71.5 C-22.67912559 82.49166792 -14.88985919 91.39700702 -4 98 C-2.515 98.99 -2.515 98.99 -1 100 C-1 100.66 -1 101.32 -1 102 C-2.69588264 103.54091405 -4.45821672 105.00923297 -6.25 106.4375 C-7.22453125 107.21996094 -8.1990625 108.00242187 -9.203125 108.80859375 C-10.12609375 109.53175781 -11.0490625 110.25492187 -12 111 C-12.64710937 111.59941406 -13.29421875 112.19882813 -13.9609375 112.81640625 C-18.61793836 115.5196079 -25.03284366 113.10492861 -30 112 C-47.31015398 107.02773712 -63.66115362 97.67774193 -73.28125 81.8984375 C-76.71875706 75.34262047 -78.25405416 68.85001668 -76.3515625 61.4921875 C-73.32046469 52.39889408 -68.3067666 44.21142575 -62 37 C-61.34 37 -60.68 37 -60 37 C-60.03480469 38.25554688 -60.06960937 39.51109375 -60.10546875 40.8046875 C-60.41860309 53.67831806 -60.41860309 53.67831806 -57 66 C-57.02320312 65.20078125 -57.04640625 64.4015625 -57.0703125 63.578125 C-57.32734347 47.93595474 -54.87548747 33.60223489 -44.41796875 21.37890625 C-33.71225496 10.84614422 -15.33085464 0 0 0 Z M-56 68 C-55 70 -55 70 -55 70 Z " fill="#FFFFFF" transform="translate(115,25)"/>
<path d="M0 0 C18.51214117 3.89924739 33.98958624 13.3829631 45.01171875 28.77734375 C49.87294911 36.7204546 51.41273215 44.11150582 49.31640625 53.375 C46.30947245 61.71240736 40.36401638 71.94817106 32.89453125 76.8203125 C33.14203125 75.428125 33.14203125 75.428125 33.39453125 74.0078125 C34.62504317 65.03231379 34.00176437 57.34670814 30.89453125 48.8203125 C30.85585937 50.43486328 30.85585937 50.43486328 30.81640625 52.08203125 C30.24617078 68.66653836 26.6181384 82.12071458 14.26171875 93.84765625 C2.48065052 103.66521311 -11.41469179 108.29979036 -26.10546875 111.8203125 C-25.10546875 108.8203125 -25.10546875 108.8203125 -22.953125 107.49609375 C-22.03402344 107.04621094 -21.11492187 106.59632813 -20.16796875 106.1328125 C-6.55467099 98.94654507 2.82502117 88.79358289 7.4765625 73.96484375 C10.5317007 58.28941505 4.76044263 44.02681305 -3.84765625 31.23046875 C-9.66462932 23.3980714 -17.06573608 18.18013428 -25.10546875 12.8203125 C-23.81123913 8.93762364 -21.91297315 7.79295708 -18.73046875 5.2578125 C-17.75335938 4.47277344 -16.77625 3.68773437 -15.76953125 2.87890625 C-9.86855856 -1.68093629 -7.21090412 -1.17335 0 0 Z " fill="#FFFFFF" transform="translate(170.10546875,151.1796875)"/>
<path d="M0 0 C0.68755371 0.35868164 1.37510742 0.71736328 2.08349609 1.08691406 C5.74819564 3.01229705 9.38536898 4.98177693 13 7 C13 7.66 13 8.32 13 9 C5.19291772 9.1871154 -2.61361892 9.32837725 -10.4223938 9.41449738 C-14.05031713 9.45587731 -17.67668355 9.51179152 -21.30371094 9.60351562 C-51.85887564 10.35656043 -51.85887564 10.35656043 -65 1 C-65.66 0.67 -66.32 0.34 -67 0 C-67 -0.66 -67 -1.32 -67 -2 C-57.1 -2.495 -57.1 -2.495 -47 -3 C-54.14181527 -3.54937041 -61.15905667 -4.06784391 -68.32006836 -3.91723633 C-74.08798749 -3.79868459 -79.028733 -3.90889006 -84.4296875 -6.1328125 C-90.6999547 -8.24831299 -97.48200772 -8.94484855 -104 -10 C-104 -10.66 -104 -11.32 -104 -12 C-68.26851185 -23.34158176 -32.74891703 -17.09483018 0 0 Z " fill="#FFFFFF" transform="translate(246,134)"/>
<path d="M0 0 C7.56344946 -0.18703851 15.12665344 -0.32834124 22.69190311 -0.41449738 C26.20665902 -0.45589332 29.71981016 -0.51183697 33.23364258 -0.60351562 C62.01293729 -1.33507939 62.01293729 -1.33507939 75 8 C77.71965123 9.2349932 77.71965123 9.2349932 80 10 C79.67 10.66 79.34 11.32 79 12 C76.28553021 12.31241455 73.66090639 12.51336592 70.9375 12.625 C70.17888672 12.66367188 69.42027344 12.70234375 68.63867188 12.7421875 C66.75952805 12.83673562 64.87979664 12.91946756 63 13 C63.71953857 12.97905273 64.43907715 12.95810547 65.18041992 12.93652344 C89.65652458 12.31742081 89.65652458 12.31742081 99.08984375 15.9765625 C104.52974077 17.8896538 110.29299934 18.34972706 116 19 C116 19.66 116 20.32 116 21 C113.60468067 21.64779076 111.20878252 22.29329009 108.8125 22.9375 C108.13896484 23.11990234 107.46542969 23.30230469 106.77148438 23.49023438 C70.4855568 33.22548324 37.03186058 22.40249854 5.19799805 5.11987305 C2.92043491 3.89075067 2.92043491 3.89075067 0 3 C0 2.01 0 1.02 0 0 Z " fill="#FFFFFF" transform="translate(0,146)"/>
<path d="M0 0 C14.700276 -1.36707504 14.700276 -1.36707504 19.95703125 1.7578125 C22.23874024 4.05118269 24.13866356 6.35648398 26 9 C26.54269531 9.7115625 27.08539063 10.423125 27.64453125 11.15625 C28.81681357 12.7322108 29.9185475 14.36037847 31 16 C33.62572577 13.48903497 35.95563007 11.06180097 38.078125 8.10546875 C43.70990363 0.53903236 43.70990363 0.53903236 48.12011719 -0.49902344 C53.12166568 -0.9579393 58.0225569 -0.5716553 63 0 C61.43431827 3.52690411 59.28224227 6.24723787 56.875 9.25 C44.90204897 24.79323503 38.44133264 43.85506189 34.7355957 62.90283203 C34.45848755 64.26384033 34.45848755 64.26384033 34.17578125 65.65234375 C34.02020752 66.46695068 33.86463379 67.28155762 33.7043457 68.12084961 C33.47191162 68.74096924 33.23947754 69.36108887 33 70 C31.515 70.495 31.515 70.495 30 71 C29.87625 70.1234375 29.7525 69.246875 29.625 68.34375 C25.86947587 45.24727661 17.84954095 23.80336176 3.00390625 5.609375 C1 3 1 3 0 0 Z " fill="#FFFFFF" transform="translate(98,219)"/>
<path d="M0 0 C0.99 0 1.98 0 3 0 C3.10957031 0.56170898 3.21914062 1.12341797 3.33203125 1.70214844 C7.62627961 23.21703099 14.31343246 45.23283537 28.71484375 62.29296875 C30 64 30 64 30 66 C30.66 66 31.32 66 32 66 C32 66.99 32 67.98 32 69 C18.35714286 70.67573555 18.35714286 70.67573555 12.8515625 66.76171875 C10.31591501 63.94813993 8.11534741 61.14022503 6 58 C5.62037109 57.43700195 5.24074219 56.87400391 4.84960938 56.29394531 C3.89209395 54.86773363 2.94500364 53.43453256 2 52 C-1.62591729 55.51604101 -4.96634286 59.20093105 -8.25390625 63.03515625 C-9.11822266 64.00775391 -9.11822266 64.00775391 -10 65 C-10.55042969 65.73605469 -11.10085937 66.47210938 -11.66796875 67.23046875 C-15.19860769 69.90949629 -18.44981107 69.43541445 -22.75 69.25 C-23.54277344 69.23195313 -24.33554688 69.21390625 -25.15234375 69.1953125 C-27.10208348 69.14833082 -29.05119878 69.07659044 -31 69 C-29.74566499 65.23699497 -27.80830576 63.80830576 -25 61 C-10.35556552 44.65766008 -3.42087289 21.20941194 0 0 Z " fill="#FFFFFF" transform="translate(128,0)"/>
<path d="M0 0 C0.99 0.33 1.98 0.66 3 1 C3.921875 3.15234375 3.921875 3.15234375 4.75 5.9375 C8.48709583 16.82443578 16.13337421 26.71164612 26.5625 32 C27.366875 32.33 28.17125 32.66 29 33 C29 33.66 29 34.32 29 35 C27.05859375 36.26171875 27.05859375 36.26171875 24.4375 37.6875 C12.7267766 44.56548825 6.18460921 55.20001887 2 68 C1.34 68 0.68 68 0 68 C-0.14695312 67.39414063 -0.29390625 66.78828125 -0.4453125 66.1640625 C-3.46479624 54.88438184 -9.42588509 44.44708747 -19.734375 38.39453125 C-22.13071879 37.18620536 -24.53162351 36.0520949 -27 35 C-27 34.34 -27 33.68 -27 33 C-26.28714844 32.64808594 -25.57429688 32.29617187 -24.83984375 31.93359375 C-13.81687521 26.25149826 -6.27439899 19.02306187 -1.9609375 7.13671875 C-1.24405361 4.76832197 -0.58320342 2.40443517 0 0 Z " fill="#FFFFFF" transform="translate(128,111)"/>
<path d="M0 0 C23.01468969 4.92734713 46.42454196 14.7676257 60 35 C63.4144492 40.89159862 66.12418728 46.19483447 67 53 C55.28125 48.60546875 55.28125 48.60546875 53.14477539 47.78637695 C51.71864744 47.26349043 50.27653402 46.78225466 48.82202148 46.34448242 C43.61029432 44.70023111 41.68771755 42.9319615 39.0625 37.9375 C35.4612639 31.48216473 31.15618654 26.31702172 26 21 C25.47277344 20.39929688 24.94554687 19.79859375 24.40234375 19.1796875 C17.95910945 12.09377766 8.70524866 5.98898736 0 2 C0 1.34 0 0.68 0 0 Z " fill="#FFFFFF" transform="translate(166,68)"/>
<path d="M0 0 C8.45016835 1.21479513 19.48151522 2.91421236 25.27734375 9.64453125 C26.35549843 11.65585649 27.37440299 13.69991821 28.3359375 15.76953125 C31.41421314 21.74543254 36.34254429 26.22401623 41 31 C41.57234375 31.64582031 42.1446875 32.29164063 42.734375 32.95703125 C48.59733476 39.40930913 57.72879411 46.24293137 66 49 C66 49.66 66 50.32 66 51 C59.86779681 50.44761226 54.57110423 49.09013372 48.8125 46.9375 C47.98242432 46.62804443 47.15234863 46.31858887 46.29711914 45.99975586 C28.08870631 38.95559963 11.92597864 26.60852149 3 9 C1.83312145 6.03893602 0.84475747 3.06780345 0 0 Z " fill="#FFFFFF" transform="translate(27,170)"/>
<path d="M0 0 C8.2236651 -0.02322608 16.44731636 -0.04096727 24.6710062 -0.05181217 C28.49007391 -0.0570186 32.30911909 -0.06407535 36.12817383 -0.07543945 C39.81752174 -0.08634821 43.50684806 -0.0922937 47.19621086 -0.09487724 C48.59992754 -0.09671714 50.00364312 -0.10030989 51.40735054 -0.10573006 C53.3816626 -0.11304655 55.35599665 -0.11340896 57.33032227 -0.11352539 C58.45173111 -0.115746 59.57313995 -0.11796661 60.72853088 -0.12025452 C64.21018838 0.00772622 67.56174095 0.45032302 71 1 C71 1.66 71 2.32 71 3 C69.85144531 3.49628906 68.70289063 3.99257812 67.51953125 4.50390625 C49.83204337 11.1633959 49.83204337 11.1633959 36 23 C35.21053391 25.68507329 35.21053391 25.68507329 35 28 C30 23 30 23 27.6875 20.625 C19.4877874 12.6159784 10.85455409 6.06797731 0 2 C0 1.34 0 0.68 0 0 Z " fill="#FFFFFF" transform="translate(186,146)"/>
<path d="M0 0 C2.61553262 1.96164947 4.81855867 3.76443776 6.8203125 6.36328125 C13.57458899 14.53377701 24.54199223 21.71825285 35 24 C35 24.66 35 25.32 35 26 C10.91606965 27.25457991 -12.90841239 27.03857337 -37 26 C-37 25.34 -37 24.68 -37 24 C-36.24904053 23.65743164 -35.49808105 23.31486328 -34.72436523 22.96191406 C-31.90707305 21.67482847 -29.09116379 20.384775 -26.27612305 19.09277344 C-24.47092267 18.26532002 -22.66418566 17.44122161 -20.85742188 16.6171875 C-9.39287218 12.28246661 -9.39287218 12.28246661 -1.5625 3.75 C-1.25441406 3.04359375 -0.94632813 2.3371875 -0.62890625 1.609375 C-0.42136719 1.07828125 -0.21382812 0.5471875 0 0 Z " fill="#FFFFFF" transform="translate(38,117)"/>
<path d="M0 0 C3 1 3 1 3.95703125 2.6015625 C4.23933594 3.26929688 4.52164063 3.93703125 4.8125 4.625 C8.29222322 11.97986953 12.75854546 16.37927273 20 20 C20 20.66 20 21.32 20 22 C18.96875 22.391875 17.9375 22.78375 16.875 23.1875 C11.63382029 25.45338375 7.97183019 28.52837142 4.8125 33.3125 C4.214375 34.199375 3.61625 35.08625 3 36 C2.01 36 1.02 36 0 36 C-1.3440093 34.00715862 -2.67541292 32.00580329 -4 30 C-8.07710625 26.10409847 -11.81218609 23.97136928 -17 22 C-17 21.34 -17 20.68 -17 20 C-16.195625 19.505 -15.39125 19.01 -14.5625 18.5 C-7.73435739 14.1651887 -2.14019186 7.80942348 0 0 Z " fill="#FFFFFF" transform="translate(128,190)"/>
<path d="M0 0 C21.01349756 8.76943411 41.93799725 17.73075653 57.73046875 34.72265625 C58.99424809 36.13009752 58.99424809 36.13009752 61 37 C61 37.66 61 38.32 61 39 C57.43755295 37.66748164 54.10279587 36.0479394 50.73535156 34.28393555 C44.38355757 30.97603496 38.00651582 28.07031367 31.25 25.6875 C30.53803467 25.43379639 29.82606934 25.18009277 29.0925293 24.91870117 C24.90943757 23.48597654 20.95211593 22.68075576 16.5625 22.0625 C9.99258221 20.60151 7.45903959 15.98247102 4.03149414 10.62133789 C1.90464539 7.0579217 0.69743923 4.12958606 0 0 Z " fill="#FFFFFF" transform="translate(148,42)"/>
<path d="M0 0 C0.99 0 1.98 0 3 0 C4.359375 1.57421875 4.359375 1.57421875 5.75 3.6875 C9.27506146 8.6454418 13.1194572 12.03981907 19 14 C19 14.66 19 15.32 19 16 C17.4609375 17.2265625 17.4609375 17.2265625 15.375 18.625 C9.74217001 22.69981318 5.97316064 27.74802669 3 34 C-0.72949864 32.75683379 -1.21956586 31.50246777 -3.3125 28.25 C-6.96573615 22.84351944 -10.5745501 19.6169666 -16 16 C-16 15.34 -16 14.68 -16 14 C-14.6696875 13.38125 -14.6696875 13.38125 -13.3125 12.75 C-7.77178866 9.82283175 -4.49455512 6.63559811 -1.2109375 1.390625 C-0.81132813 0.93171875 -0.41171875 0.4728125 0 0 Z " fill="#FFFFFF" transform="translate(128,62)"/>
<path d="M0 0 C0.98097656 0.50789062 1.96195313 1.01578125 2.97265625 1.5390625 C18.44805839 9.83614924 18.44805839 9.83614924 35.14453125 14.73046875 C46.14487211 16.53029128 46.14487211 16.53029128 50.1953125 21.40625 C53.85603251 26.50114412 57.23056699 31.6613376 58 38 C36.94773721 28.90659204 16.05008869 18.92102374 0 2 C0 1.34 0 0.68 0 0 Z " fill="#FFFFFF" transform="translate(53,209)"/>
<path d="M0 0 C0.66 0 1.32 0 2 0 C2.3403125 1.2065625 2.3403125 1.2065625 2.6875 2.4375 C3.120625 3.283125 3.55375 4.12875 4 5 C6.54775306 5.89386164 6.54775306 5.89386164 9 6 C8 9 8 9 5.5 10.4375 C2.84127915 11.74552024 2.84127915 11.74552024 2.1875 14.1875 C2.125625 14.785625 2.06375 15.38375 2 16 C1.34 16 0.68 16 0 16 C-0.226875 15.236875 -0.45375 14.47375 -0.6875 13.6875 C-2.26731682 10.45263699 -3.83282717 9.58358642 -7 8 C-6.67 7.34 -6.34 6.68 -6 6 C-5.360625 5.896875 -4.72125 5.79375 -4.0625 5.6875 C-3.381875 5.460625 -2.70125 5.23375 -2 5 C-0.70339566 2.50965614 -0.70339566 2.50965614 0 0 Z " fill="#FFFFFF" transform="translate(110,92)"/>
<path d="M0 0 C0.66 0 1.32 0 2 0 C2.2475 0.969375 2.495 1.93875 2.75 2.9375 C3.36875 4.4534375 3.36875 4.4534375 4 6 C6.03243548 6.96877057 6.03243548 6.96877057 8 7 C7.67 7.99 7.34 8.98 7 10 C6.34 10.309375 5.68 10.61875 5 10.9375 C2.79394438 11.82027141 2.79394438 11.82027141 2.25 14.125 C2.1675 14.74375 2.085 15.3625 2 16 C1.34 16 0.68 16 0 16 C-0.3403125 14.824375 -0.3403125 14.824375 -0.6875 13.625 C-1.78125 10.78125 -1.78125 10.78125 -4.625 9.6875 C-5.40875 9.460625 -6.1925 9.23375 -7 9 C-7 8.34 -7 7.68 -7 7 C-5.35 6.67 -3.7 6.34 -2 6 C-1.34 4.02 -0.68 2.04 0 0 Z " fill="#FFFFFF" transform="translate(148,181)"/>
<path d="M0 0 C0.66 0.33 1.32 0.66 2 1 C2.33 1.99 2.66 2.98 3 4 C5.50447516 5.21869929 5.50447516 5.21869929 8 6 C8 6.66 8 7.32 8 8 C7.195625 8.268125 6.39125 8.53625 5.5625 8.8125 C4.716875 9.204375 3.87125 9.59625 3 10 C2.67 10.99 2.34 11.98 2 13 C1.34 13 0.68 13 0 13 C-0.33 11.68 -0.66 10.36 -1 9 C-3.97 8.505 -3.97 8.505 -7 8 C-7 7.34 -7 6.68 -7 6 C-6.21625 5.7525 -5.4325 5.505 -4.625 5.25 C-1.67682892 3.84610901 -1.0975223 2.99324263 0 0 Z " fill="#FFFFFF" transform="translate(147,93)"/>
<path d="M0 0 C0.66 0 1.32 0 2 0 C2.268125 0.639375 2.53625 1.27875 2.8125 1.9375 C3.88667752 4.33131686 3.88667752 4.33131686 7 5 C6 8 6 8 4 9 C2.86649466 11.01669827 2.86649466 11.01669827 2 13 C1.34 13 0.68 13 0 13 C-0.12375 12.071875 -0.12375 12.071875 -0.25 11.125 C-0.81258459 8.81562433 -0.81258459 8.81562433 -3.0625 7.75 C-3.701875 7.5025 -4.34125 7.255 -5 7 C-5 6.34 -5 5.68 -5 5 C-3.68 4.67 -2.36 4.34 -1 4 C-0.67 2.68 -0.34 1.36 0 0 Z " fill="#FFFFFF" transform="translate(108,183)"/>
<path d="" fill="#FFFFFF" transform="translate(0,0)"/>
<path d="" fill="#FFFFFF" transform="translate(0,0)"/>
</svg>
