<svg xmlns="http://www.w3.org/2000/svg" width="192" height="192" viewBox="0 0 192 192">
  <rect width="192" height="192" rx="16" fill="#FF4655"/>
  <g transform="translate(96, 96) scale(0.35) translate(-96, -96)" opacity="0.25">
    <path d="M0 0 C1.00752823 -0.00990463 2.01505646 -0.01980927 3.05311584 -0.03001404 C4.1579834 -0.02551239 5.26285095 -0.02101074 6.40119934 -0.01637268 C8.14820885 -0.02666756 8.14820885 -0.02666756 9.93051147 -0.03717041 C13.79822346 -0.05553408 17.66553297 -0.05158328 21.53327942 -0.0459137 C23.54514793 -0.04838946 25.55700649 -0.05273701 27.56887132 -0.05726677 C33.90820728 -0.07133163 40.24740864 -0.06974149 46.58674622 -0.05836487 C53.09010556 -0.04695035 59.59304929 -0.06084121 66.09635371 -0.08776134 C71.70089343 -0.11007839 77.30530432 -0.11651809 82.90988523 -0.11068493 C86.24722317 -0.10734359 89.58408725 -0.11128914 92.92142296 -0.12693596 C116.68797377 -0.22256312 139.21583216 1.66961518 157.11531067 19.38768005 C163.21307689 26.36493179 168.00724196 33.64623681 171.11531067 42.38768005 C171.70312317 44.03703552 171.70312317 44.03703552 172.30281067 45.7197113 C178.1837873 65.22086644 177.55153775 89.13920346 168.30281067 107.51268005 C165.5786786 112.05290017 162.36653084 116.17735142 158.11531067 119.38768005 C157.45531067 119.38768005 156.79531067 119.38768005 156.11531067 119.38768005 C158.01716847 126.32138483 159.91948571 133.25496346 161.82209778 140.1884613 C162.46705622 142.53901935 163.11191583 144.88960451 163.75666809 147.24021912 C164.3830718 149.52389137 165.00962721 151.80752203 165.63633728 154.09111023 C166.2533583 156.33965128 166.86995826 158.58830792 167.48612976 160.83708191 C168.87052815 165.88372223 170.26284605 170.92759595 171.68806458 175.96287537 C171.92402847 176.79936615 172.15999237 177.63585693 172.40310669 178.49769592 C172.83524505 180.02582167 173.27055628 181.55305535 173.7097168 183.07917786 C174.52185963 185.95427456 175.11531067 188.38248341 175.11531067 191.38768005 C164.98774165 191.45741376 154.86023043 191.51060951 144.73246956 191.54311657 C140.02894185 191.55872405 135.32557929 191.57987175 130.62214661 191.61399841 C126.07690193 191.6467682 121.5318154 191.66456999 116.98646164 191.67231178 C115.25864551 191.67782383 113.53083733 191.68858697 111.80308914 191.70487022 C94.11825065 191.8648034 94.11825065 191.8648034 86.11531067 188.38768005 C85.4303804 188.17091614 84.74545013 187.95415222 84.0397644 187.7308197 C81.05393875 185.64691363 80.33821519 182.61070097 79.21516418 179.29075623 C78.96113358 178.57671474 78.70710299 177.86267324 78.44537449 177.12699413 C77.65306289 174.885659 76.88238715 172.63776208 76.11531067 170.38768005 C75.64835547 169.04060776 75.18107134 167.69364942 74.71342468 166.34681702 C73.28975125 162.2190401 71.90286968 158.07926825 70.51765442 153.9384613 C70.00095714 152.40107104 69.48396137 150.86378108 68.96669006 149.32658386 C67.88271191 146.10436803 66.80007476 142.88170635 65.71842957 139.65870667 C62.92930849 131.35115768 60.1230323 123.04938927 57.31843567 114.74705505 C57.04499517 113.93751436 56.77155468 113.12797367 56.48982811 112.29390144 C54.92983714 107.67554528 53.36933908 103.05736078 51.80851746 98.43928528 C51.16275325 96.52809046 50.51754976 94.61670621 49.87239075 92.70530701 C47.96056931 87.04361338 46.03943337 81.38548678 44.08921814 75.7368927 C43.56973002 74.22632711 43.05488663 72.71415526 42.54496765 71.20033264 C41.86588946 69.18665752 41.17100125 67.17923739 40.47077942 65.1728363 C39.92393494 63.57774231 39.92393494 63.57774231 39.36604309 61.95042419 C37.97197035 59.09397649 36.86402195 57.94265416 34.11531067 56.38768005 C29.7193763 55.74827142 27.84434478 55.87580504 24.17781067 58.45018005 C21.57903789 62.15146249 21.81321288 63.92552682 22.11531067 68.38768005 C22.89629779 71.6999112 22.89629779 71.6999112 24.0962677 75.04930115 C24.30812304 75.67771943 24.51997839 76.30613771 24.73825359 76.95359898 C25.43983612 79.02634228 26.156369 81.09357671 26.87312317 83.16111755 C27.37443174 84.63228329 27.87479322 86.10377205 28.37426758 87.57556152 C29.70883552 91.49960053 31.05628299 95.41910041 32.40636063 99.33782578 C33.79629336 103.37929608 35.17438013 107.42480009 36.55354309 111.46995544 C38.73277101 117.85727676 40.91851919 124.24232493 43.10993958 130.62547302 C45.6599245 138.05351375 48.19529544 145.48642529 50.72077942 152.9228363 C54.15575736 163.03049571 54.15575736 163.03049571 57.60359192 173.1337738 C58.23068054 174.96960022 58.23068054 174.96960022 58.87043762 176.84251404 C59.79358435 179.47146357 60.762449 182.0585427 61.77229309 184.65354919 C63.11531067 188.38768005 63.11531067 188.38768005 63.11531067 191.38768005 C54.30106375 191.45714973 45.48691088 191.51047571 36.67245007 191.54311657 C32.57965624 191.55878151 28.48704953 191.58003464 24.3943634 191.61399841 C20.44566315 191.64656273 16.49714302 191.66452682 12.54831886 191.67231178 C11.04079159 191.6778606 9.53327431 191.688696 8.02582359 191.70487022 C5.91635608 191.72660635 3.80763558 191.7296487 1.69807434 191.72825623 C0.49672348 191.73491806 -0.70462738 191.7415799 -1.94238281 191.7484436 C-4.88468933 191.38768005 -4.88468933 191.38768005 -6.54477406 190.32537556 C-8.56813909 187.3993209 -8.29803698 184.45624864 -8.26564026 181.02378845 C-8.27032023 180.26788469 -8.2750002 179.51198092 -8.27982199 178.73317099 C-8.29181659 176.19270023 -8.28229758 173.65276447 -8.27287292 171.11228943 C-8.27693665 169.29407434 -8.28227741 167.47586173 -8.2888031 165.65765381 C-8.30250619 160.7135115 -8.29716572 155.76955652 -8.28766584 150.82541084 C-8.28008473 145.65780752 -8.28711054 140.49022052 -8.29182434 135.32261658 C-8.29728641 126.64359143 -8.29007843 117.96464281 -8.27580261 109.28562927 C-8.25947525 99.24323377 -8.26476344 89.20102097 -8.28128183 79.15862989 C-8.29488383 70.5454144 -8.29682266 61.932254 -8.28896582 53.31903124 C-8.28428222 48.17079707 -8.28368328 43.02264885 -8.29357529 37.87442017 C-8.30222398 33.03498952 -8.29626153 28.19579506 -8.27889252 23.35639 C-8.27491643 21.57738831 -8.2760808 19.79836683 -8.28268051 18.01937294 C-8.29084202 15.59650168 -8.2806405 13.17439387 -8.26564026 10.75157166 C-8.27233242 10.0425311 -8.27902459 9.33349055 -8.28591955 8.60296392 C-8.25241735 5.82561274 -8.16538187 3.8336523 -6.66617298 1.45166683 C-4.32046372 0.05069768 -2.73068067 0.00757344 0 0 Z" fill="#FFFFFF" transform="translate(12.884689331054688,0.6123199462890625)"/>
  </g>
</svg>
