<?xml version="1.0" encoding="UTF-8"?>
<!-- Generator: visioncortex VTracer 0.6.4 -->
<svg version="1.1" xmlns="http://www.w3.org/2000/svg" width="4000" height="1045">
<path d="M0 0 C1.24310686 -0.00420695 2.48621371 -0.0084139 3.76699047 -0.01274834 C7.20352166 -0.02136085 10.63955509 -0.01663767 14.07604905 -0.00617849 C17.8338361 0.00190707 21.59158765 -0.00753988 25.34937099 -0.01468903 C31.95598998 -0.02485475 38.56253471 -0.02388429 45.16915531 -0.0156384 C55.05949183 -0.00334978 64.9497682 -0.00839139 74.8401061 -0.01678632 C91.69670821 -0.03058548 108.55328317 -0.03013671 125.40988773 -0.02194369 C142.49313193 -0.01369107 159.57635826 -0.01194798 176.65960354 -0.01815569 C177.73843784 -0.01854321 178.81727215 -0.01893073 179.92879841 -0.01932999 C184.32269085 -0.02092979 188.71658326 -0.02257592 193.11047566 -0.02428082 C234.04109046 -0.04015139 274.97169329 -0.04122381 315.90230983 -0.03283846 C317.11531079 -0.03259008 318.32831175 -0.03234169 319.57807031 -0.03208578 C320.79300773 -0.03183699 322.00794516 -0.0315882 323.25969887 -0.03133187 C360.25491365 -0.02376609 397.25012347 -0.0218064 434.24533886 -0.0253998 C436.72151315 -0.02563224 439.19768745 -0.02586371 441.67386174 -0.02609421 C451.62425906 -0.02702559 461.57465637 -0.02798159 471.52505368 -0.02897351 C499.3414277 -0.03172469 527.15780173 -0.03343637 554.97417587 -0.03433192 C556.24092463 -0.03437286 557.50767339 -0.03441379 558.81280847 -0.03445597 C599.18409116 -0.03568402 639.55537213 -0.03230201 679.92665428 -0.02578318 C681.23629169 -0.02557243 682.54592909 -0.02536169 683.89525248 -0.02514455 C705.1636991 -0.0217096 726.43214568 -0.01805226 747.70059225 -0.01437403 C814.01929657 -0.00291247 880.33799453 0.00336788 998.77625847 -0.01472003 C1020.70192445 -0.01850964 1042.62759043 -0.02225509 1064.55325645 -0.02578318 C1065.86218924 -0.02599453 1067.17112202 -0.02620587 1068.51971944 -0.02642362 C1108.84934133 -0.0328908 1149.17896204 -0.03563526 1189.50858444 -0.03433192 C1191.40729681 -0.03427079 1191.40729681 -0.03427079 1193.344367 -0.03420842 C1221.12908241 -0.03327105 1248.9137977 -0.03137025 1276.69851298 -0.02860041 C1286.63976603 -0.02761296 1296.58101908 -0.02667372 1306.52227214 -0.02574828 C1308.9954607 -0.02551611 1311.46864926 -0.02527992 1313.94183782 -0.02503969 C1350.92920773 -0.02145686 1387.91657207 -0.02451221 1424.90394129 -0.03208578 C1426.11702504 -0.03233416 1427.33010879 -0.03258255 1428.57995266 -0.03283846 C1429.79080457 -0.03308651 1431.00165648 -0.03333456 1432.24920087 -0.03359012 C1473.05919182 -0.04185876 1513.86916838 -0.03883321 1554.67915726 -0.02299623 C1559.05869306 -0.02133912 1563.43822887 -0.01972901 1567.8177647 -0.01815569 C1569.43001544 -0.01756976 1569.43001544 -0.01756976 1571.07483689 -0.016972 C1588.1147441 -0.01104786 1605.15463346 -0.01518194 1622.19453906 -0.02346271 C1638.93748 -0.03138598 1655.68039076 -0.0286359 1672.42332786 -0.01442045 C1682.24684732 -0.00639862 1692.07028411 -0.00660935 1701.89379967 -0.01886524 C1708.41286544 -0.02618135 1714.93186668 -0.02267499 1721.45092462 -0.01026468 C1725.14964214 -0.00352838 1728.84819471 -0.00146838 1732.54690501 -0.01271423 C1736.52179427 -0.02469564 1740.49642753 -0.0134671 1744.47131634 0 C1745.60917937 -0.00717223 1746.74704241 -0.01434445 1747.91938614 -0.02173402 C1757.3143102 0.04324242 1766.67421013 0.91557874 1773.67298359 7.75104749 C1774.46704609 8.50128187 1775.26110859 9.25151624 1776.07923359 10.02448499 C1782.93203922 17.72110625 1783.47018899 25.5614491 1783.44040912 35.4252876 C1783.44720579 37.08152292 1783.44720579 37.08152292 1783.45413977 38.77121753 C1783.46678769 42.46660393 1783.46516311 46.16184303 1783.46351093 49.85724866 C1783.46949598 52.5087333 1783.47624507 55.16020647 1783.48386616 57.81168592 C1783.50045411 64.26443679 1783.50597473 70.71715112 1783.50709091 77.16992154 C1783.50804256 82.41803622 1783.51215871 87.66613889 1783.51849216 92.91424978 C1783.53609963 107.80858108 1783.54533197 122.70288361 1783.54383121 137.59722539 C1783.54371135 138.80077334 1783.54371135 138.80077334 1783.54358906 140.02863538 C1783.54346641 141.23366093 1783.54346641 141.23366093 1783.54334129 142.46303044 C1783.54252884 155.47487944 1783.56165749 168.48661257 1783.58986579 181.49842807 C1783.61863175 194.87354264 1783.632404 208.24860077 1783.63067824 221.62374705 C1783.63001555 229.12693068 1783.63545432 236.62999287 1783.65703434 244.13314855 C1783.67529523 250.52303182 1783.67955352 256.91273862 1783.66601549 263.30263676 C1783.65950997 266.55891736 1783.66147751 269.81479164 1783.67672199 273.07105291 C1783.69221957 276.61163036 1783.68283529 280.15132983 1783.66745991 283.69188917 C1783.67774703 284.70660722 1783.68803416 285.72132527 1783.69863302 286.76679236 C1783.61983543 295.02193791 1782.25441746 303.72698106 1776.79798359 310.18854749 C1775.49860859 311.27135999 1775.49860859 311.27135999 1774.17298359 312.37604749 C1773.2242204 313.55456814 1772.28743989 314.74279898 1771.36048359 315.93854749 C1765.76491624 322.48806652 1758.41901885 324.15778993 1750.17298359 325.37604749 C1746.68002269 325.62605248 1743.20804295 325.63871811 1739.70725483 325.61655653 C1738.7023238 325.61826537 1737.69739278 325.61997422 1736.6620093 325.62173486 C1733.32102923 325.62500854 1729.98025351 325.61406115 1726.63929218 325.60309827 C1724.23390689 325.6025337 1721.82852126 325.60285162 1719.42313617 325.60398328 C1713.58641514 325.60449664 1707.74976018 325.59585321 1701.91305421 325.58310796 C1695.11696542 325.56876667 1688.32088579 325.56581379 1681.52478398 325.56353162 C1669.40668948 325.55916261 1657.28862202 325.54587512 1645.17054218 325.5269264 C1633.40426751 325.508547 1621.6380002 325.4944006 1609.87171406 325.48591077 C1609.14551437 325.48538533 1608.41931468 325.48485988 1607.67110895 325.48431851 C1604.02770195 325.48170829 1600.3842949 325.47918091 1596.74088782 325.4766947 C1566.55156706 325.45598694 1536.36227909 325.42063364 1506.17298359 325.37604749 C1506.17462138 326.24784156 1506.17462138 326.24784156 1506.17629227 327.13724763 C1506.29492777 390.41895463 1506.4048642 453.70067427 1506.46938556 516.98246229 C1506.47035196 517.92787312 1506.47131836 518.87328395 1506.47231405 519.84734359 C1506.49326483 540.39410051 1506.51265604 560.94085862 1506.53044089 581.48761851 C1506.53917218 591.56387245 1506.54824807 601.64012606 1506.55750507 611.71637952 C1506.55842038 612.71908319 1506.5593357 613.72178685 1506.56027875 614.75487547 C1506.59010352 647.25028012 1506.64267918 679.74559952 1506.70706413 712.24095253 C1506.77311263 745.63659504 1506.81618641 779.03219037 1506.83038852 812.42789709 C1506.83240558 817.14575068 1506.83468503 821.86360411 1506.83712429 826.5814575 C1506.83783223 827.9742573 1506.83783223 827.9742573 1506.83855447 829.39519447 C1506.84682369 844.33677612 1506.87928244 859.27821183 1506.92080782 874.21973398 C1506.96204683 889.24422861 1506.9777524 904.26857868 1506.96749323 919.29312791 C1506.9621727 928.21752451 1506.97633064 937.14139166 1507.01856639 946.06569257 C1507.04487257 952.03228217 1507.04558983 957.99852625 1507.02580628 963.96513998 C1507.01526676 967.36203526 1507.01946519 970.75712291 1507.04716586 974.15404059 C1507.26782057 1002.88600814 1507.26782057 1002.88600814 1496.55591047 1014.12089014 C1485.41489227 1024.66454102 1474.9513523 1025.82607861 1460.00403827 1025.75699842 C1458.36911053 1025.76045904 1456.73418513 1025.76522632 1455.09926456 1025.77118015 C1450.62607691 1025.78366422 1446.15308211 1025.7775316 1441.67989391 1025.7682215 C1436.84819101 1025.76142071 1432.01652077 1025.77191734 1427.18482441 1025.78016126 C1417.72721045 1025.79348978 1408.26966798 1025.79062477 1398.81205124 1025.78192334 C1391.12453542 1025.77514374 1383.43703962 1025.77423127 1375.74952167 1025.77749479 C1374.10732029 1025.77818434 1374.10732029 1025.77818434 1372.43194312 1025.77888782 C1370.20776377 1025.77984701 1367.98358442 1025.78081965 1365.75940508 1025.78180559 C1344.91118796 1025.7903569 1324.06301044 1025.7805294 1303.21479982 1025.76440449 C1285.33235167 1025.75100155 1267.44996194 1025.75332972 1249.56751484 1025.76716077 C1228.79307192 1025.78322114 1208.01866369 1025.78953296 1187.24421543 1025.78032398 C1185.02829212 1025.77936835 1182.81236882 1025.77842524 1180.5964455 1025.77749479 C1179.50621483 1025.77703196 1178.41598417 1025.77656914 1177.29271621 1025.77609228 C1169.61587465 1025.77350377 1161.93905513 1025.77787041 1154.26221699 1025.78493345 C1144.90465931 1025.7933537 1135.54717711 1025.79105721 1126.18962806 1025.77509122 C1121.41674945 1025.76721562 1116.64399661 1025.76410482 1111.87111896 1025.77403867 C1107.49897422 1025.78300074 1103.12707145 1025.77802783 1098.75494856 1025.76210602 C1097.17634755 1025.75876462 1095.59772596 1025.76043781 1094.01913828 1025.76773338 C1080.51316719 1025.82534708 1069.65131681 1024.23777466 1059.45423359 1014.78229749 C1053.31016157 1008.13666857 1049.04708383 999.69515688 1049.04878509 990.5831939 C1049.0465378 989.6138152 1049.0442905 988.6444365 1049.04197511 987.64568269 C1049.04460212 986.5812793 1049.04722914 985.51687591 1049.04993576 984.42021787 C1049.04878191 983.28439213 1049.04762807 982.14856638 1049.04643926 980.97832167 C1049.04424084 977.81143826 1049.04655077 974.64459423 1049.05071739 971.47771394 C1049.0541457 968.03781941 1049.05178192 964.59792818 1049.0501399 961.15803301 C1049.04806367 955.12458487 1049.04971419 949.09114657 1049.05377811 943.05769956 C1049.05980429 934.08613453 1049.06011474 925.11457572 1049.05923612 916.14300903 C1049.05792105 901.05262379 1049.06126808 885.96224292 1049.06725353 870.87185895 C1049.07316645 855.92610373 1049.07701865 840.98035033 1049.07810634 826.03459394 C1049.07817508 825.10601656 1049.07824382 824.17743917 1049.07831465 823.22072308 C1049.07865297 818.50512882 1049.07895436 813.78953457 1049.07924152 809.07394031 C1049.08134307 775.65576125 1049.08808359 742.23758458 1049.09754413 708.81940687 C1049.10672549 676.35000595 1049.11379371 643.88060569 1049.11805195 611.41120374 C1049.11832259 609.37013805 1049.11859329 607.32907236 1049.11886406 605.28800666 C1049.12105277 588.7040344 1049.12309537 572.12006212 1049.12510254 555.53608984 C1049.13449342 478.81607347 1049.15456292 402.09606331 1049.17298359 325.37604749 C839.95298359 325.37604749 630.73298359 325.37604749 415.17298359 325.37604749 C415.17298359 342.53604749 415.17298359 359.69604749 415.17298359 377.37604749 C423.09701191 377.35510023 431.02104023 377.33415296 439.18519062 377.31257093 C464.57483727 377.24829327 489.96448177 377.20384435 515.35418833 377.17178617 C519.30176222 377.16678369 523.24933585 377.16160637 527.19690937 377.15632093 C527.98275932 377.15527169 528.76860928 377.15422245 529.57827286 377.15314141 C542.28204461 377.13576335 554.98574353 377.10424009 567.68947215 377.06743631 C580.73665839 377.02995436 593.78380663 377.00779635 606.8310445 376.99969351 C614.87390258 376.99422073 622.91655477 376.97697165 630.95934944 376.94438162 C637.13943651 376.9206238 643.31936848 376.91824588 649.49949497 376.92361677 C652.02534222 376.92252052 654.5511976 376.91462016 657.07699817 376.89922559 C689.17024212 376.71329056 689.17024212 376.71329056 700.27845234 386.39948499 C703.48999446 389.75008358 706.05231864 393.24821798 708.17298359 397.37604749 C708.50023394 397.94835442 708.8274843 398.52066135 709.16465133 399.11031091 C713.60568465 408.14608971 712.74169329 417.94946281 712.70643085 427.76594007 C712.71349581 429.83497199 712.72224324 431.90399873 712.73253864 433.9730171 C712.75498005 439.57237797 712.75210471 445.17145547 712.74321717 450.7708441 C712.73809456 455.45498362 712.74541036 460.13907048 712.75268924 464.82320458 C712.76967235 475.87968436 712.76613922 486.93602608 712.7493996 497.99250257 C712.73248692 509.37606056 712.74830495 520.75923484 712.78062248 532.14275092 C712.80736785 541.936734 712.8145808 551.730598 712.8061074 561.52461392 C712.80119179 567.36505381 712.80331961 573.20526303 712.82389492 579.04567373 C712.84232917 584.54113366 712.83619867 590.0360445 712.81169552 595.53147542 C712.80671182 597.5401047 712.81011337 599.54877638 712.82284397 601.5573715 C712.90610339 615.83088649 711.83982801 628.02804269 702.18470234 639.44245374 C693.13080229 648.14474602 682.17492485 650.84234295 669.99230427 650.73681104 C668.89838951 650.73937432 667.80447476 650.74193759 666.67741108 650.74457854 C663.02921729 650.74950133 659.38144169 650.73304789 655.73328632 650.71662366 C653.11130257 650.71577707 650.48931812 650.71625317 647.86733478 650.71795118 C642.23127874 650.71952017 636.59532733 650.71015028 630.9592976 650.69323766 C622.81067779 650.66880125 614.66210829 650.66103766 606.51345582 650.65727369 C593.2911311 650.65071647 580.06886207 650.63077515 566.84656757 650.60236585 C554.00640112 650.57480637 541.16624983 650.55358205 528.32605976 650.54084241 C527.53388345 650.54005424 526.74170713 650.53926607 525.92552548 650.53845402 C521.95119833 650.53453875 517.97687107 650.53074767 514.00254375 650.52701831 C481.05931649 650.49594512 448.11615751 650.44312925 415.17298359 650.37604749 C415.17469233 651.45901808 415.17469233 651.45901808 415.17643559 652.56386685 C415.24357941 695.36053674 415.29504813 738.1572009 415.32617958 780.95391291 C415.32993167 786.09332244 415.33381464 791.23273187 415.33777851 796.37214124 C415.33856544 797.395299 415.33935237 798.41845677 415.34016315 799.47261931 C415.35321472 816.0363543 415.3768672 832.60005803 415.40444198 849.16377448 C415.43250308 866.16146734 415.44916134 883.15914384 415.45524907 900.15685892 C415.45936404 910.64415081 415.47235787 921.13135435 415.49673299 931.61861904 C415.51259886 938.8115132 415.51738201 946.00436172 415.51348772 953.19727211 C415.51156751 957.34631749 415.51449757 961.49520854 415.53060001 965.64422643 C415.54524992 969.44683377 415.54590314 973.24918368 415.53568027 977.05180313 C415.53382206 979.07050316 415.54671505 981.08920037 415.56022751 983.10785604 C415.52443451 990.38681802 414.7638487 996.56134325 412.17298359 1003.37604749 C411.78490796 1004.44150763 411.78490796 1004.44150763 411.38899243 1005.52849221 C408.56486199 1012.81574454 401.9255863 1018.98619867 395.02235025 1022.45749462 C386.63171574 1025.8829799 378.53382794 1025.93803397 369.62476581 1025.88398206 C367.96081174 1025.88859722 366.29686175 1025.89495424 364.63292021 1025.90289104 C360.0840634 1025.91952314 355.53554411 1025.91136597 350.98668641 1025.89894617 C346.07180857 1025.88987285 341.1569876 1025.9038767 336.24212116 1025.91486585 C326.6232 1025.93263132 317.00440385 1025.92881986 307.38547784 1025.91721529 C299.56641111 1025.90817349 291.74737936 1025.9069602 283.9283089 1025.91131055 C282.81450467 1025.91192349 281.70070043 1025.91253642 280.55314454 1025.91316792 C278.29031345 1025.91444685 276.02748237 1025.91574371 273.7646513 1025.91705829 C252.55728754 1025.92845831 231.349993 1025.91535943 210.14264059 1025.89385682 C191.95464084 1025.87598638 173.76674321 1025.87909065 155.57874531 1025.89753187 C134.4461012 1025.91894876 113.31351772 1025.92735973 92.18086427 1025.91508281 C89.92646228 1025.91380865 87.67206028 1025.91255116 85.41765827 1025.91131055 C83.75394266 1025.9103849 83.75394266 1025.9103849 82.05661663 1025.90944055 C74.24898067 1025.90599011 66.44138324 1025.9118094 58.63375324 1025.92122877 C49.11592907 1025.93245921 39.59823681 1025.92938666 30.08042771 1025.90810579 C25.22637599 1025.89760951 20.37254405 1025.89344933 15.51849407 1025.9067024 C11.07102076 1025.91866154 6.62397 1025.91200591 2.17653477 1025.89079219 C0.57170289 1025.88634102 -1.03316503 1025.88855886 -2.63797355 1025.89829534 C-14.28594183 1025.96351802 -24.64708391 1024.77737878 -33.97936016 1017.20807874 C-41.32995538 1009.919645 -46.53352509 1000.67204098 -46.95357825 990.22980677 C-46.95431723 989.03386877 -46.95505621 987.83793077 -46.95581758 986.60575223 C-46.95848009 985.59719941 -46.95848009 985.59719941 -46.9611964 984.56827178 C-46.96594184 982.30657485 -46.96356206 980.04494155 -46.96123749 977.78324163 C-46.96319037 976.14182615 -46.9655792 974.50041114 -46.96836546 972.85899687 C-46.97477655 968.32477772 -46.9749262 963.79057626 -46.97408805 959.25635344 C-46.97425733 954.33232995 -46.98016099 949.40831283 -46.98532891 944.48429251 C-46.99466479 934.70746911 -46.99857862 924.93065023 -47.00084788 915.15382293 C-47.00380735 903.447576 -47.0125032 891.7413351 -47.02126216 880.03509133 C-47.04211712 851.73942828 -47.05258108 823.44376358 -47.06139177 795.14809472 C-47.06432561 785.77831952 -47.06769548 776.40854455 -47.07135898 767.0387696 C-47.07161727 766.37778524 -47.07187556 765.71680087 -47.07214168 765.03578667 C-47.0731879 762.36168452 -47.07423633 759.68758237 -47.0752875 757.01348022 C-47.09325195 711.27295219 -47.10863128 665.53242379 -47.11604653 619.79189273 C-47.1166305 616.19901233 -47.11722777 612.60613194 -47.11782415 609.01325155 C-47.11794227 608.300537 -47.11806039 607.58782245 -47.11818209 606.85351049 C-47.11937948 599.63268978 -47.12058824 592.41186908 -47.12181462 585.19104838 C-47.12205985 583.74325083 -47.12230371 582.29545329 -47.12254619 580.84765574 C-47.13033643 534.34664238 -47.15272114 487.84565424 -47.18522262 441.3446519 C-47.20856748 407.93308097 -47.23011957 374.52151506 -47.23722893 341.10993612 C-47.23737595 340.42284836 -47.23752297 339.7357606 -47.23767445 339.02785201 C-47.24085924 323.9446942 -47.24291015 308.86153644 -47.243902 293.77837833 C-47.24431674 287.70955659 -47.24487163 281.64073485 -47.24546391 275.57191312 C-47.24552458 274.90771866 -47.24558524 274.2435242 -47.24564775 273.55920263 C-47.24772626 251.50058291 -47.26320299 229.44199552 -47.28430575 207.38338655 C-47.3045374 185.89485752 -47.31005365 164.40636408 -47.30053512 142.91782729 C-47.29530994 130.14480602 -47.30124562 117.371903 -47.32306979 104.59889869 C-47.33654225 96.07090169 -47.3355324 87.54298641 -47.32266783 79.01498867 C-47.31574757 74.1532287 -47.31518217 69.2916954 -47.33222792 64.42995535 C-47.34761397 60.00561096 -47.34452964 55.58167577 -47.32681764 51.1573436 C-47.32367208 49.56814095 -47.32720617 47.97890713 -47.33830939 46.38974015 C-47.41666313 34.39210634 -45.85186943 22.90214852 -37.82701641 13.37604749 C-37.16701641 13.37604749 -36.50701641 13.37604749 -35.82701641 13.37604749 C-35.57693829 12.77921155 -35.32686016 12.18237562 -35.06920391 11.56745374 C-32.39075154 6.84225947 -27.16090738 4.18750454 -22.15247793 2.44615268 C-14.66503074 0.52381111 -7.71197334 -0.04871279 0 0 Z " fill="#3C3C3C" transform="translate(2207.827016413212,9.623952507972717)"/>
<path d="M0 0 C0.96231266 -0.00175304 1.92462533 -0.00350607 2.91609898 -0.00531223 C6.15995297 -0.00998614 9.4037624 -0.00750308 12.64761829 -0.00507832 C14.98963626 -0.00694566 17.33165391 -0.00924606 19.67367107 -0.01194364 C25.44850721 -0.01743494 31.22333093 -0.01824206 36.99816926 -0.01708278 C43.91600321 -0.01594725 50.83383024 -0.02058597 57.7516622 -0.02536215 C72.10623106 -0.03504521 86.46079635 -0.03784692 100.81536808 -0.03841921 C111.91996248 -0.03887901 123.02455549 -0.0409387 134.12914944 -0.04411983 C137.32773759 -0.04501746 140.52632574 -0.04590727 143.7249139 -0.04679471 C144.52020871 -0.04701576 145.31550352 -0.04723681 146.13489818 -0.04746456 C168.52099024 -0.05362282 190.90708181 -0.0575648 213.29317474 -0.05712128 C214.13774727 -0.0571057 214.98231981 -0.05709012 215.85248544 -0.05707407 C220.13281618 -0.05699096 224.41314692 -0.05689193 228.69347765 -0.05678936 C229.96851573 -0.05675944 229.96851573 -0.05675944 231.26931214 -0.05672892 C232.98828393 -0.05668848 234.70725572 -0.05664669 236.42622751 -0.05660353 C263.08570802 -0.05599271 289.74517574 -0.06345975 316.4046526 -0.07717609 C346.39124575 -0.09259804 376.3778305 -0.10113837 406.36442786 -0.10021287 C409.57464715 -0.10013825 412.78486643 -0.10008954 415.99508572 -0.10005856 C416.78544982 -0.1000469 417.57581393 -0.10003525 418.39012847 -0.10002324 C431.02078553 -0.09999267 443.65143137 -0.10633532 456.28208512 -0.11499082 C469.03128752 -0.12354525 481.78047382 -0.12439753 494.52967753 -0.1178815 C501.4147616 -0.11455079 508.29980352 -0.11444049 515.18488407 -0.12323475 C539.53993284 -0.15231869 563.86619128 -0.13125927 588.19818592 1.03444195 C589.04433028 1.07437402 589.89047464 1.1143061 590.76225974 1.15544824 C614.45160885 2.3113856 637.35733593 6.4692237 660.51573658 11.48849773 C663.01484308 12.01787705 665.51265453 12.51296198 668.02599049 12.9684782 C677.33393256 14.65810464 686.13206627 17.38309877 695.09825611 20.33908367 C697.49163139 21.11372095 699.89345167 21.84856352 702.30333424 22.5700407 C712.95965008 25.77912603 723.13421156 29.67834605 733.31798267 34.1613493 C735.37398106 35.057287 737.43968692 35.92134597 739.51427174 36.7731657 C757.74766126 44.34632368 774.78727478 54.41515415 791.03770924 65.56613445 C792.24233814 66.386945 792.24233814 66.386945 793.47130299 67.22433758 C806.92350273 76.43593302 806.92350273 76.43593302 811.53770924 81.12863445 C812.81471168 82.10642293 814.10737765 83.06399888 815.41270924 84.00363445 C818.75967124 86.47880125 821.62769634 89.14400585 824.53770924 92.12863445 C825.69736676 93.11609225 826.86452399 94.09478753 828.03770924 95.06613445 C831.27982994 97.79707846 833.82953495 100.86493723 836.53770924 104.12863445 C837.99595922 105.33327575 839.45488116 106.53735031 840.93224049 107.7184782 C844.1373844 110.53370194 846.80202702 113.86660957 849.53770924 117.12863445 C850.32145924 118.05675945 851.10520924 118.98488445 851.91270924 119.94113445 C852.78821222 121.00322003 853.66312695 122.06579059 854.53770924 123.12863445 C855.20673267 123.93043133 855.87575611 124.7322282 856.56505299 125.55832195 C863.88912626 134.39728901 870.64006232 143.47951339 876.70958424 153.2262907 C877.960329 155.21198165 879.24338996 157.17758235 880.55333424 159.1247282 C885.46074206 166.47701366 889.74821391 174.04681201 893.85020924 181.87863445 C894.35382984 182.83673016 894.85745045 183.79482586 895.37633228 184.78195477 C898.10158792 190.05863942 900.50493295 195.3518232 902.64586353 200.8903532 C903.85781005 203.93199723 905.32112638 206.82758808 906.78770924 209.75363445 C911.35188281 219.19696856 914.40065891 229.19505247 917.57823658 239.1691618 C918.23056277 241.18124781 918.9035849 243.18671645 919.59483814 245.18576336 C921.47612218 250.6295714 923.02267099 255.92931332 924.0543108 261.59543133 C924.77234836 265.35823825 925.72036198 269.05785916 926.64391041 272.77463055 C932.6889947 297.1814904 935.74445685 321.10202935 937.53770924 346.12863445 C937.64792408 347.62499432 937.64792408 347.62499432 937.76036549 349.15158367 C938.14116518 354.47569 938.40332936 359.79263344 938.53770924 365.12863445 C938.5596233 365.99311199 938.58153736 366.85758953 938.60411549 367.74826336 C939.01129401 387.24872128 937.88794625 406.68407542 936.53770924 426.12863445 C936.48679127 426.86499126 936.4358733 427.60134808 936.38341236 428.36001873 C935.13907685 446.10016753 933.22934313 463.47489525 929.27208424 480.84836102 C928.46527597 484.45217614 927.71891146 488.0659762 926.97520924 491.68332195 C923.69561184 507.39515331 919.43928368 522.43170696 913.58287525 537.40671062 C912.50858786 540.20447521 911.51396963 543.02338789 910.52208424 545.8512907 C908.86933728 550.42393134 906.87338158 554.59548901 904.47520924 558.81613445 C901.33095493 564.49251741 901.33095493 564.49251741 898.91270924 570.50363445 C897.44371085 574.37644838 895.56133111 577.33132134 893.20567799 580.7106657 C891.41816189 583.30193611 889.76015724 585.95406654 888.10020924 588.62863445 C882.95173817 596.74171962 876.92535049 603.97394725 870.53770924 611.12863445 C869.80165455 611.98070477 869.06559986 612.83277508 868.30724049 613.7106657 C864.32571181 618.26574793 860.72968118 621.94265167 855.53770924 625.12863445 C854.71270924 625.95363445 853.88770924 626.77863445 853.03770924 627.62863445 C850.39659304 630.26975065 847.73613277 632.20958033 844.53770924 634.12863445 C843.87770924 634.12863445 843.21770924 634.12863445 842.53770924 634.12863445 C842.53770924 634.78863445 842.53770924 635.44863445 842.53770924 636.12863445 C840.35020924 637.63644695 840.35020924 637.63644695 837.53770924 639.25363445 C836.14552174 640.06187664 836.14552174 640.06187664 834.72520924 640.88644695 C834.00333424 641.29636883 833.28145924 641.7062907 832.53770924 642.12863445 C833.91663687 650.0289735 836.06904025 657.59130708 838.41270924 665.25363445 C840.60207551 672.51516243 842.77649374 679.75056955 844.53770924 687.12863445 C846.54683306 695.51337787 849.06282805 703.73589297 851.5411272 711.99215984 C853.7573192 719.40581285 855.82514747 726.8364595 857.74229908 734.33224773 C859.43788268 740.90209942 861.39666301 747.37965304 863.38023853 753.86740398 C864.89584774 758.86613567 866.25500985 763.86218485 867.47520924 768.94113445 C869.07571358 775.57083864 871.01164419 782.0546927 873.03770924 788.56613445 C875.08519043 795.15312511 877.00560481 801.70084974 878.47520924 808.44113445 C880.36588957 817.10406395 883.03633907 825.51241532 885.72105885 833.95798016 C888.56181156 842.94627252 888.56181156 842.94627252 889.50645924 847.4997282 C890.72455047 853.3441855 892.55425165 859.00923183 894.30556202 864.71173382 C897.27008205 874.37656086 900.10987585 884.02207532 902.44005299 893.86300945 C904.2479056 901.16798459 906.53571999 908.35463171 908.72154713 915.553195 C910.36347027 920.99575608 911.88210819 926.39521333 913.04991627 931.95846844 C914.16835431 936.93434217 915.71027879 941.80695917 917.15099049 946.69699383 C918.70419867 952.03664993 920.10718374 957.39822414 921.42442799 962.80050945 C923.62190386 971.7568089 926.33783852 980.53115793 929.1077776 989.32419109 C931.79342117 997.87565424 934.15406758 1006.44319728 936.1961565 1015.17282391 C936.42319515 1016.13514179 936.6502338 1017.09745968 936.88415241 1018.08893871 C937.43736167 1020.43503582 937.98850726 1022.78159666 938.53770924 1025.12863445 C890.18834398 1025.17450138 841.83898104 1025.20969896 793.48959828 1025.23076511 C787.76995815 1025.23326626 782.05031806 1025.23585493 776.33067799 1025.23849773 C774.62279991 1025.23928467 774.62279991 1025.23928467 772.88041924 1025.24008749 C754.49100969 1025.24876899 736.10161276 1025.26452642 717.71221067 1025.28294004 C698.81601854 1025.30170207 679.91983299 1025.31276445 661.02363193 1025.31681144 C649.38173357 1025.31954348 637.73987089 1025.3281442 626.09798352 1025.34446739 C618.09389013 1025.35511223 610.08981495 1025.35821828 602.08571501 1025.35563721 C597.48106373 1025.35436747 592.87647439 1025.35618928 588.27183437 1025.3670454 C537.24009118 1025.48124305 537.24009118 1025.48124305 514.22520924 1020.25363445 C512.48980885 1019.88818523 512.48980885 1019.88818523 510.71934986 1019.5153532 C503.92099759 1018.04358429 497.32220474 1016.20287787 490.69762135 1014.08835125 C487.65873198 1013.16539103 484.62379124 1012.41616566 481.52989674 1011.7028532 C474.95292367 1010.09910854 468.86700294 1007.62125657 462.66270924 1004.94113445 C461.52229176 1004.45209637 460.38187428 1003.96305828 459.20689869 1003.45920086 C450.94775711 999.86243041 443.12126256 996.01712473 435.53770924 991.12863445 C434.47165455 990.45703289 433.40559986 989.78543133 432.30724049 989.0934782 C405.80972199 971.65006997 392.63394241 948.83268027 383.66270924 918.94113445 C381.7470207 912.56329336 379.4365238 906.36391846 377.1024065 900.13107586 C375.46276723 895.72506635 373.9306579 891.3278337 372.60020924 886.81613445 C370.82786112 880.82390986 368.69776512 874.98912198 366.53770924 869.12863445 C364.01592335 862.28673057 361.65937385 855.45676824 359.59630299 848.4606657 C357.95163545 843.28390775 356.00888845 838.22123864 354.10387135 833.13571453 C352.06842263 827.66725518 350.28864203 822.17075327 348.63536549 816.57394695 C347.22892787 812.15943457 345.60479775 807.83979722 343.97520924 803.50363445 C341.74191482 797.55965342 339.76495808 791.68077836 338.20567799 785.51925945 C337.27426861 782.18579433 335.96829879 779.05259358 334.64317799 775.8591032 C331.78832132 768.80770811 329.25520081 761.62363415 327.11583424 754.32394695 C325.57571829 749.1311363 323.74239153 744.0768021 321.85020924 739.00363445 C318.49279206 729.89793591 315.3504904 720.73495212 312.32799244 711.5129118 C310.48907856 705.91563025 308.54664747 700.37098629 306.5152483 694.84079266 C304.61882075 689.57920084 302.91159339 684.2536275 301.18224049 678.93527508 C299.73977951 674.55241289 298.21208596 670.24718924 296.46349049 665.9762907 C294.74217893 661.75083927 293.41550476 657.52792786 292.22520924 653.12863445 C290.25207613 646.11191142 287.77147657 639.40871268 285.05406666 632.65011883 C282.85110516 627.10877253 281.18381813 621.53890153 279.63927174 615.77707195 C278.06651754 610.56802081 276.05795038 605.55311279 273.99864674 600.51925945 C272.36644505 596.48247492 271.12527395 592.57398813 270.1324358 588.32150555 C268.86227203 583.63816771 266.97490245 579.1492133 265.22520924 574.62863445 C262.59761085 567.74253252 260.02509344 560.87907593 257.91270924 553.81613445 C255.89331641 547.09414172 253.51803605 540.55302518 251.05284595 533.9828825 C249.03163999 528.56337912 247.27299344 523.11338798 245.63145924 517.56613445 C244.2416068 513.19802679 242.64541045 508.92046114 241.03770924 504.62863445 C239.07691365 499.39285496 237.18248959 494.18182295 235.60020924 488.81613445 C233.82786112 482.82390986 231.69776512 476.98912198 229.53770924 471.12863445 C227.01592335 464.28673057 224.65937385 457.45676824 222.59630299 450.4606657 C221.2197039 446.12768038 219.63186258 441.88553115 218.03770924 437.62863445 C216.07696815 432.39283184 214.18249118 427.18182832 212.60020924 421.81613445 C210.82786112 415.82390986 208.69776512 409.98912198 206.53770924 404.12863445 C204.37765335 398.26814693 202.24755735 392.43335904 200.47520924 386.44113445 C198.9746871 381.37197925 197.20840334 376.44916218 195.35020924 371.50363445 C192.36157818 363.54485109 189.63649783 355.51488224 186.97520924 347.44113445 C181.42705501 325.94035984 181.42705501 325.94035984 168.53770924 309.12863445 C168.53770924 308.46863445 168.53770924 307.80863445 168.53770924 307.12863445 C166.87786125 306.44516764 165.20934118 305.7827513 163.53770924 305.12863445 C162.63020924 304.75738445 161.72270924 304.38613445 160.78770924 304.00363445 C152.63690071 301.809186 145.93708482 303.18393422 138.53770924 307.12863445 C131.95241411 311.37640115 128.96922296 316.83409327 126.53770924 324.12863445 C125.73714041 332.84376291 127.29119011 339.93272541 130.28770924 348.06613445 C131.03227558 350.18294352 131.7757769 352.30012752 132.51817799 354.41769695 C133.05064137 355.91091473 133.05064137 355.91091473 133.59386158 357.43429852 C134.69465072 360.57664433 135.66769045 363.74510089 136.60020924 366.94113445 C138.45272678 373.10795953 140.7188136 379.10297943 142.97374439 385.13083172 C144.97436064 390.50956405 146.74449693 395.91009765 148.37364674 401.4137907 C150.30377174 407.57335069 152.47866024 413.64897127 154.63316822 419.73312664 C156.20137106 424.18445417 157.71316947 428.62950341 159.03770924 433.15988445 C160.61125351 438.51226694 162.52829299 443.71515292 164.47520924 448.94113445 C167.02021958 455.84557348 169.39973529 462.73985847 171.47911549 469.80050945 C172.85100564 474.11361062 174.44418013 478.33085495 176.03770924 482.56613445 C178.07217067 487.98181349 179.96675976 493.34981505 181.47520924 498.94113445 C183.43048713 506.15280875 186.02140443 513.09373885 188.61339283 520.09787273 C190.77136641 525.95090991 192.71648102 531.8153862 194.47911549 537.80050945 C195.85100148 542.11359753 197.44399924 546.33093226 199.03770924 550.56613445 C201.1053935 556.06374202 203.00951428 561.51309973 204.53770924 567.19113445 C206.00665484 572.61299377 207.88551525 577.73792925 209.97520924 582.94113445 C212.5808599 589.43464678 214.73905615 595.91869519 216.62120533 602.65426922 C218.42690635 609.00654614 220.69335003 615.14725337 223.02208424 621.32370281 C225.05183917 626.73102756 226.80985306 632.16704361 228.44786549 637.70675945 C229.81167087 641.98881505 231.39023932 646.17443459 232.97520924 650.37863445 C235.49915091 657.0878465 237.68239876 663.80622429 239.62120533 670.70480633 C241.43419662 677.03626165 243.69987141 683.16417904 246.02208424 689.32394695 C248.0481025 694.72076417 249.8054031 700.14516147 251.43614674 705.67550945 C253.11499156 710.93827123 255.08575579 716.09190235 257.07677174 721.24386883 C258.50154527 724.99980083 259.71020275 728.6376251 260.51036549 732.5778532 C261.56404349 737.68098213 263.42076375 742.36347106 265.35020924 747.19113445 C268.28265871 754.69633947 270.86735166 762.17816693 273.19005299 769.89425945 C274.80232617 775.10294812 276.71302141 780.20213095 278.60020924 785.31613445 C281.06773733 792.00919141 283.39292679 798.6871618 285.41270924 805.5309782 C287.3222139 811.637415 289.49238125 817.65441897 291.61363697 823.68991375 C293.37703915 828.72720532 295.08430039 833.7599812 296.60020924 838.87863445 C298.18963971 844.21912086 300.08631193 849.41269298 302.03770924 854.62863445 C304.36761981 860.85631406 306.4958191 867.08051725 308.38927174 873.45675945 C310.24533352 879.39110664 312.33762187 885.24241765 314.39586353 891.1091032 C317.06391562 898.72750953 319.63353264 906.37477321 322.16710377 914.0387907 C323.90281876 919.27307192 325.73267623 924.45963814 327.65489674 929.62863445 C328.64701196 932.43816429 329.50060531 935.27282293 330.35020924 938.12863445 C332.02650055 943.70081231 333.98929404 949.12364954 336.03770924 954.56613445 C338.07223278 959.98179177 339.96676137 965.34982102 341.47520924 970.94113445 C343.34269939 977.80714082 345.78407625 984.40162062 348.26389027 991.06364727 C350.98111214 998.43441548 353.43589 1005.86945574 355.80333424 1013.3591032 C356.16572193 1014.4987553 356.52810963 1015.6384074 356.90147877 1016.81259441 C357.78237608 1019.58393225 358.66108568 1022.35594242 359.53770924 1025.12863445 C312.31733709 1025.1973037 265.09697022 1025.25016484 217.87655798 1025.28183044 C212.3015315 1025.28558255 206.72650511 1025.28946552 201.15147877 1025.29342937 C200.04159318 1025.29421631 198.93170759 1025.29500324 197.7881891 1025.29581401 C179.81798591 1025.3088673 161.84781152 1025.33252073 143.87762542 1025.36009284 C125.43803658 1025.38814917 106.99846282 1025.4048112 88.55885351 1025.41089994 C77.18099016 1025.4150159 65.8032082 1025.4280151 54.4253699 1025.45238385 C46.62275779 1025.46824383 38.82018774 1025.47303421 31.01756068 1025.46913859 C26.51612369 1025.46721746 22.01482893 1025.47015893 17.51341724 1025.48625088 C13.38884266 1025.50088778 9.26450549 1025.5015623 5.1399198 1025.49133114 C3.65118705 1025.49006729 2.16243927 1025.49384069 0.67373593 1025.503284 C-15.27214006 1025.59851683 -23.79313757 1022.41249195 -35.27479076 1011.44113445 C-42.13396928 1001.05437842 -43.18872453 990.60061999 -43.09149647 978.4945631 C-43.09672139 976.8375997 -43.10413449 975.18064203 -43.1135183 973.52369696 C-43.13292106 968.98343577 -43.12137521 964.44370887 -43.10462853 959.90345675 C-43.09191627 954.95911103 -43.10825595 950.01484562 -43.1208452 945.07051134 C-43.13888937 936.40917398 -43.13836466 927.7479925 -43.1256094 919.08664799 C-43.10669344 906.20693156 -43.11636749 893.32734657 -43.13165093 880.44763102 C-43.15798129 857.44424152 -43.15569703 834.44092145 -43.14125637 811.43752535 C-43.12863577 791.30694101 -43.12538567 771.17638196 -43.13136959 751.04579449 C-43.13175699 749.69726478 -43.13214277 748.34873508 -43.13252694 747.00020538 C-43.1340793 741.58089443 -43.13567264 736.1615835 -43.13732576 730.74227258 C-43.14191059 715.59346967 -43.14476375 700.44466668 -43.14625645 685.29586315 C-43.14632468 684.60604783 -43.1463929 683.9162325 -43.1464632 683.20551369 C-43.1485093 661.22812408 -43.14287664 639.25074328 -43.13200855 617.27335644 C-43.13165731 616.56063921 -43.13130606 615.84792198 -43.13094417 615.11360727 C-43.12521957 603.53986253 -43.11912219 591.96611799 -43.11299331 580.39237347 C-43.088712 534.49079673 -43.08983901 488.58929291 -43.11414623 442.68771648 C-43.12025229 431.11978189 -43.12630758 419.55184727 -43.13200855 407.98391247 C-43.13236079 407.27161286 -43.13271303 406.55931324 -43.13307595 405.82542879 C-43.14385838 383.87075328 -43.14842796 361.91608383 -43.14625645 339.96140575 C-43.14618853 339.27209829 -43.1461206 338.58279082 -43.14605062 337.87259525 C-43.14448817 322.7405644 -43.14131985 307.60853419 -43.13670393 292.47650397 C-43.13505826 287.06206548 -43.13349285 281.64762696 -43.13195038 276.23318844 C-43.13156343 274.88624241 -43.13116978 273.53929639 -43.1307694 272.19235037 C-43.12460623 251.40150294 -43.13071566 230.61068592 -43.14376736 209.81984234 C-43.15805541 186.94540887 -43.15450709 164.07105571 -43.12736364 141.19663227 C-43.11267173 128.39287119 -43.11173886 115.58928401 -43.13059451 102.78552741 C-43.14179876 94.2347541 -43.13484257 85.68412033 -43.11307066 77.13336772 C-43.10116851 72.2603589 -43.09712658 67.38769576 -43.11510058 62.51469773 C-43.13129901 58.07784493 -43.12432431 53.6416432 -43.09919728 49.20483749 C-43.094179 47.61340688 -43.09744597 46.02192187 -43.11022697 44.43053467 C-43.19293357 33.34199621 -42.18048219 21.81782212 -34.46229076 13.12863445 C-33.80229076 13.12863445 -33.14229076 13.12863445 -32.46229076 13.12863445 C-32.46229076 12.46863445 -32.46229076 11.80863445 -32.46229076 11.12863445 C-27.20257538 5.96839359 -21.59274188 2.82016483 -14.46229076 1.12863445 C-13.78830012 0.95581391 -13.11430948 0.78299336 -12.41989487 0.60493582 C-8.27091289 -0.06322859 -4.19595491 -0.00962767 0 0 Z " fill="#2D2D2D" transform="translate(711.462290763855,9.871365547180176)"/>
<path d="M0 0 C1.61134276 -0.00346353 3.22268315 -0.00823274 4.83401865 -0.01418173 C9.22815906 -0.02662578 13.62210228 -0.02055165 18.0162431 -0.01122308 C22.76817624 -0.00440576 27.52007664 -0.01492702 32.27200317 -0.02316284 C41.5674491 -0.03647353 50.86282218 -0.03363442 60.1582709 -0.02492492 C67.71507238 -0.01813869 75.2718535 -0.01723571 82.82865715 -0.02049637 C84.44440441 -0.02118592 84.44440441 -0.02118592 86.09279303 -0.0218894 C88.28129432 -0.02284861 90.4697956 -0.02382125 92.65829688 -0.02480717 C113.15941001 -0.03335315 133.66048285 -0.02353914 154.16158938 -0.00740607 C171.73921106 0.00599829 189.31677331 0.00366649 206.89439392 -0.01016235 C227.32571673 -0.02622885 247.75700426 -0.03253126 268.1883325 -0.02332556 C270.36829626 -0.02236995 272.54826003 -0.02142684 274.7282238 -0.02049637 C276.33694323 -0.01980213 276.33694323 -0.01980213 277.97816204 -0.01909386 C285.52335347 -0.01650733 293.06852245 -0.02086767 300.6137104 -0.02793503 C309.81230418 -0.03636203 319.01082119 -0.03404457 328.2094062 -0.0180928 C332.89951827 -0.01022655 337.58950248 -0.00709039 342.27961349 -0.01704025 C346.57834438 -0.0260217 350.87682967 -0.02099784 355.17553847 -0.0051076 C356.72514881 -0.00177437 358.27478017 -0.00342077 359.82437683 -0.01073496 C372.51642249 -0.06601656 383.9807716 0.49337063 393.71153259 9.38095093 C394.57778259 10.12345093 395.44403259 10.86595093 396.33653259 11.63095093 C402.87017537 19.19622151 406.95889059 27.19673311 406.96568292 37.29237944 C406.96886025 37.96786089 406.97203758 38.64334235 406.97531119 39.33929294 C406.98353025 41.60563859 406.97752079 43.87172054 406.97159481 46.13807011 C406.9745913 47.78516332 406.97846154 49.43225515 406.98312715 51.07934448 C406.99343934 55.62469533 406.99124552 60.16996858 406.98707179 64.71532607 C406.98471177 69.65316959 406.99386656 74.59099375 407.00155598 79.52882999 C407.01341974 88.18959899 407.01776809 96.85034691 407.0172348 105.51112366 C407.01644266 118.39014135 407.02698019 131.26913237 407.03965037 144.14814294 C407.06311816 168.48716572 407.07265882 192.82618284 407.07740163 217.1652155 C407.07792533 219.85042676 407.07845117 222.53563802 407.0789783 225.22084928 C407.07910736 225.88718611 407.07923642 226.55352294 407.0793694 227.2400518 C407.08227451 242.00327952 407.08843278 256.76650533 407.09507561 271.52973178 C407.09779907 277.60799993 407.10043013 283.68626813 407.10306126 289.76453632 C407.10335217 290.43612914 407.10364308 291.10772197 407.10394281 291.79966609 C407.12056737 330.28982909 407.13242323 368.77999118 407.13485622 407.27015781 C407.13495085 408.71081777 407.13504586 410.15147772 407.13514126 411.59213768 C407.135569 418.09664779 407.13597438 424.60115791 407.13637962 431.10566803 C407.13656122 434.0062119 407.13674611 436.90675577 407.13693168 439.80729964 C407.13702371 441.25907508 407.1371141 442.71085052 407.13720288 444.16262596 C407.14001694 490.06330148 407.16174118 535.96393308 407.19859314 581.86459351 C407.22606842 616.09274921 407.25195334 650.3208965 407.25853825 684.54906368 C407.2587384 685.58265573 407.2587384 685.58265573 407.2589426 686.63712843 C407.26181499 701.76410471 407.26323216 716.8910808 407.26330081 732.01805733 C407.2633405 737.43089344 407.26349745 742.84372955 407.26371533 748.25656566 C407.26376898 749.60314377 407.26381709 750.94972188 407.26385966 752.29629999 C407.26462601 774.41314732 407.28174503 796.52994771 407.30561517 818.64678104 C407.32843998 840.1946011 407.33269438 861.74236324 407.31806587 883.29019094 C407.30990483 896.0961466 407.31563937 908.90192 407.34124672 921.70785361 C407.3569706 930.26032302 407.35454953 938.81266271 407.33733999 947.36512895 C407.32804628 952.23924253 407.32664151 957.11300451 407.34730607 961.98709101 C407.36596145 966.42501462 407.36142163 970.86229878 407.33871512 975.300198 C407.33457267 976.89204149 407.33872851 978.48393494 407.35241281 980.075725 C407.45546148 992.91745233 405.24309828 1004.32453208 396.72715759 1014.37704468 C385.9091602 1025.13214674 375.29214162 1025.67963769 360.78982544 1025.64164734 C359.1573379 1025.64466979 357.52485177 1025.64855975 355.89236814 1025.65323991 C351.41663197 1025.66351661 346.94097594 1025.6613389 342.46523321 1025.65705931 C337.634162 1025.65459149 332.80311005 1025.66360699 327.9720459 1025.6710968 C318.51116433 1025.68384447 309.05031114 1025.68563739 299.58942243 1025.68329654 C291.89853297 1025.68151321 284.20765212 1025.68326334 276.51676369 1025.68752098 C274.87458892 1025.68841376 274.87458892 1025.68841376 273.1992389 1025.68932458 C270.97514221 1025.69053634 268.75104553 1025.69175048 266.52694885 1025.69296696 C245.67013647 1025.70384287 224.81334026 1025.70167983 203.95652697 1025.69558211 C184.88172682 1025.69041355 165.80697775 1025.70166671 146.73218771 1025.72068033 C127.1408515 1025.74005895 107.54953946 1025.74831465 87.9581936 1025.74455708 C76.96132083 1025.74264499 65.96449152 1025.74513333 54.96762657 1025.75927162 C45.60529624 1025.77118671 36.24303614 1025.77258888 26.88070484 1025.76048145 C22.10568754 1025.75459356 17.33079868 1025.75349092 12.55578995 1025.76548386 C8.18043475 1025.77634513 3.8053152 1025.77323636 -0.57002898 1025.75922217 C-2.14870987 1025.75657591 -3.72740924 1025.75893954 -5.30607197 1025.76695804 C-25.1405663 1025.86067143 -25.1405663 1025.86067143 -33.37440491 1020.29501343 C-34.50749084 1019.16192749 -34.50749084 1019.16192749 -35.66346741 1018.00595093 C-36.47815491 1017.20157593 -37.29284241 1016.39720093 -38.13221741 1015.56845093 C-38.84377991 1014.84657593 -39.55534241 1014.12470093 -40.28846741 1013.38095093 C-41.23721741 1012.59720093 -42.18596741 1011.81345093 -43.16346741 1011.00595093 C-49.121265 1003.6463186 -50.41155436 993.71385915 -50.41726857 984.52427065 C-50.41904358 983.85471731 -50.42081859 983.18516397 -50.42264739 982.49532113 C-50.42738253 980.24924384 -50.42501556 978.00323091 -50.42268848 975.75715065 C-50.42464189 974.12460992 -50.42703092 972.49206967 -50.42981645 970.85953015 C-50.43622097 966.3545799 -50.43637772 961.84964747 -50.43553905 957.34469353 C-50.43570846 952.4505857 -50.44161359 947.55648427 -50.44677991 942.66237962 C-50.45611183 932.94696538 -50.46002895 923.2315557 -50.46229887 913.51613754 C-50.4652594 901.88234396 -50.47395593 890.24855644 -50.48271315 878.61476604 C-50.50356462 850.4934602 -50.51403189 822.37215329 -50.52284276 794.25084152 C-50.52703344 780.94966787 -50.53227036 767.64849467 -50.53752729 754.3473214 C-50.5551376 709.53718832 -50.57019049 664.72705493 -50.57749753 619.9169189 C-50.57808149 616.34502544 -50.57867876 612.77313199 -50.57927514 609.20123854 C-50.57945232 608.13841973 -50.57945232 608.13841973 -50.57963308 607.05412983 C-50.58083046 599.87563843 -50.58203922 592.69714703 -50.58326561 585.51865564 C-50.58351085 584.07935396 -50.5837547 582.64005229 -50.58399718 581.20075062 C-50.59178556 534.98357325 -50.61416582 488.7664213 -50.64667361 442.54925504 C-50.67002389 409.34037032 -50.69157322 376.13149066 -50.69867992 342.92259789 C-50.69882694 342.23942459 -50.69897397 341.5562513 -50.69912544 340.85237578 C-50.70231051 325.85380648 -50.70436123 310.85523723 -50.70535299 295.85666763 C-50.70576772 289.82156315 -50.70632262 283.78645868 -50.7069149 277.75135422 C-50.70697557 277.09085949 -50.70703624 276.43036476 -50.70709875 275.74985504 C-50.70917586 253.82897887 -50.72464303 231.90814033 -50.74575675 209.98727567 C-50.76600576 188.62536558 -50.77149641 167.26349128 -50.76198611 145.90157337 C-50.7567676 133.20958224 -50.76266532 120.51771024 -50.78452079 107.82573624 C-50.7980206 99.34540532 -50.79695906 90.86515648 -50.78411883 82.38482475 C-50.77721686 77.55440771 -50.77657099 72.72421856 -50.79367892 67.89382179 C-50.80914135 63.49207682 -50.80590004 59.09074179 -50.78826864 54.68900859 C-50.7851406 53.11359635 -50.78859192 51.53815229 -50.79976038 49.96277653 C-50.88228116 37.50262929 -50.47846922 23.6423782 -42.03846741 13.75595093 C-40.49018805 12.26045382 -38.90846292 10.798447 -37.28846741 9.38095093 C-36.65940491 8.77638062 -36.03034241 8.1718103 -35.38221741 7.54891968 C-25.81874676 -0.77859396 -11.96576136 -0.05656809 0 0 Z " fill="#323232" transform="translate(1727.2884674072266,9.619049072265625)"/>
<path d="M0 0 C2.08145997 -0.00461825 4.16291667 -0.01097732 6.24436665 -0.01890898 C11.9196207 -0.03549842 17.59460327 -0.02740342 23.26985788 -0.0149641 C29.40765564 -0.00587318 35.54540836 -0.01990332 41.68319702 -0.03088379 C52.99700091 -0.04760683 64.31069512 -0.04620831 75.62449619 -0.03523792 C86.07866297 -0.02515158 96.53279835 -0.02256008 106.98696899 -0.02732849 C107.68205208 -0.02763403 108.37713516 -0.02793957 109.09328137 -0.02825437 C111.91527939 -0.02949985 114.73727739 -0.03077346 117.55927538 -0.03209343 C143.99909351 -0.0443128 170.43885712 -0.03326202 196.87866683 -0.01170584 C220.33767884 0.00727474 243.79660398 0.00557615 267.25561523 -0.0135498 C293.64894409 -0.03499648 320.04222482 -0.04344599 346.43556118 -0.03110075 C349.25223731 -0.029818 352.06891345 -0.02856663 354.8855896 -0.02732849 C355.92579632 -0.02685403 355.92579632 -0.02685403 356.98701731 -0.02636998 C367.43126902 -0.02183169 377.8754858 -0.02711947 388.31973267 -0.0372467 C400.20254221 -0.04871181 412.08524935 -0.045382 423.96805501 -0.02412373 C430.02588541 -0.01364196 436.08353994 -0.00944248 442.14136887 -0.02272034 C447.69543873 -0.03470954 453.24917103 -0.02797457 458.80321062 -0.00681013 C460.80366128 -0.00237162 462.80414095 -0.00454773 464.8045727 -0.01431328 C479.57660822 -0.08084906 495.05606112 0.48431756 507.8737793 8.69543457 C508.47730225 9.07981689 509.0808252 9.46419922 509.70263672 9.86022949 C523.02052618 18.58586546 523.02052618 18.58586546 526.01049805 24.70715332 C526.85710225 26.86994861 526.85710225 26.86994861 529.9362793 27.50793457 C539.45877975 38.3704884 545.0538824 54.51264107 545.06623113 68.89416677 C545.06975955 70.19424595 545.07328797 71.49432513 545.07692331 72.83380064 C545.07580217 74.27765017 545.07458889 75.72149963 545.07329369 77.16534901 C545.07555011 78.70463124 545.0782416 80.24391289 545.08132952 81.78319368 C545.08857158 86.03386942 545.0895588 90.28452752 545.0895523 94.53520859 C545.0906208 99.1519417 545.09741032 103.76866693 545.103459 108.38539571 C545.11453977 117.55162192 545.12018453 126.71784429 545.12416788 135.88407602 C545.12917474 146.85975344 545.13990193 157.83542341 545.15064961 168.81109643 C545.17628763 195.34287905 545.19131686 221.87466456 545.20416008 248.40645601 C545.20841413 257.19367863 545.21297985 265.98090103 545.2177434 274.76812339 C545.2426392 320.80823726 545.26471385 366.84835184 545.27693378 412.88847096 C545.27783115 416.25876428 545.27874585 419.6290576 545.27966151 422.99935092 C545.27984313 423.66790675 545.28002474 424.33646259 545.28021186 425.02527769 C545.28205451 431.79862938 545.28392038 438.57198107 545.28580995 445.34533276 C545.28618799 446.70340427 545.28656429 448.06147579 545.28693883 449.41954731 C545.29896568 493.02436001 545.32864832 536.62913279 545.37035394 580.23392668 C545.41385692 625.73152203 545.44163282 671.22909816 545.44694626 716.72671733 C545.44768671 723.05661862 545.44859739 729.38651987 545.44960403 735.71642113 C545.44979465 736.96221159 545.44998526 738.20800205 545.45018165 739.49154374 C545.45369577 759.54370288 545.47399619 779.59581149 545.50040067 799.64795207 C545.52654116 819.80352607 545.53427446 839.95904167 545.52329938 860.1146302 C545.51732148 872.08901027 545.52524017 884.06319224 545.55313022 896.03754234 C545.57038877 904.03956588 545.5694275 912.04145441 545.55376253 920.04348086 C545.54535618 924.60077339 545.54474925 929.15768805 545.56637399 933.71494547 C545.5859262 937.86891624 545.58204033 942.0222097 545.5602205 946.17616316 C545.55638724 947.66185274 545.56075597 949.14759478 545.57480752 950.63322284 C545.76484591 972.13529226 537.53557915 990.40692227 522.9987793 1006.07043457 C510.14858011 1018.56219027 494.2138175 1025.67919786 476.2978878 1025.63936234 C475.43686606 1025.64141497 474.57584432 1025.6434676 473.68873101 1025.64558244 C470.79575871 1025.65124904 467.90283406 1025.6497956 465.00985718 1025.64837646 C462.91783202 1025.65096029 460.82580735 1025.6539735 458.73378336 1025.65737987 C452.97850487 1025.66545102 447.22323884 1025.6672395 441.46795535 1025.66797733 C435.26327095 1025.66982768 429.05859302 1025.67737492 422.85391235 1025.68411255 C408.57599753 1025.69840554 394.29808679 1025.70422249 380.02016634 1025.70880449 C372.96293672 1025.71114125 365.90570792 1025.71474399 358.84847894 1025.71849987 C334.68575743 1025.73133457 310.52303636 1025.74205388 286.36031151 1025.74550247 C284.84382964 1025.7457241 283.32734778 1025.74594589 281.81086592 1025.74616782 C280.29074524 1025.74638846 278.77062457 1025.74660895 277.2505039 1025.74682927 C274.20093814 1025.74727182 271.15137239 1025.74771894 268.10180664 1025.74816895 C267.34569298 1025.74827834 266.58957932 1025.74838773 265.81055312 1025.74850043 C241.29559595 1025.75213076 216.78066835 1025.76805033 192.2657225 1025.79135931 C166.34050018 1025.81596407 140.41529478 1025.82967561 114.49006045 1025.83087039 C111.64325181 1025.83104184 108.79644318 1025.83125727 105.94963455 1025.83150482 C105.24868219 1025.83156059 104.54772982 1025.83161636 103.82553647 1025.83167382 C92.55306606 1025.83282369 81.28062603 1025.84384022 70.00816588 1025.85839188 C58.67441838 1025.87276948 47.34072074 1025.87573455 36.0069627 1025.8679519 C29.86883851 1025.86404413 23.73081642 1025.86498137 17.59270477 1025.87900925 C11.97067171 1025.89174015 6.34881757 1025.89055759 0.72678478 1025.87841853 C-1.30419323 1025.87646016 -3.33518388 1025.87954645 -5.36614414 1025.8882629 C-27.58403792 1025.97756 -46.80784856 1020.61467027 -63.0637207 1004.50793457 C-82.54712818 981.98122512 -83.97100547 959.2228334 -83.83452603 930.63653389 C-83.81917613 926.01529345 -83.83891607 921.39417189 -83.85398602 916.77294874 C-83.87557058 908.68955353 -83.87505189 900.60639913 -83.85970306 892.52299309 C-83.83694071 880.50242098 -83.84864542 868.48205075 -83.86695291 856.46147986 C-83.89850051 834.9886735 -83.89582772 813.51597444 -83.87847943 792.04315795 C-83.86337242 773.25169648 -83.85945226 754.46027428 -83.8666153 735.66880798 C-83.86707361 734.42121413 -83.86753192 733.17362027 -83.86800412 731.88822054 C-83.86987222 726.82353821 -83.87178262 721.75885589 -83.8737627 716.6941736 C-83.88741212 681.36004771 -83.8898408 646.02593258 -83.86738205 610.69181061 C-83.86696056 610.02641344 -83.86653906 609.36101627 -83.86610479 608.67545555 C-83.85923577 597.87102646 -83.85191868 587.06659766 -83.84456375 576.26216888 C-83.81542753 533.41517942 -83.81677991 490.56830246 -83.84594727 447.72131348 C-83.85327489 436.92222861 -83.8605414 426.12314372 -83.86738205 415.32405853 C-83.86780474 414.65904644 -83.86822743 413.99403436 -83.86866293 413.30887039 C-83.89134484 377.37693167 -83.88632153 341.44499807 -83.87227368 305.51305628 C-83.87034945 300.45772458 -83.8684724 295.40239288 -83.8666153 290.34706116 C-83.86614083 289.10235474 -83.86566637 287.85764832 -83.86517753 286.57522353 C-83.85835929 267.79784873 -83.86632203 249.02051756 -83.88149261 230.2431488 C-83.89866045 208.88751168 -83.89433304 187.53199842 -83.86180815 166.1763767 C-83.84421512 154.23162831 -83.84300444 142.28714828 -83.8656852 130.34240696 C-83.87917529 122.35553379 -83.87070192 114.36887499 -83.84465658 106.38203349 C-83.83043604 101.83691581 -83.82539283 97.29232977 -83.84709248 92.74722952 C-83.97308741 64.26197252 -82.02881564 41.82897339 -61.0637207 20.50793457 C-60.37665039 19.80797363 -59.68958008 19.1080127 -58.98168945 18.38684082 C-42.0216303 2.24489212 -22.37786705 -0.10924255 0 0 Z M99.9362793 94.50793457 C97.01172547 99.04489277 97.62591547 104.65670579 97.61401367 109.87854004 C97.60408386 110.92141174 97.59415405 111.96428345 97.58392334 113.03875732 C97.55474392 116.48423919 97.5410882 119.92953701 97.5300293 123.37512207 C97.51852261 125.77259322 97.50700719 128.17006433 97.4954834 130.5675354 C97.47448264 135.5927618 97.46278426 140.61792438 97.45581055 145.64318848 C97.4448345 152.07840285 97.39675886 158.51277227 97.33986664 164.94772148 C97.3026001 169.89944926 97.29220208 174.85097357 97.28913879 179.80282974 C97.28308941 182.17509718 97.26704444 184.54736119 97.24076843 186.91949081 C97.20660936 190.23982687 97.21041395 193.55809897 97.22338867 196.87854004 C97.20495911 197.85539764 97.18652954 198.83225525 97.1675415 199.8387146 C97.24021983 205.78388074 98.27528084 208.95612801 102.45352936 213.25271797 C105.77446559 216.06404453 109.06327192 215.64506575 113.20010376 215.62818909 C113.9572698 215.62904351 114.71443583 215.62989794 115.49454629 215.63077825 C118.04497185 215.63243224 120.5953324 215.626913 123.14575195 215.62145996 C124.96868386 215.62117805 126.79161589 215.62133591 128.61454773 215.62190247 C133.57502478 215.62219027 138.53547782 215.61629626 143.49594927 215.60932851 C148.67563284 215.60309217 153.85531692 215.60249095 159.03500366 215.6013031 C168.84870692 215.59819061 178.66239909 215.58997833 188.47609746 215.57995361 C199.64642559 215.56878992 210.81675423 215.56328138 221.98708653 215.55825818 C244.97015695 215.54779566 267.9532175 215.53019781 290.9362793 215.50793457 C290.82218248 217.61272061 290.69462568 219.71678034 290.5612793 221.82043457 C290.49166992 222.99219238 290.42206055 224.1639502 290.3503418 225.37121582 C289.9362793 228.50793457 289.9362793 228.50793457 287.9362793 231.50793457 C285.18782527 231.82398465 282.65962775 231.94532397 279.90649414 231.94030762 C279.07714859 231.95049927 278.24780304 231.96069092 277.39332581 231.97119141 C274.64455525 232.00145173 271.8961324 232.01060708 269.1472168 232.01965332 C267.24434234 232.03649037 265.34147908 232.05463928 263.43862915 232.0740509 C258.42451473 232.12166291 253.41044564 232.15139968 248.3961792 232.17749023 C243.28185059 232.20723941 238.16767843 232.253789 233.0534668 232.2989502 C223.01448594 232.38511065 212.97547299 232.45239909 202.9362793 232.50793457 C202.8070878 240.02523942 202.72095389 247.54224802 202.66162109 255.0604248 C202.63682814 257.60578094 202.60298303 260.15106871 202.55908203 262.69616699 C201.99947195 295.8056053 201.99947195 295.8056053 214.9362793 325.50793457 C215.91556661 327.11202759 216.8947385 328.71619108 217.8737793 330.32043457 C220.4308562 334.10135309 223.370673 336.93946812 226.90893555 339.80480957 C228.9362793 341.50793457 228.9362793 341.50793457 231.20581055 343.95715332 C234.42119068 346.96093476 237.61995056 348.69009037 241.5612793 350.57043457 C242.27203613 350.91477539 242.98279297 351.25911621 243.71508789 351.6138916 C265.7243533 362.12317893 294.37795086 364.9584527 317.9362793 357.50793457 C328.26533052 353.45838495 338.37699716 347.69715689 345.9362793 339.50793457 C346.7406543 338.74480957 347.5450293 337.98168457 348.3737793 337.19543457 C359.81977739 325.1910951 367.52411282 310.52555043 371.43041992 294.50744629 C371.9029137 292.63981887 372.4558264 290.79305264 373.0144043 288.94934082 C379.72997544 266.47222397 379.41607872 242.96909017 379.40511894 219.73819947 C379.4049975 216.32012258 379.41362735 212.90208658 379.42189646 209.48402137 C379.44094756 201.42987023 379.44407564 193.37582273 379.43725586 185.32165527 C379.43056649 177.03114243 379.45371585 168.74106895 379.49056959 160.45064527 C379.52123365 153.29088095 379.53263208 146.13125869 379.52873278 138.97143 C379.52666889 134.7120113 379.53209497 130.4529384 379.55662537 126.19358253 C379.57884707 122.2064997 379.57705397 118.22014287 379.55669785 114.23305702 C379.55328422 112.77254168 379.55839225 111.3119776 379.57268143 109.85152817 C379.5908454 107.85778577 379.57513308 105.86382068 379.55773926 103.87007141 C379.55880802 102.19814586 379.55880802 102.19814586 379.55989838 100.49244404 C378.72793327 96.51083438 377.04015701 95.0579413 373.9362793 92.50793457 C370.9572377 90.73015993 368.79256313 90.25677099 365.33786201 90.25066566 C363.95204137 90.24099233 363.95204137 90.24099233 362.53822434 90.23112357 C361.02102494 90.23576937 361.02102494 90.23576937 359.47317505 90.24050903 C358.39593292 90.23597792 357.31869079 90.23144681 356.20880497 90.22677839 C352.58683265 90.21408362 348.96500973 90.21575804 345.34301758 90.21740723 C342.75120855 90.21142518 340.15940131 90.20462038 337.56759644 90.197052 C331.25080204 90.18043649 324.93404497 90.17494221 318.61723055 90.17382725 C313.48293218 90.17287706 308.34864613 90.16876824 303.21435165 90.16242599 C288.65926447 90.1448123 274.10420679 90.13558736 259.54910888 90.13708694 C258.76438 90.13716686 257.97965112 90.13724677 257.17114258 90.1373291 C256.38545615 90.13741086 255.59976972 90.13749262 254.79027461 90.13757686 C242.05547436 90.13838986 229.32079236 90.11924903 216.58602633 90.09105237 C203.5116188 90.06233199 190.43726897 90.0485116 177.36282909 90.05023992 C170.02187601 90.0509041 162.6810469 90.04539951 155.34012222 90.02388382 C148.43724135 90.00378174 141.53462662 90.00433707 134.63173294 90.01891708 C132.09608071 90.02101351 129.56041232 90.01625503 127.0247879 90.00419617 C123.56733127 89.98881636 120.11078708 89.99800475 116.65335083 90.01345825 C115.64634601 90.00317113 114.63934119 89.992884 113.60182106 89.98228514 C107.73898001 90.04032438 104.41073952 90.61602431 99.9362793 94.50793457 Z M100.82419395 373.36637115 C98.65119024 376.98233386 97.81077928 379.488422 97.81602478 383.62712097 C97.81465012 384.46424622 97.81327545 385.30137146 97.81185913 386.16386414 C97.81545441 387.07880142 97.81904968 387.99373871 97.82275391 388.93640137 C97.82260788 389.90244293 97.82246185 390.8684845 97.8223114 391.86380005 C97.82300889 395.0616072 97.83079367 398.25935633 97.83862305 401.45715332 C97.84048781 403.67246977 97.84191144 405.88778663 97.84291077 408.10310364 C97.84673137 413.93760311 97.85655778 419.77207774 97.86761475 425.60656738 C97.87783867 431.5587124 97.88241049 437.51086143 97.88745117 443.4630127 C97.89818043 455.14466424 97.91525141 466.82629734 97.9362793 478.50793457 C101.12089244 477.56228322 104.30442715 476.613049 107.48779297 475.66320801 C108.82846455 475.26517471 108.82846455 475.26517471 110.1962204 474.85910034 C117.31299496 472.73271901 124.28735484 470.35096354 131.2487793 467.75793457 C133.3274144 466.990162 135.40682105 466.22447445 137.48706055 465.46105957 C138.37047119 465.1326709 139.25388184 464.80428223 140.1640625 464.46594238 C143.3891683 463.35142762 146.65507955 462.44362512 149.9362793 461.50793457 C152.13204289 460.77733274 154.32212385 460.02945943 156.5065918 459.26574707 C158.34737305 458.62572754 158.34737305 458.62572754 160.2253418 457.97277832 C162.75949489 457.08821545 165.29316791 456.20228471 167.8269043 455.31652832 C173.78210152 453.24650674 179.73789211 451.23447452 185.7722168 449.40637207 C191.07727085 447.79890263 196.25841403 445.98228876 201.4362793 444.00793457 C207.64685371 441.67988789 213.85641492 439.55737891 220.2175293 437.67199707 C227.36694858 435.4340486 234.415359 432.89174425 241.4831543 430.41027832 C244.78217124 429.25327168 248.0857557 428.11714306 251.4050293 427.01965332 C254.84033135 425.88311916 258.2574374 424.70139199 261.6706543 423.50012207 C262.65678711 423.15336426 263.64291992 422.80660645 264.65893555 422.44934082 C266.69351416 421.7326441 268.7273588 421.01386064 270.76049805 420.29309082 C271.74147461 419.94891113 272.72245117 419.60473145 273.7331543 419.25012207 C275.05331543 418.78388428 275.05331543 418.78388428 276.40014648 418.30822754 C281.10429381 416.82380369 285.32212619 416.39129553 290.2487793 416.44543457 C291.85172852 416.45896973 291.85172852 416.45896973 293.48706055 416.47277832 C294.29530273 416.48437988 295.10354492 416.49598145 295.9362793 416.50793457 C296.24184156 417.89657891 296.50428738 419.29474721 296.7487793 420.69543457 C296.89959961 421.47273926 297.05041992 422.25004395 297.20581055 423.05090332 C296.88381494 425.9861966 295.88948607 427.34896067 293.70849609 429.30944824 C289.96828406 431.8388188 285.68436056 433.13139525 281.4362793 434.57043457 C280.44595703 434.91840088 279.45563477 435.26636719 278.43530273 435.62487793 C272.40776495 437.72465112 266.34206408 439.64446088 260.2175293 441.44152832 C255.20781786 443.06968454 250.33481719 445.04295936 245.46459961 447.04724121 C241.83755115 448.51006366 238.35520815 449.70141194 234.51831055 450.48059082 C229.40154532 451.53069386 224.71308527 453.38633596 219.8737793 455.32043457 C212.37245261 458.25136869 204.8947043 460.83556819 197.18237305 463.15637207 C190.97867213 465.07652944 184.90589335 467.38515346 178.82324219 469.65441895 C174.58707663 471.22495293 170.36344107 472.71285262 166.02612305 473.98059082 C160.21782335 475.68019148 154.55610834 477.74346352 148.8737793 479.82043457 C136.22474068 484.43528356 136.22474068 484.43528356 130.8112793 486.21887207 C119.32603443 490.01173658 111.8322898 493.68697383 105.47143555 504.39465332 C102.77881691 509.85525651 101.09088766 515.54335328 99.9362793 521.50793457 C99.68327309 522.80722649 99.68327309 522.80722649 99.42515564 524.13276672 C97.46846846 535.79426055 97.6834386 547.39711403 97.7409668 559.18762207 C97.74470415 561.45447667 97.7475477 563.7213329 97.74954224 565.9881897 C97.75712185 571.90969423 97.77672067 577.83109824 97.7989502 583.75256348 C97.81953182 589.81293376 97.82857011 595.87332054 97.83862305 601.93371582 C97.85997268 613.79183253 97.89403889 625.64987514 97.9362793 637.50793457 C99.52663949 637.19232395 101.11686386 636.87602885 102.70703125 636.55944824 C104.0353875 636.29535408 104.0353875 636.29535408 105.39057922 636.02592468 C116.61718617 633.74157412 127.52112986 630.45952386 138.45361328 627.07336426 C145.07357079 625.03611905 151.68846636 623.28777957 158.42456055 621.67590332 C165.80862953 619.83032094 173.07818439 617.53549158 180.35913086 615.32458496 C199.14308977 609.65795398 199.14308977 609.65795398 203.9362793 610.50793457 C205.60424805 612.23059082 205.60424805 612.23059082 207.1237793 614.57043457 C216.13412821 626.89937024 232.21768484 633.45393005 246.9050293 635.95324707 C262.1493071 638.12990998 276.74292498 639.37359399 292.0612793 637.13293457 C293.44766602 636.94344238 293.44766602 636.94344238 294.86206055 636.75012207 C317.75399836 633.52135792 341.36663821 623.57571268 355.89331055 604.83605957 C358.36969341 601.47239774 360.66878261 598.01533581 362.9362793 594.50793457 C363.62463867 593.53340332 364.31299805 592.55887207 365.0222168 591.55480957 C367.12228992 588.21183603 368.59269346 584.82459661 369.9362793 581.13293457 C370.19119141 580.43958008 370.44610352 579.74622559 370.70874023 579.03186035 C376.92316913 561.66202222 379.24408669 544.22676955 379.2109375 525.85144043 C379.21529639 524.23189054 379.22048341 522.61234271 379.22642517 520.99279785 C379.23968756 516.6401005 379.24040916 512.28749061 379.23786187 507.93477702 C379.23678524 504.29104761 379.24169214 500.64733541 379.24646729 497.00360972 C379.25751427 488.41267142 379.25802453 479.8217769 379.25195312 471.23083496 C379.24589178 462.37601629 379.2582899 453.52135565 379.27952319 444.66656393 C379.29712714 437.04417566 379.30314319 429.4218378 379.29988545 421.79942995 C379.29807343 417.25490888 379.3007024 412.71050105 379.31459999 408.16599846 C379.3271571 403.90178288 379.3252545 399.6378155 379.3121891 395.37360382 C379.30982064 393.80989816 379.31256766 392.24617511 379.32081223 390.6824894 C379.33125712 388.54771643 379.32319877 386.41378028 379.3105011 384.27903748 C379.31066884 383.08506316 379.31083658 381.89108885 379.31100941 380.66093349 C378.89427144 377.15447827 378.05341062 375.30913726 375.9362793 372.50793457 C372.76610609 370.39448576 372.00485494 370.25619004 368.38002968 370.24507904 C367.44010662 370.23739675 366.50018356 370.22971446 365.53177798 370.22179937 C364.49726201 370.22353234 363.46274604 370.2252653 362.3968811 370.22705078 C361.29937007 370.22110854 360.20185904 370.21516629 359.0710901 370.20904398 C355.37459275 370.1916294 351.67822463 370.18865012 347.98168945 370.18566895 C345.33914066 370.17641555 342.69660375 370.16640821 340.05406189 370.15557861 C332.86199124 370.12840745 325.66994289 370.11636217 318.47782946 370.1075573 C313.9883416 370.10203382 309.49886237 370.09355942 305.00938034 370.08454895 C292.582663 370.06016418 280.15595256 370.03956469 267.72921181 370.03279877 C266.93378755 370.03235963 266.1383633 370.0319205 265.31883528 370.03146806 C264.52149587 370.03103151 263.72415646 370.03059495 262.90265524 370.03014517 C261.28691013 370.02925823 259.67116503 370.02836511 258.05541992 370.02746582 C256.85321895 370.02680153 256.85321895 370.02680153 255.62673108 370.02612382 C242.63571111 370.01822523 229.64491534 369.98330918 216.653982 369.93674678 C203.3208376 369.88934291 189.98780576 369.86439618 176.65457571 369.86206293 C169.16657196 369.8602282 161.6788604 369.84869329 154.19093704 369.81242371 C147.81570816 369.78165275 141.44086176 369.77136187 135.06557275 369.78789991 C131.81202263 369.79572449 128.55940588 369.79055092 125.30591774 369.76578522 C121.77982354 369.74051322 118.25572267 369.75200453 114.72964478 369.77294922 C113.69959025 369.75683641 112.66953573 369.7407236 111.60826743 369.72412252 C105.48818204 369.77585638 105.48818204 369.77585638 100.82419395 373.36637115 Z M165.9362793 654.50793457 C165.23035645 654.72820313 164.52443359 654.94847168 163.79711914 655.17541504 C138.45109138 663.29392637 121.02528787 680.59468478 108.8737793 703.94543457 C102.77731807 716.12374071 99.44763102 729.28964773 96.6862793 742.57043457 C96.53513672 743.28747559 96.38399414 744.0045166 96.22827148 744.74328613 C93.16457428 760.58737256 92.55694319 776.60258724 92.6237793 792.69543457 C92.62593445 793.63504028 92.6280896 794.574646 92.63031006 795.54272461 C92.71128364 817.6003014 95.10872966 837.88542453 101.2590332 859.1138916 C101.81951093 861.09516217 102.31444361 863.09484327 102.79174805 865.09777832 C104.65100347 872.43098374 108.01732861 878.75440697 111.6862793 885.32043457 C112.17563965 886.20489258 112.665 887.08935059 113.16918945 888.00061035 C116.24913123 893.31213271 119.61168791 897.55626446 124.10083008 901.74987793 C125.91484539 903.48740443 127.48720675 905.3030993 129.0612793 907.25793457 C131.69157544 910.38053213 134.43763258 912.3549212 137.9362793 914.50793457 C138.57436523 915.00809082 139.21245117 915.50824707 139.86987305 916.02355957 C145.28347471 920.18931198 150.93200119 923.04327635 157.1862793 925.69543457 C157.93546631 926.01608887 158.68465332 926.33674316 159.45654297 926.66711426 C201.50227338 943.90706465 269.33517198 945.95016523 311.92456055 929.23449707 C319.04360205 926.23756724 326.02534723 922.95465259 332.9362793 919.50793457 C332.9362793 918.84793457 332.9362793 918.18793457 332.9362793 917.50793457 C333.64526367 917.26559082 334.35424805 917.02324707 335.0847168 916.77355957 C343.66343947 912.9660169 350.40903806 905.38414163 356.1237793 898.13293457 C356.59315918 897.53835449 357.06253906 896.94377441 357.54614258 896.33117676 C359.69821302 893.49870182 361.48547581 891.09668387 361.9362793 887.50793457 C362.5962793 887.50793457 363.2562793 887.50793457 363.9362793 887.50793457 C387.35026046 838.35734285 392.00230328 773.83142249 373.8425293 721.93591309 C372.13041853 717.3021386 370.20909285 712.8990361 367.9362793 708.50793457 C367.62045898 707.67777832 367.30463867 706.84762207 366.97924805 705.99230957 C362.50072516 695.3243674 354.03434623 684.62816086 344.9362793 677.50793457 C343.8225293 676.33230957 343.8225293 676.33230957 342.6862793 675.13293457 C331.06951349 664.04420357 316.33597626 657.30629733 300.9362793 653.50793457 C299.8019043 653.17148926 298.6675293 652.83504395 297.4987793 652.48840332 C278.69205178 646.98248638 259.59316828 646.01156484 240.09643555 646.11682129 C236.57130064 646.13288889 233.04731713 646.11687792 229.5222168 646.09777832 C207.82619216 646.07727329 186.69392267 647.94920917 165.9362793 654.50793457 Z " fill="#BCA24C" transform="translate(90.063720703125,8.4920654296875)"/>
<path d="M0 0 C1.01682358 -0.0071553 2.03364716 -0.01431061 3.08128357 -0.02168274 C6.43941293 -0.03857899 9.79620911 -0.01916057 13.15429688 0.00219727 C15.48929963 0.00136866 17.82430232 -0.0010904 20.15930176 -0.00511169 C25.05185514 -0.00797035 29.94395089 0.00673887 34.83642578 0.03417969 C41.10806054 0.06826189 47.37887692 0.06224452 53.65055084 0.04351711 C58.4718508 0.03294905 63.2929603 0.04188333 68.11424255 0.05690193 C70.42670628 0.06208558 72.73918989 0.06159974 75.051651 0.05535698 C78.28356705 0.04990736 81.51431121 0.07027328 84.74609375 0.09765625 C85.70208969 0.09113037 86.65808563 0.08460449 87.64305115 0.07788086 C91.91133549 0.13937959 94.26042594 0.25617484 97.96887207 2.52577209 C100.15885194 4.94710097 100.50528404 5.91333262 100.37304688 9.13110352 C100.20646147 12.02493002 99.92517343 13.53181485 98.56054688 16.13110352 C95.78289793 18.6001248 93.15433029 18.75884633 89.59768677 18.78500366 C88.72571655 18.79360413 87.85374634 18.80220459 86.95535278 18.81106567 C86.00151703 18.81532562 85.04768127 18.81958557 84.06494141 18.82397461 C83.05816345 18.8321521 82.0513855 18.84032959 81.01409912 18.84875488 C77.67802527 18.87359532 74.34199387 18.89011946 71.00585938 18.90454102 C69.86746487 18.90986469 68.72907036 18.91518837 67.55617905 18.92067337 C61.53339053 18.94739611 55.51062271 18.96677587 49.48779297 18.98120117 C43.26095825 18.99786785 37.03465084 19.0426656 30.80801582 19.09357262 C26.0245196 19.12718653 21.24114962 19.13877207 16.45754623 19.14442825 C14.16178216 19.15115439 11.86602679 19.16641154 9.57037735 19.19031906 C6.35979077 19.22185348 3.15064148 19.22202482 -0.06005859 19.21459961 C-1.48473953 19.23920761 -1.48473953 19.23920761 -2.9382019 19.26431274 C-7.53554678 19.22073652 -9.48392144 19.13249625 -13.21463013 16.22354126 C-15.05968037 13.72230173 -15.81334835 12.67630671 -15.75195312 9.63110352 C-15.76484375 8.99172852 -15.77773438 8.35235352 -15.79101562 7.69360352 C-13.25774323 -0.1744425 -6.96973101 -0.0852425 0 0 Z " fill="#B19A4D" transform="translate(286.126953125,791.368896484375)"/>
</svg>
