<?xml version="1.0" encoding="UTF-8"?>
<!-- Generator: visioncortex VTracer 0.6.4 -->
<svg version="1.1" xmlns="http://www.w3.org/2000/svg" width="4000" height="573">
<path d="M0 0 C1.90961385 -0.00416297 1.90961385 -0.00416297 3.85780576 -0.00841005 C5.28772862 -0.00644014 6.71765135 -0.00437983 8.14757396 -0.00223933 C9.66171188 -0.0036065 11.17584945 -0.00541195 12.68998637 -0.00761814 C16.89191888 -0.01244701 21.09383007 -0.01097431 25.29576381 -0.00856045 C29.86864021 -0.00702636 34.44151174 -0.01126781 39.01438655 -0.01478721 C47.07360646 -0.02017738 55.13282053 -0.02180222 63.1920421 -0.02103646 C75.25707975 -0.01990434 87.32211057 -0.02447159 99.38714669 -0.0301673 C119.94502944 -0.03969504 140.50291083 -0.04438922 161.06079556 -0.04647664 C181.90710244 -0.04860267 202.75340722 -0.05285654 223.5997131 -0.05971937 C224.91420005 -0.06014998 226.22868701 -0.06058059 227.5830069 -0.06102426 C232.93632079 -0.06278254 238.28963469 -0.06455119 243.64294858 -0.06633728 C307.84203294 -0.08772711 372.04111772 -0.09861446 436.24020485 -0.10749951 C458.05294421 -0.11052205 479.86568347 -0.11398254 501.6784227 -0.11778073 C502.79187255 -0.1179744 502.79187255 -0.1179744 503.92781633 -0.11817198 C510.68445505 -0.11934743 517.44109377 -0.12052661 524.19773248 -0.12170925 C600.53847823 -0.1350638 676.87922431 -0.14745867 832.4199566 -0.16246828 C839.68428491 -0.16299274 846.94861322 -0.16353006 854.21294152 -0.16406674 C856.63894466 -0.16424595 859.06494779 -0.16442492 861.49095092 -0.16460384 C876.90303965 -0.16574093 892.31512838 -0.166887 907.7272171 -0.16805203 C911.7934844 -0.16835934 915.8597517 -0.16866528 919.926019 -0.16896794 C996.73289421 -0.17468842 1073.53976611 -0.18393408 1150.34663846 -0.20638494 C1151.1553061 -0.20662117 1151.96397374 -0.20685739 1152.79714647 -0.20710078 C1178.87668227 -0.21472872 1204.95621794 -0.22277753 1231.0357536 -0.23088605 C1256.14720323 -0.23869343 1281.25865289 -0.24641678 1306.37010266 -0.25377588 C1307.56740249 -0.25412701 1307.56740249 -0.25412701 1308.7888902 -0.25448524 C1358.76590422 -0.2691184 1408.74291735 -0.27892253 1458.71993329 -0.28365068 C1459.49163608 -0.28372427 1460.26333888 -0.28379787 1461.0584266 -0.28387369 C1494.94730018 -0.28709943 1528.83617376 -0.289268 1562.72504747 -0.29025669 C1576.35802525 -0.29065752 1589.99100303 -0.29119092 1603.6239808 -0.29178812 C1605.88445171 -0.29188559 1608.14492263 -0.29197797 1610.40539355 -0.2920695 C1644.99697201 -0.29349883 1679.58854623 -0.29807631 1714.18012215 -0.31194548 C1715.29976348 -0.31239409 1715.29976348 -0.31239409 1716.44202383 -0.31285175 C1728.44993759 -0.31768054 1740.45785125 -0.32276238 1752.46576489 -0.32787775 C1786.54189507 -0.34238911 1820.61802025 -0.35491585 1854.69415404 -0.35315959 C1855.3851369 -0.35312482 1856.07611975 -0.35309006 1856.78804148 -0.35305424 C1871.86064834 -0.3522546 1886.93325485 -0.35034661 1902.00586143 -0.3473517 C1908.0166324 -0.34617447 1914.0274034 -0.34514615 1920.03817441 -0.34416227 C1921.34845175 -0.34394242 1922.65872909 -0.34372257 1924.00871181 -0.34349606 C1944.80222648 -0.34037502 1965.595712 -0.35073426 1986.38921991 -0.36663782 C2006.80827767 -0.3819779 2027.22729488 -0.38318321 2047.64635401 -0.36908958 C2059.63521442 -0.36124582 2071.62395135 -0.36448654 2083.61279957 -0.38372674 C2091.55948587 -0.39539886 2099.50608128 -0.39275428 2107.45276253 -0.3781121 C2111.96758013 -0.37020457 2116.4821549 -0.36869675 2120.99695638 -0.38473114 C2125.08856779 -0.39914768 2129.17973176 -0.39535448 2133.27132227 -0.37667948 C2134.74318283 -0.37320411 2136.21507812 -0.37649 2137.68690367 -0.38721986 C2139.67886774 -0.40077898 2141.67096102 -0.38737269 2143.66291642 -0.37259549 C2145.31804269 -0.37284157 2145.31804269 -0.37284157 2147.00660586 -0.37309262 C2151.71830097 0.39247235 2154.88802384 2.7103647 2157.93297608 6.32280757 C2159.54632609 10.26044329 2159.49614164 13.7690254 2159.46206261 17.98663016 C2159.46672253 18.88375148 2159.47138245 19.7808728 2159.47618358 20.70517962 C2159.48818414 23.72704863 2159.47871858 26.74847223 2159.46942593 29.77034541 C2159.47359662 31.95240672 2159.47907268 34.13446586 2159.48574574 36.31652095 C2159.50025369 42.32511601 2159.49593894 48.33357453 2159.48857893 54.34217723 C2159.48386278 60.81739714 2159.4963433 67.29258685 2159.50659634 73.76779719 C2159.52341839 85.72393497 2159.52522333 97.68003122 2159.52029135 109.63617805 C2159.51573731 120.68132381 2159.51632943 131.7264533 2159.5221317 142.77159854 C2159.52288856 144.25216046 2159.52364454 145.73272239 2159.52439964 147.21328432 C2159.52554481 149.44425209 2159.52669469 151.67521987 2159.52785888 153.90618763 C2159.53856676 174.6526101 2159.54328617 195.39902714 2159.53538872 216.14545127 C2159.53494296 217.3189788 2159.53494296 217.3189788 2159.5344882 218.51621395 C2159.53203917 224.86979848 2159.52942763 231.22338294 2159.52680406 237.5769674 C2159.51670063 262.36313723 2159.5250577 287.14923934 2159.54829861 311.93539973 C2159.57435801 339.77259228 2159.58722271 367.60974405 2159.58011086 395.44694926 C2159.57939478 398.41386929 2159.5787204 401.38078933 2159.57807042 404.34770938 C2159.57790061 405.07825894 2159.5777308 405.80880851 2159.57755584 406.56149594 C2159.57525077 417.59980093 2159.58323974 428.63806811 2159.59636189 439.67636462 C2159.61125465 452.22658839 2159.61176572 464.77671705 2159.59429098 477.32693912 C2159.58574952 483.7336946 2159.58370803 490.14028045 2159.59894253 496.54702731 C2159.61270598 502.40754275 2159.60813442 508.2677419 2159.5887033 514.12823864 C2159.58491724 516.25267623 2159.58793948 518.37713864 2159.59831495 520.50155426 C2159.61138501 523.38163916 2159.59999067 526.26061617 2159.58231713 529.14065238 C2159.59196764 529.9721598 2159.60161815 530.80366722 2159.6115611 531.66037183 C2159.54486835 536.92643547 2158.65835059 540.00957154 2155.08174588 544.12656184 C2151.22378569 546.94051928 2148.5299258 547.50171021 2143.78947826 547.50246601 C2142.50934367 547.50994712 2141.22920908 547.51742822 2139.91028253 547.52513603 C2138.48796117 547.51827272 2137.0656411 547.51113721 2135.6433223 547.50376 C2134.12530871 547.50685926 2132.60729732 547.51127373 2131.08929093 547.51688479 C2126.89052949 547.5285511 2122.69197357 547.52140362 2118.4932156 547.51135902 C2113.9186223 547.50371403 2109.34406111 547.51345341 2104.76947223 547.52099954 C2096.71189586 547.53186582 2088.65437936 547.53148681 2080.59680011 547.52392651 C2068.53428151 547.51266241 2056.47181381 547.51861499 2044.40929579 547.5279905 C2023.85455132 547.54345348 2003.299828 547.54458666 1982.74507977 547.53801127 C1961.90486659 547.53139249 1941.06466854 547.53124723 1920.22445561 547.53905841 C1918.90988258 547.5395464 1917.59530955 547.5400344 1916.24090098 547.54053719 C1910.8871577 547.54254529 1905.53341445 547.54459347 1900.17967122 547.54670893 C1885.0867972 547.55266342 1869.99392293 547.5575545 1854.90104832 547.56172164 C1853.86351053 547.56200867 1853.86351053 547.56200867 1852.80501238 547.5623015 C1818.68803373 547.57163634 1784.57105687 547.56945293 1750.4540775 547.56601306 C1749.71438575 547.5659386 1748.97469399 547.56586415 1748.21258734 547.56578744 C1745.21795879 547.56548561 1742.22333023 547.56518291 1739.22870168 547.56487951 C1730.95688191 547.56404269 1722.68506213 547.56323676 1714.41324235 547.56246992 C1713.66644684 547.56240004 1712.91965132 547.56233016 1712.15022563 547.56225817 C1677.56566758 547.55905423 1642.98111108 547.56219426 1608.39655328 547.56665771 C1604.62530171 547.56714155 1600.85405014 547.56761156 1597.08279857 547.56808184 C1591.02987411 547.56883777 1584.97694966 547.56959602 1578.9240252 547.57035876 C1578.17345129 547.57045331 1577.42287739 547.57054786 1576.64955882 547.57064528 C1572.85406054 547.57112399 1569.05856226 547.57160543 1565.26306398 547.57209139 C1529.83993822 547.57662605 1494.41681242 547.58012432 1458.99368645 547.58259459 C1458.22183694 547.5826487 1457.44998742 547.58270281 1456.65474852 547.58275855 C1406.6563261 547.58624175 1356.65790503 547.584884 1306.65948273 547.58020468 C1305.0463716 547.58005479 1303.43326048 547.57990499 1301.82014935 547.57975527 C1284.01118443 547.57809865 1266.20221951 547.576347 1248.3932546 547.57456226 C1247.1874157 547.57444151 1247.1874157 547.57444151 1245.95721642 547.57431832 C1243.52015941 547.57407426 1241.0831024 547.57383007 1238.6460454 547.57358581 C1237.841499 547.57350518 1237.0369526 547.57342455 1236.20802601 547.57334147 C1232.14283084 547.57293378 1228.07763567 547.57252469 1224.01244049 547.57211312 C1143.13965944 547.56393352 1062.26688597 547.56206325 917.84159077 547.59255443 C891.10704474 547.59869357 864.3724987 547.6047759 837.63795258 547.6105239 C836.8398458 547.61069591 836.04173902 547.61086793 835.21944719 547.61104516 C785.2484975 547.62180247 735.2775493 547.62769077 685.30659844 547.62808104 C684.14919518 547.62809082 684.14919518 547.62809082 682.96841003 547.62810079 C648.32404342 547.62838227 613.67967694 547.62739131 579.0353104 547.62521072 C566.9186516 547.62445122 554.80199278 547.62377725 542.68533397 547.62313057 C539.67087153 547.62296934 536.65640908 547.62280123 533.64194664 547.62262756 C499.05615455 547.62065205 464.47036594 547.62147251 429.88457491 547.63093229 C429.13829053 547.63113591 428.39200616 547.63133952 427.62310712 547.63154931 C415.61756577 547.63483702 403.61202448 547.63833115 391.60648319 547.64183054 C357.53757634 547.65174602 323.46867479 547.6594093 289.39976658 547.65266402 C288.70893571 547.65252794 288.01810484 547.65239185 287.3063397 547.65225163 C272.23710356 547.64923844 257.16786795 547.64508382 242.09863244 547.63980731 C236.08923406 547.63771911 230.07983564 547.63577517 224.07043721 547.63387271 C222.76046084 547.63345221 221.45048448 547.6330317 220.10081186 547.63259846 C199.31212804 547.62628709 178.52347124 547.63342545 157.73479123 547.64608191 C137.32056717 547.65822894 116.90638601 547.65621241 96.49216524 547.63886159 C84.50621056 547.6291024 72.52037734 547.63040832 60.53443046 547.64769157 C52.58969286 547.65806498 44.64504851 547.65412 36.70032027 547.63817508 C32.18662203 547.6295265 27.67316547 547.62727448 23.15947939 547.64255881 C19.0688809 547.656295 14.97873279 547.65182495 10.88816067 547.6324757 C9.4166694 547.62875677 7.94514228 547.63179726 6.47368364 547.64227983 C4.48221198 547.6555043 2.49061562 547.64176961 0.49915733 547.6266645 C-0.60398426 547.62664461 -1.70712585 547.62662471 -2.84369598 547.62660421 C-7.49456616 546.87019238 -10.65180107 544.56769807 -13.73075412 541.06406184 C-16.37880716 536.74355426 -16.06007317 532.46503334 -16.04968189 527.57505866 C-16.05173452 526.68699852 -16.05378715 525.79893838 -16.05590199 524.88396733 C-16.06159748 521.88101214 -16.06011161 518.87810244 -16.05869602 515.87514277 C-16.06127819 513.71130903 -16.06429093 511.54747577 -16.06769942 509.38364317 C-16.07578998 503.41617627 -16.07756013 497.44872138 -16.07829688 491.48124965 C-16.08014386 485.05372142 -16.08768935 478.62619948 -16.0944321 472.19867488 C-16.10873958 457.40118425 -16.11454369 442.60369607 -16.11912405 427.80619973 C-16.12145882 420.49653193 -16.12506133 413.18686493 -16.12881942 405.87719775 C-16.14165537 380.86364639 -16.15237488 355.85009548 -16.15582202 330.8365409 C-16.15604366 329.26595385 -16.15626544 327.69536681 -16.15648738 326.12477977 C-16.15670802 324.55036498 -16.1569285 322.9759502 -16.15714882 321.40153541 C-16.15759138 318.24290164 -16.15803849 315.08426787 -16.1584885 311.9256341 C-16.15865258 310.7508953 -16.15865258 310.7508953 -16.15881998 309.55242441 C-16.16245168 284.15094913 -16.17837574 258.74950237 -16.20167886 233.34803802 C-16.22626183 206.50248486 -16.23999413 179.65694801 -16.24118994 152.81138327 C-16.2413614 149.86577661 -16.24157683 146.92016997 -16.24182437 143.97456332 C-16.24188014 143.24925336 -16.24193591 142.52394339 -16.24199337 141.77665434 C-16.24314511 130.09277819 -16.25417747 118.40893126 -16.26871143 106.72506499 C-16.28306101 94.98666191 -16.28606912 83.2482996 -16.27827145 71.50989012 C-16.2743536 65.14772698 -16.27534978 58.78566237 -16.2893288 52.42351123 C-16.30199967 46.60367904 -16.30093045 40.78402011 -16.28873809 34.96418839 C-16.28676922 32.85449319 -16.28991388 30.74478599 -16.29858245 28.63510768 C-16.30959378 25.77505521 -16.30224461 22.91562303 -16.29019092 20.05558844 C-16.29778611 19.22992671 -16.30538131 18.40426498 -16.31320666 17.55358319 C-16.2686048 12.67626608 -15.59771634 9.360356 -12.91825412 5.12656184 C-8.41413213 1.06186638 -5.99883884 0.00165229 0 0 Z M1302.08174588 171.12656184 C1300.8365115 172.12236262 1300.8365115 172.12236262 1299.56612088 173.13828059 C1279.25444669 189.9919857 1270.91102909 218.95278377 1268.45283963 244.22421809 C1267.27978915 257.53858849 1266.71909087 270.76699149 1267.08174588 284.12656184 C1267.10108182 284.96993098 1267.12041775 285.81330012 1267.14033963 286.6822259 C1267.92139551 317.36164163 1272.14025001 350.45265711 1294.42158963 373.55234309 C1312.68405652 390.71848495 1335.88029627 398.1844798 1360.08174588 402.12656184 C1360.81296658 402.24660578 1361.54418728 402.36664973 1362.29756619 402.49033137 C1399.15958604 408.14520456 1445.78480421 407.28853002 1479.08174588 389.12656184 C1480.07948025 388.61609309 1481.07721463 388.10562434 1482.10518338 387.57968684 C1504.62003994 375.42513703 1517.23754096 354.08958627 1524.48848416 330.23251887 C1536.15059457 288.83442652 1535.40231024 231.6142884 1514.9821365 193.04990168 C1502.15127457 170.45963636 1481.67847335 156.84385495 1457.0199783 149.78647395 C1441.10388293 145.60883669 1424.51624561 143.50155538 1408.08174588 143.12656184 C1406.78237088 143.0866009 1405.48299588 143.04663996 1404.14424588 143.00546809 C1368.81802926 142.25129364 1329.57046353 147.00475088 1302.08174588 171.12656184 Z M164.08174588 158.12656184 C163.53905057 158.62800715 162.99635525 159.12945246 162.43721463 159.64609309 C151.91029178 170.59942294 152.35885252 184.16689999 152.43477322 198.3294427 C152.42798867 200.46101155 152.41908086 202.59257454 152.40822293 204.72412654 C152.38553258 210.48198021 152.394221 216.23938331 152.41011836 221.99724432 C152.42281905 228.03137465 152.41102675 234.06546764 152.40318753 240.09959956 C152.39410801 250.22299638 152.40603949 260.34621038 152.42989041 270.46957942 C152.45714973 282.17485392 152.44824562 293.8796936 152.42075838 305.58495774 C152.39808136 315.64468042 152.39485884 325.70427214 152.40795173 335.76401212 C152.4157473 341.76847381 152.41678363 347.77273088 152.40026928 353.77717944 C152.38584264 359.41547102 152.39581365 365.05320006 152.42474057 370.69143077 C152.43135876 372.76146736 152.42944127 374.83155121 152.41842724 376.90156909 C152.40479071 379.72431457 152.42186398 382.54524991 152.44682766 385.36787959 C152.43567406 386.18946572 152.42452045 387.01105186 152.41302885 387.85753455 C152.48577972 392.08938777 152.72192297 393.66994685 155.43392827 397.11147948 C159.95408349 400.55147664 164.05620548 400.26419024 169.50044705 400.24008723 C170.35919934 400.24023326 171.21795163 400.24037928 172.10272671 400.24052973 C174.94341498 400.23983263 177.78403781 400.23204967 180.62471463 400.22421809 C182.59340831 400.22235319 184.56210246 400.22092963 186.53079678 400.21993037 C191.71427639 400.21611085 196.89772801 400.20628536 202.08119656 400.19522639 C207.36978727 400.18500014 212.6583825 400.18043014 217.94698025 400.17538996 C228.32524776 400.16466261 238.70349449 400.14759294 249.08174588 400.12656184 C248.51331935 395.74928782 247.76747266 391.56232284 246.5981033 387.30698176 C246.29616559 386.20037196 245.99422787 385.09376216 245.68314053 383.95361872 C245.35448498 382.76674464 245.02582943 381.57987055 244.68721463 380.35703059 C244.34329175 379.10312525 243.99936886 377.84921992 243.64502408 376.55731745 C242.90727313 373.86864391 242.16661485 371.18079405 241.42372586 368.49353572 C240.45794338 364.99984867 239.49745941 361.50473196 238.53856732 358.00914832 C234.8653533 344.62341502 231.15368329 331.25187436 227.24971463 317.93124934 C226.9638197 316.95160716 226.67792477 315.97196498 226.38336636 314.96263667 C225.07379706 310.47976709 223.750092 306.00208738 222.39888455 301.53159114 C221.93591185 299.96052746 221.47339771 298.38932856 221.01143338 296.81796809 C220.79774609 296.13221705 220.58405881 295.44646601 220.36389615 294.73993464 C219.05322186 290.21416268 218.99512493 286.7089427 220.08174588 282.12656184 C222.08174588 280.12656184 222.08174588 280.12656184 225.45674588 279.75156184 C229.08174588 280.12656184 229.08174588 280.12656184 231.15292813 281.69571467 C233.54704575 284.71296918 234.53496848 287.75020413 235.56782986 291.39511653 C235.78471463 292.12102488 236.00159939 292.84693324 236.22505642 293.59483882 C236.93819978 295.99261359 237.63297026 298.39530894 238.32783963 300.79843684 C238.82464814 302.48109239 239.32263845 304.16339942 239.82175137 305.84537287 C241.13480157 310.28126707 242.43253698 314.72149662 243.72688748 319.16287776 C245.03003795 323.62593221 246.34607522 328.08517703 247.661824 332.54453059 C249.14962548 337.58717465 250.63653344 342.63003146 252.11114956 347.67654963 C254.28277985 355.10276091 256.4757734 362.52259747 258.74214627 369.92050715 C259.12504315 371.17615473 259.50794003 372.43180232 259.90243985 373.72549983 C263.41029001 383.84197139 269.54252654 391.21816332 278.89424588 396.43906184 C289.09748049 400.91559165 300.29506783 400.4241093 311.21065213 400.39218684 C312.85249333 400.39353755 314.49433413 400.39548145 316.13617398 400.39798518 C319.55939529 400.40091651 322.98251149 400.39670288 326.40572049 400.38730403 C330.76856822 400.37590162 335.13117002 400.38248665 339.49400879 400.39444895 C342.87857323 400.40171392 346.26308041 400.3993586 349.64764668 400.39419337 C351.25542108 400.39287014 352.86320088 400.39445745 354.47096898 400.39915248 C370.62468031 400.43599246 383.83858105 398.87290994 396.10518338 387.36484309 C403.37278924 379.13492578 405.39288293 368.80255504 405.34244229 358.14983149 C405.34626784 357.28081082 405.35009338 356.41179015 405.35403486 355.51643552 C405.36430099 352.62314998 405.36038497 349.73006525 405.35640408 346.83676692 C405.36075393 344.75505424 405.36593799 342.67334317 405.37189175 340.59163447 C405.3852595 334.95143839 405.38586319 329.31130941 405.38332845 323.67110058 C405.38225783 318.96146793 405.38714413 314.25184881 405.39193387 309.54221906 C405.40302007 298.43531323 405.4034706 287.32844123 405.39741971 276.22153254 C405.39137158 264.75956204 405.40371426 253.29771403 405.42498977 241.83576443 C405.4425891 231.99271103 405.44861001 222.14969669 405.44535203 212.30662813 C405.44353732 206.42846006 405.44619472 200.5503795 405.46006657 194.67222567 C405.47261409 189.1490386 405.47072999 183.62604325 405.45765568 178.10285922 C405.45528413 176.07474234 405.45804522 174.04661209 405.46627881 172.01851054 C405.47669834 169.2528965 405.4686844 166.48793161 405.45596768 163.72234126 C405.46334196 162.91748138 405.47071625 162.11262151 405.478314 161.28337194 C405.4340885 156.7206127 404.95385991 153.72986425 402.08174588 150.12656184 C398.27889587 147.5913285 395.24983361 147.85960396 390.84663846 147.89951106 C390.00739331 147.899219 389.16814816 147.89892695 388.30347134 147.89862605 C385.52763501 147.90002013 382.75206661 147.91558501 379.97627713 147.93124934 C378.05242506 147.93497919 376.1285711 147.93782629 374.20471646 147.93982478 C369.13956409 147.94746342 364.0745263 147.96711393 359.00941922 147.98923274 C353.84148658 148.00968616 348.67353544 148.01882542 343.505574 148.02890559 C333.3642476 148.05035958 323.22300627 148.08449835 313.08174588 148.12656184 C314.59369698 156.89527177 317.04599369 165.37779555 319.51924588 173.91171809 C319.96354398 175.45496517 320.40754779 176.998297 320.85127713 178.54170771 C321.78348425 181.78093225 322.71841804 185.01935266 323.65547635 188.25717707 C324.82490025 192.29823842 325.98890851 196.34083222 327.15100743 200.38400527 C332.95096318 220.55654095 338.92659702 240.66974141 345.05183865 260.74573298 C347.13742328 267.59198526 349.18792737 274.44781904 351.20674588 281.31406184 C351.39784939 281.95029475 351.58895291 282.58652766 351.78584744 283.24204035 C352.35316457 285.13222927 352.90904874 287.02583792 353.46455838 288.91953059 C353.7779617 289.97680354 354.09136502 291.03407649 354.41426541 292.12338801 C355.1105308 295.25607295 355.31165954 297.92838939 355.08174588 301.12656184 C353.51924588 303.56406184 353.51924588 303.56406184 351.08174588 305.12656184 C347.58174588 305.37656184 347.58174588 305.37656184 344.08174588 304.12656184 C340.39568292 297.90499631 338.37328479 291.2710308 336.28096463 284.38046809 C335.92761044 283.23671717 335.57425625 282.09296626 335.21019436 280.91455622 C334.25485314 277.81741297 333.30570754 274.71845601 332.35933758 271.61856242 C331.36604753 268.37067108 330.36438509 265.12536324 329.3637283 261.87973567 C326.92564985 253.96529519 324.50170768 246.04655804 322.08174588 238.12656184 C321.52928189 236.31847041 321.52928189 236.31847041 320.96565701 234.47385188 C319.91291692 231.02744802 318.86059135 227.58091779 317.80830838 224.13437434 C317.47368084 223.03904887 317.13905331 221.9437234 316.79428555 220.81520625 C315.23073597 215.6965157 313.67015235 210.57697893 312.11763455 205.45493098 C310.73665095 200.90697865 309.33889982 196.36457657 307.92360379 191.8271844 C307.34726838 189.97833984 306.77448172 188.12838634 306.20473172 186.27750178 C305.32879267 183.44736486 304.43256622 180.62439629 303.53096463 177.80234309 C303.27362042 176.96148661 303.01627621 176.12063014 302.7511337 175.25429316 C299.12790196 164.11001865 293.09848235 156.90480456 282.83174588 151.37656184 C271.53405807 147.6106659 259.93940415 147.80052662 248.17549588 147.79062434 C246.36051276 147.78418125 244.54553064 147.77745183 242.73054959 147.77045222 C238.94508402 147.75854614 235.15970928 147.75476476 231.37422635 147.75595637 C226.55295695 147.75615983 221.73227515 147.72879967 216.91114499 147.69441195 C213.16877574 147.67205153 209.42654627 147.66812153 205.68411709 147.66917582 C203.90771904 147.66683585 202.13131617 147.65810418 200.35498501 147.64251109 C186.75967321 147.53427408 174.55056893 148.41055303 164.08174588 158.12656184 Z M419.08174588 150.12656184 C417.03905583 153.19059691 416.83092187 153.79703319 416.82168366 157.24552508 C416.81461807 158.08791307 416.80755248 158.93030105 416.80027278 159.79821594 C416.80268786 160.72378536 416.80510295 161.64935478 416.80759121 162.60297175 C416.80235454 163.58614332 416.79711786 164.56931488 416.79172249 165.58227952 C416.77666573 168.89184003 416.77601609 172.20124671 416.77534939 175.51083918 C416.76773176 177.87752582 416.75930495 180.24420997 416.75012662 182.61089106 C416.72813647 189.05092732 416.71935522 195.49092918 416.71430017 201.93099709 C416.71104437 205.95145793 416.70452263 209.97190918 416.69729878 213.9923646 C416.67773235 225.12203638 416.66132819 236.25169925 416.65842225 247.38138934 C416.65823468 248.09372048 416.65804711 248.80605162 416.65785385 249.53996855 C416.6574876 250.98405882 416.6571239 252.42814908 416.65676274 253.87223935 C416.65657993 254.58909546 416.65639712 255.30595157 416.65620877 256.04453059 C416.65602822 256.76226069 416.65584767 257.4799908 416.65566165 258.2194703 C416.65211907 269.85249916 416.62509174 281.48534302 416.58771088 293.11830771 C416.54964703 305.05927781 416.53026492 317.00015605 416.52996273 328.94118818 C416.52937775 335.64668125 416.52085983 342.3519536 416.49196507 349.05738993 C416.46587304 355.36278147 416.46352989 361.66773503 416.47962071 367.9731557 C416.48144222 370.28992512 416.47468164 372.60671922 416.458802 374.92343493 C416.43847158 378.08154239 416.44881737 381.23809864 416.46701504 384.39618464 C416.45381508 385.31729261 416.44061511 386.23840059 416.42701514 387.18742092 C416.4865565 391.69801983 416.6072011 393.5277037 419.49516656 397.17221041 C423.79022911 400.41744691 426.9988327 400.27263415 432.22305752 400.26700373 C433.50052272 400.27146042 433.50052272 400.27146042 434.80379529 400.27600713 C437.67420593 400.28471922 440.54457499 400.2862045 443.41499783 400.28769465 C445.46626828 400.29232105 447.51753786 400.29734547 449.56880642 400.30273982 C455.15355602 400.31588303 460.73829358 400.32231252 466.32305624 400.32675048 C469.80965488 400.32967813 473.2962502 400.33378235 476.78284718 400.33825465 C487.68422131 400.35193469 498.5855879 400.36159884 509.48697002 400.36545654 C522.08467023 400.36993858 534.68226201 400.38749118 547.27992924 400.41645714 C557.00820725 400.43805145 566.73645471 400.44815962 576.46475644 400.44949766 C582.27930605 400.45054731 588.0937538 400.45648907 593.90827824 400.47431727 C599.377204 400.49075903 604.84595092 400.49297241 610.31489255 400.48417826 C612.32365786 400.4834058 614.33243263 400.48777809 616.3411739 400.49763652 C619.0808251 400.51029485 621.81983703 400.50451256 624.5594833 400.49405451 C625.75540293 400.50613912 625.75540293 400.50613912 626.97548254 400.51846786 C631.51283808 400.47788367 634.48425987 399.96581708 638.08174588 397.12656184 C639.49649306 394.29706748 639.23253903 391.90085587 639.25874783 388.73666926 C639.26860463 387.75341418 639.26860463 387.75341418 639.27866055 386.75029536 C639.29839644 384.5775393 639.31005705 382.40485238 639.32002713 380.23203059 C639.32410266 379.48989125 639.32817818 378.74775191 639.33237721 377.9831235 C639.35323979 374.05462075 639.36754032 370.12615294 639.37691189 366.19760676 C639.38797333 362.14212062 639.4223689 358.08718363 639.46208359 354.03189154 C639.48824463 350.91173323 639.49660326 347.79170582 639.50019337 344.67144747 C639.50506118 343.17672873 639.51668086 341.68201591 639.53523137 340.18740435 C639.55961251 338.09270807 639.55866076 335.9994331 639.55171658 333.90463801 C639.55758282 332.71376078 639.56344906 331.52288356 639.56949307 330.29591914 C638.98395689 326.49113377 637.7489814 324.84883596 635.08174588 322.12656184 C632.76968877 320.97053328 631.46514964 321.00320834 628.89299466 321.00630732 C628.01517331 321.00493266 627.13735196 321.00355799 626.23292996 321.00214167 C625.26764371 321.00573695 624.30235745 321.00933222 623.3078201 321.01303645 C622.29315671 321.01289042 621.27849331 321.0127444 620.23308255 321.01259394 C616.86751134 321.01329256 613.50199496 321.02108262 610.13643338 321.02890559 C607.80758644 321.03076995 605.4787391 321.03219377 603.14989163 321.03319331 C597.01123932 321.03701708 590.87261055 321.04684618 584.73396756 321.05789729 C578.47359482 321.06811442 572.21321829 321.07269158 565.95283963 321.07773371 C553.66246468 321.08846855 541.37210724 321.10554331 529.08174588 321.12656184 C529.08174588 316.50656184 529.08174588 311.88656184 529.08174588 307.12656184 C530.37356274 307.13544429 531.66537961 307.14432673 532.99634244 307.15347834 C545.16498817 307.23453251 557.33357921 307.29451219 569.50243355 307.33381053 C575.75872169 307.35469335 582.01479206 307.38302432 588.27095486 307.42831965 C594.30746869 307.47175165 600.34377294 307.49569371 606.38043095 307.50607081 C608.68456074 307.51346686 610.98867895 307.52790943 613.29271962 307.54948207 C616.51781406 307.57848006 619.74204028 307.58251924 622.96724392 307.5806634 C624.39899457 307.60223506 624.39899457 307.60223506 625.85966946 307.6242425 C630.13469983 307.59758901 632.44820729 307.51939589 636.15140225 305.22318049 C639.09023482 302.03120415 639.2098412 300.25232214 639.22700955 296.00595637 C639.2333894 294.93789759 639.23976925 293.86983882 639.24634244 292.76941462 C639.24745526 291.61110133 639.24856808 290.45278804 639.24971463 289.25937434 C639.25304303 288.0731045 639.25637143 286.88683467 639.25980069 285.66461726 C639.26487126 283.15112227 639.26720897 280.63762053 639.26704861 278.12412043 C639.26923283 274.27456104 639.28738123 270.42528915 639.30635525 266.57578059 C639.30928956 264.13697949 639.31127411 261.69817702 639.31221463 259.25937434 C639.3229929 257.52797709 639.3229929 257.52797709 639.33398892 255.76160212 C639.33091229 254.68723902 639.32783566 253.61287593 639.3246658 252.50595637 C639.32609082 251.56156703 639.32751584 250.61717768 639.32898404 249.64417048 C639.06458939 246.95185857 638.55944536 245.38131864 637.08174588 243.12656184 C633.95552325 241.04241342 633.28246453 240.87757565 629.73477627 240.88605281 C628.40336102 240.88192881 628.40336102 240.88192881 627.04504849 240.87772151 C626.07400677 240.88491206 625.10296506 240.89210261 624.10249783 240.89951106 C623.07793484 240.899219 622.05337185 240.89892695 620.9977615 240.89862605 C617.60509777 240.9000214 614.21265259 240.91559244 610.82002713 240.93124934 C608.47019009 240.93497873 606.1203515 240.93782605 603.77051236 240.93982478 C597.58087835 240.94746701 591.39133797 240.96712063 585.201741 240.98923274 C578.88766696 241.00967843 572.57357783 241.01882377 566.25948025 241.02890559 C553.86686096 241.05036591 541.4743112 241.08450902 529.08174588 241.12656184 C529.08174588 236.50656184 529.08174588 231.88656184 529.08174588 227.12656184 C530.99734814 227.13988551 530.99734814 227.13988551 532.95164944 227.15347834 C544.98753769 227.23456948 557.0233705 227.29452998 569.05946995 227.33381053 C575.24734963 227.35468397 581.43500876 227.38299785 587.6227615 227.42831965 C593.59444163 227.47178506 599.56590961 227.49570077 605.53773572 227.50607081 C607.81591961 227.51346085 610.09409191 227.52789181 612.37218548 227.54948207 C615.56355057 227.57852446 618.7540394 227.58251738 621.94551541 227.5806634 C622.88706982 227.59504451 623.82862423 227.60942561 624.7987106 227.6242425 C630.52473764 227.58825525 633.70216099 226.90687218 638.08174588 223.12656184 C639.5094031 220.27124739 639.23276341 217.82095306 639.25874783 214.62900325 C639.26860463 213.62870837 639.26860463 213.62870837 639.27866055 212.60820552 C639.29839479 210.39817735 639.31005564 208.1882171 639.32002713 205.97812434 C639.32410266 205.22370429 639.32817818 204.46928424 639.33237721 203.69200297 C639.35323738 199.69981444 639.36753992 195.70766028 639.37691189 191.71542903 C639.38798308 187.5903469 639.42239061 183.46580321 639.46208359 179.34091159 C639.48821584 176.17018153 639.49660061 172.99958051 639.50019337 169.82875224 C639.5050673 168.30808786 639.51670432 166.78742954 639.53523137 165.26687022 C639.55955503 163.13844771 639.55867143 161.01142815 639.55171658 158.8829095 C639.55758282 157.67204676 639.56344906 156.46118403 639.56949307 155.21362849 C638.9584341 151.34609261 638.22231314 150.43461267 635.08174588 148.12656184 C632.12246505 147.73808523 629.53734143 147.59454122 626.57930447 147.63208552 C625.71299594 147.62725669 624.8466874 147.62242786 623.95412709 147.6174527 C621.04584083 147.6061642 618.13843041 147.62351417 615.23018338 147.640722 C613.14743763 147.63857657 611.06469304 147.63469952 608.9819534 147.62921687 C603.32082765 147.61951033 597.66001651 147.63484333 591.9989288 147.65512295 C586.08041173 147.67266937 580.16190474 147.66916934 574.24336697 147.66840144 C564.3033719 147.67027545 554.36349883 147.6876529 544.42354275 147.71494075 C532.92416191 147.74639257 521.42491472 147.75693699 509.92549397 147.75546964 C498.87300581 147.75424968 487.82056127 147.76445508 476.76808621 147.78105326 C472.06003425 147.78812228 467.35199772 147.79178024 462.6439407 147.79284068 C457.10194693 147.79484717 451.56006573 147.80703737 446.0181091 147.82717295 C443.98152045 147.83302335 441.94491884 147.83547361 439.90832211 147.83431788 C437.13349013 147.83333896 434.35897517 147.84462314 431.58418728 147.8591363 C430.36843549 147.8544905 430.36843549 147.8544905 429.12812306 147.84975084 C423.77387177 147.85607514 423.77387177 147.85607514 419.08174588 150.12656184 Z M652.51844575 149.96704837 C650.50195849 152.99804426 650.57376743 155.21001032 650.56416775 158.83530207 C650.55715848 159.50085108 650.5501492 160.1664001 650.54292752 160.85211726 C650.52535732 163.04689092 650.53696649 165.24036937 650.55049588 167.43515559 C650.54780032 168.96446006 650.54391737 170.49376286 650.5388992 172.02306147 C650.53300526 175.22675443 650.54156197 178.43000092 650.5602615 181.63364192 C650.58303237 185.73402528 650.56994018 189.83336029 650.54597165 193.93370505 C650.53149396 197.09167363 650.53612887 200.24939508 650.54648282 203.40737124 C650.54914569 204.91880007 650.54589577 206.43025155 650.5365646 207.94165393 C650.52636783 210.05784617 650.54194076 212.17235942 650.56416775 214.28842707 C650.56735013 215.49103678 650.5705325 216.69364649 650.57381131 217.93269892 C651.18288152 221.76249682 652.34876095 223.41898337 655.08174588 226.12656184 C658.31032682 227.20275549 660.62713867 227.2470868 664.02193142 227.24008723 C665.2429707 227.2400117 666.46400998 227.23993617 667.72205044 227.23985835 C669.04086712 227.23469706 670.35968381 227.22953578 671.71846463 227.22421809 C673.08181147 227.22235264 674.44515899 227.22092934 675.80850674 227.21993037 C679.39403079 227.21611516 682.97951423 227.20629339 686.56502225 227.19522639 C690.22488808 227.18499085 693.88476048 227.18042815 697.5446365 227.17538996 C704.72369146 227.16467022 711.90271298 227.14760577 719.08174588 227.12656184 C719.0789805 227.97747244 719.07621512 228.82838303 719.07336594 229.7050788 C719.00713313 250.40291009 718.95747845 271.10072313 718.92630936 291.79863806 C718.91083586 301.80796841 718.88973709 311.81722805 718.85542752 321.82651301 C718.82553998 330.54989209 718.80617439 339.27321996 718.79948039 347.99664881 C718.79556705 352.61629313 718.78636007 357.23579096 718.76455571 361.85538836 C718.74420077 366.20310811 718.73791007 370.55062094 718.74242283 374.89838381 C718.74159719 376.49433934 718.73562557 378.09030174 718.72412945 379.68621607 C718.7092005 381.8654941 718.71279322 384.04399116 718.72098233 386.2232873 C718.71821695 387.44281942 718.71545157 388.66235154 718.71260239 389.91883918 C719.11765276 393.43857962 719.97258478 395.30903763 722.08174588 398.12656184 C726.47612215 400.82914527 731.38385355 400.41542426 736.38252713 400.40122004 C737.77608929 400.40888644 737.77608929 400.40888644 739.19780423 400.41670771 C742.26335062 400.43058783 745.32867183 400.42964834 748.39424588 400.42734309 C750.52746613 400.43123043 752.66068561 400.43556518 754.79390408 400.44032832 C759.26259824 400.4477868 763.73121339 400.44750159 768.19990994 400.44223567 C773.92660299 400.43643674 779.65297306 400.45338421 785.3796127 400.47658034 C789.78395424 400.49130952 794.18821781 400.49219057 798.59257962 400.48907061 C800.70409736 400.48958407 802.81561945 400.49482648 804.92711331 400.50488253 C807.87861104 400.51721578 810.82947705 400.51047415 813.78096463 400.49887629 C814.65280392 400.50652003 815.52464322 400.51416377 816.42290188 400.52203913 C821.10378236 400.48137416 824.36449911 400.28438495 828.08174588 397.12656184 C831.04823128 393.10249748 831.45380985 390.21460209 831.44250943 385.26125117 C831.4450727 384.58319291 831.44763598 383.90513464 831.45027693 383.20652916 C831.45520606 380.94159195 831.43873708 378.67732599 831.42232205 376.41245051 C831.42147559 374.78611807 831.4219513 373.15978448 831.42364956 371.53345271 C831.42451019 367.12263187 831.40687354 362.71205585 831.38592769 358.3012919 C831.36717214 353.69018947 831.36541133 349.07908141 831.36185147 344.46794673 C831.35252771 335.73802318 831.32790944 327.00821236 831.297803 318.27833845 C831.2642693 308.338887 831.24777557 298.39943016 831.23271669 288.45993622 C831.20136019 268.01541518 831.14859323 247.57099561 831.08174588 227.12656184 C831.83263485 227.13544429 832.58352383 227.14432673 833.35716702 227.15347834 C840.44842507 227.23376913 847.53952453 227.29459944 854.63110997 227.33381053 C858.27663708 227.35464755 861.92178724 227.38289268 865.56709744 227.42831965 C869.08789575 227.47191827 872.60833249 227.49572815 876.12938 227.50607081 C878.12022535 227.51701189 880.1109261 227.54821583 882.10155179 227.57974787 C890.92833805 227.67754476 890.92833805 227.67754476 898.08174588 223.12656184 C899.4955658 220.29892199 899.2403997 217.89884665 899.27461697 214.73666926 C899.28279446 214.08116587 899.29097195 213.42566249 899.29939725 212.75029536 C899.3242415 210.57754973 899.34076499 208.4048694 899.35518338 206.23203059 C899.36316889 205.11882158 899.36316889 205.11882158 899.37131573 203.9831235 C899.3980437 200.05462843 899.41741927 196.12616508 899.43184353 192.19760676 C899.44848694 188.14199477 899.49326175 184.08719613 899.54421498 180.03189154 C899.57788951 176.91173415 899.58942108 173.79176974 899.59507062 170.67144747 C899.60178312 169.17670323 899.61700548 167.68197169 899.64096142 166.18740435 C899.67262316 164.09247715 899.67265019 161.99974216 899.66524197 159.90463801 C899.67737225 158.11832217 899.67737225 158.11832217 899.68974759 156.29591914 C898.86706136 152.0074664 897.54539098 150.77225604 894.08174588 148.12656184 C890.86548592 147.39793078 887.72059399 147.45575051 884.43402554 147.49837275 C882.96789723 147.48773117 882.96789723 147.48773117 881.47215016 147.47687461 C878.19374875 147.45925861 874.91652722 147.47741846 871.63814236 147.49545832 C869.28923956 147.49032095 866.94034061 147.48304105 864.59145047 147.47377558 C858.20930544 147.45523157 851.82757715 147.46821909 845.44544937 147.48786588 C839.44889714 147.50256917 833.45237549 147.49664665 827.4558151 147.49180898 C815.57462794 147.48324216 803.69360578 147.49991696 791.81245877 147.52963801 C780.28178933 147.55848197 768.75135752 147.56555591 757.22066189 147.55014582 C744.66494612 147.53338885 732.10934317 147.52934375 719.55362447 147.54685618 C712.90694464 147.55601489 706.2603496 147.56004512 699.61366536 147.5508153 C693.3665278 147.54316905 687.11973363 147.55522469 680.87265469 147.58266421 C678.57644683 147.58956622 676.280207 147.58962671 673.98399998 147.58244868 C670.85644089 147.57379649 667.72995191 147.58963885 664.60248257 147.61189814 C663.68760789 147.60365738 662.77273322 147.59541661 661.83013506 147.58692612 C656.83568749 147.63300153 656.83568749 147.63300153 652.51844575 149.96704837 Z M923.05049588 157.13828059 C914.99155147 165.27717484 910.96512718 175.11744073 910.94803311 186.49110957 C910.94376813 187.77616389 910.93950314 189.06121821 910.93510891 190.38521357 C910.93545842 191.80249571 910.93591995 193.21977782 910.93648221 194.63705989 C910.9334885 196.1356671 910.93008548 197.63427354 910.92630459 199.13287898 C910.91747383 203.20184767 910.91512664 207.27079531 910.91448881 211.33977266 C910.91377685 213.88927255 910.91163959 216.43876714 910.90899159 218.98826571 C910.89973551 227.90489194 910.89565632 236.82150323 910.89644314 245.7381341 C910.89704139 254.01023393 910.88654017 262.28226801 910.87069948 270.55435123 C910.85754449 277.68164141 910.85226268 284.80891035 910.85289855 291.93621256 C910.85315157 296.18112489 910.85041165 300.42597899 910.8397205 304.67087908 C909.51716449 348.33490118 909.51716449 348.33490118 928.70674588 385.86874934 C945.2726577 401.6172642 969.67482037 400.44174684 991.06612088 400.39218684 C993.14117424 400.39353735 995.21622728 400.39548109 997.29127957 400.39798518 C1001.60427866 400.40091038 1005.91719411 400.39671824 1010.23018338 400.38730403 C1015.75818227 400.37582452 1021.28598873 400.38253867 1026.81398083 400.39444895 C1031.08271696 400.40166501 1035.35140714 400.39938228 1039.62014462 400.39419337 C1041.65991435 400.39286061 1043.69968826 400.39449148 1045.73945309 400.39915248 C1048.57729701 400.40422286 1051.41482407 400.39650412 1054.25264432 400.3853509 C1055.51182171 400.39142359 1055.51182171 400.39142359 1056.79643704 400.39761897 C1062.25870832 400.39752046 1062.25870832 400.39752046 1067.08174588 398.12656184 C1069.70487594 394.50292524 1069.96310565 389.88098282 1070.66768338 385.56406184 C1070.96139592 383.86344449 1071.25568441 382.16292653 1071.55049588 380.46249934 C1072.00677764 377.79069425 1072.45810615 375.11831315 1072.89912869 372.44394465 C1073.32865048 369.85633778 1073.77798109 367.27278773 1074.23018338 364.68906184 C1074.35638058 363.89105159 1074.48257779 363.09304133 1074.61259915 362.27084895 C1075.24775552 358.711096 1075.78235332 356.53040448 1077.96699978 353.58359309 C1080.08174588 352.12656184 1080.08174588 352.12656184 1083.76924588 352.25156184 C1085.40893338 352.68468684 1085.40893338 352.68468684 1087.08174588 353.12656184 C1090.83577599 360.63462206 1087.31491098 372.57763431 1086.08174588 380.43906184 C1085.70285515 382.89289132 1085.32771779 385.34730396 1084.95674588 387.80234309 C1084.78916775 388.87395686 1084.62158963 389.94557063 1084.44893338 391.04965754 C1084.08378801 394.10944952 1084.05658792 397.04864235 1084.08174588 400.12656184 C1099.2424983 400.17344571 1114.40324737 400.20863053 1129.56405617 400.23018618 C1136.60472686 400.24046437 1143.6453523 400.25445791 1150.68599392 400.27744075 C1157.48762191 400.29963264 1164.28920298 400.31114951 1171.09086491 400.31631633 C1173.67862952 400.31999588 1176.26639173 400.32718092 1178.85413624 400.33802195 C1182.49410762 400.35265703 1186.13388822 400.35453477 1189.77388455 400.35361262 C1190.83053311 400.36080317 1191.88718167 400.36799372 1192.97584988 400.37540217 C1210.67607596 400.32725557 1226.28511102 396.68854086 1239.33174588 384.25156184 C1255.23501941 367.49801428 1256.56117663 343.37339623 1256.42232205 321.47983332 C1256.42147345 319.57587228 1256.42195545 317.67191026 1256.42364956 315.76794978 C1256.42450186 310.65539465 1256.40700176 305.54305549 1256.38592769 300.43055006 C1256.36703161 295.06678604 1256.36540035 289.70301576 1256.36185147 284.33922358 C1256.35256868 274.20723432 1256.32800647 264.07534346 1256.297803 253.9433973 C1256.26414099 242.39789202 1256.24774345 230.85238177 1256.23271669 219.30683954 C1256.20145311 195.58002599 1256.14876675 171.85329946 1256.08174588 148.12656184 C1246.7364729 148.05679424 1237.39129073 148.00361549 1228.04581334 147.97112532 C1223.70548316 147.95552509 1219.36533228 147.93439104 1215.02510525 147.90024348 C1210.82998738 147.86744729 1206.63504107 147.84966648 1202.43980481 147.84193011 C1200.84595871 147.83642272 1199.25212111 147.82566891 1197.65834881 147.80937167 C1183.70153648 147.67243955 1172.8398462 149.24955813 1162.14033963 158.87265559 C1153.82870521 167.5074205 1151.32539429 177.81190128 1151.46992947 189.48520442 C1151.46426465 190.65589472 1151.45859982 191.82658503 1151.45276333 193.0327508 C1151.43937133 196.8625344 1151.46012589 200.6913524 1151.48018338 204.52109309 C1151.47467805 207.2000677 1151.46693233 209.87893484 1151.4559219 212.55788203 C1151.4315613 219.58317925 1151.43718543 226.60820504 1151.44972683 233.63351985 C1151.46839343 244.22337553 1151.46337358 254.81318069 1151.42969264 265.40299882 C1151.41638722 269.99980155 1151.42847707 274.59614775 1151.4458511 279.19292231 C1151.44290332 281.60024654 1151.43924877 284.00757004 1151.43477322 286.41489192 C1151.44870869 288.04602175 1151.44870869 288.04602175 1151.46292569 289.71010371 C1151.43190805 295.60957016 1151.01358799 299.9494115 1148.08174588 305.12656184 C1146.08174588 306.12656184 1146.08174588 306.12656184 1136.08174588 307.12656184 C1136.08174588 254.65656184 1136.08174588 202.18656184 1136.08174588 148.12656184 C1091.50052711 142.73441082 1091.50052711 142.73441082 1044.05049588 157.13828059 C1036.49534132 164.76838708 1031.97551359 174.4424519 1031.94371487 185.20515986 C1031.93826153 186.20464656 1031.93280819 187.20413325 1031.9271896 188.23390742 C1031.92614728 189.31924266 1031.92510495 190.40457789 1031.92403103 191.52280207 C1031.91895032 192.67456935 1031.9138696 193.82633662 1031.90863492 195.01300593 C1031.89794209 197.51204137 1031.88931765 200.01108632 1031.88251568 202.51013537 C1031.87071931 206.46501572 1031.85126546 210.41978723 1031.82939602 214.37462397 C1031.76758875 225.61847609 1031.71345612 236.86232202 1031.68037869 248.10629817 C1031.66005446 254.98508376 1031.62416208 261.86366189 1031.57962109 268.74233218 C1031.5654511 271.36376187 1031.55673642 273.98522692 1031.55356671 276.60669299 C1031.54866512 280.27165106 1031.52552635 283.93607692 1031.49824978 287.60092707 C1031.50275899 289.22589358 1031.50275899 289.22589358 1031.50735928 290.88368769 C1031.38629986 301.82200785 1031.38629986 301.82200785 1027.08174588 306.12656184 C1023.45174588 306.45656184 1019.82174588 306.78656184 1016.08174588 307.12656184 C1016.08174588 254.65656184 1016.08174588 202.18656184 1016.08174588 148.12656184 C971.19659827 142.65342914 971.19659827 142.65342914 923.05049588 157.13828059 Z M1543.08174588 150.12656184 C1541.03905583 153.19059691 1540.83092187 153.79703319 1540.82168366 157.24552508 C1540.81461807 158.08791307 1540.80755248 158.93030105 1540.80027278 159.79821594 C1540.80268786 160.72378536 1540.80510295 161.64935478 1540.80759121 162.60297175 C1540.80235454 163.58614332 1540.79711786 164.56931488 1540.79172249 165.58227952 C1540.77666573 168.89184003 1540.77601609 172.20124671 1540.77534939 175.51083918 C1540.76773176 177.87752582 1540.75930495 180.24420997 1540.75012662 182.61089106 C1540.72813647 189.05092732 1540.71935522 195.49092918 1540.71430017 201.93099709 C1540.71104437 205.95145793 1540.70452263 209.97190918 1540.69729878 213.9923646 C1540.67773235 225.12203638 1540.66132819 236.25169925 1540.65842225 247.38138934 C1540.65823468 248.09372048 1540.65804711 248.80605162 1540.65785385 249.53996855 C1540.6574876 250.98405882 1540.6571239 252.42814908 1540.65676274 253.87223935 C1540.65657993 254.58909546 1540.65639712 255.30595157 1540.65620877 256.04453059 C1540.65602822 256.76226069 1540.65584767 257.4799908 1540.65566165 258.2194703 C1540.65211907 269.85249916 1540.62509174 281.48534302 1540.58771088 293.11830771 C1540.54964703 305.05927781 1540.53026492 317.00015605 1540.52996273 328.94118818 C1540.52937775 335.64668125 1540.52085983 342.3519536 1540.49196507 349.05738993 C1540.46587304 355.36278147 1540.46352989 361.66773503 1540.47962071 367.9731557 C1540.48144222 370.28992512 1540.47468164 372.60671922 1540.458802 374.92343493 C1540.43847158 378.08154239 1540.44881737 381.23809864 1540.46701504 384.39618464 C1540.45381508 385.31729261 1540.44061511 386.23840059 1540.42701514 387.18742092 C1540.48598429 391.65467092 1540.62368749 393.53314119 1543.43266656 397.17221041 C1548.00005059 400.54178618 1552.1429903 400.2639378 1557.59224392 400.24008723 C1558.89500271 400.24030627 1558.89500271 400.24030627 1560.22407986 400.24052973 C1563.09723345 400.23983259 1565.97032235 400.23204945 1568.84346463 400.22421809 C1570.83457857 400.2223532 1572.82569296 400.22092963 1574.81680752 400.21993037 C1580.05947074 400.21611074 1585.30210629 400.20628516 1590.54475857 400.19522639 C1595.89367241 400.18500038 1601.24259071 400.18043019 1606.5915115 400.17538996 C1617.08826846 400.16466242 1627.58500487 400.14759261 1638.08174588 400.12656184 C1637.44705692 396.10864719 1636.62992191 392.4992969 1635.21846463 388.68124934 C1634.83319607 387.62550715 1634.44792752 386.56976496 1634.05098416 385.48203059 C1633.62801053 384.3334759 1633.20503689 383.18492121 1632.76924588 382.00156184 C1628.9368741 371.42228923 1625.24611134 360.8073858 1621.70674588 350.12656184 C1621.46925625 349.41060847 1621.23176663 348.6946551 1620.98708035 347.95700618 C1619.6525999 343.93300389 1618.32024027 339.90830238 1616.98848416 335.88339778 C1613.70690203 325.97026233 1610.40909067 316.06251212 1607.10983731 306.15524646 C1606.0191104 302.87989028 1604.92890195 299.60436371 1603.83998562 296.3284051 C1599.58958144 283.54215051 1595.32969556 270.76043823 1590.90596463 258.03281184 C1590.43834462 256.68411509 1590.43834462 256.68411509 1589.96127774 255.30817195 C1588.54926849 251.23930436 1587.12769509 247.17429318 1585.68745877 243.11533137 C1585.19879736 241.71553329 1584.7104151 240.31563772 1584.22237088 238.91562434 C1583.80503689 237.73693782 1583.38770291 236.55825129 1582.95772244 235.343847 C1582.06770802 232.07500363 1581.79596361 229.49505457 1582.08174588 226.12656184 C1583.64424588 223.68906184 1583.64424588 223.68906184 1586.08174588 222.12656184 C1589.58174588 221.81406184 1589.58174588 221.81406184 1593.08174588 223.12656184 C1597.56643087 231.58060161 1600.19160101 241.01525197 1603.21065213 250.07187434 C1603.80589184 251.84578105 1604.40159955 253.61953077 1604.99774624 255.39313288 C1606.56715952 260.06527802 1608.13181193 264.73900148 1609.69496609 269.41324397 C1612.46552573 277.69713357 1615.24172246 285.97912837 1618.02315213 294.25937434 C1618.47503997 295.60510744 1618.47503997 295.60510744 1618.93605687 296.97802706 C1624.10830247 312.36803459 1629.47727422 327.67983502 1634.95433499 342.96359797 C1636.54495509 347.42610048 1638.09651179 351.90160713 1639.64033963 356.38046809 C1640.13296143 357.80176719 1640.62579056 359.22299445 1641.11885525 360.64413996 C1641.83598252 362.71147755 1642.55017833 364.77964901 1643.25728299 366.85043879 C1643.9813054 368.96741479 1644.71603482 371.08041264 1645.45283963 373.19296809 C1646.07050198 374.98649714 1646.07050198 374.98649714 1646.70064236 376.8162591 C1650.47335163 385.85889035 1656.11584058 391.04100369 1664.95674588 394.87656184 C1676.23251804 399.25223462 1687.54739382 400.29312812 1699.57051541 400.24008723 C1700.4595506 400.24023326 1701.34858578 400.24037928 1702.26456143 400.24052973 C1705.16458639 400.23984041 1708.06454482 400.23209453 1710.96455838 400.22421809 C1712.99050814 400.22235042 1715.01645835 400.22092817 1717.04240872 400.21993037 C1722.3457969 400.21613266 1727.6491572 400.20632613 1732.95253445 400.19522639 C1738.37580943 400.18495292 1743.79908895 400.18042009 1749.22237088 400.17538996 C1759.84217472 400.16470113 1770.46195797 400.14765809 1781.08174588 400.12656184 C1779.76315862 393.0203431 1778.07431013 386.08071535 1776.14033963 379.11874934 C1775.85644375 378.08617503 1775.57254788 377.05360072 1775.2800491 375.98973628 C1774.36332239 372.65935669 1773.44148669 369.33041828 1772.51924588 366.00156184 C1771.8866499 363.70937804 1771.25424531 361.41714142 1770.62202908 359.12485285 C1768.78133002 352.45706957 1766.93293298 345.79144001 1765.08174588 339.12656184 C1764.69297268 337.72606593 1764.69297268 337.72606593 1764.29634549 336.29727717 C1762.79325573 330.88453382 1761.284159 325.47350717 1759.76924588 320.06406184 C1759.58288571 319.39671015 1759.39652554 318.72935847 1759.20451809 318.04178401 C1758.69056634 316.20353216 1758.1733691 314.3661886 1757.65596463 312.52890559 C1757.23190335 311.02058161 1757.23190335 311.02058161 1756.79927517 309.48178645 C1756.15665038 307.13708902 1756.15665038 307.13708902 1755.08174588 305.12656184 C1757.55674588 304.13656184 1757.55674588 304.13656184 1760.08174588 303.12656184 C1760.08174588 302.46656184 1760.08174588 301.80656184 1760.08174588 301.12656184 C1760.682449 300.86617121 1761.28315213 300.60578059 1761.90205838 300.33749934 C1769.9694416 295.85561977 1774.77111036 283.65012542 1777.31221463 275.26718684 C1780.24875001 264.83314154 1781.29101289 254.99318118 1781.32198025 244.17783137 C1781.33159143 242.15900463 1781.36263604 240.14124032 1781.39424588 238.12265559 C1781.49255511 212.98006911 1772.75800121 189.35116355 1755.18330838 171.16171809 C1735.59309207 152.9353776 1709.22986765 147.97084341 1683.37569119 147.98129817 C1681.89333458 147.97830217 1680.41097875 147.97489863 1678.92862393 147.97112055 C1674.92275429 147.9623267 1670.91690604 147.95994455 1666.91102768 147.95930477 C1664.40701588 147.95859228 1661.90300946 147.95645431 1659.39899899 147.95380755 C1650.66059472 147.94457334 1641.92220565 147.94047074 1633.18379666 147.9412591 C1625.04030001 147.94186118 1616.89686932 147.93127916 1608.75338937 147.91551544 C1601.75449421 147.90245028 1594.75562067 147.89707469 1587.75671341 147.89771451 C1583.5793614 147.89796956 1579.40206821 147.89511375 1575.22472836 147.88453646 C1571.30126431 147.87487135 1567.37791559 147.87476531 1563.45444752 147.8820531 C1562.01449296 147.88310053 1560.57453127 147.88072665 1559.13458897 147.87469264 C1557.17023209 147.86699336 1555.20583604 147.87280754 1553.24147488 147.87932368 C1552.14202668 147.87877891 1551.04257847 147.87823415 1549.90981366 147.87767287 C1547.04942377 148.1294064 1545.44828624 148.53249805 1543.08174588 150.12656184 Z M1794.08174588 152.12656184 C1793.17547034 154.84538846 1792.95584416 156.40955306 1792.95311143 159.20146628 C1792.94988698 160.03402078 1792.94666253 160.86657528 1792.94334038 161.7243587 C1792.94488898 162.63893739 1792.94643758 163.55351608 1792.94803311 164.49580928 C1792.94576755 165.46743575 1792.943502 166.43906222 1792.94116779 167.44013192 C1792.93481489 170.71053911 1792.93565798 173.980905 1792.93648221 177.2513177 C1792.93349154 179.59006845 1792.93008923 181.92881871 1792.92630459 184.26756831 C1792.91745149 190.63109529 1792.91512594 196.99460884 1792.91448881 203.35814138 C1792.91366018 207.9959789 1792.9107628 212.63381341 1792.90765233 217.27164987 C1792.89934497 229.73836511 1792.89561041 242.20507319 1792.89632206 254.67179109 C1792.89636202 255.37994893 1792.89640198 256.08810678 1792.89644314 256.81772395 C1792.89648402 257.52674452 1792.8965249 258.23576509 1792.89656702 258.96627113 C1792.89697361 270.46087625 1792.88740125 281.95544863 1792.87330478 293.45004429 C1792.85895083 305.24749038 1792.85203404 317.04492049 1792.85289855 328.84237554 C1792.85323085 335.467832 1792.85027611 342.09325827 1792.8397205 348.71870776 C1792.8300679 354.94765114 1792.82994079 361.17652183 1792.83723713 367.40546771 C1792.83828648 369.69523509 1792.83589947 371.98500694 1792.82987668 374.27476664 C1792.82220324 377.39337459 1792.82677066 380.5117286 1792.83450772 383.63033076 C1792.82936416 384.54267873 1792.82422059 385.4550267 1792.81892116 386.39502158 C1792.82351996 387.23018382 1792.82811876 388.06534607 1792.83285691 388.92581626 C1792.83263954 389.64565867 1792.83242217 390.36550108 1792.83219822 391.10715689 C1793.12859497 393.50567694 1793.81437102 395.0747395 1795.08174588 397.12656184 C1800.27387032 400.73090072 1805.22867946 400.55356191 1811.30635525 400.51474543 C1812.32171856 400.52000239 1813.33708188 400.52525935 1814.38321377 400.53067561 C1817.73079883 400.54385116 1821.0779062 400.53514591 1824.42549588 400.52499934 C1826.75667356 400.52702077 1829.08785063 400.52993278 1831.41902615 400.53369685 C1836.30128963 400.5381169 1841.18338829 400.53169922 1846.0656326 400.51767512 C1852.32019874 400.50058364 1858.57437866 400.5104265 1864.82893063 400.52839251 C1869.64165091 400.53923882 1874.45427979 400.53578007 1879.26700284 400.52800914 C1881.57306409 400.52600948 1883.87913368 400.52845814 1886.18518521 400.53544779 C1889.40939223 400.54307598 1892.63297585 400.53143825 1895.8571365 400.51474543 C1896.80796612 400.52081813 1897.75879574 400.52689082 1898.73843838 400.53314753 C1903.91731166 400.48353553 1907.64006117 400.09828119 1912.08174588 397.12656184 C1914.00146662 394.24698073 1914.66829971 392.75740067 1914.55489041 389.33994075 C1913.42636943 384.06069862 1910.20724364 379.42812859 1907.51924588 374.81406184 C1906.83438533 373.61434465 1906.15081339 372.41389104 1905.46846463 371.21274348 C1903.70146992 368.11096915 1901.91668967 365.01984594 1900.12636258 361.93149348 C1898.4999376 359.12128959 1896.88730014 356.30320536 1895.27315213 353.48593684 C1892.19420101 348.12264193 1889.09601502 342.77073438 1885.99190213 337.421972 C1884.00656675 333.99686247 1882.02726656 330.56833696 1880.05049588 327.13828059 C1879.71674954 326.55922465 1879.3830032 325.98016871 1879.03914334 325.38356562 C1878.05327863 323.67293547 1877.06751143 321.96224913 1876.08174588 320.25156184 C1866.81201154 304.15851107 1866.81201154 304.15851107 1857.33174588 288.18906184 C1856.95920682 287.56966731 1856.58666775 286.95027278 1856.20283963 286.31210871 C1854.6042628 283.65440413 1853.03225856 281.05938587 1851.19112088 278.56015559 C1850.08174588 276.12656184 1850.08174588 276.12656184 1850.55830838 273.40781184 C1852.60948121 268.98990113 1854.98992477 264.82374639 1857.45674588 260.62656184 C1861.6779908 253.34294477 1865.81992805 246.02767404 1869.83174588 238.62656184 C1870.82122584 236.8048911 1871.81081283 234.9832785 1872.80049588 233.16171809 C1873.31998807 232.20539485 1873.83948025 231.2490716 1874.37471463 230.26376887 C1877.33524432 224.82286405 1880.30754323 219.38850517 1883.29085232 213.96005793 C1883.97073335 212.72164911 1884.64941645 211.48258167 1885.326741 210.24277278 C1887.54436684 206.18431433 1889.80153689 202.15015674 1892.08174588 198.12656184 C1892.41811062 197.52015864 1892.75447537 196.91375544 1893.10103299 196.28897639 C1894.11260222 194.47487883 1895.14838735 192.67679418 1896.19112088 190.88046809 C1896.79407986 189.82287287 1897.39703885 188.76527766 1898.01826932 187.6756341 C1900.50988955 184.59766358 1902.23172002 183.88220124 1906.08174588 183.12656184 C1909.08174588 184.12656184 1909.08174588 184.12656184 1910.08174588 186.12656184 C1910.51084715 192.07087653 1909.71458844 195.99599796 1906.83174588 201.25156184 C1906.47749539 201.92840022 1906.1232449 202.6052386 1905.75825955 203.30258723 C1904.5528745 205.58864465 1903.32055119 207.85845162 1902.08174588 210.12656184 C1901.63718045 210.94463313 1901.19261502 211.76270442 1900.73457791 212.60556575 C1898.78525411 216.18919172 1896.83107475 219.77003036 1894.86470486 223.34433528 C1890.35639804 231.55456222 1886.03611135 239.8558182 1881.75825955 248.18808528 C1879.3429474 252.87076573 1876.90103556 257.51191019 1874.22627713 262.05234309 C1873.79726101 262.78275813 1873.3682449 263.51317317 1872.9262283 264.265722 C1872.14343322 265.58056699 1871.3465166 266.88716408 1870.53218533 268.18271418 C1868.85071438 271.00061391 1868.07752626 272.85334128 1868.12862088 276.16171809 C1869.24337631 279.62933846 1870.75676871 282.29457545 1872.70674588 285.37656184 C1873.52839461 286.69914519 1874.34717868 288.0235106 1875.16377713 289.34921809 C1875.62348904 290.09445735 1876.08320096 290.8396966 1876.55684353 291.60751887 C1879.59315625 296.62331692 1882.47970113 301.7269102 1885.39424588 306.81406184 C1890.39724451 315.51947878 1895.46463862 324.17863753 1900.65425564 332.77402278 C1904.42113928 339.01349822 1908.13335487 345.28377522 1911.83174588 351.56406184 C1915.86647689 358.40640872 1919.9055425 365.24044891 1924.13252713 371.96640559 C1925.61889742 374.37617225 1927.0396665 376.79499602 1928.43721463 379.25546809 C1933.14955831 387.40116973 1937.00956747 393.43670104 1946.08174588 397.12656184 C1947.27864041 397.65636653 1947.27864041 397.65636653 1948.49971463 398.19687434 C1954.41434987 400.32650095 1960.35300296 400.27976489 1966.55611111 400.28769465 C1967.49183957 400.29265956 1968.42756802 400.29762446 1969.39165188 400.30273982 C1972.47455538 400.31729664 1975.55740747 400.32415149 1978.64033963 400.32968684 C1980.78975878 400.33544222 1982.93917793 400.34119991 1985.08859707 400.34695979 C1989.58997787 400.35745035 1994.09134091 400.3633062 1998.59273221 400.36679621 C2004.35392824 400.37228655 2010.11488862 400.39633446 2015.87601067 400.42476817 C2020.31387462 400.44340859 2024.75168185 400.44860083 2029.18958165 400.45013209 C2031.31340843 400.45315434 2033.43723431 400.46116841 2035.56102253 400.47431727 C2038.53352576 400.49141208 2041.50545339 400.48948938 2044.47798611 400.48300715 C2045.78662877 400.49682933 2045.78662877 400.49682933 2047.12170865 400.51093074 C2053.2502006 400.4691617 2058.23666558 399.604535 2063.01924588 395.43906184 C2064.62615277 391.94167625 2064.72969486 388.85539637 2064.08174588 385.12656184 C2062.37777748 381.17156735 2060.18828154 377.55391087 2057.95674588 373.87656184 C2056.74502728 371.81267931 2055.53536233 369.74758958 2054.32783963 367.68124934 C2053.75404568 366.70768489 2053.18025174 365.73412043 2052.5890701 364.73105403 C2050.93695205 361.87637387 2049.43867903 358.9784885 2048.01924588 356.00156184 C2042.29528648 344.19158536 2035.40599635 332.89089602 2028.58174588 321.68906184 C2024.30368109 314.66109315 2020.37826829 307.44991855 2016.48140408 300.20493098 C2014.23034039 296.02656926 2011.96751031 291.87528836 2009.50362088 287.81796809 C2009.12213894 287.18447444 2008.74065701 286.55098078 2008.34761502 285.89829035 C2007.34915639 284.25785244 2006.33148994 282.62914717 2005.31221463 281.00156184 C2003.76706913 277.39131711 2004.15640159 275.92360586 2005.08174588 272.12656184 C2006.2075816 269.57897959 2007.36885684 267.15235535 2008.65987088 264.69296809 C2009.2035204 263.6351488 2009.2035204 263.6351488 2009.75815274 262.55595942 C2010.94063618 260.2623627 2012.13567231 257.97559699 2013.33174588 255.68906184 C2014.16294748 254.08582732 2014.99391889 252.48247343 2015.8246658 250.87900325 C2020.6437101 241.61186779 2025.64181193 232.47597499 2030.87984158 223.43832942 C2037.60294431 211.69199045 2043.62486349 199.56659651 2049.74898221 187.50107356 C2050.18498746 186.64249247 2050.6209927 185.78391139 2051.07021023 184.89931269 C2051.91983819 183.22601798 2052.76877227 181.55237073 2053.61696316 179.87834712 C2056.30953866 174.58271156 2059.09911044 169.36457403 2062.05586697 164.21079035 C2063.66611722 160.93932288 2063.84568492 158.66846101 2063.08174588 155.12656184 C2061.01125545 151.6679017 2058.99469574 149.43087846 2055.08174588 148.12656184 C2053.63295818 148.03364567 2052.18028237 147.9956963 2050.72852208 147.99234076 C2049.3865637 147.985654 2049.3865637 147.985654 2048.01749505 147.97883214 C2046.54159459 147.97910869 2046.54159459 147.97910869 2045.03587796 147.97939082 C2043.99145311 147.97571413 2042.94702826 147.97203744 2041.87095417 147.96824934 C2038.35413634 147.95719313 2034.83734804 147.95336541 2031.32051541 147.94955989 C2028.80604912 147.94329683 2026.29158375 147.93665017 2023.77711941 147.92964717 C2016.22025658 147.91040812 2008.66339894 147.89981839 2001.10651787 147.89091938 C1997.54874869 147.88653638 1993.99098101 147.88116969 1990.43321301 147.87593051 C1978.60869413 147.85892061 1966.78417619 147.84442524 1954.95964696 147.83718177 C1951.89145987 147.83527185 1948.82327278 147.83335152 1945.75508572 147.83139582 C1944.9924964 147.83091208 1944.22990707 147.83042834 1943.44420898 147.82992994 C1931.08373266 147.82162508 1918.72335298 147.79627944 1906.36291888 147.76381515 C1893.67614859 147.73076495 1880.98942745 147.71273495 1868.30261387 147.70953752 C1861.17796715 147.70737078 1854.05346144 147.69859796 1846.92885663 147.67307635 C1840.22954599 147.64913365 1833.53053341 147.64553075 1826.83117367 147.65583773 C1824.36927519 147.65633508 1821.90736452 147.64995659 1819.44550397 147.63628169 C1816.09055452 147.61868508 1812.73652986 147.62560916 1809.38158108 147.63881465 C1808.40210889 147.6278454 1807.42263669 147.61687615 1806.41348352 147.60557451 C1801.07691205 147.65646335 1797.83533077 147.90688837 1794.08174588 152.12656184 Z " fill="#FFFFFF" transform="translate(1828.918254122138,12.873438160866499)"/>
<path d="M0 0 C0.66462965 -0.00189924 1.3292593 -0.00379848 2.01402924 -0.00575527 C4.26140444 -0.01094056 6.50871754 -0.00895971 8.75609714 -0.00706255 C10.38244615 -0.00931762 12.0087946 -0.01200867 13.63514224 -0.01509839 C18.13683137 -0.02235702 22.63850386 -0.02332766 27.14019805 -0.02332116 C32.02543891 -0.02438784 36.91067229 -0.03117501 41.79590905 -0.03722787 C51.49979552 -0.04831917 61.20367838 -0.05395599 70.90757008 -0.05793675 C82.52476629 -0.06293964 94.14195544 -0.07366612 105.75914749 -0.08441848 C134.50798609 -0.11067599 163.25682773 -0.12570613 192.00567485 -0.13884335 C200.63687834 -0.14279464 209.26808164 -0.14708923 217.8992849 -0.15151227 C266.59573967 -0.17640508 315.29219493 -0.19848411 363.98865469 -0.21070265 C367.5538672 -0.21160002 371.11907971 -0.21251472 374.68429222 -0.21343038 C375.39152437 -0.213612 376.09875652 -0.21379361 376.82741996 -0.21398072 C383.99279645 -0.21582342 391.15817294 -0.21768928 398.32354942 -0.21957881 C399.76023962 -0.21995686 401.19692982 -0.22033316 402.63362002 -0.2207077 C448.78087786 -0.23273933 494.92809801 -0.26243041 541.07533809 -0.30412281 C574.22950018 -0.33406747 607.38365455 -0.36169831 640.5378297 -0.37140048 C641.56031239 -0.37170131 641.56031239 -0.37170131 642.60345131 -0.37200822 C657.56664558 -0.37635857 672.52983981 -0.37930447 687.49303461 -0.38093473 C693.51345345 -0.3816111 699.53387226 -0.38246662 705.55429107 -0.3833729 C707.53003635 -0.38365882 707.53003635 -0.38365882 709.54569568 -0.38395052 C730.77299612 -0.38746884 752.00023965 -0.40778851 773.22752185 -0.43416954 C794.55045692 -0.46027059 815.8733368 -0.46806007 837.19628557 -0.45706825 C849.87441722 -0.45107687 862.55236211 -0.45907951 875.23046562 -0.48689909 C883.6914507 -0.50409595 892.15230781 -0.50324884 900.61329549 -0.4875314 C905.43931656 -0.47908567 910.26498014 -0.47865662 915.09096869 -0.50014286 C919.47943407 -0.51952487 923.86725473 -0.51598572 928.25570233 -0.49398937 C929.83525799 -0.4901181 931.41486192 -0.49466908 932.9943611 -0.50857639 C948.44035854 -0.63578993 948.44035854 -0.63578993 954.52594596 5.12995183 C959.81100362 11.40428022 959.10020358 18.39963023 959.05939323 26.27594793 C959.06645835 27.71064422 959.07520586 29.14533307 959.08550102 30.58000982 C959.10794107 34.46243007 959.10506771 38.34444161 959.09617954 42.22690189 C959.09105666 45.47475674 959.09837291 48.72253566 959.10565162 51.97038269 C959.12263421 59.63659609 959.11910221 67.30261038 959.10236198 74.96881902 C959.08544856 82.86186795 959.10126785 90.7543635 959.13358486 98.64735198 C959.16033006 105.43827722 959.16754332 112.22903073 959.15906978 119.02000332 C959.15415408 123.06963964 959.1562818 127.11894329 959.17685729 131.1685375 C959.19529189 134.97897763 959.18916226 138.7886259 959.16465789 142.59902418 C959.15967412 143.99172041 959.16307621 145.38447779 959.17580634 146.77712476 C959.25760998 156.50087441 958.08298717 163.31974167 951.27594596 170.50495183 C943.32737099 175.20183704 935.64098224 175.55320899 926.5706237 175.47052801 C925.30134528 175.47096609 924.03206687 175.47140417 922.72432548 175.47185552 C919.27029295 175.47271055 915.81657777 175.45516562 912.36261851 175.43413365 C908.74317327 175.41528386 905.12371946 175.41360991 901.5042327 175.41005743 C894.66209796 175.40076119 887.82010831 175.37618054 880.97803724 175.34600896 C873.18355964 175.31238916 865.38907483 175.29595995 857.59454268 175.28092265 C841.5715924 175.24962857 825.54878774 175.19691566 809.52594596 175.12995183 C809.52746484 175.88904287 809.52898372 176.6481339 809.53054863 177.4302277 C809.62003377 222.40616858 809.68867845 267.38209979 809.73020728 312.35811183 C809.73521019 317.7567494 809.74038747 323.1553868 809.74567252 328.5540241 C809.74724639 330.16620182 809.74724639 330.16620182 809.74885204 331.81094878 C809.76626391 349.22060359 809.79780591 366.63020564 809.83455715 384.03982914 C809.87194481 401.89970564 809.89417721 419.75955448 809.90229994 437.61946851 C809.90779222 448.64267577 809.92514784 459.66573391 809.95761183 470.68889528 C809.97873286 478.24480248 809.98515147 485.80063244 809.97995147 493.35656703 C809.97738594 497.71793543 809.98135731 502.07904301 810.00276786 506.4403652 C810.02222775 510.43346607 810.0232198 514.42613063 810.00954154 518.41925155 C810.00785092 519.86352068 810.01293013 521.30781699 810.02547869 522.75203259 C810.09805567 531.62087215 809.9402007 537.45493943 803.67438346 544.09088933 C803.08914909 544.55752996 802.50391471 545.02417058 801.90094596 545.50495183 C801.31055534 545.98706121 800.72016471 546.46917058 800.11188346 546.96588933 C796.32542645 549.74511147 792.58136511 549.28116485 788.06314689 549.28385198 C787.17686815 549.28823424 786.29058941 549.29261649 785.37745374 549.29713154 C782.38967693 549.31055055 779.40192963 549.31670539 776.41412956 549.32282293 C774.27905739 549.33072154 772.14398656 549.33899034 770.00891715 549.3476032 C762.98075228 549.37385436 755.95258136 549.38913539 748.92438346 549.40338933 C746.50692965 549.40874802 744.08947589 549.41412553 741.67202216 549.41952169 C731.61640977 549.44115625 721.560799 549.45989307 711.50516921 549.47114408 C697.08556975 549.48738262 682.6662398 549.52055182 668.24674195 549.57754493 C658.11332706 549.61623356 647.97998429 549.6357756 637.84649748 549.64106464 C631.79199831 549.64471996 625.73778639 549.65676063 619.68336707 549.68916738 C613.98535683 549.71922814 608.28780794 549.72556666 602.58973533 549.71378362 C600.49997709 549.71356271 598.41019758 549.72188198 596.32051307 549.73943746 C593.46333656 549.76213104 590.6078326 549.75383292 587.75064689 549.73795354 C586.92708713 549.75183563 586.10352737 549.76571772 585.25501126 549.78002048 C579.22262781 549.69763313 575.23527661 547.88675115 570.52594596 544.12995183 C568.68610221 541.99713933 568.68610221 541.99713933 567.58844596 540.00495183 C567.20817252 539.34237371 566.82789909 538.67979558 566.43610221 537.99713933 C564.60875203 534.24832651 564.40145876 531.28782156 564.40289813 527.16978967 C564.40090708 525.91676091 564.39891604 524.66373215 564.39686465 523.37273282 C564.39971788 521.97452964 564.40266349 520.57632664 564.40569144 519.17812383 C564.40525562 517.69885595 564.40438051 516.21958814 564.40310228 514.74032074 C564.40085952 510.66532555 564.40487564 506.5903565 564.40988034 502.51536465 C564.41418777 498.12478331 564.41273821 493.73420351 564.41197807 489.34362066 C564.41145302 481.73328396 564.41459783 474.12295583 564.4202159 466.51262128 C564.42833347 455.50927461 564.43094639 444.50593209 564.4322039 433.50258275 C564.43439401 415.65156346 564.441053 397.80054873 564.45050651 379.94953191 C564.45968167 362.60610766 564.46675053 345.26268466 564.47101432 327.91925848 C564.47128232 326.83979639 564.47155032 325.7603343 564.47182643 324.64816123 C564.47390578 316.20640332 564.47586273 307.76464537 564.477781 299.32288742 C564.48721936 257.92523804 564.50733656 216.52760007 564.52594596 175.12995183 C452.65594596 175.12995183 340.78594596 175.12995183 225.52594596 175.12995183 C225.52594596 184.03995183 225.52594596 192.94995183 225.52594596 202.12995183 C229.81070915 202.10900457 234.09547233 202.0880573 238.51007682 202.06647527 C252.67144117 202.00017797 266.83281164 201.95580148 280.99429065 201.92270315 C289.57987422 201.9021023 298.16531048 201.87402928 306.75079948 201.82819402 C314.23634633 201.78825016 321.72178645 201.76250102 329.20743692 201.75359786 C333.16887855 201.74839583 337.13001494 201.73622138 341.09135848 201.70703161 C344.82520871 201.67974285 348.55862993 201.67153372 352.29257041 201.67752111 C354.30550215 201.67590779 356.3183879 201.65445578 358.33119804 201.63227117 C366.47965158 201.66913009 373.54536272 202.37291584 379.68219596 208.16510808 C380.12563346 208.83413152 380.56907096 209.50315496 381.02594596 210.19245183 C381.49000846 210.8640534 381.95407096 211.53565496 382.43219596 212.22760808 C384.30807442 215.49029669 384.6544246 218.15657715 384.67311698 221.84069097 C384.68384994 223.29359785 384.68384994 223.29359785 384.69479972 224.77585638 C384.69748863 225.83718786 384.70017753 226.89851934 384.70294791 227.99201238 C384.70951911 229.1110143 384.71609031 230.23001623 384.72286063 231.3829273 C384.74260605 235.09417572 384.75425946 238.80538363 384.76422721 242.51667058 C384.76830274 243.78371139 384.77237827 245.0507522 384.77657729 246.35618818 C384.7952919 252.37151819 384.80985578 258.38682365 384.81818926 264.40217501 C384.82795188 271.33384136 384.85424689 278.26518756 384.89469016 285.19674116 C384.92856126 291.20939036 384.94034026 297.22188491 384.94439346 303.23463666 C384.9492632 305.78747322 384.9608881 308.34030626 384.97943145 310.89308012 C385.00379284 314.46928485 385.00286266 318.04465622 384.99591666 321.62091863 C385.00872672 322.67212896 385.02153678 323.72333929 385.03473502 324.80640447 C384.98573278 331.74130559 383.9622437 337.42843709 379.11396343 342.65091264 C374.23539225 346.98110009 369.87885793 348.381657 363.4578765 348.37046087 C361.63010925 348.37458486 361.63010925 348.37458486 359.7654174 348.37879217 C358.42346694 348.3717149 357.08151749 348.36444529 355.73956901 348.35700262 C354.32013041 348.3564382 352.90069123 348.35675566 351.48125297 348.35788763 C347.63451297 348.35846095 343.78789795 348.34671 339.94118696 348.33273971 C335.91864992 348.32022891 331.89610994 348.31906158 327.87355644 348.3166889 C320.25926238 348.31047516 312.64502582 348.29406577 305.03075707 348.27398992 C296.36092299 348.25162762 287.69108615 348.24063665 279.0212304 348.23059905 C261.18943633 348.20969945 243.35769577 348.17452552 225.52594596 348.12995183 C225.52963313 349.0811717 225.53332031 350.03239156 225.53711921 351.01243627 C225.6259436 374.16479344 225.69166141 397.3171285 225.73319465 420.46962011 C225.75381402 431.66602929 225.78192279 442.86232587 225.82770377 454.05866277 C225.86759053 463.81814736 225.89338332 473.57755038 225.90229994 483.33711421 C225.90751154 488.50406877 225.91974789 493.67079 225.94886619 498.83766973 C225.97606422 503.70334049 225.98438204 508.56868234 225.97837669 513.4344219 C225.97947496 515.21779326 225.98740265 517.0011759 226.00276786 518.78448141 C226.02276495 521.22559977 226.01785047 523.66548764 226.00696403 526.1066364 C226.02444108 527.15725688 226.02444108 527.15725688 226.0422712 528.22910202 C225.96765603 534.44850474 223.8059932 539.59496261 219.67438346 544.18854558 C219.08914909 544.64358465 218.50391471 545.09862371 217.90094596 545.56745183 C217.31055534 546.04053777 216.72016471 546.51362371 216.11188346 547.00104558 C212.2703438 549.73554057 208.49538504 549.28118544 203.94925529 549.28385198 C203.05072589 549.28823424 202.1521965 549.29261649 201.22643894 549.29713154 C198.19720355 549.31055112 195.16799726 549.31670552 192.13873893 549.32282293 C189.97411051 549.3307215 187.8094834 549.33899029 185.6448577 549.3476032 C178.51929581 549.37385479 171.39372794 549.38913538 164.26813346 549.40338933 C161.81724765 549.40874799 159.36636187 549.4141255 156.91547614 549.41952169 C146.72089426 549.44115627 136.52631397 549.45989313 126.33171493 549.47114408 C111.71238536 549.487383 97.09344895 549.52055278 82.4742195 549.57754493 C72.20067838 549.61623215 61.9272084 549.63577543 51.65359634 549.64106464 C45.51526182 549.64472014 39.37721061 549.6567627 33.23895484 549.68916738 C27.46215193 549.71922566 21.68580407 549.72556753 15.90893966 549.71378362 C13.79015563 549.71356269 11.67135063 549.72188362 9.55263931 549.73943746 C6.65605859 549.76212693 3.76112819 549.75383469 0.86453849 549.73795354 C0.02930589 549.75183563 -0.80592671 549.76571772 -1.6664694 549.78002048 C-7.69631313 549.69876479 -12.02529651 548.30916155 -16.47405404 544.12995183 C-23.77727193 535.73456996 -22.16645611 523.66492955 -22.10224313 513.27799261 C-22.10729072 511.13428617 -22.11452119 508.99058395 -22.12374127 506.8468914 C-22.14265957 500.96737077 -22.13043182 495.08826642 -22.11301833 489.20875633 C-22.09964548 482.8637759 -22.11508109 476.51885642 -22.12684029 470.17388189 C-22.14415915 458.46692734 -22.13881891 446.76012257 -22.12185354 435.05317129 C-22.10627899 424.23884378 -22.10043525 413.42456425 -22.10419434 402.61022604 C-22.10443114 401.89256045 -22.10466794 401.17489487 -22.10491192 400.43548184 C-22.10588686 397.52217924 -22.10690768 394.60887667 -22.10799703 391.69557411 C-22.11807667 364.37536475 -22.09982423 337.05523967 -22.06827667 309.73505013 C-22.0404107 285.46496151 -22.03545549 261.19497308 -22.05047005 236.92487371 C-22.05429252 230.70874001 -22.05808732 224.49260631 -22.06164044 218.27647245 C-22.06207826 217.51118138 -22.06251607 216.74589031 -22.06296715 215.95740859 C-22.07420679 195.67295587 -22.06685831 175.3885105 -22.05375969 155.10406017 C-22.05237113 152.92148257 -22.05099042 150.73890497 -22.04962127 148.55632736 C-22.04871189 147.1084854 -22.04778922 145.66064346 -22.04685317 144.21280152 C-22.04005804 133.40413224 -22.04271691 122.59549188 -22.04980057 111.78682363 C-22.05776632 99.49806994 -22.05080784 87.20944629 -22.02562553 74.92070924 C-22.01311399 68.64936965 -22.00700425 62.37819794 -22.0181672 56.10685194 C-22.0281897 50.36792874 -22.01979202 44.62934074 -21.99658602 38.89045842 C-21.99141627 36.81257247 -21.99300729 34.73465663 -22.00198067 32.65678363 C-22.01315558 29.83472569 -21.99976071 27.01380504 -21.98021191 24.19181669 C-21.98929073 23.38303599 -21.99836955 22.57425529 -22.00772348 21.74096608 C-21.91939151 15.20992659 -20.09404994 9.78012043 -15.43889779 5.07135808 C-14.76987435 4.61631902 -14.10085091 4.16127996 -13.41155404 3.69245183 C-12.73995248 3.2193659 -12.06835091 2.74627996 -11.37639779 2.25885808 C-7.5567686 -0.00782125 -4.34869804 0.0035272 0 0 Z " fill="#FFFFFF" transform="translate(840.4740540385246,11.87004816532135)"/>
<path d="M0 0 C1.66198644 -0.00874829 1.66198644 -0.00874829 3.35754836 -0.01767331 C4.56967037 -0.01389399 5.78179239 -0.01011467 7.03064537 -0.00622082 C8.32260397 -0.01004636 9.61456258 -0.01387191 10.94567144 -0.01781338 C14.53078223 -0.02810936 18.1157932 -0.02590734 21.70091224 -0.02163279 C25.56914524 -0.01916796 29.43735406 -0.02817757 33.30557823 -0.03567028 C40.88927553 -0.04843346 48.47293745 -0.05020835 56.05664368 -0.04787002 C62.23240312 -0.04608579 68.40815183 -0.0478388 74.58390999 -0.05209446 C75.90337393 -0.05298724 75.90337393 -0.05298724 77.24949371 -0.05389806 C79.0368513 -0.05510989 80.82420888 -0.05632402 82.61156647 -0.05754044 C99.38950888 -0.06842559 116.16743122 -0.06625093 132.94537477 -0.06015559 C148.23957686 -0.0550053 163.53371488 -0.06618999 178.8279043 -0.08525381 C194.56362167 -0.10471574 210.29930889 -0.11287241 226.03503835 -0.10913056 C234.85606067 -0.10722858 243.67702873 -0.10960563 252.49804115 -0.1238451 C260.02205068 -0.13586799 267.54597271 -0.13704484 275.06998368 -0.12505493 C278.8971237 -0.1192369 282.72410464 -0.11786461 286.55123329 -0.13005733 C347.6317073 -0.31092634 407.10616058 13.10898418 451.83762169 57.25447559 C460.68826387 66.22369949 468.05384727 76.42351075 474.46262169 87.25447559 C474.83886681 87.88418262 475.21511192 88.51388966 475.60275841 89.16267872 C496.14911845 123.81683299 504.70813746 163.15088986 504.65012169 203.19197559 C504.64921532 204.35024357 504.64921532 204.35024357 504.64829063 205.5319109 C504.62215372 217.86677916 504.24573037 230.03024774 502.46262169 242.25447559 C502.33903282 243.11685841 502.21544395 243.97924122 502.08810997 244.86775684 C496.74647351 280.65995851 484.34071439 317.7155557 454.56418419 340.46931934 C452.56275954 341.81096836 450.56807742 343.08477797 448.46262169 344.25447559 C453.61976763 365.15608473 459.15228422 385.94008615 465.00824547 406.65672779 C466.78174356 412.93143333 468.54789264 419.20820706 470.31418419 425.48494434 C470.66921516 426.74614597 471.02424614 428.0073476 471.39003563 429.30676746 C474.85796999 441.63758422 478.26333167 453.98532176 481.66196251 466.33537769 C485.07246495 478.71902122 488.53837249 491.0862602 492.04855919 503.44197559 C492.24476671 504.13286966 492.44097424 504.82376373 492.64312744 505.53559399 C494.59622547 512.41231882 496.55196268 519.28827609 498.5157795 526.1619482 C499.41259487 529.30296224 500.30638192 532.44483876 501.20090294 535.58650684 C501.53145683 536.73929127 501.86201073 537.89207569 502.20258141 539.07979298 C502.50149284 540.13106373 502.80040428 541.18233448 503.10837364 542.26546192 C503.37116615 543.18515263 503.63395866 544.10484333 503.90471458 545.05240345 C504.46262169 547.25447559 504.46262169 547.25447559 504.46262169 549.25447559 C476.94047697 549.34821019 449.41835642 549.4185969 421.89608383 549.46172428 C409.11498595 549.48228761 396.33398765 549.51028822 383.55295372 549.55623341 C372.40384207 549.59629282 361.25480261 549.62195359 350.10562098 549.63082957 C344.21052647 549.63601215 338.31563833 549.64806113 332.42061043 549.67739582 C326.85396452 549.70486782 321.28760685 549.71285745 315.72089958 549.70690632 C313.69507713 549.70799252 311.66924342 549.71575463 309.6434803 549.73129749 C291.8350745 549.8610477 274.14351356 547.92083614 257.27512169 541.87947559 C256.40911339 541.57912403 255.54310509 541.27877247 254.65085411 540.96931934 C248.20776647 538.67025203 242.21283812 535.99211627 236.46262169 532.25447559 C235.60668419 531.71049122 234.75074669 531.16650684 233.86887169 530.60603809 C220.18368914 521.49632321 212.18438988 509.95226594 207.04465294 494.41463184 C206.66546211 493.30730198 206.28627129 492.19997211 205.89558983 491.0590868 C204.67485935 487.48293679 203.47479721 483.90023739 202.27512169 480.31697559 C201.42704558 477.81949484 200.57775134 475.32242741 199.72727013 472.82576466 C197.28540881 465.64209845 194.86900702 458.45009394 192.46262169 451.25447559 C192.15072899 450.32230213 191.83883629 449.39012867 191.51749229 448.42970753 C189.27551379 441.72445595 187.04253853 435.01625048 184.82370567 428.30330372 C179.43748197 412.03453183 173.73709427 395.87493617 168.06777 379.7031908 C165.44223331 372.20895804 162.85298401 364.70273219 160.27512169 357.19197559 C157.72891461 349.77637209 155.15823396 342.37036871 152.53684044 334.98103809 C152.15975189 333.91803738 152.15975189 333.91803738 151.77504539 332.8335619 C151.26192834 331.38746022 150.74878016 329.94136959 150.23560143 328.4952898 C149.98051811 327.77644611 149.7254348 327.05760242 149.46262169 326.31697559 C149.20874687 325.60159626 148.95487206 324.88621693 148.69330406 324.14915943 C144.69105257 312.8592166 140.85906871 301.52333075 137.10666466 290.14778614 C134.38501191 281.93009113 131.53128183 273.7700615 128.58762169 265.62947559 C124.7604027 255.03374894 121.12942691 244.3857725 117.58762169 233.69197559 C113.68640025 221.91771382 109.7586304 210.15378615 105.74478722 198.41734791 C105.23099685 196.91448602 104.71814982 195.41130124 104.20633507 193.90776539 C99.49631116 176.61205644 99.49631116 176.61205644 88.15012169 163.87947559 C84.38286439 163.00336925 81.1829828 163.20765334 77.46262169 164.25447559 C73.92338382 166.48573425 72.0360163 168.41562245 70.46262169 172.25447559 C69.25069021 180.75474387 71.6121071 188.13404023 74.42355919 196.06306934 C74.84095863 197.28297565 75.25835808 198.50288197 75.68840599 199.75975513 C76.8177241 203.05922967 77.96746748 206.35123583 79.1213398 209.64218998 C80.32912035 213.0984985 81.51749836 216.56146742 82.70798302 220.0237627 C84.90072379 226.39196999 87.10971133 232.75439694 89.32582951 239.11450195 C91.7360306 246.03383057 94.12570401 252.96016136 96.51340294 259.88728809 C101.55525564 274.50277499 106.62045436 289.11013928 111.71326256 303.70795155 C116.72755856 318.08756379 121.51236458 332.52619432 126.1694088 347.02440357 C129.95288554 358.7891215 133.96946872 370.43956945 138.16843224 382.06355762 C142.89820079 395.23077803 147.17012028 408.54639528 151.42893028 421.87215137 C154.36125858 431.01535719 157.44724693 440.06513016 160.8135891 449.05777454 C164.3392928 458.51943568 167.48387564 468.10541276 170.65012169 477.69197559 C171.30051985 479.65334409 171.95124115 481.61460545 172.60227013 483.57576466 C173.91889415 487.54292707 175.23405992 491.51056805 176.54807091 495.47859669 C179.16773997 503.38621733 181.80392713 511.28831932 184.44055748 519.19029713 C185.19198383 521.44261586 185.94300344 523.6950697 186.69382286 525.94759083 C186.92578865 526.64331699 187.15775444 527.33904316 187.3967495 528.05585194 C188.04273745 529.99477924 188.68728414 531.93418655 189.33176231 533.87361622 C190.02925378 535.95886272 190.73462529 538.04151559 191.45285606 540.11970997 C193.46262169 545.95224657 193.46262169 545.95224657 193.46262169 549.25447559 C167.41099412 549.39469034 141.35942318 549.50046874 115.30749416 549.56534863 C103.2108816 549.59627537 91.11450361 549.6384337 79.01804161 549.70711231 C68.47370684 549.76695002 57.92954197 549.80563332 47.38504213 549.81900656 C41.80267168 549.82682282 36.22078725 549.84516883 30.63857269 549.88885593 C25.38129492 549.92966561 20.12470209 549.94212757 14.86728096 549.93312168 C12.94079233 549.93476857 11.01428015 549.94665353 9.08792877 549.96970844 C-8.4848062 550.16965666 -8.4848062 550.16965666 -15.00908184 544.85430813 C-20.59672642 539.00511868 -21.68597661 533.77274068 -21.67159939 525.81788063 C-21.67395162 524.9422383 -21.67630385 524.06659597 -21.67872736 523.16441903 C-21.68543222 520.20368771 -21.68495869 517.24300013 -21.68454933 514.28226185 C-21.68784703 512.14872695 -21.69157239 510.01519268 -21.69569081 507.88165921 C-21.70572959 501.997866 -21.70943062 496.11408299 -21.71208012 490.23028243 C-21.71597759 483.89269521 -21.72555627 477.55511611 -21.73429298 471.21753407 C-21.75313761 456.62637947 -21.7633156 442.03522586 -21.77175366 427.44406212 C-21.77595884 420.23538596 -21.78118099 413.02671062 -21.78643819 405.81803516 C-21.80432898 381.14740502 -21.81932559 356.47677465 -21.82675838 331.80613899 C-21.82723314 330.25704327 -21.82770903 328.70794754 -21.82818605 327.15885181 C-21.82842242 326.39063123 -21.8286588 325.62241065 -21.82890234 324.83091066 C-21.83010355 320.9386517 -21.831319 317.04639275 -21.83254433 313.1541338 C-21.83290455 311.99548312 -21.83290455 311.99548312 -21.83327205 310.81342536 C-21.84116618 285.76543279 -21.86460005 260.71748755 -21.89710027 235.66951566 C-21.93138957 209.19442317 -21.95110868 182.71935838 -21.95440263 156.24424332 C-21.95482017 153.33848137 -21.95529974 150.43271944 -21.95582581 147.52695751 C-21.95601059 146.45371792 -21.95601059 146.45371792 -21.95619911 145.35879671 C-21.95853224 133.83895438 -21.97419846 122.31916697 -21.99466765 110.79934421 C-22.01491248 99.22220403 -22.0200756 87.64515437 -22.01089702 76.06799517 C-22.00634054 69.79466518 -22.00831686 63.52151375 -22.02765846 57.24820805 C-22.04520647 51.50717814 -22.04436046 45.76645815 -22.02876117 40.02542534 C-22.02637237 37.94664783 -22.03077409 35.86784932 -22.04258982 33.78910402 C-22.05764588 30.96578319 -22.04807962 28.1435694 -22.03236294 25.32027626 C-22.04258514 24.51109897 -22.05280735 23.70192169 -22.06333932 22.86822388 C-21.98415771 16.36165356 -20.06716886 11.1860897 -15.79128456 6.23103809 C-15.2331205 5.78502247 -14.67495644 5.33900684 -14.09987831 4.87947559 C-13.54429237 4.41799122 -12.98870644 3.95650684 -12.41628456 3.48103809 C-8.37030076 0.83979295 -4.79682128 0.00435119 0 0 Z " fill="#FFFFFF" transform="translate(40.53737831115723,11.745524406433105)"/>
<path d="M0 0 C1.30051968 -0.00785502 1.30051968 -0.00785502 2.62731248 -0.01586872 C5.53204998 -0.03086829 8.43661132 -0.03157387 11.34138489 -0.03224182 C13.42439572 -0.03986343 15.50740375 -0.04829093 17.59040833 -0.0574646 C23.24969953 -0.07941868 28.9089367 -0.08820996 34.56826568 -0.09329104 C38.10534477 -0.0969341 41.64240971 -0.10317397 45.17948341 -0.11029243 C57.5233332 -0.13479189 69.86714094 -0.14783952 82.21101379 -0.15138245 C93.7098131 -0.15501617 105.20834523 -0.18489875 116.7070629 -0.22678703 C126.5841053 -0.26150391 136.46105925 -0.27693115 146.33816224 -0.27762848 C152.23505626 -0.27842093 158.13167826 -0.28714504 164.02850914 -0.31562614 C169.57802641 -0.3418298 175.12704662 -0.3439988 180.6765976 -0.3279705 C182.70907234 -0.32615776 184.74157582 -0.33283088 186.77398872 -0.34878922 C206.89786607 -0.49711716 206.89786607 -0.49711716 214.37971497 5.27415466 C219.2128981 10.1073378 220.59971434 14.71091902 220.64944035 21.4959977 C220.64532971 22.31323113 220.64121907 23.13046457 220.63698387 23.97246265 C220.64048995 24.85210105 220.64399602 25.73173944 220.64760834 26.63803354 C220.65694931 29.60036516 220.65199205 32.56250136 220.6471405 35.52484131 C220.6508754 37.66422807 220.65547627 39.80361346 220.66087115 41.94299668 C220.67313637 47.8336874 220.67283654 53.72432148 220.6704824 59.61502206 C220.67007512 65.96348538 220.68110483 72.31193032 220.69059753 78.66038513 C220.7072277 91.102532 220.71273387 103.54465932 220.71382229 115.98681632 C220.714741 126.09771168 220.71885569 136.20860089 220.72522354 146.31949425 C220.7270186 149.22877555 220.72879823 152.13805687 220.7305733 155.04733819 C220.73123644 156.13218972 220.73123644 156.13218972 220.73191298 157.23895744 C220.74422327 177.58527286 220.75211392 197.93158615 220.75122643 218.27790546 C220.75117969 219.42881444 220.75117969 219.42881444 220.75113201 220.60297409 C220.75096579 224.49192534 220.75076771 228.38087658 220.75056259 232.26982782 C220.7505227 233.04220223 220.75048281 233.81457664 220.75044171 234.61035633 C220.75036084 236.17228597 220.75027724 237.73421562 220.75019093 239.29614526 C220.74896533 263.59897896 220.76397944 287.90175685 220.79133606 312.20457458 C220.82205079 339.50195404 220.83926893 366.79929682 220.83740962 394.09669465 C220.83726035 397.00691903 220.83716294 399.9171434 220.83710098 402.82736778 C220.83707767 403.543951 220.83705437 404.26053421 220.83703035 404.99883207 C220.83696878 416.53529758 220.84974569 428.07171468 220.86696551 439.6081658 C220.88391134 451.20074743 220.88556064 462.79324232 220.87274687 474.38583127 C220.86620156 480.66727266 220.86615649 486.94853845 220.88345337 493.2299633 C220.89911983 498.97832069 220.89638619 504.72636229 220.87888511 510.47471168 C220.87580103 512.55611882 220.87950021 514.63754917 220.89060526 516.71892897 C220.90469077 519.54577748 220.89416782 522.37151287 220.8774929 525.19832325 C220.88742926 526.00853319 220.89736562 526.81874312 220.90760309 527.65350488 C220.82601984 534.18455078 218.93087568 539.43773758 214.52815247 544.33274841 C213.94291809 544.78778748 213.35768372 545.24282654 212.75471497 545.71165466 C212.16432434 546.1847406 211.57393372 546.65782654 210.96565247 547.14524841 C207.15125443 549.86042337 203.4316071 549.42536978 198.91691589 549.42805481 C198.03063716 549.43243706 197.14435842 549.43681932 196.23122275 549.44133437 C193.24344593 549.45475338 190.25569863 549.46090822 187.26789856 549.46702576 C185.13282639 549.47492437 182.99775556 549.48319317 180.86268616 549.49180603 C173.83452129 549.51805718 166.80635037 549.53333822 159.77815247 549.54759216 C157.36069866 549.55295085 154.94324489 549.55832835 152.52579117 549.56372452 C142.47017877 549.58535908 132.41456801 549.6040959 122.35893822 549.61534691 C107.93933875 549.63158545 93.5200088 549.66475465 79.10051095 549.72174776 C68.96709607 549.76043639 58.83375329 549.77997843 48.70026648 549.78526747 C42.64576731 549.78892279 36.59155539 549.80096346 30.53713608 549.83337021 C24.83912583 549.86343097 19.14157694 549.86976949 13.44350433 549.85798645 C11.3537461 549.85776554 9.26396658 549.86608481 7.17428207 549.88364029 C4.31710556 549.90633387 1.4616016 549.89803575 -1.39558411 549.88215637 C-2.21914386 549.89603846 -3.04270362 549.90992055 -3.89121974 549.9242233 C-11.13015287 549.82535749 -15.99152222 546.97209545 -20.99528503 541.83665466 C-24.57389877 536.19345607 -24.91035468 530.95856305 -24.87755394 524.48403358 C-24.88106001 523.6066181 -24.88456609 522.72920261 -24.88817841 521.82519877 C-24.89750405 518.87645002 -24.89256606 515.92789826 -24.88771057 512.97914124 C-24.89144623 510.84714102 -24.89604741 508.71514217 -24.90144122 506.5831455 C-24.91369685 500.71751719 -24.91340773 494.85194582 -24.91105247 488.98630762 C-24.91064495 482.66308363 -24.92167713 476.33987805 -24.9311676 470.0166626 C-24.94779221 457.62612063 -24.95330369 445.23560155 -24.95439236 432.84504987 C-24.95531127 422.77613114 -24.95942701 412.70721858 -24.96579361 402.63830185 C-24.96758868 399.74051742 -24.96936831 396.84273299 -24.97114336 393.94494855 C-24.97158546 393.22456388 -24.97202756 392.50417921 -24.97248305 391.7619647 C-24.98479191 371.49816883 -24.99268412 351.2343751 -24.99179649 330.97057533 C-24.99176534 330.20653442 -24.99173418 329.44249351 -24.99170208 328.65529985 C-24.99153586 324.78277253 -24.99133778 320.91024521 -24.99113266 317.03771789 C-24.99109277 316.2686117 -24.99105288 315.49950551 -24.99101178 314.70709308 C-24.99093091 313.15177328 -24.99084731 311.59645348 -24.990761 310.04113369 C-24.98953528 285.83883541 -25.00455224 261.63659316 -25.03190613 237.43431091 C-25.06262087 210.24716063 -25.07983902 183.06004716 -25.07797968 155.87287843 C-25.07783042 152.97446529 -25.07773301 150.07605215 -25.07767105 147.17763901 C-25.07764774 146.4639686 -25.07762443 145.75029818 -25.07760042 145.01500139 C-25.07753885 133.52601225 -25.09031505 122.03707171 -25.10753558 110.54809701 C-25.1244813 99.00380419 -25.12613077 87.45960757 -25.11331694 75.91530444 C-25.10677174 69.66018429 -25.10672619 63.40524049 -25.12402344 57.15013695 C-25.13969024 51.4258745 -25.13695592 45.70192918 -25.11945517 39.97767477 C-25.11637119 37.90504577 -25.12006993 35.83239347 -25.13117532 33.75979193 C-25.14526161 30.9447953 -25.13473732 28.13091637 -25.11806297 25.31595802 C-25.12799933 24.50924262 -25.13793569 23.70252723 -25.14817315 22.8713659 C-25.06666913 16.373451 -23.14407715 11.19881757 -18.87419128 6.25071716 C-18.31602722 5.80470154 -17.75786316 5.35868591 -17.18278503 4.89915466 C-16.6271991 4.43767029 -16.07161316 3.97618591 -15.49919128 3.50071716 C-10.50098199 0.23785288 -5.83888473 -0.01746549 0 0 Z " fill="#FFFFFF" transform="translate(583.6202850341797,11.725845336914063)"/>
<path d="M0 0 C1.6867075 1.31231785 1.6867075 1.31231785 3 3 C3.30166663 6.06616632 3.41990415 8.92991532 3.40405273 11.99780273 C3.41091599 12.91840485 3.41777924 13.83900696 3.42485046 14.7875061 C3.44317989 17.83635805 3.43927213 20.88469842 3.43359375 23.93359375 C3.43815269 26.04964873 3.44345739 28.16570222 3.44947815 30.28175354 C3.4584214 34.71955373 3.45597239 39.15717408 3.44604492 43.5949707 C3.43455538 49.28605623 3.45476064 54.9765213 3.48396206 60.66752529 C3.502296 65.03839572 3.50203716 69.40911672 3.49632454 73.78001595 C3.49617097 75.87840711 3.5022444 77.97680819 3.51461601 80.07516289 C3.52947058 83.00810694 3.51888942 85.9398952 3.50170898 88.87280273 C3.51621094 90.17664162 3.51621094 90.17664162 3.53100586 91.50682068 C3.45874735 97.38873022 3.45874735 97.38873022 1.09584045 100.5372467 C-2.48062551 103.03337534 -4.7145319 102.54418643 -9 102 C-11.0605762 100.24860529 -11.88079072 98.81023107 -12.27561951 96.12669373 C-12.4069097 93.70914969 -12.42809953 91.309807 -12.41992188 88.88867188 C-12.42839142 87.96792374 -12.43686096 87.0471756 -12.44558716 86.098526 C-12.46898562 83.05512684 -12.46997873 80.0122323 -12.46875 76.96875 C-12.47584912 74.85412391 -12.48354775 72.73949975 -12.49182129 70.62487793 C-12.50527213 66.19306075 -12.50683179 61.76142173 -12.50097656 57.32958984 C-12.49507562 51.64627478 -12.52568599 45.96381254 -12.56609344 40.28066254 C-12.59192171 35.91407656 -12.59485236 31.54769737 -12.59120178 27.18104553 C-12.59289716 25.08543247 -12.60257958 22.98981028 -12.62034607 20.89427185 C-12.64244257 17.96603998 -12.63288171 15.03955321 -12.61523438 12.11132812 C-12.62849762 11.24367325 -12.64176086 10.37601837 -12.65542603 9.48207092 C-12.59685443 5.30656842 -12.56331226 3.62702285 -9.68811035 0.42663574 C-6.01938577 -1.52043225 -3.94671923 -1.0963109 0 0 Z " fill="#FFFFFF" transform="translate(3232,236)"/>
</svg>
