<?xml version="1.0" encoding="UTF-8"?>
<!-- Generator: visioncortex VTracer 0.6.4 -->
<svg version="1.1" xmlns="http://www.w3.org/2000/svg" width="267" height="290">
<path d="M0 0 C2.375 2.0625 2.375 2.0625 4 4 C3.0234375 5.82291667 2.046875 7.64583333 1.0703125 9.46875 C-1.8730244 16.42963434 -2.46425759 23.55254593 -3 31.0078125 C-3.12181641 32.57243729 -3.12181641 32.57243729 -3.24609375 34.16867065 C-3.50384413 37.48698996 -3.75270863 40.80588612 -4 44.125 C-6.96999135 83.60500219 -6.96999135 83.60500219 -14 91 C-15.29356766 92.49836093 -16.58525388 93.99834833 -17.875 95.5 C-18.91380385 96.66921645 -19.9544049 97.83685279 -21 99 C-16.97675182 96.1847246 -13.19430194 93.49619164 -10.125 89.625 C-9.42375 88.75875 -8.7225 87.8925 -8 87 C-7.34 87 -6.68 87 -6 87 C-6 86.34 -6 85.68 -6 85 C-5.34 85 -4.68 85 -4 85 C-4.01595215 84.37375732 -4.0319043 83.74751465 -4.04833984 83.10229492 C-4.17385047 73.72404298 -3.51557977 64.4301431 -2.828125 55.08422852 C-2.62671105 52.335848 -2.43396577 49.58695837 -2.2421875 46.83789062 C-1.86700691 41.55515563 -1.44687114 36.27712341 -1 31 C-0.9330896 30.1835199 -0.8661792 29.36703979 -0.79724121 28.52581787 C-0.60046347 26.21670452 -0.37904718 23.91142177 -0.1484375 21.60546875 C-0.02388184 20.3011792 0.10067383 18.99688965 0.22900391 17.65307617 C1.1357121 13.35697906 2.65326628 10.68114511 5 7 C5.33 7 5.66 7 6 7 C6.02337283 15.32899626 6.04104025 23.65797836 6.05181217 31.98699951 C6.05698725 35.85625381 6.06398467 39.72548535 6.07543945 43.59472656 C6.08646262 47.34247047 6.09231707 51.09019277 6.09487724 54.83795166 C6.09669707 56.25376729 6.10024861 57.669582 6.10573006 59.08538818 C6.13373426 66.63238959 6.0385875 74.17325691 5.6875 81.71264648 C5.63150635 82.99993149 5.5755127 84.28721649 5.51782227 85.61351013 C4.69128841 91.01893342 2.04355408 93.69798114 -2.0625 97.0625 C-2.70638672 97.64708984 -3.35027344 98.23167969 -4.01367188 98.83398438 C-5.97506617 100.5998259 -7.98177858 102.29963564 -10 104 C-11.32987407 105.17249831 -12.6579987 106.34698383 -13.984375 107.5234375 C-34.49595539 125.45143159 -57.63910802 140.81955401 -82 153 C-77.71 153.33 -73.42 153.66 -69 154 C-69 155.32 -69 156.64 -69 158 C-70.62158203 159.46582031 -70.62158203 159.46582031 -72.8828125 160.828125 C-73.70813477 161.34181641 -74.53345703 161.85550781 -75.38378906 162.38476562 C-76.24713867 162.91779297 -77.11048828 163.45082031 -78 164 C-79.60764573 165.09003994 -81.20922596 166.18907794 -82.8046875 167.296875 C-91.52483794 173.2578953 -100.27258859 178.94771676 -109.625 183.875 C-110.82358643 184.50873535 -110.82358643 184.50873535 -112.04638672 185.15527344 C-117.59686637 188 -117.59686637 188 -121 188 C-129.07601535 131.34438962 -129.07601535 131.34438962 -112.96484375 109.203125 C-105.19515827 99.28204513 -96.82366762 92.13286928 -85.7890625 86.09375 C-74.84989815 80.10503076 -65.03401154 73.65106692 -56 65 C-54.989375 64.21625 -53.97875 63.4325 -52.9375 62.625 C-49.22354473 59.30614636 -46.29992 55.54588649 -43.24609375 51.62109375 C-39.23715636 46.94283812 -36.05565901 44.3998327 -29.93359375 43.890625 C-26.99961929 44.05658719 -25.23874735 45.16829762 -23 47 C-20.94621284 51.10757432 -21.85670118 55.3496438 -22.8125 59.6875 C-25.45355347 66.16436923 -31.16672501 71.08948873 -36 76 C-36.7321875 76.75925781 -37.464375 77.51851563 -38.21875 78.30078125 C-41.38505752 81.53619469 -44.61598667 84.51604963 -48.125 87.375 C-52.60698725 91.19266108 -55.26235412 95.84617424 -58 101 C-48.87794127 95.04123583 -40.82597659 88.5958008 -33 81 C-32.09378906 80.15824219 -31.18757813 79.31648438 -30.25390625 78.44921875 C-28.03292385 76.03577687 -27.23159397 74.67779171 -26.4375 71.5625 C-25.54123199 68.46630143 -24.83689402 66.76769754 -22.9375 64.0625 C-20.30194696 59.89662584 -19.22553618 55.9229104 -19 51 C-19.82578418 47.34103756 -21.32706781 44.67293219 -24 42 C-23.92088212 39.38911004 -23.71683491 36.95453224 -23.375 34.375 C-23.27872314 33.6217041 -23.18244629 32.8684082 -23.08325195 32.09228516 C-19.8995022 8.8995022 -19.8995022 8.8995022 -13 2 C-8.36885629 -0.69448361 -5.1569189 -1.71897297 0 0 Z " fill="#FEFEFE" transform="translate(261,102)"/>
<path d="M0 0 C6.40877373 4.02119136 8.89252173 9.54749326 10.6940918 16.79052734 C11.27542248 19.74908084 11.77907038 22.70944917 12.25 25.6875 C12.42273438 26.69361328 12.59546875 27.69972656 12.7734375 28.73632812 C14.38055688 38.41093171 14.38055688 38.41093171 14 43 C12.5625 44.75 12.5625 44.75 11 46 C9.23669612 49.52660776 9.46502724 53.15052212 10 57 C11.80365012 61.67064621 14.22871274 65.84306911 17 70 C17.27457031 71.10859375 17.54914062 72.2171875 17.83203125 73.359375 C21.37312466 84.39716449 35.71875483 92.83525137 45 99 C45.99 99.33 46.98 99.66 48 100 C42.78876809 92.12771349 37.29347277 85.7913481 30.125 79.6875 C22.52937076 73.11151749 13.85832866 65.19793513 12.125 54.875 C12.00404769 51.12547828 12.0449691 49.16528812 14 46 C16.62643884 43.77762867 18.32815023 44 21.8125 44 C29.15323663 45.18267423 33.42038034 51.3925651 38.0078125 56.734375 C50.33120971 70.74921888 64.82208469 79.59627876 80.90625 88.6328125 C92.51417733 95.53752789 101.56923541 105.13198782 108 117 C108.39703125 117.71285156 108.7940625 118.42570312 109.203125 119.16015625 C117.15090711 135.02606457 115.45332794 153.098754 113.5625 170.125 C113.42779297 171.41148437 113.29308594 172.69796875 113.15429688 174.0234375 C112.05961152 184.23338095 112.05961152 184.23338095 111 188 C104.53133328 186.10687119 98.9132653 183.5593543 93.125 180.125 C92.31853027 179.65247803 91.51206055 179.17995605 90.68115234 178.69311523 C67.70231744 165.02624098 67.70231744 165.02624098 59 157 C59 156.01 59 155.02 59 154 C63.29 153.67 67.58 153.34 72 153 C70.329375 152.09121094 70.329375 152.09121094 68.625 151.1640625 C51.12958573 141.58843874 34.87760103 131.08502211 19 119 C18.00871094 118.24589844 17.01742187 117.49179688 15.99609375 116.71484375 C10.829834 112.67637104 5.9821784 108.33117935 1.19555664 103.85473633 C-1.03017404 101.77604864 -3.27135344 99.78339682 -5.65234375 97.8828125 C-7.71604195 96.22773341 -9.49286334 94.59484267 -11.25 92.625 C-11.75015625 92.08101563 -12.2503125 91.53703125 -12.765625 90.9765625 C-21.06732104 77.68334035 -16.11228744 48.21065739 -16.0625 33.25 C-16.05747108 30.59505293 -16.05291065 27.94010494 -16.04882812 25.28515625 C-16.03794181 18.85675012 -16.02131579 12.42837958 -16 6 C-9.66579945 11.8046348 -9.41983367 20.12454182 -8.8671875 28.19140625 C-8.78501984 29.25431381 -8.70285217 30.31722137 -8.61819458 31.41233826 C-8.35939026 34.79499712 -8.11700028 38.17860184 -7.875 41.5625 C-7.70549594 43.80802365 -7.5349324 46.05346758 -7.36328125 48.29882812 C-6.04046146 65.79003585 -6.04046146 65.79003585 -5.76660156 71.75732422 C-5.71465134 72.79589821 -5.71465134 72.79589821 -5.66165161 73.85545349 C-5.5782001 75.61137875 -5.51114343 77.36806351 -5.44580078 79.12475586 C-4.54506518 84.93415521 -0.89675348 88.33433102 3.1875 92.3125 C4.08855469 93.19550781 4.98960938 94.07851562 5.91796875 94.98828125 C6.94857422 95.98408203 6.94857422 95.98408203 8 97 C6.14682459 94.10294813 6.14682459 94.10294813 4.34375 92.01953125 C3.43109375 90.92705078 3.43109375 90.92705078 2.5 89.8125 C1.8915625 89.09707031 1.283125 88.38164062 0.65625 87.64453125 C-3.29787237 81.33099152 -3.44718927 73.63684348 -3.96484375 66.38671875 C-4.04368301 65.37768997 -4.12252228 64.36866119 -4.20375061 63.32905579 C-4.53774107 59.05403969 -4.85635945 54.77792544 -5.17456055 50.50170898 C-5.98512216 39.71949015 -6.83682012 28.96736113 -8.44140625 18.26953125 C-8.55129379 17.50033859 -8.66118134 16.73114594 -8.7743988 15.93864441 C-9.46583977 11.65388774 -10.61450574 8.60543894 -13 5 C-13 2.8125 -13 2.8125 -12 1 C-7.89955798 -1.53262595 -4.55957736 -1.19988878 0 0 Z " fill="#FEFEFE" transform="translate(16,102)"/>
<path d="M0 0 C5.10870988 1.70290329 7.32060975 6.51741821 10 11 C11.34430283 13.94972923 12.27014883 16.84497407 13 20 C13.23009766 20.98419922 13.23009766 20.98419922 13.46484375 21.98828125 C15.08311367 31.06150249 11.68416223 39.25173967 7.875 47.3125 C4.32435447 55.19146979 2.87442906 61.29245817 4 70 C4.07476562 69.443125 4.14953125 68.88625 4.2265625 68.3125 C5.30038493 62.08011881 7.48870932 57.50049812 12 53 C14.1953125 51.77734375 14.1953125 51.77734375 16 51 C15.9071875 52.7325 15.9071875 52.7325 15.8125 54.5 C15.86999222 62.6926412 19.60664084 68.25800096 24.37890625 74.703125 C25.82326021 76.74958314 26.95376517 78.7305553 28 81 C27.63033987 74.54726971 27.63033987 74.54726971 25.9375 68.375 C23.73483016 62.79490307 24.84213909 57.39465228 27 52 C27.66 52 28.32 52 29 52 C30.078125 53.50390625 30.078125 53.50390625 31.25 55.5625 C32.9859543 58.4762404 34.77753532 60.99521593 37.0625 63.5 C43.38828519 70.65512978 46.5968858 79.65144633 46.29296875 89.203125 C45.01078717 101.44368514 39.95923309 109.07589743 31 117 C25.10238887 121.38207229 17.5296747 126 10 126 C10.2475 124.515 10.2475 124.515 10.5 123 C11.62119146 114.80540946 11.58293403 107.85307467 6.5234375 101 C2.83176166 96.68461637 -1.22367193 92.71066746 -5.30078125 88.76171875 C-7 87 -7 87 -9 84 C-9.47179687 85.45019531 -9.47179687 85.45019531 -9.953125 86.9296875 C-10.38488841 88.2449652 -10.8172199 89.56005649 -11.25 90.875 C-11.47453857 91.56102295 -11.69907715 92.2470459 -11.93041992 92.95385742 C-13.2188945 96.83658834 -14.64333057 100.57332118 -16.3125 104.3125 C-19.2364369 111.41012102 -18.28584603 118.60638535 -17 126 C-28.86152275 124.05548807 -38.53829284 118.51910991 -46 109 C-51.45012281 100.08474647 -54.62820167 91.05126493 -52.50390625 80.546875 C-49.89755621 70.94608276 -44.66444254 64.22141324 -38 57 C-37.01 57.33 -36.02 57.66 -35 58 C-34.06040376 63.29653879 -34.01158885 68.08668517 -34.4375 73.4375 C-34.48970703 74.16904297 -34.54191406 74.90058594 -34.59570312 75.65429688 C-34.72384876 77.43668622 -34.8609816 79.2184257 -35 81 C-34.01 79.02 -33.02 77.04 -32 75 C-30.68 75 -29.36 75 -28 75 C-28.144375 74.443125 -28.28875 73.88625 -28.4375 73.3125 C-31.22934594 61.83491115 -30.47529574 52.64418807 -25 42 C-22.5778329 38.43925324 -19.81678948 35.25202258 -17 32 C-8.86856981 21.99669943 -1.82973553 13.08124356 0 0 Z M-26 78 C-25 80 -25 80 -25 80 Z M26 85 C27 88 27 88 27 88 Z " fill="#FEFEFE" transform="translate(137,39)"/>
<path d="M0 0 C0 0.66 0 1.32 0 2 C-1.70763608 3.20806169 -3.46956008 4.33956205 -5.25 5.4375 C-24.07287171 17.74220412 -37.50272589 35.1532892 -42.53491211 57.3605957 C-46.21620009 78.25214655 -41.2461432 98.35635838 -29.25 115.625 C-14.57537933 134.88716686 5.59961547 146.64694436 29.54296875 150.3984375 C55.25436042 153.42330711 81.01474965 146.91311574 101.55078125 131.04296875 C116.39859429 118.65795086 127.26267675 101.3614683 130 82 C130.27675958 78.36923331 130.33422188 74.76533125 130.3125 71.125 C130.30831055 70.16045898 130.30412109 69.19591797 130.29980469 68.20214844 C130.18742661 61.10798313 129.4140016 54.71134065 127 48 C126.58234375 46.73736328 126.58234375 46.73736328 126.15625 45.44921875 C119.31533219 26.48926121 103.99696254 12.0722741 87 2 C87.33 1.01 87.66 0.02 88 -1 C104.30729782 1.2811721 121.35614936 16.47200711 131 29 C143.69273316 46.10944331 149.10728016 65.55738694 146.53515625 86.84765625 C144.95008361 97.13996083 141.65674313 106.68651375 137 116 C136.01 116.495 135.02 116.99 134 117.5 C128.56523249 120.46340204 124.98697883 125.37872908 121 130 C119.35305515 131.68615782 117.68873879 133.35570171 116 135 C115.52691406 135.50660156 115.05382812 136.01320312 114.56640625 136.53515625 C96.79992756 155.23895515 73.83756965 165.19613644 48.27734375 166.21875 C19.46120717 166.95339947 -4.7858429 157.8659704 -25.87890625 138.25292969 C-31.19709514 133.15587699 -36.3990627 127.99870876 -41.03125 122.265625 C-43.10935468 119.76578631 -44.06725742 118.9695044 -47.14453125 117.57421875 C-51.33725718 115.26277066 -52.14490677 112.19485672 -53.6875 107.8125 C-53.98148682 107.01239502 -54.27547363 106.21229004 -54.57836914 105.38793945 C-58.78634881 93.4874488 -60.68587764 81.65444241 -60 69 C-59.9690625 68.21367188 -59.938125 67.42734375 -59.90625 66.6171875 C-58.55497822 47.7669461 -46.51343997 29.5438463 -33 17 C-8.79935784 -3.68245632 -8.79935784 -3.68245632 0 0 Z " fill="#FEFEFE" transform="translate(90,27)"/>
<path d="M0 0 C0.99 0.33 1.98 0.66 3 1 C3.9008511 5.61149968 4.13434452 9.9918777 4.125 14.6875 C4.12757813 15.99074219 4.13015625 17.29398438 4.1328125 18.63671875 C4 22 4 22 3 25 C1.35 25 -0.3 25 -2 25 C-2.05786668 21.20839703 -2.09355054 17.41690689 -2.125 13.625 C-2.14175781 12.54476563 -2.15851563 11.46453125 -2.17578125 10.3515625 C-2.18222656 9.3203125 -2.18867188 8.2890625 -2.1953125 7.2265625 C-2.20578613 6.27346191 -2.21625977 5.32036133 -2.22705078 4.33837891 C-2 2 -2 2 0 0 Z " fill="#FEFEFE" transform="translate(133,0)"/>
<path d="M0 0 C2.475 0.99 2.475 0.99 5 2 C4.09844676 6.62973364 1.62920589 9.24509313 -1.375 12.75 C-1.87 13.35199219 -2.365 13.95398438 -2.875 14.57421875 C-4.17938097 16.11227225 -5.58440441 17.56364788 -7 19 C-10 19 -10 19 -13 18 C-11.39344468 14.30666901 -9.07760395 11.51305016 -6.5 8.4375 C-4.18760361 5.67088289 -2.00082301 3.00123452 0 0 Z " fill="#FEFEFE" transform="translate(166,16)"/>
<path d="M0 0 C0.33 1.65 0.66 3.3 1 5 C-5.55508059 8.2775403 -14.86005418 7.10873014 -22 7 C-22.5625 5.0625 -22.5625 5.0625 -23 3 C-21.04392603 1.04392603 -17.55254146 1.28241231 -14.875 0.9375 C-13.57304687 0.76089844 -12.27109375 0.58429688 -10.9296875 0.40234375 C-7.25129227 0.02572873 -3.69401035 -0.07196124 0 0 Z " fill="#FEFEFE" transform="translate(201,77)"/>
<path d="M0 0 C2.35441716 0.14241648 4.70847484 0.28884808 7.0625 0.4375 C9.02896484 0.55931641 9.02896484 0.55931641 11.03515625 0.68359375 C14.73663238 0.97898249 18.33370448 1.43265388 22 2 C22.5625 3.9375 22.5625 3.9375 23 6 C22 7 22 7 19.8828125 7.1328125 C13.20368962 7.11389147 6.63999405 6.71922566 0 6 C-1.125 2.25 -1.125 2.25 0 0 Z " fill="#FEFEFE" transform="translate(66,77)"/>
<path d="M0 0 C3.7132971 1.2377657 4.62780182 2.74391789 7 5.8125 C7.680625 6.68519531 8.36125 7.55789062 9.0625 8.45703125 C9.701875 9.29621094 10.34125 10.13539062 11 11 C11.87591797 12.08087891 11.87591797 12.08087891 12.76953125 13.18359375 C14 15 14 15 13.6875 17.25 C13.460625 17.8275 13.23375 18.405 13 19 C6.63272378 17.91324388 2.72046275 12.1444552 -0.9375 7.1875 C-3 4 -3 4 -3 2 C-2.01 1.34 -1.02 0.68 0 0 Z " fill="#FEFEFE" transform="translate(99,16)"/>
<path d="M0 0 C1.32 0.66 2.64 1.32 4 2 C4 2.99 4 3.98 4 5 C1.94692089 6.74452386 -0.03299187 8.24509298 -2.25 9.75 C-2.83652344 10.17410156 -3.42304688 10.59820312 -4.02734375 11.03515625 C-8.34381552 14.01303678 -8.34381552 14.01303678 -11.359375 13.953125 C-13 13 -13 13 -14 10 C-9.38 6.7 -4.76 3.4 0 0 Z " fill="#FEFEFE" transform="translate(180,51)"/>
<path d="M0 0 C3.63293331 0.45511472 5.77031898 2.16501426 8.5625 4.4375 C11.00602618 6.41127579 13.38268521 8.25512347 16 10 C15.34 11.32 14.68 12.64 14 14 C10.27683123 13.37658569 7.89999517 11.70328007 4.875 9.5 C1.55530546 7.05517657 1.55530546 7.05517657 -2 5 C-1.125 1.125 -1.125 1.125 0 0 Z " fill="#FEFEFE" transform="translate(85,51)"/>
</svg>
