<?xml version="1.0" encoding="UTF-8"?>
<!-- Generator: visioncortex VTracer 0.6.4 -->
<svg version="1.1" xmlns="http://www.w3.org/2000/svg" width="290" height="160">
<path d="M0 0 C2.19927927 0.69351982 4.38356134 1.30257913 6.62768555 1.82861328 C6.13268555 3.31361328 6.13268555 3.31361328 5.62768555 4.82861328 C3.52636719 5.68823242 3.52636719 5.68823242 0.7878418 6.36376953 C-0.19249023 6.61578125 -1.17282227 6.86779297 -2.18286133 7.12744141 C-3.73070313 7.50545898 -3.73070313 7.50545898 -5.30981445 7.89111328 C-7.34128535 8.39675212 -9.37132226 8.90819817 -11.3996582 9.42626953 C-12.30449951 9.64806885 -13.20934082 9.86986816 -14.14160156 10.09838867 C-16.54370651 10.69865073 -16.54370651 10.69865073 -18.37231445 12.82861328 C-22.36178164 12.3859253 -26.11971878 11.00504386 -29.9230957 9.76220703 C-31.17928711 9.359375 -32.43547852 8.95654297 -33.72973633 8.54150391 C-35.70611637 7.90605524 -37.68115493 7.26731648 -39.65332031 6.61889648 C-49.78972539 3.25108372 -49.78972539 3.25108372 -60.37231445 2.82861328 C-60.55407227 3.50666016 -60.73583008 4.18470703 -60.9230957 4.88330078 C-61.17446289 5.81400391 -61.42583008 6.74470703 -61.68481445 7.70361328 C-61.94907227 8.70521484 -62.21333008 9.70681641 -62.4855957 10.73876953 C-63.37231445 13.82861328 -63.37231445 13.82861328 -64.4152832 16.57470703 C-64.73110352 17.42162109 -65.04692383 18.26853516 -65.37231445 19.14111328 C-65.68168945 19.90037109 -65.99106445 20.65962891 -66.30981445 21.44189453 C-66.39150825 24.5615765 -65.17389667 26.02177426 -63.16549683 28.31977844 C-59.49527198 31.4080104 -54.88785544 32.53475233 -50.3762207 33.94970703 C-48.77676857 34.47323509 -48.77676857 34.47323509 -47.14500427 35.00733948 C-44.89628325 35.73842598 -42.64439449 36.45983132 -40.38964844 37.17211914 C-36.94230147 38.26374247 -33.5078631 39.39028714 -30.07348633 40.52197266 C-27.88340899 41.22915353 -25.69267391 41.93430134 -23.5012207 42.63720703 C-22.4760585 42.97352646 -21.4508963 43.30984589 -20.39466858 43.65635681 C-14.51149308 45.49276617 -10.13720493 46.61765475 -4.32543945 43.85595703 C-3.7634082 43.49630859 -3.20137695 43.13666016 -2.62231445 42.76611328 C0.62768555 40.82861328 0.62768555 40.82861328 2.62768555 40.82861328 C2.95768555 38.84861328 3.28768555 36.86861328 3.62768555 34.82861328 C6.04277996 34.15575116 8.4594891 33.49015316 10.87768555 32.82861328 C11.55959961 32.63783203 12.24151367 32.44705078 12.9440918 32.25048828 C16.33369467 31.32904284 19.08547531 30.82861328 22.62768555 30.82861328 C23.08341502 43.58903866 23.08341502 43.58903866 19.37329102 48.48339844 C17.81269516 50.0460217 16.19781897 51.47579625 14.50268555 52.89111328 C13.91519531 53.40351562 13.32770508 53.91591797 12.72241211 54.44384766 C11.55769016 55.45793138 10.38726188 56.46550559 9.21069336 57.46582031 C7.20665591 59.19107279 5.30293697 61.01638269 3.37768555 62.82861328 C-0.53659557 66.14635469 -4.29747784 68.74125817 -9.37231445 69.82861328 C-11.7817688 69.44918823 -11.7817688 69.44918823 -14.35717773 68.66796875 C-15.32423645 68.38000427 -16.29129517 68.09203979 -17.28765869 67.79534912 C-18.30559509 67.47632629 -19.32353149 67.15730347 -20.37231445 66.82861328 C-21.38396667 66.51909729 -22.3956189 66.2095813 -23.43792725 65.89068604 C-30.45395336 63.71944376 -37.43900083 61.4490487 -44.42602539 59.18652344 C-46.98170299 58.35980932 -49.53996158 57.54193403 -52.10083008 56.73144531 C-55.81934663 55.55449907 -59.52956673 54.35266412 -63.23950195 53.14892578 C-64.38224579 52.79041534 -65.52498962 52.43190491 -66.70236206 52.06253052 C-72.50897859 50.15301185 -76.57888314 48.70539346 -80.37231445 43.82861328 C-81.06224487 42.96647217 -81.06224487 42.96647217 -81.76611328 42.08691406 C-82.92286351 40.38645139 -84.06174317 38.67652796 -85.18481445 36.95361328 C-85.59151367 36.36708984 -85.99821289 35.78056641 -86.41723633 35.17626953 C-89.27289604 30.80878998 -89.72245404 27.96478026 -89.37231445 22.82861328 C-88.42602539 19.34350586 -88.42602539 19.34350586 -87.10668945 15.72314453 C-86.87201965 15.07665451 -86.63734985 14.43016449 -86.39556885 13.76408386 C-85.90004122 12.4083079 -85.39887758 11.05457967 -84.89233398 9.70288086 C-84.12259591 7.64186689 -83.37732781 5.57311789 -82.6340332 3.50244141 C-82.14719231 2.17964478 -81.65895803 0.85735997 -81.16918945 -0.46435547 C-80.72929688 -1.65569092 -80.2894043 -2.84702637 -79.83618164 -4.07446289 C-77.08312222 -9.89877223 -73.17409506 -12.27994607 -67.2902832 -14.39404297 C-46.08886324 -20.04207854 -19.99224564 -6.5889251 0 0 Z " fill="#FFFFFF" transform="translate(89.372314453125,45.17138671875)"/>
<path d="M0 0 C4.52079119 3.01171111 5.60742722 6.63343318 7.078125 11.71142578 C7.88125326 14.28179262 8.83469926 16.77544436 9.80078125 19.2890625 C10.55147938 21.25884866 11.30147426 23.22890298 12.05078125 25.19921875 C12.41341064 26.15046631 12.77604004 27.10171387 13.1496582 28.08178711 C16.57493143 37.42111814 16.57493143 37.42111814 15.73828125 41.82421875 C14.34726023 44.56416459 12.65329351 47.01901572 10.86328125 49.51171875 C10.40308594 50.17494141 9.94289063 50.83816406 9.46875 51.52148438 C8.61322959 52.75268983 7.75205168 53.97999844 6.88330078 55.2019043 C5.80868575 56.72446653 4.77201878 58.27361245 3.73828125 59.82421875 C1.40530151 60.80923799 -0.83714298 61.6276552 -3.2421875 62.390625 C-3.95465134 62.62625153 -4.66711517 62.86187805 -5.40116882 63.10464478 C-7.74685695 63.87712521 -10.09729466 64.63345192 -12.44921875 65.38671875 C-15.73743458 66.44520534 -19.0250121 67.50566142 -22.3125 68.56640625 C-23.14579834 68.83380112 -23.97909668 69.10119598 -24.83764648 69.37669373 C-29.58031297 70.91037024 -34.27285604 72.53256607 -38.93824768 74.28730774 C-41.68021748 75.31691786 -44.43529998 76.30828271 -47.19229126 77.29684448 C-49.08594169 77.99305042 -50.95989225 78.74212018 -52.83276367 79.49243164 C-58.71001389 81.56373242 -62.85219765 82.54282229 -68.75692749 80.00071716 C-75.56401147 76.5594046 -81.24167824 71.92767894 -86.51171875 66.44921875 C-87.24261719 65.74539062 -87.97351563 65.0415625 -88.7265625 64.31640625 C-94.56990648 58.39745523 -96.09980241 53.43883437 -96.38671875 45.26171875 C-96.34546875 44.45734375 -96.30421875 43.65296875 -96.26171875 42.82421875 C-89.68637014 43.44453466 -83.59479283 44.97319158 -77.26171875 46.82421875 C-76.93171875 48.80421875 -76.60171875 50.78421875 -76.26171875 52.82421875 C-75.39546875 53.09234375 -74.52921875 53.36046875 -73.63671875 53.63671875 C-70.26171875 54.82421875 -70.26171875 54.82421875 -67.44921875 56.57421875 C-58.82164153 59.95758237 -44.95880863 52.77402152 -36.48583984 50.07641602 C-34.49912653 49.44869811 -32.50915275 48.83120985 -30.51611328 48.22387695 C-27.61604786 47.33945477 -24.72769859 46.4234069 -21.83984375 45.5 C-20.95331116 45.2361702 -20.06677856 44.97234039 -19.15338135 44.70051575 C-13.0534211 42.69543143 -10.27792527 40.56842624 -7.26171875 34.82421875 C-7.60910507 31.79372124 -8.63972627 29.37661953 -9.94921875 26.63671875 C-13.26171875 19.14728764 -13.26171875 19.14728764 -13.26171875 14.82421875 C-21.32227253 14.09887107 -28.39988501 16.77960493 -35.94921875 19.26171875 C-38.5351064 20.09802071 -41.12298042 20.92791349 -43.7109375 21.7578125 C-45.41769653 22.31553345 -45.41769653 22.31553345 -47.15893555 22.88452148 C-49.87333009 23.70659282 -52.45030309 24.45359782 -55.26171875 24.82421875 C-56.94946719 23.8602255 -58.6113359 22.8508707 -60.26171875 21.82421875 C-63.65363048 20.60692772 -67.11049165 19.62810354 -70.57421875 18.63671875 C-71.97124023 18.22776367 -71.97124023 18.22776367 -73.39648438 17.81054688 C-75.68314476 17.14213846 -77.97148392 16.48025405 -80.26171875 15.82421875 C-80.26171875 15.16421875 -80.26171875 14.50421875 -80.26171875 13.82421875 C-74.55615276 12.04211985 -68.84931877 10.26415787 -63.14135742 8.48974609 C-61.20644767 7.88764572 -59.27186729 7.2844857 -57.33764648 6.68017578 C-14.98303417 -6.54947002 -14.98303417 -6.54947002 0 0 Z " fill="#FFFFFF" transform="translate(274.26171875,33.17578125)"/>
<path d="M0 0 C-2.97 3.63 -5.94 7.26 -9 11 C-8.113125 12.03125 -7.22625 13.0625 -6.3125 14.125 C-3.50643673 17.38786427 -0.75129589 20.69094566 2 24 C1.09765625 23.84660156 0.1953125 23.69320312 -0.734375 23.53515625 C-10.9054722 22.20169414 -19.93315118 23.65727562 -29.875 26.0625 C-31.11733398 26.34939697 -32.35966797 26.63629395 -33.63964844 26.93188477 C-34.80786133 27.23408936 -35.97607422 27.53629395 -37.1796875 27.84765625 C-38.22882324 28.11586182 -39.27795898 28.38406738 -40.35888672 28.66040039 C-43.86499119 30.43873236 -44.47017604 32.46009847 -46 36 C-48.55184548 38.3144645 -50.41888855 39.92741405 -53.95703125 40.08984375 C-58.15450092 39.64842725 -62.04880899 38.48169663 -66 37 C-65.67938894 35.3308393 -65.34159223 33.66499358 -65 32 C-64.88285645 31.36980957 -64.76571289 30.73961914 -64.64501953 30.09033203 C-62.00536267 17.05073229 -62.00536267 17.05073229 -57.29399109 13.83589172 C-55.20201922 12.98343323 -53.14440239 12.36876033 -50.95703125 11.8046875 C-50.16706757 11.5722081 -49.37710388 11.3397287 -48.5632019 11.10020447 C-46.04994461 10.36862053 -43.52647293 9.68435485 -41 9 C-39.374451 8.5315433 -37.7498401 8.05981817 -36.1262207 7.5847168 C-32.1130856 6.42048757 -28.08813126 5.30795484 -24.05371094 4.2199707 C-21.57436692 3.54879324 -19.09980888 2.8615171 -16.625 2.17382812 C-15.03411767 1.74121732 -13.44298134 1.30953925 -11.8515625 0.87890625 C-10.75323593 0.57129112 -10.75323593 0.57129112 -9.63272095 0.25746155 C-5.79821671 -0.75918546 -3.95247629 -0.98811907 0 0 Z " fill="#FFFFFF" transform="translate(133,46)"/>
<path d="M0 0 C6.83621337 1.27411415 13.5148604 2.86567929 20.20703125 4.75 C21.13545334 5.0087793 22.06387543 5.26755859 23.02043152 5.53417969 C24.96455685 6.07700134 26.90818174 6.62161835 28.85131836 7.16796875 C31.82075008 8.0023181 34.79206771 8.82967542 37.76367188 9.65625 C39.66157378 10.18708743 41.55936425 10.71832343 43.45703125 11.25 C44.34042679 11.49588867 45.22382233 11.74177734 46.13398743 11.99511719 C57.49706193 15.2005953 57.49706193 15.2005953 59.21020508 17.92358398 C59.47728271 18.69001221 59.74436035 19.45644043 60.01953125 20.24609375 C60.31923828 21.08333984 60.61894531 21.92058594 60.92773438 22.78320312 C61.21970703 23.65912109 61.51167969 24.53503906 61.8125 25.4375 C62.27946289 26.74557617 62.27946289 26.74557617 62.75585938 28.08007812 C65 34.49684066 65 34.49684066 65 38 C63.44240657 38.53532823 61.87861955 39.05265378 60.3125 39.5625 C59.44238281 39.85253906 58.57226562 40.14257812 57.67578125 40.44140625 C53.71934601 41.26734821 50.98230741 40.41119845 47.3125 38.875 C44.17018665 36.32717836 43.80498125 33.87854602 43 30 C41.87335938 29.88914062 40.74671875 29.77828125 39.5859375 29.6640625 C35.61708755 29.17078866 31.9304909 28.19538697 28.09667969 27.08276367 C17.35431093 24.00669423 8.0464329 23.65254864 -3 25 C-2.62488281 24.56429687 -2.24976563 24.12859375 -1.86328125 23.6796875 C1.45859777 19.81392401 4.74642927 15.92342352 8 12 C7.4225 11.30132812 6.845 10.60265625 6.25 9.8828125 C5.13625 8.51769531 5.13625 8.51769531 4 7.125 C3.2575 6.22007813 2.515 5.31515625 1.75 4.3828125 C0 2 0 2 0 0 Z " fill="#FFFFFF" transform="translate(158,45)"/>
<path d="M0 0 C-1.01830146 2.03660292 -2.0243596 4.0410267 -3.1875 6 C-4.21298625 8.52427385 -3.95733686 9.47611191 -3 12 C-1.38864084 13.4725171 -1.38864084 13.4725171 0.5625 14.625 C2.50390625 15.8515625 2.50390625 15.8515625 4 17 C4 17.66 4 18.32 4 19 C3.41323486 19.09498779 2.82646973 19.18997559 2.22192383 19.2878418 C-9.72263806 21.24168965 -21.52876977 23.42007656 -33.25854492 26.42456055 C-37.25422273 27.43207689 -40.83943316 28.3056743 -45 28 C-45 27.34 -45 26.68 -45 26 C-43.5234375 24.765625 -43.5234375 24.765625 -41.375 23.25 C-38.22009744 20.92791334 -35.51797619 18.54549546 -32.953125 15.6015625 C-23.905746 5.36113741 -14.00027849 0 0 0 Z " fill="#FFFFFF" transform="translate(135,90)"/>
<path d="M0 0 C2.73035701 0.62012519 5.45920764 1.24590887 8.1875 1.875 C9.34088867 2.13603516 9.34088867 2.13603516 10.51757812 2.40234375 C18.70570763 4.30002183 23.01999499 6.63525252 28.8125 12.75 C32.65099948 16.71433542 36.37100095 20.52710265 40.875 23.75 C41.90625 24.4925 42.9375 25.235 44 26 C44 26.66 44 27.32 44 28 C38.74188246 27.40380858 33.669054 26.5730251 28.5 25.40625 C27.82001953 25.25466431 27.14003906 25.10307861 26.43945312 24.94689941 C23.57036728 24.30718417 20.70325113 23.65883447 17.8359375 23.01123047 C15.7246252 22.53570536 13.61234821 22.06464848 11.5 21.59375 C10.2521875 21.31208984 9.004375 21.03042969 7.71875 20.74023438 C3.81080937 19.96234073 -0.04248003 19.44872323 -4 19 C-2.4169423 14.7257442 0.50568404 12.73468206 4 10 C3.71125 9.44570312 3.4225 8.89140625 3.125 8.3203125 C2.568125 7.23363281 2.568125 7.23363281 2 6.125 C1.62875 5.40570313 1.2575 4.68640625 0.875 3.9453125 C0 2 0 2 0 0 Z " fill="#FFFFFF" transform="translate(156,90)"/>
<path d="M0 0 C1.32 0.33 2.64 0.66 4 1 C4.51032668 4.47773158 5.00633268 7.95736775 5.5 11.4375 C5.64308594 12.41138672 5.78617188 13.38527344 5.93359375 14.38867188 C6.76768061 20.32657597 7.14880874 26.00424766 7 32 C-0.5 36 -0.5 36 -5 36 C-3.86873523 23.87550351 -2.29701198 11.95977568 0 0 Z " fill="#FFFFFF" transform="translate(143,124)"/>
<path d="M0 0 C0.66 0 1.32 0 2 0 C3.38867188 1.97192383 3.38867188 1.97192383 4.96875 4.70703125 C5.53980469 5.68607422 6.11085938 6.66511719 6.69921875 7.67382812 C7.59060547 9.2274707 7.59060547 9.2274707 8.5 10.8125 C9.67653042 12.84016468 10.85359082 14.86752195 12.03125 16.89453125 C12.55267578 17.80050049 13.07410156 18.70646973 13.61132812 19.63989258 C14.68328799 21.46173435 15.82746751 23.24120127 17 25 C16.67 25.99 16.34 26.98 16 28 C8.48931831 22.80029729 2.33787257 16.52800875 -4 10 C-2.99806563 6.20696275 -2.18975773 3.28463659 0 0 Z " fill="#FFFFFF" transform="translate(113,6)"/>
<path d="M0 0 C3.08510827 1.19976433 6.05047042 2.50002556 9 4 C7.77696248 12.79148147 6.11620945 21.37997349 4 30 C2.68 29.67 1.36 29.34 0 29 C-0.16729064 25.03092526 -0.32788226 21.06164279 -0.48217773 17.09204102 C-0.53565802 15.74072921 -0.59099194 14.38948948 -0.64819336 13.03833008 C-0.72993571 11.09997011 -0.80453323 9.16131296 -0.87890625 7.22265625 C-0.9260376 6.05484619 -0.97316895 4.88703613 -1.02172852 3.68383789 C-1 1 -1 1 0 0 Z " fill="#FFFFFF" transform="translate(143,0)"/>
<path d="M0 0 C0.99 0.33 1.98 0.66 3 1 C1.37885498 5.79821659 -1.29276759 9.6672859 -4.125 13.8125 C-4.59292969 14.50537109 -5.06085938 15.19824219 -5.54296875 15.91210938 C-6.69112437 17.61091105 -7.84499367 19.30584864 -9 21 C-11.97 20.01 -14.94 19.02 -18 18 C-15.92634961 13.85269921 -13.51219606 11.44698714 -10.125 8.4375 C-9.59519531 7.95603516 -9.06539062 7.47457031 -8.51953125 6.97851562 C-2.40323636 1.46170869 -2.40323636 1.46170869 0 0 Z " fill="#FFFFFF" transform="translate(128,119)"/>
<path d="M0 0 C5.01656091 1.49649753 8.02057429 4.51185279 11.6875 8.0625 C15.52092838 11.96895578 15.52092838 11.96895578 20 15 C20 15.99 20 16.98 20 18 C17.47264871 19.22757063 15.48084642 19.98958166 12.65625 20.05078125 C8.42991394 18.37889243 6.92417998 14.93563996 4.6875 11.125 C4.23310547 10.39152344 3.77871094 9.65804687 3.31054688 8.90234375 C0 3.43620771 0 3.43620771 0 0 Z " fill="#FFFFFF" transform="translate(160,120)"/>
<path d="M0 0 C1.98 1.65 3.96 3.3 6 5 C4.60295439 9.19113683 1.59561852 10.79770668 -1.875 13.25 C-2.51308594 13.72179688 -3.15117187 14.19359375 -3.80859375 14.6796875 C-5.48034659 15.87329808 -7.23676749 16.94620928 -9 18 C-9.99 17.67 -10.98 17.34 -12 17 C-10.53416665 12.45928635 -7.95468267 9.23733031 -4.875 5.6875 C-4.40707031 5.13771484 -3.93914062 4.58792969 -3.45703125 4.02148438 C-2.31047517 2.67603591 -1.15602549 1.337321 0 0 Z " fill="#FFFFFF" transform="translate(172,18)"/>
</svg>
