<?xml version="1.0" encoding="UTF-8"?>
<!-- Generator: visioncortex VTracer 0.6.4 -->
<svg version="1.1" xmlns="http://www.w3.org/2000/svg" width="290" height="225">
<path d="M0 0 C3.54558493 2.01611692 5.79861733 3.48254234 8.1875 6.8125 C9.1894813 11.56751651 8.63510171 14.93328236 6.4375 19.25 C3.17101899 22.97015893 1.60302145 23.66083699 -3.3125 24.1875 C-6.8125 23.8125 -6.8125 23.8125 -9.3125 22.125 C-10.8125 19.8125 -10.8125 19.8125 -10.6875 17.125 C-9.8125 14.8125 -9.8125 14.8125 -7.8125 13.8125 C-10.18624861 13.47824265 -10.18624861 13.47824265 -12.8125 13.8125 C-14.80726282 15.87432838 -15.74535764 17.16250781 -16.04272461 20.04125977 C-15.31281488 26.64267886 -13.3752605 31.85472168 -10.375 37.75 C-9.93196533 38.65387451 -9.48893066 39.55774902 -9.0324707 40.48901367 C-6.40263413 45.80945744 -3.62469594 51.03933218 -0.78637695 56.25073242 C7.32600325 71.22376289 13.55281878 86.48639434 9.48828125 103.7890625 C8.57114427 106.28893799 7.50496764 108.50071716 6.1875 110.8125 C5.79820312 111.53179687 5.40890625 112.25109375 5.0078125 112.9921875 C-2.67460815 125.76591651 -15.57157269 135.65188179 -27.8125 143.8125 C-30.13637947 144.20637788 -32.47043749 144.54736085 -34.8125 144.8125 C-33.8225 145.1425 -32.8325 145.4725 -31.8125 145.8125 C-31.8125 146.4725 -31.8125 147.1325 -31.8125 147.8125 C-33.82421875 149.25 -33.82421875 149.25 -36.5 150.8125 C-37.37011719 151.328125 -38.24023438 151.84375 -39.13671875 152.375 C-43.90449818 154.93637639 -46.49612323 156.10567273 -51.8125 154.8125 C-52.4725 155.1425 -53.1325 155.4725 -53.8125 155.8125 C-52.1625 156.4725 -50.5125 157.1325 -48.8125 157.8125 C-49.22242188 158.45316406 -49.63234375 159.09382812 -50.0546875 159.75390625 C-53.15065426 164.72374762 -55.56622504 169.07963518 -56.8125 174.8125 C-56.4 174.1834375 -55.9875 173.554375 -55.5625 172.90625 C-41.05835347 151.40903283 -20.51411339 144.34712914 3.9375 139.1875 C4.82945068 139.01774658 5.72140137 138.84799316 6.64038086 138.6730957 C12.77079914 137.43316451 18.04323543 135.44764288 23.1875 131.8125 C23.5175 131.1525 23.8475 130.4925 24.1875 129.8125 C23.8575 129.1525 23.5275 128.4925 23.1875 127.8125 C22.589375 128.4725 21.99125 129.1325 21.375 129.8125 C19.1875 131.8125 19.1875 131.8125 16.1875 131.8125 C16.5175 130.1625 16.8475 128.5125 17.1875 126.8125 C16.40375 126.52375 15.62 126.235 14.8125 125.9375 C12.1875 124.8125 12.1875 124.8125 10.1875 122.8125 C9.57512016 118.87577248 9.87972566 117.26919741 12.125 113.9375 C15.71512004 111.4463963 17.69890741 111.13462673 21.97265625 111.390625 C26.44639618 112.24276594 29.1261932 114.60968562 32.0625 117.9375 C34.01967245 122.93916293 34.18838768 128.09387265 32.3203125 133.16796875 C31.35158524 135.10895878 30.31705649 136.96166045 29.1875 138.8125 C27.92902549 140.75098906 27.92902549 140.75098906 28.77734375 142.6953125 C29.1875 144.8125 29.1875 144.8125 28.25390625 146.7421875 C18.27205499 159.65377692 4.98926606 163.87951925 -10.4375 167.625 C-24.90339966 171.28002985 -38.69758754 175.45105265 -50.1484375 185.46484375 C-51.8125 186.8125 -51.8125 186.8125 -54.8125 187.8125 C-55.88010029 189.62338293 -55.88010029 189.62338293 -56.8125 191.8125 C-57.763675 193.41280557 -58.74407915 194.99602783 -59.75 196.5625 C-60.25402344 197.36171875 -60.75804687 198.1609375 -61.27734375 198.984375 C-61.78394531 199.58765625 -62.29054688 200.1909375 -62.8125 200.8125 C-63.8025 200.8125 -64.7925 200.8125 -65.8125 200.8125 C-67.3203125 198.90625 -67.3203125 198.90625 -68.9375 196.3125 C-82.19541683 176.74260198 -105.27553883 170.65431073 -127 165.1875 C-139.38291631 162.03573678 -150.14661084 157.10463821 -157.6328125 146.1484375 C-158.8125 143.8125 -158.8125 143.8125 -158.25 141.9375 C-157.61503103 138.853365 -159.2384575 137.42072674 -160.8046875 134.86328125 C-163.03001627 130.33499597 -163.54201139 125.35291612 -162.1484375 120.5 C-160.71169047 117.32280332 -159.20365205 115.17012473 -156.625 112.8125 C-152.60249607 111.38227638 -149.02934806 111.14908991 -144.8125 111.8125 C-141.75 113.3125 -141.75 113.3125 -139.8125 115.8125 C-139.06567165 118.88005114 -139.29574578 120.55694844 -139.8125 123.8125 C-141.46071244 124.84263277 -143.12753702 125.84364628 -144.8125 126.8125 C-145.22975678 130.43849422 -145.22975678 130.43849422 -144.8125 133.8125 C-148.07710973 132.00837357 -149.70179795 130.97855307 -151.8125 127.8125 C-152.4725 128.8025 -153.1325 129.7925 -153.8125 130.8125 C-148.40946604 134.5828443 -143.52632297 136.78361165 -137.125 138.25 C-135.45009899 138.66627511 -133.7756349 139.08431124 -132.1015625 139.50390625 C-131.23692383 139.7167627 -130.37228516 139.92961914 -129.48144531 140.14892578 C-105.10114278 146.21054875 -87.18363024 154.0270612 -71.8125 174.8125 C-72.57393669 172.87128789 -73.34701357 170.93463883 -74.125 169 C-74.55425781 167.92105469 -74.98351562 166.84210938 -75.42578125 165.73046875 C-76.69411435 163.06161009 -77.7602899 161.81656441 -79.8125 159.8125 C-79.8125 158.8225 -79.8125 157.8325 -79.8125 156.8125 C-78.50539062 156.39291016 -78.50539062 156.39291016 -77.171875 155.96484375 C-68.67673405 153.10554847 -61.41068465 149.64138292 -53.8125 144.8125 C-54.66630249 145.16030518 -54.66630249 145.16030518 -55.53735352 145.51513672 C-58.14840608 146.576316 -60.76167045 147.63194131 -63.375 148.6875 C-64.27025391 149.05230469 -65.16550781 149.41710937 -66.08789062 149.79296875 C-80.34212428 155.53643286 -80.34212428 155.53643286 -87.8125 153.8125 C-89.2975 152.8225 -89.2975 152.8225 -90.8125 151.8125 C-90.8125 151.1525 -90.8125 150.4925 -90.8125 149.8125 C-91.8953125 149.626875 -91.8953125 149.626875 -93 149.4375 C-95.76971894 148.8220069 -98.2095354 147.92805626 -100.8125 146.8125 C-100.8125 146.1525 -100.8125 145.4925 -100.8125 144.8125 C-100.27584717 144.70292969 -99.73919434 144.59335938 -99.1862793 144.48046875 C-70.07524564 138.39802749 -39.6062188 124.98513062 -21.8125 99.8125 C-15.37176059 88.5057394 -13.07497807 79.95497497 -16.25 67.125 C-18.55369378 59.03296373 -21.5672996 51.20481914 -24.63842773 43.3762207 C-28.86744331 32.48917509 -32.66633595 20.85599297 -27.7109375 9.55859375 C-24.96235108 4.2167758 -21.79175684 1.75599865 -16.3125 -0.4609375 C-10.61701311 -2.11618838 -5.61582251 -1.74919062 0 0 Z M-3.8125 86.8125 C-2.8125 88.8125 -2.8125 88.8125 -2.8125 88.8125 Z M-4.8125 89.8125 C-5.06644531 90.64652344 -5.32039062 91.48054688 -5.58203125 92.33984375 C-7.57647341 98.86099732 -9.62322433 105.35413676 -11.8125 111.8125 C-7.38497573 107.78747794 -4.21146233 102.12096809 -3.4921875 96.15625 C-3.49888771 94.03898342 -3.64230439 91.92292558 -3.8125 89.8125 C-4.1425 89.8125 -4.4725 89.8125 -4.8125 89.8125 Z M-114.8125 156.8125 C-112.51027553 158.34731631 -110.45525436 159.52416729 -107.9765625 160.6875 C-106.87441406 161.20570313 -106.87441406 161.20570313 -105.75 161.734375 C-104.986875 162.09015625 -104.22375 162.4459375 -103.4375 162.8125 C-102.68210937 163.16828125 -101.92671875 163.5240625 -101.1484375 163.890625 C-97.40816136 165.64306207 -93.6727748 167.33606023 -89.8125 168.8125 C-92.95992357 165.27457723 -96.42481725 163.18690789 -100.625 161.125 C-101.21603516 160.81755859 -101.80707031 160.51011719 -102.41601562 160.19335938 C-106.6270498 158.09473057 -110.19794394 157.25563919 -114.8125 156.8125 Z M-30.8125 161.8125 C-33.3515273 163.33920847 -35.50904688 164.9375963 -37.8125 166.8125 C-36.8225 167.3075 -36.8225 167.3075 -35.8125 167.8125 C-33.1443731 166.61317548 -30.58441417 165.36009686 -28 164 C-19.23333575 159.4540284 -19.23333575 159.4540284 -14.8125 157.8125 C-20.27401952 155.99199349 -25.76778066 159.51724354 -30.8125 161.8125 Z M-39.8125 167.8125 C-40.1425 168.4725 -40.4725 169.1325 -40.8125 169.8125 C-39.8225 169.4825 -38.8325 169.1525 -37.8125 168.8125 C-38.4725 168.4825 -39.1325 168.1525 -39.8125 167.8125 Z M-58.8125 176.8125 C-57.8125 178.8125 -57.8125 178.8125 -57.8125 178.8125 Z M-70.8125 178.8125 C-69.8125 180.8125 -69.8125 180.8125 -69.8125 180.8125 Z M-59.8125 179.8125 C-58.8125 181.8125 -58.8125 181.8125 -58.8125 181.8125 Z " fill="#FEFEFE" transform="translate(209.8125,24.1875)"/>
<path d="M0 0 C4.98486486 3.04868344 8.01162582 7.64702816 9.8203125 13.11328125 C12.29522352 26.75363054 6.48752942 39.4273621 1.93603516 52.01660156 C0.5050791 55.98820913 -0.84837397 59.98243082 -2.1796875 63.98828125 C-2.5509375 65.07882813 -2.9221875 66.169375 -3.3046875 67.29296875 C-5.95304364 75.82918808 -6.2202851 83.32561514 -2.5546875 91.5859375 C-0.00345139 96.27528343 3.25225544 100.1631423 6.8203125 104.11328125 C8.10228516 105.53640625 8.10228516 105.53640625 9.41015625 106.98828125 C16.78931874 114.87773246 25.17099424 120.90475912 34.08984375 126.94189453 C38.19494888 129.72071711 38.19494888 129.72071711 39.8203125 131.11328125 C39.8203125 131.77328125 39.8203125 132.43328125 39.8203125 133.11328125 C18.75122667 140.41172275 18.75122667 140.41172275 11.8203125 141.11328125 C10.7065625 141.22800781 9.5928125 141.34273437 8.4453125 141.4609375 C3.90715231 141.02570446 1.70711243 139.17672853 -1.4921875 136.17578125 C-2.05196289 135.67288574 -2.61173828 135.16999023 -3.18847656 134.65185547 C-4.3256778 133.62837436 -5.45711817 132.59845371 -6.58251953 131.56201172 C-7.99539287 130.28044792 -9.45748075 129.05360349 -10.92578125 127.8359375 C-21.15063685 119.27002883 -29.10266108 108.64880889 -30.484375 95.1328125 C-31.11843788 79.82205877 -25.22162016 67.20355114 -18.1796875 54.11328125 C-16.72790237 51.39449289 -15.27997251 48.67378526 -13.83813477 45.94970703 C-12.88290913 44.1483338 -11.92026359 42.35086849 -10.94897461 40.55810547 C-6.74334339 32.66960261 -3.23950559 25.20170641 -4.1796875 16.11328125 C-5.20390011 14.0038934 -5.20390011 14.0038934 -7.1796875 13.11328125 C-9.80539454 12.86258212 -9.80539454 12.86258212 -12.1796875 13.11328125 C-11.6434375 13.67015625 -11.1071875 14.22703125 -10.5546875 14.80078125 C-10.1009375 15.56390625 -9.6471875 16.32703125 -9.1796875 17.11328125 C-9.84739933 19.50591532 -10.40066135 21.3342551 -12.1796875 23.11328125 C-16.70253882 23.68331003 -20.15312245 23.72485192 -24.1171875 21.36328125 C-27.71290347 17.44068201 -28.71793747 14.61970196 -28.5546875 9.140625 C-27.86975351 5.43770061 -25.88997728 3.59290807 -23.1796875 1.11328125 C-16.00145954 -3.10920579 -7.62973119 -3.2588528 0 0 Z M-16.1796875 85.11328125 C-16.57299098 93.24155325 -15.7559016 100.4329754 -10.9921875 107.23828125 C-10.3940625 107.85703125 -9.7959375 108.47578125 -9.1796875 109.11328125 C-9.8445701 105.33176143 -10.90173472 101.85601523 -12.1796875 98.23828125 C-13.68667725 93.81559395 -14.75735858 89.75889941 -15.1796875 85.11328125 C-15.5096875 85.11328125 -15.8396875 85.11328125 -16.1796875 85.11328125 Z M-8.1796875 110.11328125 C-7.1796875 112.11328125 -7.1796875 112.11328125 -7.1796875 112.11328125 Z " fill="#FEFEFE" transform="translate(100.1796875,24.88671875)"/>
<path d="M0 0 C2.5 1.0625 2.5 1.0625 4 3 C4.87281149 6.42890226 5.32922829 8.89259577 4.3125 12.3125 C2.68458811 14.40552957 1.50870936 15.13987108 -1 16 C-3.75 16.125 -3.75 16.125 -6 16 C-7.125 12.25 -7.125 12.25 -6 10 C-8.53744315 10.54708727 -8.53744315 10.54708727 -11 12 C-12.22151619 15.4355143 -12.23851421 17.30035831 -11.0625 20.75 C-8.17920166 23.89541637 -5.14280461 24.74336609 -1 25 C1.82743294 24.59196638 4.26304449 23.8797357 7 23 C4.69 22.67 2.38 22.34 0 22 C0 21.34 0 20.68 0 20 C2.82810426 17.45406487 5.95139316 15.27420188 9 13 C9.59554688 12.505 10.19109375 12.01 10.8046875 11.5 C16.75848211 6.71417467 23.48369917 5.6731155 31 6.0625 C36.4665838 6.76423263 43.01552576 9.01552576 47 13 C47.04080783 14.99958364 47.04254356 17.00045254 47 19 C45.35 19 43.7 19 42 19 C42.94875 19.37125 43.8975 19.7425 44.875 20.125 C48.68305483 22.4098329 48.84393064 23.85835346 50 28 C49.14277344 27.95359375 48.28554687 27.9071875 47.40234375 27.859375 C40.34760692 27.63667756 35.59837432 27.49695978 30 32 C28.10644594 34.54650373 27.12518213 36.48675325 26.375 39.5625 C24.08621962 43.61988341 20.31357999 44.66311949 16 46 C8.05394812 47.85114045 1.07963771 46.78807182 -6.078125 42.859375 C-9.72544949 40.43804194 -12.13701992 38.05472136 -14 34 C-14 33.34 -14 32.68 -14 32 C-13.01 32 -12.02 32 -11 32 C-11.94875 31.278125 -12.8975 30.55625 -13.875 29.8125 C-16.81440433 27.57599671 -17.90256219 25.52526014 -19 22 C-19.6514203 16.86438416 -19.80263851 11.7458193 -17.375 7.0625 C-12.46834433 0.73549663 -7.80269977 -1.1867224 0 0 Z " fill="#FEFEFE" transform="translate(19,106)"/>
<path d="M0 0 C4.8325314 2.37067578 7.76408623 5.09818904 10 10 C10.70094834 15.61473924 11.36042181 21.76138785 8.125 26.6875 C6.77903748 28.15222392 5.40659718 29.59340282 4 31 C4.99 31.99 4.99 31.99 6 33 C1.47435912 40.15228735 -3.29999214 44.44702982 -11.56640625 46.69921875 C-19.31535565 47.9286736 -26.33767558 46.08782509 -33 42 C-34.78512601 39.76660902 -35.88433216 37.70282965 -37.0234375 35.08984375 C-38.39190689 32.16131926 -40.30298902 30.70337536 -43 29 C-46.42232972 27.85922343 -49.08673217 27.90184883 -52.6875 27.9375 C-53.86699219 27.94652344 -55.04648438 27.95554688 -56.26171875 27.96484375 C-57.61716797 27.98224609 -57.61716797 27.98224609 -59 28 C-57.35191221 23.17574303 -55.41145219 21.58933063 -51 19 C-52.65 19 -54.3 19 -56 19 C-56.125 15.8125 -56.125 15.8125 -55 12 C-49.26597893 6.66233983 -41.69970218 6.29778232 -34.26416016 6.40820312 C-24.8864786 6.88407924 -18.61596968 10.64580275 -12.375 17.546875 C-11.04207849 19.12158738 -11.04207849 19.12158738 -9 20 C-9 20.66 -9 21.32 -9 22 C-11.31 22.33 -13.62 22.66 -16 23 C-8.9438678 25.00984093 -4.62281818 25.37161653 2 22 C3.14352916 19.71294169 3.10334439 18.40735238 3.0625 15.875 C3.041875 14.59625 3.02125 13.3175 3 12 C0.525 11.505 0.525 11.505 -2 11 C-2.33 12.32 -2.66 13.64 -3 15 C-5.1875 15.75 -5.1875 15.75 -8 16 C-10.8125 14.5625 -10.8125 14.5625 -13 12 C-13.94147949 8.03117698 -13.59092672 5.02769864 -11.5625 1.5 C-7.72080188 -0.7487989 -4.3407106 -0.73980807 0 0 Z " fill="#FEFEFE" transform="translate(280,106)"/>
<path d="M0 0 C2.9769386 0.00541262 5.95372971 -0.00000545 8.93066406 -0.00634766 C10.84472689 -0.00568763 12.75878963 -0.00440805 14.67285156 -0.00244141 C15.55211304 -0.00446564 16.43137451 -0.00648987 17.33728027 -0.00857544 C22.14880109 0.00965443 26.70914919 0.32270256 31.45410156 1.13037109 C32.44410156 5.09037109 33.43410156 9.05037109 34.45410156 13.13037109 C11.02410156 13.13037109 -12.40589844 13.13037109 -36.54589844 13.13037109 C-35.42089844 4.13037109 -35.42089844 4.13037109 -34.54589844 1.13037109 C-23.02342319 0.1385345 -11.56021208 -0.02505548 0 0 Z " fill="#FEFEFE" transform="translate(146.5458984375,49.86962890625)"/>
<path d="M0 0 C0.99 0.33 1.98 0.66 3 1 C3.63291213 2.96557859 4.25353854 4.93664114 4.78833008 6.93115234 C6.70250151 14.56688434 6.70250151 14.56688434 12.0234375 19.91015625 C15.26532632 20.92795385 15.26532632 20.92795385 18.48828125 21.4296875 C19.73158203 21.71199219 19.73158203 21.71199219 21 22 C21.495 23.485 21.495 23.485 22 25 C20.421924 25.84324672 18.8372958 26.67423918 17.25 27.5 C16.36828125 27.9640625 15.4865625 28.428125 14.578125 28.90625 C12 30 12 30 8 30 C7.89042969 30.56847656 7.78085938 31.13695313 7.66796875 31.72265625 C6.62061834 36.82316758 5.20728247 41.284442 3 46 C1.68 46 0.36 46 -1 46 C-1.83719383 43.70967689 -2.6698929 41.41789043 -3.5 39.125 C-3.73847656 38.47402344 -3.97695312 37.82304688 -4.22265625 37.15234375 C-6 32.2265625 -6 32.2265625 -6 30 C-6.825 29.9175 -7.65 29.835 -8.5 29.75 C-12.76753921 28.83552731 -16.19236894 27.07776822 -20 25 C-20 24.01 -20 23.02 -20 22 C-18.4188708 21.49307308 -16.83498617 20.99473557 -15.25 20.5 C-14.36828125 20.2215625 -13.4865625 19.943125 -12.578125 19.65625 C-10 19 -10 19 -6 19 C-5.62875 17.081875 -5.62875 17.081875 -5.25 15.125 C-4.08835439 9.830253 -2.13659734 4.96810741 0 0 Z " fill="#FEFEFE" transform="translate(144,0)"/>
<path d="M0 0 C1.65 0.33 3.3 0.66 5 1 C5 29.71 5 58.42 5 88 C2.525 88.99 2.525 88.99 0 90 C-1.80871461 88.19128539 -1.12635822 85.70986693 -1.13552856 83.30209351 C-1.13350433 82.48439484 -1.1314801 81.66669617 -1.12939453 80.82421875 C-1.13114685 79.96736481 -1.13289917 79.11051086 -1.13470459 78.22769165 C-1.13912417 75.3809408 -1.13618475 72.53425153 -1.1328125 69.6875 C-1.13348551 67.71834298 -1.13445551 65.74918603 -1.13571167 63.7800293 C-1.13718879 59.64729015 -1.13503364 55.51457258 -1.13037109 51.38183594 C-1.1246738 46.07175479 -1.12795273 40.76172419 -1.13394356 35.4516449 C-1.1375488 31.38374447 -1.13641076 27.31585611 -1.13381577 23.24795532 C-1.13314639 21.28943882 -1.13397527 19.33092124 -1.13629532 17.37240601 C-1.13882124 14.640168 -1.13498211 11.90801303 -1.12939453 9.17578125 C-1.13141876 8.35808258 -1.13344299 7.54038391 -1.13552856 6.69790649 C-1.11426246 1.11426246 -1.11426246 1.11426246 0 0 Z " fill="#FEFEFE" transform="translate(143,65)"/>
<path d="M0 0 C0.66 0 1.32 0 2 0 C2.83986084 1.93467942 3.67168027 3.87285129 4.5 5.8125 C4.9640625 6.89144531 5.428125 7.97039063 5.90625 9.08203125 C7 12 7 12 7 15 C7.68707031 15.13277344 8.37414062 15.26554687 9.08203125 15.40234375 C9.98308594 15.57894531 10.88414062 15.75554688 11.8125 15.9375 C12.70582031 16.11152344 13.59914063 16.28554688 14.51953125 16.46484375 C17 17 17 17 20 18 C20 18.66 20 19.32 20 20 C18.2097939 20.67057887 16.41778511 21.3363469 14.625 22 C13.62726563 22.37125 12.62953125 22.7425 11.6015625 23.125 C9 24 9 24 7 24 C6.80664062 24.67546875 6.61328125 25.3509375 6.4140625 26.046875 C6.02347656 27.38492188 6.02347656 27.38492188 5.625 28.75 C5.24214844 30.07257812 5.24214844 30.07257812 4.8515625 31.421875 C4.0790066 33.76080572 3.16374324 35.83442562 2 38 C-1 37 -1 37 -2.16796875 34.8203125 C-2.50441406 33.93085937 -2.84085938 33.04140625 -3.1875 32.125 C-3.53167969 31.24070312 -3.87585938 30.35640625 -4.23046875 29.4453125 C-5 27 -5 27 -5 24 C-5.77085937 23.79503906 -6.54171875 23.59007813 -7.3359375 23.37890625 C-8.33882812 23.10949219 -9.34171875 22.84007813 -10.375 22.5625 C-11.37273437 22.29566406 -12.37046875 22.02882813 -13.3984375 21.75390625 C-16 21 -16 21 -18 20 C-18 19.34 -18 18.68 -18 18 C-17.19175781 17.86207031 -16.38351563 17.72414063 -15.55078125 17.58203125 C-11.97878224 16.73319675 -9.18117882 15.85568764 -6 14 C-3.51613578 9.86022631 -2.27260697 5.63177259 -1 1 C-0.67 0.67 -0.34 0.34 0 0 Z " fill="#FEFEFE" transform="translate(243,31)"/>
<path d="M0 0 C0.99 0.33 1.98 0.66 3 1 C3.7168954 3.08102836 4.34998484 5.19131071 4.9375 7.3125 C6.7623722 12.49294253 6.7623722 12.49294253 10.9921875 15.75 C13.99075958 16.70954306 16.89809137 17.47064717 20 18 C20 18.66 20 19.32 20 20 C18.2097939 20.67057887 16.41778511 21.3363469 14.625 22 C13.62726562 22.37125 12.62953125 22.7425 11.6015625 23.125 C9 24 9 24 7 24 C6.9175 24.825 6.835 25.65 6.75 26.5 C5.83552731 30.76753921 4.07776822 34.19236894 2 38 C1.34 38 0.68 38 0 38 C-0.83764268 36.04350603 -1.66999059 34.08474444 -2.5 32.125 C-2.9640625 31.03445312 -3.428125 29.94390625 -3.90625 28.8203125 C-5 26 -5 26 -5 24 C-5.77085938 23.79503906 -6.54171875 23.59007813 -7.3359375 23.37890625 C-8.33882812 23.10949219 -9.34171875 22.84007813 -10.375 22.5625 C-11.37273438 22.29566406 -12.37046875 22.02882813 -13.3984375 21.75390625 C-16 21 -16 21 -18 20 C-18 19.34 -18 18.68 -18 18 C-17.19175781 17.86207031 -16.38351563 17.72414063 -15.55078125 17.58203125 C-11.97878224 16.73319675 -9.18117882 15.85568764 -6 14 C-3.51613578 9.86022631 -2.27260697 5.63177259 -1 1 C-0.67 0.67 -0.34 0.34 0 0 Z " fill="#FEFEFE" transform="translate(46,31)"/>
<path d="M0 0 C1.32 0 2.64 0 4 0 C4.06945033 10.24846497 4.12278596 20.49687413 4.15543652 30.74552631 C4.1711056 35.50418205 4.19236649 40.26267703 4.22631836 45.02124023 C4.25886758 49.61183952 4.27684365 54.20228398 4.28463173 58.79298973 C4.29018323 60.5461286 4.30102375 62.29925881 4.31719017 64.05233192 C4.33890575 66.50423246 4.34196943 68.95548978 4.34057617 71.4074707 C4.35675491 72.49935448 4.35675491 72.49935448 4.3732605 73.61329651 C4.35506507 76.56428754 4.33732725 78.52297465 2.60371399 80.97453308 C1 82 1 82 -1 82 C-1.02312343 71.45618688 -1.04091509 60.91237975 -1.05181217 50.36854649 C-1.057041 45.47314626 -1.06413864 40.57776332 -1.07543945 35.68237305 C-1.08626834 30.96212022 -1.09227684 26.24188408 -1.09487724 21.5216198 C-1.09673149 19.71661046 -1.10035209 17.91160208 -1.10573006 16.10659981 C-1.11294052 13.58740356 -1.11399094 11.0682771 -1.11352539 8.54907227 C-1.11712067 7.79525772 -1.12071594 7.04144318 -1.12442017 6.26478577 C-1.11405216 1.11405216 -1.11405216 1.11405216 0 0 Z " fill="#FEFEFE" transform="translate(158,65)"/>
<path d="M0 0 C1.98 0.495 1.98 0.495 4 1 C4 27.73 4 54.46 4 82 C0 80 0 80 -1 79 C-1.10029857 76.57142965 -1.13618425 74.17128387 -1.12939453 71.7421875 C-1.13114685 70.98286926 -1.13289917 70.22355103 -1.13470459 69.44122314 C-1.1391233 66.91912584 -1.13618506 64.39709807 -1.1328125 61.875 C-1.13348553 60.13004544 -1.13445555 58.38509096 -1.13571167 56.64013672 C-1.13718867 52.97818105 -1.13503403 49.31624972 -1.13037109 45.65429688 C-1.1246738 40.94955508 -1.1279528 36.24487032 -1.13394356 31.54013062 C-1.13754912 27.93546109 -1.13641061 24.33080518 -1.13381577 20.72613525 C-1.13314648 18.99090569 -1.13397496 17.25567491 -1.13629532 15.52044678 C-1.13882177 13.09953513 -1.13498138 10.67871714 -1.12939453 8.2578125 C-1.13141876 7.53362122 -1.13344299 6.80942993 -1.13552856 6.06329346 C-1.11426266 1.11426266 -1.11426266 1.11426266 0 0 Z " fill="#FEFEFE" transform="translate(129,65)"/>
<path d="M0 0 C1.98 0 3.96 0 6 0 C6.06952485 8.40583263 6.12282366 16.81154502 6.15543652 25.21759415 C6.17108945 29.12091481 6.19232061 33.02403869 6.22631836 36.92724609 C6.25892557 40.69440392 6.27685582 44.46137252 6.28463173 48.22866058 C6.29017284 49.66558562 6.30099336 51.10250035 6.31719017 52.53934479 C6.33897989 54.55249422 6.34022554 56.56583424 6.34057617 58.57910156 C6.34723801 59.72493713 6.35389984 60.87077271 6.36076355 62.05133057 C5.96551861 65.2818306 5.18227301 66.64066177 3 69 C2.01 68.67 1.02 68.34 0 68 C0 45.56 0 23.12 0 0 Z " fill="#FEFEFE" transform="translate(171,66)"/>
<path d="M0 0 C0.66 0 1.32 0 2 0 C2.67305018 1.60149886 3.33822227 3.20631029 4 4.8125 C4.37125 5.70582031 4.7425 6.59914062 5.125 7.51953125 C6 10 6 10 6 13 C6.763125 13.144375 7.52625 13.28875 8.3125 13.4375 C11 14 11 14 14 15 C14 15.99 14 16.98 14 18 C12.948125 18.2475 11.89625 18.495 10.8125 18.75 C7.78734685 19.98588574 7.02946673 20.94639098 5.421875 23.87109375 C4.18482886 26.88905978 3.03994209 29.90892789 2 33 C-1 32 -1 32 -2.6875 28.6875 C-4 25 -4 25 -4 21 C-7.3 20.01 -10.6 19.02 -14 18 C-13.505 16.515 -13.505 16.515 -13 15 C-11.15234375 14.26953125 -11.15234375 14.26953125 -8.9375 13.8125 C-8.20402344 13.65394531 -7.47054688 13.49539062 -6.71484375 13.33203125 C-6.14894531 13.22246094 -5.58304688 13.11289063 -5 13 C-4.731875 11.783125 -4.46375 10.56625 -4.1875 9.3125 C-3.3042542 5.78578094 -2.20858278 2.94477704 0 0 Z " fill="#FEFEFE" transform="translate(36,167)"/>
<path d="M0 0 C1.65 0 3.3 0 5 0 C5.75948079 23.00863199 6.14862792 45.97867855 6 69 C4.125 68.6875 4.125 68.6875 2 68 C-0.3770264 64.4344604 -0.24340923 62.92128639 -0.22705078 58.69262695 C-0.22689972 57.39150467 -0.22674866 56.09038239 -0.22659302 54.74983215 C-0.21637969 53.32931363 -0.2059477 51.90879667 -0.1953125 50.48828125 C-0.19158183 49.03525487 -0.18873511 47.58222597 -0.18673706 46.12919617 C-0.17910481 42.30688518 -0.15945992 38.48472646 -0.1373291 34.66247559 C-0.11686183 30.7613328 -0.10773346 26.86016539 -0.09765625 22.95898438 C-0.07621357 15.30592021 -0.04208264 7.65298145 0 0 Z " fill="#FEFEFE" transform="translate(113,66)"/>
<path d="M0 0 C3 1 3 1 3.94921875 2.70703125 C4.31466797 3.74923828 4.31466797 3.74923828 4.6875 4.8125 C4.93886719 5.49957031 5.19023437 6.18664062 5.44921875 6.89453125 C6 9 6 9 6 13 C6.7425 13.12375 7.485 13.2475 8.25 13.375 C10.80141485 13.95486701 12.7267573 14.73708739 15 16 C15 16.66 15 17.32 15 18 C13.7625 18.28875 12.525 18.5775 11.25 18.875 C8.29131577 19.9485049 7.23064488 20.60822855 5.61328125 23.35546875 C4.63278262 25.88143733 3.78689336 28.40814221 3 31 C2.67 31.66 2.34 32.32 2 33 C1.01 32.67 0.02 32.34 -1 32 C-1.88671875 29.6015625 -1.88671875 29.6015625 -2.6875 26.625 C-3.98624723 22.47930568 -3.98624723 22.47930568 -7.03515625 19.60546875 C-9.46888264 18.67996696 -9.46888264 18.67996696 -13 18 C-12.505 16.515 -12.505 16.515 -12 15 C-9.10441559 13.5522078 -7.25811062 13 -4 13 C-3.8453125 11.453125 -3.8453125 11.453125 -3.6875 9.875 C-3.00872203 6.04916055 -1.88841205 3.36629975 0 0 Z " fill="#FEFEFE" transform="translate(253,167)"/>
<path d="M0 0 C0.66 0 1.32 0 2 0 C2.14695313 0.93972656 2.14695313 0.93972656 2.296875 1.8984375 C2.44640625 2.71570313 2.5959375 3.53296875 2.75 4.375 C2.88921875 5.18710938 3.0284375 5.99921875 3.171875 6.8359375 C3.81749261 9.17709092 3.81749261 9.17709092 6.078125 10.2890625 C6.71234375 10.52367188 7.3465625 10.75828125 8 11 C8 11.66 8 12.32 8 13 C6.9275 13.20625 5.855 13.4125 4.75 13.625 C0.2458174 15.27653362 -0.60395838 16.97807299 -3 21 C-3.99 21.33 -4.98 21.66 -6 22 C-6.02578125 21.38511719 -6.0515625 20.77023438 -6.078125 20.13671875 C-6.24965109 15.03484954 -6.24965109 15.03484954 -9.0625 11.0625 C-9.701875 10.711875 -10.34125 10.36125 -11 10 C-11 9.34 -11 8.68 -11 8 C-7.535 7.505 -7.535 7.505 -4 7 C-3.71125 6.21625 -3.4225 5.4325 -3.125 4.625 C-2 2 -2 2 0 0 Z " fill="#FEFEFE" transform="translate(236,75)"/>
<path d="M0 0 C0.66 0 1.32 0 2 0 C2.5775 0.94875 3.155 1.8975 3.75 2.875 C6.30917613 6.4294113 7.81779089 7.04949793 12 8 C11 11 11 11 8 13 C7.42006301 15.19454681 7.42006301 15.19454681 7.3125 17.625 C7.24675781 18.44226563 7.18101563 19.25953125 7.11328125 20.1015625 C7.07589844 20.72804688 7.03851563 21.35453125 7 22 C3.171875 20.3125 3.171875 20.3125 1.625 17.5 C-0.47554224 14.26839655 -2.34013513 13.89463364 -6 13 C-5.67 12.01 -5.34 11.02 -5 10 C-2.9375 9.3125 -2.9375 9.3125 -1 9 C-1.020625 7.700625 -1.04125 6.40125 -1.0625 5.0625 C-1.08399454 3.70834367 -1.07148199 2.35243917 -1 1 C-0.67 0.67 -0.34 0.34 0 0 Z " fill="#FEFEFE" transform="translate(53,75)"/>
<path d="M0 0 C2.5625 0.1875 2.5625 0.1875 4.5625 2.1875 C4.1875 4.625 4.1875 4.625 3.5625 7.1875 C3.5625 8.1775 3.5625 9.1675 3.5625 10.1875 C3.2562566 11.52731486 2.92798445 12.86261887 2.5625 14.1875 C1.2425 14.1875 -0.0775 14.1875 -1.4375 14.1875 C-1.581875 13.053125 -1.72625 11.91875 -1.875 10.75 C-2.04921478 7.37972799 -2.04921478 7.37972799 -3.4375 6.1875 C-3.5625 3.6875 -3.5625 3.6875 -3.4375 1.1875 C-2.4375 0.1875 -2.4375 0.1875 0 0 Z " fill="#FEFEFE" transform="translate(129.4375,34.8125)"/>
<path d="M0 0 C1.32 0.66 2.64 1.32 4 2 C4 3.65 4 5.3 4 7 C3.01 7.33 2.02 7.66 1 8 C1.33 10.31 1.66 12.62 2 15 C0.35 15 -1.3 15 -3 15 C-3 12.33333333 -3 9.66666667 -3 7 C-3.3062434 5.66018514 -3.63451555 4.32488113 -4 3 C-2.68 2.01 -1.36 1.02 0 0 Z " fill="#FEFEFE" transform="translate(160,34)"/>
<path d="M0 0 C2.125 0.9375 2.125 0.9375 4 2 C3.67 3.65 3.34 5.3 3 7 C1.125 7.625 1.125 7.625 -1 8 C-1.66 7.34 -2.32 6.68 -3 6 C-2.75 3.4375 -2.75 3.4375 -2 1 C-1.34 0.67 -0.68 0.34 0 0 Z " fill="#FEFEFE" transform="translate(173,39)"/>
<path d="M0 0 C1.2065625 0.0309375 1.2065625 0.0309375 2.4375 0.0625 C3.0625 2.4375 3.0625 2.4375 3.4375 5.0625 C2.7775 5.7225 2.1175 6.3825 1.4375 7.0625 C-0.6875 6.6875 -0.6875 6.6875 -2.5625 6.0625 C-2.94468767 4.40635343 -3.27645102 2.73792976 -3.5625 1.0625 C-2.5625 0.0625 -2.5625 0.0625 0 0 Z " fill="#FEFEFE" transform="translate(116.5625,39.9375)"/>
<path d="M0 0 C2.125 0.375 2.125 0.375 4 1 C4.33 2.65 4.66 4.3 5 6 C3.02 6.33 1.04 6.66 -1 7 C-1.625 4.625 -1.625 4.625 -2 2 C-1.34 1.34 -0.68 0.68 0 0 Z " fill="#FEFEFE" transform="translate(169,18)"/>
<path d="M0 0 C0 1.65 0 3.3 0 5 C-2.375 5.625 -2.375 5.625 -5 6 C-5.66 5.34 -6.32 4.68 -7 4 C-6.75 1.9375 -6.75 1.9375 -6 0 C-3.50907189 -1.24546405 -2.58919267 -0.7767578 0 0 Z " fill="#FEFEFE" transform="translate(123,19)"/>
<path d="M0 0 C1.98 0.495 1.98 0.495 4 1 C3.67 1.99 3.34 2.98 3 4 C1.68 3.67 0.36 3.34 -1 3 C-0.67 2.01 -0.34 1.02 0 0 Z " fill="#FEFEFE" transform="translate(220,61)"/>
<path d="M0 0 C0.99 0.33 1.98 0.66 3 1 C3 1.99 3 2.98 3 4 C1.68 3.67 0.36 3.34 -1 3 C-0.67 2.01 -0.34 1.02 0 0 Z " fill="#FEFEFE" transform="translate(68,61)"/>
<path d="M0 0 C0.99 0.33 1.98 0.66 3 1 C3 1.99 3 2.98 3 4 C2.01 4 1.02 4 0 4 C0 2.68 0 1.36 0 0 Z " fill="#FEFEFE" transform="translate(245,99)"/>
</svg>
