<?xml version="1.0" encoding="UTF-8"?>
<!-- Generator: visioncortex VTracer 0.6.4 -->
<svg version="1.1" xmlns="http://www.w3.org/2000/svg" width="290" height="280">
<path d="M0 0 C0.08725659 4.2290362 0.1404789 8.45784012 0.1875 12.6875 C0.21263672 13.88568359 0.23777344 15.08386719 0.26367188 16.31835938 C0.27333984 17.47529297 0.28300781 18.63222656 0.29296875 19.82421875 C0.3086792 20.88729248 0.32438965 21.95036621 0.34057617 23.0456543 C-0.050638 26.43926196 -1.0918143 28.20070842 -3 31 C-3.67372394 32.27413133 -4.33246801 33.55634931 -4.97265625 34.84765625 C-5.31490234 35.53537109 -5.65714844 36.22308594 -6.00976562 36.93164062 C-6.35716797 37.63482422 -6.70457031 38.33800781 -7.0625 39.0625 C-7.41376953 39.76955078 -7.76503906 40.47660156 -8.12695312 41.20507812 C-8.46791016 41.89150391 -8.80886719 42.57792969 -9.16015625 43.28515625 C-9.48717529 43.93508545 -9.81419434 44.58501465 -10.15112305 45.25463867 C-11.07149601 47.09080496 -11.07149601 47.09080496 -11.9609375 49.4296875 C-13 51 -13 51 -15.00390625 51.72265625 C-15.84824219 51.83480469 -16.69257813 51.94695312 -17.5625 52.0625 C-18.52929688 52.20558594 -19.49609375 52.34867188 -20.4921875 52.49609375 C-22.22855469 52.74552734 -22.22855469 52.74552734 -24 53 C-27.06596064 53.5224353 -30.12639699 54.0749156 -33.1875 54.625 C-34.6808758 54.88866608 -36.17435679 55.15173749 -37.66796875 55.4140625 C-38.76753906 55.60742188 -39.86710937 55.80078125 -41 56 C-39.93072266 57.051875 -39.93072266 57.051875 -38.83984375 58.125 C-33.80251148 63.10686087 -28.88483668 68.09396095 -24.33984375 73.5390625 C-23.04360987 75.12690811 -23.04360987 75.12690811 -21 76 C-21.26554687 77.11117187 -21.53109375 78.22234375 -21.8046875 79.3671875 C-22.16155078 80.86976971 -22.51831632 82.37237514 -22.875 83.875 C-23.04902344 84.60203125 -23.22304687 85.3290625 -23.40234375 86.078125 C-24.73252211 91.69443365 -25.89891672 97.33453382 -27 103 C-26.28344238 102.66677734 -25.56688477 102.33355469 -24.82861328 101.99023438 C-21.59587992 100.48956607 -18.36048978 98.99471548 -15.125 97.5 C-13.99707031 96.97535156 -12.86914062 96.45070313 -11.70703125 95.91015625 C-10.09248047 95.16572266 -10.09248047 95.16572266 -8.4453125 94.40625 C-7.45031738 93.94541016 -6.45532227 93.48457031 -5.43017578 93.00976562 C-3 92 -3 92 -1 92 C0.16035505 95.48106514 0.12002704 98.1847233 0.11352539 101.8581543 C0.11367142 102.55109589 0.11381744 103.24403748 0.1139679 103.95797729 C0.11327163 106.24675637 0.1054926 108.5354539 0.09765625 110.82421875 C0.09579106 112.41176814 0.09436763 113.99931811 0.09336853 115.58686829 C0.08955134 119.7642272 0.07972786 123.94155131 0.06866455 128.11889648 C0.05843328 132.38199391 0.05386723 136.64509696 0.04882812 140.90820312 C0.03810489 149.27215138 0.02103803 157.63607136 0 166 C-20.60683877 161.67779123 -45.38731757 130.29300469 -57 114 C-58.73890831 111.30038788 -60.39840956 108.58894492 -61.9765625 105.79296875 C-62.87354131 104.03860195 -62.87354131 104.03860195 -64 103 C-65.36013328 93.31674661 -65.31145671 83.38827617 -65.5625 73.625 C-65.60680886 72.02604046 -65.65116143 70.42708214 -65.69555664 68.828125 C-65.95760287 58.99886285 -66.10590093 49.17850253 -65.87524414 39.34619141 C-65.72421246 35.03599558 -65.72421246 35.03599558 -67.01000977 31.00390625 C-68 29 -68 29 -68 25 C-66.96504395 24.61013916 -66.96504395 24.61013916 -65.90917969 24.21240234 C-62.52206436 22.9351753 -59.13589201 21.65546528 -55.75 20.375 C-55.12039368 20.13711761 -54.49078735 19.89923523 -53.84210205 19.65414429 C-45.59637674 16.53647925 -37.37002239 13.37330152 -29.1640625 10.15234375 C-28.34768311 9.83243469 -27.53130371 9.51252563 -26.69018555 9.18292236 C-22.65652564 7.60196079 -18.62506385 6.01574307 -14.59667969 4.42138672 C-13.11401713 3.8393021 -11.63127368 3.25742344 -10.1484375 2.67578125 C-9.46842682 2.40442856 -8.78841614 2.13307587 -8.08779907 1.85350037 C-5.22707298 0.73656047 -3.10218844 0 0 0 Z " fill="#FEFEFE" transform="translate(146,71)"/>
<path d="M0 0 C6.68064359 5.01048269 6.68064359 5.01048269 7.70361328 9.78173828 C7.74212402 11.03196777 7.78063477 12.28219727 7.8203125 13.5703125 C7.84942719 14.26818878 7.87854187 14.96606506 7.90853882 15.68508911 C7.9694194 17.20183131 8.01960845 18.71903222 8.06030273 20.2364502 C8.14880321 23.50378743 8.29084553 26.76816924 8.42974854 30.03369141 C8.50341883 31.7747949 8.57444945 33.51601185 8.64300537 35.25732422 C9.02610753 44.81906908 9.6423933 54.36263348 10.30462646 63.90863037 C10.49677856 66.70314976 10.67865124 69.49820994 10.85986328 72.29345703 C10.97886973 74.03422235 11.09847 75.77494721 11.21875 77.515625 C11.29215103 78.68075119 11.29215103 78.68075119 11.36703491 79.86941528 C13.04631005 103.14207787 30.9103532 120.98618422 47.6875 135.8125 C49.12433032 137.04244942 50.56193112 138.27149895 52 139.5 C53.01767055 140.39238203 54.03453222 141.28568697 55.05078125 142.1796875 C61.41297684 147.75005736 67.90308556 153.16311741 74.5625 158.375 C75.22894531 158.91729248 75.89539063 159.45958496 76.58203125 160.01831055 C80.14081807 162.89212866 80.14081807 162.89212866 84.48828125 163.19921875 C88.03702461 160.79843592 91.34187342 158.18818553 94.625 155.4375 C96.06376653 154.24735285 97.50256868 153.05724877 98.94140625 151.8671875 C99.6389502 151.28678711 100.33649414 150.70638672 101.05517578 150.10839844 C103.5316691 148.06030178 106.04940653 146.0654166 108.5625 144.0625 C139.20682192 118.99545514 139.20682192 118.99545514 154.44833374 83.89373779 C154.80683612 79.63940519 155.09290149 75.38627813 155.3515625 71.125 C155.45592185 69.54892044 155.56135985 67.97291197 155.66781616 66.39697266 C155.94382049 62.27185033 156.20629956 58.14598239 156.46551514 54.01977539 C156.78185204 49.02182188 157.11342374 44.02486095 157.44353294 39.02780151 C157.70040229 35.13679334 157.95486144 31.24568636 158.20132446 27.35400391 C158.45240877 23.40158652 158.72508664 19.45083472 159 15.5 C159.0600824 14.47374512 159.12016479 13.44749023 159.18206787 12.39013672 C159.24621887 11.50342285 159.31036987 10.61670898 159.37646484 9.703125 C159.44769058 8.59565918 159.44769058 8.59565918 159.52035522 7.46582031 C160.43619322 3.71226553 163.0786613 1.86193342 166 -0.5 C168.9719385 0.62451727 171.33440687 1.72293791 174 3.5 C173.30531982 14.62010715 172.59348883 25.73897501 171.86034012 36.85661602 C171.520357 42.0202164 171.18607322 47.18404888 170.86523438 52.34887695 C170.55481481 57.34247206 170.22887625 62.33484304 169.89260101 67.32676125 C169.76758708 69.22197327 169.64796818 71.1175499 169.53409576 73.01346397 C167.44938875 107.5148002 147.63156083 128.00145373 122.80078125 150.49194336 C111.97360393 160.01226227 100.42208368 168.71080826 89 177.5 C88.30422852 178.0571167 87.60845703 178.6142334 86.89160156 179.18823242 C85 180.5 85 180.5 82.7578125 180.5625 C78.56992368 178.94903575 75.36938004 176.27572453 71.875 173.5 C70.74167236 172.61477661 70.74167236 172.61477661 69.58544922 171.71166992 C67.38197958 169.98467063 65.18940437 168.24477889 63 166.5 C62.44376953 166.05994629 61.88753906 165.61989258 61.31445312 165.16650391 C55.16527041 160.29200394 49.31373856 155.13918728 43.54296875 149.82421875 C41.43648833 147.89894094 39.2998352 146.03405819 37.125 144.1875 C20.8328394 129.96949537 -0.63538045 109.94855438 -2.35717773 87.29345703 C-2.46939631 85.61513359 -2.57797037 83.93656391 -2.68359375 82.2578125 C-2.74343445 81.34937592 -2.80327515 80.44093933 -2.8649292 79.50497437 C-3.05908674 76.54518747 -3.24845812 73.58511769 -3.4375 70.625 C-3.56982911 68.58396885 -3.70239888 66.54295329 -3.83520508 64.50195312 C-4.10064467 60.41708889 -4.36426093 56.33211205 -4.62695312 52.24707031 C-4.95324128 47.19253583 -5.29397543 42.13910966 -5.640625 37.0859375 C-5.73527681 35.68865079 -5.82976517 34.29135299 -5.92407227 32.89404297 C-6.09345054 30.39025852 -6.26558574 27.88665823 -6.44116211 25.38330078 C-6.65993803 22.08965162 -6.83862975 18.79691829 -7 15.5 C-7.07428223 14.30632812 -7.14856445 13.11265625 -7.22509766 11.8828125 C-7.27069824 10.71492188 -7.31629883 9.54703125 -7.36328125 8.34375 C-7.41395752 7.29380859 -7.46463379 6.24386719 -7.5168457 5.16210938 C-7 2.5 -7 2.5 -4.60229492 0.60351562 C-2 -0.5 -2 -0.5 0 0 Z " fill="#FEFEFE" transform="translate(62,83.5)"/>
<path d="M0 0 C3.48654476 1.4841373 5.64191072 3.46214052 8.25 6.1875 C12.86816499 10.99949308 17.82603715 15.37633272 22.96435547 19.6237793 C35.82771076 30.35734303 41.34091676 42.13972642 46.84667969 57.76855469 C48.49895168 62.39799416 50.34975524 66.94193748 52.1875 71.5 C55 78.51844828 55 78.51844828 55 82 C47.91254914 80.63058503 41.50005988 78.44342241 34.8125 75.75 C33.29619995 75.14393921 33.29619995 75.14393921 31.74926758 74.52563477 C29.74194631 73.72055596 27.73595945 72.91214053 25.73144531 72.10009766 C23.40884391 71.16466309 21.07920436 70.25401341 18.7421875 69.35546875 C17.56914062 68.88753906 16.39609375 68.41960937 15.1875 67.9375 C14.21167969 67.55464844 13.23585937 67.17179687 12.23046875 66.77734375 C2.59582064 61.47653977 -4.98512744 53.27426129 -12.625 45.5 C-13.63884608 44.47609013 -14.65316662 43.45264983 -15.66796875 42.4296875 C-18.11745121 39.95849294 -20.56052677 37.48108062 -23 35 C-21.1144852 30.71640327 -18.64034299 28.84896408 -15 26 C-13.67548828 27.25103516 -13.67548828 27.25103516 -12.32421875 28.52734375 C-5.09561944 35.31888849 2.22067389 41.83978566 10 48 C12.475 49.98 12.475 49.98 15 52 C18.96 53.65 22.92 55.3 27 57 C13.8 43.8 0.6 30.6 -13 17 C-11.0097928 13.0195856 -8.95889297 10.60071739 -5.9375 7.375 C-2.58466353 3.95790247 -2.58466353 3.95790247 0 0 Z " fill="#FEFEFE" transform="translate(225,198)"/>
<path d="M0 0 C3.71544736 1.23848245 4.58495969 2.72845963 6.9375 5.8125 C9.45993095 9.10283864 12.00687375 12.12740232 15 15 C13.56741228 18.27196452 11.81174684 20.43203956 9.28466797 22.94238281 C8.52403046 23.70286926 7.76339294 24.46335571 6.97970581 25.24688721 C6.15882477 26.05744568 5.33794373 26.86800415 4.4921875 27.703125 C3.65156769 28.54091492 2.81094788 29.37870483 1.94485474 30.24188232 C-0.74044001 32.91598431 -3.43260655 35.58304724 -6.125 38.25 C-7.94707155 40.06204062 -9.76869177 41.87453518 -11.58984375 43.6875 C-16.05467252 48.13028036 -20.52516283 52.56730165 -25 57 C-23.0754247 56.22773454 -21.15378141 55.4481596 -19.23339844 54.66552734 C-18.16297302 54.23219086 -17.09254761 53.79885437 -15.98968506 53.35238647 C-12.15988729 51.61997433 -9.30016131 49.46980391 -6.25 46.625 C-5.70762695 46.14385742 -5.16525391 45.66271484 -4.60644531 45.16699219 C-3.0586905 43.79090249 -1.52855733 42.39732817 0 41 C4.20505561 37.27017328 8.43150752 33.58557742 12.8125 30.0625 C13.54082031 29.47597656 14.26914063 28.88945312 15.01953125 28.28515625 C17 27 17 27 20 27 C20 27.66 20 28.32 20 29 C21.485 29.495 21.485 29.495 23 30 C23 30.66 23 31.32 23 32 C23.66 32 24.32 32 25 32 C24.46416884 36.05625936 22.43776033 37.93584654 19.59765625 40.765625 C18.70755859 41.65507812 17.81746094 42.54453125 16.90039062 43.4609375 C15.96388672 44.38132813 15.02738281 45.30171875 14.0625 46.25 C13.11986651 47.19473794 12.17780257 48.14004452 11.23632812 49.0859375 C4.26683218 56 4.26683218 56 2 56 C1.74065674 56.60303955 1.48131348 57.2060791 1.21411133 57.82739258 C-3.53008641 66.31695938 -17.03817436 69.50607019 -25.5847168 72.80639648 C-28.19639248 73.81593738 -30.80058596 74.84316066 -33.40429688 75.87304688 C-35.07511178 76.52708761 -36.7463225 77.18011828 -38.41796875 77.83203125 C-39.57597237 78.28821587 -39.57597237 78.28821587 -40.75737 78.75361633 C-44.83378388 80.31926982 -48.63418679 81.46481905 -53 82 C-52.05571659 76.8493632 -50.7997534 72.28017503 -48.72265625 67.46875 C-46.91843783 63.22100008 -45.19906494 58.95872832 -43.5703125 54.640625 C-43.16683594 53.58746094 -42.76335938 52.53429687 -42.34765625 51.44921875 C-41.5283244 49.30534402 -40.7211317 47.15679296 -39.92578125 45.00390625 C-37.2505757 38.09932812 -34.24786704 33.19626169 -29 28 C-28.30165039 27.27828613 -27.60330078 26.55657227 -26.88378906 25.81298828 C-24.6319122 23.49831204 -22.35176092 21.21516972 -20.0625 18.9375 C-19.30259766 18.17373047 -18.54269531 17.40996094 -17.75976562 16.62304688 C-13.54679991 12.41727666 -9.25272048 8.37505336 -4.72436523 4.51000977 C-3.07717833 3.06758431 -1.52915468 1.56608654 0 0 Z " fill="#FEFEFE" transform="translate(63,198)"/>
<path d="M0 0 C0.66 0 1.32 0 2 0 C2.40992188 1.09699219 2.81984375 2.19398437 3.2421875 3.32421875 C3.78642886 4.77865686 4.33070133 6.23308333 4.875 7.6875 C5.14441406 8.40873047 5.41382813 9.12996094 5.69140625 9.87304688 C7.08668603 13.59946483 8.50202917 17.31324655 10 21 C21.49429794 22.54399986 21.49429794 22.54399986 33 24 C31.88559348 27.34321955 31.02527657 28.06019619 28.375 30.25 C24.28560105 33.64436276 20.82688005 37.17311995 17 41 C18.98 48.26 20.96 55.52 23 63 C19.74938554 62.18734639 18.02893736 61.58558981 15.28515625 59.93359375 C14.59873047 59.53076172 13.91230469 59.12792969 13.20507812 58.71289062 C11.77785267 57.86332069 10.35335422 57.00915255 8.93164062 56.15039062 C3.80374644 53.0100061 3.80374644 53.0100061 -2 53 C-4.81883666 54.32436884 -7.46380435 55.88583214 -10.125 57.5 C-11.5408358 58.34950148 -12.9599855 59.19351074 -14.3828125 60.03125 C-15.31697998 60.59682617 -15.31697998 60.59682617 -16.27001953 61.17382812 C-18 62 -18 62 -21 62 C-20.80664062 61.24976563 -20.61328125 60.49953125 -20.4140625 59.7265625 C-19.87073792 57.59092036 -19.34297507 55.4512786 -18.828125 53.30859375 C-18.31629338 51.26368157 -17.75306946 49.22996661 -17.109375 47.22265625 C-16.37345815 44.68217732 -15.89400648 42.64522966 -16 40 C-17.77118893 36.95133333 -20.20120737 35.09172923 -23 33 C-23.81726563 32.36835938 -24.63453125 31.73671875 -25.4765625 31.0859375 C-27.06115831 29.86353502 -28.66057077 28.65998426 -30.27734375 27.48046875 C-30.84582031 26.99191406 -31.41429688 26.50335938 -32 26 C-32 25.34 -32 24.68 -32 24 C-31.44538086 23.94465088 -30.89076172 23.88930176 -30.31933594 23.83227539 C-27.7959083 23.57871893 -25.27296117 23.32065495 -22.75 23.0625 C-21.87730469 22.97548828 -21.00460938 22.88847656 -20.10546875 22.79882812 C-19.26113281 22.71181641 -18.41679688 22.62480469 -17.546875 22.53515625 C-16.77182617 22.456604 -15.99677734 22.37805176 -15.19824219 22.29711914 C-14.47282227 22.19906982 -13.74740234 22.10102051 -13 22 C-12.289646 21.91548584 -11.57929199 21.83097168 -10.84741211 21.74389648 C-8.8225014 21.14303592 -8.8225014 21.14303592 -7.82739258 19.06640625 C-7.51954834 18.24011719 -7.2117041 17.41382812 -6.89453125 16.5625 C-6.55099609 15.66789062 -6.20746094 14.77328125 -5.85351562 13.8515625 C-5.50998047 12.91054687 -5.16644531 11.96953125 -4.8125 11 C-4.11248474 9.14515012 -3.41075343 7.29094666 -2.70703125 5.4375 C-2.4025708 4.61121094 -2.09811035 3.78492187 -1.78442383 2.93359375 C-1 1 -1 1 0 0 Z " fill="#FEFEFE" transform="translate(145,105)"/>
<path d="M0 0 C4.33191182 1.46520547 7.42323348 3.67435445 11 6.5 C12.15210067 7.40525736 13.30445164 8.31019625 14.45703125 9.21484375 C15.33609131 9.90876221 15.33609131 9.90876221 16.23291016 10.61669922 C17.93788698 11.95137712 19.65774821 13.26301298 21.38671875 14.56640625 C32.1175313 22.66232935 41.64803226 31.61653056 51.08129883 41.17041016 C56.10148819 46.21158944 61.24728081 50.79608982 67 55 C65.55424099 58.33865998 63.73285462 60.48071403 61.125 63 C60.44695312 63.66 59.76890625 64.32 59.0703125 65 C58.38710938 65.66 57.70390625 66.32 57 67 C56.31679688 67.7425 55.63359375 68.485 54.9296875 69.25 C53 71 53 71 50 71 C49.59910156 70.11699219 49.19820312 69.23398438 48.78515625 68.32421875 C44.84025937 59.89363996 40.33263223 52.90832607 34 46 C32.87658203 44.75476563 32.87658203 44.75476563 31.73046875 43.484375 C19.09874213 30.16135986 4.08786168 21.42685063 -13 15 C-11.38989473 10.92623969 -8.46177729 8.23492931 -5.375 5.25 C-4.859375 4.74339844 -4.34375 4.23679687 -3.8125 3.71484375 C-2.54616661 2.47196098 -1.2736856 1.23534724 0 0 Z " fill="#FEFEFE" transform="translate(202,31)"/>
<path d="M0 0 C4.00939243 1.61330314 6.75673781 4.42459698 9.75 7.4375 C10.25660156 7.92798828 10.76320313 8.41847656 11.28515625 8.92382812 C12.5859308 10.22284961 13.79988368 11.60745123 15 13 C15 13.99 15 14.98 15 16 C13.7625 16.36738281 13.7625 16.36738281 12.5 16.7421875 C-3.21225322 21.8276266 -15.88152728 30.95834502 -28 42 C-28.69738281 42.62648437 -29.39476562 43.25296875 -30.11328125 43.8984375 C-38.21002491 51.54635945 -43.31475838 61.01168269 -48 71 C-52.30448412 69.01727184 -55.31235403 66.20343273 -58.75 63 C-59.35199219 62.4534375 -59.95398438 61.906875 -60.57421875 61.34375 C-62.09153882 59.93997089 -63.5509654 58.47416237 -65 57 C-65 56.34 -65 55.68 -65 55 C-63.5843741 53.77191268 -62.10809106 52.61346806 -60.609375 51.48828125 C-55.02055849 47.12754915 -50.16940998 42.27652805 -45.25 37.1875 C-38.10399103 29.92148476 -30.88683494 23.29002082 -22.68408203 17.25634766 C-19.59001241 14.94813045 -16.58452149 12.52626234 -13.5625 10.125 C-9.13336883 6.60880695 -4.62162431 3.26026089 0 0 Z " fill="#FEFEFE" transform="translate(86,31)"/>
<path d="M0 0 C0.71771576 0.29747131 1.43543152 0.59494263 2.17489624 0.90142822 C4.46025607 1.85025055 6.74185631 2.80775719 9.0234375 3.765625 C10.53231082 4.39380899 12.04142356 5.02141821 13.55078125 5.6484375 C17.16703111 7.15222457 20.78040215 8.66277401 24.3927002 10.17602539 C27.42171974 11.44396991 30.45303636 12.70635993 33.484375 13.96875 C34.44134277 14.36739258 35.39831055 14.76603516 36.38427734 15.17675781 C37.0489502 15.45358398 37.71362305 15.73041016 38.3984375 16.015625 C36.99242222 18.92854234 35.6720287 21.12632857 33.3359375 23.390625 C32.80871094 23.93460938 32.28148437 24.47859375 31.73828125 25.0390625 C26.85428015 27.07746029 21.730416 24.54422057 17.08129883 22.69921875 C12.6687059 20.82539013 8.27063255 18.92203572 3.89770508 16.95727539 C-4.77475777 13.07977363 -10.6748664 10.77378582 -19.8112793 14.22973633 C-23.62580386 15.76148533 -27.39708784 17.37154607 -31.1640625 19.015625 C-33.1045247 19.86020857 -35.04610946 20.70143724 -36.99241638 21.5324707 C-38.75573387 22.2855312 -40.51390221 23.05061556 -42.27172852 23.81640625 C-45.77448679 25.07790259 -48.88988319 25.748869 -52.6015625 26.015625 C-55.25390625 24.43359375 -55.25390625 24.43359375 -57.5390625 22.203125 C-58.31121094 21.47480469 -59.08335938 20.74648437 -59.87890625 19.99609375 C-61.6015625 18.015625 -61.6015625 18.015625 -61.6015625 16.015625 C-60.82256592 15.69400391 -60.04356934 15.37238281 -59.2409668 15.04101562 C-56.91118368 14.07883699 -54.58161264 13.11614476 -52.25219727 12.15307617 C-49.60128475 11.05718641 -46.94930436 9.96393414 -44.29663086 8.87231445 C-38.39065022 6.43823056 -32.49596296 3.99268665 -26.65625 1.40234375 C-25.79942627 1.0259375 -24.94260254 0.64953125 -24.05981445 0.26171875 C-22.50585423 -0.42491852 -20.95708256 -1.12346858 -19.41479492 -1.8359375 C-12.09176956 -5.05146656 -7.04721056 -2.97909827 0 0 Z " fill="#FEFEFE" transform="translate(156.6015625,49.984375)"/>
<path d="M0 0 C0.66 0 1.32 0 2 0 C1.90912109 1.80791016 1.90912109 1.80791016 1.81640625 3.65234375 C1.38550557 12.52663894 1.00342197 21.40016482 0.74609375 30.28125 C0.71498253 31.35204552 0.71498253 31.35204552 0.6832428 32.44447327 C0.58164024 35.98297048 0.48463045 39.52153845 0.39282227 43.06030273 C0.21344919 49.73361464 -0.03263628 56.40117025 -0.40625 63.06640625 C-0.47134766 64.23244385 -0.53644531 65.39848145 -0.60351562 66.59985352 C-2.57029298 83.46642262 -16.55286015 95.62352151 -28 107 C-29.03809496 108.03742576 -30.0758378 109.07520396 -31.11328125 110.11328125 C-35.55664062 114.55664062 -35.55664062 114.55664062 -40 119 C-40.99 118.67 -41.98 118.34 -43 118 C-42.34515625 117.20980469 -41.6903125 116.41960937 -41.015625 115.60546875 C-35.50211387 108.83596037 -30.46429201 101.89136416 -25.8125 94.5 C-25.35069336 93.76676514 -24.88888672 93.03353027 -24.41308594 92.27807617 C-23.4584674 90.73894611 -22.52040143 89.18946087 -21.59667969 87.6315918 C-20.43782271 85.72160412 -19.21598726 83.8493835 -17.95800781 82.00317383 C-11.47497255 71.93052362 -10.20535212 62.46914879 -9.125 50.6875 C-8.94046238 48.91961014 -8.75297337 47.15202581 -8.5625 45.38476562 C-8.19376797 41.92149744 -7.83739749 38.45738946 -7.49462891 34.99145508 C-7.02201688 30.21909219 -6.54827586 25.4474731 -6.03125 20.6796875 C-5.89525391 19.37628418 -5.75925781 18.07288086 -5.61914062 16.72998047 C-4.63410088 10.7956598 -2.49242706 5.47002123 0 0 Z " fill="#FEFEFE" transform="translate(210,99)"/>
<path d="M0 0 C4.20411739 2.57979931 7.03224317 5.07832134 10 9 C10.66 9.33 11.32 9.66 12 10 C10.4114658 14.28904235 7.56872632 16.32345526 4 19 C3.34 19 2.68 19 2 19 C2.495 20.98 2.495 20.98 3 23 C2.34 23 1.68 23 1 23 C0.71125 23.639375 0.4225 24.27875 0.125 24.9375 C-1 27 -1 27 -3 28 C-5.125 27.0625 -5.125 27.0625 -7 26 C-6.34 26.99 -5.68 27.98 -5 29 C-5.125 31 -5.125 31 -6 33 C-8 34.6875 -8 34.6875 -10 36 C-11.2143717 37.081674 -11.2143717 37.081674 -11.9375 39.375 C-13 42 -13 42 -15 45 C-18.46512726 44.42625344 -19.96777232 43.32416404 -22.3125 40.75 C-24.70575791 38.22205658 -27.03758133 36.17545207 -29.9375 34.25 C-30.948125 33.5075 -31.95875 32.765 -33 32 C-33 29 -33 29 -31.70703125 27.59765625 C-31.08183594 27.09105469 -30.45664063 26.58445312 -29.8125 26.0625 C-25.98456059 22.86353297 -22.32599811 19.53444921 -18.6875 16.125 C-13.63229617 11.41498994 -8.43838621 6.9686479 -3.046875 2.64453125 C-1.12569477 1.16181243 -1.12569477 1.16181243 0 0 Z " fill="#FEFEFE" transform="translate(263,14)"/>
<path d="M0 0 C5.50987325 3.92463039 10.56023698 8.21037688 15.5546875 12.76953125 C18.988628 15.90176772 22.49452449 18.94842072 26 22 C27.50031934 23.31213495 29.00032601 24.62462751 30.5 25.9375 C31.1703125 26.52402344 31.840625 27.11054687 32.53125 27.71484375 C33.0159375 28.13894531 33.500625 28.56304687 34 29 C33.64082965 31.8176295 33.15784232 32.85379148 31.0390625 34.81640625 C30.24242187 35.39261719 29.44578125 35.96882813 28.625 36.5625 C25.32712012 38.96133265 25.32712012 38.96133265 22.3359375 41.71484375 C21 43 21 43 19 43 C19 43.66 19 44.32 19 45 C15.65554786 43.61608877 13.60702183 42.30332265 12 39 C12.8125 35.25 12.8125 35.25 14 32 C12.515 32.495 12.515 32.495 11 33 C11 33.66 11 34.32 11 35 C7.25721785 33.5511811 7.25721785 33.5511811 6.125 31.125 C5.97212565 28.52613603 6.66545464 27.1980747 8 25 C7.01 25.66 6.02 26.32 5 27 C3 26.875 3 26.875 1 26 C-0.75 23.9375 -0.75 23.9375 -2 22 C-1 20 0 18 1 16 C-0.98 16.66 -2.96 17.32 -5 18 C-6.00596297 17.0479279 -7.00461563 16.08812654 -8 15.125 C-8.556875 14.59132813 -9.11375 14.05765625 -9.6875 13.5078125 C-11 12 -11 12 -11 10 C-7.61059096 6.31152546 -3.87547124 3.15445333 0 0 Z " fill="#FEFEFE" transform="translate(26,14)"/>
<path d="M0 0 C0.84046875 0.01804687 1.6809375 0.03609375 2.546875 0.0546875 C4.61507395 0.10169202 6.68268441 0.17343276 8.75 0.25 C10.68341292 6.05023877 10.55030141 12.24128538 9.75 18.25 C7.95593659 21.22203362 6.04114873 23.0726785 2.75 24.25 C-0.64302669 23.90880179 -1.15879081 23.35945102 -3.4375 20.625 C-3.84742188 20.09390625 -4.25734375 19.5628125 -4.6796875 19.015625 C-7.73728128 15.57773348 -11.55827679 12.96852384 -15.25 10.25 C-12.71247803 0.94575278 -8.98321669 -0.36494318 0 0 Z " fill="#FEFEFE" transform="translate(280.25,-0.25)"/>
<path d="M0 0 C2.35483784 0.96470164 3.66053874 2.10714532 5.453125 3.90917969 C6.071875 4.52857422 6.690625 5.14796875 7.328125 5.78613281 C7.96234375 6.43646484 8.5965625 7.08679688 9.25 7.75683594 C9.8996875 8.40330078 10.549375 9.04976562 11.21875 9.71582031 C16 14.55231585 16 14.55231585 16 16.81933594 C9.73 19.12933594 3.46 21.43933594 -3 23.81933594 C-12.03225806 16.07740045 -12.03225806 16.07740045 -16 11.81933594 C-16 11.15933594 -16 10.49933594 -16 9.81933594 C-13.78644691 7.98753197 -11.58175699 6.2996899 -9.25 4.63183594 C-8.61578125 4.15552734 -7.9815625 3.67921875 -7.328125 3.18847656 C-6.709375 2.74310547 -6.090625 2.29773438 -5.453125 1.83886719 C-4.88754883 1.42741455 -4.32197266 1.01596191 -3.73925781 0.59204102 C-2 -0.18066406 -2 -0.18066406 0 0 Z " fill="#FEFEFE" transform="translate(80,63.1806640625)"/>
<path d="M0 0 C2.89740622 -0.13539281 5.78845621 -0.23426829 8.6875 -0.3125 C9.50412109 -0.35439453 10.32074219 -0.39628906 11.16210938 -0.43945312 C15.50151825 -0.52729541 17.4159933 -0.4268613 21.01953125 2.20703125 C22.97738347 4.96810489 23.71397131 6.66299862 24 10 C23.09636719 10.75925781 22.19273438 11.51851562 21.26171875 12.30078125 C20.07025187 13.30461555 18.87884898 14.30852578 17.6875 15.3125 C16.79514648 16.06176758 16.79514648 16.06176758 15.88476562 16.82617188 C15.30791016 17.31279297 14.73105469 17.79941406 14.13671875 18.30078125 C13.60780029 18.74591064 13.07888184 19.19104004 12.53393555 19.6496582 C10.95471373 21.03986605 9.47187013 22.49726496 8 24 C3.93598651 22.19377178 1.30802037 20.84213479 -1 17 C-1.328125 14.66796875 -1.328125 14.66796875 -1.25 12.1875 C-1.22679688 10.97126953 -1.22679688 10.97126953 -1.203125 9.73046875 C-0.9597398 6.45880995 -0.49452191 3.24230896 0 0 Z " fill="#FEFEFE" transform="translate(1,0)"/>
<path d="M0 0 C3.25855755 1.21914998 5.8006922 3.28952094 8.515625 5.41015625 C9.06992188 5.83490234 9.62421875 6.25964844 10.1953125 6.69726562 C11.55651911 7.74163966 12.91168333 8.79388089 14.265625 9.84765625 C11.89056407 15.24439155 8.0711918 19.47015883 3.265625 22.84765625 C-0.12853251 23.28108284 -2.6215218 22.13488957 -5.734375 20.84765625 C-7.91963205 20.13243323 -10.10721172 19.42427371 -12.296875 18.72265625 C-14.11090979 18.102125 -15.9239685 17.47869473 -17.734375 16.84765625 C-16.07576899 12.5663795 -12.95019644 9.80392509 -9.734375 6.66015625 C-9.1878125 6.11423828 -8.64125 5.56832031 -8.078125 5.00585938 C-2.77038012 -0.2433442 -2.77038012 -0.2433442 0 0 Z " fill="#FEFEFE" transform="translate(211.734375,63.15234375)"/>
</svg>
