<?xml version="1.0" encoding="UTF-8"?>
<!-- Generator: visioncortex VTracer 0.6.4 -->
<svg version="1.1" xmlns="http://www.w3.org/2000/svg" width="244" height="290">
<path d="M0 0 C0.66 0 1.32 0 2 0 C2 0.66 2 1.32 2 2 C2.66 2 3.32 2 4 2 C9.54004551 8.24991207 13.20433338 16.21906801 12.90625 24.65234375 C11.89492016 31.27460931 9.45103517 37.35874589 7.109375 43.60546875 C5.65268011 48.06274993 5.11839188 52.32890206 5 57 C5.29132813 56.40445313 5.58265625 55.80890625 5.8828125 55.1953125 C8.23958156 50.56417889 10.17040379 47.12178913 15 45 C15.02578125 45.65226562 15.0515625 46.30453125 15.078125 46.9765625 C15.56343341 54.45472394 17.54263056 58.24295136 22.5625 63.875 C25.41346171 67.53007912 26.56519007 70.62005391 28 75 C28.257937 68.91046219 28.257937 68.91046219 27 63 C25.31098354 57.93295061 25.34438009 53.00783598 27 47.9375 C27.33 47.298125 27.66 46.65875 28 46 C28.66 46 29.32 46 30 46 C31.26171875 47.8359375 31.26171875 47.8359375 32.6875 50.375 C35.36881631 55.01954053 38.31273487 59.35406441 41.484375 63.67578125 C44.84274397 68.82585738 45.33901112 73.30925481 45.3125 79.375 C45.32861328 80.10460937 45.34472656 80.83421875 45.36132812 81.5859375 C45.36931309 90.52910063 41.51795379 96.31859524 35.5234375 102.69140625 C28.87710274 108.7718766 21.87534074 110.79227926 13 111 C13.20625 110.05125 13.4125 109.1025 13.625 108.125 C14.57005051 101.02280221 13.11087651 94.9876082 8.8125 89.25 C6.518428 86.52191438 4.15886874 84.21734841 1.375 82 C-2.69059986 78.75119108 -4.76838576 74.62777147 -7 70 C-7.09796875 70.78503906 -7.1959375 71.57007812 -7.296875 72.37890625 C-8.47448348 80.65262098 -10.50914359 85.4020963 -15.25 92.25 C-18.19758799 97.34759334 -17.7283076 103.73082978 -16.48046875 109.33203125 C-16.32191406 109.88246094 -16.16335937 110.43289062 -16 111 C-25.70721479 110.77280987 -34.22583345 107.60738508 -41.39453125 100.8984375 C-47.7789999 93.34891982 -50.01277685 85.47664553 -49.58203125 75.6796875 C-48.16455969 66.71822304 -43.22336085 59.70404973 -37.41796875 52.9375 C-35.94539399 50.92538683 -35.41877746 49.43652341 -35 47 C-34.01 47.33 -33.02 47.66 -32 48 C-30.86227386 51.41317841 -31.09335442 53.49783159 -31.4375 57.0625 C-31.93420796 62.74280127 -32.08506605 68.30057495 -32 74 C-31.01 71.36 -30.02 68.72 -29 66 C-26 67 -26 67 -25 68 C-25.15855469 67.46632813 -25.31710938 66.93265625 -25.48046875 66.3828125 C-27.38602319 57.64305155 -26.67937215 48.66316003 -22 41 C-19.63701734 37.80643216 -17.11668005 34.74422036 -14.57958984 31.68823242 C-7.82254186 23.50782959 -1.49569802 14.45841419 -0.375 3.625 C-0.189375 1.830625 -0.189375 1.830625 0 0 Z M6 62 C7 64 7 64 7 64 Z " fill="#FEFEFE" transform="translate(124,0)"/>
<path d="M0 0 C6.86078945 -0.18574049 11.82750161 0.15450386 17.125 4.8125 C19.73467667 7.36004151 21.54102684 9.65338632 23 13 C23.37511719 12.46890625 23.75023438 11.9378125 24.13671875 11.390625 C24.64847656 10.68421875 25.16023438 9.9778125 25.6875 9.25 C26.18636719 8.55390625 26.68523437 7.8578125 27.19921875 7.140625 C30.28069444 3.47761268 32.44866905 1.18186764 37.33203125 0.609375 C39.05486328 0.67898437 39.05486328 0.67898437 40.8125 0.75 C41.97394531 0.78609375 43.13539063 0.8221875 44.33203125 0.859375 C45.21246094 0.90578125 46.09289062 0.9521875 47 1 C46.54625 2.216875 46.0925 3.43375 45.625 4.6875 C41.93309037 15.82367476 41.37641105 27.950715 40.125 39.5703125 C39.95352787 41.14291967 39.78181031 42.7155001 39.60986328 44.28805542 C39.1609367 48.40015649 38.71548297 52.51262646 38.27075195 56.62518311 C37.91202697 59.93724335 37.550916 63.24904128 37.18965149 66.56082535 C35.22515777 84.4749342 35.22515777 84.4749342 33.33984375 102.39746094 C33.24783691 103.2938327 33.15583008 104.19020447 33.06103516 105.11373901 C32.90298844 106.66596972 32.74743256 108.21845759 32.59521484 109.77127075 C31.72389922 118.36027511 31.72389922 118.36027511 28.3125 121.375 C25 123 25 123 21.875 122.4375 C16.90465713 119.95232857 16.90465713 119.95232857 15 118 C14.34800209 115.03956674 13.9529993 112.36629477 13.69140625 109.3671875 C13.59966629 108.4829863 13.50792633 107.5987851 13.41340637 106.68778992 C13.11285762 103.75162562 12.83796284 100.81361484 12.5625 97.875 C12.35611073 95.82265537 12.14791128 93.77049205 11.93798828 91.71850586 C11.3847511 86.26990767 10.85253056 80.81947246 10.32611084 75.3682251 C9.46664454 66.49125568 8.58114655 57.61688217 7.69064331 48.74298096 C7.38201728 45.63320742 7.08396807 42.52256023 6.78735352 39.41162109 C5.43072675 22.01921786 5.43072675 22.01921786 0.90771484 5.28735352 C0 3 0 3 0 0 Z " fill="#FEFEFE" transform="translate(99,153)"/>
<path d="M0 0 C32.01 0 64.02 0 97 0 C95.25763905 3.48472189 93.52240682 6.09431591 91.125 9.125 C90.44695312 9.99382812 89.76890625 10.86265625 89.0703125 11.7578125 C86.16549092 14.90378908 84.23369935 15.89513086 79.93312073 16.26069641 C78.13039955 16.2676075 78.13039955 16.2676075 76.29125977 16.2746582 C75.62571075 16.27976913 74.96016174 16.28488007 74.27444458 16.29014587 C72.08000634 16.30401663 69.88588305 16.30308707 67.69140625 16.30078125 C66.16210311 16.30466956 64.63280104 16.30900451 63.10350037 16.31376648 C59.89993792 16.32122325 56.69648569 16.32094137 53.49291992 16.31567383 C49.39272338 16.30987972 45.29297864 16.32681105 41.19285679 16.3500185 C38.03494134 16.36476833 34.87713439 16.36562586 31.7191906 16.36250877 C30.20775393 16.36302135 28.6963111 16.36824727 27.18490791 16.37832069 C25.06902036 16.39069259 22.95400887 16.38388996 20.83813477 16.37231445 C19.63552505 16.37294388 18.43291534 16.3735733 17.19386292 16.3742218 C12.62574468 15.83897985 10.04878612 14.1980122 7.05078125 10.7734375 C6.47714844 9.98195313 5.90351562 9.19046875 5.3125 8.375 C3.10400537 5.16205471 3.10400537 5.16205471 0 3 C0 2.01 0 1.02 0 0 Z " fill="#FEFEFE" transform="translate(74,116)"/>
<path d="M0 0 C21.12 0 42.24 0 64 0 C65 7 65 7 64.07421875 8.9609375 C58.82306047 14.31563975 55.11225994 14.25009546 47.94140625 14.4296875 C43.64118325 14.6197526 41.20543196 15.10427161 38 18 C37.34 18 36.68 18 36 18 C35.731875 18.639375 35.46375 19.27875 35.1875 19.9375 C34 22 34 22 31 23 C30.443125 22.236875 29.88625 21.47375 29.3125 20.6875 C26.00845194 16.84766036 23.60038552 15.13661828 18.4765625 14.69921875 C16.57003906 14.69341797 16.57003906 14.69341797 14.625 14.6875 C9.07044093 14.48866552 5.24006634 13.80637448 1.00390625 10.05859375 C0 8 0 8 0 0 Z " fill="#FEFEFE" transform="translate(90,136)"/>
<path d="M0 0 C3 1 3 1 4.71875 4.10546875 C5.32811685 5.45922398 5.92089609 6.82052529 6.5 8.1875 C6.80752197 8.90494385 7.11504395 9.6223877 7.43188477 10.36157227 C11.44398272 20.07253931 15.57163968 32.20174079 12.15625 42.55859375 C9.39463166 48.83754355 5.81637599 52.44955709 0 56 C-3.43972359 54.59618118 -4.91340581 53.15153983 -6.75 49.9375 C-7.17796875 49.22464844 -7.6059375 48.51179688 -8.046875 47.77734375 C-10.48849725 40.66261663 -8.79846326 34.34547863 -6.1875 27.5625 C-2.91718613 18.51290129 -1.28179952 9.51230169 0 0 Z " fill="#FEFEFE" transform="translate(223,80)"/>
<path d="M0 0 C0.66 0 1.32 0 2 0 C2.06316406 0.82757813 2.12632813 1.65515625 2.19140625 2.5078125 C3.15647417 11.91468506 5.48943965 20.39402022 8.61157227 29.32080078 C10.58521183 35.08846239 12.25529392 40.25960644 10.23046875 46.29296875 C9.71419922 47.23076172 9.71419922 47.23076172 9.1875 48.1875 C8.82527344 48.85136719 8.46304687 49.51523438 8.08984375 50.19921875 C6.85187057 52.24475866 5.5312985 54.1624418 4 56 C-3.26513136 53.50909782 -6.61928153 49.64069699 -10 43 C-13.85383249 31.43850252 -9.33447217 18.05939775 -4.33203125 7.46875 C-2.95416534 4.92902566 -1.5372437 2.44585509 0 0 Z " fill="#FEFEFE" transform="translate(20,80)"/>
<path d="M0 0 C0.66 0 1.32 0 2 0 C1.43206043 7.38321447 -2.80652732 14.80652732 -8 20 C-15.34185514 26.00999933 -22.96788687 25.53550078 -32 25 C-31.30814995 21.78624494 -30.21268706 18.9725654 -28.8125 16 C-28.42707031 15.154375 -28.04164063 14.30875 -27.64453125 13.4375 C-23.53639239 7.34847709 -16.87693388 5.76210791 -10.1875 3.8125 C-8.47189031 3.30073782 -6.75700258 2.78654691 -5.04296875 2.26953125 C-4.29039795 2.04885986 -3.53782715 1.82818848 -2.76245117 1.60083008 C-0.99634991 1.14339037 -0.99634991 1.14339037 0 0 Z " fill="#FEFEFE" transform="translate(231,160)"/>
<path d="M0 0 C4.3967942 1.44842309 8.7887317 2.91003245 13.17529297 4.38916016 C14.63553168 4.8779904 16.10027375 5.35336037 17.56640625 5.82421875 C24.80550242 8.27502822 28.45996831 11.54875492 31.875 18.1875 C34 22.64465409 34 22.64465409 34 25 C17.2582699 26.10926801 17.2582699 26.10926801 10.828125 20.90625 C5.65404112 15.51105143 0 7.73089958 0 0 Z " fill="#FEFEFE" transform="translate(12,160)"/>
<path d="M0 0 C-1.74268207 3.96064107 -4.14674729 7.74436549 -7 11 C-7.66 11 -8.32 11 -9 11 C-9 11.66 -9 12.32 -9 13 C-13.55783836 16.79819863 -17.92159873 19.65351133 -24 20 C-28.3849961 19.57158084 -32.67963507 18.85616988 -37 18 C-35.57814011 15.04897004 -34.00999712 12.26300623 -32.25 9.5 C-31.78078125 8.7471875 -31.3115625 7.994375 -30.828125 7.21875 C-27.57755168 3.27360974 -24.47146792 1.25005337 -19.4140625 0.390625 C-17.53847656 0.32101563 -17.53847656 0.32101563 -15.625 0.25 C-14.31660156 0.19457031 -13.00820312 0.13914063 -11.66015625 0.08203125 C-7.76799188 -0.00519976 -3.89232784 -0.07943526 0 0 Z " fill="#FEFEFE" transform="translate(215,192)"/>
<path d="M0 0 C3.52200476 0.05226462 7.04162954 0.14742873 10.5625 0.25 C11.55314453 0.26417969 12.54378906 0.27835938 13.56445312 0.29296875 C19.88035006 0.50279921 23.89072417 1.19138839 29 5 C30.92578125 7.18359375 30.92578125 7.18359375 32.3125 9.4375 C32.78300781 10.17871094 33.25351562 10.91992188 33.73828125 11.68359375 C35.03585701 14.06583036 36.04674096 16.46245129 37 19 C33.95736733 19.10845027 30.91863796 19.18752063 27.875 19.25 C27.0190625 19.28351563 26.163125 19.31703125 25.28125 19.3515625 C18.204926 19.46042902 14.82145829 17.55596221 9.55078125 12.78125 C8.81214844 12.0284375 8.07351562 11.275625 7.3125 10.5 C6.56613281 9.7471875 5.81976563 8.994375 5.05078125 8.21875 C0 2.75428571 0 2.75428571 0 0 Z " fill="#FEFEFE" transform="translate(30,192)"/>
<path d="M0 0 C3.93972063 1.31324021 4.26122176 2.731735 6.125 6.375 C9.51047259 13.55322008 11.2960581 19.53988102 9.03515625 27.3203125 C7.84958101 30.36893454 6.7011967 33.20517686 5 36 C3.515 36.495 3.515 36.495 2 37 C-2.04068602 34.4955748 -5.29741062 31.29276445 -7.5625 27.125 C-9.01338678 16.76152301 -4.52666773 8.97060263 0 0 Z " fill="#FEFEFE" transform="translate(69,166)"/>
<path d="M0 0 C4.00437532 1.33479177 4.89106742 3.73844566 6.6875 7.3125 C9.92037332 13.81167863 11.56946755 19.69808003 10 27 C7.6338873 32.12485546 2.82504165 34.54017484 -2 37 C-2.84770456 34.81716075 -3.67807547 32.63003921 -4.5 30.4375 C-4.9640625 29.21933594 -5.428125 28.00117188 -5.90625 26.74609375 C-7.6477668 20.7813987 -7.40636694 16.14239198 -5.1875 10.375 C-4.85105469 9.47523438 -4.51460937 8.57546875 -4.16796875 7.6484375 C-2.97532485 4.94404765 -1.57406705 2.49866231 0 0 Z " fill="#FEFEFE" transform="translate(173,167)"/>
<path d="M0 0 C5.28906691 2.5079613 10.09196786 5.83008084 15 9 C15.63035156 9.39832031 16.26070312 9.79664063 16.91015625 10.20703125 C23.18859275 14.23743422 25.44665451 17.45215616 27.484375 24.5625 C28 27 28 27 28 31 C18.66550063 29.71713933 11.50354187 27.8602756 5.35546875 20.26171875 C1.77186226 14.28215633 -0.33705772 6.97450199 0 0 Z " fill="#FEFEFE" transform="translate(0,127)"/>
<path d="M0 0 C0.46375487 8.34758771 -0.78212026 15.70569768 -6.125 22.375 C-12.31024427 28.80713428 -19.33862102 30.45007118 -28 31 C-27.59879494 29.12163086 -27.17823556 27.24739163 -26.75 25.375 C-26.51796875 24.33085937 -26.2859375 23.28671875 -26.046875 22.2109375 C-23.83287066 15.42022271 -20.36104852 12.10848433 -14.125 8.9375 C-10.80326459 7.20519712 -2.9845181 0 0 0 Z " fill="#FEFEFE" transform="translate(244,127)"/>
<path d="M0 0 C3.08103751 1.04017933 3.914556 1.84125404 5.484375 4.7578125 C10.78271867 18.85402314 10.78271867 18.85402314 7.64453125 26.15234375 C6.17172092 29.15043985 4.63186488 32.08595556 3 35 C-1 35 -1 35 -3.5625 32.875 C-7.12110929 28.67766596 -9.09399308 25.96132228 -8.82421875 20.33203125 C-8.13514564 15.56594227 -6.19344026 11.70797146 -3.9375 7.5 C-3.37192383 6.40945312 -3.37192383 6.40945312 -2.79492188 5.296875 C-1.87427046 3.52549507 -0.93867864 1.76189339 0 0 Z " fill="#FEFEFE" transform="translate(52,145)"/>
<path d="M0 0 C4.69524036 1.56508012 6.07504086 5.75820954 8.26757812 9.93017578 C11.06067434 15.56824 13.01609443 20.74816871 11 27 C8.68275234 30.42093673 6.05993369 33.2337653 3 36 C-0.91801303 34.53493102 -2.04128737 32.68717493 -3.75 28.9375 C-6.89766299 21.45327346 -7.0521649 16.24289922 -4.125 8.6875 C-2.84414107 5.74152447 -1.45479397 2.86371606 0 0 Z " fill="#FEFEFE" transform="translate(190,145)"/>
<path d="M0 0 C4.99751757 4.47956757 6.16882126 10.87678045 6.625 17.375 C6.47229363 24.15134522 2.93557581 28.72882154 -1 34 C-1.66 34.99 -2.32 35.98 -3 37 C-3.66 37 -4.32 37 -5 37 C-12.19246374 24.67899689 -12.19246374 24.67899689 -10.95703125 18.36328125 C-9.22514454 14.0865814 -6.59599692 10.42819898 -3.91015625 6.69921875 C-2.35330856 4.49925606 -1.10887054 2.44415967 0 0 Z " fill="#FEFEFE" transform="translate(40,121)"/>
<path d="M0 0 C0.66 0 1.32 0 2 0 C3.59207606 2.22177778 5.06065503 4.4323327 6.5 6.75 C7.10521484 7.70132813 7.10521484 7.70132813 7.72265625 8.671875 C13.8536363 18.38431865 13.8536363 18.38431865 13 25 C11.34492293 28.57642837 9.51640812 31.95704419 7 35 C6.01 35 5.02 35 4 35 C-0.30128668 29.78864152 -4.97489856 22.99075188 -5 16 C-4.0830386 10.37451461 -2.72972337 5.02843778 0 0 Z " fill="#FEFEFE" transform="translate(203,122)"/>
<path d="M0 0 C4.18069849 1.46017043 7.40978298 3.54901929 11 6.125 C18.86115153 11.68036446 26.84970134 17.31834584 35.75 21.0625 C39 23 39 23 40 26.75 C40 27.8225 40 28.895 40 30 C34.99706918 29.50951659 31.53488519 27.82574441 27.4375 25.0625 C26.53439087 24.46514038 26.53439087 24.46514038 25.61303711 23.85571289 C5.76148085 10.5479425 5.76148085 10.5479425 0 2 C0 1.34 0 0.68 0 0 Z " fill="#FEFEFE" transform="translate(66,203)"/>
<path d="M0 0 C0.66 0.66 1.32 1.32 2 2 C1.01 2.33 0.02 2.66 -1 3 C-1.37705078 4.08861328 -1.37705078 4.08861328 -1.76171875 5.19921875 C-3.53548611 9.21117836 -6.38861985 11.17514085 -9.8125 13.8125 C-10.47668945 14.33440918 -11.14087891 14.85631836 -11.82519531 15.39404297 C-17.93390169 20.11282257 -24.33982578 24.11157493 -31 28 C-31.99 28.66 -32.98 29.32 -34 30 C-35.32 30 -36.64 30 -38 30 C-37.82421875 26.6875 -37.82421875 26.6875 -37 23 C-34.83203125 21.3125 -34.83203125 21.3125 -31.8125 20 C-24.86337452 16.63401734 -18.65607455 12.52071007 -12.3125 8.125 C-11.33192627 7.44566406 -10.35135254 6.76632813 -9.34106445 6.06640625 C-7.5719955 4.84048743 -5.80482951 3.61181421 -4.0402832 2.37939453 C-2 1 -2 1 0 0 Z " fill="#FEFEFE" transform="translate(177,203)"/>
<path d="M0 0 C4.72239272 0.54774804 8.11807832 1.87676581 12.2734375 4.16015625 C14.00400391 5.1027832 14.00400391 5.1027832 15.76953125 6.06445312 C16.97145888 6.73027976 18.17328051 7.39629777 19.375 8.0625 C20.59982312 8.73322105 21.82507979 9.40315104 23.05078125 10.07226562 C26.03820824 11.7071174 29.02098128 13.3498915 32 15 C32 15.66 32 16.32 32 17 C25.98345261 16.56243292 20.24114345 15.47984973 14.375 14.125 C13.65900635 13.96354492 12.9430127 13.80208984 12.20532227 13.63574219 C7.5422456 12.52919479 3.35603552 11.00080372 -1 9 C-0.67 6.03 -0.34 3.06 0 0 Z " fill="#FEFEFE" transform="translate(138,236)"/>
<path d="M0 0 C0 2.97 0 5.94 0 9 C-6.67201673 11.76286155 -13.40331394 13.68684754 -20.4375 15.25 C-21.21851074 15.42499023 -21.99952148 15.59998047 -22.80419922 15.78027344 C-26.36433924 16.54674066 -29.31496311 17 -33 17 C-33 16.34 -33 15.68 -33 15 C-32.49855469 14.75507813 -31.99710937 14.51015625 -31.48046875 14.2578125 C-27.0279485 12.05810062 -22.61512896 9.80269817 -18.24609375 7.44140625 C-16.98406128 6.76343994 -16.98406128 6.76343994 -15.6965332 6.07177734 C-13.99478346 5.15571154 -12.29662164 4.23294612 -10.60229492 3.30322266 C-9.80799072 2.87702637 -9.01368652 2.45083008 -8.1953125 2.01171875 C-7.48391113 1.62459717 -6.77250977 1.23747559 -6.03955078 0.83862305 C-4 0 -4 0 0 0 Z " fill="#FEFEFE" transform="translate(107,236)"/>
<path d="M0 0 C1.0828125 0.495 1.0828125 0.495 2.1875 1 C7.09757803 2.74580552 10.31468235 2.1418595 15 0 C14.41892368 3.7602985 13.34800504 6.53035032 11.4375 9.8125 C10.98246094 10.60269531 10.52742188 11.39289063 10.05859375 12.20703125 C9.70925781 12.79871094 9.35992187 13.39039063 9 14 C7.171875 13.76953125 7.171875 13.76953125 5 13 C3.515625 11.07421875 3.515625 11.07421875 2.25 8.6875 C1.82203125 7.90761719 1.3940625 7.12773437 0.953125 6.32421875 C0 4 0 4 0 0 Z " fill="#FEFEFE" transform="translate(115,276)"/>
<path d="M0 0 C0.33 1.65 0.66 3.3 1 5 C-1.296537 6.1482685 -2.58313167 6.11561175 -5.1328125 6.09765625 C-5.93847656 6.09443359 -6.74414062 6.09121094 -7.57421875 6.08789062 C-8.41597656 6.07951172 -9.25773438 6.07113281 -10.125 6.0625 C-10.97449219 6.05798828 -11.82398438 6.05347656 -12.69921875 6.04882812 C-14.79950909 6.03702874 -16.8997633 6.01909306 -19 6 C-19 4.68 -19 3.36 -19 2 C-13.54969919 -0.7251504 -6.00027729 -0.13044081 0 0 Z " fill="#FEFEFE" transform="translate(197,58)"/>
<path d="M0 0 C2.86688248 0.09096556 5.70300515 0.23767988 8.5625 0.4375 C9.36880859 0.48970703 10.17511719 0.54191406 11.00585938 0.59570312 C13.00421738 0.72577376 15.00215386 0.86229056 17 1 C17.33 2.65 17.66 4.3 18 6 C12.06 6 6.12 6 0 6 C-0.33 4.35 -0.66 2.7 -1 1 C-0.67 0.67 -0.34 0.34 0 0 Z " fill="#FEFEFE" transform="translate(48,58)"/>
<path d="M0 0 C4.38081362 0.39059702 6.8722768 2.08706167 10.25 4.8125 C11.55710937 5.84310547 11.55710937 5.84310547 12.890625 6.89453125 C15.02683744 9.02678774 15.65598287 10.05600726 16 13 C14.3515625 13.76171875 14.3515625 13.76171875 12 14 C9.2734375 12.26953125 9.2734375 12.26953125 6.375 9.8125 C5.41335937 9.01457031 4.45171875 8.21664062 3.4609375 7.39453125 C1.27768363 5.27019058 0.0931999 3.79730562 -1 1 C-0.67 0.67 -0.34 0.34 0 0 Z " fill="#FEFEFE" transform="translate(59,31)"/>
<path d="M0 0 C-0.1328125 1.76171875 -0.1328125 1.76171875 -1 4 C-3.6171875 5.95703125 -3.6171875 5.95703125 -6.875 7.8125 C-7.94492188 8.43769531 -9.01484375 9.06289063 -10.1171875 9.70703125 C-13 11 -13 11 -16 10 C-15.64996937 7.16905053 -15.23218382 6.19401662 -13.00390625 4.33203125 C-11.79541016 3.57986328 -11.79541016 3.57986328 -10.5625 2.8125 C-9.75941406 2.30332031 -8.95632812 1.79414062 -8.12890625 1.26953125 C-4.79435048 -0.71896531 -3.72538698 -1.11761609 0 0 Z " fill="#FEFEFE" transform="translate(186,39)"/>
<path d="M0 0 C0.58265625 0.22171875 1.1653125 0.4434375 1.765625 0.671875 C1.51221309 4.09293576 0.45780316 4.97969684 -2.046875 7.484375 C-5.234375 9.671875 -5.234375 9.671875 -7.609375 9.484375 C-8.145625 9.21625 -8.681875 8.948125 -9.234375 8.671875 C-9.234375 5.671875 -9.234375 5.671875 -7.84375 4.03125 C-7.23015625 3.50015625 -6.6165625 2.9690625 -5.984375 2.421875 C-5.07945312 1.60976563 -5.07945312 1.60976563 -4.15625 0.78125 C-2.234375 -0.328125 -2.234375 -0.328125 0 0 Z " fill="#FEFEFE" transform="translate(165.234375,27.328125)"/>
<path d="M0 0 C-1.91803843 5.59427877 -4.96810975 9.81313617 -10 13 C-10.66 13 -11.32 13 -12 13 C-11.58311525 8.13634454 -9.58780535 6.17061868 -6 3 C-2.37931034 0 -2.37931034 0 0 0 Z " fill="#FEFEFE" transform="translate(198,180)"/>
<path d="M0 0 C0.99 0 1.98 0 3 0 C2.56643364 4.91375208 0.39377542 7.52729957 -3 11 C-5.3125 11.875 -5.3125 11.875 -7 12 C-6.72995846 8.03939073 -6.51428214 6.46285393 -3.5 3.75 C-2.675 3.1725 -1.85 2.595 -1 2 C-0.67 1.34 -0.34 0.68 0 0 Z " fill="#FEFEFE" transform="translate(212,155)"/>
<path d="M0 0 C5.33758345 2.77143756 9.7831481 5.24803996 11.75 11.3125 C11.87375 12.1478125 11.87375 12.1478125 12 13 C6.51525288 11.67036433 3.09378428 7.50248145 0 3 C0 2.01 0 1.02 0 0 Z " fill="#FEFEFE" transform="translate(47,180)"/>
<path d="M0 0 C0.7425 0.45375 1.485 0.9075 2.25 1.375 C4.46930578 2.68640796 6.67967822 3.88280803 9 5 C9 7.31 9 9.62 9 12 C6.11791034 11.35953563 4.43282445 10.65269374 2.77734375 8.15625 C0 2.66129032 0 2.66129032 0 0 Z " fill="#FEFEFE" transform="translate(30,155)"/>
<path d="M0 0 C1.6875 1.75 1.6875 1.75 3 4 C2.6875 6.25 2.6875 6.25 2 8 C-0.99324263 6.9024777 -1.84610901 6.32317108 -3.25 3.375 C-3.4975 2.59125 -3.745 1.8075 -4 1 C-2 0 -2 0 0 0 Z " fill="#FEFEFE" transform="translate(87,28)"/>
</svg>
