<?xml version="1.0" encoding="UTF-8"?>
<!-- Generator: visioncortex VTracer 0.6.4 -->
<svg version="1.1" xmlns="http://www.w3.org/2000/svg" width="282" height="290">
<path d="M0 0 C1.68681042 1.21580105 3.37430613 2.43065191 5.0625 3.64453125 C6.29033203 4.53519287 6.29033203 4.53519287 7.54296875 5.44384766 C10.67539629 7.6668005 13.89265881 9.7479397 17.11230469 11.84155273 C19 13.1875 19 13.1875 21.078125 15.515625 C23.97461274 18.03533384 27.08107755 17.86120861 30.75 17.9375 C31.44738281 17.96714844 32.14476562 17.99679688 32.86328125 18.02734375 C34.57490813 18.09768458 36.28745815 18.14489946 38 18.1875 C36.60152296 22.36049566 34.63966829 25.06759569 31.6875 28.3125 C30.92824219 29.16070312 30.16898437 30.00890625 29.38671875 30.8828125 C23.89322034 36.1875 23.89322034 36.1875 20 36.1875 C20.51204609 40.62604629 21.03434052 45.06334542 21.5625 49.5 C21.64592651 50.20113922 21.72935303 50.90227844 21.81530762 51.62466431 C23.05009338 61.93857938 24.39971773 72.23401365 25.82421875 82.5234375 C25.98237564 83.66614609 26.14053253 84.80885468 26.30348206 85.9861908 C27.09954596 91.72334625 27.90284123 97.45941786 28.71313477 103.19458008 C29.01192532 105.33153684 29.31067395 107.46849947 29.609375 109.60546875 C29.74981735 110.58546844 29.8902597 111.56546814 30.03495789 112.57516479 C31.3479822 122.01006443 31.3479822 122.01006443 31 126.1875 C29.09375 128.34765625 29.09375 128.34765625 26.5 130.25 C25.58476562 130.92289063 24.66953125 131.59578125 23.7265625 132.2890625 C22.82679688 132.91554687 21.92703125 133.54203125 21 134.1875 C20.28585938 134.71085938 19.57171875 135.23421875 18.8359375 135.7734375 C14.22275847 138.95303898 10.58831456 139.88812601 5 140.1875 C5.66 138.8675 6.32 137.5475 7 136.1875 C6.47792969 136.53683594 5.95585937 136.88617188 5.41796875 137.24609375 C-0.8072714 141.09462225 -5.75237784 142.06480748 -13 142.1875 C-14.89298828 142.24550781 -14.89298828 142.24550781 -16.82421875 142.3046875 C-21.55415665 142.40756007 -26.27136755 142.3192523 -31 142.1875 C-32.00595215 142.16381348 -33.0119043 142.14012695 -34.04833984 142.11572266 C-47.76113656 141.70523474 -58.10919799 141.16042493 -69 132.1875 C-69.77859375 131.75953125 -70.5571875 131.3315625 -71.359375 130.890625 C-73.73252495 129.47409364 -74.65978306 128.61684361 -76 126.1875 C-76.10900879 122.89831543 -76.10900879 122.89831543 -75.79101562 118.95117188 C-75.73564888 118.24307121 -75.68028214 117.53497055 -75.62323761 116.80541229 C-75.00217985 109.32737784 -74.01782003 101.89711301 -72.96875 94.46875 C-72.77026277 93.03111961 -72.57231737 91.59341432 -72.37487793 90.15563965 C-71.86093553 86.42305712 -71.34010517 82.69147043 -70.81756592 78.96008301 C-70.28711624 75.16404932 -69.76283448 71.36716472 -69.23828125 67.5703125 C-68.64758198 63.29531653 -68.05642137 59.02039531 -67.45983887 54.74621582 C-66.59826036 48.5644734 -65.74953166 42.38389004 -65 36.1875 C-65.70898438 36.13207031 -66.41796875 36.07664063 -67.1484375 36.01953125 C-70.92608373 34.91728653 -73.00175138 32.66039997 -75.625 29.875 C-76.10195312 29.38837891 -76.57890625 28.90175781 -77.0703125 28.40039062 C-84 21.24933811 -84 21.24933811 -84 18.1875 C-83.0255896 18.12018677 -83.0255896 18.12018677 -82.03149414 18.05151367 C-79.04083392 17.83802801 -76.05180749 17.60663029 -73.0625 17.375 C-72.04091797 17.30474609 -71.01933594 17.23449219 -69.96679688 17.16210938 C-63.75321147 16.66581661 -57.66181877 15.97927239 -52 13.1875 C-51.67 12.5275 -51.34 11.8675 -51 11.1875 C-51.60328125 11.47625 -52.2065625 11.765 -52.828125 12.0625 C-53.62734375 12.43375 -54.4265625 12.805 -55.25 13.1875 C-56.43335938 13.744375 -56.43335938 13.744375 -57.640625 14.3125 C-60 15.1875 -60 15.1875 -64 15.1875 C-62.88368256 11.83854768 -62.35697956 11.46810309 -59.54296875 9.59375 C-58.49206055 8.88412109 -58.49206055 8.88412109 -57.41992188 8.16015625 C-56.68322266 7.67417969 -55.94652344 7.18820313 -55.1875 6.6875 C-53.74305372 5.71940001 -52.29903051 4.75066842 -50.85546875 3.78125 C-50.17790527 3.33136719 -49.5003418 2.88148437 -48.80224609 2.41796875 C-47.38567452 1.45081612 -46.01955656 0.40973646 -44.67578125 -0.65625 C-43 -1.8125 -43 -1.8125 -40 -1.8125 C-39.67 -2.8025 -39.34 -3.7925 -39 -4.8125 C-24.9419821 -14.00428093 -12.5336533 -9.20741454 0 0 Z M-37 -1.8125 C-37 -1.1525 -37 -0.4925 -37 0.1875 C-38.051875 0.496875 -38.051875 0.496875 -39.125 0.8125 C-42.80173359 2.5709378 -45.47295079 4.99178141 -48 8.1875 C-48 8.8475 -48 9.5075 -48 10.1875 C-44.53611348 8.64083439 -41.81376173 6.57359908 -38.875 4.1875 C-38.00617188 3.48625 -37.13734375 2.785 -36.2421875 2.0625 C-33.98283467 0.22955566 -33.98283467 0.22955566 -32 -1.8125 C-33.65 -1.8125 -35.3 -1.8125 -37 -1.8125 Z M-25 1.1875 C-25 1.8475 -25 2.5075 -25 3.1875 C-24.34 3.1875 -23.68 3.1875 -23 3.1875 C-23 2.5275 -23 1.8675 -23 1.1875 C-23.66 1.1875 -24.32 1.1875 -25 1.1875 Z M-25 13.1875 C-24.67 13.8475 -24.34 14.5075 -24 15.1875 C-23.67 14.5275 -23.34 13.8675 -23 13.1875 C-23.66 13.1875 -24.32 13.1875 -25 13.1875 Z M4 13.1875 C4.33 13.8475 4.66 14.5075 5 15.1875 C5.66 14.8575 6.32 14.5275 7 14.1875 C6.01 13.8575 5.02 13.5275 4 13.1875 Z M7 15.1875 C7 15.8475 7 16.5075 7 17.1875 C10.63 17.1875 14.26 17.1875 18 17.1875 C17.67 16.5275 17.34 15.8675 17 15.1875 C13.7 15.1875 10.4 15.1875 7 15.1875 Z M-65 25.1875 C-65 25.5175 -65 25.8475 -65 26.1875 C-51.99498471 27.99092785 -39.19105119 28.50168354 -26.06811523 28.44824219 C-22.9377919 28.437501 -19.80804069 28.44821566 -16.67773438 28.4609375 C-4.97290388 28.46785832 6.41876866 27.91313786 18 26.1875 C18 25.8575 18 25.5275 18 25.1875 C-9.39 25.1875 -36.78 25.1875 -65 25.1875 Z M-55 40.1875 C-55.36378383 42.63882598 -55.66928702 45.07492088 -55.93969727 47.53710938 C-56.02762543 48.30618118 -56.11555359 49.07525299 -56.20614624 49.86763 C-56.49708133 52.42171496 -56.78177528 54.97645544 -57.06640625 57.53125 C-57.26639458 59.29866597 -57.4667521 61.06604021 -57.66746521 62.83337402 C-58.19578354 67.49490756 -58.71874684 72.15702752 -59.24072266 76.8192749 C-59.66844654 80.63187517 -60.09983775 84.44405613 -60.53144932 88.25621796 C-61.42134641 96.11634476 -62.30884215 103.97674508 -63.18969727 111.83789062 C-63.27228287 112.57143265 -63.35486847 113.30497467 -63.43995667 114.06074524 C-63.83384226 117.11668237 -63.83384226 117.11668237 -64 120.1875 C-50.86083256 121.75342765 -37.91283589 122.50824982 -24.68115234 122.44824219 C-21.86924839 122.43747798 -19.05797918 122.44824276 -16.24609375 122.4609375 C-4.69937157 122.46849376 6.55793861 121.73567844 18 120.1875 C16.74730642 103.91267838 15.16216239 87.69114461 13.34057617 71.47045898 C12.92973254 67.80571384 12.52613501 64.14021486 12.12304688 60.47460938 C11.86240263 58.13276533 11.6013511 55.79096657 11.33984375 53.44921875 C11.22003647 52.35880783 11.10022919 51.26839691 10.97679138 50.14494324 C10.86319778 49.14151382 10.74960419 48.13808441 10.63256836 47.10424805 C10.53423203 46.2239946 10.43589569 45.34374115 10.33457947 44.43681335 C10.04230995 42.02575001 10.04230995 42.02575001 9 39.1875 C0.80309439 39.1643729 -7.39379768 39.14658304 -15.59072781 39.13568783 C-19.39651577 39.1304598 -23.20228148 39.12336362 -27.00805664 39.11206055 C-30.67792544 39.1012288 -34.34777278 39.09522256 -38.01765633 39.09262276 C-39.42074992 39.09076903 -40.82384229 39.0871494 -42.2269268 39.08176994 C-44.1856968 39.07455581 -46.1444882 39.07409191 -48.10327148 39.07397461 C-49.22023911 39.071754 -50.33720673 39.06953339 -51.48802185 39.06724548 C-53.93905414 38.90239224 -53.93905414 38.90239224 -55 40.1875 Z M22 110.1875 C23 112.1875 23 112.1875 23 112.1875 Z M-64 129.1875 C-62.68 130.1775 -61.36 131.1675 -60 132.1875 C-59.67 131.5275 -59.34 130.8675 -59 130.1875 C-58.34 129.8575 -57.68 129.5275 -57 129.1875 C-59.31 129.1875 -61.62 129.1875 -64 129.1875 Z M-56 130.1875 C-56 130.5175 -56 130.8475 -56 131.1875 C-54.35 131.1875 -52.7 131.1875 -51 131.1875 C-51 130.8575 -51 130.5275 -51 130.1875 C-52.65 130.1875 -54.3 130.1875 -56 130.1875 Z M10 130.1875 C10.33 131.1775 10.66 132.1675 11 133.1875 C12.65 132.5275 14.3 131.8675 16 131.1875 C16 130.8575 16 130.5275 16 130.1875 C14.02 130.1875 12.04 130.1875 10 130.1875 Z M-26 131.1875 C-26 131.5175 -26 131.8475 -26 132.1875 C-23.69 132.1875 -21.38 132.1875 -19 132.1875 C-19 131.8575 -19 131.5275 -19 131.1875 C-21.31 131.1875 -23.62 131.1875 -26 131.1875 Z " fill="#FEFEFE" transform="translate(164,56.8125)"/>
<path d="M0 0 C0.66 0 1.32 0 2 0 C2.13986328 0.59425781 2.27972656 1.18851562 2.42382812 1.80078125 C5.88523633 17.32661346 5.88523633 17.32661346 16 29 C16.94890185 30.07659049 17.86913222 31.17956851 18.75 32.3125 C20.71839607 34.66363975 22.56557124 36.19671944 25 38 C25 38.66 25 39.32 25 40 C20.66666667 40 16.33333333 40 12 40 C12.79664063 40.92941406 13.59328125 41.85882813 14.4140625 42.81640625 C16.5390625 45.29557292 18.6640625 47.77473958 20.7890625 50.25390625 C21.58038574 51.17453857 21.58038574 51.17453857 22.38769531 52.11376953 C23.4876405 53.40059214 24.58046287 54.69352901 25.66699219 55.99169922 C26.19711914 56.62221191 26.72724609 57.25272461 27.2734375 57.90234375 C27.98765869 58.75880493 27.98765869 58.75880493 28.71630859 59.63256836 C29.97547982 61.13191531 29.97547982 61.13191531 32 62 C32 62.66 32 63.32 32 64 C24.67372525 64.47266289 19.62615673 63.09866202 13 60 C19.08372164 68.59611181 26.5127883 75.41373939 34.6875 82 C35.450625 82.66 36.21375 83.32 37 84 C37 84.66 37 85.32 37 86 C34.95775363 85.88485851 32.91619841 85.75742674 30.875 85.625 C29.73804688 85.55539063 28.60109375 85.48578125 27.4296875 85.4140625 C24.04606384 85.00556124 21.18387559 84.19032431 18 83 C22.186787 89.52646208 27.16054392 93.75664025 33.32470703 98.31762695 C34.91412313 99.50468886 36.46126824 100.74793607 38 102 C38 102.66 38 103.32 38 104 C25.93368706 105.2256977 16.18870379 99.8174258 6 94 C6.00523682 94.60884033 6.01047363 95.21768066 6.01586914 95.8449707 C6.18272378 118.17181175 6.18272378 118.17181175 5 127 C0.89583836 126.42732628 -2.0672135 125.5731146 -6 124 C-6 114.1 -6 104.2 -6 94 C-8.97 95.98 -11.94 97.96 -15 100 C-22.23297008 103.35208279 -29.06787924 104.63176183 -37 104 C-37 103.34 -37 102.68 -37 102 C-35.01079494 100.36376666 -33.01431849 98.82990325 -30.9375 97.3125 C-23.41294751 91.75820482 -23.41294751 91.75820482 -17 85 C-17 84.34 -17 83.68 -17 83 C-17.78375 83.33 -18.5675 83.66 -19.375 84 C-23.99361869 85.27410171 -28.24249356 85.16923936 -33 85 C-33 84.34 -33 83.68 -33 83 C-31.29781633 81.50618709 -29.53677109 80.07902984 -27.75 78.6875 C-23.93911626 75.71843846 -20.92629158 72.84036097 -18 69 C-17.154375 68.175 -16.30875 67.35 -15.4375 66.5 C-13.12504993 64.12825634 -11.57322412 61.89804443 -10 59 C-10.74443359 59.39832031 -10.74443359 59.39832031 -11.50390625 59.8046875 C-17.46073463 62.90178613 -23.13646625 65.41597174 -30 65 C-28.87336424 61.62009273 -27.57395431 60.85398777 -24.87890625 58.7109375 C-18.69336274 53.07836357 -13.73193716 45.86894104 -9 39 C-9.84304687 39.24556641 -9.84304687 39.24556641 -10.703125 39.49609375 C-13.13059056 40.02864997 -15.26889681 40.09898681 -17.75 40.0625 C-18.54921875 40.05347656 -19.3484375 40.04445312 -20.171875 40.03515625 C-20.77515625 40.02355469 -21.3784375 40.01195312 -22 40 C-22 39.34 -22 38.68 -22 38 C-20.390625 36.484375 -20.390625 36.484375 -18.25 34.75 C-14.76226021 31.79553501 -12.44711549 28.88163147 -10 25 C-8.37163262 23.2958946 -6.71230248 21.61974559 -5 20 C-2.92247965 17.92247965 -3.00165075 13.98093251 -2.5 11.125 C-1.12359023 3.37077068 -1.12359023 3.37077068 0 0 Z M4 41 C4.33 41.66 4.66 42.32 5 43 C5.66 42.67 6.32 42.34 7 42 C6.01 41.67 5.02 41.34 4 41 Z M-5 62 C-5.86380259 63.28524261 -6.71580369 64.57842419 -7.5625 65.875 C-8.03816406 66.59429687 -8.51382813 67.31359375 -9.00390625 68.0546875 C-9.33261719 68.69664062 -9.66132813 69.33859375 -10 70 C-9.67 70.66 -9.34 71.32 -9 72 C-8.13342884 70.90554162 -7.28207276 69.79902219 -6.4375 68.6875 C-5.96183594 68.07261719 -5.48617187 67.45773438 -4.99609375 66.82421875 C-4.66738281 66.22222656 -4.33867187 65.62023437 -4 65 C-4.33 64.01 -4.66 63.02 -5 62 Z " fill="#FEFEFE" transform="translate(244,94)"/>
<path d="M0 0 C0.66 0 1.32 0 2 0 C2.07404053 0.55349121 2.14808105 1.10698242 2.22436523 1.67724609 C3.9293138 13.64551178 5.61481962 21.73713755 15 30 C16.16881726 31.33437911 17.31765271 32.68676622 18.4375 34.0625 C20.66388997 36.99029015 20.66388997 36.99029015 23 38 C23 38.66 23 39.32 23 40 C21.1746875 40.061875 21.1746875 40.061875 19.3125 40.125 C18.62800781 40.14820313 17.94351563 40.17140625 17.23828125 40.1953125 C14.54898909 39.96064477 12.45464018 39.09190649 10 38 C13.63568389 43.34596122 17.2947232 48.55647912 21.5859375 53.3984375 C23.02032461 55.02301959 24.38561466 56.6914602 25.75 58.375 C27.72714742 61.02526413 27.72714742 61.02526413 30 62 C30 62.99 30 63.98 30 65 C22.90970159 64.00944361 17.24573162 62.53531978 11 59 C16.07135713 66.36164745 22.2946445 72.44799659 28.6640625 78.67773438 C29.35113281 79.35126953 30.03820312 80.02480469 30.74609375 80.71875 C31.37185303 81.32654297 31.9976123 81.93433594 32.64233398 82.56054688 C34 84 34 84 34 85 C27.90218999 85.22084624 22.78357065 85.01167675 17 83 C22.53647173 90.32768318 30.71967653 97.85983826 39 102 C39 102.66 39 103.32 39 104 C26.40594646 105.13573629 17.54257997 100.58911248 7 94 C7 103.9 7 113.8 7 124 C0 127 0 127 -3 127 C-3.05534912 126.24904053 -3.11069824 125.49808105 -3.16772461 124.72436523 C-3.42186246 121.29522322 -3.67964937 117.86636475 -3.9375 114.4375 C-4.06801758 112.66536133 -4.06801758 112.66536133 -4.20117188 110.85742188 C-4.6289061 105.20182491 -5.08733465 99.59932526 -6 94 C-6.51046875 94.38671875 -7.0209375 94.7734375 -7.546875 95.171875 C-16.60469159 101.66009823 -25.81729491 104.89065793 -37 104 C-37 103.34 -37 102.68 -37 102 C-35.3125 100.51953125 -35.3125 100.51953125 -33 98.8125 C-23.31723562 91.51528691 -23.31723562 91.51528691 -16 82 C-17.051875 82.474375 -18.10375 82.94875 -19.1875 83.4375 C-24.90290093 85.86082999 -29.84861046 86.10426084 -36 86 C-34.47992282 82.13466089 -32.18817503 80.32251489 -28.9375 77.8125 C-18.97187587 70.17665963 -18.97187587 70.17665963 -12 60 C-12.53367187 60.27714844 -13.06734375 60.55429688 -13.6171875 60.83984375 C-19.43425414 63.66786404 -24.5548024 64.73088945 -31 65 C-31 62 -31 62 -29.49609375 60.45703125 C-28.81675781 59.91433594 -28.13742188 59.37164062 -27.4375 58.8125 C-20.24307231 52.77070069 -14.67180496 45.44747642 -9 38 C-10.07314453 38.49113281 -10.07314453 38.49113281 -11.16796875 38.9921875 C-14.11391708 40.04053877 -16.20759508 40.20779746 -19.3125 40.125 C-20.19550781 40.10695312 -21.07851563 40.08890625 -21.98828125 40.0703125 C-22.65214844 40.04710937 -23.31601562 40.02390625 -24 40 C-24 39.34 -24 38.68 -24 38 C-22.49609375 36.51953125 -22.49609375 36.51953125 -20.4375 34.8125 C-16.42379417 31.39552211 -12.58149003 27.87142017 -9 24 C-8.31808594 23.28457031 -7.63617187 22.56914063 -6.93359375 21.83203125 C-4.40912911 18.13458304 -3.68528057 14.65430713 -2.8125 10.3125 C-1.07259825 2.14519651 -1.07259825 2.14519651 0 0 Z M-6 41 C-5 43 -5 43 -5 43 Z M-7 43 C-7.33 43.66 -7.66 44.32 -8 45 C-7.34 45 -6.68 45 -6 45 C-6.33 44.34 -6.66 43.68 -7 43 Z M4 61 C4.47202486 65.24822374 6.96655518 67.19989709 10 70 C8.68775452 66.06326356 7.08089673 63.77280706 4 61 Z " fill="#FEFEFE" transform="translate(37,94)"/>
<path d="M0 0 C0 0.99 0 1.98 0 3 C0.66 3 1.32 3 2 3 C2 2.01 2 1.02 2 0 C8.87657026 -1.63727863 12.91988872 0.28000789 18.8125 3.75 C20.54740747 4.8241157 22.27649856 5.90767622 24 7 C25.30904297 7.81984375 25.30904297 7.81984375 26.64453125 8.65625 C31.36753126 11.69087048 31.36753126 11.69087048 33 13 C33 13.66 33 14.32 33 15 C34.32 15.66 35.64 16.32 37 17 C37 18.32 37 19.64 37 21 C30.93854644 26.51957726 17.60066806 34 9 34 C8.77183594 34.52464844 8.54367188 35.04929687 8.30859375 35.58984375 C6.54895529 38.83073011 4.32282081 41.66289654 2.0625 44.5625 C1.61970703 45.13935547 1.17691406 45.71621094 0.72070312 46.31054688 C-0.50057048 47.88855614 -1.74928532 49.44522179 -3 51 C-3.495 51.62261719 -3.99 52.24523437 -4.5 52.88671875 C-6.6876933 54.51039737 -8.37714372 54.32909739 -11.0625 54.25 C-11.94035156 54.23453125 -12.81820312 54.2190625 -13.72265625 54.203125 C-16 54 -16 54 -18 53 C-18 52.34 -18 51.68 -18 51 C-18.66 51 -19.32 51 -20 51 C-20 51.66 -20 52.32 -20 53 C-30.90910502 51.15249028 -38.87696939 47.08202041 -48 41 C-48 40.34 -48 39.68 -48 39 C-48.87011719 38.61908203 -48.87011719 38.61908203 -49.7578125 38.23046875 C-53.7591028 36.03463871 -56.62236563 32.87335689 -59 29 C-58.90616837 23.74542862 -56.75379228 21.47963392 -53.1875 17.75 C-50.96409157 15.65478809 -49.0047469 14.00282553 -46.375 12.4375 C-43.89780488 10.93814506 -43.18277668 9.88277537 -41.5625 7.5625 C-36.44964584 1.2972668 -27.07637892 0.29680933 -19.4375 -0.75 C-3.95399023 -1.97699511 -3.95399023 -1.97699511 0 0 Z M-49 31 C-48.67 31.66 -48.34 32.32 -48 33 C-47.34 32.67 -46.68 32.34 -46 32 C-46.99 31.67 -47.98 31.34 -49 31 Z " fill="#FEFEFE" transform="translate(176,226)"/>
<path d="M0 0 C0.86044922 -0.02900391 1.72089844 -0.05800781 2.60742188 -0.08789062 C9.0193428 -0.15070522 13.67874502 1.2819697 19.3125 4.3125 C19.3125 5.3025 19.3125 6.2925 19.3125 7.3125 C17.2578125 9.2578125 17.2578125 9.2578125 14.4375 11.4375 C10.49403355 14.54862604 6.69515134 17.72231117 3 21.125 C-6.12861202 29.30779037 -6.12861202 29.30779037 -10.2734375 29.3203125 C-12.7752102 29.0890562 -15.21642113 28.76178707 -17.6875 28.3125 C-17.00042969 28.63863281 -16.31335938 28.96476562 -15.60546875 29.30078125 C-14.70441406 29.73777344 -13.80335937 30.17476562 -12.875 30.625 C-11.53501953 31.26888672 -11.53501953 31.26888672 -10.16796875 31.92578125 C-7.86325068 33.21424568 -6.29716354 34.23223715 -4.6875 36.3125 C-4.6875 37.3025 -4.6875 38.2925 -4.6875 39.3125 C-5.6775 39.6425 -6.6675 39.9725 -7.6875 40.3125 C-6.759375 40.580625 -5.83125 40.84875 -4.875 41.125 C-1.92383103 42.2244551 -0.49617971 42.80044485 1.3125 45.3125 C1.3125 46.3025 1.3125 47.2925 1.3125 48.3125 C-17.94749807 46.99305228 -36.37664179 43.49673325 -54.6875 37.3125 C-48.90933789 24.57695902 -39.11881498 19.22065672 -26.6875 14.3125 C-27.3475 14.3125 -28.0075 14.3125 -28.6875 14.3125 C-27.54926669 10.08477626 -25.80957691 8.33280574 -22.0859375 6.078125 C-21.50070313 5.74296875 -20.91546875 5.4078125 -20.3125 5.0625 C-19.44625 4.5365625 -19.44625 4.5365625 -18.5625 4 C-12.29449207 0.2792647 -7.12757053 0.07832495 0 0 Z " fill="#FEFEFE" transform="translate(109.6875,224.6875)"/>
<path d="M0 0 C0.66 0 1.32 0 2 0 C11.28509236 10.10367733 15.48698637 18.38311194 15 32 C14.75566907 34.69185288 14.40366897 37.3256931 14 40 C14.66 40 15.32 40 16 40 C16.66 41.98 17.32 43.96 18 46 C18.09087891 44.86111328 18.09087891 44.86111328 18.18359375 43.69921875 C18.26738281 42.70535156 18.35117188 41.71148437 18.4375 40.6875 C18.51871094 39.70136719 18.59992188 38.71523437 18.68359375 37.69921875 C19 35 19 35 20 32 C23 33 23 33 24.38671875 35.30078125 C27.52556693 42.56820451 29.51949865 49.07455742 28 57 C25.56122455 62.93287554 21.94886582 66.90761205 16.03515625 69.42578125 C12.89626994 70.31141712 10.24243401 70.27020283 7 70 C7.31839844 69.42507812 7.63679688 68.85015625 7.96484375 68.2578125 C9.7082995 64.45510524 9.8652077 61.08428929 9 57 C7.4000461 54.24905885 5.62918344 51.83244498 3.62890625 49.359375 C1.89012425 46.84085143 1.37877774 45.00888235 1 42 C-3.51181637 51.05693028 -5.89314863 57.90320733 -4 68 C-3.34 68 -2.68 68 -2 68 C-2 68.66 -2 69.32 -2 70 C-8.42151915 70.70052936 -11.80134782 69.52548254 -17.015625 65.72265625 C-20.57566073 62.63215279 -22.49970725 59.50087826 -24 55 C-24.41707321 48.84817009 -23.47115529 44.59905906 -21 39 C-20.71382813 38.32066406 -20.42765625 37.64132813 -20.1328125 36.94140625 C-19.43455217 35.28885679 -18.71907471 33.64359933 -18 32 C-17.01 32.33 -16.02 32.66 -15 33 C-14.34 36.3 -13.68 39.6 -13 43 C-12.7834375 40.958125 -12.7834375 40.958125 -12.5625 38.875 C-11.44324459 33.04658108 -8.6537268 28.84704309 -5.27563477 24.08740234 C-1.1140802 18.12660512 0.28713759 12.77762291 0.125 5.5625 C0.09792969 3.98662109 0.09792969 3.98662109 0.0703125 2.37890625 C0.04710937 1.59386719 0.02390625 0.80882813 0 0 Z " fill="#FEFEFE" transform="translate(139,104)"/>
<path d="M0 0 C3.63066628 0.90315082 7.24096797 1.28680621 10.953125 1.65625 C24.71696375 3.14608285 39.67945729 8.29725335 49.140625 18.78125 C51.19784932 20.55721318 53.27770743 22.30200849 55.37109375 24.03515625 C57.20090847 25.84073501 58.13801156 27.43153543 59.140625 29.78125 C50.00355979 33.07556603 41.82863032 33.93892097 32.140625 33.78125 C32.140625 33.12125 32.140625 32.46125 32.140625 31.78125 C31.480625 31.78125 30.820625 31.78125 30.140625 31.78125 C30.140625 32.77125 30.140625 33.76125 30.140625 34.78125 C23.79198776 35.52884653 19.29583957 35.51676813 14.078125 31.53125 C11.84057285 29.6376254 10.36370522 28.22901533 9.0546875 25.6015625 C8.25938084 23.487649 8.25938084 23.487649 5.578125 22.90625 C3.8765625 22.349375 3.8765625 22.349375 2.140625 21.78125 C-0.21669317 20.34942823 -2.47079965 18.80970109 -4.734375 17.234375 C-6.96464679 15.65935746 -6.96464679 15.65935746 -9.921875 14.09375 C-10.56125 13.660625 -11.200625 13.2275 -11.859375 12.78125 C-11.859375 11.79125 -11.859375 10.80125 -11.859375 9.78125 C-10.539375 9.12125 -9.219375 8.46125 -7.859375 7.78125 C-8.46265625 7.66007813 -9.0659375 7.53890625 -9.6875 7.4140625 C-10.88632813 7.16269531 -10.88632813 7.16269531 -12.109375 6.90625 C-12.89828125 6.74382812 -13.6871875 6.58140625 -14.5 6.4140625 C-16.82768644 5.78974925 -18.74969452 4.93286458 -20.859375 3.78125 C-20.859375 2.13125 -20.859375 0.48125 -20.859375 -1.21875 C-13.46216992 -3.2707711 -7.23266383 -2.18192093 0 0 Z M32.140625 19.78125 C33.130625 21.26625 33.130625 21.26625 34.140625 22.78125 C34.800625 22.45125 35.460625 22.12125 36.140625 21.78125 C34.820625 21.12125 33.500625 20.46125 32.140625 19.78125 Z " fill="#FEFEFE" transform="translate(212.859375,217.21875)"/>
<path d="M0 0 C0 1.32 0 2.64 0 4 C-9.41002278 7.25968109 -9.41002278 7.25968109 -14 8 C-12.35 8.66 -10.7 9.32 -9 10 C-11.23515864 15.2422535 -15.18497984 18.13589318 -20 21 C-24.90672745 22.73678719 -29.77942923 24 -35 24 C-35 24.66 -35 25.32 -35 26 C-39.99535689 30.88484015 -44.57338685 33.47937419 -51.625 33.4375 C-53.41917865 33.32677613 -55.21284804 33.19345459 -57 33 C-57 32.34 -57 31.68 -57 31 C-57.56332031 31.15984375 -58.12664063 31.3196875 -58.70703125 31.484375 C-66.22481312 33.17491539 -72.97212948 31.85188949 -80 29 C-76.10242473 19.25606182 -65.05288693 12.43656673 -55.875 8.4375 C-45.80826667 4.23717361 -35.73631043 1.79185319 -25 0 C-23.45892578 -0.28037109 -23.45892578 -0.28037109 -21.88671875 -0.56640625 C-14.07680394 -1.957213 -7.5796518 -2.9579129 0 0 Z " fill="#FEFEFE" transform="translate(91,217)"/>
<path d="M0 0 C1.11375 0.0721875 2.2275 0.144375 3.375 0.21875 C20.00399471 1.25083117 36.37641095 1.01187064 53 0 C54.4606285 2.64738916 55 3.89448334 55 7 C55.85271484 6.98646484 55.85271484 6.98646484 56.72265625 6.97265625 C62.80389987 7.20615976 65.64635816 8.79997355 69.78515625 13.2109375 C71 15 71 15 71 18 C40.40420875 21.03963824 11.59579125 21.03963824 -19 18 C-17.32748351 13.54991148 -15.88436653 10.9132749 -12 8 C-8.66771078 7.30088266 -5.3996497 7.07261388 -2 7 C-2 6.34 -2 5.68 -2 5 C-1.36096883 3.32254318 -0.69658363 1.65438613 0 0 Z M9 8 C9 8.33 9 8.66 9 9 C11.97 9 14.94 9 18 9 C18 8.67 18 8.34 18 8 C15.03 8 12.06 8 9 8 Z M39 8 C39 8.33 39 8.66 39 9 C42.3 9 45.6 9 49 9 C49 8.67 49 8.34 49 8 C45.7 8 42.4 8 39 8 Z M-5.1875 12 C-5.785625 12.66 -6.38375 13.32 -7 14 C-3.73045798 13.43628586 -2.17424117 12.50037734 0 10 C-3.12498166 9.6626154 -3.12498166 9.6626154 -5.1875 12 Z " fill="#FEFEFE" transform="translate(115,201)"/>
<path d="M0 0 C2.95409701 1.37154504 5.44008376 2.98863724 8 5 C7.92340652 5.54646179 7.84681305 6.09292358 7.76789856 6.65594482 C7.53207828 8.33851561 7.29634433 10.02109849 7.06066895 11.70368958 C6.77847021 13.71652852 6.49573818 15.72929276 6.21252441 17.74198914 C5.42256198 23.36283667 4.64288332 28.98481201 3.8815918 34.60961914 C2.45249279 45.10029948 0.96161931 55.5437411 -1 65.94921875 C-1.42873603 68.35935225 -1.85179733 70.77039399 -2.27212524 73.18200684 C-2.54639359 74.67128939 -2.84449188 76.15640325 -3.16757202 77.63586426 C-4.16604739 82.22077383 -4.84531567 86.31353831 -4 91 C-0.72140765 96.10106383 4.61647672 100.30823836 10 103 C10 103.66 10 104.32 10 105 C1.32955197 104.49978184 -7.81116055 101.97787231 -13.8125 95.375 C-15.20703125 93.6484375 -15.20703125 93.6484375 -16 92 C-15 89 -15 89 -12 87 C-12.84820312 86.35417969 -13.69640625 85.70835937 -14.5703125 85.04296875 C-17 82 -17 82 -16.9296875 78.17578125 C-16.60822265 76.54845169 -16.25334511 74.92755298 -15.875 73.3125 C-15.68486328 72.39694336 -15.49472656 71.48138672 -15.29882812 70.53808594 C-14.70577843 67.71442141 -14.08424544 64.89815696 -13.45739746 62.08184814 C-12.56209999 58.00689466 -11.71126012 53.92242532 -10.8515625 49.83984375 C-7.33622145 33.2040239 -3.70774769 16.59393893 0 0 Z M-10 75 C-9 78 -9 78 -9 78 Z " fill="#FEFEFE" transform="translate(87,92)"/>
<path d="M0 0 C0.66 0 1.32 0 2 0 C2.2121817 1.05210915 2.2121817 1.05210915 2.4286499 2.12547302 C3.77857153 8.81657553 5.13116185 15.50713392 6.48656845 22.19712734 C7.18288859 25.6344712 7.87826379 29.07199996 8.57128906 32.51000977 C9.37272423 36.48513347 10.17755139 40.45956045 10.984375 44.43359375 C11.24488647 45.71793304 11.50539795 47.00227234 11.77380371 48.32553101 C13.44532892 56.49270587 15.26288214 64.59991123 17.34472656 72.67211914 C18.04530401 76.23008159 18.25640926 79.38335301 18 83 C16 84.9375 16 84.9375 14 86 C15.32 87.32 16.64 88.64 18 90 C15.69277378 96.22951081 9.72645113 99.45710625 4.01953125 102.15234375 C-0.4004043 104.00751979 -4.20862662 105 -9 105 C-9 104.34 -9 103.68 -9 103 C-7.20703125 101.6328125 -7.20703125 101.6328125 -4.8125 100.125 C-3.19673594 99.10141481 -1.59301917 98.05863595 0 97 C1.31170166 96.14595581 1.31170166 96.14595581 2.64990234 95.2746582 C5.24600288 93.22215175 5.24600288 93.22215175 5.40795898 90.29711914 C5.29266846 89.20004639 5.17737793 88.10297363 5.05859375 86.97265625 C4.9962706 86.33731461 4.93394745 85.70197296 4.86973572 85.04737854 C4.61956419 82.69188277 4.31455135 80.34777679 4 78 C3.87119446 77.02456238 3.74238892 76.04912476 3.60968018 75.04412842 C2.50613923 66.83006403 1.2891777 58.63391276 0.0625 50.4375 C-0.30198215 47.97469069 -0.66591822 45.5118005 -1.02929688 43.04882812 C-2.85389402 30.69495413 -2.85389402 30.69495413 -4.69970703 18.34423828 C-4.97403564 16.48968018 -4.97403564 16.48968018 -5.25390625 14.59765625 C-5.40287354 13.60386963 -5.55184082 12.61008301 -5.70532227 11.58618164 C-6.00067675 8.99406062 -6.22914826 6.60216825 -6 4 C-3.5625 2.25 -3.5625 2.25 -1 1 C-0.67 0.67 -0.34 0.34 0 0 Z M9 73 C10 77 10 77 10 77 Z M10 77 C10 78.98 10 80.96 10 83 C10.33 83 10.66 83 11 83 C11 81.02 11 79.04 11 77 C10.67 77 10.34 77 10 77 Z M11 83 C12 86 12 86 12 86 Z " fill="#FEFEFE" transform="translate(194,92)"/>
<path d="M0 0 C1.16663314 0.65864717 2.32412499 1.33370936 3.47265625 2.0234375 C4.07803223 2.38606689 4.6834082 2.74869629 5.30712891 3.12231445 C7.06255069 4.19533304 8.79932766 5.29410118 10.53515625 6.3984375 C11.42074219 6.93597656 12.30632812 7.47351563 13.21875 8.02734375 C16.60201834 10.43362551 18.26867368 12.10000564 19.1171875 16.234375 C19.35209447 23.42078832 17.91889819 30.24390195 16.26953125 37.20703125 C15.41066304 40.93945319 14.91582181 44.59178189 14.53515625 48.3984375 C13.22145425 47.7550527 11.90922727 47.10865535 10.59765625 46.4609375 C9.86675781 46.10128906 9.13585937 45.74164063 8.3828125 45.37109375 C6.53515625 44.3984375 6.53515625 44.3984375 5.53515625 43.3984375 C6.00834983 37.53083712 6.96249843 31.84036472 8.1328125 26.07421875 C8.59064331 23.0294216 8.90338809 20.46841535 8.53515625 17.3984375 C6.5897149 15.26545193 6.5897149 15.26545193 3.91015625 13.7109375 C2.99492187 13.13085938 2.0796875 12.55078125 1.13671875 11.953125 C0.27820313 11.44007812 -0.5803125 10.92703125 -1.46484375 10.3984375 C-2.53734375 9.7178125 -3.60984375 9.0371875 -4.71484375 8.3359375 C-8.38955318 7.08319565 -9.89345558 7.97337931 -13.46484375 9.3984375 C-15.43865901 10.48051588 -17.37807792 11.62778619 -19.27734375 12.8359375 C-20.71013672 13.73119141 -20.71013672 13.73119141 -22.171875 14.64453125 C-24.73131634 16.26219397 -24.73131634 16.26219397 -25.46484375 19.3984375 C-25.23411013 22.02737129 -25.23411013 22.02737129 -24.6875 24.94140625 C-24.41196289 26.55112305 -24.41196289 26.55112305 -24.13085938 28.19335938 C-23.93169922 29.31291016 -23.73253906 30.43246094 -23.52734375 31.5859375 C-23.33205078 32.71708984 -23.13675781 33.84824219 -22.93554688 35.01367188 C-22.45182928 37.80979551 -21.96134321 40.60456005 -21.46484375 43.3984375 C-27.08984375 47.3984375 -27.08984375 47.3984375 -30.46484375 47.3984375 C-36.1240123 22.70866959 -36.1240123 22.70866959 -35.46484375 14.3984375 C-33.52734375 11.3984375 -33.52734375 11.3984375 -30.46484375 9.3984375 C-29.90539062 8.93566406 -29.3459375 8.47289062 -28.76953125 7.99609375 C-20.02594433 0.80732877 -11.09330555 -5.12768351 0 0 Z " fill="#FEFEFE" transform="translate(149.46484375,2.6015625)"/>
<path d="M0 0 C0.85980469 0.36867188 1.71960938 0.73734375 2.60546875 1.1171875 C4.01893799 1.76263009 5.42268233 2.43009117 6.8125 3.125 C6.8125 3.785 6.8125 4.445 6.8125 5.125 C-2.57279449 9.01713683 -12.01484999 12.03048061 -21.875 14.5 C-22.91398438 14.76248535 -23.95296875 15.0249707 -25.0234375 15.29541016 C-29.5285194 16.39297178 -33.52801865 17.27238909 -38.1875 17.125 C-36.0437606 12.252865 -33.71895294 7.45735782 -28.8918457 4.91674805 C-26.18098993 3.90800446 -23.46620534 3.05265216 -20.6875 2.25 C-19.75035156 1.95609375 -18.81320313 1.6621875 -17.84765625 1.359375 C-5.56117385 -2.43984934 -5.56117385 -2.43984934 0 0 Z " fill="#FEFEFE" transform="translate(221.1875,256.875)"/>
<path d="M0 0 C0.886875 0.46792969 1.77375 0.93585938 2.6875 1.41796875 C5.125 2.8125 5.125 2.8125 8 4.8125 C12.73347869 7.84192636 17.91045319 9.75368217 23.125 11.8125 C23.125 12.4725 23.125 13.1325 23.125 13.8125 C21.73493485 14.34853819 20.33757351 14.86567473 18.9375 15.375 C18.16019531 15.66503906 17.38289063 15.95507812 16.58203125 16.25390625 C12.36562833 17.21248434 9.87832298 16.2361823 6.15234375 14.140625 C5.13269531 13.45484375 4.11304688 12.7690625 3.0625 12.0625 C2.04027344 11.38703125 1.01804688 10.7115625 -0.03515625 10.015625 C-2.83806229 7.84115594 -4.73328399 5.61724168 -6.875 2.8125 C-7.535 2.4825 -8.195 2.1525 -8.875 1.8125 C-8.875 0.8225 -8.875 -0.1675 -8.875 -1.1875 C-5.17772843 -2.5761066 -3.41791376 -1.81543394 0 0 Z " fill="#FEFEFE" transform="translate(128.875,273.1875)"/>
<path d="M0 0 C2.61773306 2.53329005 2.79082437 4.28144696 2.9375 7.875 C2.6075 9.195 2.2775 10.515 1.9375 11.875 C-4.3325 11.875 -10.6025 11.875 -17.0625 11.875 C-18.0625 2.875 -18.0625 2.875 -16.25 0.3125 C-10.82382144 -2.13460013 -5.56564266 -2.04452179 0 0 Z " fill="#FEFEFE" transform="translate(149.0625,32.125)"/>
</svg>
