<?xml version="1.0" encoding="UTF-8"?>
<!-- Generator: visioncortex VTracer 0.6.4 -->
<svg version="1.1" xmlns="http://www.w3.org/2000/svg" width="290" height="214">
<path d="M0 0 C5.43233905 1.56953616 10.12127388 4.06972766 15.0625 6.75 C22.5980089 10.78304815 30.17878035 14.545745 38 18 C38 18.99 38 19.98 38 21 C37.21625 21.433125 36.4325 21.86625 35.625 22.3125 C32.78595609 23.83114367 32.78595609 23.83114367 31.5 26.875 C30.86552371 30.84047683 31.74014797 31.76530984 34 35 C40.84598375 42.51524489 49.34806809 47.69115065 58.01123047 52.81982422 C59.84235158 53.90644826 61.65834287 55.01454167 63.47265625 56.12890625 C70.1025806 60.09135227 76.84213473 63.40141364 83.9375 66.4375 C84.73067627 66.77990723 85.52385254 67.12231445 86.34106445 67.47509766 C92.95794056 70.27945968 92.95794056 70.27945968 100 71 C102.64380518 69.08695181 104.5104549 66.69109 106.5 64.125 C107.06823486 63.42971191 107.63646973 62.73442383 108.22192383 62.01806641 C109.83825401 60.02955646 111.4227101 58.01952567 113 56 C114.01126953 54.73929688 114.01126953 54.73929688 115.04296875 53.453125 C116.72718673 51.32484955 118.36384315 49.16539209 120 47 C120.72058594 46.07574219 121.44117187 45.15148437 122.18359375 44.19921875 C127.27216679 37.66142011 132.20747143 31.02574966 137.0625 24.3125 C137.63500488 23.52174072 138.20750977 22.73098145 138.79736328 21.91625977 C139.32958496 21.17690186 139.86180664 20.43754395 140.41015625 19.67578125 C141.12377319 18.6844519 141.12377319 18.6844519 141.85180664 17.6730957 C143.05962923 15.99521444 143.05962923 15.99521444 144 14 C144.66 14 145.32 14 146 14 C147.42342879 15.86580518 148.76232837 17.79630294 150.0625 19.75 C150.87839138 20.9569594 151.69614296 22.16266314 152.515625 23.3671875 C152.93134766 23.97916992 153.34707031 24.59115234 153.77539062 25.22167969 C162.74926631 38.25312118 172.99506899 50.52302721 183.11328125 62.67578125 C185 65 185 65 186.41796875 67.04296875 C187.68684848 68.95556545 187.68684848 68.95556545 190 71 C196.04326897 70.78416897 200.95254886 68.526052 206.375 66 C207.2513208 65.59628174 208.1276416 65.19256348 209.03051758 64.77661133 C220.9335141 59.23465192 232.3435953 53.40844029 243.125 45.875 C243.81166748 45.39635498 244.49833496 44.91770996 245.20581055 44.42456055 C253.65303103 38.69948143 253.65303103 38.69948143 258.68359375 30.34765625 C258.60238281 29.59355469 258.52117187 28.83945313 258.4375 28.0625 C258.34275391 26.90427734 258.34275391 26.90427734 258.24609375 25.72265625 C258.16488281 25.15417969 258.08367187 24.58570312 258 24 C256.824375 23.5359375 256.824375 23.5359375 255.625 23.0625 C253 22 253 22 251 21 C252 18 252 18 254.23388672 16.65307617 C255.20600098 16.20424072 256.17811523 15.75540527 257.1796875 15.29296875 C258.79230469 14.5359668 258.79230469 14.5359668 260.4375 13.76367188 C261.571875 13.24353516 262.70625 12.72339844 263.875 12.1875 C271.35136343 8.7175878 278.69516744 5.17754752 285.85986328 1.0949707 C288 0 288 0 290 0 C289.40888511 6.53093552 287.82943101 12.38019153 285.83203125 18.61328125 C285.51473557 19.62231003 285.19743988 20.63133881 284.87052917 21.67094421 C283.85762026 24.88686919 282.83525113 28.09969328 281.8125 31.3125 C281.14455147 33.42753526 280.47722842 35.54276816 279.81054688 37.65820312 C277.33754725 45.49712665 274.84985691 53.33135541 272.35571289 61.16357422 C269.94543511 68.74589847 267.58112653 76.33690743 265.33203125 83.96875 C265.12159683 84.68004562 264.91116241 85.39134125 264.6943512 86.12419128 C263.84750388 88.98742183 263.00083815 91.85057287 262.16918945 94.71826172 C261.54475546 96.86695876 260.90828128 99.01177216 260.26953125 101.15625 C259.90448486 102.40212891 259.53943848 103.64800781 259.16333008 104.93164062 C258.06703634 107.82318724 257.43835845 109.18657814 255 111 C251.75 112.421875 251.75 112.421875 248 113.75 C246.7625 114.19859375 245.525 114.6471875 244.25 115.109375 C241 116 241 116 238 115 C243.04668334 100.54443832 248.39241472 86.26147493 254.28051758 72.12573242 C256.76512443 66.14134694 259.04040966 60.17725168 261 54 C260.6282666 54.58789307 260.2565332 55.17578613 259.87353516 55.78149414 C249.92881325 71.49538061 239.92021317 87.09347481 229.03125 102.171875 C227.65326608 104.09045261 226.31028825 106.03456762 225 108 C225.61488281 108.33773437 226.22976562 108.67546875 226.86328125 109.0234375 C227.67152344 109.46945313 228.47976562 109.91546875 229.3125 110.375 C230.51326172 111.03628906 230.51326172 111.03628906 231.73828125 111.7109375 C233.53527943 112.73513335 235.27900708 113.85267138 237 115 C237 115.66 237 116.32 237 117 C217.96198364 123.47426156 198.72246777 128.79198446 179.17675781 133.47418213 C177.05264198 133.9872838 174.93238372 134.51415062 172.8125 135.04443359 C155.28973594 139.38658308 140.67162173 140.91159157 123.0635376 136.5088501 C120.72528972 135.93225888 118.38169516 135.38165848 116.03662109 134.83349609 C94.42516242 129.7696978 72.96285248 124.34981969 52 117 C53.43814483 113.93000898 54.3539294 112.42857488 57.375 110.8125 C57.96023437 110.48894531 58.54546875 110.16539062 59.1484375 109.83203125 C61.0777796 108.96504841 62.93687694 108.44988807 65 108 C64.32195312 107.09121094 63.64390625 106.18242187 62.9453125 105.24609375 C51.14552228 89.34835209 40.5778081 72.72870952 30 56 C30.63116165 58.69866744 31.41236532 61.24354677 32.41113281 63.82788086 C32.6952301 64.56642807 32.97932739 65.30497528 33.27203369 66.06590271 C33.57929382 66.85755325 33.88655396 67.6492038 34.203125 68.46484375 C34.52279236 69.29399796 34.84245972 70.12315216 35.17181396 70.97743225 C36.19567302 73.63164478 37.22277161 76.28458989 38.25 78.9375 C38.92599846 80.68806718 39.6017819 82.43871741 40.27734375 84.18945312 C40.60738403 85.04423248 40.93742432 85.89901184 41.27746582 86.7796936 C41.93317723 88.47852888 42.58837423 90.17756281 43.24304199 91.87680054 C44.67737381 95.59598055 46.11888892 99.31122359 47.59960938 103.01220703 C48.05658203 104.16446777 48.51355469 105.31672852 48.984375 106.50390625 C49.37850586 107.48302979 49.77263672 108.46215332 50.17871094 109.47094727 C51 112 51 112 51 116 C46.74817849 115.38987315 42.8495543 114.47360157 38.8125 113 C37.78769531 112.649375 36.76289062 112.29875 35.70703125 111.9375 C31.67314421 109.05033121 31.23445204 105.65357965 30 101 C29.44570402 99.26776269 28.88148891 97.53867534 28.30859375 95.8125 C24.18778596 83.04242684 20.22863381 70.23001853 16.36245728 57.38119507 C13.53716214 47.99573283 10.63810926 38.63984557 7.625 29.3125 C0 5.66484837 0 5.66484837 0 0 Z M263 49 C264 51 264 51 264 51 Z M27 51 C28 53 28 53 28 53 Z M262 51 C263 53 263 53 263 53 Z M144 64 C142.57657121 65.86580518 141.23767163 67.79630294 139.9375 69.75 C136.0894381 75.46949345 132.05221354 80.97622332 127.84765625 86.44140625 C126.29721185 88.58842756 125.08160846 90.5932796 124 93 C130.69725108 101.59918945 137.82629109 109.79835109 145 118 C147.79430089 115.2920572 150.2840534 112.49597397 152.6875 109.4375 C157.06372217 103.90747161 161.52426114 98.44962648 166 93 C162.02985836 86.99282233 157.95796367 81.05588819 153.875 75.125 C152.78251953 73.52011719 152.78251953 73.52011719 151.66796875 71.8828125 C150.97058594 70.8721875 150.27320313 69.8615625 149.5546875 68.8203125 C148.60311768 67.43223389 148.60311768 67.43223389 147.63232422 66.01611328 C147.09365723 65.3507959 146.55499023 64.68547852 146 64 C145.34 64 144.68 64 144 64 Z M95 81 C93.88868368 82.20392601 92.81132927 83.43928448 91.75 84.6875 C88.94978983 87.93805324 86.07895628 91.01434542 83 94 C84.61537444 97.89917968 87.27924873 100.71293772 90.125 103.75 C90.59292969 104.25660156 91.06085938 104.76320313 91.54296875 105.28515625 C92.69126541 106.52719141 93.84508672 107.76411494 95 109 C98.22292588 105.82222895 101.32144423 102.58412265 104.3125 99.1875 C105.00988281 98.39730469 105.70726563 97.60710937 106.42578125 96.79296875 C107.20501953 95.90544922 107.20501953 95.90544922 108 95 C107.63648437 94.57589844 107.27296875 94.15179688 106.8984375 93.71484375 C106.14433594 92.83505859 106.14433594 92.83505859 105.375 91.9375 C104.83230469 91.30585938 104.28960937 90.67421875 103.73046875 90.0234375 C102.5812117 88.67961097 101.43791326 87.33066453 100.30078125 85.9765625 C99.76839844 85.34492188 99.23601562 84.71328125 98.6875 84.0625 C98.19636719 83.47597656 97.70523438 82.88945312 97.19921875 82.28515625 C96.80347656 81.86105469 96.40773438 81.43695313 96 81 C95.67 81 95.34 81 95 81 Z M194 81 C191.94769227 83.14358684 189.93375694 85.30525808 187.9375 87.5 C187.36966797 88.12003906 186.80183594 88.74007812 186.21679688 89.37890625 C184.80878746 90.9170678 183.40408716 92.45825724 182 94 C185.80304814 99.19210472 189.76158542 104.15609762 194 109 C198.88049925 105.0580583 203.0580583 100.88049925 207 96 C205.38419835 92.12207603 202.75734641 89.28921212 199.9375 86.25 C199.47794922 85.74339844 199.01839844 85.23679687 198.54492188 84.71484375 C197.38757425 83.45382769 196.19649813 82.22393107 195 81 C194.67 81 194.34 81 194 81 Z " fill="#FEFEFE" transform="translate(0,51)"/>
<path d="M0 0 C0.67949707 0.18997559 1.35899414 0.37995117 2.05908203 0.57568359 C29.82228476 8.32216424 57.63866381 15.90846991 85.68389893 22.57498169 C87.37425284 22.97846257 89.06338771 23.38709052 90.75115967 23.80123901 C103.26796357 26.91819687 103.26796357 26.91819687 116 26 C117.22203125 25.7532251 118.4440625 25.5064502 119.703125 25.25219727 C124.27764881 24.3035932 128.825922 23.25052021 133.375 22.1875 C134.20882202 21.99458374 135.04264404 21.80166748 135.9017334 21.60290527 C154.5475035 17.27619926 172.98793965 12.22959549 191.42337036 7.09089661 C200.2580432 4.63509174 209.12598349 2.30891339 218 0 C217.84184814 1.08966064 217.68369629 2.17932129 217.52075195 3.30200195 C217.19916011 5.58571111 216.90836654 7.87429098 216.66796875 10.16796875 C216.14619786 13.4470655 215.44171935 16.00316764 214 19 C211.86669922 20.26464844 211.86669922 20.26464844 209.1171875 21.046875 C208.0336499 21.36164795 206.9501123 21.6764209 205.83374023 22.00073242 C204.56860596 22.33049072 203.30347168 22.66024902 202 23 C201.29312042 23.18648102 200.58624084 23.37296204 199.85794067 23.56509399 C193.90021647 25.12885554 187.92048196 26.59896236 181.9375 28.0625 C178.01888073 29.02601903 174.10104519 29.99268192 170.18359375 30.9609375 C169.18423798 31.2076268 168.1848822 31.4543161 167.15524292 31.70848083 C160.07706162 33.46361425 153.02161549 35.29534477 145.97265625 37.1640625 C144.02813338 37.67591726 142.0835541 38.18755775 140.13891602 38.69897461 C137.34746506 39.43325519 134.55764539 40.17187982 131.771698 40.92678833 C114.32025619 45.65247347 101.82816739 45.16499204 84.4375 40.5625 C82.66904141 40.1057769 80.90023618 39.6503941 79.13110352 39.19628906 C75.51502685 38.26572395 71.90118615 37.32713912 68.2890625 36.38134766 C62.56978328 34.88463951 56.84277377 33.41908042 51.114151 31.95861816 C47.4412438 31.02138895 43.77019675 30.07806963 40.10327148 29.11767578 C33.69417001 27.44118158 27.28690491 25.81505894 20.81640625 24.38671875 C19.19810913 24.01401855 19.19810913 24.01401855 17.54711914 23.63378906 C15.59036336 23.18665602 13.62734193 22.76568209 11.65795898 22.37792969 C5.65836098 20.97271107 5.65836098 20.97271107 3.81323242 18.24658203 C3.00457929 16.17309983 2.46610146 14.17436588 2 12 C1.68675781 10.948125 1.37351563 9.89625 1.05078125 8.8125 C0.80714844 7.884375 0.56351563 6.95625 0.3125 6 C-0.06455078 4.576875 -0.06455078 4.576875 -0.44921875 3.125 C-0.63097656 2.42375 -0.81273437 1.7225 -1 1 C-0.67 0.67 -0.34 0.34 0 0 Z " fill="#FEFEFE" transform="translate(36,169)"/>
<path d="M0 0 C0.66 0 1.32 0 2 0 C2.30292969 1.01578125 2.60585937 2.0315625 2.91796875 3.078125 C7.28631899 20.98511174 7.28631899 20.98511174 19 34 C24.47424577 36.46221535 30.0058333 38.35198198 36 39 C36 39.99 36 40.98 36 42 C35.20078125 42.14695313 34.4015625 42.29390625 33.578125 42.4453125 C25.55924336 44.08297143 17.61893631 45.97562562 11 51 C9.22270929 53.81928637 7.88087312 56.66097038 6.51171875 59.6953125 C5 62 5 62 2.64453125 62.9296875 C0.36542349 63.16289853 -1.72214958 63.21766126 -4 63 C-4.29390625 61.89591797 -4.29390625 61.89591797 -4.59375 60.76953125 C-6.6114884 53.96973514 -6.6114884 53.96973514 -11.4375 49.0625 C-18.72295041 45.30359031 -26.93220681 43.21138036 -35 42 C-35 41.01 -35 40.02 -35 39 C-34.41734375 38.92523438 -33.8346875 38.85046875 -33.234375 38.7734375 C-25.2532945 37.49345289 -15.24444564 34.58311795 -10 28 C-5.47026579 19.18893636 -2.82156033 9.46123209 0 0 Z " fill="#FEFEFE" transform="translate(144,0)"/>
<path d="M0 0 C3.09570047 1.36279951 5.05306987 2.86597082 7.3125 5.37109375 C7.91320312 6.02787109 8.51390625 6.68464844 9.1328125 7.36132812 C10.05707031 8.3890332 10.05707031 8.3890332 11 9.4375 C12.2261044 10.79314054 13.45518288 12.14609827 14.6875 13.49609375 C15.22761719 14.09607178 15.76773438 14.6960498 16.32421875 15.31420898 C17.99016482 17.09167451 17.99016482 17.09167451 20.20703125 18.53149414 C20.79871094 19.01610107 21.39039063 19.50070801 22 20 C22 20.99 22 21.98 22 23 C21.34 23 20.68 23 20 23 C19.74089844 23.56589844 19.48179688 24.13179687 19.21484375 24.71484375 C17.879282 27.22707405 16.32117377 29.32728237 14.5625 31.5625 C13.96566406 32.32691406 13.36882812 33.09132812 12.75390625 33.87890625 C11.23868526 35.711345 9.79190162 37.43770137 8 39 C7.34 39 6.68 39 6 39 C5.34 36.36 4.68 33.72 4 31 C3.67 31 3.34 31 3 31 C2.34 34.96 1.68 38.92 1 43 C-3.20933513 42.15813297 -6.41267079 41.10885537 -10.3125 39.4375 C-11.38113281 38.98246094 -12.44976562 38.52742188 -13.55078125 38.05859375 C-14.76314453 37.53458984 -14.76314453 37.53458984 -16 37 C-14.65622923 32.62782876 -12.93168027 28.7367346 -10.8125 24.6875 C-6.6895469 16.67058559 -3.33349924 8.36921086 0 0 Z " fill="#FEFEFE" transform="translate(95,75)"/>
<path d="M0 0 C0.66 0 1.32 0 2 0 C2.24121582 0.5983667 2.48243164 1.1967334 2.73095703 1.81323242 C9.02732401 17.42209263 9.02732401 17.42209263 16.00390625 32.734375 C17 35 17 35 17 37 C14.37690901 38.17112946 11.75171858 39.33705964 9.125 40.5 C8.37863281 40.83386719 7.63226563 41.16773438 6.86328125 41.51171875 C6.14785156 41.82753906 5.43242187 42.14335938 4.6953125 42.46875 C4.03547363 42.76201172 3.37563477 43.05527344 2.69580078 43.35742188 C1 44 1 44 -1 44 C-1.33 38.72 -1.66 33.44 -2 28 C-3.65 30.97 -5.3 33.94 -7 37 C-7.66 37 -8.32 37 -9 37 C-10.23681641 35.62304688 -10.23681641 35.62304688 -11.6015625 33.71875 C-12.09140625 33.04199219 -12.58125 32.36523438 -13.0859375 31.66796875 C-13.59382812 30.95253906 -14.10171875 30.23710938 -14.625 29.5 C-15.140625 28.78457031 -15.65625 28.06914063 -16.1875 27.33203125 C-17.46422959 25.55879571 -18.73470027 23.78140052 -20 22 C-18.30711205 18.34614774 -16.39454167 16.37421925 -13.3125 13.75 C-8.78898831 9.79028832 -4.84487198 5.60914317 -1 1 C-0.67 0.67 -0.34 0.34 0 0 Z " fill="#FEFEFE" transform="translate(193,75)"/>
<path d="M0 0 C2 0 2 0 3.55078125 1.5390625 C4.42283203 2.57160156 4.42283203 2.57160156 5.3125 3.625 C5.92867187 4.35332031 6.54484375 5.08164062 7.1796875 5.83203125 C7.78039062 6.54746094 8.38109375 7.26289062 9 8 C9.77730469 8.87205078 9.77730469 8.87205078 10.5703125 9.76171875 C14 13.65196429 14 13.65196429 14 17 C13.278125 17.185625 12.55625 17.37125 11.8125 17.5625 C7.95649225 19.53334841 6.26330124 22.39798015 4 26 C1 25 1 25 -0.875 23.0625 C-3.15239462 20.85208757 -5.01708098 19.99430634 -8 19 C-7.70302239 12.31800388 -4.80528873 4.80528873 0 0 Z " fill="#FEFEFE" transform="translate(92,46)"/>
<path d="M0 0 C0.66 0 1.32 0 2 0 C8.70387244 12.48519362 8.70387244 12.48519362 9 19 C8.46890625 19.25394531 7.9378125 19.50789063 7.390625 19.76953125 C3.6675828 21.58349524 0.20237785 23.3313518 -3 26 C-7 20.25 -7 20.25 -7 18 C-8.98 17.34 -10.96 16.68 -13 16 C-12.48202802 11.999113 -10.66212161 10.51619136 -7.625 8 C-5.23380531 6.00603961 -3.18985748 4.25670871 -1.3359375 1.75 C-0.89507812 1.1725 -0.45421875 0.595 0 0 Z " fill="#FEFEFE" transform="translate(197,46)"/>
<path d="M0 0 C0.66 0 1.32 0 2 0 C3.4375 1.93359375 3.4375 1.93359375 5 4.4375 C6.9529916 7.81006651 6.9529916 7.81006651 10 10 C8.63629701 12.99220268 7.05091917 15.29026529 4.875 17.75 C4.06675781 18.67039063 4.06675781 18.67039063 3.2421875 19.609375 C2.83226562 20.06828125 2.42234375 20.5271875 2 21 C-1.76029095 19.30865575 -3.4866339 17.26737593 -6 14 C-6.66 13.67 -7.32 13.34 -8 13 C-8 12.01 -8 11.02 -8 10 C-7.34 10 -6.68 10 -6 10 C-5.7525 9.46375 -5.505 8.9275 -5.25 8.375 C-3.69347463 5.4176018 -1.96564327 2.70275949 0 0 Z " fill="#FEFEFE" transform="translate(144,132)"/>
<path d="M0 0 C2.4375 0.8125 2.4375 0.8125 5 2 C5.33 2.99 5.66 3.98 6 5 C6.66 5 7.32 5 8 5 C7.67 6.65 7.34 8.3 7 10 C5.3125 10.75 5.3125 10.75 3 11 C0.25 9.0625 0.25 9.0625 -2 7 C-1.34 4.69 -0.68 2.38 0 0 Z " fill="#FEFEFE" transform="translate(48,143)"/>
<path d="M0 0 C0.99 0.33 1.98 0.66 3 1 C3.33 3.31 3.66 5.62 4 8 C2.25 9.5625 2.25 9.5625 0 11 C-2.25 10.6875 -2.25 10.6875 -4 10 C-4.8125 7.8125 -4.8125 7.8125 -5 5 C-2.5625 2.1875 -2.5625 2.1875 0 0 Z " fill="#FEFEFE" transform="translate(239,143)"/>
</svg>
