<?xml version="1.0" encoding="UTF-8"?>
<!-- Generator: visioncortex VTracer 0.6.4 -->
<svg version="1.1" xmlns="http://www.w3.org/2000/svg" width="290" height="210">
<path d="M0 0 C31.35236219 5.00954267 60.92441646 15.19260184 88 32 C86.70356062 34.89205708 85.49960636 37.0208098 83 39 C80.63989258 39.34057617 80.63989258 39.34057617 77.89453125 39.29296875 C76.91162109 39.28330078 75.92871094 39.27363281 74.91601562 39.26367188 C73.89185547 39.23853516 72.86769531 39.21339844 71.8125 39.1875 C70.77673828 39.17396484 69.74097656 39.16042969 68.67382812 39.14648438 C66.11536301 39.11111389 63.5579422 39.06175544 61 39 C62.21558594 39.45890625 63.43117188 39.9178125 64.68359375 40.390625 C66.26854789 41.00960117 67.85316625 41.62943762 69.4375 42.25 C70.23994141 42.55035156 71.04238281 42.85070313 71.86914062 43.16015625 C72.63291016 43.46308594 73.39667969 43.76601562 74.18359375 44.078125 C74.89056396 44.35043945 75.59753418 44.62275391 76.32592773 44.90332031 C78.53759847 46.35217913 78.4715003 47.48205241 79 50 C80.66270287 51.33827304 82.32916181 52.67189785 84 54 C84 54.99 84 55.98 84 57 C83.00097656 57.56589844 82.00195312 58.13179687 80.97265625 58.71484375 C79.66922254 59.4556442 78.36583975 60.19653425 77.0625 60.9375 C76.40314453 61.31068359 75.74378906 61.68386719 75.06445312 62.06835938 C71.84167167 63.76962813 71.84167167 63.76962813 69 66 C69.67579102 65.92370361 70.35158203 65.84740723 71.04785156 65.76879883 C74.11361127 65.4325763 77.18146116 65.12228678 80.25 64.8125 C81.84521484 64.63170898 81.84521484 64.63170898 83.47265625 64.44726562 C84.49746094 64.34736328 85.52226563 64.24746094 86.578125 64.14453125 C87.52075195 64.04503174 88.46337891 63.94553223 89.43457031 63.84301758 C92.5990422 64.03665627 93.80172769 64.74156973 96 67 C96.63769531 68.90112305 96.63769531 68.90112305 96.828125 71.01171875 C96.94414062 72.14770508 96.94414062 72.14770508 97.0625 73.30664062 C97.124375 74.09232422 97.18625 74.87800781 97.25 75.6875 C97.36601562 76.88342773 97.36601562 76.88342773 97.484375 78.10351562 C97.67254285 80.06751757 97.83843884 82.03363056 98 84 C99.32 81.36 100.64 78.72 102 76 C102.99 76 103.98 76 105 76 C111.54870844 84.09207069 110.64197798 93.34454498 110.48828125 103.16015625 C110.47894222 104.91848236 110.47183126 106.67682158 110.46684265 108.43516541 C110.44785844 113.03694315 110.39883316 117.63791715 110.34332275 122.23937988 C110.29194382 126.94528332 110.26928901 131.6513181 110.24414062 136.35742188 C110.19070483 145.57196546 110.10549766 154.78591559 110 164 C105.38952016 164 105.16824366 163.6205547 102.0625 160.5625 C74.08760708 134.72205508 36.33635903 124.29620639 0 117 C-0.8151378 110.09826452 -1.14448508 103.31208689 -1.12939453 96.36547852 C-1.13114685 95.35446579 -1.13289917 94.34345306 -1.13470459 93.30180359 C-1.13906978 89.99415317 -1.1362056 86.68655712 -1.1328125 83.37890625 C-1.1334867 81.06867971 -1.1344577 78.75845323 -1.13571167 76.44822693 C-1.13718109 71.62441324 -1.13505704 66.80061816 -1.13037109 61.97680664 C-1.12465179 55.78719652 -1.12797146 49.59762955 -1.13394356 43.40802097 C-1.13755048 38.64606905 -1.13641036 33.88412744 -1.13381577 29.12217522 C-1.13314802 26.8387546 -1.13396961 24.55533306 -1.13629532 22.27191353 C-1.13882639 19.09083685 -1.13497578 15.90983113 -1.12939453 12.72875977 C-1.13243088 11.30978897 -1.13243088 11.30978897 -1.13552856 9.8621521 C-1.13270874 8.99740768 -1.12988892 8.13266327 -1.12698364 7.24171448 C-1.12660662 6.49053628 -1.12622959 5.73935808 -1.12584114 4.96541691 C-1 3 -1 3 0 0 Z M96 86 C97 88 97 88 97 88 Z " fill="#FEFEFE" transform="translate(32,21)"/>
<path d="M0 0 C0 38.61 0 77.22 0 117 C-8.25 118.65 -16.5 120.3 -25 122 C-55.00735802 129.76052363 -84.83692761 142.40961964 -107.75 163.890625 C-109 165 -109 165 -110 165 C-110.09285808 154.57715422 -110.16384514 144.15440756 -110.20724869 133.73123169 C-110.22808485 128.89082177 -110.25632966 124.05069577 -110.30175781 119.21044922 C-110.34535758 114.53552476 -110.36916696 109.86087266 -110.37950897 105.1857605 C-110.38687504 103.40603348 -110.40125922 101.62632064 -110.42292023 99.84671021 C-110.45214278 97.34540094 -110.45594825 94.84520368 -110.45410156 92.34375 C-110.46848267 91.61510239 -110.48286377 90.88645477 -110.49768066 90.13572693 C-110.45564872 84.84189586 -109.19366228 80.30899218 -106 76 C-104.515 75.505 -104.515 75.505 -103 75 C-101.68 77.97 -100.36 80.94 -99 84 C-98.83564453 82.21142578 -98.83564453 82.21142578 -98.66796875 80.38671875 C-98.50850701 78.82024165 -98.34831249 77.25383901 -98.1875 75.6875 C-98.11724609 74.90181641 -98.04699219 74.11613281 -97.97460938 73.30664062 C-97.89404297 72.54931641 -97.81347656 71.79199219 -97.73046875 71.01171875 C-97.62835083 69.96697388 -97.62835083 69.96697388 -97.52416992 68.90112305 C-96.8552471 66.47499264 -96.02223498 65.48431639 -94 64 C-91.13846937 64.10983053 -88.5586921 64.36358938 -85.75 64.8125 C-84.26620513 65.03131443 -82.78182592 65.24620489 -81.296875 65.45703125 C-80.64041992 65.55991455 -79.98396484 65.66279785 -79.30761719 65.76879883 C-76.21958144 66.07819048 -73.10349609 66 -70 66 C-74.95 63.03 -79.9 60.06 -85 57 C-83.87324293 52.49297172 -83.41290392 52.55967794 -80 50 C-79.86795166 49.34870117 -79.73590332 48.69740234 -79.59985352 48.02636719 C-79 46 -79 46 -77.41772461 44.90332031 C-76.42011108 44.49484863 -76.42011108 44.49484863 -75.40234375 44.078125 C-74.68369141 43.77519531 -73.96503906 43.47226563 -73.22460938 43.16015625 C-72.46986328 42.85980469 -71.71511719 42.55945312 -70.9375 42.25 C-70.17888672 41.93417969 -69.42027344 41.61835937 -68.63867188 41.29296875 C-66.76468524 40.51508751 -64.88301873 39.75575498 -63 39 C-63.64549805 39.02094727 -64.29099609 39.04189453 -64.95605469 39.06347656 C-67.88721068 39.14674205 -70.81811777 39.19869206 -73.75 39.25 C-74.76578125 39.28351562 -75.7815625 39.31703125 -76.828125 39.3515625 C-84.33413369 39.45032577 -84.33413369 39.45032577 -87.703125 37.171875 C-89 35 -89 35 -89 32 C-62.93197224 17.12140638 -30.8428365 0 0 0 Z " fill="#FEFEFE" transform="translate(259,21)"/>
<path d="M0 0 C2.64 0 5.28 0 8 0 C9 1 9 1 9.12304783 2.79410648 C9.12166514 3.97630599 9.12166514 3.97630599 9.12025452 5.18238831 C9.12162918 6.08407745 9.12300385 6.9857666 9.12442017 7.91477966 C9.12082489 8.91171341 9.11722961 9.90864716 9.11352539 10.93579102 C9.11367142 11.97956909 9.11381744 13.02334717 9.1139679 14.09875488 C9.11326826 17.56715943 9.10547353 21.03551103 9.09765625 24.50390625 C9.09579225 26.90144318 9.09436826 29.2989805 9.09336853 31.69651794 C9.08954194 38.02095584 9.07971046 44.34537094 9.06866455 50.6697998 C9.05845345 57.11775402 9.05387156 63.56571191 9.04882812 70.01367188 C9.03808832 82.675791 9.02120119 95.33789429 9 108 C9.99334272 108.17086483 9.99334272 108.17086483 11.00675297 108.34518147 C14.03409757 108.86664479 17.0611172 109.3899718 20.08813477 109.91333008 C21.12991127 110.09249214 22.17168777 110.27165421 23.24503326 110.45624542 C30.19776193 111.66011067 37.0883073 112.98196731 43.9375 114.6875 C44.95158936 114.93677246 45.96567871 115.18604492 47.01049805 115.44287109 C67.71751276 120.61456517 88.13147153 126.55833061 108.375 133.3125 C109.13890045 133.56702942 109.9028009 133.82155884 110.68984985 134.08380127 C133.93311548 141.85575937 133.93311548 141.85575937 140.125 146.25 C140.87007812 146.77078125 141.61515625 147.2915625 142.3828125 147.828125 C142.91648438 148.21484375 143.45015625 148.6015625 144 149 C146.4539852 147.78847045 148.87990068 146.53662728 151.30175781 145.26123047 C160.87435872 140.2723189 170.48685421 136.43337919 180.75 133.125 C181.51136261 132.87531464 182.27272522 132.62562927 183.05715942 132.36837769 C214.86871293 121.93680435 247.0011015 113.73893887 280 108 C280.33 72.36 280.66 36.72 281 0 C283.97 0 286.94 0 290 0 C290 38.61 290 77.22 290 117 C272.89203317 121.56212449 272.89203317 121.56212449 266.3046875 123.0078125 C264.76828348 123.35221839 263.2319925 123.69712887 261.69580078 124.04248047 C260.91110413 124.21825623 260.12640747 124.39403198 259.31793213 124.57513428 C232.83598605 130.53580516 206.61730839 137.30219342 180.8125 145.75 C180.12794739 145.97057068 179.44339478 146.19114136 178.73809814 146.418396 C169.30717472 149.47627629 160.20110846 152.8211054 153 159.875 C149.35107183 162.45965745 147.12101157 162.89926517 142.70703125 162.6875 C138.38673854 161.5902828 135.40322769 159.07138276 132.03125 156.23828125 C123.88628965 150.22402574 114.5280417 147.29676281 104.9375 144.375 C103.91565613 144.06018677 103.91565613 144.06018677 102.87316895 143.73901367 C74.15096795 134.90622494 45.07166198 127.57171385 15.73730469 121.08398438 C14.83126999 120.88322296 13.92523529 120.68246155 12.991745 120.47561646 C11.29120553 120.09996541 9.59006978 119.72700027 7.88825989 119.35714722 C2.21866727 118.10933364 2.21866727 118.10933364 0 117 C0 78.39 0 39.78 0 0 Z " fill="#FEFEFE" transform="translate(0,48)"/>
<path d="M0 0 C7 0 7 0 11 1 C11 34.66 11 68.32 11 103 C18.59 104.65 26.18 106.3 34 108 C38.06092666 109.02879955 42.05563004 110.05945322 46.0625 111.25 C47.5311853 111.68542114 47.5311853 111.68542114 49.02954102 112.12963867 C64.89348391 116.97607004 79.68573109 123.24014788 93.76171875 132.03125 C96.85113194 134.07405578 96.85113194 134.07405578 100 135 C100 135.99 100 136.98 100 138 C96.02985995 137.36893146 92.39878133 136.15100648 88.62036133 134.82983398 C69.54351865 128.17469797 49.90742602 123.29661469 30.25 118.6875 C29.27716064 118.45732178 28.30432129 118.22714355 27.30200195 117.98999023 C18.22949433 115.91529604 9.23499331 114.53916555 0 113 C0 75.71 0 38.42 0 0 Z " fill="#FEFEFE" transform="translate(15,39)"/>
<path d="M0 0 C3.3 0 6.6 0 10 0 C10 36.96 10 73.92 10 112 C5.2877206 113.34636554 0.85247294 114.49026262 -3.92578125 115.41015625 C-5.2764302 115.67496444 -6.62692827 115.94054309 -7.97729492 116.20678711 C-9.03549942 116.41487503 -9.03549942 116.41487503 -10.11508179 116.62716675 C-35.94456689 121.74427813 -61.44028575 128.04521925 -86.08764648 137.40844727 C-88 138 -88 138 -91 138 C-89.78317939 134.34953817 -88.972445 134.12646212 -85.6875 132.328125 C-84.33410522 131.58381226 -84.33410522 131.58381226 -82.95336914 130.82446289 C-81.97875732 130.30489014 -81.00414551 129.78531738 -80 129.25 C-79.00411865 128.71431396 -78.0082373 128.17862793 -76.98217773 127.62670898 C-60.92765141 119.12180856 -44.09102463 113.0888817 -26.5625 108.375 C-25.84852051 108.18083496 -25.13454102 107.98666992 -24.39892578 107.78662109 C-19.19779841 106.43025543 -13.95827376 105.40021812 -8.67553711 104.42431641 C-7.93583427 104.28669388 -7.19613144 104.14907135 -6.43401337 104.00727844 C-4.62287065 103.67046832 -2.81146194 103.33508901 -1 103 C-1.00222061 101.73910553 -1.00444122 100.47821106 -1.00672913 99.17910767 C-1.02696723 87.31851842 -1.04197538 75.45793266 -1.05181217 63.59733009 C-1.05703929 57.49912422 -1.06413386 51.40093225 -1.07543945 45.30273438 C-1.08627438 39.42186725 -1.09227813 33.54101351 -1.09487724 27.66013718 C-1.09673039 25.41217208 -1.10034892 23.16420774 -1.10573006 20.91624832 C-1.11294849 17.77699425 -1.1139906 14.63779614 -1.11352539 11.49853516 C-1.11712067 10.56130112 -1.12071594 9.62406708 -1.12442017 8.65843201 C-1.1230455 7.80585312 -1.12167084 6.95327423 -1.12025452 6.07485962 C-1.12117631 5.33189447 -1.1220981 4.58892933 -1.12304783 3.82345009 C-1 2 -1 2 0 0 Z " fill="#FEFEFE" transform="translate(265,39)"/>
<path d="M0 0 C1.45507812 1.38964844 1.45507812 1.38964844 3.03125 3.359375 C5.89172186 6.77688612 8.8865866 9.9201184 12.09375 13.015625 C12.97804687 13.87414063 13.86234375 14.73265625 14.7734375 15.6171875 C16.61514043 17.3955654 18.46431522 19.16623302 20.3203125 20.9296875 C21.63128906 22.20972656 21.63128906 22.20972656 22.96875 23.515625 C23.76732422 24.28165039 24.56589844 25.04767578 25.38867188 25.83691406 C27 28 27 28 26.75973511 29.9519043 C25.47241165 33.42227394 22.68614806 35.73953746 20.1015625 38.296875 C19.51079926 38.89050842 18.92003601 39.48414185 18.31137085 40.09576416 C17.06250492 41.34666914 15.80985213 42.59380327 14.55371094 43.83740234 C12.6285781 45.74645179 10.71998836 47.67099468 8.8125 49.59765625 C7.59731518 50.81085917 6.38120034 52.02313144 5.1640625 53.234375 C4.3061058 54.10144073 4.3061058 54.10144073 3.43081665 54.98602295 C-0.65509849 59 -0.65509849 59 -4 59 C-5.6484375 57.42578125 -5.6484375 57.42578125 -7.375 55.3125 C-10.09403788 52.01613216 -12.95558222 49.00023175 -16 46 C-17.0884941 44.90228422 -18.17566364 43.80325392 -19.26171875 42.703125 C-20.40361444 41.55205219 -21.54554195 40.40101094 -22.6875 39.25 C-23.26822266 38.66089844 -23.84894531 38.07179687 -24.44726562 37.46484375 C-27.43155316 34.35093236 -27.43155316 34.35093236 -31 32 C-30.67318536 26.77400301 -27.64906675 24.08378684 -24.1015625 20.60546875 C-23.51079926 20.01325027 -22.92003601 19.4210318 -22.31137085 18.81086731 C-21.06363519 17.56478817 -19.81095588 16.32364219 -18.55371094 15.0871582 C-16.62650093 13.18897832 -14.71871704 11.27275193 -12.8125 9.35351562 C-11.59746495 8.14471579 -10.38135509 6.93699515 -9.1640625 5.73046875 C-8.59209137 5.15556198 -8.02012024 4.58065521 -7.43081665 3.98832703 C-3.34602409 0 -3.34602409 0 0 0 Z M-5.53125 19.3359375 C-6.5259317 20.34395273 -7.51530474 21.35722712 -8.5 22.375 C-9.24830078 23.13683594 -9.24830078 23.13683594 -10.01171875 23.9140625 C-11.34495192 25.27231613 -12.67275861 26.6358908 -14 28 C-14.66 28.66 -15.32 29.32 -16 30 C-11.38465781 34.06478107 -6.74414188 38.08608295 -2 42 C-1.57589844 41.63648437 -1.15179688 41.27296875 -0.71484375 40.8984375 C3.5234375 37.265625 7.76171875 33.6328125 12 30 C10.88020758 28.88020758 9.75972433 27.76110127 8.63671875 26.64453125 C7.40002209 25.4019315 6.17553706 24.14716167 4.95703125 22.88671875 C4.24933594 22.16097656 3.54164063 21.43523438 2.8125 20.6875 C2.13832031 19.99011719 1.46414062 19.29273438 0.76953125 18.57421875 C-2.14379215 15.98245422 -2.68549335 16.70976083 -5.53125 19.3359375 Z " fill="#FEFEFE" transform="translate(147,38)"/>
<path d="M0 0 C1.875 0.25 1.875 0.25 4 1 C6.80086111 4.72182222 6.04217198 8.86427125 5.6875 13.25 C5.63916016 13.97574219 5.59082031 14.70148437 5.54101562 15.44921875 C5.19770254 20.32513366 4.6412764 25.15480054 4 30 C2.68 29.67 1.36 29.34 0 29 C-1.18243369 23.40690098 -1.14833784 17.93665337 -1.125 12.25 C-1.12886719 11.29222656 -1.13273438 10.33445312 -1.13671875 9.34765625 C-1.13542969 8.43371094 -1.13414062 7.51976562 -1.1328125 6.578125 C-1.13168457 5.74700195 -1.13055664 4.91587891 -1.12939453 4.05957031 C-1 2 -1 2 0 0 Z " fill="#FEFEFE" transform="translate(143,0)"/>
<path d="M0 0 C3.54712346 1.51096147 5.85663515 3.58832135 8.5625 6.3125 C9.32691406 7.07175781 10.09132813 7.83101562 10.87890625 8.61328125 C12.98657114 10.98488944 14.61624147 13.14395968 16 16 C15.67 16.99 15.34 17.98 15 19 C9.6436167 18.07690446 6.05697309 14.39402189 2 11 C1.42894531 10.52691406 0.85789062 10.05382813 0.26953125 9.56640625 C-1.125 8.3125 -1.125 8.3125 -3 6 C-2.91236229 2.93268023 -2.18647619 2.18647619 0 0 Z " fill="#FEFEFE" transform="translate(113,22)"/>
<path d="M0 0 C1.32 0.66 2.64 1.32 4 2 C4 6 4 6 1.953125 8.47265625 C0.61507812 9.75462891 0.61507812 9.75462891 -0.75 11.0625 C-1.63171875 11.91972656 -2.5134375 12.77695312 -3.421875 13.66015625 C-7.58526821 17.438751 -7.58526821 17.438751 -10 19 C-12.25 18.6875 -12.25 18.6875 -14 18 C-13.55988509 13.55591289 -10.49957133 10.94269077 -7.5625 7.875 C-7.05912109 7.33746094 -6.55574219 6.79992187 -6.03710938 6.24609375 C-4.05395056 4.13388476 -2.04872079 2.04872079 0 0 Z " fill="#FEFEFE" transform="translate(175,22)"/>
</svg>
