<?xml version="1.0" encoding="UTF-8"?>
<svg version="1.1" xmlns="http://www.w3.org/2000/svg" width="417" height="417">
<path d="M0 0 C0.9187088 0.00182281 1.8374176 0.00364563 2.78396606 0.00552368 C23.63815574 0.0750535 43.35630063 2.01391211 63.3125 8.3125 C64.16634277 8.5815918 65.02018555 8.85068359 65.89990234 9.12792969 C91.65321924 17.45061928 114.86832775 30.61122761 135.3125 48.3125 C136.53646484 49.37017578 136.53646484 49.37017578 137.78515625 50.44921875 C149.19800941 60.52363905 159.25020631 71.09549156 168.3125 83.3125 C169.26576172 84.59060547 169.26576172 84.59060547 170.23828125 85.89453125 C175.40969445 93.06317989 179.90462299 100.65884014 184.3125 108.3125 C184.66489746 108.92254883 185.01729492 109.53259766 185.38037109 110.16113281 C193.35914037 124.12116302 199.09716492 138.53439142 202.3125 154.3125 C202.663125 155.50875 203.01375 156.705 203.375 157.9375 C204.69317649 162.68293537 205.51327619 167.45612818 206.3125 172.3125 C206.57305176 173.86457153 206.57305176 173.86457153 206.83886719 175.44799805 C208.35320586 185.45243526 208.62045998 195.29050965 208.57324219 205.3996582 C208.56255491 208.11106942 208.57318378 210.82181229 208.5859375 213.53320312 C208.59753009 227.9246652 208.02533632 242.35761674 204.140625 256.296875 C203.54719969 258.45783886 203.02373014 260.63848403 202.546875 262.828125 C195.82641957 293.00907937 179.42681153 321.08137623 159.3125 344.3125 C158.60738281 345.12847656 157.90226562 345.94445312 157.17578125 346.78515625 C128.45706939 379.31928046 91.63537469 401.85197483 49.375 412.25 C48.62089844 412.43739746 47.86679687 412.62479492 47.08984375 412.81787109 C31.81392207 416.27760844 16.21535145 416.68948792 0.625 416.625 C-0.7530632 416.62226578 -0.7530632 416.62226578 -2.15896606 416.61947632 C-23.01315574 416.5499465 -42.73130063 414.61108789 -62.6875 408.3125 C-63.96826416 407.9088623 -63.96826416 407.9088623 -65.27490234 407.49707031 C-91.02821924 399.17438072 -114.24332775 386.01377239 -134.6875 368.3125 C-135.50347656 367.60738281 -136.31945312 366.90226562 -137.16015625 366.17578125 C-148.57300941 356.10136095 -158.62520631 345.52950844 -167.6875 333.3125 C-168.32300781 332.46042969 -168.95851562 331.60835938 -169.61328125 330.73046875 C-174.78469445 323.56182011 -179.27962299 315.96615986 -183.6875 308.3125 C-184.21609619 307.39742676 -184.21609619 307.39742676 -184.75537109 306.46386719 C-192.73414037 292.50383698 -198.47216492 278.09060858 -201.6875 262.3125 C-202.038125 261.11625 -202.38875 259.92 -202.75 258.6875 C-204.06817649 253.94206463 -204.88827619 249.16887182 -205.6875 244.3125 C-205.86120117 243.27778564 -206.03490234 242.24307129 -206.21386719 241.17700195 C-207.72820586 231.17256474 -207.99545998 221.33449035 -207.94824219 211.2253418 C-207.93755491 208.51393058 -207.94818378 205.80318771 -207.9609375 203.09179688 C-207.97253009 188.7003348 -207.40033632 174.26738326 -203.515625 160.328125 C-202.92219969 158.16716114 -202.39873014 155.98651597 -201.921875 153.796875 C-195.20141957 123.61592063 -178.80181153 95.54362377 -158.6875 72.3125 C-157.62982422 71.08853516 -157.62982422 71.08853516 -156.55078125 69.83984375 C-127.83206939 37.30571954 -91.01037469 14.77302517 -48.75 4.375 C-47.99589844 4.18760254 -47.24179688 4.00020508 -46.46484375 3.80712891 C-31.18892207 0.34739156 -15.59035145 -0.06448792 0 0 Z M-75.8125 170.4375 C-76.50214844 170.72109375 -77.19179687 171.0046875 -77.90234375 171.296875 C-82.84914692 173.47233337 -85.64796814 175.81725364 -88.6875 180.3125 C-89.50296801 183.32758567 -89.10143126 185.10453272 -88.6875 188.3125 C-87.6975 189.6325 -86.7075 190.9525 -85.6875 192.3125 C-78.7575 190.8275 -78.7575 190.8275 -71.6875 189.3125 C-71.70321045 190.9524292 -71.7189209 192.5923584 -71.73510742 194.28198242 C-71.78941057 200.36673063 -71.82385186 206.45145741 -71.85229492 212.53637695 C-71.86738057 215.16987714 -71.88785166 217.80335221 -71.91381836 220.43676758 C-71.95021019 224.22223104 -71.9672289 228.00736227 -71.98046875 231.79296875 C-71.99595261 232.97022018 -72.01143646 234.14747162 -72.02738953 235.36039734 C-72.02761612 236.46116104 -72.02784271 237.56192474 -72.02807617 238.69604492 C-72.03473801 239.66201096 -72.04139984 240.62797699 -72.04826355 241.62321472 C-71.61815233 244.82944706 -70.57605761 246.70823797 -68.6875 249.3125 C-65.94244537 250.68502731 -63.68422588 250.44479255 -60.625 250.4375 C-59.54089844 250.44007813 -58.45679688 250.44265625 -57.33984375 250.4453125 C-54.76506602 250.61368564 -54.76506602 250.61368564 -53.6875 249.3125 C-53.56600868 246.96646238 -53.50893144 244.64930041 -53.49462891 242.30175781 C-53.48645142 241.56837189 -53.47827393 240.83498596 -53.46984863 240.07937622 C-53.44494638 237.64146756 -53.42846461 235.20361739 -53.4140625 232.765625 C-53.40607698 231.51864964 -53.40607698 231.51864964 -53.39793015 230.24648285 C-53.37117494 225.84466981 -53.35180948 221.44288533 -53.33740234 217.04101562 C-53.32076706 212.49329454 -53.27600616 207.94629995 -53.2250309 203.3988533 C-53.19137014 199.90382049 -53.17982611 196.4089601 -53.17417526 192.91378021 C-53.16745725 191.23762219 -53.15222076 189.56147573 -53.12828445 187.88547516 C-53.09665896 185.53665654 -53.09659137 183.189796 -53.10400391 180.84082031 C-53.08759857 180.14971161 -53.07119324 179.45860291 -53.05429077 178.74655151 C-53.10392094 174.89889152 -53.60728834 173.40922824 -56.09896851 170.40447998 C-62.57685697 165.16922864 -68.84868543 167.30444165 -75.8125 170.4375 Z M-28.875 174.75 C-38.85355654 189.02413837 -38.04712402 209.71992067 -35.37109375 226.08984375 C-33.46513424 235.07508144 -29.85682053 243.27662292 -21.9140625 248.47265625 C-14.66502101 251.76072359 -5.37017858 251.30204274 2.1875 249.3125 C8.2641444 246.90414185 11.93837954 242.33640035 14.59765625 236.484375 C15.60691995 233.7785354 16.51130693 231.08652333 17.3125 228.3125 C17.4882959 227.72936035 17.6640918 227.1462207 17.84521484 226.54541016 C18.94229283 221.30305107 18.54112372 215.77088202 18.5625 210.4375 C18.583125 209.1896875 18.60375 207.941875 18.625 206.65625 C18.67214509 195.27071108 17.79158931 183.9465416 11.30078125 174.27734375 C6.06292457 169.10122997 1.25136622 166.69468991 -6.15820312 166.67773438 C-7.01349609 166.70158203 -7.86878906 166.72542969 -8.75 166.75 C-9.60916016 166.73904297 -10.46832031 166.72808594 -11.35351562 166.71679688 C-18.60539281 166.79989707 -24.30827063 168.73691646 -28.875 174.75 Z M42.6953125 175.24609375 C33.09424466 189.59345219 33.96408608 209.78849555 36.62890625 226.08984375 C38.43092589 234.58507921 41.61666599 241.5791062 48.3125 247.3125 C55.05387593 251.63688154 63.43091747 251.02078082 71.05859375 249.9140625 C76.75158518 248.57963224 80.23391803 246.30055251 83.84375 241.703125 C86.42253215 237.50574554 87.95097789 233.0265873 89.3125 228.3125 C89.4882959 227.72936035 89.6640918 227.1462207 89.84521484 226.54541016 C90.94229283 221.30305107 90.54112372 215.77088202 90.5625 210.4375 C90.583125 209.1896875 90.60375 207.941875 90.625 206.65625 C90.67545931 194.47032594 89.88524077 181.71352491 81.3125 172.3125 C75.60086071 167.3734496 70.19872637 167.10596401 63 167.0625 C62.15759766 167.041875 61.31519531 167.02125 60.44726562 167 C52.61498047 166.95100994 47.61193311 169.08101189 42.6953125 175.24609375 Z " fill="#000000" transform="translate(208.6875,0.6875)"/>
<path d="M0 0 C3.89306147 1.98978698 5.29529198 4.20619384 6.75 8.1875 C10.79116992 22.29734751 11.1917744 42.1474966 5.1875 55.6875 C3 59 3 59 0.6875 60.5625 C-2.91361047 61.14872729 -5.46450476 60.94700765 -9 60 C-12.69769941 57.04184047 -14.62277859 54.49112168 -16 50 C-16.29351968 47.07437909 -16.30410701 44.16517623 -16.30078125 41.2265625 C-16.30506638 40.3845932 -16.3093515 39.5426239 -16.31376648 38.67514038 C-16.31949516 36.8983449 -16.32002084 35.12152596 -16.31567383 33.34472656 C-16.31251851 30.64086425 -16.33597453 27.93810186 -16.36132812 25.234375 C-16.36360189 23.50260554 -16.36430425 21.77083315 -16.36328125 20.0390625 C-16.372491 19.23779938 -16.38170074 18.43653625 -16.39118958 17.61099243 C-16.34281139 11.67600198 -15.35304724 6.82365669 -11.4375 2.125 C-7.95272066 -0.60221862 -4.24528809 -0.55515306 0 0 Z " fill="#000000" transform="translate(204,179)"/>
<path d="M0 0 C3.31003295 1.46405303 5.32132221 2.6796152 7.00390625 5.953125 C12.23892378 20.41897055 11.83807519 40.70376914 6.75 55.125 C4.55279476 58.73469433 3.02828038 59.76052911 -1 61 C-5.39971707 61 -7.36203383 60.51037293 -10.8125 57.75 C-15.06117114 52.40881342 -15.30822494 47.80374081 -15.30078125 41.2265625 C-15.30506638 40.3845932 -15.3093515 39.5426239 -15.31376648 38.67514038 C-15.31949516 36.8983449 -15.32002084 35.12152596 -15.31567383 33.34472656 C-15.31251851 30.64086425 -15.33597453 27.93810186 -15.36132812 25.234375 C-15.36360189 23.50260554 -15.36430425 21.77083315 -15.36328125 20.0390625 C-15.372491 19.23779938 -15.38170074 18.43653625 -15.39118958 17.61099243 C-15.34281139 11.67600198 -14.35304724 6.82365669 -10.4375 2.125 C-7.04818959 -0.5275038 -4.2194265 -0.35161888 0 0 Z " fill="#000000" transform="translate(275,179)"/>
</svg>
