<?xml version="1.0" encoding="UTF-8"?>
<!-- Generator: visioncortex VTracer 0.6.4 -->
<svg version="1.1" xmlns="http://www.w3.org/2000/svg" width="300" height="300">
<path d="M0 0 C3.05934051 0.60748376 5.11917799 1.56504349 7.65234375 3.37109375 C8.34005859 3.85803711 9.02777344 4.34498047 9.73632812 4.84667969 C10.46271484 5.37165039 11.18910156 5.89662109 11.9375 6.4375 C12.69095703 6.97665039 13.44441406 7.51580078 14.22070312 8.07128906 C40.52621233 26.99299107 40.52621233 26.99299107 47 36 C46.79503906 35.33613281 46.59007812 34.67226563 46.37890625 33.98828125 C46.10949219 33.10527344 45.84007812 32.22226562 45.5625 31.3125 C45.29566406 30.44238281 45.02882813 29.57226562 44.75390625 28.67578125 C44.03655471 26.12974079 43.482459 23.5996577 43 21 C47.7616262 23.17012167 51.17025901 26.50029055 55 30 C55.76957031 30.64582031 56.53914062 31.29164062 57.33203125 31.95703125 C62.912241 36.91178842 62.912241 36.91178842 63.3125 41.875 C60.91013626 51.33661717 55.22038467 58.7010809 49 66 C47.99921245 67.20768113 46.99907031 68.41589787 46 69.625 C45.34 70.40875 44.68 71.1925 44 72 C45.97711462 70.52820251 47.94968691 69.05128992 49.9140625 67.5625 C51.4368651 66.4218239 52.99129135 65.32302054 54.5625 64.25 C61.15137496 58.16796158 65.28358077 50.04938727 69 42 C69.66 42 70.32 42 71 42 C73.8917284 49.51333004 75.64323227 55.92386148 75 64 C75.66 64 76.32 64 77 64 C79.40990104 57.11175931 79.40990104 57.11175931 81 50 C85.29108019 51.75421517 86.31619862 53.91272131 88.18359375 57.984375 C90.85710097 64.5849957 90.84071377 71.45343378 88.09375 78.015625 C84.60243555 84.34986692 79.28612033 88.04994552 72.578125 90.48828125 C68.42191855 91.31322526 64.93328005 90.40610011 61 89 C61.38671875 89.59425781 61.7734375 90.18851562 62.171875 90.80078125 C69.97804128 103.22495184 72.17095705 114.53778439 72.875 129 C73.00261719 130.90652344 73.00261719 130.90652344 73.1328125 132.8515625 C73.56716238 142.22957138 73.56716238 142.22957138 70.765625 146.03515625 C69.85296875 146.68355469 68.9403125 147.33195313 68 148 C66.58449546 149.78104692 65.20844264 151.59421164 63.875 153.4375 C63.21242187 154.34371094 62.54984375 155.24992188 61.8671875 156.18359375 C59.9801081 159.03000431 58.4620833 161.9169113 57 165 C57.63808594 164.278125 58.27617187 163.55625 58.93359375 162.8125 C60.17302734 161.4203125 60.17302734 161.4203125 61.4375 160 C62.26121094 159.071875 63.08492187 158.14375 63.93359375 157.1875 C64.61550781 156.465625 65.29742187 155.74375 66 155 C66.33 155 66.66 155 67 155 C67.0525503 159.65362106 67.06059716 164.30334195 67.01220703 168.95703125 C67.00191368 170.67972614 67.02629832 172.4025771 67.05859375 174.125 C66.88117723 182.26250422 63.10253345 186.91687764 58 193 C57.30390625 193.87269531 56.6078125 194.74539062 55.890625 195.64453125 C53.63020737 198.46180359 51.32207635 201.23334891 49 204 C48.32710937 204.81041748 48.32710937 204.81041748 47.640625 205.63720703 C41.97199349 212.45630599 36.1430589 219.03569172 29.875 225.3125 C29.31844727 225.8698584 28.76189453 226.4272168 28.18847656 227.00146484 C22.37671168 232.73195893 18.29587912 232.33166963 10.375 232.5 C8.77205078 232.58121094 8.77205078 232.58121094 7.13671875 232.6640625 C1.5089039 232.76097444 -2.11774835 232.54198243 -6.46484375 228.765625 C-7.66654837 227.53272348 -8.84751338 226.27902883 -10 225 C-10.87527344 224.18015625 -11.75054687 223.3603125 -12.65234375 222.515625 C-17.65385123 217.55686544 -22.2452808 212.43166091 -26.640625 206.9296875 C-28.79994846 204.24840837 -31.00596974 201.62028308 -33.24291992 199.00415039 C-34.66070291 197.34388026 -36.06831345 195.67555222 -37.47265625 194.00390625 C-38.96617762 192.22876262 -40.46993723 190.46200924 -41.99609375 188.71484375 C-48.01838564 181.45054442 -47.15379219 172.9894715 -47.0625 163.9375 C-47.05798828 163.07189453 -47.05347656 162.20628906 -47.04882812 161.31445312 C-47.03719913 159.20960461 -47.01927073 157.10479242 -47 155 C-45.8944811 155.93590504 -44.79064547 156.87379858 -43.6875 157.8125 C-42.76517578 158.59560547 -42.76517578 158.59560547 -41.82421875 159.39453125 C-40.14575321 160.87172469 -38.56117966 162.40039131 -37 164 C-38.90516027 161.05488747 -40.82606816 158.12037749 -42.75 155.1875 C-43.55824219 153.93743164 -43.55824219 153.93743164 -44.3828125 152.66210938 C-44.91132812 151.85966797 -45.43984375 151.05722656 -45.984375 150.23046875 C-46.46616211 149.49207764 -46.94794922 148.75368652 -47.44433594 147.99291992 C-48.90837697 145.8889769 -48.90837697 145.8889769 -51.16674805 144.61743164 C-53 143 -53 143 -53.44165039 140.23535156 C-53.39512329 138.57971191 -53.39512329 138.57971191 -53.34765625 136.890625 C-53.31583252 135.66770752 -53.28400879 134.44479004 -53.2512207 133.18481445 C-53.18894287 131.88632568 -53.12666504 130.58783691 -53.0625 129.25 C-53.00602295 127.93281982 -52.9495459 126.61563965 -52.89135742 125.25854492 C-52.36322387 115.75390347 -51.22471005 107.63161783 -47 99 C-46.53207031 98.04351562 -46.06414062 97.08703125 -45.58203125 96.1015625 C-42.53603619 90.5322096 -39.03926852 86.82984408 -34 83 C-36.64 82.67 -39.28 82.34 -42 82 C-41.01 82.495 -41.01 82.495 -40 83 C-40 83.66 -40 84.32 -40 85 C-47.59105185 89.79795602 -54.07050871 91.08634185 -63 90 C-69.90615816 87.6568392 -74.52184303 82.28743759 -78 76 C-77.75 73.625 -77.75 73.625 -77 72 C-76.278125 72.61875 -75.55625 73.2375 -74.8125 73.875 C-70.73021728 76.95939139 -68.13271012 78 -63 78 C-63.639375 77.236875 -64.27875 76.47375 -64.9375 75.6875 C-69.17652656 70.16391994 -68.59381202 63.68616912 -68 57 C-66.99241363 53.78364352 -65.6865683 50.91384791 -64 48 C-63.01 48 -62.02 48 -61 48 C-60.78085938 48.74765625 -60.56171875 49.4953125 -60.3359375 50.265625 C-58.87249695 54.81061923 -57.74758199 58.23461843 -54.375 61.6875 C-49.83213308 63.45417047 -45.81315834 63.34243814 -41 63 C-41.886875 62.46375 -42.77375 61.9275 -43.6875 61.375 C-48.4399365 58.15415441 -51.49795502 54.91255231 -52.984375 49.25 C-53.33370588 45.77820078 -52.77752957 44.07577818 -50.68359375 41.296875 C-49.62448708 40.09400416 -48.54148482 38.91181872 -47.4375 37.75 C-46.91091797 37.151875 -46.38433594 36.55375 -45.84179688 35.9375 C-42.54214687 32.28647968 -39.20265297 29.55319068 -35 27 C-35.47972086 30.27809254 -36.09839674 33.32413043 -37.0625 36.5 C-38.35912286 41.21694048 -38.35912286 41.21694048 -38 46 C-32.28916949 52.8251389 -24.25639183 54.59852696 -16 57 C-16.71800781 56.4328125 -17.43601563 55.865625 -18.17578125 55.28125 C-20.90368653 53.07779677 -23.55969758 50.82168928 -26.1875 48.5 C-27.04730469 47.7471875 -27.90710938 46.994375 -28.79296875 46.21875 C-31.87827831 43.11705827 -32.97492254 41.25387324 -33.0625 36.875 C-31.63639712 28.9635245 -24.32787411 21.69958625 -19 16 C-18.34 16 -17.68 16 -17 16 C-17.2165625 16.79664062 -17.433125 17.59328125 -17.65625 18.4140625 C-17.9346875 19.47367188 -18.213125 20.53328125 -18.5 21.625 C-18.7784375 22.66914063 -19.056875 23.71328125 -19.34375 24.7890625 C-19.9943876 27.97253932 -20.18995997 30.76118259 -20 34 C-19.67 34.33 -19.34 34.66 -19 35 C-18.2265625 33.63875 -18.2265625 33.63875 -17.4375 32.25 C-14.14116315 27.29380558 -8.62088614 24.67107426 -3 23 C0.03169057 23.24479489 0.94182847 23.93875526 3.0703125 26.1796875 C3.74835938 27.06914063 4.42640625 27.95859375 5.125 28.875 C5.80820313 29.75929688 6.49140625 30.64359375 7.1953125 31.5546875 C8.51017634 33.33629954 9.7717419 35.15761285 11 37 C11.92095841 25.7182595 7.99419625 14.73713803 2.26953125 5.171875 C1 3 1 3 0 0 Z M48 38 C49 40 49 40 49 40 Z M-6 49 C-4.52031989 52.93609489 -2.66793763 56.54381517 -0.6875 60.25 C4.26681638 69.84201328 7.43151724 80.32096846 9 91 C9.33 91 9.66 91 10 91 C10.64217391 74.70781 7.72813811 62.79231496 -3.29296875 50.6875 C-4.71847129 48.88282889 -4.71847129 48.88282889 -6 49 Z M36 52 C35.86207031 52.57363281 35.72414063 53.14726563 35.58203125 53.73828125 C33.13492934 61.9242719 28.67515532 68.23668229 23.68481445 75.09692383 C20.21482091 79.9304337 17.64949085 84.25479223 16 90 C16.33 90.99 16.66 91.98 17 93 C32.79521048 74.79649842 32.79521048 74.79649842 37 52 C36.67 52 36.34 52 36 52 Z M-43 74 C-43 74.33 -43 74.66 -43 75 C-41.92363281 75.15855469 -40.84726563 75.31710938 -39.73828125 75.48046875 C-24.21200286 77.90360386 -10.08956176 82.52237981 2 93 C2.66 92.67 3.32 92.34 4 92 C-1.73515917 82.20316276 -7.56118299 74.06768274 -19 71 C-27.45316629 70.04526421 -34.98805732 71.30259244 -43 74 Z M39 85 C42.82871368 86.91435684 47.60164414 84.46108263 51.5625 83.375 C52.52736328 83.12621094 53.49222656 82.87742187 54.48632812 82.62109375 C60.7875934 80.91068954 66.62037967 78.7831744 72 75 C72.33 74.34 72.66 73.68 73 73 C59.17290457 72.69216114 49.58050719 76.55810597 39 85 Z M-43.375 117.9375 C-44.40753906 118.50791016 -44.40753906 118.50791016 -45.4609375 119.08984375 C-45.96882813 119.39019531 -46.47671875 119.69054687 -47 120 C-47 120.66 -47 121.32 -47 122 C-46.33613281 122.12117188 -45.67226562 122.24234375 -44.98828125 122.3671875 C-40.4212182 123.23392939 -36.30688405 124.22657715 -32 126 C-30.68 126 -29.36 126 -28 126 C-28 126.66 -28 127.32 -28 128 C-28.91523437 128.04898438 -29.83046875 128.09796875 -30.7734375 128.1484375 C-31.96195313 128.22320312 -33.15046875 128.29796875 -34.375 128.375 C-36.15003906 128.47941406 -36.15003906 128.47941406 -37.9609375 128.5859375 C-41.10562319 128.70217346 -41.10562319 128.70217346 -43 131 C-32.62612634 138.89888857 -26.87583406 142.02276383 -13.7265625 142.5234375 C-8.89361521 143.14148736 -5.45689442 144.54310558 -2 148 C-2.48484276 143.35413108 -2.48484276 143.35413108 -4 139 C-2.35 139.99 -0.7 140.98 1 142 C0.51902706 136.94978411 -0.86800993 133.98154643 -4 130 C-7.02248436 128.04476551 -7.02248436 128.04476551 -10.5234375 126.60546875 C-11.14723297 126.32778152 -11.77102844 126.0500943 -12.41372681 125.76399231 C-13.72628168 125.18372745 -15.04258207 124.61186854 -16.36230469 124.0480957 C-18.37015115 123.18957329 -20.36502112 122.30536974 -22.359375 121.41601562 C-32.71093106 116.17767493 -32.71093106 116.17767493 -43.375 117.9375 Z M52.26171875 117.5390625 C51.53033691 117.86922363 50.79895508 118.19938477 50.04541016 118.53955078 C49.2672998 118.89774902 48.48918945 119.25594727 47.6875 119.625 C38.23304554 123.94120546 38.23304554 123.94120546 33.83984375 125.65625 C32.61394531 126.1409375 31.38804687 126.625625 30.125 127.125 C29.03445312 127.54007813 27.94390625 127.95515625 26.8203125 128.3828125 C23.30660504 130.39759767 21.9200128 132.46645532 20 136 C19.20317197 139.73225344 19.20317197 139.73225344 19 143 C20.65 141.68 22.3 140.36 24 139 C23.67 141.31 23.34 143.62 23 146 C23.99 145.5153125 24.98 145.030625 26 144.53125 C30.59857288 142.56043305 35.11733067 142.53865649 40.0390625 142.47265625 C46.98937371 142.24455723 52.22592999 140.15710303 57.3125 135.4375 C57.96863281 134.83808594 58.62476563 134.23867187 59.30078125 133.62109375 C60.549266 132.4300106 61.77987844 131.22012156 63 130 C61.43883181 129.66048381 59.87598662 129.32867456 58.3125 129 C57.44238281 128.814375 56.57226562 128.62875 55.67578125 128.4375 C53.06287036 128.01027953 50.64186962 127.92383799 48 128 C48 127.34 48 126.68 48 126 C49.299375 125.814375 49.299375 125.814375 50.625 125.625 C53.95853098 125.09555634 53.95853098 125.09555634 56.875 124 C60.61541901 122.80306592 64.09708063 122.40375028 68 122 C65.44918171 119.02404533 62.56565563 117.55997434 59 116 C56.028205 116 54.88134509 116.34090607 52.26171875 117.5390625 Z M-5 171 C-4 174 -4 174 -4 174 Z M24 172 C25 174 25 174 25 174 Z M-4 174 C-1.9585123 178.92050881 1.51513698 180.49682064 6 183 C6.845625 183.53625 7.69125 184.0725 8.5625 184.625 C11.57003759 185.08769809 12.08233089 184.53346446 14.5 182.8125 C15.09039062 182.33683594 15.68078125 181.86117187 16.2890625 181.37109375 C18 180 18 180 20.875 178.375 C23.3090939 177.1138767 23.3090939 177.1138767 24 174 C18.41499433 174.19898708 18.41499433 174.19898708 14 177 C8.79166767 177.49135211 6.34963067 176.6766958 2 174 C-1.20916171 173.74863967 -1.20916171 173.74863967 -4 174 Z M-11 196 C-11 196.33 -11 196.66 -11 197 C2.86 197 16.72 197 31 197 C31 196.67 31 196.34 31 196 C16.42973617 190.41140565 3.57026383 190.41140565 -11 196 Z M-1 205 C2.46445739 209.2460731 2.46445739 209.2460731 6.3125 209.53125 C8.1378125 209.51578125 8.1378125 209.51578125 10 209.5 C11.216875 209.5103125 12.43375 209.520625 13.6875 209.53125 C17.53554261 209.2460731 17.53554261 209.2460731 21 205 C13.74 205 6.48 205 -1 205 Z " fill="#FEFEFE" transform="translate(140,5)"/>
<path d="M0 0 C3.16109045 2.62588554 4.29340704 5.64402172 5.8203125 9.40625 C6.08028015 10.0390387 6.3402478 10.67182739 6.60809326 11.3237915 C7.16435007 12.6783159 7.71756408 14.03409315 8.26800537 15.39099121 C9.70614529 18.93016126 11.17313774 22.45729313 12.640625 25.984375 C13.07464127 27.02854584 13.07464127 27.02854584 13.51742554 28.09381104 C18.73595097 40.60381993 24.21034265 52.85402726 32 64 C31.67 62.7625 31.34 61.525 31 60.25 C30.20108841 57.25408155 30 55.19892281 30 52 C33 53 33 53 34.6875 55.125 C38.92271174 60.39039837 44.17405689 64.53818469 49.625 68.5 C50.31851563 69.0053125 51.01203125 69.510625 51.7265625 70.03125 C54.89799703 71.38265166 56.71697584 70.94588422 60 70 C67.591446 65.31044545 73.84933891 58.38621832 80 52 C81.485 52.495 81.485 52.495 83 53 C81.68 57.29 80.36 61.58 79 66 C92.12531989 45.64668136 101.71618864 22.70262588 110 0 C110.66 0 111.32 0 112 0 C112.06993164 0.55872803 112.13986328 1.11745605 112.21191406 1.69311523 C112.543621 4.27664298 112.8966848 6.85684206 113.25 9.4375 C113.41435547 10.75524414 113.41435547 10.75524414 113.58203125 12.09960938 C114.6459143 19.68677537 116.6061651 26.52628494 121.8125 32.3125 C124 35 124 35 123.9140625 36.81640625 C114.99257293 58.12885356 86.55236412 76.84039225 69 91 C68.41621582 91.47308594 67.83243164 91.94617188 67.23095703 92.43359375 C65.75194589 93.62004828 64.25182337 94.78005675 62.75 95.9375 C61.94046875 96.56527344 61.1309375 97.19304687 60.296875 97.83984375 C58 99 58 99 55.55859375 98.9453125 C52.32081916 97.74906601 50.03658601 96.05785 47.3125 93.9375 C46.78994629 93.53337891 46.26739258 93.12925781 45.72900391 92.71289062 C44.14581909 91.48403536 42.5728099 90.24210644 41 89 C40.12472656 88.32066406 39.24945313 87.64132812 38.34765625 86.94140625 C33.25514175 82.94301809 28.39300293 78.74203902 23.6171875 74.37109375 C21.49837724 72.4515149 19.35462076 70.5756815 17.19140625 68.70703125 C-5.7541186 48.66460944 -5.7541186 48.66460944 -12 38 C-11.78685259 34.74950201 -10.99547551 33.99523094 -8.6875 31.5625 C-1.61473671 23.38589504 -1.08662224 10.3372089 0 0 Z " fill="#FEFEFE" transform="translate(94,196)"/>
<path d="M0 0 C0.33 0 0.66 0 1 0 C0.84855556 8.78377754 -2.80077631 15.50381825 -7 23 C-7.57524414 24.02939697 -7.57524414 24.02939697 -8.16210938 25.07958984 C-9.34139958 27.16739522 -10.5400406 29.24233509 -11.75 31.3125 C-12.12640625 31.96492676 -12.5028125 32.61735352 -12.890625 33.28955078 C-15.64458136 37.88152712 -15.64458136 37.88152712 -19 39 C-19.01417969 38.41992188 -19.02835938 37.83984375 -19.04296875 37.2421875 C-19.41547975 31.1410614 -20.61564925 28.27741536 -25 24 C-25.66 23.67 -26.32 23.34 -27 23 C-27 22.34 -27 21.68 -27 21 C-26.03320312 20.52691406 -25.06640625 20.05382812 -24.0703125 19.56640625 C-9.59159743 12.42927283 -9.59159743 12.42927283 0 0 Z " fill="#FEFEFE" transform="translate(237,80)"/>
<path d="M0 0 C0.66 0 1.32 0 2 0 C8.98531674 8.66275129 13.45392011 16.84721015 15 28 C15.18304688 29.01191406 15.36609375 30.02382812 15.5546875 31.06640625 C15.95928188 33.73176047 16.10325328 36.18528328 16.0625 38.875 C16.05347656 39.65617187 16.04445313 40.43734375 16.03515625 41.2421875 C16.02355469 41.82226562 16.01195313 42.40234375 16 43 C8.34762517 36.13702805 6.27218832 23.96518781 3.1875 14.4375 C2.87321045 13.47344238 2.5589209 12.50938477 2.23510742 11.51611328 C1.94482666 10.60200684 1.6545459 9.68790039 1.35546875 8.74609375 C1.09403076 7.92810303 0.83259277 7.1101123 0.56323242 6.26733398 C0 4 0 4 0 0 Z " fill="#FEFEFE" transform="translate(70,117)"/>
<path d="M0 0 C0.66 0 1.32 0 2 0 C0.64169597 8.21226143 -1.77823582 15.93781301 -4.4375 23.8125 C-4.83259766 25.01326172 -5.22769531 26.21402344 -5.63476562 27.45117188 C-6.02212891 28.60810547 -6.40949219 29.76503906 -6.80859375 30.95703125 C-7.15720459 31.99835205 -7.50581543 33.03967285 -7.86499023 34.11254883 C-8.98755567 36.96834176 -10.34458981 39.42244657 -12 42 C-12.99 41.67 -13.98 41.34 -15 41 C-13.33168644 26.27018912 -11.44349465 14.72233023 -2 3 C-1.34 2.01 -0.68 1.02 0 0 Z " fill="#FEFEFE" transform="translate(228,117)"/>
<path d="M0 0 C2.39591038 -0.02712351 4.79150957 -0.0468982 7.1875 -0.0625 C7.86103516 -0.07087891 8.53457031 -0.07925781 9.22851562 -0.08789062 C12.95434131 -0.10606538 16.3788042 0.10700608 20 1 C18.88752617 3.50306612 17.86657966 5.13746338 15.9375 7.125 C13.18009991 11.21662593 13.18795964 15.1600392 13 20 C9.36710986 16.55161741 6.46111741 13.04326119 3.6875 8.875 C2.64142578 7.32425781 2.64142578 7.32425781 1.57421875 5.7421875 C0 3 0 3 0 0 Z " fill="#FEFEFE" transform="translate(69,101)"/>
</svg>
