<?xml version="1.0" encoding="UTF-8"?>
<!-- Generator: visioncortex VTracer 0.6.4 -->
<svg version="1.1" xmlns="http://www.w3.org/2000/svg" width="197" height="290">
<path d="M0 0 C0.66 0 1.32 0 2 0 C2.10957031 0.76441406 2.21914063 1.52882812 2.33203125 2.31640625 C4.97388599 21.31572809 4.97388599 21.31572809 12 39 C12.50402344 39.92554688 13.00804688 40.85109375 13.52734375 41.8046875 C17.67164432 48.84512282 22.71754774 53.84156476 29 59 C31.37184849 60.96669288 33.69899587 62.94910502 36 65 C36 65.66 36 66.32 36 67 C30.41774803 66.70619726 26.66536017 64.19398815 22.07421875 61.27734375 C20.26408087 59.9126057 20.26408087 59.9126057 19 60 C22.54923117 64.65836591 26.01148252 67.6656096 31 70.6875 C31.60328125 71.06455078 32.2065625 71.44160156 32.828125 71.83007812 C35.42486549 73.44739584 38.01309219 75.00678022 40.73046875 76.4140625 C43.63851525 78.44619138 44.71996122 80.53945822 46.3125 83.6875 C46.82425781 84.68136719 47.33601563 85.67523438 47.86328125 86.69921875 C48.23839844 87.45847656 48.61351562 88.21773438 49 89 C49.66 86.03 50.32 83.06 51 80 C54.91930257 81.95965128 57.02508249 83.86427614 60 87 C61.04251036 88.24055214 61.04251036 88.24055214 63.3125 88.34765625 C66.13930718 88.24899969 66.13930718 88.24899969 68.0625 86.05859375 C68.701875 85.19363281 69.34125 84.32867187 70 83.4375 C70.680625 82.53128906 71.36125 81.62507813 72.0625 80.69140625 C72.701875 79.80324219 73.34125 78.91507812 74 78 C74.53625 77.26652344 75.0725 76.53304687 75.625 75.77734375 C76.76715102 74.19715186 77.88656843 72.60055788 79 71 C83.0206308 72.34021027 83.7414454 74.27495331 86 77.8125 C88.23985502 81.29530486 90.46290425 84.7255608 93 88 C97.62931517 87.9192806 97.62931517 87.9192806 101.4375 85.59765625 C101.85 85.04980469 102.2625 84.50195312 102.6875 83.9375 C103.8321875 82.4834375 103.8321875 82.4834375 105 81 C106.32 81 107.64 81 109 81 C109.99 84.96 109.99 84.96 111 89 C111.3403125 88.26394531 111.680625 87.52789062 112.03125 86.76953125 C114.86886913 81.05655869 117.07607441 77.17544848 122.77734375 74.1875 C126.34728035 72.28018765 129.52424901 69.81922364 132.80078125 67.453125 C135 66 135 66 138 65 C139.16666667 63.08333333 139.16666667 63.08333333 140 61 C140.33 60.34 140.66 59.68 141 59 C140.28714844 59.48210938 139.57429687 59.96421875 138.83984375 60.4609375 C133.63508768 63.89341459 129.14333558 66.77133288 123 68 C124.72633582 63.9718831 127.07836278 61.29852129 130.72265625 58.8359375 C143.87828613 49.89115536 151.25422406 34.73811046 154.41015625 19.5 C155.50100295 13.02716128 156.28812357 6.52413814 157 0 C157.99 0.33 158.98 0.66 160 1 C161.31640625 3.84375 161.31640625 3.84375 162.5625 7.5 C162.97628906 8.6859375 163.39007813 9.871875 163.81640625 11.09375 C170.7947873 33.37285661 167.66240535 56.09118842 158 77 C157.34 77 156.68 77 156 77 C155.67 75.35 155.34 73.7 155 72 C154.85304687 72.59425781 154.70609375 73.18851562 154.5546875 73.80078125 C152.01668587 83.17971832 147.82905041 91.98125374 141 99 C140.34 99 139.68 99 139 99 C139.66 95.04 140.32 91.08 141 87 C140.34 87 139.68 87 139 87 C138.690625 88.19625 138.38125 89.3925 138.0625 90.625 C134.67271087 100.69888038 128.38940722 109.44742659 120.171875 116.078125 C117.78596899 118.18939435 116.06946416 120.43368524 114.1875 123 C109.84638328 128.62253069 104.47918483 133.02404338 98 136 C95.26171875 135.89453125 95.26171875 135.89453125 93 135 C92.34 134.01 91.68 133.02 91 132 C91.35732662 135.21593955 91.67174157 136.67174157 94 139 C96.32825843 141.32825843 96.64267338 142.78406045 97 146 C98.32 145.34 99.64 144.68 101 144 C100.67 143.01 100.34 142.02 100 141 C100.54938232 140.90501221 101.09876465 140.81002441 101.66479492 140.7121582 C104.17647051 140.26596175 106.68151307 139.78956972 109.1875 139.3125 C110.05181641 139.16361328 110.91613281 139.01472656 111.80664062 138.86132812 C117.25854369 137.79601373 120.55431462 136.66834793 124 132 C124.79142869 129.82235622 124.79142869 129.82235622 124.8125 127.6875 C124.874375 126.470625 124.93625 125.25375 125 124 C124.34 124 123.68 124 123 124 C124.5277867 120.56247993 126.50181056 117.81046312 129 115 C129.66 115 130.32 115 131 115 C131 114.34 131 113.68 131 113 C132.65365406 111.97862543 134.32376502 110.98387706 136 110 C137.09821751 109.12247691 138.18158402 108.22607308 139.25 107.3125 C142 105 142 105 143 105 C143.25091083 106.72614556 143.47480762 108.45622975 143.6875 110.1875 C143.87892578 111.63189453 143.87892578 111.63189453 144.07421875 113.10546875 C144 116 144 116 142.40234375 118.515625 C140.66480399 120.94565429 140.66480399 120.94565429 141.6171875 123.75390625 C142.03226563 124.68074219 142.44734375 125.60757813 142.875 126.5625 C144.98283459 131.3415841 144.98283459 131.3415841 145.0546875 134.09765625 C143.3425559 137.18583436 140.29870212 138.33830602 137.25 139.875 C131.90802526 142.56815324 128.60300428 145.17307442 125 150 C125.78375 149.505 126.5675 149.01 127.375 148.5 C130 147 130 147 132 147 C130.70703907 149.68586445 129.2829656 152.16822061 127.64453125 154.65625 C124.84982888 159.08179411 122.74828072 163.69802898 120.6875 168.5 C120.32849609 169.32242188 119.96949219 170.14484375 119.59960938 170.9921875 C118.7274465 172.99234769 117.86290687 174.9958292 117 177 C114.69 175.68 112.38 174.36 110 173 C109.82984375 173.556875 109.6596875 174.11375 109.484375 174.6875 C107.76684063 180.09590609 105.64657745 184.98062896 103 190 C102.41734375 189.9071875 101.8346875 189.814375 101.234375 189.71875 C93.6000195 189.0465426 89.7261843 191.73600882 83.859375 196.4453125 C81 198 81 198 77.91015625 197.4375 C75.22280679 196.11005758 73.04383797 194.71214486 70.6875 192.875 C66.57459779 189.97996223 63.88559535 189.48911033 58.9453125 190.1796875 C57 190 57 190 55.41015625 188.3984375 C53.76243297 185.59593863 52.52550151 182.76611186 51.3125 179.75 C50.87550781 178.67234375 50.43851563 177.5946875 49.98828125 176.484375 C49.66214844 175.66453125 49.33601563 174.8446875 49 174 C48.401875 174.33 47.80375 174.66 47.1875 175 C45 176 45 176 42 176 C41.74307373 175.41508789 41.48614746 174.83017578 41.22143555 174.22753906 C40.04875845 171.56598699 38.86822012 168.90799319 37.6875 166.25 C37.28337891 165.32960937 36.87925781 164.40921875 36.46289062 163.4609375 C36.06650391 162.57148438 35.67011719 161.68203125 35.26171875 160.765625 C34.90037842 159.94868164 34.53903809 159.13173828 34.16674805 158.29003906 C33.05215893 155.93740629 33.05215893 155.93740629 31.35864258 153.82714844 C30 152 30 152 30 150 C29.01 149.67 28.02 149.34 27 149 C27 148.34 27 147.68 27 147 C27.78375 147.33 28.5675 147.66 29.375 148 C31.84332497 149.11866511 31.84332497 149.11866511 34 149 C27.95804954 143.15352441 21.35321601 139.03201345 14 135 C14.20496094 134.41992188 14.40992187 133.83984375 14.62109375 133.2421875 C16.89738845 126.7563696 16.89738845 126.7563696 18 120 C17.34 119.01 16.68 118.02 16 117 C15.8046875 114.30078125 15.8046875 114.30078125 15.875 111.3125 C15.89304687 110.31863281 15.91109375 109.32476562 15.9296875 108.30078125 C15.95289062 107.54152344 15.97609375 106.78226562 16 106 C19 106 19 106 20.4296875 107.20703125 C20.90664063 107.73683594 21.38359375 108.26664062 21.875 108.8125 C23.71716043 110.75876286 25.10620367 112.06263294 27.4375 113.4375 C31.14601021 115.69878672 34.21455501 118.66870412 37 122 C37 122.66 37 123.32 37 124 C36.01 124 35.02 124 34 124 C34.3403125 125.8253125 34.3403125 125.8253125 34.6875 127.6875 C34.81511719 128.37199219 34.94273438 129.05648437 35.07421875 129.76171875 C36.46588234 133.12637375 38.13887822 134.73494526 41 137 C44.04675986 138.12092074 47.12403553 138.73117775 50.3125 139.3125 C51.14845703 139.48072266 51.98441406 139.64894531 52.84570312 139.82226562 C54.89380075 140.23188515 56.94651521 140.61830345 59 141 C59 141.99 59 142.98 59 144 C60.98 144.99 60.98 144.99 63 146 C62.896875 145.2575 62.79375 144.515 62.6875 143.75 C63 141 63 141 65.5 138.9375 C66.7375 137.9784375 66.7375 137.9784375 68 137 C68 135.68 68 134.36 68 133 C67.608125 133.515625 67.21625 134.03125 66.8125 134.5625 C65 136 65 136 62.640625 135.73046875 C54.34590441 133.43592326 48.74700801 126.91513277 43.24975586 120.67089844 C40.97333579 118.0896041 38.85093132 115.88147818 36.140625 113.7265625 C35.08101562 112.87191406 35.08101562 112.87191406 34 112 C34 111.34 34 110.68 34 110 C33.34 110 32.68 110 32 110 C27.10471093 103.14447613 23.16967009 95.79210565 20 88 C20.495 93.94 20.495 93.94 21 100 C17.13548235 98.71182745 15.77866713 96.41072293 13.5625 93.1875 C13.16361572 92.61233643 12.76473145 92.03717285 12.35375977 91.44458008 C8.72990382 85.99726943 6.63150406 80.33206121 5 74 C4.67 74.99 4.34 75.98 4 77 C1 76 1 76 -0.24609375 73.91015625 C-9.63921601 51.45905419 -10.68959603 29.16313897 -3 6 C-2.0611452 3.97057849 -1.08701306 1.95407334 0 0 Z M143 55 C144 57 144 57 144 57 Z M75.7734375 97.1171875 C74.98195313 98.02726562 74.19046875 98.93734375 73.375 99.875 C72.57835938 100.77992187 71.78171875 101.68484375 70.9609375 102.6171875 C68.99319806 104.82773722 68.99319806 104.82773722 68 107 C65.36 106.67 62.72 106.34 60 106 C62.00905275 108.38109956 63.24494763 109.83892216 66.34375 110.5 C69.66518732 109.87478827 70.70699547 108.416372 72.63867188 105.734375 C73.02603516 105.16203125 73.41339844 104.5896875 73.8125 104 C74.21919922 103.42765625 74.62589844 102.8553125 75.04492188 102.265625 C76.04474232 100.85411379 77.02438622 99.42834959 78 98 C81.21422633 98.28751107 82.09344717 99.09917158 84.359375 101.50390625 C85.14828125 102.51324219 85.9371875 103.52257812 86.75 104.5625 C87.54921875 105.57441406 88.3484375 106.58632812 89.171875 107.62890625 C89.77515625 108.41136719 90.3784375 109.19382812 91 110 C95.21769142 109.40490107 97.76893469 108.85825008 101 106 C100.505 105.01 100.505 105.01 100 104 C99.443125 104.515625 98.88625 105.03125 98.3125 105.5625 C96 107 96 107 93.67578125 106.9375 C89.45583844 105.45897989 87.35887472 102.23552838 84.57421875 98.86132812 C83.43684805 97.5262299 82.22244477 96.25766775 81 95 C77.85026286 94.65545824 77.85026286 94.65545824 75.7734375 97.1171875 Z M58 160 C60.12814322 165.59079976 60.12814322 165.59079976 64 170 C65.66666667 171.66666667 67.33333333 173.33333333 69 175 C67.60125998 169.91367266 65.47245805 165.01922631 62 161 C59.91954412 160.22591455 59.91954412 160.22591455 58 160 Z M98 161 C96.14056119 163.13568034 96.14056119 163.13568034 94.3125 165.8125 C93.66925781 166.70582031 93.02601562 167.59914062 92.36328125 168.51953125 C91.91339844 169.33808594 91.46351562 170.15664062 91 171 C91.33 171.99 91.66 172.98 92 174 C94.97675459 170.90672105 94.97675459 170.90672105 96 167 C97.32 166.67 98.64 166.34 100 166 C100 164.35 100 162.7 100 161 C99.34 161 98.68 161 98 161 Z " fill="#FEFEFE" transform="translate(19,0)"/>
<path d="M0 0 C0.66 0 1.32 0 2 0 C2.60921782 1.62458086 3.21831508 3.24920699 3.8269043 4.87402344 C4.36804739 6.31552667 4.91124551 7.7562598 5.45629883 9.19628906 C6.80092795 12.75680228 8.12176675 16.31858632 9.34765625 19.921875 C16.01877113 39.21535062 26.87030262 56.45777872 40 72 C39.79503906 71.19175781 39.59007812 70.38351562 39.37890625 69.55078125 C39.10949219 68.48214844 38.84007812 67.41351563 38.5625 66.3125 C38.29566406 65.25675781 38.02882812 64.20101562 37.75390625 63.11328125 C37.10102068 60.4171683 36.52058807 57.7242424 36 55 C40.43974781 57.00223921 44.2702894 59.91746164 48.22265625 62.72265625 C54.42307849 67.08165379 58.39225868 68.98408594 66 68 C72.16961505 66.10718606 76.88420701 61.84301341 81.703125 57.70703125 C84 56 84 56 88 55 C86.35 60.61 84.7 66.22 83 72 C102.00269339 51.38005611 112.66859852 26.43617776 121 0 C121.99 0 122.98 0 124 0 C124.29132813 0.82242188 124.58265625 1.64484375 124.8828125 2.4921875 C128.83395808 13.25222547 132.74425129 21.96563098 142 29 C141.40162108 33.09889559 139.12420967 36.0440184 136.75 39.3125 C136.31034912 39.92134033 135.87069824 40.53018066 135.41772461 41.1574707 C124.8873758 55.48379175 112.65879209 68.76406919 98.73046875 79.82421875 C96.93665403 81.25362475 95.1670872 82.71410582 93.42578125 84.20703125 C86.32742515 90.26556837 78.72282655 95.20746729 70.71191406 99.95605469 C69.23340492 100.85766694 67.80932098 101.8474202 66.3984375 102.8515625 C63.09540521 104.43314474 61.48939002 104.04115383 58 103 C55.53726134 101.76157815 53.26669297 100.51130076 50.9375 99.0625 C50.28410645 98.66208496 49.63071289 98.26166992 48.95751953 97.84912109 C42.27559571 93.67554843 36.10558241 88.9655438 30 84 C28.49953125 82.80697266 28.49953125 82.80697266 26.96875 81.58984375 C9.73765742 67.51343352 -8.10388994 50.67736332 -19 31 C-19 30.34 -19 29.68 -19 29 C-17.84734148 28.00003131 -16.65076963 27.05049221 -15.4375 26.125 C-7.53005514 19.39317526 -3.42295539 9.60978781 0 0 Z " fill="#FEFEFE" transform="translate(37,186)"/>
<path d="M0 0 C1.2163082 0.84277192 2.42255102 1.70006937 3.625 2.5625 C4.29789063 3.03816406 4.97078125 3.51382813 5.6640625 4.00390625 C11.92357061 9.35275013 15.50909149 15.3651412 18.875 22.8125 C19.2771875 23.67037109 19.679375 24.52824219 20.09375 25.41210938 C23 31.69415657 23 31.69415657 23 34 C23.94875 33.175 24.8975 32.35 25.875 31.5 C28.75 29 28.75 29 31 29 C32.98 34.28 34.96 39.56 37 45 C38.36125 44.979375 39.7225 44.95875 41.125 44.9375 C46.62045299 45.39025039 49.80091425 47.68316634 54.125 50.8125 C58.35383314 53.98776548 58.35383314 53.98776548 63.390625 54.87890625 C65.53664914 53.79322081 67.18127773 52.57143986 69 51 C75.12244543 46.45834991 79.34607127 45.29420739 87 46 C87.18175781 45.35933594 87.36351563 44.71867187 87.55078125 44.05859375 C89.06270045 38.85604103 90.75000671 33.92855673 93 29 C93.78375 29.474375 94.5675 29.94875 95.375 30.4375 C96.88948678 31.33898023 98.4235897 32.21179485 100 33 C100.22550537 32.47680176 100.45101074 31.95360352 100.68334961 31.41455078 C106.30120512 18.54826039 111.61374593 8.65587682 123 0 C123.33 0 123.66 0 124 0 C124.05607422 1.32451172 124.05607422 1.32451172 124.11328125 2.67578125 C124.54127628 10.48878863 125.58385224 17.55401004 128 25 C126.89140625 25.58007812 125.7828125 26.16015625 124.640625 26.7578125 C123.17666503 27.54609864 121.71314636 28.33520473 120.25 29.125 C119.52039063 29.50398438 118.79078125 29.88296875 118.0390625 30.2734375 C113.37128444 32.81949826 110.38985745 35.05676854 108 40 C108.05994141 41.50626953 108.05994141 41.50626953 108.12109375 43.04296875 C108 46 108 46 105.47265625 48.67578125 C104.34880294 49.57107977 103.21116248 50.44926178 102.0625 51.3125 C100.86348327 52.27043853 99.66688127 53.23140694 98.47265625 54.1953125 C97.8811377 54.66743164 97.28961914 55.13955078 96.68017578 55.62597656 C90.6986755 60.51756093 85.67199654 65.76439345 81.97265625 72.56640625 C81.65167969 73.03949219 81.33070312 73.51257813 81 74 C80.34 74 79.68 74 79 74 C78.34 73.34 77.68 72.68 77 72 C76.74605469 72.71027344 76.49210937 73.42054688 76.23046875 74.15234375 C75.71419922 75.53099609 75.71419922 75.53099609 75.1875 76.9375 C74.85105469 77.85402344 74.51460938 78.77054687 74.16796875 79.71484375 C73 82 73 82 70 83 C69.34 81.35 68.68 79.7 68 78 C66.35 82.62 64.7 87.24 63 92 C60 91 60 91 58.61328125 88.27734375 C58.18402344 87.17519531 57.75476563 86.07304687 57.3125 84.9375 C56.87550781 83.83277344 56.43851563 82.72804688 55.98828125 81.58984375 C55.49908203 80.30787109 55.49908203 80.30787109 55 79 C54.34 80.32 53.68 81.64 53 83 C52.34 83 51.68 83 51 83 C50.3490741 81.75264433 49.70448331 80.50198168 49.0625 79.25 C48.52302734 78.20585937 48.52302734 78.20585937 47.97265625 77.140625 C47.04441818 75.09775567 46.46833422 73.18884624 46 71 C45.01 71.99 44.02 72.98 43 74 C42.5875 73.45472656 42.175 72.90945312 41.75 72.34765625 C39.85845273 69.87766707 37.93713252 67.43440409 36 65 C35.40960938 64.2575 34.81921875 63.515 34.2109375 62.75 C29.75730431 57.44354343 24.84435387 53.34804014 19.21630859 49.36157227 C17.76044675 48.30739418 16.37325942 47.15973433 15 46 C15 45.01 15 44.02 15 43 C15.66 43 16.32 43 17 43 C12.39573642 33.88402086 5.33655805 29.57570308 -4 26 C-3.566875 24.2984375 -3.566875 24.2984375 -3.125 22.5625 C-1.45568782 15.14598444 -0.81457739 7.54783946 0 0 Z " fill="#FEFEFE" transform="translate(37,148)"/>
<path d="M0 0 C0.66 0 1.32 0 2 0 C4.14782149 3.23503733 6.12943991 6.5311547 8.10351562 9.87304688 C10.68904815 14.15619076 13.17317677 17.7436747 17 21 C21.35967605 21.1089919 23.92076733 18.91278766 27 16 C28.31165257 13.88339573 28.31165257 13.88339573 29 12 C30.875 12.1875 30.875 12.1875 33 13 C36.53256368 19.70693035 36.05663823 29.20614673 34 36.375 C33.67 37.24125 33.34 38.1075 33 39 C31.515 38.01 31.515 38.01 30 37 C29.01 37 28.02 37 27 37 C25.13651431 38.93855502 23.55720772 41.0252585 21.9140625 43.15234375 C19.63834205 45.34911063 18.0981545 45.66463276 15 46 C13.20392214 43.75340093 11.41306517 41.50296211 9.625 39.25 C9.11710937 38.61578125 8.60921875 37.9815625 8.0859375 37.328125 C7.59609375 36.709375 7.10625 36.090625 6.6015625 35.453125 C6.15119629 34.88754883 5.70083008 34.32197266 5.23681641 33.73925781 C3.93146936 31.90362964 2.95576697 30.0363688 2 28 C-1.85955925 31.74666538 -5.36619254 35.68521322 -8.8125 39.8125 C-9.31458984 40.40998047 -9.81667969 41.00746094 -10.33398438 41.62304688 C-11.55806732 43.08028848 -12.77932962 44.53989865 -14 46 C-20.09684672 44.71102606 -23.76294052 40.35811832 -28 36 C-29.32 36.66 -30.64 37.32 -32 38 C-33.81464705 34.3707059 -33.22758249 30.12092113 -33.25 26.125 C-33.270625 25.21363281 -33.29125 24.30226563 -33.3125 23.36328125 C-33.31765625 22.48285156 -33.3228125 21.60242188 -33.328125 20.6953125 C-33.3374707 19.89109863 -33.34681641 19.08688477 -33.35644531 18.25830078 C-32.91280561 15.44756976 -31.93459404 14.05764035 -30 12 C-29.34 12 -28.68 12 -28 12 C-26.21296775 13.97608856 -24.59386357 16.05680754 -22.94921875 18.15234375 C-20.61531931 20.36463721 -19.18807062 20.82488788 -16 21 C-9.84355124 16.30165753 -5.80071542 8.83643169 -1.6875 2.375 C-0.8521875 1.199375 -0.8521875 1.199375 0 0 Z " fill="#FEFEFE" transform="translate(98,41)"/>
<path d="M0 0 C0.66 0 1.32 0 2 0 C2.50789063 1.05058594 3.01578125 2.10117188 3.5390625 3.18359375 C7.25499329 10.78930005 10.97599972 18.14909052 16 25 C18.9042893 24.89207179 18.9042893 24.89207179 22 24 C23.91744593 21.55690423 23.91744593 21.55690423 25 19 C28 20 28 20 28.94921875 21.75 C32.47245716 32.4874885 32.47245716 32.4874885 31 38 C28.68642622 41.67922498 25.97881214 44.84462347 23 48 C22.28263672 48.91652344 22.28263672 48.91652344 21.55078125 49.8515625 C20 51 20 51 17.55859375 51.0390625 C14.00608249 49.59636327 13.03563867 47.62724901 11.0625 44.375 C8.00673118 39.51592169 4.85628229 35.24191052 1 31 C-3.16574978 34.92204961 -6.48411727 39.16876174 -9.8125 43.8125 C-10.31458984 44.50537109 -10.81667969 45.19824219 -11.33398438 45.91210938 C-12.5599988 47.60517691 -13.7805649 49.30218756 -15 51 C-19.79094832 50.56600646 -21.71613525 48.77681834 -24.8125 45.1875 C-28.87527906 39.98227558 -30.02761821 36.36138613 -29.515625 29.81640625 C-28.79918815 25.90314131 -27.66702938 22.611897 -26 19 C-25.34 19 -24.68 19 -24 19 C-23.608125 19.78375 -23.21625 20.5675 -22.8125 21.375 C-20.37548682 24.90446737 -18.09373178 25.15035756 -14 26 C-13.7124585 25.41589355 -13.42491699 24.83178711 -13.12866211 24.22998047 C-12.1145521 22.22632899 -11.05110983 20.27213521 -9.94140625 18.3203125 C-9.55533203 17.63839844 -9.16925781 16.95648437 -8.77148438 16.25390625 C-7.96980206 14.84222011 -7.16772299 13.4307592 -6.36523438 12.01953125 C-4.1269426 8.06434679 -1.99234546 4.08719101 0 0 Z " fill="#FEFEFE" transform="translate(98,9)"/>
<path d="M0 0 C0 13.87272596 -7.75695684 28.91039774 -17 39 C-24.6778169 46 -24.6778169 46 -28 46 C-27.7834375 44.93072266 -27.7834375 44.93072266 -27.5625 43.83984375 C-26.24354529 37.03440382 -25.22294141 31.03333715 -26.97265625 24.203125 C-27.30895704 21.52653923 -27.33025687 20.45476023 -25.72680664 18.24682617 C-23.77484606 16.49623957 -21.75926523 14.96047239 -19.625 13.4375 C-18.89071777 12.88102783 -18.15643555 12.32455566 -17.39990234 11.7512207 C-15.94282004 10.64932432 -14.47760611 9.55808646 -13.00390625 8.47851562 C-10.48508407 6.62008639 -8.05801969 4.65632514 -5.625 2.6875 C-2.25423729 0 -2.25423729 0 0 0 Z " fill="#FEFEFE" transform="translate(197,75)"/>
<path d="M0 0 C5.18165907 1.57264361 8.79479221 4.84092919 12.875 8.25 C13.89787109 9.09111328 13.89787109 9.09111328 14.94140625 9.94921875 C19.34149205 13.5782419 23.67920218 17.27711937 28 21 C27.83846436 21.59385498 27.67692871 22.18770996 27.51049805 22.79956055 C25.78586013 30.23340156 26.2873721 38.87935176 29 46 C19.90903271 43.44316545 13.42524005 34.87347905 9 27 C7.44959097 23.82954853 6.01799105 20.61739299 4.625 17.375 C4.27888672 16.57545898 3.93277344 15.77591797 3.57617188 14.95214844 C1.50155814 9.91528564 0.43509542 5.43247711 0 0 Z " fill="#FEFEFE" transform="translate(0,75)"/>
<path d="M0 0 C0.31453125 0.81984375 0.6290625 1.6396875 0.953125 2.484375 C1.38109375 3.56203125 1.8090625 4.6396875 2.25 5.75 C2.66765625 6.81734375 3.0853125 7.8846875 3.515625 8.984375 C5.00396687 12.00805902 6.58280683 13.70676546 9 16 C9 16.66 9 17.32 9 18 C4.32688927 19.55770358 -0.1293257 19.71099884 -5 19 C-9.67117086 16.66060448 -13.11200215 13.33199678 -16 9 C-16 8.34 -16 7.68 -16 7 C-15.071875 6.566875 -14.14375 6.13375 -13.1875 5.6875 C-10.08654089 4.24583739 -10.08654089 4.24583739 -8.375 2.375 C-5.92342722 -0.07657278 -3.34681373 0 0 0 Z " fill="#FEFEFE" transform="translate(178,134)"/>
<path d="M0 0 C4.455 0.99 4.455 0.99 9 2 C9 2.99 9 3.98 9 5 C10.98 5.66 12.96 6.32 15 7 C14.45550236 10.79472973 12.96207612 12.27031268 10.0625 14.6875 C9.35222656 15.28949219 8.64195313 15.89148438 7.91015625 16.51171875 C4.65964517 19.04432554 2.63653703 19.13582082 -1.4375 19.125 C-2.40558594 19.12757813 -3.37367187 19.13015625 -4.37109375 19.1328125 C-7 19 -7 19 -10 18 C-8.93408473 15.60169065 -7.8436387 13.81757848 -6.125 11.8125 C-3.32125016 8.10165462 -1.79254326 4.28929995 0 0 Z " fill="#FEFEFE" transform="translate(20,134)"/>
<path d="M0 0 C0.84304687 0.31582031 1.68609375 0.63164063 2.5546875 0.95703125 C3.40289062 1.25996094 4.25109375 1.56289062 5.125 1.875 C5.88554687 2.17019531 6.64609375 2.46539062 7.4296875 2.76953125 C8.4196875 3.09953125 9.4096875 3.42953125 10.4296875 3.76953125 C9.4296875 6.76953125 9.4296875 6.76953125 6.48046875 8.5234375 C5.23943012 9.13664094 3.99304621 9.73911657 2.7421875 10.33203125 C2.12923828 10.63560547 1.51628906 10.93917969 0.88476562 11.25195312 C-10.38516949 16.7375313 -10.38516949 16.7375313 -16.5703125 14.76953125 C-17.7421875 12.71484375 -17.7421875 12.71484375 -18.5703125 10.76953125 C-17.83425781 10.310625 -17.09820312 9.85171875 -16.33984375 9.37890625 C-15.36402344 8.7653125 -14.38820312 8.15171875 -13.3828125 7.51953125 C-12.41988281 6.91625 -11.45695313 6.31296875 -10.46484375 5.69140625 C-7.52218051 3.84213115 -7.52218051 3.84213115 -5.02734375 1.4609375 C-2.5703125 -0.23046875 -2.5703125 -0.23046875 0 0 Z " fill="#FEFEFE" transform="translate(185.5703125,115.23046875)"/>
<path d="M0 0 C2.55178199 1.7842141 5.08576393 3.57699586 7.5859375 5.43359375 C11.13608914 8.12585754 11.13608914 8.12585754 14.9609375 10.37109375 C14.9609375 11.36109375 14.9609375 12.35109375 14.9609375 13.37109375 C11.56924394 15.63222279 10.09332352 15.52563265 6.16308594 14.9140625 C2.34888619 13.97362123 -0.96864555 12.21985407 -4.4140625 10.37109375 C-5.47947266 9.81808594 -5.47947266 9.81808594 -6.56640625 9.25390625 C-8.39576018 8.30278106 -10.21795146 7.33790785 -12.0390625 6.37109375 C-12.6990625 6.04109375 -13.3590625 5.71109375 -14.0390625 5.37109375 C-14.0390625 4.71109375 -14.0390625 4.05109375 -14.0390625 3.37109375 C-12.12927617 2.64441405 -10.21087735 1.94033787 -8.2890625 1.24609375 C-7.22171875 0.85164063 -6.154375 0.4571875 -5.0546875 0.05078125 C-2.0390625 -0.62890625 -2.0390625 -0.62890625 0 0 Z " fill="#FEFEFE" transform="translate(15.0390625,115.62890625)"/>
<path d="M0 0 C0.48416771 6.56316229 0.45675529 12.73167508 -4 18 C-6.140625 18.71484375 -6.140625 18.71484375 -8 19 C-8.50833591 17.75336669 -9.00631145 16.50250613 -9.5 15.25 C-9.7784375 14.55390625 -10.056875 13.8578125 -10.34375 13.140625 C-11 11 -11 11 -11 7 C-9.35546875 5.078125 -9.35546875 5.078125 -7.1875 3.25 C-6.47980469 2.63640625 -5.77210938 2.0228125 -5.04296875 1.390625 C-3 0 -3 0 0 0 Z " fill="#FEFEFE" transform="translate(145,42)"/>
<path d="M0 0 C2.99220268 1.36370299 5.29026529 2.94908083 7.75 5.125 C8.67039062 5.93324219 8.67039062 5.93324219 9.609375 6.7578125 C10.06828125 7.16773438 10.5271875 7.57765625 11 8 C9.7874262 11.72433382 8.49140021 15.37802806 7 19 C3.13117944 17.53251634 1.70826803 15.74192045 0 12 C-0.91123627 7.94378901 -1.49352395 3.98273053 0 0 Z " fill="#FEFEFE" transform="translate(53,42)"/>
<path d="M0 0 C0.99 0 1.98 0 3 0 C3.125 6.625 3.125 6.625 2 10 C-0.8914086 11.1194613 -3.67762612 11.10768197 -6.75 11.0625 C-7.54921875 11.05347656 -8.3484375 11.04445312 -9.171875 11.03515625 C-9.77515625 11.02355469 -10.3784375 11.01195312 -11 11 C-11 10.34 -11 9.68 -11 9 C-9.35546875 7.8515625 -9.35546875 7.8515625 -7.1875 6.625 C-3.99179702 4.72895792 -2.14857536 3.05323868 0 0 Z " fill="#FEFEFE" transform="translate(29,153)"/>
<path d="M0 0 C3.94607548 1.97303774 5.92864836 3.92864836 9 7 C11.16620544 8.29519995 11.16620544 8.29519995 13 9 C13 9.66 13 10.32 13 11 C11.58344207 11.0272415 10.16672955 11.04650467 8.75 11.0625 C7.56664062 11.07990234 7.56664062 11.07990234 6.359375 11.09765625 C4 11 4 11 0 10 C0 6.7 0 3.4 0 0 Z " fill="#FEFEFE" transform="translate(166,153)"/>
<path d="M0 0 C0.66 0 1.32 0 2 0 C2.3125 2.8125 2.3125 2.8125 2 6 C-0.93988073 8.75613818 -3.42304401 9.16677466 -7.3125 9.1875 C-9.1378125 9.0946875 -9.1378125 9.0946875 -11 9 C-11 8.34 -11 7.68 -11 7 C-8.84765625 5.52734375 -8.84765625 5.52734375 -6.0625 3.9375 C-2.84169663 2.22531095 -2.84169663 2.22531095 0 0 Z " fill="#FEFEFE" transform="translate(134,129)"/>
<path d="M0 0 C1.60540659 0.78914921 3.20928016 1.58141765 4.8125 2.375 C5.70582031 2.81585938 6.59914063 3.25671875 7.51953125 3.7109375 C10 5 10 5 13 7 C13 7.66 13 8.32 13 9 C7.97762985 9.29543354 5.0892422 9.00679573 1 6 C0 5 0 5 -0.0625 2.4375 C-0.041875 1.633125 -0.02125 0.82875 0 0 Z " fill="#FEFEFE" transform="translate(61,129)"/>
</svg>
