<?xml version="1.0" encoding="UTF-8"?>
<!-- Generator: visioncortex VTracer 0.6.4 -->
<svg version="1.1" xmlns="http://www.w3.org/2000/svg" width="192" height="290">
<path d="M0 0 C0.91942383 0.22308838 1.83884766 0.44617676 2.78613281 0.67602539 C8.41462835 2.07916168 13.77024403 3.72570679 19.015625 6.24609375 C26.69054934 7.76459872 36.08441586 3.14048625 43.36523438 0.87304688 C47.75287395 -0.47312257 51.99582192 -1.66075121 56.5625 -2.25 C57.32433594 -2.35183594 58.08617187 -2.45367187 58.87109375 -2.55859375 C63.19638891 -2.82049236 65.92108121 -2.48497003 69.375 0.25 C75.18393021 5.41349352 77.56483779 14.02409173 80.125 21.125 C80.42873535 21.96063477 80.7324707 22.79626953 81.04541016 23.65722656 C87.16475346 40.63005665 91.51213162 58.51227838 83.5625 75.75 C81.26853305 79.68936688 78.67008189 83.41205752 76.046875 87.13671875 C72.79341705 91.77549612 70.13992806 96.71039472 67.5625 101.75 C66.45132813 101.26789063 65.34015625 100.78578125 64.1953125 100.2890625 C53.59621656 95.68449676 53.59621656 95.68449676 42.34765625 93.234375 C40.5625 92.75 40.5625 92.75 38.5625 89.75 C38.2325 91.73 37.9025 93.71 37.5625 95.75 C36.881875 95.8325 36.20125 95.915 35.5 96 C32.83513072 96.68039216 31.39750363 97.38334772 29.125 98.8125 C25.74930138 100.80292273 23.53736773 101.41247795 19.5625 100.75 C18.35262682 100.12485395 17.16531585 99.45472665 16 98.75 C12.66206891 96.807931 11.29621677 96.29742827 7.5625 96.75 C6.9025 94.77 6.2425 92.79 5.5625 90.75 C5.2325 91.41 4.9025 92.07 4.5625 92.75 C2.66319501 93.23975789 0.74065124 93.64020144 -1.1875 94 C-7.57246369 95.36165524 -13.02486385 97.64529207 -18.85546875 100.54296875 C-21.4375 101.75 -21.4375 101.75 -23.4375 101.75 C-23.91058594 100.82960938 -24.38367188 99.90921875 -24.87109375 98.9609375 C-28.03644164 92.88126701 -31.2251621 86.92957704 -35.06884766 81.24682617 C-43.08404429 69.39301635 -45.1799468 58.00330226 -42.96875 43.72265625 C-42.26526505 40.67003405 -41.39997668 37.73150671 -40.4375 34.75 C-40.23350586 34.10804687 -40.02951172 33.46609375 -39.81933594 32.8046875 C-30.68965102 4.41894225 -30.68965102 4.41894225 -22.46337891 -1.27514648 C-15.75850645 -4.50153305 -6.82732172 -1.73702868 0 0 Z M-32.5625 41.5625 C-33.24570312 41.89894531 -33.92890625 42.23539063 -34.6328125 42.58203125 C-36.74325323 43.77839414 -36.74325323 43.77839414 -38.4375 46.75 C-37.51130859 46.71519531 -37.51130859 46.71519531 -36.56640625 46.6796875 C-30.55867697 46.55166892 -25.23500618 47.18159253 -19.4375 48.75 C-19.4375 49.41 -19.4375 50.07 -19.4375 50.75 C-21.29375 50.9046875 -21.29375 50.9046875 -23.1875 51.0625 C-26.79377117 51.3630226 -28.67111741 52.4259894 -31.4375 54.75 C-25.59721439 59.62487322 -25.59721439 59.62487322 -18.4375 61.75 C-17.7775 62.41 -17.1175 63.07 -16.4375 63.75 C-14.32029189 63.97815086 -14.32029189 63.97815086 -11.89453125 63.83984375 C-10.98509766 63.81986328 -10.07566406 63.79988281 -9.13867188 63.77929688 C-7.2322728 63.71871489 -5.32600868 63.65370322 -3.41992188 63.58398438 C2.42415978 63.4647174 6.37532374 64.00215974 11.5625 66.75 C11.51029297 65.82767578 11.51029297 65.82767578 11.45703125 64.88671875 C11.42996094 64.07847656 11.40289062 63.27023438 11.375 62.4375 C11.32279297 61.23673828 11.32279297 61.23673828 11.26953125 60.01171875 C11.62922009 57.2349209 12.573505 56.61203787 14.5625 54.75 C14.33206136 52.09533951 14.33206136 52.09533951 13.5625 49.75 C12.55856201 49.96261475 11.55462402 50.17522949 10.52026367 50.39428711 C6.18191373 50.78420605 3.19902689 49.98800364 -0.76171875 48.44140625 C-1.43040482 48.19583481 -2.09909088 47.95026337 -2.78804016 47.69725037 C-4.9061537 46.91697744 -7.0156543 46.11614069 -9.125 45.3125 C-11.24608173 44.51573993 -13.36867788 43.7235849 -15.49409485 42.9384613 C-17.41582686 42.22691164 -19.33245655 41.50162651 -21.2487793 40.77563477 C-25.67887314 39.35071904 -28.4989184 39.49980744 -32.5625 41.5625 Z M62.44921875 41.90234375 C61.28326172 42.34900391 60.11730469 42.79566406 58.91601562 43.25585938 C56.48349682 44.20579879 54.05120286 45.15631416 51.61914062 46.10742188 C44.39722626 48.87283812 38.32645383 50.75 30.5625 50.75 C31.00259899 53.39059394 31.45745132 55.54573867 32.6875 57.9375 C33.120625 58.8346875 33.120625 58.8346875 33.5625 59.75 C33.2325 60.41 32.9025 61.07 32.5625 61.75 C32.522508 63.74960012 32.51903201 65.75047242 32.5625 67.75 C32.8925 67.09 33.2225 66.43 33.5625 65.75 C39.23604231 63.16635612 44.1165527 63.85828418 50.109375 64.47265625 C58.28561529 65.1663084 63.98684552 63.72113222 70.5625 58.625 C71.51125 57.90054688 72.46 57.17609375 73.4375 56.4296875 C74.13875 55.87539062 74.84 55.32109375 75.5625 54.75 C71.5312339 51.3633733 68.70567962 51.1785983 63.5625 50.75 C63.5625 50.09 63.5625 49.43 63.5625 48.75 C69.9403552 47.57706111 76.06571562 46.45469162 82.5625 46.75 C77.80169152 41.54118723 77.80169152 41.54118723 71.31958008 39.57250977 C68.01789842 39.78505936 65.52954214 40.69663129 62.44921875 41.90234375 Z " fill="#FEFEFE" transform="translate(73.4375,49.25)"/>
<path d="M0 0 C0.66 0.33 1.32 0.66 2 1 C3.72678334 6.56407966 4.25182442 12.20803845 4 18 C4.66 16.02 5.32 14.04 6 12 C10.73897489 13.5796583 12.18572721 17.6051274 14.6875 21.75 C15.19861328 22.56210938 15.70972656 23.37421875 16.23632812 24.2109375 C16.71908203 25.00242188 17.20183594 25.79390625 17.69921875 26.609375 C18.14096436 27.33092773 18.58270996 28.05248047 19.0378418 28.79589844 C20.16764785 31.38404588 20.2361058 33.2024512 20 36 C18.90418054 38.52919046 17.47282306 40.65268826 16 43 C16.71542969 42.41992188 17.43085937 41.83984375 18.16796875 41.2421875 C27.87454758 33.63263153 40.06116861 25.17033448 53 26 C55.18359375 27.8828125 55.18359375 27.8828125 57 30 C58.2375 30.7425 58.2375 30.7425 59.5 31.5 C62 33 62 33 64 35.125 C66.44838523 37.42036115 67.63982384 38 71 38 C74.15641617 36.2245159 76.81438247 34.15026181 79.625 31.875 C81.71322625 30.22640033 83.64267677 29.17866162 86 28 C86.33 27.34 86.66 26.68 87 26 C100.46397875 27.14101515 113.01687261 34.12610899 123 43 C122.319375 41.96875 121.63875 40.9375 120.9375 39.875 C119.25100063 37.31969792 118.98498216 36.21053317 119.20703125 33.09765625 C121.1785477 25.39611661 126.06640741 18.16699074 131 12 C131.66 12 132.32 12 133 12 C133.99 14.475 133.99 14.475 135 17 C135.66 12.05 136.32 7.1 137 2 C137.99 1.67 138.98 1.34 140 1 C140.18433594 1.64324219 140.36867187 2.28648438 140.55859375 2.94921875 C143.27406271 11.40941315 147.79486152 17.94218512 153 25 C158.06921467 31.8957738 162.95673786 38.93780959 166 47 C165.67 47.99 165.34 48.98 165 50 C163.35 48.35 161.7 46.7 160 45 C160.34933594 45.67546875 160.69867188 46.3509375 161.05859375 47.046875 C161.51363281 47.93890625 161.96867188 48.8309375 162.4375 49.75 C162.88996094 50.63171875 163.34242188 51.5134375 163.80859375 52.421875 C167.04557317 59.4264862 166.33853131 65.83824786 164 73 C163.34 73 162.68 73 162 73 C161.62488281 72.05898437 161.24976563 71.11796875 160.86328125 70.1484375 C157.10247039 60.8614453 157.10247039 60.8614453 151 53 C151.2165625 53.65742188 151.433125 54.31484375 151.65625 54.9921875 C154.8843268 66.02144992 156.61847648 80.07452524 151.390625 90.76953125 C145.62706146 100.01389862 138.19014667 108.66918767 128 113 C128.93193524 110.59250062 129.89948641 108.21612409 130.98828125 105.875 C131.34277344 105.111875 131.69726562 104.34875 132.0625 103.5625 C132.40410156 102.84191406 132.74570313 102.12132812 133.09765625 101.37890625 C136.79622501 91.62813406 135.71817755 79.85339361 133 70 C132.87044922 71.01707031 132.87044922 71.01707031 132.73828125 72.0546875 C131.54651535 79.9487699 129.42273547 88.65628409 123 94 C122.34 94 121.68 94 121 94 C120.85304687 93.24976563 120.70609375 92.49953125 120.5546875 91.7265625 C116.95025454 75.27874775 105.97482861 62.45862139 92.18359375 53.0859375 C85.91144579 49.19288014 80.37606946 46.65222479 73 46 C72.17757812 45.91878906 71.35515625 45.83757812 70.5078125 45.75390625 C57.51244236 45.08591993 46.25272632 53.13000674 36.8125 61.3125 C26.55131211 70.93746161 21.03566485 80.33950818 18 94 C13.88330844 92.52975301 11.88189092 89.79488747 10 86 C8.08758067 80.78738802 6.72501088 75.51008265 6 70 C2.80475624 81.58275865 2.22283748 94.24186871 8.125 105.0625 C8.49625 105.68125 8.8675 106.3 9.25 106.9375 C9.8275 107.948125 10.405 108.95875 11 110 C10.505 111.485 10.505 111.485 10 113 C-1.7357971 104.75274015 -11.86818343 95.69996402 -15 81 C-16.18020122 70.68553307 -14.05992335 61.75350567 -11 52 C-16.10778643 58.15832406 -19.60537515 64.77739393 -23 72 C-23.66 72 -24.32 72 -25 72 C-27.50039137 66.99921726 -27.01528505 59.30322781 -25.40673828 54.06982422 C-23.88876207 50.2346757 -22.00818081 46.59799062 -20 43 C-21.65 44.98 -23.3 46.96 -25 49 C-25.78072135 46.73894987 -26.10718583 45.38680104 -25.4609375 43.0546875 C-21.98169536 36.0711727 -17.4421162 30.01536108 -12.81665039 23.76635742 C-7.33547715 16.27706665 -3.39800447 8.64241319 0 0 Z " fill="#FEFEFE" transform="translate(26,120)"/>
<path d="M0 0 C0.76828125 -0.20882812 1.5365625 -0.41765625 2.328125 -0.6328125 C6.07366292 -1.14755017 8.02261809 0.16602513 11.3125 1.9375 C12.91544922 2.78634766 12.91544922 2.78634766 14.55078125 3.65234375 C15.76314453 4.31943359 15.76314453 4.31943359 17 5 C17 5.66 17 6.32 17 7 C17.58136719 7.10054687 18.16273437 7.20109375 18.76171875 7.3046875 C22.96595774 8.61071636 25.84145088 12.042557 29 15 C29.62648438 15.56203125 30.25296875 16.1240625 30.8984375 16.703125 C35.36156865 20.87391131 38.52433996 25.39839133 41 31 C41 31.66 41 32.32 41 33 C40.01 33.495 40.01 33.495 39 34 C39.28875 34.52207031 39.5775 35.04414063 39.875 35.58203125 C43.62408071 43.01510445 44.25000501 49.6617473 41.9375 57.6875 C37.76301774 64.82451806 32.09412441 70.69460036 25 75 C24.34 75 23.68 75 23 75 C24.83495146 69.36407767 24.83495146 69.36407767 26.0625 66.65625 C27.11955852 63.66125085 27.20124803 61.3517933 27.125 58.1875 C27.10695313 57.21167969 27.08890625 56.23585937 27.0703125 55.23046875 C27.04710938 54.49441406 27.02390625 53.75835937 27 53 C26.78085938 53.73605469 26.56171875 54.47210938 26.3359375 55.23046875 C23.97284877 62.50224992 21.80314018 66.55248683 14.75390625 70.14453125 C5.62299442 74.38763149 -3.00786009 75.64498372 -12.75 72.3125 C-19.30179333 69.65434385 -24.84898502 66.63371574 -28 60 C-28.69822617 58.34630643 -29.37498605 56.68272986 -30 55 C-30.47156103 62.38778946 -28.38732834 68.47571106 -25 75 C-33.14413925 73.52927508 -38.94699712 66.29240196 -43.6875 60.015625 C-47.02341803 54.89260803 -46.75710816 48.87270387 -46 43 C-44.36078207 38.77053099 -42.3194366 34.89334001 -40 31 C-41.32 31.66 -42.64 32.32 -44 33 C-41.68899055 22.98562571 -32.36209926 13.73015601 -24.125 8 C-22 7 -22 7 -20 7 C-20 6.34 -20 5.68 -20 5 C-8.09393774 -1.8459858 -8.09393774 -1.8459858 0 0 Z M-16 9 C-13.11596332 12.73655428 -13.11596332 12.73655428 -8.88671875 14.49316406 C-6.40765499 14.6730298 -3.98469907 14.68207578 -1.5 14.625 C-0.65824219 14.64433594 0.18351562 14.66367188 1.05078125 14.68359375 C5.26494188 14.65041138 8.02064183 14.52322486 11.09375 11.4609375 C11.7228125 10.64882812 12.351875 9.83671875 13 9 C3.3545435 7.48698722 -6.3545435 7.48698722 -16 9 Z " fill="#FEFEFE" transform="translate(97,171)"/>
<path d="M0 0 C-0.474375 -0.78375 -0.94875 -1.5675 -1.4375 -2.375 C-2.33898023 -3.88948678 -3.21179485 -5.4235897 -4 -7 C1.62693372 -7.36650526 5.07820615 -6.40124176 10.0625 -3.8125 C11.22910156 -3.22082031 12.39570312 -2.62914062 13.59765625 -2.01953125 C18.26716407 0.75215135 22.2570426 4.04910052 26 8 C25.505 6.02 25.505 6.02 25 4 C31.3948336 6.60530258 35.28865256 12.00685596 37.9375 18.1875 C38.86284922 20.14612637 38.86284922 20.14612637 40.87890625 20.9296875 C47.37427665 24.20727772 49.98740606 30.71022269 52.23828125 37.25390625 C54.03860314 43.74429746 54.24464608 50.05507992 54.3125 56.75 C54.35600586 58.15765625 54.35600586 58.15765625 54.40039062 59.59375 C54.46251071 66.51297194 52.99934055 71.77927108 50 78 C49.34 78 48.68 78 48 78 C47.16280617 75.70967689 46.3301071 73.41789043 45.5 71.125 C45.26152344 70.47402344 45.02304688 69.82304688 44.77734375 69.15234375 C43 64.2265625 43 64.2265625 43 62 C44.485 62.495 44.485 62.495 46 63 C44.76110506 59.17068837 42.94214281 56.5750646 40.30859375 53.55078125 C35 47.25970149 35 47.25970149 35 44 C36.98 44 38.96 44 41 44 C36.73422431 41.0459281 36.73422431 41.0459281 32 39 C32.66 36.69 33.32 34.38 34 32 C32.515 32.7425 32.515 32.7425 31 33.5 C26.86522766 35.30103581 23.46801547 35.23515871 19 35 C19.28875 34.46890625 19.5775 33.9378125 19.875 33.390625 C20.431875 32.33101562 20.431875 32.33101562 21 31.25 C21.556875 30.20585938 21.556875 30.20585938 22.125 29.140625 C23.25224649 26.76832243 23.25224649 26.76832243 23 23 C22.6596875 23.51949219 22.319375 24.03898437 21.96875 24.57421875 C16.72314871 32.12174613 10.92498508 35.95469092 2 38 C2.28617187 37.45472656 2.57234375 36.90945312 2.8671875 36.34765625 C4.11778977 33.75589086 5.13276492 31.13858439 6.125 28.4375 C6.47820312 27.48746094 6.83140625 26.53742187 7.1953125 25.55859375 C8.15000797 22.97005776 8.15000797 22.97005776 8 20 C7.731875 20.54527344 7.46375 21.09054688 7.1875 21.65234375 C2.03011944 31.57690832 -4.65400266 39.31397989 -15 44 C-15.99 44 -16.98 44 -18 44 C-19.46484375 42.42578125 -19.46484375 42.42578125 -20.9375 40.3125 C-21.46730469 39.57902344 -21.99710938 38.84554687 -22.54296875 38.08984375 C-23.63002713 36.53065814 -24.69566745 34.95649883 -25.75 33.375 C-29.24222386 29.6887637 -33.58701294 27.45072373 -38 25 C-36.64417015 27.03374477 -35.26842582 29.05432749 -33.875 31.0625 C-32 34 -32 34 -32 36 C-31.34 36 -30.68 36 -30 36 C-30 36.66 -30 37.32 -30 38 C-42.73141424 35.66590739 -58.05824428 30.16406593 -65.984375 19.2734375 C-66.56703125 18.31695313 -67.1496875 17.36046875 -67.75 16.375 C-68.34296875 15.41335937 -68.9359375 14.45171875 -69.546875 13.4609375 C-71.98196714 9.33699114 -72.0893811 6.82657933 -72 2 C-63.35975438 -0.513526 -54.91189982 -0.18417244 -46 0 C-47.98 -0.66 -49.96 -1.32 -52 -2 C-51.67 -2.99 -51.34 -3.98 -51 -5 C-34.02209238 -9.52744203 -15.59715597 -8.22266984 0 0 Z " fill="#FEFEFE" transform="translate(115,7)"/>
<path d="M0 0 C0.64324219 0.15597656 1.28648438 0.31195313 1.94921875 0.47265625 C11.15342041 2.45530169 19.82056659 1.98153821 29 0 C32.55825893 5.48564918 32.82418822 10.66629268 32 17 C30.5015394 21.54679958 29.0152996 24.3231336 25 27 C25 24.36 25 21.72 25 19 C24.62875 20.010625 24.2575 21.02125 23.875 22.0625 C22.04220445 26.40100154 19.19731642 29.59573753 16 33 C11.64286631 32.27381105 10.03563306 30.23105152 7.328125 26.921875 C5.60126892 24.42301267 4.71676678 21.9387438 4 19 C4 21.64 4 24.28 4 27 C-0.23217494 23.35157333 -2.56742401 19.30277617 -3.2890625 13.79296875 C-3.48910735 8.45540834 -2.41863329 4.73649019 0 0 Z " fill="#FEFEFE" transform="translate(81,257)"/>
<path d="M0 0 C0.474375 1.134375 0.94875 2.26875 1.4375 3.4375 C3.79758933 8.25208223 7.27203184 11.50668755 11.171875 15.1171875 C13 17 13 17 13 19 C12.2265625 19.08636719 11.453125 19.17273438 10.65625 19.26171875 C3.51142537 20.22556267 -1.17362106 21.74226154 -7 26 C-4.03 25.67 -1.06 25.34 2 25 C2 25.66 2 26.32 2 27 C1.34 27 0.68 27 0 27 C-0.23460938 27.52335937 -0.46921875 28.04671875 -0.7109375 28.5859375 C-2.75772793 32.41901777 -5.36793687 35.87436607 -7.8984375 39.3984375 C-10.24094682 42.40471004 -10.24094682 42.40471004 -11 46 C-9.515 45.505 -9.515 45.505 -8 45 C-9.85493392 50.71937959 -11.93103891 56.35555275 -14 62 C-14.66 62 -15.32 62 -16 62 C-22.9765147 46.53033697 -20.80390788 29.08912416 -15.125 13.4375 C-13.40146536 9.4333948 -11.39269999 6.81345853 -8 4 C-6.700625 2.8553125 -6.700625 2.8553125 -5.375 1.6875 C-3 0 -3 0 0 0 Z M-11 16 C-10.67 16.66 -10.34 17.32 -10 18 C-9.67 17.34 -9.34 16.68 -9 16 C-9.66 16 -10.32 16 -11 16 Z " fill="#FEFEFE" transform="translate(42,23)"/>
<path d="M0 0 C3.72079096 0.74835457 5.69359239 2.29926748 7.90625 5.46875 C8.2671875 6.0359375 8.628125 6.603125 9 7.1875 C10.11375 8.734375 10.11375 8.734375 11.25 10.3125 C13.96822161 15.16803295 13.8213381 20.74724507 14 26.1875 C9.98624728 24.69114482 8.63695954 22.43561777 6.5 18.8125 C4.30994731 15.11927478 2.21351594 12.06060111 -1 9.1875 C-1.33 9.1875 -1.66 9.1875 -2 9.1875 C-1.67 13.4775 -1.34 17.7675 -1 22.1875 C0.32 21.5275 1.64 20.8675 3 20.1875 C5.21650774 22.58341176 5.97283246 23.82812585 6.22265625 27.1328125 C6.16980469 28.18210937 6.11695313 29.23140625 6.0625 30.3125 C5.87100961 33.4213134 5.87100961 33.4213134 6 36.1875 C6.66 36.8475 7.32 37.5075 8 38.1875 C7.61233695 41.77338324 6.41433748 44.88737921 5 48.1875 C2.19408113 47.8481232 1.21410857 47.4513404 -0.59765625 45.21875 C-6.45614102 35.09528831 -9.16670571 25.85198023 -9.375 14.1875 C-9.41238281 13.3934375 -9.44976562 12.599375 -9.48828125 11.78125 C-9.55299818 7.46678785 -9.38645041 5.70608724 -6.7265625 2.13671875 C-3.08517479 -0.46650828 -3.08517479 -0.46650828 0 0 Z " fill="#FEFEFE" transform="translate(11,79.8125)"/>
<path d="M0 0 C3.1359157 1.77984405 3.84102736 2.52308207 5 6 C5.89393541 19.56375071 4.52922554 33.31592744 -3 45 C-4.65625 46.76953125 -4.65625 46.76953125 -6 48 C-9 47 -9 47 -10.6875 44.1875 C-12 41 -12 41 -12 37 C-11.34 37 -10.68 37 -10 37 C-10.03480469 36.19175781 -10.06960937 35.38351563 -10.10546875 34.55078125 C-10.13253906 33.48214844 -10.15960938 32.41351563 -10.1875 31.3125 C-10.22230469 30.25675781 -10.25710937 29.20101562 -10.29296875 28.11328125 C-9.96666615 24.64577232 -8.99030125 22.81567552 -7 20 C-5.68 20.66 -4.36 21.32 -3 22 C-2.67 17.71 -2.34 13.42 -2 9 C-6.53376815 11.26688408 -7.24515844 12.61289804 -9.625 16.9375 C-11.34851736 20.03456285 -13.0333529 23.05002934 -15 26 C-15.99 25.67 -16.98 25.34 -18 25 C-18.12119093 16.04918393 -15.66081355 9.93830563 -10 3 C-6.58356537 0.00817005 -4.57532045 -0.57191506 0 0 Z " fill="#FEFEFE" transform="translate(184,80)"/>
<path d="M0 0 C0.78310547 0.30744141 0.78310547 0.30744141 1.58203125 0.62109375 C11.38318684 4.208557 19.41978865 4.63998307 29.46875 1.69140625 C32 1 32 1 35 1 C34.8125 3.3125 34.8125 3.3125 34 6 C26.9787822 11.31335401 18.38770995 10.49287698 10 10 C6.09124521 9.22846059 2.98182089 8.30909452 0.5 5 C0 3 0 3 0 0 Z " fill="#FEFEFE" transform="translate(78,245)"/>
<path d="" fill="#FEFEFE" transform="translate(0,0)"/>
</svg>
