<?xml version="1.0" encoding="UTF-8"?>
<!-- Generator: visioncortex VTracer 0.6.4 -->
<svg version="1.1" xmlns="http://www.w3.org/2000/svg" width="263" height="290">
<path d="M0 0 C7.49618376 6.8835924 8.33799772 14.20933474 9 24 C11.03448862 16.56755366 10.25614495 9.92232296 7 3 C4.40669012 -1.06710347 1.45896677 -4.64397867 -2 -8 C7.38663944 -7.47852003 14.20239331 -4.20844426 20.5625 2.75 C23.51678131 5.90712809 25.19419128 7.52078075 29.5625 7.8125 C30.67431641 7.83376953 30.67431641 7.83376953 31.80859375 7.85546875 C38.32868921 8.28549287 43.24181 12.69033243 47.51953125 17.26171875 C49.34562794 19.40581644 50.85288814 21.41899832 52 24 C51.67 24.99 51.34 25.98 51 27 C48.98177083 26.96744792 46.96354167 26.93489583 44.9453125 26.90234375 C42.91814596 26.87350758 42.91814596 26.87350758 41 28 C42.155 28.0825 43.31 28.165 44.5 28.25 C52.25535408 29.27584049 57.54865744 32.68375905 62.45703125 38.7265625 C66.83277507 45.173861 68.57247649 51.27156738 68 59 C67.01 59.495 67.01 59.495 66 60 C66.2475 61.093125 66.495 62.18625 66.75 63.3125 C67.47557279 68.94576651 65.57682198 74.03041475 63 79 C62.01 79.66 61.02 80.32 60 81 C53.10193117 79.48977191 47.90130535 74.78617401 43 70 C42.20045898 69.22897949 42.20045898 69.22897949 41.38476562 68.44238281 C39.58122045 66.69935263 37.78857703 64.9458809 36 63.1875 C35.4112207 62.61201416 34.82244141 62.03652832 34.21582031 61.44360352 C32.77091075 60.00104097 31.38032881 58.50447424 30 57 C30 56.34 30 55.68 30 55 C31.10859375 55.27714844 32.2171875 55.55429687 33.359375 55.83984375 C34.06320313 56.01580078 34.76703125 56.19175781 35.4921875 56.37304688 C36.98177083 56.74544271 38.47135417 57.11783854 39.9609375 57.49023438 C41.02441406 57.75610352 41.02441406 57.75610352 42.109375 58.02734375 C43.40625 58.3515625 44.703125 58.67578125 46 59 C47.11036621 59.27759155 47.11036621 59.27759155 48.24316406 59.56079102 C48.82291992 59.70572998 49.40267578 59.85066895 50 60 C41.82739663 53.12758353 32.48925449 51.47553728 22 52 C22 49 22 49 27 44 C21.39 45.98 15.78 47.96 10 50 C12 46 12 46 13.875 43.75 C18.45889883 37.81789564 20.46750209 32.45497075 21 25 C20.61070312 25.73863281 20.22140625 26.47726563 19.8203125 27.23828125 C13.22538786 39.19728053 4.74182284 47.89106056 -6.21484375 55.90625 C-8.35206245 57.5129109 -10.19861582 59.04170082 -12 61 C-10.67162109 60.49339844 -10.67162109 60.49339844 -9.31640625 59.9765625 C-2.18658458 57.40952993 4.65022036 55.47774695 12.1875 54.5625 C12.90542725 54.46984863 13.62335449 54.37719727 14.36303711 54.28173828 C18.18042193 53.88172243 20.83280986 53.71651246 24 56 C25.89453125 57.6640625 25.89453125 57.6640625 27.8125 59.625 C28.51375 60.34042969 29.215 61.05585937 29.9375 61.79296875 C31.8041817 63.79045958 33.56245215 65.83828394 35.3125 67.9375 C40.25459612 73.68623709 46.26482555 78.84430015 52.8359375 82.63671875 C53.55007812 83.08660156 54.26421875 83.53648438 55 84 C55 84.66 55 85.32 55 86 C48.85278101 85.72679027 44.99278679 84.8968092 40 81 C39.34 80.67 38.68 80.34 38 80 C38.42152344 81.16917969 38.84304687 82.33835937 39.27734375 83.54296875 C39.83091109 85.09108079 40.38428641 86.63926151 40.9375 88.1875 C41.21529297 88.95642578 41.49308594 89.72535156 41.77929688 90.51757812 C46.5696037 103.96506596 46.69817372 117.78756794 41 131 C38.86353276 135.13624107 36.50096455 139.07549535 34 143 C33.484375 143.83402344 32.96875 144.66804687 32.4375 145.52734375 C31.30416522 147.35935367 30.15428923 149.18112 29 151 C29.48210937 150.4946875 29.96421875 149.989375 30.4609375 149.46875 C31.09257812 148.8190625 31.72421875 148.169375 32.375 147.5 C33.00148437 146.8503125 33.62796875 146.200625 34.2734375 145.53125 C36 144 36 144 38 144 C37.24210184 148.0233822 36.46637827 152.04313106 35.6875 156.0625 C35.47416016 157.19623047 35.26082031 158.32996094 35.04101562 159.49804688 C32.18218432 174.13355639 32.18218432 174.13355639 26.875 179.8125 C26.26011719 180.48152344 25.64523438 181.15054688 25.01171875 181.83984375 C24.34785156 182.55269531 23.68398437 183.26554688 23 184 C21.56209712 185.62464352 20.12461579 187.2496602 18.6875 188.875 C14.70000295 193.30631093 10.5309796 197.51651745 6.26171875 201.67578125 C3.96029869 203.95868941 3.96029869 203.95868941 2.015625 206.52734375 C-0.10872179 209.13337383 -2.32399667 211.13986788 -4.9375 213.25 C-5.77152344 213.93578125 -6.60554688 214.6215625 -7.46484375 215.328125 C-12.50171215 218.64981942 -18.03341344 218.18270395 -23.875 218.1875 C-24.65230469 218.19974609 -25.42960937 218.21199219 -26.23046875 218.22460938 C-33.6127188 218.24322009 -39.30110741 217.25788731 -44.8125 212 C-45.65167969 211.20464844 -46.49085937 210.40929687 -47.35546875 209.58984375 C-48.66451172 208.30787109 -48.66451172 208.30787109 -50 207 C-50.94488281 206.09378906 -51.88976562 205.18757812 -52.86328125 204.25390625 C-58.02051153 199.22797745 -58.02051153 199.22797745 -60 197 C-60 196.34 -60 195.68 -60 195 C-60.66 195 -61.32 195 -62 195 C-63.41015625 193.6015625 -63.41015625 193.6015625 -65.0625 191.625 C-68.56559672 187.47562967 -72.24090189 183.52310833 -75.984375 179.58984375 C-80.94337918 173.21810001 -81.91767926 166.16191627 -83.1875 158.375 C-83.36474609 157.35148438 -83.54199219 156.32796875 -83.72460938 155.2734375 C-84.48096997 150.78783954 -85.10103954 146.55960152 -85 142 C-84.34 142 -83.68 142 -83 142 C-81.39821407 143.78104718 -79.86618074 145.62537278 -78.375 147.5 C-77.55773437 148.5209375 -76.74046875 149.541875 -75.8984375 150.59375 C-74.95871094 151.78484375 -74.95871094 151.78484375 -74 153 C-75.04081021 151.20783567 -76.08270601 149.4163018 -77.125 147.625 C-77.76179688 146.52671875 -78.39859375 145.4284375 -79.0546875 144.296875 C-80.23898753 142.28974804 -81.44674348 140.2959158 -82.6953125 138.328125 C-90.79470695 125.54817596 -91.42738039 113.79524102 -88.21875 99.1484375 C-83.83131951 82.99118016 -72.82930933 62.0436535 -59 52 C-46.20166419 49.79093313 -32.01128861 55.9350916 -21 62 C-25.6041586 52.86390489 -31.16589107 47.25846594 -41 44 C-50.12108388 42.99562969 -56.7384335 43.81441847 -63.91015625 49.51953125 C-79.33840348 63.59819025 -91.63993999 87.52845989 -93.25390625 108.26171875 C-93.39362411 115.98345906 -92.39006902 123.41667703 -91 131 C-93.51841555 128.72317664 -94.98303469 126.46656856 -96.5 123.4375 C-97.10328125 122.25994141 -97.10328125 122.25994141 -97.71875 121.05859375 C-101.07213187 113.05341691 -102.53494937 105.8048462 -102.4375 97.125 C-102.42847656 96.1568335 -102.41945313 95.18866699 -102.41015625 94.19116211 C-102.23182737 86.82085421 -101.25005398 80.6832096 -98 74 C-97.72623535 73.41702148 -97.4524707 72.83404297 -97.17041016 72.23339844 C-92.86098458 63.15674382 -87.67320309 55.55529315 -81 48 C-80.05864237 46.83644374 -79.12036624 45.67037513 -78.1875 44.5 C-76.25138127 42.28729288 -74.43707636 40.62471757 -72 39 C-77.23272633 40.63958758 -82.15196636 42.38952035 -87 45 C-86.01 45.33 -85.02 45.66 -84 46 C-85.52453489 49.83732362 -87.80645936 51.75857474 -91 54.3125 C-91.98355469 55.10011719 -92.96710938 55.88773438 -93.98046875 56.69921875 C-96.7041011 58.77453499 -99.47165444 60.71529654 -102.3125 62.625 C-106.69916822 65.60291309 -109.66069174 68.90934739 -113 73 C-113.66 73 -114.32 73 -115 73 C-114.96679228 65.04675198 -112.90834822 60.21423903 -108 54 C-108.59167969 53.62488281 -109.18335938 53.24976563 -109.79296875 52.86328125 C-114.35981624 49.90563287 -118.3317794 47.02320969 -122 43 C-121.67 42.34 -121.34 41.68 -121 41 C-120.34 41.33 -119.68 41.66 -119 42 C-108.79577465 42.99912961 -101.0261878 40.5130939 -92 36 C-95.63 36.66 -99.26 37.32 -103 38 C-99.49205411 29.23013527 -94.80006772 25.14906997 -86.2265625 21.16015625 C-78.59078927 18.41460583 -70.89850329 18.63295135 -63 20 C-70.80563342 16.09718329 -78.48792953 16.72108507 -87 17 C-85.62338014 12.41393501 -83.62269179 10.54772084 -79.75 7.8125 C-78.81671875 7.13832031 -77.8834375 6.46414063 -76.921875 5.76953125 C-72.31030163 2.97669337 -67.96622864 1.80807259 -62.625 1.375 C-61.75101563 1.30023438 -60.87703125 1.22546875 -59.9765625 1.1484375 C-59.32429688 1.09945313 -58.67203125 1.05046875 -58 1 C-58 0.34 -58 -0.32 -58 -1 C-39.70201877 -9.23723554 -17.3529807 -12.74842741 0 0 Z M-39 13 C-37.7315625 14.423125 -37.7315625 14.423125 -36.4375 15.875 C-25.15310623 29.15545399 -20.47785589 41.99747666 -18 59 C-13.882869 53.98784052 -13.58831699 49.42986153 -13.65625 43.078125 C-14.59438719 34.67753285 -18.65999331 26.60056746 -25 21 C-31.39520327 15.79439231 -31.39520327 15.79439231 -39 13 Z M-76.8125 98.75 C-77.58207031 99.11609375 -78.35164063 99.4821875 -79.14453125 99.859375 C-81.15514573 100.8704897 -81.15514573 100.8704897 -82 103 C-81.31035156 103.02578125 -80.62070313 103.0515625 -79.91015625 103.078125 C-73.16219932 103.48540909 -67.96924004 104.83114418 -62 108 C-62.74765625 108.12117188 -63.4953125 108.24234375 -64.265625 108.3671875 C-65.25046875 108.53476563 -66.2353125 108.70234375 -67.25 108.875 C-68.22453125 109.03742188 -69.1990625 109.19984375 -70.203125 109.3671875 C-72.77264117 109.94855848 -74.72071056 110.70840265 -77 112 C-75.9171875 112.86625 -75.9171875 112.86625 -74.8125 113.75 C-73.06907874 115.14473701 -71.35373037 116.57640264 -69.6875 118.0625 C-62.97747053 122.89996311 -56.63867065 123.74550064 -48.5 122.4375 C-43.20186508 121.77523313 -39.49442128 121.95072548 -35.0625 125.0625 C-34.381875 125.701875 -33.70125 126.34125 -33 127 C-32.75571657 121.2025577 -32.75571657 121.2025577 -35 116 C-34.360625 115.773125 -33.72125 115.54625 -33.0625 115.3125 C-30.72806339 114.14749104 -30.72806339 114.14749104 -30.25 111.375 C-30.1675 110.59125 -30.085 109.8075 -30 109 C-30.99 109 -31.98 109 -33 109 C-40.70475508 108.56301389 -47.03984176 106.3870848 -54.1875 103.5625 C-56.2848459 102.75050003 -58.38249299 101.93927748 -60.48046875 101.12890625 C-61.39723389 100.76869385 -62.31399902 100.40848145 -63.25854492 100.03735352 C-70.02515981 97.12894574 -70.02515981 97.12894574 -76.8125 98.75 Z M11.4375 102.375 C9.41584574 103.1964976 7.39372367 104.01684504 5.37109375 104.8359375 C3.9627124 105.40828125 3.9627124 105.40828125 2.52587891 105.9921875 C-2.47111782 107.98596311 -6.56988399 109.49364691 -12 109 C-12.66 108.34 -13.32 107.68 -14 107 C-14 109.31 -14 111.62 -14 114 C-12.02 114.99 -12.02 114.99 -10 116 C-10.33 116.53625 -10.66 117.0725 -11 117.625 C-12.22699204 120.5391061 -12.14233286 122.86867708 -12 126 C-11.67 125.34 -11.34 124.68 -11 124 C-5.87198829 121.63077909 -1.73689274 122.06222068 3.6875 122.625 C14.57834877 123.47285004 22.08251749 121.09752091 30.63671875 114.171875 C31.08660156 113.78515625 31.53648437 113.3984375 32 113 C31.1326468 110.73262568 31.1326468 110.73262568 28.4375 109.875 C24.41710538 108.85162682 21.13490187 108.85741718 17 109 C17 108.34 17 107.68 17 107 C23.64558134 104.39099399 29.88515313 103.3856646 37 103 C31.76579391 98.65821031 31.76579391 98.65821031 25.21142578 97.69238281 C20.3774777 98.36480217 15.91553504 100.51414669 11.4375 102.375 Z M-39 152 C-39.4509225 154.30112974 -39.4509225 154.30112974 -39 157 C-36.66347024 159.50477681 -36.66347024 159.50477681 -33.625 161.6875 C-32.62726563 162.45449219 -31.62953125 163.22148437 -30.6015625 164.01171875 C-29.74304688 164.66785156 -28.88453125 165.32398438 -28 166 C-27.34 166.66 -26.68 167.32 -26 168 C-19.46669706 168 -16.39252984 165.36122915 -12 161 C-11.48824219 160.50242188 -10.97648437 160.00484375 -10.44921875 159.4921875 C-9.28411972 158.34349831 -8.13952878 157.17405995 -7 156 C-7.33 155.01 -7.66 154.02 -8 153 C-8.33 153.66 -8.66 154.32 -9 155 C-10.7421875 155.5625 -10.7421875 155.5625 -12.875 156 C-15.95332961 156.63611239 -17.2683953 157.1789302 -20 159 C-25.04508072 159.4586437 -27.09456623 159.02356163 -31 156 C-34.16732421 155.74913276 -34.16732421 155.74913276 -37 156 C-37.66 154.68 -38.32 153.36 -39 152 Z M-40.4375 174.9375 C-41.53481445 175.23043945 -41.53481445 175.23043945 -42.65429688 175.52929688 C-44.43942056 176.00766335 -46.22020596 176.50217046 -48 177 C-44.88721817 179.07518789 -44.19985616 179.25145186 -40.66796875 179.25878906 C-39.36146362 179.26824554 -39.36146362 179.26824554 -38.02856445 179.27789307 C-37.09101318 179.2738446 -36.15346191 179.26979614 -35.1875 179.265625 C-34.22223389 179.26753845 -33.25696777 179.2694519 -32.26245117 179.27142334 C-30.22151428 179.2727844 -28.1805687 179.26909345 -26.13964844 179.26074219 C-23.01217234 179.25004165 -19.88527069 179.26064022 -16.7578125 179.2734375 C-14.7760404 179.27211589 -12.79426865 179.26955347 -10.8125 179.265625 C-9.87494873 179.26967346 -8.93739746 179.27372192 -7.97143555 179.27789307 C-7.10043213 179.27158875 -6.22942871 179.26528442 -5.33203125 179.25878906 C-4.18311401 179.25640228 -4.18311401 179.25640228 -3.01098633 179.25396729 C-0.68489906 179.11209975 -0.68489906 179.11209975 2 177 C0.91332031 176.81824219 0.91332031 176.81824219 -0.1953125 176.6328125 C-8.50253807 175.1928934 -8.50253807 175.1928934 -12.0625 173.8125 C-15.73011163 172.79805423 -18.61281618 173.23287404 -22.33984375 173.80859375 C-25 174 -25 174 -28.2890625 173.4140625 C-32.78910957 172.91195199 -36.13336514 173.72068603 -40.4375 174.9375 Z M-36 189 C-32.88926323 192.11901001 -30.11819966 192.40983688 -25.80078125 192.45898438 C-25.04152344 192.45189453 -24.28226563 192.44480469 -23.5 192.4375 C-22.74074219 192.45748047 -21.98148438 192.47746094 -21.19921875 192.49804688 C-17.45734455 192.49477028 -15.43262413 192.34649988 -12.46875 189.97265625 C-11.74171875 188.99619141 -11.74171875 188.99619141 -11 188 C-15.37797727 186.76559634 -19.54244676 186.81609019 -24.0625 186.8125 C-24.87783203 186.80025391 -25.69316406 186.78800781 -26.53320312 186.77539062 C-27.31759766 186.77345703 -28.10199219 186.77152344 -28.91015625 186.76953125 C-29.62308838 186.76542236 -30.33602051 186.76131348 -31.07055664 186.75708008 C-33.32654047 186.89527954 -33.32654047 186.89527954 -36 189 Z " fill="#FEFEFE" transform="translate(157,8)"/>
<path d="M0 0 C5.90921186 2.40843156 8.9570386 7.61818295 12 13 C13.28059013 16.31950405 14.16549875 19.73300167 15.07275391 23.16943359 C20.03650336 41.72546827 28.82782487 62.41950937 44.4375 74.25 C44.98470703 74.683125 45.53191406 75.11625 46.09570312 75.5625 C49.57288146 78.22902255 52.63493038 80.33327266 57 81 C59.5143158 79.79374543 61.27701527 78.73324919 63.4375 77.0625 C64.00952148 76.63791504 64.58154297 76.21333008 65.17089844 75.77587891 C66.80167127 74.5446779 68.40187236 73.27328865 70 72 C70.68707031 71.45988281 71.37414062 70.91976562 72.08203125 70.36328125 C85.09280417 58.75413726 92.12293844 38.21704673 97.25244141 22.08129883 C100.14082693 13.04248439 104.15780965 6.68756458 111 0 C111.33 0 111.66 0 112 0 C112.06731323 0.92897095 112.06731323 0.92897095 112.13598633 1.87670898 C112.34963748 4.7313331 112.5809602 7.58427331 112.8125 10.4375 C112.88275391 11.41138672 112.95300781 12.38527344 113.02539062 13.38867188 C113.65449784 20.91279411 114.48724671 28.04751489 119.5 33.9375 C122.01409556 36.0827905 122.01409556 36.0827905 125 38 C124.41365988 41.18249507 123.50346626 42.89934558 121.296875 45.25 C120.73572998 45.85215332 120.17458496 46.45430664 119.59643555 47.07470703 C118.98711182 47.71005371 118.37778809 48.34540039 117.75 49 C117.11811768 49.66499512 116.48623535 50.32999023 115.83520508 51.01513672 C99.52312254 68.02139374 79.15339743 87.11412828 57 96 C53.40117148 95.58121003 50.85762431 94.551748 47.8125 92.62890625 C47.03793457 92.14220459 46.26336914 91.65550293 45.46533203 91.15405273 C44.65177246 90.62884033 43.83821289 90.10362793 43 89.5625 C42.15421387 89.02117432 41.30842773 88.47984863 40.43701172 87.92211914 C33.3044043 83.30279701 26.58285521 78.37358556 20 73 C18.99324219 72.19691406 17.98648438 71.39382813 16.94921875 70.56640625 C10.04922499 64.9701527 3.67869829 58.88154786 -2.625 52.625 C-3.40770264 51.8515625 -4.19040527 51.078125 -4.99682617 50.28125 C-5.73263916 49.54132813 -6.46845215 48.80140625 -7.2265625 48.0390625 C-7.88221191 47.38115723 -8.53786133 46.72325195 -9.21337891 46.04541016 C-11.14144073 43.83807181 -12.56561987 41.5501938 -14 39 C-13.31292969 38.5359375 -12.62585937 38.071875 -11.91796875 37.59375 C-5.40881499 32.60246757 -2.80333088 28.22877711 -1.63623047 20.25390625 C-1.38224247 18.17110676 -1.1808348 16.09035258 -1 14 C-0.90283691 12.96431885 -0.90283691 12.96431885 -0.80371094 11.90771484 C-0.44325437 7.94174897 -0.18025278 3.97799228 0 0 Z " fill="#FEFEFE" transform="translate(76,194)"/>
<path d="M0 0 C0.66 0 1.32 0 2 0 C7.05187743 9.31899719 7.25848507 19.64591959 8 30 C9.05625312 26.10577141 9.33107145 22.26395751 9.5625 18.25 C9.62727539 17.20392578 9.62727539 17.20392578 9.69335938 16.13671875 C9.79889596 14.42468078 9.8998991 12.71236439 10 11 C10.99 11.33 11.98 11.66 13 12 C17.88350127 21.79083966 17.5418378 32.41918444 17.5 43.0625 C17.44861082 56.16538791 17.56837768 68.34115272 26.1875 79.0625 C29.93055556 83.79166667 29.93055556 83.79166667 31 87 C23.84674023 86.63316617 18.58717553 82.59588656 13.6796875 77.671875 C8.40625 71.8125 8.40625 71.8125 7 69 C6.12335465 81.15127859 9.0197114 92.59186564 17 102 C18.92368585 103.85810565 20.84147385 105.40680213 23 107 C22.67 107.66 22.34 108.32 22 109 C6.92408818 101.65108373 -3.98497293 92.52519762 -10.4375 76.5625 C-13.90907322 65.16441626 -13.04004708 51.40017654 -10 40 C-16.74959908 47.98856658 -21.05439513 55.30229196 -21 66 C-20.55059098 69.07178474 -19.83395432 72.0126157 -19 75 C-18.66395953 76.33265363 -18.32980484 77.6657895 -18 79 C-21 78 -21 78 -22.3515625 75.671875 C-22.77179687 74.70765625 -23.19203125 73.7434375 -23.625 72.75 C-24.26308594 71.31914062 -24.26308594 71.31914062 -24.9140625 69.859375 C-28.74672983 59.76760347 -27.12292132 50.0085363 -22.81640625 40.34375 C-19.62050724 34.18734397 -15.68819835 28.65530073 -11.61865234 23.0625 C-6.33262846 15.7703224 -2.52339083 8.67800262 0 0 Z " fill="#FEFEFE" transform="translate(37,138)"/>
<path d="M0 0 C0.66 0 1.32 0 2 0 C2.29390625 0.94746094 2.29390625 0.94746094 2.59375 1.9140625 C6.52050243 13.66046846 12.78747647 23.55351195 20.171875 33.39453125 C27.59427158 43.97303236 28.70053441 53.41539962 28 66 C26.92508229 71.29555047 24.28063043 75.76692847 21 80 C20.34 80 19.68 80 19 80 C19.309375 79.236875 19.61875 78.47375 19.9375 77.6875 C23.10195509 69.68329007 23.37947205 60.62500257 20.3125 52.5 C18.42758087 48.40587457 16.09143116 45.26317734 13 42 C13.15984375 43.13953125 13.3196875 44.2790625 13.484375 45.453125 C15.58655074 62.40471234 14.15248602 77.74709244 4 92 C-2.60144835 99.97317787 -10.86340664 106.33247543 -21 109 C-19.90276389 105.70829166 -19.483401 105.45512521 -16.8125 103.5625 C-9.98746967 97.93114781 -6.36211393 88.58131775 -5 80 C-4.86301479 76.32586105 -4.87842704 72.67420504 -5 69 C-5.7734375 70.2684375 -5.7734375 70.2684375 -6.5625 71.5625 C-11.69637177 79.18224653 -18.00025555 84.50006389 -27 86.75 C-27.66 86.8325 -28.32 86.915 -29 87 C-27.55319425 83.84137952 -25.74426612 81.30644063 -23.625 78.5625 C-15.79273355 67.54837531 -14.88679164 55.05498006 -15.125 42 C-15.33827306 20.00740959 -15.33827306 20.00740959 -10 12 C-9.34 12 -8.68 12 -8 12 C-7.80083984 13.68029297 -7.80083984 13.68029297 -7.59765625 15.39453125 C-7.41943431 16.86720729 -7.24103989 18.33986247 -7.0625 19.8125 C-6.97548828 20.55048828 -6.88847656 21.28847656 -6.79882812 22.04882812 C-6.41783454 25.16733121 -5.99630626 28.01108122 -5 31 C-5.05220703 29.33324219 -5.05220703 29.33324219 -5.10546875 27.6328125 C-5.32686848 17.4838034 -4.74084663 9.1725076 0 0 Z M11 39 C12 41 12 41 12 41 Z " fill="#FEFEFE" transform="translate(224,138)"/>
<path d="M0 0 C-0.54678431 5.5253993 -1.95790986 9.95957159 -4.25 15 C-4.77182861 16.15471802 -4.77182861 16.15471802 -5.30419922 17.33276367 C-34.6096139 80.51433485 -34.6096139 80.51433485 -55.4375 91.875 C-58.87726404 92.96124128 -61.42534379 93.26156021 -65 93 C-64.74089844 92.37867188 -64.48179687 91.75734375 -64.21484375 91.1171875 C-62.20534106 85.9609716 -60.45156391 80.71380116 -58.65429688 75.48046875 C-56.948255 70.55848243 -55.12009108 65.75885888 -53 61 C-52.01 61 -51.02 61 -50 61 C-49.48788719 67.40141012 -49.88111506 70.98010898 -54 76 C-47.51327743 71.41183038 -42.0713963 64.69097839 -40.27734375 56.8359375 C-39.89182235 53.97987483 -39.89182235 53.97987483 -40.375 51.0625 C-39.85560754 46.8207949 -37.74501125 45.18970205 -34.7265625 42.3203125 C-33 41 -33 41 -31 41 C-30.67 41.99 -30.34 42.98 -30 44 C-24.555 34.595 -24.555 34.595 -19 25 C-24.03676272 29.40716738 -28.84680035 33.73683132 -33.5 38.5 C-37.59621134 42.65348036 -41.75673535 46.60003858 -46.21484375 50.3671875 C-48.94350026 52.86298273 -51.28832811 55.65819798 -53.65234375 58.49609375 C-54.09707031 58.99238281 -54.54179687 59.48867187 -55 60 C-55.33 60 -55.66 60 -56 60 C-56.054348 57.9377952 -56.09294961 55.87517184 -56.125 53.8125 C-56.14820313 52.66394531 -56.17140625 51.51539063 -56.1953125 50.33203125 C-55.99552941 46.92373169 -55.69211578 44.95023068 -54 42 C-51.41796875 39.7109375 -51.41796875 39.7109375 -48.1875 37.375 C-47.00570674 36.50284617 -45.82608117 35.62774882 -44.6484375 34.75 C-44.04354492 34.30011719 -43.43865234 33.85023437 -42.81542969 33.38671875 C-39.89198776 31.15364315 -37.10291778 28.77083006 -34.3125 26.375 C-29.88014601 22.58444668 -25.4006143 18.8735432 -20.82421875 15.2578125 C-18.4966259 13.39702596 -16.1920742 11.51468154 -13.89453125 9.6171875 C-13.17048096 9.02147949 -12.44643066 8.42577148 -11.70043945 7.81201172 C-10.24919827 6.61694769 -8.80103919 5.41812965 -7.35620117 4.21533203 C-6.36003784 3.39718018 -6.36003784 3.39718018 -5.34375 2.5625 C-4.74755859 2.06878906 -4.15136719 1.57507812 -3.53710938 1.06640625 C-2 0 -2 0 0 0 Z " fill="#FEFEFE" transform="translate(263,56)"/>
<path d="M0 0 C5.57359184 4.04358623 10.83760704 8.3576323 16.07226562 12.82275391 C20.96464729 16.98976222 25.96193995 21.0105118 31 25 C32.70858192 26.3746911 34.41691448 27.74969217 36.125 29.125 C43.20782165 35.09209372 43.20782165 35.09209372 51 40 C51 44.62 51 49.24 51 54 C46.93711315 51.96855658 44.87483361 50.04893481 41.75 46.8125 C37.34416597 42.30761725 32.79989845 38.07942688 28 34 C26.49824004 32.68951411 24.99821068 31.37704212 23.5 30.0625 C22.8296875 29.47597656 22.159375 28.88945313 21.46875 28.28515625 C20.9840625 27.86105469 20.499375 27.43695313 20 27 C20.55429687 27.96421875 21.10859375 28.9284375 21.6796875 29.921875 C22.41151597 31.19788361 23.1432836 32.47392712 23.875 33.75 C24.42220703 34.70132813 24.42220703 34.70132813 24.98046875 35.671875 C26.7396831 38.74250368 28.46873374 41.80851875 30 45 C30.33 44.01 30.66 43.02 31 42 C33.86697492 43.28519565 35.97607712 44.57129254 38 47 C38 47.66 38 48.32 38 49 C38.66 49 39.32 49 40 49 C39.9175 50.134375 39.835 51.26875 39.75 52.4375 C39.7971064 61.35631138 45.18924341 68.62299799 51 75 C51.99 75.66 52.98 76.32 54 77 C53.62746094 76.5153125 53.25492188 76.030625 52.87109375 75.53125 C50.20572137 71.75470057 48.54772524 69.21412979 49.1875 64.5 C49.455625 63.345 49.72375 62.19 50 61 C50.66 61 51.32 61 52 61 C52.268125 61.7528125 52.53625 62.505625 52.8125 63.28125 C55.53843694 70.66997382 58.684287 77.63708015 62.3203125 84.6171875 C63.92908578 87.72872963 65.24306892 90.5830636 66 94 C64.60307061 93.91174084 63.20739548 93.80355166 61.8125 93.6875 C61.03519531 93.62949219 60.25789063 93.57148438 59.45703125 93.51171875 C45.73900432 90.65470519 35.77165327 69.70212698 28.609375 58.921875 C22.08555753 48.9598294 16.05798649 38.77718334 10.375 28.3125 C9.50512451 26.7193396 9.50512451 26.7193396 8.61767578 25.09399414 C-0.37716486 8.23231306 -0.37716486 8.23231306 0 0 Z " fill="#FEFEFE" transform="translate(0,55)"/>
</svg>
