<?xml version="1.0" encoding="UTF-8"?>
<!-- Generator: visioncortex VTracer 0.6.4 -->
<svg version="1.1" xmlns="http://www.w3.org/2000/svg" width="224" height="290">
<path d="M0 0 C2.69450728 3.37356657 4.01498478 6.96197253 5.5 10.98828125 C5.80373535 11.79241455 6.1074707 12.59654785 6.42041016 13.42504883 C12.86986255 30.76818729 15.896827 47.63982698 8.9375 65.42578125 C4.8847367 74.19754583 -0.26265403 83.26379054 -8.4375 88.73828125 C-9.50097656 89.47498047 -9.50097656 89.47498047 -10.5859375 90.2265625 C-13.8663893 91.81504626 -16.4119968 92.28942307 -20.0625 92.42578125 C-22.70729431 91.50311195 -24.82747993 90.61110835 -27.25 89.30078125 C-27.85263672 89.00429687 -28.45527344 88.7078125 -29.07617188 88.40234375 C-33.04707366 86.34497202 -35.51499569 84.07952192 -38.0625 80.42578125 C-38.7225 81.08578125 -39.3825 81.74578125 -40.0625 82.42578125 C-45.51014869 84.78793597 -51.13762568 86.23152308 -57.0625 86.42578125 C-60.125 85.11328125 -60.125 85.11328125 -63.0625 83.42578125 C-65.38998694 82.73898183 -67.72236656 82.06817082 -70.0625 81.42578125 C-70.3925 81.09578125 -70.7225 80.76578125 -71.0625 80.42578125 C-71.41957031 81.17085938 -71.77664062 81.9159375 -72.14453125 82.68359375 C-74.49183554 86.0396174 -77.1482467 87.5642301 -80.75 89.30078125 C-81.37994873 89.6045166 -82.00989746 89.90825195 -82.65893555 90.22119141 C-87.92755256 92.6136117 -90.63778371 93.44855682 -96.0625 91.42578125 C-108.21288425 84.16104102 -116.30581043 70.87176363 -120.5 57.55078125 C-123.47585145 41.9693568 -119.75579589 27.55170273 -111.0625 14.42578125 C-103.30788168 4.62124643 -103.30788168 4.62124643 -98.0625 2.42578125 C-97.66417969 3.26882812 -97.26585938 4.111875 -96.85546875 4.98046875 C-96.32566406 6.07617188 -95.79585937 7.171875 -95.25 8.30078125 C-94.72792969 9.39132813 -94.20585938 10.481875 -93.66796875 11.60546875 C-92.21525103 14.64799527 -92.21525103 14.64799527 -89.0625 16.42578125 C-88.91554688 15.32943359 -88.91554688 15.32943359 -88.765625 14.2109375 C-87.30781045 8.43637211 -82.60687611 4.17885684 -78.75 -0.19921875 C-74.46275047 -2.39269525 -70.649934 -1.67657229 -66.0625 -0.57421875 C-63.77583078 0.36535326 -61.62171881 1.38597792 -59.4609375 2.5859375 C-52.86121089 4.89691669 -47.31477727 3.14294637 -41.1875 0.55078125 C-28.77395679 -4.37220147 -11.77897093 -8.9903888 0 0 Z M-114.0625 42.42578125 C-109.94672017 41.13860374 -109.94672017 41.13860374 -106.0625 39.30078125 C-102.29283838 37.65155429 -98.99515705 38.1013788 -95.1875 39.42578125 C-94.48625 39.75578125 -93.785 40.08578125 -93.0625 40.42578125 C-93.0625 41.41578125 -93.0625 42.40578125 -93.0625 43.42578125 C-94.0834375 43.27109375 -94.0834375 43.27109375 -95.125 43.11328125 C-99.33672541 43.56133714 -101.83169052 45.81878801 -105.0625 48.42578125 C-104.0725 49.08578125 -103.0825 49.74578125 -102.0625 50.42578125 C-99.0625 52.42578125 -96.0625 54.42578125 -93.0625 56.42578125 C-87.99989964 56.97396091 -82.95767794 56.92604947 -78.125 55.23828125 C-77.114375 54.97015625 -76.10375 54.70203125 -75.0625 54.42578125 C-72.75 55.80078125 -72.75 55.80078125 -71.0625 57.42578125 C-70.4025 57.42578125 -69.7425 57.42578125 -69.0625 57.42578125 C-69.0625 58.08578125 -69.0625 58.74578125 -69.0625 59.42578125 C-68.0725 59.75578125 -67.0825 60.08578125 -66.0625 60.42578125 C-65.5675 59.93078125 -65.5675 59.93078125 -65.0625 59.42578125 C-65.15187803 57.90058849 -65.30787146 56.37896196 -65.5 54.86328125 C-65.65275391 53.62384766 -65.65275391 53.62384766 -65.80859375 52.359375 C-65.89238281 51.72128906 -65.97617188 51.08320312 -66.0625 50.42578125 C-65.09570312 50.01199219 -65.09570312 50.01199219 -64.109375 49.58984375 C-61.77479528 48.57820236 -61.77479528 48.57820236 -61.3125 45.80078125 C-61.23 45.01703125 -61.1475 44.23328125 -61.0625 43.42578125 C-64.11520463 43.26766737 -64.11520463 43.26766737 -67.0625 44.42578125 C-70.07421875 43.67578125 -70.07421875 43.67578125 -73.75 42.42578125 C-74.40339355 42.20446533 -75.05678711 41.98314941 -75.72998047 41.75512695 C-81.5360262 39.7321842 -87.14004256 37.29485981 -92.6940918 34.66210938 C-102.9722441 29.91571574 -107.672367 34.41066598 -114.0625 42.42578125 Z M-16.24609375 34.796875 C-17.42107422 35.28865234 -18.59605469 35.78042969 -19.80664062 36.28710938 C-21.03810071 36.81170189 -22.26921805 37.33709968 -23.5 37.86328125 C-25.91227676 38.8905614 -28.32797851 39.90825409 -30.74609375 40.921875 C-31.81400146 41.37747803 -32.88190918 41.83308105 -33.98217773 42.30249023 C-37.05696101 43.42376137 -39.80457027 44.12566697 -43.0625 44.42578125 C-45.4375 42.98828125 -45.4375 42.98828125 -47.0625 41.42578125 C-47.29678313 46.21551335 -47.29678313 46.21551335 -45.0625 50.42578125 C-44.4025 50.42578125 -43.7425 50.42578125 -43.0625 50.42578125 C-43.0625 53.72578125 -43.0625 57.02578125 -43.0625 60.42578125 C-39.12349147 58.70067932 -39.12349147 58.70067932 -36.73828125 56.2109375 C-34.0625 54.42578125 -34.0625 54.42578125 -30.79296875 54.796875 C-29.62378906 55.14878906 -28.45460938 55.50070313 -27.25 55.86328125 C-20.80681198 57.48081799 -17.84355059 57.68419158 -12.0625 54.42578125 C-10.3550002 53.1451564 -8.67986259 51.81851015 -7.0625 50.42578125 C-5.74193315 49.73417051 -4.41023125 49.06283909 -3.0625 48.42578125 C-4.33081693 47.60935871 -5.60225931 46.7977902 -6.875 45.98828125 C-7.58269531 45.53582031 -8.29039062 45.08335938 -9.01953125 44.6171875 C-11.14384552 43.28491786 -11.14384552 43.28491786 -14.0625 42.42578125 C-14.5575 41.43578125 -14.5575 41.43578125 -15.0625 40.42578125 C-10.70729143 38.18218896 -7.7996308 38.345383 -3.0625 39.42578125 C-1.0625 40.42578125 0.9375 41.42578125 2.9375 42.42578125 C3.9275 42.09578125 4.9175 41.76578125 5.9375 41.42578125 C4.86069498 40.29453103 3.77574365 39.17103206 2.6875 38.05078125 C2.08421875 37.42429687 1.4809375 36.7978125 0.859375 36.15234375 C-1.76425459 33.79534318 -3.75814228 32.54004918 -7.3059082 32.22924805 C-10.67866657 32.46971129 -13.13611785 33.47194682 -16.24609375 34.796875 Z " fill="#FEFEFE" transform="translate(166.0625,76.57421875)"/>
<path d="M0 0 C14.46772912 -0.96451527 27.71708599 6.07503288 38.734375 15.01171875 C44.86172727 20.38899859 50.88792988 25.89733343 55 33 C55.10251672 27.87416389 55.03590199 23.05002222 54 18 C58.71660752 19.34760215 61.42593456 21.93103057 64 26 C65.19129786 28.63889088 66.09611124 31.24076063 67 34 C67.9075 33.505 68.815 33.01 69.75 32.5 C75.61285405 29.95302242 82.98718663 29.99572888 89 32 C89 32.66 89 33.32 89 34 C88.32453125 34.32613281 87.6490625 34.65226562 86.953125 34.98828125 C86.06109375 35.42527344 85.1690625 35.86226562 84.25 36.3125 C83.36828125 36.74175781 82.4865625 37.17101563 81.578125 37.61328125 C79.18399785 38.90103146 77.12223042 40.30915754 75 42 C75.64066406 42.21914063 76.28132812 42.43828125 76.94140625 42.6640625 C84.21963117 45.33238341 89.64870415 48.47305622 94 55 C94 55.99 94 56.98 94 58 C93.319375 57.835 92.63875 57.67 91.9375 57.5 C88.5835178 56.92910941 85.39610195 56.93340977 82 57 C82.86625 57.61875 83.7325 58.2375 84.625 58.875 C91.77848711 64.8927439 94.88041979 72.92753971 96 82 C91.22390502 80.35821735 87.20617096 77.73453298 83 75 C83.20625 76.11375 83.4125 77.2275 83.625 78.375 C84.83810987 88.34359851 80.90676639 97.93618831 75.375 106.0625 C74.59125 107.031875 73.8075 108.00125 73 109 C72.34 109 71.68 109 71 109 C70.92523438 108.24976562 70.85046875 107.49953125 70.7734375 106.7265625 C69.76627686 98.88650811 67.50564006 93.45237041 63 87 C62.34 86.01 61.68 85.02 61 84 C61.69867188 83.79503906 62.39734375 83.59007813 63.1171875 83.37890625 C64.02726563 83.10949219 64.93734375 82.84007813 65.875 82.5625 C66.77992188 82.29566406 67.68484375 82.02882813 68.6171875 81.75390625 C70.98275381 81.07386174 70.98275381 81.07386174 73 80 C72.443125 79.99742188 71.88625 79.99484375 71.3125 79.9921875 C64.85872659 79.66513817 60.54161823 77.66536805 56 73 C56 72.34 56 71.68 56 71 C58 69.66666667 60 68.33333333 62 67 C62 66.34 62 65.68 62 65 C60.5459375 65.7425 60.5459375 65.7425 59.0625 66.5 C53.47611061 68.8860894 48.2111499 68.62067365 42.4375 67 C41.2309375 66.505 41.2309375 66.505 40 66 C40 65.34 40 64.68 40 64 C46 61 46 61 48.25 60.0625 C51.32960661 58.19273884 51.90078276 55.29765172 53 52 C52.46890625 52.28875 51.9378125 52.5775 51.390625 52.875 C50.68421875 53.24625 49.9778125 53.6175 49.25 54 C48.55390625 54.37125 47.8578125 54.7425 47.140625 55.125 C45 56 45 56 41 56 C41.10699219 55.39414062 41.21398437 54.78828125 41.32421875 54.1640625 C42.29252556 47.39632673 41.39889275 42.3699412 39 36 C39.03480469 36.56847656 39.06960937 37.13695312 39.10546875 37.72265625 C39.35661977 44.8864401 38.02396677 50.53916656 33 56 C32.34 56 31.68 56 31 56 C29.66666667 54 28.33333333 52 27 50 C26.34 50 25.68 50 25 50 C25.33 50.66 25.66 51.32 26 52 C26.14851844 53.93359586 26.22130833 55.87342097 26.25 57.8125 C26.27578125 58.85019531 26.3015625 59.88789062 26.328125 60.95703125 C25.95782291 64.39114233 25.08186391 66.26629035 23 69 C22.34 69 21.68 69 21 69 C20.9175 67.80375 20.835 66.6075 20.75 65.375 C20.20895261 61.07710244 18.80483552 58.36580262 16 55 C13.93439796 53.83910402 13.93439796 53.83910402 12 53 C12.2165625 53.88751953 12.2165625 53.88751953 12.4375 54.79296875 C13.40822694 58.92529941 14.27593702 62.7229762 14 67 C11.43365172 65.76815282 9.00041934 64.4013162 6.5625 62.9375 C0.05547605 59.22117422 -6.68446494 59.24535703 -13.875 61.0625 C-23.72553213 64.29120249 -29.84941302 71.26214784 -35 80 C-36.15784426 82.31568852 -37.1010349 84.5675062 -38 87 C-38.99 86.67 -39.98 86.34 -41 86 C-44.23911918 77.64648211 -43.45202389 70.74231772 -40.18359375 62.54296875 C-36.12930306 53.83226499 -28.07108221 49.41499203 -19.375 46.125 C-18.26125 45.75375 -17.1475 45.3825 -16 45 C-19.63 44.34 -23.26 43.68 -27 43 C-27 42.34 -27 41.68 -27 41 C-25.58398286 40.51891725 -24.16715563 40.04021859 -22.75 39.5625 C-21.96109375 39.29566406 -21.1721875 39.02882812 -20.359375 38.75390625 C-18.25178012 38.08045292 -16.15246027 37.50849405 -14 37 C-20.83431887 36.80986439 -27.21771248 36.75187376 -33.85546875 38.48828125 C-37.52893276 39.36482731 -41.24491662 39.64237301 -45 40 C-41.0949151 43.55007718 -38.02265357 44.81819916 -33 46 C-34.4317808 49.6297578 -36.00805819 50.90238825 -39.4375 52.6875 C-40.21996094 53.10386719 -41.00242188 53.52023438 -41.80859375 53.94921875 C-47.65809364 56.75405916 -53.38055572 56.73528261 -59.5625 55 C-60.366875 54.67 -61.17125 54.34 -62 54 C-58.09543873 57.53269829 -55.19822672 59.63855967 -50 61 C-50 61.66 -50 62.32 -50 63 C-50.72445312 63.23074219 -51.44890625 63.46148437 -52.1953125 63.69921875 C-61.20772785 66.73940686 -65.84742504 69.42926859 -70.3125 77.875 C-74.96136452 87.80390648 -74.37528363 97.39066915 -73 108 C-82.51114547 100.41714156 -82.51114547 100.41714156 -83.39453125 94.2421875 C-83.65804309 91.49463741 -83.86001004 88.75635401 -84 86 C-84.45375 86.825 -84.9075 87.65 -85.375 88.5 C-86.179375 89.7375 -86.179375 89.7375 -87 91 C-87.66 91 -88.32 91 -89 91 C-91.29053461 82.71310649 -89.95480751 76.512546 -86 69 C-85.505 68.01 -85.505 68.01 -85 67 C-92.12356434 70.64823717 -92.12356434 70.64823717 -98 76 C-98.99 75.67 -99.98 75.34 -101 75 C-97.49423267 63.35040049 -92.72529873 55.92643104 -81.94140625 49.99609375 C-80.98041016 49.50302734 -80.98041016 49.50302734 -80 49 C-80.54269531 48.63648438 -81.08539063 48.27296875 -81.64453125 47.8984375 C-82.35996094 47.39570312 -83.07539062 46.89296875 -83.8125 46.375 C-84.52019531 45.88773438 -85.22789063 45.40046875 -85.95703125 44.8984375 C-88.47396251 42.5595683 -89.61573188 40.11787834 -91 37 C-90.07058594 37.02320313 -89.14117187 37.04640625 -88.18359375 37.0703125 C-78.90052792 37.23503625 -78.90052792 37.23503625 -70 35 C-70.48210937 34.61328125 -70.96421875 34.2265625 -71.4609375 33.828125 C-72.09257813 33.30734375 -72.72421875 32.7865625 -73.375 32.25 C-74.00148438 31.73953125 -74.62796875 31.2290625 -75.2734375 30.703125 C-79.01760967 27.0097787 -79.41074371 23.10688782 -80 18 C-77 18 -77 18 -74.1875 19.5 C-65.35183638 23.3817769 -54.93148376 20.96801954 -45.84008789 19.07666016 C-37.0318304 17.29762606 -28.82259949 17.83119408 -20 19 C-20.57967529 18.79842285 -21.15935059 18.5968457 -21.7565918 18.38916016 C-24.4006431 17.46896159 -27.0440754 16.54699723 -29.6875 15.625 C-30.59951172 15.30789063 -31.51152344 14.99078125 -32.45117188 14.6640625 C-33.33740234 14.3546875 -34.22363281 14.0453125 -35.13671875 13.7265625 C-35.94842529 13.44377441 -36.76013184 13.16098633 -37.59643555 12.86962891 C-40.08833961 11.96803802 -42.54500328 10.99728271 -45 10 C-45 9.34 -45 8.68 -45 8 C-29.05184448 3.44338414 -11.03736538 5.35109847 3.5625 13.25 C5.05449279 14.14563906 6.539593 15.05373196 8 16 C7.67386719 15.34773437 7.34773438 14.69546875 7.01171875 14.0234375 C4.67447917 9.34895833 2.33723958 4.67447917 0 0 Z " fill="#FEFEFE" transform="translate(114,0)"/>
<path d="M0 0 C3.32797827 1.10932609 3.56067025 1.50114436 5.3125 4.3125 C7.10157164 6.96139412 8.08689331 8.05478056 10.875 9.8125 C14.71744396 12.50221077 16.56723712 15.58549554 19.12109375 19.46484375 C21.51942949 22.70085184 24.2965036 25.01329873 27.49609375 27.4296875 C29 29 29 29 29 33 C29.46148437 32.56429687 29.92296875 32.12859375 30.3984375 31.6796875 C37.98639434 24.75155299 45.98734951 18.59837613 56.59375 18.6328125 C60.0804163 19.16486872 62.31148546 20.89525623 65.16796875 22.8671875 C68.02247973 24.63223693 69.73352135 24.68051639 73 24 C74.29255156 23.20076769 75.56186832 22.3633552 76.8125 21.5 C80.48623405 19.07171746 83.17129477 18.17982635 87.58203125 18.453125 C96.14677647 20.39022408 103.39900078 26.49101793 110 32 C110.60521484 30.89785156 110.60521484 30.89785156 111.22265625 29.7734375 C113.04740723 26.92602388 114.97268804 24.92770797 117.4375 22.625 C120.20264387 19.94891068 122.42285512 17.64382038 124.125 14.1875 C126.25172149 10.57207347 127.70922083 9.87805946 131.31640625 8.109375 C134.34306668 6.11500943 135.45773882 3.20790326 137 0 C137.66 0 138.32 0 139 0 C148.34368598 20.44120298 148.34368598 20.44120298 148 31 C147.44570312 30.57847656 146.89140625 30.15695313 146.3203125 29.72265625 C145.23363281 28.90087891 145.23363281 28.90087891 144.125 28.0625 C143.04605469 27.24458984 143.04605469 27.24458984 141.9453125 26.41015625 C140.05642921 24.96035376 140.05642921 24.96035376 138 24 C138.495 24.969375 138.99 25.93875 139.5 26.9375 C142.52572196 34.872884 141.98397991 45.88808216 140 54 C139.01 53.67 138.02 53.34 137 53 C135.8125 50.4375 135.8125 50.4375 135 48 C134.67 48.33 134.34 48.66 134 49 C134.08746284 50.43861294 134.19565348 51.87597508 134.3125 53.3125 C134.39915236 59.9847319 131.7495495 65.5648732 128 71 C125.796875 72.34375 125.796875 72.34375 124 73 C124.020625 72.05125 124.04125 71.1025 124.0625 70.125 C124.22551826 67.09333717 124.22551826 67.09333717 123 65 C122.74347656 65.75023437 122.48695313 66.50046875 122.22265625 67.2734375 C118.32860157 77.68380591 111.95709649 85.44602696 103 92 C102.34 92 101.68 92 101 92 C101.24556641 91.20335937 101.24556641 91.20335937 101.49609375 90.390625 C102.11356377 87.46123236 102.09501925 84.74177064 102.0625 81.75 C102.05347656 80.67234375 102.04445313 79.5946875 102.03515625 78.484375 C102.02355469 77.66453125 102.01195312 76.8446875 102 76 C101.58041016 77.21623047 101.58041016 77.21623047 101.15234375 78.45703125 C98.07627285 86.95331712 94.49241342 95.50758658 88 102 C86.515 101.505 86.515 101.505 85 101 C85 100.01 85 99.02 85 98 C84.40832031 98.54269531 83.81664063 99.08539063 83.20703125 99.64453125 C82.41683594 100.35996094 81.62664062 101.07539063 80.8125 101.8125 C80.03519531 102.52019531 79.25789063 103.22789062 78.45703125 103.95703125 C73.90069653 107.74552578 73.90069653 107.74552578 71 109 C66.05838051 108.1310013 63.21097183 105.76713552 59.625 102.375 C58.75101562 101.55773437 57.87703125 100.74046875 56.9765625 99.8984375 C56.32429688 99.27195312 55.67203125 98.64546875 55 98 C54.505 99.98 54.505 99.98 54 102 C46.38147988 98.70683324 43.16401553 90.72754327 39.98046875 83.515625 C39.13468909 81.34557679 38.49365501 79.27187468 38 77 C37.97296619 78.93742341 37.95358875 80.87495479 37.9375 82.8125 C37.92589844 83.89144531 37.91429687 84.97039062 37.90234375 86.08203125 C37.86375234 89.06512169 37.86375234 89.06512169 39 92 C32.67843334 90.97024254 28.12180636 85.55165506 24.1875 80.8203125 C20.44548731 75.56278467 18.48810783 70.25266359 17 64 C16.34 66.64 15.68 69.28 15 72 C10.32890784 70.15745832 9.12098624 67.26131312 7.0390625 62.88671875 C5.39794629 58.3273771 5.10070618 53.81558622 5 49 C4.54625 49.825 4.0925 50.65 3.625 51.5 C3.08875 52.325 2.5525 53.15 2 54 C1.34 54 0.68 54 0 54 C-2.91268765 43.23345815 -2.39011914 34.6143016 1 24 C0.38125 24.495 -0.2375 24.99 -0.875 25.5 C-3 27 -3 27 -5 27 C-5.33 27.99 -5.66 28.98 -6 30 C-6.66 30 -7.32 30 -8 30 C-8.25496202 24.6457976 -7.46648984 20.60559509 -5.6875 15.5625 C-5.4603833 14.91015381 -5.2332666 14.25780762 -4.99926758 13.58569336 C-3.40379651 9.03068869 -1.74480851 4.49976932 0 0 Z M62.875 33.125 C56.89087475 36.22951652 50.83021942 38.69547965 44.41943359 40.78173828 C39.86783243 42.35209268 37.16301805 44.39379516 34 48 C34.33 48.99 34.66 49.98 35 51 C35.79696289 50.7326001 36.59392578 50.4652002 37.41503906 50.18969727 C40.38159289 49.19515383 43.34859995 48.20197764 46.31591797 47.2097168 C47.59832705 46.78057435 48.88055585 46.35089273 50.16259766 45.9206543 C52.00896085 45.30114143 53.85603512 44.68374912 55.703125 44.06640625 C56.81333008 43.69459229 57.92353516 43.32277832 59.06738281 42.93969727 C60.51902832 42.47454712 60.51902832 42.47454712 62 42 C62.62487305 41.79238037 63.24974609 41.58476074 63.89355469 41.37084961 C70.21682845 40.25760751 75.26089842 41.09225786 81.2734375 43.1875 C82.24816513 43.52044067 82.24816513 43.52044067 83.24258423 43.86010742 C85.29087475 44.56200134 87.33294682 45.28018471 89.375 46 C91.43946588 46.71652788 93.50506649 47.42960045 95.57168579 48.13989258 C97.43196997 48.78097871 99.28907428 49.43127013 101.14599609 50.08203125 C103.81765639 51.10206457 103.81765639 51.10206457 106 51 C105.38593905 48.31348336 104.62512843 46.4987706 102.44189453 44.75683594 C97.28837312 41.53279502 92.12303176 39.37632024 86.375 37.4375 C80.65118817 35.49806376 75.94632501 33.47764697 71 30 C67.85885613 30 65.63584004 31.67225729 62.875 33.125 Z M58 50 C58.92597683 52.13853983 58.92597683 52.13853983 61 54 C63.96585667 54.40701968 66.48064604 54.55958396 69.4375 54.5 C70.5831543 54.52320313 70.5831543 54.52320313 71.75195312 54.546875 C75.64402102 54.51977618 77.41547302 54.46834211 80.53515625 51.96875 C81.01855469 51.3190625 81.50195312 50.669375 82 50 C74.10304631 48.56419024 65.854824 48.18734831 58 50 Z " fill="#FEFEFE" transform="translate(42,145)"/>
<path d="M0 0 C10.059642 4.71845113 16.29815877 10.32261628 21.0637207 20.19458008 C26.31424889 31.01610391 34.25027809 39.82091213 43 48 C42.505 44.04 42.505 44.04 42 40 C45.19034804 41.55772862 48.27801624 43.26499509 51.375 45 C60.20738448 49.77111678 68.24052035 51.99730656 78.19921875 49.0546875 C84.08260642 46.70723796 88.97735011 43.82158144 94 40 C94.66 40 95.32 40 96 40 C95.835 40.94875 95.67 41.8975 95.5 42.875 C94.9473365 45.80168901 94.9473365 45.80168901 95 48 C104.83798555 39.01749145 112.18719163 28.89790449 118.0625 17 C121.25280006 10.59019805 124.68559188 7.27589594 131 4 C131.70640625 3.45859375 132.4128125 2.9171875 133.140625 2.359375 C135 1 135 1 137 1 C139.33333333 5.66666667 141.66666667 10.33333333 144 15 C126.89348234 35.83604673 107.05995306 51.13736926 84 65 C83.00564941 65.60328125 83.00564941 65.60328125 81.99121094 66.21875 C72.33574144 72.01505061 72.33574144 72.01505061 68.2265625 71.96875 C63.70334402 70.61068925 59.7959187 68.49240593 55.6875 66.1875 C54.81174316 65.70047607 53.93598633 65.21345215 53.03369141 64.71166992 C31.60391691 52.55986846 7.69672916 35.76600873 -6 15 C-5.71382812 14.45859375 -5.42765625 13.9171875 -5.1328125 13.359375 C-3.8592283 10.70680653 -2.86453042 8.02068518 -1.875 5.25 C-1.34519531 3.77273437 -1.34519531 3.77273437 -0.8046875 2.265625 C-0.53914063 1.51796875 -0.27359375 0.7703125 0 0 Z " fill="#FEFEFE" transform="translate(43,218)"/>
<path d="M0 0 C0.680625 -0.03738281 1.36125 -0.07476562 2.0625 -0.11328125 C4 0.3125 4 0.3125 5.72265625 1.9921875 C9.16588947 8.24686802 7.22266877 16.40494723 5.375 22.9375 C0.55389327 37.01445972 -8.0838163 46.18401946 -20.51953125 54.09765625 C-23 55.3125 -23 55.3125 -27 55.3125 C-30.16820789 48.79931726 -32.09809409 43.46641805 -30 36.3125 C-28.4375 33.75 -28.4375 33.75 -27 32.3125 C-23.125 33.1875 -23.125 33.1875 -22 34.3125 C-22.6 40.9125 -22.6 40.9125 -25 43.3125 C-19.53537854 42.0416578 -17.12118543 39.94968978 -14 35.3125 C-12.93363756 31.82904935 -12.80252443 29.99606928 -13.8125 26.5 C-14.80675769 24.17049264 -14.80675769 24.17049264 -17 23.3125 C-17 22.6525 -17 21.9925 -17 21.3125 C-14.8125 19.8046875 -14.8125 19.8046875 -12 18.1875 C-11.071875 17.64867188 -10.14375 17.10984375 -9.1875 16.5546875 C-8.1046875 15.93980469 -8.1046875 15.93980469 -7 15.3125 C-6.01 17.2925 -5.02 19.2725 -4 21.3125 C-3.01 17.3525 -2.02 13.3925 -1 9.3125 C-7.72846607 11.82141955 -12.84683629 15.2401756 -18.39331055 19.69482422 C-21.47659984 22.17110719 -24.55528316 24.3668729 -28 26.3125 C-27.45444341 18.40192941 -25.12111528 14.12030019 -19.25 8.6875 C-13.77414453 4.06116977 -7.31173958 0.26311184 0 0 Z " fill="#FEFEFE" transform="translate(217,94.6875)"/>
<path d="M0 0 C9.06641762 -1.31609288 15.6701131 2.56324233 23.14453125 7.3828125 C28.01670304 11.09797618 31.15303756 16.17052478 33 22 C32.625 24.3046875 32.625 24.3046875 32 26 C31.46632812 25.57589844 30.93265625 25.15179688 30.3828125 24.71484375 C18.9742956 15.54537796 18.9742956 15.54537796 6 9 C6.99 13.29 7.98 17.58 9 22 C9.66 20.02 10.32 18.04 11 16 C14.99455527 16.61454696 17.74466336 18.70646737 21 21 C20.690625 21.495 20.38125 21.99 20.0625 22.5 C18.31774106 26.60531514 17.22137558 30.66412675 18.65625 34.96875 C20.72482115 38.90570799 23.00976865 41.11572408 27 43 C27.33 42.67 27.66 42.34 28 42 C27.67 41.34 27.34 40.68 27 40 C26.76923077 34.46153846 26.76923077 34.46153846 28 32 C30.3125 32 30.3125 32 33 33 C35.18419779 36.45350518 36.02385978 39.87859021 35.9375 43.9375 C34.65339189 48.13225315 32.88913298 52.04600074 31 56 C16.22211804 49.46000117 6.22229897 39.94704427 0 25 C-1.70776662 19.95378682 -2.27137082 15.57133429 -2.25 10.25 C-2.25515625 8.95578125 -2.2603125 7.6615625 -2.265625 6.328125 C-2 3 -2 3 0 0 Z " fill="#FEFEFE" transform="translate(2,95)"/>
<path d="M0 0 C-5 5 -5 5 -7.125 6.8125 C-11.12908122 11.48392809 -12.45697847 16.90695375 -12 23 C-14.39935312 22.04025875 -15.73566883 21.43152298 -17.10546875 19.1953125 C-18.62760668 15.45976003 -18.65250128 11.95621827 -18 8 C-15.16821181 3.22135742 -12.08638645 1.06791377 -6.9375 -0.609375 C-4.3964808 -1.12167726 -2.43863003 -0.83827907 0 0 Z " fill="#FEFEFE" transform="translate(63,69)"/>
<path d="M0 0 C2.5 1.875 2.5 1.875 4 4 C4 4.66 4 5.32 4 6 C3.10796875 5.855625 2.2159375 5.71125 1.296875 5.5625 C-0.45882812 5.2840625 -0.45882812 5.2840625 -2.25 5 C-3.99023438 4.7215625 -3.99023438 4.7215625 -5.765625 4.4375 C-9.11667846 3.91063669 -9.11667846 3.91063669 -13 4 C-13 3.34 -13 2.68 -13 2 C-8.46236032 -0.26881984 -4.98010142 -0.47429537 0 0 Z " fill="#FEFEFE" transform="translate(112,62)"/>
</svg>
