<?xml version="1.0" encoding="UTF-8"?>
<!-- Generator: visioncortex VTracer 0.6.4 -->
<svg version="1.1" xmlns="http://www.w3.org/2000/svg" width="300" height="300">
<path d="M0 0 C5.28942004 4.51882561 11.71568472 10.2126954 14 17 C13.46734347 24.70303296 8.96742777 30.22090743 3.4765625 35.36328125 C-1.14955185 39.20070275 -5.97667355 42.70849995 -10.875 46.1875 C-17.96126562 51.3126593 -21.34755649 55.28711602 -23 64 C-22.45472656 63.35933594 -21.90945312 62.71867187 -21.34765625 62.05859375 C-13.39722291 52.93937876 -3.73084089 43.9102803 8 40 C6.8545847 45.1103144 5.54521255 49.37234081 3 54 C11.04213483 45.66298689 13.53830118 37.36663164 15 26 C15.66 26 16.32 26 17 26 C18.9214949 33.4938301 19.6179472 40.7825334 20 48.5 C20.08894531 49.67175781 20.17789063 50.84351562 20.26953125 52.05078125 C20.66019231 60.14564189 19.38496662 64.86979247 14 71 C14.61875 70.835 15.2375 70.67 15.875 70.5 C18 70 18 70 20 70 C20.12597287 76.4246166 20.12597287 76.4246166 19.46484375 79.44433594 C18.98132242 82.10268743 19.11653865 84.04177248 19.5 86.703125 C20.95957778 100.95433408 20.95957778 100.95433408 17.38427734 106.51123047 C14.57957144 109.68156525 11.60408951 112.44827847 8.31054688 115.10449219 C0.83538873 121.2046531 -0.4300042 127.40938571 -1.6875 136.6875 C-1.790625 137.780625 -1.89375 138.87375 -2 140 C-1.76925781 139.29875 -1.53851563 138.5975 -1.30078125 137.875 C2.38729091 127.14606282 7.25447217 119.42253049 16 112 C16.66 112 17.32 112 18 112 C17.35275138 117.0692819 16.69518201 122.13708611 16.02856445 127.20385742 C15.80380973 128.92290122 15.58173905 130.64229838 15.36254883 132.36206055 C12.00021144 158.70164663 12.00021144 158.70164663 6.125 165.375 C5.3309375 166.27734375 4.536875 167.1796875 3.71875 168.109375 C-21.89473684 195.34210526 -21.89473684 195.34210526 -37 201 C-37.04898438 200.31292969 -37.09796875 199.62585938 -37.1484375 198.91796875 C-37.26058594 197.56638672 -37.26058594 197.56638672 -37.375 196.1875 C-37.44460937 195.29417969 -37.51421875 194.40085938 -37.5859375 193.48046875 C-37.86645036 190.75601501 -37.86645036 190.75601501 -40 188 C-40.06316406 188.6290625 -40.12632812 189.258125 -40.19140625 189.90625 C-41.21296165 197.04638461 -43.63547467 201.19955566 -49 206 C-51.9375 208 -51.9375 208 -54 209 C-60.98129664 204.09220813 -65.86315572 200.21053629 -67.75 191.5625 C-67.8325 190.716875 -67.915 189.87125 -68 189 C-69.93395001 191.90092502 -70.30131941 192.89674737 -70.625 196.1875 C-70.810625 198.0746875 -70.810625 198.0746875 -71 200 C-88.35075849 195.55108757 -107.34114067 175.29161539 -117 161 C-119.7589082 155.4316967 -120.80082106 150.26371047 -121.60546875 144.12890625 C-121.73440018 143.206577 -121.8633316 142.28424774 -121.99617004 141.33396912 C-122.40256639 138.41133884 -122.79523137 135.48705646 -123.1875 132.5625 C-123.46198302 130.57083825 -123.73736443 128.57930009 -124.01367188 126.58789062 C-124.68618317 121.72662863 -125.34639299 116.86383828 -126 112 C-116.97128086 116.29612314 -111.84094876 124.06863721 -108 133 C-107.34154812 134.33740919 -106.67758279 135.67218082 -106 137 C-107.37068154 127.70547375 -108.86921926 121.30162019 -116 115 C-117.43666016 113.95199219 -117.43666016 113.95199219 -118.90234375 112.8828125 C-126.48790994 106.77140396 -126.48790994 106.77140396 -127.47412109 101.43408203 C-127.87141128 95.55678922 -127.49731778 89.75362601 -127.09472656 83.88671875 C-126.94150386 79.21737525 -127.44310807 74.63135275 -128 70 C-126.02 70.66 -124.04 71.32 -122 72 C-123.04892947 69.02803315 -123.97819291 67.02475289 -126.08203125 64.63671875 C-129.41454165 59.69640493 -128.26321653 53.61117175 -127.9375 47.9375 C-127.89689453 46.78572266 -127.85628906 45.63394531 -127.81445312 44.44726562 C-126.97721811 26.46184356 -122.07759476 13.54770843 -109 1 C-105.81207556 -1.5964048 -102.48695027 -3.8264505 -99 -6 C-98.09636719 -6.58523437 -97.19273438 -7.17046875 -96.26171875 -7.7734375 C-63.89818519 -27.83094544 -29.46465101 -22.93176458 0 0 Z M-111 9 C-110.2575 9.7425 -109.515 10.485 -108.75 11.25 C-107.8425 12.1575 -106.935 13.065 -106 14 C-105.29875 14.680625 -104.5975 15.36125 -103.875 16.0625 C-102.05864422 17.93940098 -100.51657764 19.8767913 -99 22 C-98.67 21.67 -98.34 21.34 -98 21 C-98.08817571 16.41486314 -98.55171366 14.4899874 -101.6875 11.0625 C-105.23847537 8.85151533 -106.91212349 8.51334804 -111 9 Z M-9 14 C-9.83492354 16.42459787 -9.83492354 16.42459787 -10 19 C-9.01 20.485 -9.01 20.485 -8 22 C-7.56300781 21.20335937 -7.56300781 21.20335937 -7.1171875 20.390625 C-4.28209961 15.50500184 -1.8719485 12.8325282 3 10 C3 9.67 3 9.34 3 9 C-2.27079066 8.54821794 -5.3192472 10.3192472 -9 14 Z M-121 22 C-123.81174266 29.02935665 -122.75617198 35.20815932 -120.1796875 42.23828125 C-117.90709581 47.15586411 -114.68788663 51.06625426 -111 55 C-110.01 54.505 -110.01 54.505 -109 54 C-109.598125 53.175 -110.19625 52.35 -110.8125 51.5 C-113.24800901 47.87707201 -114.58074746 44.11583237 -116 40 C-115.47792969 40.35191406 -114.95585938 40.70382813 -114.41796875 41.06640625 C-113.68191406 41.56011719 -112.94585937 42.05382812 -112.1875 42.5625 C-111.36894531 43.11164063 -110.55039063 43.66078125 -109.70703125 44.2265625 C-107.88979807 45.41707312 -106.05314477 46.57841365 -104.19921875 47.7109375 C-96.00192839 52.72228237 -90.13686468 57.89955954 -85 66 C-84.67 66 -84.34 66 -84 66 C-84.9249741 56.75025905 -88.35555297 52.23175638 -95.1796875 46.29296875 C-97.92719019 44.05919579 -100.73680384 41.98498168 -103.625 39.9375 C-110.48977555 35.04659051 -116.80785643 29.98035892 -120 22 C-120.33 22 -120.66 22 -121 22 Z M-92.625 24.625 C-95.04236415 27.04236415 -96.01182806 28.76598274 -97 32 C-95.1442927 34.20006536 -93.27344978 36.22638669 -91 38 C-88.32587842 38.41518518 -88.32587842 38.41518518 -86 37 C-83.51591299 34.85329312 -83.51591299 34.85329312 -82 32 C-82.07013022 29.05453065 -82.55173742 27.59768344 -84.3125 25.25 C-87.62082235 22.79939085 -89.00314475 22.38289913 -92.625 24.625 Z M-23 25 C-25.47233646 27.5544019 -25.47233646 27.5544019 -26 30.9375 C-24.56664257 33.8937997 -22.39375574 35.79037931 -20 38 C-16.06326356 36.68775452 -13.77280706 35.08089673 -11 32 C-12.55513553 28.18284914 -14.99599728 25.77292558 -18 23 C-19.94865413 23 -21.35788099 24.03404764 -23 25 Z M-82 43 C-80.67248985 48.00597403 -78.6194957 50.96887064 -75.1875 54.8125 C-71.05500141 59.55022598 -67.72292966 64.32484135 -65 70 C-64.67 70 -64.34 70 -64 70 C-64.52175838 60.60834922 -68.44837313 52.71541754 -75 46 C-78.22180859 43.63694526 -78.22180859 43.63694526 -82 43 Z M-35.515625 49.36328125 C-41.16956205 55.36392198 -43.54814944 61.86668985 -44 70 C-40.68479295 66.02175154 -37.75485844 61.82141167 -34.8125 57.56640625 C-32.69129039 54.56288316 -30.45329384 51.66590403 -28.1640625 48.7890625 C-26.91186699 46.86454725 -26.4249127 45.24314378 -26 43 C-29.92504518 43 -32.76549384 46.83172988 -35.515625 49.36328125 Z M-111 62 C-110.73323796 63.98491642 -110.73323796 63.98491642 -110 66 C-109.01 66.33 -108.02 66.66 -107 67 C-106.34 66.34 -105.68 65.68 -105 65 C-106.98 64.01 -108.96 63.02 -111 62 Z M0.4375 63.5 C-0.036875 63.995 -0.51125 64.49 -1 65 C-0.01 65.33 0.98 65.66 2 66 C2.33 64.68 2.66 63.36 3 62 C1.75923698 61.88457803 1.75923698 61.88457803 0.4375 63.5 Z M-64 70 C-63 72 -63 72 -63 72 Z M-45 70 C-44 72 -44 72 -44 72 Z M-111.8125 79.5 C-112.864375 79.995 -113.91625 80.49 -115 81 C-115 81.33 -115 81.66 -115 82 C-114.38511719 82.03738281 -113.77023438 82.07476562 -113.13671875 82.11328125 C-111.92435547 82.21189453 -111.92435547 82.21189453 -110.6875 82.3125 C-109.88699219 82.37050781 -109.08648437 82.42851563 -108.26171875 82.48828125 C-105.63727666 83.08206694 -104.69179328 83.95780294 -103 86 C-103.99 85.67 -104.98 85.34 -106 85 C-108.6569191 85.87914688 -108.6569191 85.87914688 -111 87 C-110.34 87.33 -109.68 87.66 -109 88 C-108.773125 88.70125 -108.54625 89.4025 -108.3125 90.125 C-106.15413575 94.85284551 -102.45525866 98.83767571 -97.72363281 101.07763672 C-94.81788661 102.06167303 -92.53223131 102.26851884 -89.47265625 102.30859375 C-87.91321289 102.34629883 -87.91321289 102.34629883 -86.32226562 102.38476562 C-84.15305354 102.41985773 -81.98377608 102.45112189 -79.81445312 102.47851562 C-74.07660899 102.62418226 -69.86233038 102.82891497 -65 106 C-65.66 103.03 -66.32 100.06 -67 97 C-65.68 96.34 -64.36 95.68 -63 95 C-63 93.35 -63 91.7 -63 90 C-63.66 90.66 -64.32 91.32 -65 92 C-73.56601483 93.303524 -81.34286451 88.29890583 -88.82421875 84.6640625 C-89.66758789 84.25663818 -90.51095703 83.84921387 -91.37988281 83.42944336 C-93.06260968 82.61233458 -94.74054264 81.78526592 -96.41308594 80.94750977 C-101.997049 78.220686 -105.9117266 76.72316546 -111.8125 79.5 Z M-11.5078125 80.80859375 C-12.115112 81.09477066 -12.7224115 81.38094757 -13.34811401 81.67579651 C-15.27814568 82.58740465 -17.20162608 83.51193952 -19.125 84.4375 C-21.05673491 85.35669789 -22.98971842 86.27320526 -24.92330933 87.18849182 C-26.67387371 88.01878172 -28.42125071 88.85578193 -30.16845703 89.69311523 C-34.68230313 91.77645875 -38.02880132 92.27115629 -43 92 C-43.66 91.34 -44.32 90.68 -45 90 C-44.67 91.98 -44.34 93.96 -44 96 C-43.01 96.33 -42.02 96.66 -41 97 C-41.33 97.556875 -41.66 98.11375 -42 98.6875 C-43.13477525 101.31166778 -43.07503586 103.17208611 -43 106 C-42.42894531 105.69964844 -41.85789062 105.39929688 -41.26953125 105.08984375 C-34.80518905 102.05807754 -30.19853202 101.9664665 -23.17578125 102.7421875 C-16.29852163 103.30048902 -11.00935347 102.2250917 -5.625 97.8125 C-2.23278599 94.54388893 -0.06498314 91.21600725 2 87 C-0.39068734 85.89363605 -0.39068734 85.89363605 -3 85 C-3.66 85.33 -4.32 85.66 -5 86 C-3.30820672 83.95780294 -2.36272334 83.08206694 0.26171875 82.48828125 C1.06222656 82.43027344 1.86273438 82.37226562 2.6875 82.3125 C3.49574219 82.24675781 4.30398437 82.18101563 5.13671875 82.11328125 C5.75160156 82.07589844 6.36648437 82.03851563 7 82 C-0.02669983 77.31553345 -3.72953977 77.09616054 -11.5078125 80.80859375 Z M-73 130 C-73.40140739 134.0880495 -73.40140739 134.0880495 -71.7734375 137.671875 C-69.02641623 139.7291156 -66.39302234 139.41396497 -63.05859375 139.49609375 C-62.37925781 139.66238281 -61.69992188 139.82867187 -61 140 C-59.84765625 141.97265625 -59.84765625 141.97265625 -59 144 C-56.09704195 145.45147903 -54.22738221 145.37239025 -51 145 C-49.54857486 143.7743521 -48.10005826 142.54244198 -46.71875 141.23828125 C-44.00898754 139.28602057 -41.10724247 138.95269525 -37.85546875 138.45703125 C-37.24316406 138.30621094 -36.63085938 138.15539062 -36 138 C-34.64560332 135.29120665 -34.93498549 132.99066732 -35 130 C-35.309375 130.639375 -35.61875 131.27875 -35.9375 131.9375 C-38.74557007 134.74557007 -40.98866256 134.55950871 -44.84375 134.7265625 C-47.29473816 134.874657 -47.29473816 134.874657 -50 137 C-55.19523684 137.51952368 -59.10959872 136.48903495 -63.88671875 134.65625 C-66.26786976 133.80228948 -66.26786976 133.80228948 -70 134 C-71.75 132 -71.75 132 -73 130 Z M-70.8125 156.9375 C-71.60076172 157.32357422 -72.38902344 157.70964844 -73.20117188 158.10742188 C-75.14020354 159.05931015 -77.07095465 160.02803338 -79 161 C-79 161.33 -79 161.66 -79 162 C-77.56260487 162.02712066 -76.12506137 162.04645067 -74.6875 162.0625 C-73.88699219 162.07410156 -73.08648437 162.08570313 -72.26171875 162.09765625 C-69.83138666 162.09657855 -69.83138666 162.09657855 -67 161 C-65.043446 160.90552354 -63.08383255 160.86928283 -61.125 160.8671875 C-59.97515625 160.86589844 -58.8253125 160.86460937 -57.640625 160.86328125 C-55.83851563 160.86908203 -55.83851563 160.86908203 -54 160.875 C-52.79859375 160.87113281 -51.5971875 160.86726562 -50.359375 160.86328125 C-49.20953125 160.86457031 -48.0596875 160.86585938 -46.875 160.8671875 C-45.29332031 160.86887939 -45.29332031 160.86887939 -43.6796875 160.87060547 C-41 161 -41 161 -38 162 C-36.43881572 162.06740865 -34.8749748 162.08514456 -33.3125 162.0625 C-32.50425781 162.05347656 -31.69601563 162.04445312 -30.86328125 162.03515625 C-30.24839844 162.02355469 -29.63351563 162.01195312 -29 162 C-33.84843871 157.15156129 -42.40060101 153.21984353 -49.26171875 152.80078125 C-52.07803393 153.07766682 -52.07803393 153.07766682 -54.6328125 153.6328125 C-57 154 -57 154 -59.25390625 153.30859375 C-63.66254295 152.81317085 -66.94346652 154.9754168 -70.8125 156.9375 Z M-69.5 173.6875 C-69.995 174.450625 -70.49 175.21375 -71 176 C-70.05125 175.83757812 -69.1025 175.67515625 -68.125 175.5078125 C-63.41771477 174.83771103 -58.74675582 174.85374587 -54 174.875 C-53.13632813 174.87113281 -52.27265625 174.86726562 -51.3828125 174.86328125 C-46.48156537 174.87072995 -41.83181972 175.17281347 -37 176 C-41.32551312 170.99862545 -45.61503136 168.55962012 -52.234375 167.71484375 C-58.98621712 167.44709829 -64.8072972 168.64284449 -69.5 173.6875 Z M-67 186 C-66 188 -66 188 -66 188 Z " fill="#FEFEFE" transform="translate(204,26)"/>
<path d="M0 0 C3 1 3 1 4.09985352 3.15112305 C4.60923462 4.56711792 4.60923462 4.56711792 5.12890625 6.01171875 C5.51900879 7.06907227 5.90911133 8.12642578 6.31103516 9.21582031 C6.72401855 10.36147461 7.13700195 11.50712891 7.5625 12.6875 C15.72250444 34.57813621 24.39553175 56.30048741 40 74 C39.57847656 72.865625 39.15695313 71.73125 38.72265625 70.5625 C38.16883084 69.04182684 37.61547019 67.52098436 37.0625 66 C36.64581055 64.88431641 36.64581055 64.88431641 36.22070312 63.74609375 C34.43408764 58.79523157 33.47085001 54.24491149 33 49 C36.46501868 52.40325364 39.72362607 55.92275064 42.9375 59.5625 C56.20549586 74.33514102 56.20549586 74.33514102 73 84 C87.78534674 80.97527227 103.47091403 62.5725285 112.29296875 50.984375 C113.13794922 50.00210938 113.13794922 50.00210938 114 49 C114.66 49 115.32 49 116 49 C114.07813928 57.67181058 111.35448294 65.77952797 108 74 C126.37674831 56.04920281 136.35213527 26.81437323 144.078125 2.87109375 C144.38234375 2.25363281 144.6865625 1.63617188 145 1 C145.99 0.67 146.98 0.34 148 0 C148.08636719 0.72703125 148.17273438 1.4540625 148.26171875 2.203125 C150.04244675 14.94594922 154.41898866 26.34223361 164.27734375 35 C166 37 166 37 165.91772461 38.79223633 C164.58787914 41.99143628 162.48785603 43.88327256 160.0390625 46.32421875 C159.53386078 46.82991898 159.02865906 47.3356192 158.50814819 47.85664368 C157.43398812 48.92846401 156.3561352 49.99659428 155.27490234 51.0612793 C153.65691667 52.65604144 152.05227806 54.26329783 150.44921875 55.87304688 C143.95163994 62.35255611 137.19826643 68.29591918 130 74 C128.82599341 74.97635467 127.65491454 75.95625312 126.48828125 76.94140625 C115.30741192 86.23385042 103.2039798 94.12769939 91 102 C90.18740723 102.52948242 89.37481445 103.05896484 88.53759766 103.60449219 C86.47368156 104.94259103 84.39782907 106.2581043 82.3125 107.5625 C81.44141602 108.12650513 81.44141602 108.12650513 80.55273438 108.7019043 C78.08209467 110.20453076 76.5299733 111.05827866 73.60888672 110.73706055 C70.87640585 109.96508228 68.78039057 108.94730772 66.33203125 107.515625 C65.44773437 106.99919434 64.5634375 106.48276367 63.65234375 105.95068359 C62.71519531 105.38945801 61.77804688 104.82823242 60.8125 104.25 C59.83796875 103.66943848 58.8634375 103.08887695 57.859375 102.49072266 C48.51254688 96.84088799 39.68178254 90.61659615 31 84 C30.05737305 83.28481201 30.05737305 83.28481201 29.09570312 82.55517578 C25.00708282 79.43853005 20.98789988 76.24421362 17 73 C16.46552246 72.56993652 15.93104492 72.13987305 15.38037109 71.69677734 C7.54470335 65.35496843 0.21614527 58.48384791 -6.97750854 51.42889404 C-7.94813218 50.47894443 -8.9226755 49.5329828 -9.90115356 48.59112549 C-11.27872592 47.2611711 -12.63783309 45.91217116 -13.99609375 44.5625 C-14.79200928 43.78003906 -15.5879248 42.99757812 -16.40795898 42.19140625 C-18 40 -18 40 -17.84106445 37.81518555 C-16.81100822 35.59211788 -15.58647282 34.42939455 -13.75 32.8125 C-4.9402066 24.32699347 -0.7865775 11.99530686 0 0 Z " fill="#FEFEFE" transform="translate(76,184)"/>
<path d="M0 0 C7.46758539 2.11976127 13.34356266 6.90127649 17.5 13.5 C19.97206157 19.26814367 20.77570565 23.52434476 18.5625 29.5 C18.046875 30.655 17.53125 31.81 17 33 C16.01 33 15.02 33 14 33 C13.91363281 32.14277344 13.82726562 31.28554687 13.73828125 30.40234375 C12.84919737 23.16732173 11.85911256 18.49846947 7 13 C7.58680009 24.34480167 11.67811754 34.37748821 17.7109375 43.90625 C21.18964684 49.55651729 21.51451986 55.53544871 22 62 C16.8026059 60.2675353 14.19203131 55.28321687 11 51 C10.51917969 50.35675781 10.03835937 49.71351563 9.54296875 49.05078125 C1.67676992 37.53866169 -0.17101836 24.68144805 -0.0625 11.125 C-0.05798828 10.05507812 -0.05347656 8.98515625 -0.04882812 7.8828125 C-0.03709749 5.25515014 -0.02068228 2.62760462 0 0 Z " fill="#FEFEFE" transform="translate(56,92)"/>
<path d="M0 0 C0.62272363 23.51021229 -2.19892387 41.49215266 -17.86328125 59.8671875 C-20 62 -20 62 -22 62 C-21.3650096 53.6903842 -20.80624371 46.9929778 -15.58984375 40.24609375 C-10.28505731 32.75161659 -6.55100923 22.20431071 -7 13 C-7.81360995 14.29096781 -8.62585046 15.58279875 -9.4375 16.875 C-9.88996094 17.59429687 -10.34242188 18.31359375 -10.80859375 19.0546875 C-12.74539393 22.21706944 -13.23129308 24.43440859 -13.5625 28.125 C-13.64628906 29.03507812 -13.73007813 29.94515625 -13.81640625 30.8828125 C-13.87699219 31.58148438 -13.93757812 32.28015625 -14 33 C-17.8359375 31.328125 -17.8359375 31.328125 -19.3125 28.375 C-20.60824347 22.01407749 -19.77095113 17.77764953 -16.375 12.375 C-12.75424715 7.3355387 -6.80795328 0 0 0 Z " fill="#FEFEFE" transform="translate(244,92)"/>
</svg>
