<?xml version="1.0" encoding="UTF-8"?>
<!-- Generator: visioncortex VTracer 0.6.4 -->
<svg version="1.1" xmlns="http://www.w3.org/2000/svg" width="226" height="291">
<path d="M0 0 C2.15234375 2.4140625 2.15234375 2.4140625 3.9375 5.625 C8.23363217 12.68531023 12.9589248 17.487164 21 20 C20.938125 18.9275 20.87625 17.855 20.8125 16.75 C21.00437794 12.9124411 21.22473478 11.56969002 24 9 C24.99 9 25.98 9 27 9 C28.84098251 11.0880153 30.48704597 13.13756424 32.125 15.375 C32.58003906 15.97828125 33.03507813 16.5815625 33.50390625 17.203125 C37.34433025 22.33128761 38.09003888 24.7308318 38.3125 31.125 C38.61594855 37.3821389 39.76115947 41.63567037 43 47 C47.32801442 60.89958477 40.06931221 74.82811908 34 87 C34.78375 86.175 35.5675 85.35 36.375 84.5 C39 82 39 82 41 82 C40.57592192 85.29353673 40.13320452 88.58432587 39.6875 91.875 C39.56955078 92.7928125 39.45160156 93.710625 39.33007812 94.65625 C36.4846548 115.37676856 24.9015874 126.95850357 8.89453125 139.66796875 C6.78669772 141.36618281 4.73501505 143.08292033 2.69921875 144.86328125 C-5.69426325 152.19638104 -12.48164043 157.55846288 -24 158 C-24.7940625 158.03996094 -25.588125 158.07992187 -26.40625 158.12109375 C-38.64432551 158.45028249 -45.88104381 156.23647656 -55 148 C-56.05070728 147.10986371 -57.10559253 146.22464143 -58.1640625 145.34375 C-64.15928971 140.35302346 -70.03110697 135.24461904 -75.7890625 129.98046875 C-77.7279698 128.24367369 -79.71543861 126.62142993 -81.75 125 C-92.18431393 116.01421435 -95.59385623 102.21035065 -97 89 C-97.02796929 87.00019558 -97.03539269 84.99968681 -97 83 C-94.50638429 84.20381448 -92.31856917 85.45428722 -90 87 C-90.55429688 85.9378125 -91.10859375 84.875625 -91.6796875 83.78125 C-92.41189234 82.35438929 -93.14363873 80.92729327 -93.875 79.5 C-94.42220703 78.45585937 -94.42220703 78.45585937 -94.98046875 77.390625 C-99.63314087 68.25446883 -101.08436937 59.26454187 -100 49 C-99.03125 46.96484375 -99.03125 46.96484375 -97.875 45.375 C-95.32450267 40.7841048 -96.33760371 37.93416342 -97.51953125 32.96484375 C-98.04860353 29.70008066 -97.70179247 27.21296824 -97 24 C-93.54516288 25.52012833 -90.68504536 27.62614635 -87.68359375 29.87890625 C-85.88113235 31.18551179 -85.88113235 31.18551179 -83 32 C-82.82984375 31.05898437 -82.6596875 30.11796875 -82.484375 29.1484375 C-80.07732865 16.78031634 -80.07732865 16.78031634 -76 12 C-72.6009004 13.41261282 -70.97841832 15.00455611 -68.875 18 C-67.32027373 20.19111681 -65.90441775 22.09558225 -64 24 C-63.63648438 23.07058594 -63.27296875 22.14117187 -62.8984375 21.18359375 C-56.54217635 5.36983114 -56.54217635 5.36983114 -49.39453125 1.640625 C-43.85487795 0.59516684 -39.38910688 2.95142123 -34.25195312 4.9453125 C-26.93177785 7.56008146 -22.02250438 6.70620366 -14.9609375 3.7109375 C-13.23074305 2.81709082 -11.50158151 1.92124205 -9.7734375 1.0234375 C-6.21681709 -0.28900553 -3.75948573 -0.55121898 0 0 Z M-91 48 C-91 48.33 -91 48.66 -91 49 C-89.69675781 48.83951172 -89.69675781 48.83951172 -88.3671875 48.67578125 C-77.1645923 47.51041061 -77.1645923 47.51041061 -72 51 C-71.34 51 -70.68 51 -70 51 C-70 51.66 -70 52.32 -70 53 C-71.010625 52.9175 -72.02125 52.835 -73.0625 52.75 C-77.90275368 53.05731769 -79.99368267 54.3836295 -84 57 C-83.17542751 59.21809907 -83.17542751 59.21809907 -80.8125 59.8125 C-78.27063431 60.88573218 -76.91144496 61.79521111 -74.875 63.5625 C-70.19782185 67.52793365 -65.8793262 67.4482465 -60 67 C-58.32254318 66.36096883 -56.65438613 65.69658363 -55 65 C-50.35839705 64.39831073 -47.80877029 64.82841735 -44.0625 67.5 C-43.051875 68.325 -42.04125 69.15 -41 70 C-40.505 69.505 -40.505 69.505 -40 69 C-40.03209635 67.56149997 -40.10052717 66.12372708 -40.1875 64.6875 C-40.26377781 60.30499309 -40.26377781 60.30499309 -38 57.6875 C-37.34 57.130625 -36.68 56.57375 -36 56 C-36 54.68 -36 53.36 -36 52 C-36.77988281 52.23074219 -37.55976562 52.46148437 -38.36328125 52.69921875 C-43.4835634 53.12270073 -47.40720344 51.53038593 -52.1875 49.8125 C-53.12424561 49.48950928 -54.06099121 49.16651855 -55.02612305 48.83374023 C-59.82647464 47.16911227 -64.57685516 45.40339856 -69.3125 43.5625 C-78.18068441 40.36436736 -83.75361904 41.94457517 -91 48 Z M3.3125 46.9375 C0.93546976 47.8680875 -1.44338098 48.79404116 -3.82421875 49.71484375 C-4.86666748 50.12855225 -5.90911621 50.54226074 -6.9831543 50.96850586 C-14.57263121 53.56343505 -14.57263121 53.56343505 -18.375 52.0625 C-18.91125 51.711875 -19.4475 51.36125 -20 51 C-19.67 53.31 -19.34 55.62 -19 58 C-18.01 58.33 -17.02 58.66 -16 59 C-16.32552083 61.01822917 -16.65104167 63.03645833 -16.9765625 65.0546875 C-16.98429687 65.69664062 -16.99203125 66.33859375 -17 67 C-16.34 67.66 -15.68 68.32 -15 69 C-14.154375 68.34 -13.30875 67.68 -12.4375 67 C-8.48105255 64.69806694 -6.50117964 64.50896222 -2 65 C-1.236875 65.33 -0.47375 65.66 0.3125 66 C4.50840214 67.56126591 8.58079033 67.58875506 13 67 C16.38622776 65.3268025 16.38622776 65.3268025 19 63 C21.90674328 60.70983863 24.50710457 59.26132335 28 58 C23.17557107 54.20937727 20.25196725 52.71581967 14 53 C16.12117504 50.25494995 18.48616167 49.14717909 21.81640625 48.2734375 C26.22283322 47.72164879 30.62182824 48.41413253 35 49 C31.0158174 44.72069277 28.13493359 42.21611291 22.1796875 41.61328125 C15.44392567 41.70986594 9.48754679 44.47621164 3.3125 46.9375 Z M-45 93 C-45.33 94.65 -45.66 96.3 -46 98 C-43.57263538 100.01124497 -41.20598092 101.87641145 -38.5 103.5 C-36 105 -36 105 -33.625 107.25 C-31.0489484 109.30829092 -31.0489484 109.30829092 -27.5625 109.0625 C-24.07346326 108.0219101 -22.18788047 106.79853645 -19.55078125 104.33203125 C-17.8608095 102.88044342 -16.15498205 101.91283676 -14.1875 100.875 C-10.74062661 99.31749441 -10.74062661 99.31749441 -10 96 C-10.66 95.01 -11.32 94.02 -12 93 C-12.33 93.99 -12.66 94.98 -13 96 C-14.7421875 96.66015625 -14.7421875 96.66015625 -16.875 97.0625 C-19.98533464 97.6650556 -21.23878766 98.15919177 -24 100 C-29.64737531 100.45543349 -32.22847194 100.1391632 -37 97 C-38.051875 96.835 -39.10375 96.67 -40.1875 96.5 C-41.115625 96.335 -42.04375 96.17 -43 96 C-43.66 95.01 -44.32 94.02 -45 93 Z M-43 115.9375 C-47.22077984 117.55876309 -50.46826331 118.22254064 -55 118 C-55.33 118.66 -55.66 119.32 -56 120 C-49.40390245 120.94855385 -43.36734479 120.86227718 -36.74609375 120.1875 C-33.38688763 119.95813742 -30.32333773 120.50765367 -27 121 C-25.43419778 120.86791124 -23.87138501 120.69763994 -22.3125 120.5 C-17.30065972 119.8783169 -12.65976253 120.30211482 -7.6640625 120.94140625 C-4.79412601 121.00452802 -3.40691178 120.50004218 -1 119 C-3.46231755 118.17922748 -5.78130718 117.59147121 -8.3125 117.0625 C-11.00901758 116.49208282 -13.26047256 115.8900227 -15.8125 114.8125 C-20.03761295 113.73551043 -23.70251545 114.27700386 -28 114.80859375 C-31 115 -31 115 -34 114.4140625 C-37.61304377 113.91538719 -39.62041129 114.63054968 -43 115.9375 Z M-41 130 C-39.29813413 132.33716729 -37.92943754 133.81378985 -35.03076172 134.39453125 C-32.6550569 134.53866935 -30.31700982 134.54536 -27.9375 134.5 C-26.71450195 134.52320313 -26.71450195 134.52320313 -25.46679688 134.546875 C-20.6948244 134.62040644 -20.6948244 134.62040644 -16.94140625 131.96875 C-16.63074219 131.3190625 -16.32007812 130.669375 -16 130 C-24.57942205 127.0158532 -32.35635361 127.43891959 -41 130 Z " fill="#FEFEFE" transform="translate(141,74)"/>
<path d="M0 0 C11.394885 0.56974425 20.96203922 5.21280551 30 12 C30.62648437 12.44988281 31.25296875 12.89976563 31.8984375 13.36328125 C37.69793454 17.85852459 41.68465273 24.05395819 44 31 C45.28365387 28.43269226 45.13275635 26.55347003 45.125 23.6875 C45.12757813 22.74261719 45.13015625 21.79773438 45.1328125 20.82421875 C45.005363 18.11404264 44.60596226 15.64026415 44 13 C49.63986422 14.36723981 52.65086319 18.56325691 56 23 C58.61304427 27.4308142 58.19617564 31.99752118 58 37 C59.134375 36.9175 60.26875 36.835 61.4375 36.75 C69.68453705 36.79363512 75.61089385 41.09705533 81.56640625 46.4140625 C83 48 83 48 83 50 C78.38 50 73.76 50 69 50 C70.36125 50.825 71.7225 51.65 73.125 52.5 C81.45381578 58.10920246 85.44919777 65.3685226 88 75 C88.25 78.6875 88.25 78.6875 88 81 C84.52224821 79.48446596 82.0442016 77.4226544 79.25 74.875 C78.05117188 73.78832031 78.05117188 73.78832031 76.828125 72.6796875 C76.22484375 72.12539062 75.6215625 71.57109375 75 71 C75.37253906 71.79921875 75.74507812 72.5984375 76.12890625 73.421875 C79.55244669 81.36971275 80.7773303 87.46599342 79 96 C78.67 96.66 78.34 97.32 78 98 C77.34 98 76.68 98 76 98 C74.02 94.535 74.02 94.535 72 91 C71.97421875 91.70125 71.9484375 92.4025 71.921875 93.125 C71.41035049 101.68140998 69.88985776 107.67734588 63.375 113.5 C60.32978723 116 60.32978723 116 58 116 C56.52837029 110.92870051 55.36238032 106.7237297 57.375 101.6875 C60.28690253 94.29675188 60.09826562 86.14223126 57.4375 78.6875 C54.57044671 72.43303854 50.40585756 66.80958665 44 64 C44.309375 63.2575 44.61875 62.515 44.9375 61.75 C45.81160747 59.4876042 46.44256673 57.35025921 47 55 C46.38511719 55.55429687 45.77023438 56.10859375 45.13671875 56.6796875 C44.32847656 57.40414062 43.52023438 58.12859375 42.6875 58.875 C41.88699219 59.59429687 41.08648437 60.31359375 40.26171875 61.0546875 C38 63 38 63 35 65 C37.97 64.505 37.97 64.505 41 64 C40.86478588 71.5719907 38.18161927 74.71633572 33 80 C29.89351586 83.6654794 29.89351586 83.6654794 28 88 C22.3641284 85.61191881 20.17808074 80.82822929 17.8984375 75.35546875 C17.24213894 73.64458357 16.60489758 71.92619364 15.9921875 70.19921875 C14.38250297 66.63129596 12.2337932 65.15586213 9 63 C9.33 62.34 9.66 61.68 10 61 C11.76592434 60.84409497 13.53992165 60.77758877 15.3125 60.75 C24.19019059 60.16663921 31.9576157 56.56966783 38 50 C36.88625 50.495 36.88625 50.495 35.75 51 C33 52 33 52 29 52 C29.165 51.319375 29.33 50.63875 29.5 49.9375 C30.07089059 46.5835178 30.06659023 43.39610195 30 40 C29.60167969 40.68707031 29.20335937 41.37414063 28.79296875 42.08203125 C28.26316406 42.98308594 27.73335937 43.88414063 27.1875 44.8125 C26.40439453 46.15248047 26.40439453 46.15248047 25.60546875 47.51953125 C24.21467801 49.66831987 22.8877934 51.29361617 21 53 C20.01 52.67 19.02 52.34 18 52 C17.32257314 49.78826859 17.0516042 47.61173037 16.72265625 45.32421875 C15.80809328 42.38278649 14.28042814 41.01322646 12 39 C12.02320313 39.95261719 12.04640625 40.90523437 12.0703125 41.88671875 C12.08835938 43.14097656 12.10640625 44.39523438 12.125 45.6875 C12.14820313 46.92886719 12.17140625 48.17023437 12.1953125 49.44921875 C12.01032021 52.81237857 11.45767895 54.9985587 10 58 C9.34 58 8.68 58 8 58 C7.608125 57.113125 7.21625 56.22625 6.8125 55.3125 C4.93363045 51.87870392 2.86704545 49.63458231 0 47 C0.33 48.11375 0.66 49.2275 1 50.375 C2.92763024 58.21033154 2.74656702 64.81907987 -1 72 C-1.66 72 -2.32 72 -3 72 C-3.495 70.865625 -3.99 69.73125 -4.5 68.5625 C-9.4082547 58.98294083 -16.48787727 52.57196892 -26.61816406 48.73144531 C-35.13329842 46.11650655 -44.188899 45.13912311 -53 44 C-53 43.34 -53 42.68 -53 42 C-50.36 40.68 -47.72 39.36 -45 38 C-55.10160104 38.73200008 -65.01546216 40.35487926 -75 42 C-67.09273955 45.26431995 -59.48377394 46.97493351 -51 48 C-51 48.66 -51 49.32 -51 50 C-52.155 50.495 -53.31 50.99 -54.5 51.5 C-62.58475964 55.57104918 -67.48973915 61.80939136 -71 70 C-70.38640625 69.68289062 -69.7728125 69.36578125 -69.140625 69.0390625 C-67.09005979 68.04371515 -65.22077983 67.47588139 -63 67 C-64.10403059 69.30692958 -65.29299218 71.48290759 -66.62109375 73.671875 C-71.72370347 82.31887813 -73.67111202 90.14091682 -75 100 C-79.88977253 97.88321536 -82.39065437 94.56061582 -85 90 C-88.448538 80.69987037 -87.14146039 70.21495049 -84 61 C-85.19625 61.474375 -86.3925 61.94875 -87.625 62.4375 C-91.06414238 63.73482773 -94.33895604 64.54236951 -98 65 C-95.03 65.99 -92.06 66.98 -89 68 C-89.45375 69.258125 -89.9075 70.51625 -90.375 71.8125 C-94.24125686 83.6506103 -95.19154805 95.51167976 -91.875 107.6875 C-91.01253522 110.95254525 -91.05206799 111.93590991 -92 115 C-97.37836556 114.37051832 -99.18386407 112.08958929 -102.48828125 108.046875 C-105.99615936 103.29718991 -106.41679846 98.73481518 -107 93 C-107.45375 93.825 -107.9075 94.65 -108.375 95.5 C-109.179375 96.7375 -109.179375 96.7375 -110 98 C-110.66 98 -111.32 98 -112 98 C-112.054348 95.9377952 -112.09294961 93.87517184 -112.125 91.8125 C-112.14820313 90.66394531 -112.17140625 89.51539062 -112.1953125 88.33203125 C-112.00484152 85.08259628 -111.39360127 82.91339479 -110 80 C-114.39291786 83.31909349 -116.8227865 85.79887886 -119 91 C-119.66 91 -120.32 91 -121 91 C-121.59700394 81.89568998 -119.78243534 73.88846088 -113.75 66.8125 C-112.8425 65.884375 -111.935 64.95625 -111 64 C-111.61488281 63.60167969 -112.22976562 63.20335937 -112.86328125 62.79296875 C-113.67152344 62.26316406 -114.47976562 61.73335937 -115.3125 61.1875 C-116.11300781 60.66542969 -116.91351563 60.14335938 -117.73828125 59.60546875 C-119.75395713 58.17465219 -121.4447373 56.917654 -123 55 C-123 54.01 -123 53.02 -123 52 C-122.2471875 51.9484375 -121.494375 51.896875 -120.71875 51.84375 C-108.36679686 50.52460937 -98.1192088 44.97552879 -88 38 C-88.55429688 37.54109375 -89.10859375 37.0821875 -89.6796875 36.609375 C-90.40414062 35.99578125 -91.12859375 35.3821875 -91.875 34.75 C-92.59429687 34.14671875 -93.31359375 33.5434375 -94.0546875 32.921875 C-96.87767116 30.13290319 -97.94383949 28.23553113 -98.125 24.25 C-98.08375 23.5075 -98.0425 22.765 -98 22 C-97.35675781 22.15597656 -96.71351562 22.31195312 -96.05078125 22.47265625 C-86.5611252 24.51679043 -77.81190735 24.21915084 -68.5 21.4375 C-57.6660078 18.46431606 -45.02149366 19.13551813 -34 21 C-34.79172607 20.73783691 -35.58345215 20.47567383 -36.39916992 20.20556641 C-39.35351686 19.22648565 -42.30740174 18.24602634 -45.26098633 17.26464844 C-47.16127053 16.63370881 -49.06207715 16.00434331 -50.96289062 15.375 C-52.16494141 14.97539062 -53.36699219 14.57578125 -54.60546875 14.1640625 C-55.71043701 13.79748535 -56.81540527 13.4309082 -57.95385742 13.05322266 C-60.67419648 12.11264859 -63.33894495 11.09560118 -66 10 C-66 9.34 -66 8.68 -66 8 C-62.54292362 7.34731922 -59.08413923 6.70415035 -55.625 6.0625 C-54.65949219 5.88009766 -53.69398437 5.69769531 -52.69921875 5.50976562 C-32.79257644 1.8357209 -11.56628497 -0.02702449 6 12 C7.70331934 13.28617991 9.39050729 14.59818376 11 16 C8.51906976 10.34347904 5.93383132 6.53771418 1.390625 2.34765625 C0.70226562 1.68056641 0.70226562 1.68056641 0 1 C0 0.67 0 0.34 0 0 Z " fill="#FEFEFE" transform="translate(130,0)"/>
<path d="M0 0 C1.73977951 1.46610633 3.47013221 2.94110105 5.18823242 4.43261719 C6.52055623 5.58522719 7.87384421 6.71371569 9.23828125 7.828125 C11.89409614 11.10225599 12.88567244 14.77895197 14.1875 18.75 C18.71124732 31.73086305 24.97480324 43.5528269 34 54 C33.85691406 53.42765625 33.71382812 52.8553125 33.56640625 52.265625 C32.28320312 47.1328125 32.28320312 47.1328125 31 42 C34.07734984 43.37599563 36.20053841 44.98604856 38.625 47.3125 C46.06818571 53.98906546 54.33314545 57.42993836 64.29296875 57.26953125 C73.68402634 56.33449088 80.77636909 50.61966175 88 45 C89.33171739 43.99784903 90.6644337 42.99701577 92 42 C91.36843005 47.05255964 89.86540627 51.29593201 88 56 C98.04090806 44.41022847 108.16209426 28.86698335 110.9375 13.5 C112.19577088 9.35510769 113.76480951 7.95586953 117.1484375 5.421875 C119.28854569 3.77841639 121.12308737 1.93479099 123 0 C123.17015625 1.26714844 123.3403125 2.53429687 123.515625 3.83984375 C125.65215747 20.08243351 125.65215747 20.08243351 135 33 C135 35 135 35 132.953125 37.15625 C132.49357422 37.59710938 132.03402344 38.03796875 131.56054688 38.4921875 C129.86420841 40.13120289 128.23777983 41.8247834 126.609375 43.53125 C117.40719366 53.04644703 107.80058991 61.35215372 97 69 C96.35675781 69.45600586 95.71351563 69.91201172 95.05078125 70.38183594 C88.05517184 75.28958048 80.8428384 79.79962314 73.4375 84.0625 C72.78257568 84.4450293 72.12765137 84.82755859 71.45288086 85.22167969 C67.63043426 87.36764919 64.41450592 88.97724481 60 89 C57.1698946 88.04193693 54.65508021 86.66077327 52.0625 85.1875 C51.32032227 84.77878662 50.57814453 84.37007324 49.81347656 83.94897461 C34.48208833 75.3613739 20.18361213 64.99469714 7.26953125 53.08203125 C5.17965484 51.16481245 3.04123814 49.32973513 0.875 47.5 C-3.44565701 43.72603837 -7.61538789 39.64484003 -11 35 C-11 34.01 -11 33.02 -11 32 C-10.34 32 -9.68 32 -9 32 C-8.71157227 31.41412109 -8.42314453 30.82824219 -8.12597656 30.22460938 C-7.44398368 28.87718546 -6.73852508 27.54083688 -5.99121094 26.22851562 C-2.98497419 20.78754786 -2.00679683 15.62560256 -1.25 9.5 C-1.06244141 8.12328125 -1.06244141 8.12328125 -0.87109375 6.71875 C-0.56800155 4.48053068 -0.27794066 2.24145695 0 0 Z " fill="#FEFEFE" transform="translate(51,202)"/>
<path d="M0 0 C7.4848759 0.19052411 14.70078531 3.81847417 20.5 8.375 C23.72242059 11.87362806 27.5 16.41501226 27.5 21.375 C22.28978228 20.55099963 18.21220984 17.10568358 13.88671875 14.28515625 C10.34743874 12.28895334 7.41864789 11.32362072 3.5 10.375 C4.49 14.335 5.48 18.295 6.5 22.375 C7.16 22.375 7.82 22.375 8.5 22.375 C8.83 20.725 9.16 19.075 9.5 17.375 C12.4719385 18.49951727 14.83440687 19.59793791 17.5 21.375 C17.32082031 22.01566406 17.14164063 22.65632813 16.95703125 23.31640625 C15.43322179 29.34303406 15.43322179 29.34303406 16.5625 35.3125 C18.59352836 38.52283516 20.08321423 39.80512546 23.5 41.375 C23.83 41.045 24.16 40.715 24.5 40.375 C23.96375 39.67375 23.4275 38.9725 22.875 38.25 C21.5 35.375 21.5 35.375 22.1875 32.125 C23.5 29.375 23.5 29.375 25.5 28.375 C28.78973916 30.56815944 28.94407215 30.89225346 29.8515625 34.48046875 C30.06296875 35.29966797 30.274375 36.11886719 30.4921875 36.96289062 C30.70101562 37.82076172 30.90984375 38.67863281 31.125 39.5625 C31.3415625 40.40103516 31.558125 41.23957031 31.78125 42.10351562 C32.98084902 46.8463747 33.90860592 51.51899751 34.5 56.375 C25.10565712 55.70397551 18.01170014 52.21640648 11.5 45.375 C1.2579775 33.2642576 -5.68513322 20.98720648 -5.765625 4.94921875 C-5.33435609 0.76971561 -4.06839279 0.43589923 0 0 Z " fill="#FEFEFE" transform="translate(5.5,107.625)"/>
<path d="M0 0 C0.680625 -0.02578125 1.36125 -0.0515625 2.0625 -0.078125 C4.62953202 0.35661429 5.46602094 1.17185712 7 3.25 C8.38922121 15.75299089 2.25073779 29.14763306 -5.28076172 38.91015625 C-11.859141 46.83512438 -18.54896323 54.0809169 -29 56.25 C-30.32 56.25 -31.64 56.25 -33 56.25 C-32.57302085 50.27229193 -31.48576744 44.6200556 -30.0625 38.8125 C-29.89266602 38.10222656 -29.72283203 37.39195312 -29.54785156 36.66015625 C-28.24385802 31.49385802 -28.24385802 31.49385802 -26 29.25 C-23.875 29.625 -23.875 29.625 -22 30.25 C-21.25 32.9375 -21.25 32.9375 -21 36.25 C-22.9375 39.125 -22.9375 39.125 -25 41.25 C-21.06401863 39.93800621 -18.48562262 38.62334499 -16 35.25 C-14.94370625 30.21229135 -14.86084762 26.31289945 -16 21.25 C-10.25 17.25 -10.25 17.25 -8 17.25 C-7.34 18.57 -6.68 19.89 -6 21.25 C-4.68 17.29 -3.36 13.33 -2 9.25 C-14.29579315 15.2180443 -14.29579315 15.2180443 -26 22.25 C-25.68865818 16.17883452 -23.12966641 11.58073631 -19 7.25 C-13.28994363 3.63413317 -6.87630993 0.15627977 0 0 Z " fill="#FEFEFE" transform="translate(219,107.75)"/>
<path d="M0 0 C1.671875 1.3203125 1.671875 1.3203125 4.171875 3.7578125 C4.171875 4.4178125 4.171875 5.0778125 4.171875 5.7578125 C2.92083984 5.79648437 2.92083984 5.79648437 1.64453125 5.8359375 C-8.85125605 6.3649348 -16.19341247 8.47896255 -23.97265625 15.69921875 C-28.63327344 20.87005087 -32.05462162 27.01849964 -33.828125 33.7578125 C-34.818125 33.7578125 -35.808125 33.7578125 -36.828125 33.7578125 C-40.07100794 26.46132589 -39.92425188 18.00457148 -37.390625 10.5078125 C-34.43088382 3.9774227 -29.20519137 -0.51772807 -22.890625 -3.7421875 C-14.60710912 -5.09459826 -7.10201005 -4.82572478 0 0 Z " fill="#FEFEFE" transform="translate(109.828125,56.2421875)"/>
</svg>
