<?xml version="1.0" encoding="UTF-8"?>
<!-- Generator: visioncortex VTracer 0.6.4 -->
<svg version="1.1" xmlns="http://www.w3.org/2000/svg" width="257" height="290">
<path d="M0 0 C7.21128698 7.02106119 8.74570987 15.11218916 9.40551758 24.77832031 C9.75167195 29.46140437 10.69301228 33.20398381 12.46142578 37.54833984 C16.58242929 48.89247092 10.64101352 63.01338522 6.125 73.375 C8.105 71.89 8.105 71.89 10.125 70.375 C9.14858028 95.27370288 0.59676769 110.37885627 -17.03515625 127.46875 C-18.93352376 129.17768381 -20.87504638 130.78584766 -22.875 132.375 C-23.37563965 132.77734863 -23.8762793 133.17969727 -24.39208984 133.59423828 C-26.10802557 134.96848115 -27.83318816 136.33013512 -29.5625 137.6875 C-30.10970703 138.12094727 -30.65691406 138.55439453 -31.22070312 139.00097656 C-37.91353164 144.16529674 -42.95694543 144.73851283 -51.1875 144.75 C-52.09951172 144.77449219 -53.01152344 144.79898438 -53.95117188 144.82421875 C-63.39613917 144.86484227 -69.25240283 141.43891509 -76.25 135.25 C-76.83015869 134.74210938 -77.41031738 134.23421875 -78.00805664 133.7109375 C-99.83149115 114.30978697 -110.89046499 99.7229276 -113.875 70.375 C-111.0144109 71.73437085 -109.01572301 73.02020469 -106.875 75.375 C-107.35710937 74.385 -107.83921875 73.395 -108.3359375 72.375 C-108.97434623 71.04185235 -109.61234513 69.70850839 -110.25 68.375 C-110.56710938 67.72660156 -110.88421875 67.07820313 -111.2109375 66.41015625 C-115.39174497 57.61304052 -116.73260862 49.12399207 -115.875 39.375 C-114.88022247 37.03943537 -113.87984883 34.70624929 -112.875 32.375 C-112.46145761 28.47349907 -112.24991828 24.62304657 -112.0859375 20.703125 C-111.875 17.375 -111.875 17.375 -110.875 14.375 C-110.215 14.375 -109.555 14.375 -108.875 14.375 C-107.18359375 16.08984375 -107.18359375 16.08984375 -105.3125 18.3125 C-104.69246094 19.04339844 -104.07242188 19.77429688 -103.43359375 20.52734375 C-102.91925781 21.13707031 -102.40492187 21.74679688 -101.875 22.375 C-101.545 22.705 -101.215 23.035 -100.875 23.375 C-100.61976562 22.18003906 -100.61976562 22.18003906 -100.359375 20.9609375 C-97.80620393 9.79760442 -97.80620393 9.79760442 -93.875 5.375 C-92.885 5.375 -91.895 5.375 -90.875 5.375 C-90.38580078 6.40560547 -90.38580078 6.40560547 -89.88671875 7.45703125 C-89.23123047 8.80861328 -89.23123047 8.80861328 -88.5625 10.1875 C-88.13324219 11.08082031 -87.70398438 11.97414063 -87.26171875 12.89453125 C-85.99278211 15.16431933 -84.80943102 16.66748171 -82.875 18.375 C-82.66746094 17.61316406 -82.45992187 16.85132812 -82.24609375 16.06640625 C-79.72500226 7.61705777 -76.39794438 0.39029625 -68.875 -4.625 C-64.46596202 -4.40081163 -60.94177645 -3.74696362 -56.875 -2.0625 C-48.61040453 1.15062126 -42.89593869 -1.08825729 -35.0234375 -4.43359375 C-23.37875518 -8.84008024 -10.01743192 -7.63232908 0 0 Z M-105.375 36.8125 C-106.0453125 37.26496094 -106.715625 37.71742187 -107.40625 38.18359375 C-107.8909375 38.57675781 -108.375625 38.96992187 -108.875 39.375 C-108.875 39.705 -108.875 40.035 -108.875 40.375 C-107.83859375 40.36339844 -106.8021875 40.35179687 -105.734375 40.33984375 C-104.36458514 40.33046163 -102.99479332 40.32136188 -101.625 40.3125 C-100.94308594 40.30412109 -100.26117188 40.29574219 -99.55859375 40.28710938 C-96.18157446 40.27071608 -93.10208361 40.31871232 -89.875 41.375 C-89.875 42.035 -89.875 42.695 -89.875 43.375 C-91.174375 43.49875 -91.174375 43.49875 -92.5 43.625 C-96.36764129 44.48447584 -98.74277503 45.98854288 -101.875 48.375 C-101.875 48.705 -101.875 49.035 -101.875 49.375 C-100.988125 49.6225 -100.10125 49.87 -99.1875 50.125 C-95.875 51.375 -95.875 51.375 -93.5625 53.4375 C-89.80283485 56.14795627 -86.45950085 56.5021395 -81.875 56.375 C-80.34435792 56.01897629 -78.8224494 55.62301218 -77.3125 55.1875 C-73.67143534 54.21824986 -71.85789324 54.46865154 -68.5 56.1875 C-67.29136329 56.91616369 -66.08299969 57.64528073 -64.875 58.375 C-63.885 58.705 -62.895 59.035 -61.875 59.375 C-62.37 54.92 -62.37 54.92 -62.875 50.375 C-61.555 49.715 -60.235 49.055 -58.875 48.375 C-58.875 46.395 -58.875 44.415 -58.875 42.375 C-59.205 43.035 -59.535 43.695 -59.875 44.375 C-68.3937992 43.80639083 -75.78306896 40.60308139 -83.67578125 37.52539062 C-94.66070579 33.26909444 -94.66070579 33.26909444 -105.375 36.8125 Z M-21.9375 38.8125 C-28.63271384 41.5296999 -34.62498026 43.89630722 -41.875 44.375 C-42.205 43.715 -42.535 43.055 -42.875 42.375 C-42.875 44.355 -42.875 46.335 -42.875 48.375 C-40.895 49.365 -40.895 49.365 -38.875 50.375 C-39.535 52.685 -40.195 54.995 -40.875 57.375 C-40.215 58.035 -39.555 58.695 -38.875 59.375 C-37.9675 58.735625 -37.06 58.09625 -36.125 57.4375 C-33.36591779 55.68654398 -31.97696728 54.84626041 -28.875 54.375 C-26.92365551 54.89535853 -24.97247829 55.41639065 -23.0234375 55.9453125 C-18.10550589 56.92889882 -14.07803972 56.09682383 -9.75 53.5 C-8.80125 52.79875 -7.8525 52.0975 -6.875 51.375 C-4.88992052 50.34569953 -2.89385749 49.33636071 -0.875 48.375 C-3.25669403 46.35972043 -5.06764787 45.31078404 -8.0625 44.3125 C-8.990625 44.003125 -9.91875 43.69375 -10.875 43.375 C-11.205 42.715 -11.535 42.055 -11.875 41.375 C-8.12100202 40.1710663 -4.54282588 40.27622383 -0.625 40.3125 C1.26992187 40.32603516 1.26992187 40.32603516 3.203125 40.33984375 C4.16734375 40.35144531 5.1315625 40.36304688 6.125 40.375 C1.54703569 35.49199111 1.54703569 35.49199111 -4.74609375 34.03515625 C-10.97282876 34.10615523 -16.24958371 36.47417384 -21.9375 38.8125 Z M-66.875 83.375 C-67.19803187 86.89707552 -67.19803187 86.89707552 -65.75 90 C-63.7835388 91.52699297 -63.7835388 91.52699297 -60.9375 92.8125 C-57.875 94.375 -57.875 94.375 -55.9375 96.625 C-53.89675206 98.73064023 -53.89675206 98.73064023 -50.5 98.4375 C-46.23198703 97.18653068 -44.13758258 95.35991598 -40.875 92.375 C-38.91242311 90.97380094 -36.90431963 89.67956262 -34.875 88.375 C-35.205 87.055 -35.535 85.735 -35.875 84.375 C-36.205 85.035 -36.535 85.695 -36.875 86.375 C-38.48375 86.5915625 -38.48375 86.5915625 -40.125 86.8125 C-43.8414003 87.11156011 -43.8414003 87.11156011 -46.4375 89 C-48.875 90.375 -48.875 90.375 -52 90.1875 C-54.875 89.375 -54.875 89.375 -57.875 87.375 C-60.20699388 87.29594936 -62.54332622 87.28701231 -64.875 87.375 C-65.535 86.055 -66.195 84.735 -66.875 83.375 Z M-67.875 106.375 C-70.55031352 106.89021055 -73.15519844 107.13642092 -75.875 107.375 C-73.43371331 109.81628669 -72.80419186 109.627187 -69.45703125 109.63378906 C-68.54268311 109.64009338 -67.62833496 109.64639771 -66.6862793 109.65289307 C-65.69668213 109.6488446 -64.70708496 109.64479614 -63.6875 109.640625 C-62.67405518 109.64253845 -61.66061035 109.6444519 -60.61645508 109.64642334 C-58.47118888 109.64778591 -56.32591447 109.64408447 -54.18066406 109.63574219 C-50.88848428 109.62504382 -47.59685022 109.63563519 -44.3046875 109.6484375 C-42.22395712 109.64711592 -40.14322709 109.64455355 -38.0625 109.640625 C-36.57810425 109.64669769 -36.57810425 109.64669769 -35.0637207 109.65289307 C-33.69219849 109.64343658 -33.69219849 109.64343658 -32.29296875 109.63378906 C-31.48625732 109.63219788 -30.6795459 109.63060669 -29.84838867 109.62896729 C-27.64193564 109.5493125 -27.64193564 109.5493125 -25.875 107.375 C-26.44347656 107.33761719 -27.01195312 107.30023438 -27.59765625 107.26171875 C-31.5483013 106.92535331 -34.95777228 106.52595802 -38.5625 104.8125 C-42.52499249 103.09292779 -45.60907256 102.71565226 -49.78125 103.9296875 C-52.16393142 104.43645183 -53.80111587 104.18234668 -56.1875 103.75 C-60.87678026 103.13702219 -63.58587967 104.34741584 -67.875 106.375 Z M-63.875 117.375 C-62.19322357 119.62929606 -60.83744319 121.17078411 -58.015625 121.76953125 C-55.79007783 121.91377968 -53.60460998 121.92042499 -51.375 121.875 C-50.61574219 121.89046875 -49.85648438 121.9059375 -49.07421875 121.921875 C-45.19658206 121.89471117 -43.45091824 121.83715661 -40.34375 119.34375 C-39.8590625 118.6940625 -39.374375 118.044375 -38.875 117.375 C-47.02166136 115.56463081 -55.69780536 115.88823734 -63.875 117.375 Z " fill="#FEFEFE" transform="translate(179.875,75.625)"/>
<path d="M0 0 C11.76217215 0.67858685 22.34225626 6.15101945 31 14 C35.60385439 19.2872977 39.00825738 24.24194793 41 31 C41.33 31 41.66 31 42 31 C42.10251672 25.87416389 42.03590199 21.05002222 41 16 C46.61605747 18.41218327 50.38115443 23.25500099 53.4375 28.4375 C54.28272487 32.28796885 54.15390488 36.0754256 54 40 C54.65226563 40.09796875 55.30453125 40.1959375 55.9765625 40.296875 C64.51489385 41.75771045 69.31621892 44.85853402 74.8984375 51.4140625 C76 53 76 53 76 55 C74.7934375 54.7525 74.7934375 54.7525 73.5625 54.5 C69.34112648 53.90752652 65.25335455 53.91493291 61 54 C61.87011719 54.47566406 61.87011719 54.47566406 62.7578125 54.9609375 C70.36414665 59.50465526 74.73206066 65.39936696 77.375 73.875 C78 77 78 77 78 81 C75.13132769 79.61735163 72.43975968 78.07851447 69.75 76.375 C69.04359375 75.92898437 68.3371875 75.48296875 67.609375 75.0234375 C67.07828125 74.68570313 66.5471875 74.34796875 66 74 C66.15984375 74.54914063 66.3196875 75.09828125 66.484375 75.6640625 C67.74243412 81.36345153 67.67033615 87.14859539 65.6875 92.625 C64 95 64 95 61 96 C60.7834375 94.5459375 60.7834375 94.5459375 60.5625 93.0625 C60.32437659 90.13513227 60.32437659 90.13513227 59 89 C58.90203125 89.86882812 58.8040625 90.73765625 58.703125 91.6328125 C57.20817725 103.15422013 57.20817725 103.15422013 53 108 C52.46375 108.61875 51.9275 109.2375 51.375 109.875 C50 111 50 111 48 111 C45.91447382 106.75619673 45.90176083 103.49566956 46.125 98.8125 C46.22315591 92.11826724 45.46417153 86.79292898 42 81 C41.0011926 79.99880882 40.00143369 78.99856425 39 78 C39 77.34 39 76.68 39 76 C43.38889325 76.66498383 46.9811485 78.18757677 51 80 C46.52877244 73.65374152 41.42433252 71.08351 33.9375 69.25 C33.298125 69.1675 32.65875 69.085 32 69 C33 66 33 66 35.21484375 64.75390625 C37.02680627 63.96101017 38.83930524 63.16933887 40.65234375 62.37890625 C43.25942414 60.84762609 43.96354537 59.78954362 45 57 C44.43152344 57.27714844 43.86304688 57.55429687 43.27734375 57.83984375 C38.43946147 60.10936783 34.32801588 61.54655184 29 62 C29 61.34 29 60.68 29 60 C29.721875 59.649375 30.44375 59.29875 31.1875 58.9375 C35.20779495 56.16796348 37.03411982 52.40859087 39 48 C39 47.34 39 46.68 39 46 C38.401875 46.845625 37.80375 47.69125 37.1875 48.5625 C32.45250159 54.26077889 25.38060961 58.97045844 18 60 C18.28875 59.319375 18.5775 58.63875 18.875 57.9375 C21.08318598 52.17168105 22.36555152 47.21437585 22 41 C21.67 40.34 21.34 39.68 21 39 C20.89042969 39.67546875 20.78085938 40.3509375 20.66796875 41.046875 C20.50941406 41.93890625 20.35085937 42.8309375 20.1875 43.75 C20.03667969 44.63171875 19.88585937 45.5134375 19.73046875 46.421875 C18.93705743 49.22215024 17.97252282 50.87345147 16 53 C15.34 53 14.68 53 14 53 C13.01 47.06 13.01 47.06 12 41 C11.89042969 42.02480469 11.78085938 43.04960938 11.66796875 44.10546875 C11.50843255 45.46621867 11.3482416 46.82689194 11.1875 48.1875 C11.11724609 48.86103516 11.04699219 49.53457031 10.97460938 50.22851562 C10.45728439 54.47058052 9.62645913 57.59288047 7 61 C6.34 61 5.68 61 5 61 C4.97421875 60.3709375 4.9484375 59.741875 4.921875 59.09375 C4.20866811 48.33080959 -0.13714306 41.32762194 -8 34 C-13.8698037 29.45538439 -19.60583441 25.34439374 -27 24 C-26.32195312 24.31710938 -25.64390625 24.63421875 -24.9453125 24.9609375 C-14.91340547 29.99078562 -6.41551706 36.9650591 -1.7734375 47.41796875 C0.03034575 53.43968959 -0.14160105 58.88976924 -2.5 64.6875 C-2.995 65.450625 -3.49 66.21375 -4 67 C-4.66 67 -5.32 67 -6 67 C-6.350625 65.96875 -6.70125 64.9375 -7.0625 63.875 C-9.55295318 58.12600994 -14.1384988 54.58296813 -19.8125 52.125 C-27.51442529 49.65149707 -34.79723317 50.54871533 -42.2109375 53.56640625 C-54.36282326 59.81254361 -63.8607343 71.41831619 -68.5625 84.1875 C-69.0630998 85.78510797 -69.54646949 87.38839786 -70 89 C-70.495 90.485 -70.495 90.485 -71 92 C-71.66 92 -72.32 92 -73 92 C-77.48570592 82.7295411 -75.97951298 73.55836464 -73 64 C-69.76028613 56.68549073 -64.8338783 51.36086114 -59 46 C-58.34 45.34 -57.68 44.68 -57 44 C-69.32324226 51.60883463 -78.83995772 59.03753264 -84 73 C-83.54625 72.505 -83.0925 72.01 -82.625 71.5 C-81 70 -81 70 -79 70 C-79.76907659 74.48628009 -81.29002687 78.32947498 -83.0625 82.5 C-85.25596138 88.34923033 -85.06032965 93.96523216 -84.87304688 100.1171875 C-84.80716147 104.22533615 -85.16068858 107.30695119 -87 111 C-90.884765 109.70507833 -91.48712508 108.12174589 -93.625 104.6875 C-94.23601562 103.72199219 -94.84703125 102.75648437 -95.4765625 101.76171875 C-97.95685175 97.26539952 -98.20524174 93.35368946 -98.5625 88.25 C-98.68818359 86.49429688 -98.68818359 86.49429688 -98.81640625 84.703125 C-98.87699219 83.81109375 -98.93757813 82.9190625 -99 82 C-100.32 84.64 -101.64 87.28 -103 90 C-103.66 90 -104.32 90 -105 90 C-105.6727248 81.29942593 -104.61280192 75.44638025 -100 68 C-103.51195413 68 -105.76662247 69.01269837 -108.96484375 70.34375 C-111 71 -111 71 -115 71 C-109.59208149 59.08610846 -99.68544696 51.12770487 -88 46 C-86.515 45.505 -86.515 45.505 -85 45 C-85.79664062 44.82984375 -86.59328125 44.6596875 -87.4140625 44.484375 C-97.57093344 42.16139235 -103.79982222 38.47479922 -110 30 C-110 29.34 -110 28.68 -110 28 C-109.34515625 28.15597656 -108.6903125 28.31195312 -108.015625 28.47265625 C-95.09793377 31.22770057 -84.8490435 28.61636397 -72.61328125 24.47265625 C-65.5046856 22.13089525 -58.97020023 20.72873398 -51.4375 20.875 C-49.61025391 20.90207031 -49.61025391 20.90207031 -47.74609375 20.9296875 C-46.83988281 20.95289062 -45.93367188 20.97609375 -45 21 C-45 20.34 -45 19.68 -45 19 C-45.680625 18.95101563 -46.36125 18.90203125 -47.0625 18.8515625 C-55.74887003 18.18160311 -64.36411008 17.12880287 -73 16 C-73 15.34 -73 14.68 -73 14 C-52.19657964 5.84231359 -26.92398266 -1.75021988 -5 7 C-0.10587114 9.34393145 4.48738349 11.991589 9 15 C6.42965363 10.06999139 4.12091137 5.81565868 0 2 C0 1.34 0 0.68 0 0 Z " fill="#FEFEFE" transform="translate(148,0)"/>
<path d="M0 0 C1.73016911 1.62203354 3.36176742 3.286764 5 5 C5.62777344 5.60070312 6.25554687 6.20140625 6.90234375 6.8203125 C12.82091119 13.15920047 14.65273053 19.72016951 16.78540039 27.89648438 C20.36090251 41.52064976 26.26927011 53.27338634 34 65 C33.77183594 64.32453125 33.54367188 63.6490625 33.30859375 62.953125 C32.87740234 61.61507812 32.87740234 61.61507812 32.4375 60.25 C32.14746094 59.36828125 31.85742188 58.4865625 31.55859375 57.578125 C30.98302565 54.92165684 31.10751629 53.52968894 32 51 C32.54527344 51.51949219 33.09054688 52.03898437 33.65234375 52.57421875 C41.30472428 59.65103561 48.9087458 65.48972513 59.73828125 65.26953125 C68.90441163 64.17719447 75.90942987 58.45065458 83 53 C83.99 52.34 84.98 51.68 86 51 C85.343621 55.48525648 84.29925791 59.66914029 83 64 C91.58594067 52.58460161 96.6209112 39.85070147 100.375 26.1875 C103.11563406 16.29935708 106.71422873 10.18806936 114 3 C114.33 2.34 114.66 1.68 115 1 C115.66 1 116.32 1 117 1 C117.15855469 2.07636719 117.31710938 3.15273437 117.48046875 4.26171875 C120.18840825 22.74047078 120.18840825 22.74047078 131.42578125 36.92578125 C131.94527344 37.28027344 132.46476563 37.63476562 133 38 C130.98384687 50.71053063 110.75624617 67.21970242 101 75 C99.98808594 75.82628906 98.97617188 76.65257812 97.93359375 77.50390625 C89.6317056 84.21173713 81.00351589 90.27472505 72 96 C71.42378906 96.37237793 70.84757812 96.74475586 70.25390625 97.12841797 C68.63883665 98.16581111 67.00724595 99.17734779 65.375 100.1875 C64.45460938 100.75855469 63.53421875 101.32960938 62.5859375 101.91796875 C59.42073822 103.24237993 58.22052805 103.10967659 55 102 C34.33833945 92.1532113 16.3086349 76.41412738 0.1875 60.4375 C-0.60132568 59.65810059 -1.39015137 58.87870117 -2.20288086 58.07568359 C-17 43.19591641 -17 43.19591641 -17 38 C-15.390625 36.45703125 -15.390625 36.45703125 -13.25 34.8125 C-3.16976909 26.27897119 -2.07258609 12.38674978 0 0 Z " fill="#FEFEFE" transform="translate(70,187)"/>
<path d="M0 0 C0.78374855 2.27967912 1.13912556 3.57023203 0.38598633 5.89672852 C0.03818115 6.55084717 -0.30962402 7.20496582 -0.66796875 7.87890625 C-1.06024658 8.62551514 -1.45252441 9.37212402 -1.85668945 10.14135742 C-2.29585693 10.94033447 -2.73502441 11.73931152 -3.1875 12.5625 C-3.64020264 13.39950439 -4.09290527 14.23650879 -4.55932617 15.09887695 C-13.02725317 30.53563807 -22.51737603 44.65336341 -34 58 C-34.8146875 58.96808594 -35.629375 59.93617188 -36.46875 60.93359375 C-43.17810177 68.6942348 -50.78124624 75.39062312 -60 80 C-60.66 80 -61.32 80 -62 80 C-61.43457535 71.18717443 -60.29550414 61.84719804 -56 54 C-54.68 54.33 -53.36 54.66 -52 55 C-52.33 57.31 -52.66 59.62 -53 62 C-46.8333942 59.47541642 -42.46422084 53.29087259 -39.81640625 47.33984375 C-39.11983717 45.23680504 -38.50027453 43.1574339 -38 41 C-39.65 41 -41.3 41 -43 41 C-43 40.34 -43 39.68 -43 39 C-41.6706543 37.77905273 -41.6706543 37.77905273 -39.82421875 36.43359375 C-39.16099609 35.94826172 -38.49777344 35.46292969 -37.81445312 34.96289062 C-37.11255859 34.45951172 -36.41066406 33.95613281 -35.6875 33.4375 C-34.65206055 32.67663086 -34.65206055 32.67663086 -33.59570312 31.90039062 C-28.4075585 28.13585283 -28.4075585 28.13585283 -25 27 C-25.495 29.475 -25.495 29.475 -26 32 C-23.36 28.04 -20.72 24.08 -18 20 C-31.11912701 25.73961807 -42.47878783 34.77713401 -52.1796875 45.234375 C-54 47 -54 47 -56 47 C-55.09743502 43.96209836 -54.06580265 40.98424743 -53 38 C-52.62875 36.7934375 -52.62875 36.7934375 -52.25 35.5625 C-45.45905451 17.90604171 -15.96969033 7.75377248 0 0 Z " fill="#FEFEFE" transform="translate(256,74)"/>
<path d="M0 0 C12.37703138 5.6133233 24.35423294 11.64683757 35.95117188 18.74804688 C37.75147203 19.84813496 39.56974409 20.91869815 41.390625 21.984375 C49.29524897 27.03815098 52.79878505 33.32249281 56 42 C56.39415698 43.98890708 56.74926143 45.98797583 57 48 C53.41284945 44.99850669 49.97053598 42.01708995 46.75 38.625 C39.03268581 30.8217469 29.51696055 25.31488199 20 20 C20.92914926 22.78744777 21.99284858 24.73240419 23.5625 27.1875 C24.01753906 27.90292969 24.47257812 28.61835937 24.94140625 29.35546875 C25.29074219 29.89816406 25.64007812 30.44085938 26 31 C26 29.68 26 28.36 26 27 C30.62653621 28.53346586 34.02074101 31.04099075 37.8125 34 C38.7087207 34.67675781 38.7087207 34.67675781 39.62304688 35.3671875 C41.12347581 36.52637603 42.56724504 37.75813919 44 39 C44 39.66 44 40.32 44 41 C42.35 41 40.7 41 39 41 C41.03920226 49.79405973 45.91664036 57.5273972 53.5 62.625 C54.325 63.07875 55.15 63.5325 56 64 C55.484375 63.278125 54.96875 62.55625 54.4375 61.8125 C52.78557018 58.5804634 52.93648325 57.38391693 54 54 C54.99 54 55.98 54 57 54 C61.28015463 62.22787007 63.20339098 70.71181183 63 80 C56.33641626 78.0837382 52.19532956 74.44104468 47 70 C46.18144531 69.32839844 45.36289062 68.65679687 44.51953125 67.96484375 C37.85860117 62.29934678 32.607636 55.91080782 27.42529297 48.91992188 C26.48209301 47.64939696 25.53067755 46.38492623 24.57080078 45.12695312 C17.58725903 35.96061115 11.73190719 26.30552343 6.25 16.1875 C5.62891357 15.04764648 5.00782715 13.90779297 4.36791992 12.73339844 C3.7979126 11.65993164 3.22790527 10.58646484 2.640625 9.48046875 C2.13047852 8.52035889 1.62033203 7.56024902 1.09472656 6.57104492 C0 4 0 4 0 0 Z " fill="#FEFEFE" transform="translate(0,74)"/>
<path d="M0 0 C0 0.66 0 1.32 0 2 C-1.27875 1.938125 -2.5575 1.87625 -3.875 1.8125 C-12.84326619 1.85473673 -20.58017888 4.65182867 -27 11 C-30.85440212 15.84811517 -33.02408521 21.17625115 -35 27 C-35.99 26.67 -36.98 26.34 -38 26 C-40.17665067 21.05306666 -39.50705127 14.8724902 -37.8125 9.875 C-35.08373571 3.43208432 -31.2074339 -0.30859043 -24.96484375 -3.23828125 C-15.55525255 -6.8861347 -8.50805928 -4.97339582 0 0 Z " fill="#FEFEFE" transform="translate(131,59)"/>
</svg>
