<?xml version="1.0" encoding="UTF-8"?>
<!-- Generator: visioncortex VTracer 0.6.4 -->
<svg version="1.1" xmlns="http://www.w3.org/2000/svg" width="231" height="290">
<path d="M0 0 C1.44826172 0.85658203 1.44826172 0.85658203 2.92578125 1.73046875 C7.9117538 3.78947902 11.51991887 2.60090952 16.38671875 0.625 C17.47597656 0.08875 18.56523438 -0.4475 19.6875 -1 C28.92619813 -5.51621436 40.5066443 -7.24678594 50.5625 -3.875 C60.48609292 1.53786887 66.16004039 9.86488515 69.41796875 20.6484375 C70.29694889 24.19975322 70.93335969 27.77789122 71.52734375 31.38671875 C71.93200825 33.62407869 72.47100632 35.70264338 73.125 37.875 C77.17484317 53.81518271 71.64180808 69.22380899 64 83 C68.14670039 80.62370911 68.14670039 80.62370911 71 77 C71.66 77 72.32 77 73 77 C76.6176409 86.88821846 78.07372478 99.1472487 74.5625 109.25 C68.21674432 122.85440954 53.42506917 132.85698097 42 142 C41.41041504 142.47324707 40.82083008 142.94649414 40.21337891 143.43408203 C38.33361372 144.94013839 36.4489566 146.4398363 34.5625 147.9375 C33.67546387 148.64688721 33.67546387 148.64688721 32.77050781 149.37060547 C24.95256966 155.53759221 18.40522117 156.17981801 8.6875 156.1875 C7.88376953 156.19974609 7.08003906 156.21199219 6.25195312 156.22460938 C-2.46913154 156.24565785 -9.26372571 155.27743397 -16.1875 149.625 C-16.73011475 149.18728271 -17.27272949 148.74956543 -17.83178711 148.29858398 C-19.57086374 146.88429415 -21.28685525 145.44555596 -23 144 C-23.57975586 143.51644043 -24.15951172 143.03288086 -24.75683594 142.53466797 C-58.57202658 114.28057142 -58.57202658 114.28057142 -60 102 C-60.56242409 93.42303268 -58.72282095 85.35773259 -57 77 C-53.05860922 78.66751148 -50.2107188 81.22710649 -47 84 C-47.54269531 83.01902344 -48.08539063 82.03804688 -48.64453125 81.02734375 C-56.27909571 66.79606066 -60.31223072 52.71213519 -56.125 36.6875 C-54.89427134 31.78221297 -53.7687802 26.94156021 -53 21.9375 C-51.23785473 12.03663293 -45.74288655 4.49807143 -37.85546875 -1.6796875 C-26.09271338 -8.7734105 -11.59275644 -5.67645315 0 0 Z M-46 37 C-46.86625 37.8353125 -46.86625 37.8353125 -47.75 38.6875 C-48.1625 39.120625 -48.575 39.55375 -49 40 C-45.92681596 40.95470797 -43.72280732 40.95782789 -40.5625 40.4375 C-36.79932396 39.94071108 -34.41368337 40.12798009 -31 42 C-31 42.66 -31 43.32 -31 44 C-32.546875 44.12375 -32.546875 44.12375 -34.125 44.25 C-38.31919529 45.06177973 -40.65891337 46.39232263 -44 49 C-44 49.33 -44 49.66 -44 50 C-42.948125 50.2475 -41.89625 50.495 -40.8125 50.75 C-37.16734817 51.77358809 -34.87563933 53.52375502 -32 56 C-27.52745503 57.49084832 -23.47254497 57.49084832 -19 56 C-14.74106194 55.60565388 -12.72733846 55.48278154 -9.1875 58 C-8.465625 58.66 -7.74375 59.32 -7 60 C-6.34 60 -5.68 60 -5 60 C-4.9175 58.741875 -4.835 57.48375 -4.75 56.1875 C-4.27870461 52.24386654 -4.27870461 52.24386654 -2 50.25 C-1.34 49.8375 -0.68 49.425 0 49 C0.79623822 46.90584196 0.79623822 46.90584196 1 45 C-1.01885389 43.71006391 -1.01885389 43.71006391 -3.4375 44.6875 C-10.10370387 45.27225473 -16.0324877 41.9209208 -21.98828125 39.171875 C-23.02976318 38.69717773 -23.02976318 38.69717773 -24.09228516 38.21289062 C-25.45692451 37.58574805 -26.81517571 36.94445162 -28.16552734 36.28710938 C-34.1760204 33.5095445 -40.7858057 31.7858057 -46 37 Z M39.0625 38.9375 C32.28446919 42.32418619 26.66581484 44.88759802 19 45 C18.01 44.34 17.02 43.68 16 43 C16.42734438 47.23253528 16.42734438 47.23253528 18.4375 50.875 C19.94961724 52.19476824 19.94961724 52.19476824 22 52 C21.79375 53.11375 21.5875 54.2275 21.375 55.375 C21.189375 57.169375 21.189375 57.169375 21 59 C21.66 59.66 22.32 60.32 23 61 C23.680625 60.175 24.36125 59.35 25.0625 58.5 C28 56 28 56 31.625 55.625 C35 56 35 56 38 57 C43.26168778 57.39710851 46.49476337 56.76457702 51 54 C51.474375 53.46375 51.94875 52.9275 52.4375 52.375 C54.9434034 50.16980501 57.77332327 50.30440346 61 50 C55.22036921 45.13542699 55.22036921 45.13542699 48 44 C47.67 43.34 47.34 42.68 47 42 C51.59232335 40.17144572 54.97358268 39.87485538 59.875 40.375 C61.02742188 40.48585938 62.17984375 40.59671875 63.3671875 40.7109375 C64.67042969 40.85402344 64.67042969 40.85402344 66 41 C62.72534269 36.52091664 62.72534269 36.52091664 58 34 C50.55171271 33.24254706 45.64689951 35.63403331 39.0625 38.9375 Z M-9 78 C-9.33 79.98 -9.66 81.96 -10 84 C-6.79658655 86.65425686 -3.5789987 88.88930846 0 91 C0.598125 91.556875 1.19625 92.11375 1.8125 92.6875 C5.13539845 94.68123907 8.29464459 94.75775561 12 94 C13.95778155 92.92876104 15.59504958 91.71174885 17.328125 90.30859375 C19.68550258 88.46345008 22.30701787 87.28237244 25 86 C26.35618499 84.87465895 26.35618499 84.87465895 26.0625 81.9375 C26.041875 80.968125 26.02125 79.99875 26 79 C25.67 79.45375 25.34 79.9075 25 80.375 C22.52600693 82.38511937 20.12150198 82.80229155 17.046875 83.453125 C14.73863565 83.97655015 14.73863565 83.97655015 11.9375 85.75 C7.94929155 87.44710998 5.94905542 86.56472007 2 85 C1.01 84.34 0.02 83.68 -1 83 C-2.5159375 82.5359375 -2.5159375 82.5359375 -4.0625 82.0625 C-7 81 -7 81 -9 78 Z M-27 89 C-32.77205407 95.17986224 -35.1021071 100.69095342 -35 109.125 C-34.95875 110.13820313 -34.9175 111.15140625 -34.875 112.1953125 C-35.00234353 115.05258303 -35.52294349 116.58824366 -37 119 C-33.51121783 121.32585478 -31.7195068 121.16345547 -27.65625 120.609375 C-23.65659272 119.69180657 -20.02473658 118.11651406 -16.28515625 116.44921875 C-15.20105469 115.97097656 -14.11695312 115.49273437 -13 115 C-12.26112549 114.65888184 -11.52225098 114.31776367 -10.76098633 113.96630859 C-4.60434739 111.27500721 0.73058437 110.22937827 7.4375 110.25 C8.38254395 110.24887207 9.32758789 110.24774414 10.30126953 110.24658203 C19.06595725 110.51466457 26.05737704 113.20769627 33.8359375 117.0546875 C40.28079606 120.22298358 45.92057009 121.47488123 53 120 C53.2236068 117.0745356 53.2236068 117.0745356 52 115 C51.34 115 50.68 115 50 115 C50.350625 114.175 50.70125 113.35 51.0625 112.5 C52.8234853 105.92565486 51.31368054 100.6042269 48.1875 94.765625 C46.51462422 92.27832285 44.47701359 90.6513424 42 89 C41.47212891 90.08667969 41.47212891 90.08667969 40.93359375 91.1953125 C34.86847071 103.07218529 34.86847071 103.07218529 29 106 C25.21072839 106 22.44232401 105.15039016 18.875 103.9375 C10.15101078 101.82685745 1.87673004 102.54685326 -6.5625 105.44140625 C-9.5130745 106.11757957 -11.13018503 105.96407847 -14 105 C-18.30267601 102.23906247 -20.16780823 99.33864285 -22.3125 94.75 C-22.82425781 93.67234375 -23.33601563 92.5946875 -23.86328125 91.484375 C-24.23839844 90.66453125 -24.61351562 89.8446875 -25 89 C-25.66 89 -26.32 89 -27 89 Z M-1.875 122 C-3.02742188 122.37125 -4.17984375 122.7425 -5.3671875 123.125 C-6.67042969 123.558125 -6.67042969 123.558125 -8 124 C-6.39795381 126.18712805 -6.39795381 126.18712805 -4 128 C-1.07973859 127.82295797 -1.07973859 127.82295797 2 127 C4.16522484 126.9106582 6.33293887 126.86984033 8.5 126.875 C10.12421875 126.87113281 10.12421875 126.87113281 11.78125 126.8671875 C15 127 15 127 18.15625 127.7578125 C21.14041591 128.3440351 21.14041591 128.3440351 23.375 126.0625 C23.91125 125.381875 24.4475 124.70125 25 124 C22.79471728 123.32331051 20.58561391 122.65906502 18.375 122 C17.14523438 121.62875 15.91546875 121.2575 14.6484375 120.875 C8.46039814 119.3909306 4.13846655 120.03641909 -1.875 122 Z " fill="#FEFEFE" transform="translate(107,70)"/>
<path d="M0 0 C3.18419421 1.37154686 4.97112596 2.86169983 7.125 5.5625 C9.20903634 8.21025666 9.20903634 8.21025666 12 10 C12.73607858 12.24503968 13.37969288 14.47281633 14 16.75 C18.37375517 31.59832935 26.55275497 55.03516998 40 64 C39.6390625 63.01257813 39.278125 62.02515625 38.90625 61.0078125 C38.43733319 59.71360209 37.96859231 58.41932794 37.5 57.125 C37.26152344 56.47402344 37.02304688 55.82304687 36.77734375 55.15234375 C35 50.2265625 35 50.2265625 35 48 C38.25967835 49.42701475 40.35749802 51.19448734 42.875 53.6875 C49.58110848 59.75176972 59.47239223 65.96161265 68.80859375 66.25390625 C79.4351484 65.02266551 89.85066671 58.21180354 97.25390625 50.71875 C99 49 99 49 101 49 C100.54388099 50.70892588 100.08499109 52.41711229 99.625 54.125 C99.36976563 55.07632813 99.11453125 56.02765625 98.8515625 57.0078125 C97.98886225 60.03913539 97.01775148 63.01754566 96 66 C108.34175911 50.60384175 117.47170581 34.26825715 123.0625 15.25 C124.55782605 10.45556894 126.6162846 7.6611357 130.4140625 4.40234375 C132.25445717 2.89551595 132.25445717 2.89551595 134 0 C134.66 0 135.32 0 136 0 C136.29132813 0.95519531 136.58265625 1.91039062 136.8828125 2.89453125 C140.1196273 13.21857713 143.51854334 23.76581637 152 31 C144.32283956 47.90526239 125.66367777 62.25192954 111 73 C110.43071777 73.42474609 109.86143555 73.84949219 109.27490234 74.28710938 C100.53764747 80.80002223 91.48674528 86.63894001 82 92 C80.87722656 92.63679688 79.75445312 93.27359375 78.59765625 93.9296875 C69.74780565 98.67732058 69.74780565 98.67732058 64 97 C61.0284547 95.64048393 58.20699666 94.06507395 55.375 92.4375 C54.57884277 91.98640869 53.78268555 91.53531738 52.96240234 91.07055664 C38.24078861 82.64141355 24.78482062 72.57362756 11.9375 61.5234375 C10.17966457 60.01338206 8.41198822 58.51450343 6.625 57.0390625 C5.04740007 55.73499804 3.51610651 54.37507335 2 53 C2 52.34 2 51.68 2 51 C1.34 51 0.68 51 0 51 C-1.4453125 49.6015625 -1.4453125 49.6015625 -3.125 47.625 C-3.73730469 46.90570313 -4.34960938 46.18640625 -4.98046875 45.4453125 C-8.37249139 41.33814388 -11.70073693 37.18192306 -15 33 C-13.78502901 29.64299485 -12.49023479 27.15339037 -10.1875 24.4375 C-4.68928972 17.32612289 -1.8435838 8.71512341 0 0 Z " fill="#FEFEFE" transform="translate(47,192)"/>
<path d="M0 0 C2.3172857 6.95185711 2.56517584 12.76262691 1 20 C7.78664766 15.96237418 13.72969491 11.9178511 19 6 C22.1223896 8.5546824 23.0151331 11.13521426 24 15 C24.23046875 18.359375 24.23046875 18.359375 24.1875 21.75 C24.18105469 22.87921875 24.17460937 24.0084375 24.16796875 25.171875 C24 28 24 28 23 30 C23.60328125 29.72285156 24.2065625 29.44570313 24.828125 29.16015625 C25.62734375 28.79792969 26.4265625 28.43570312 27.25 28.0625 C28.43335938 27.52302734 28.43335938 27.52302734 29.640625 26.97265625 C31.75823698 26.09966721 33.76669362 25.48661492 36 25 C36.96070434 27.88211302 37.10581883 29.69850044 37.0625 32.6875 C37.05347656 33.49574219 37.04445313 34.30398437 37.03515625 35.13671875 C37.02355469 35.75160156 37.01195312 36.36648437 37 37 C37.763125 36.505 38.52625 36.01 39.3125 35.5 C42 34 42 34 45 34 C45.19477739 35.62414378 45.38059458 37.24936423 45.5625 38.875 C45.66691406 39.77992187 45.77132812 40.68484375 45.87890625 41.6171875 C46 44 46 44 45 46 C45.62648437 45.71125 46.25296875 45.4225 46.8984375 45.125 C47.71570313 44.75375 48.53296875 44.3825 49.375 44 C50.18710938 43.62875 50.99921875 43.2575 51.8359375 42.875 C54 42 54 42 56 42 C57.15158634 45.87331379 58.29524281 49.74892571 59.4375 53.625 C59.76298828 54.71941406 60.08847656 55.81382813 60.42382812 56.94140625 C60.73642578 58.00488281 61.04902344 59.06835938 61.37109375 60.1640625 C61.65911865 61.13811035 61.94714355 62.1121582 62.24389648 63.11572266 C64.87901177 73.16778983 65.89981828 84.56331294 61 94 C60.01 94.66 59.02 95.32 58 96 C57.84144531 95.10539062 57.68289062 94.21078125 57.51953125 93.2890625 C55.34267165 82.00787849 52.89967609 73.54577681 43.57421875 66.375 C43.05472656 65.92125 42.53523438 65.4675 42 65 C42 64.34 42 63.68 42 63 C42.94875 62.566875 43.8975 62.13375 44.875 61.6875 C48.20041937 60.20697799 48.20041937 60.20697799 50 57 C49.43152344 57.08378906 48.86304688 57.16757812 48.27734375 57.25390625 C43.23364455 57.91910197 38.99705931 57.9568837 34 57 C35.66666667 53.66666667 37.33333333 50.33333333 39 47 C38.67 46.67 38.34 46.34 38 46 C37.38125 46.5775 36.7625 47.155 36.125 47.75 C28.52255418 53.22376099 17.38683975 57 8 57 C8 56.34 8 55.68 8 55 C8.763125 54.62875 9.52625 54.2575 10.3125 53.875 C14.00396252 51.29956104 14.9378269 48.28323461 16 44 C16 43.01 16 42.02 16 41 C15.38125 41.680625 14.7625 42.36125 14.125 43.0625 C11.67781179 45.53749717 9.02044641 47.38808745 6.125 49.3125 C-0.01197639 53.51678681 -5.91552473 58.58853236 -8 66 C-10.65331153 65.02711911 -11.78269097 64.41047261 -13.125 61.875 C-14.19435474 58.36140584 -14.19353898 55.3543355 -14.125 51.6875 C-14.10695313 50.43324219 -14.08890625 49.17898437 -14.0703125 47.88671875 C-14.04710938 46.93410156 -14.02390625 45.98148438 -14 45 C-14.81642254 46.26831693 -15.62799105 47.53975931 -16.4375 48.8125 C-16.88996094 49.52019531 -17.34242187 50.22789063 -17.80859375 50.95703125 C-19.14086339 53.08134552 -19.14086339 53.08134552 -20 56 C-20.66 56 -21.32 56 -22 56 C-25.95375784 47.92058181 -26.44328376 40.8200674 -25 32 C-29.07727892 39.64252747 -30.16927902 45.36676998 -30 54 C-34.28493007 52.63422544 -36.43145705 50.79318655 -39.3125 47.375 C-40.00988281 46.55773438 -40.70726562 45.74046875 -41.42578125 44.8984375 C-41.94527344 44.27195313 -42.46476562 43.64546875 -43 43 C-41.93204565 47.50066475 -40.85961414 51.7494534 -39 56 C-46.30447319 54.74117922 -52.99223538 52.89148779 -58 47 C-57.34 49.64 -56.68 52.28 -56 55 C-55.34 55 -54.68 55 -54 55 C-54 55.66 -54 56.32 -54 57 C-59.31166864 58.32791716 -64.75881575 58.74706142 -70 57 C-66.52263974 60.78034623 -66.52263974 60.78034623 -62 63 C-63.09644386 65.69127129 -64.20313713 67.19764694 -66.3125 69.25 C-73.90503481 77.01910539 -75.7561209 85.67063475 -78 96 C-81.25140447 93.19196887 -82.73509013 90.36043008 -83.21777344 86.05957031 C-83.34350753 83.74336133 -83.37940686 81.44463313 -83.375 79.125 C-83.37411377 78.28509521 -83.37322754 77.44519043 -83.37231445 76.57983398 C-83.22259899 68.56131677 -81.40339602 61.64951852 -79 54 C-78.40033866 51.6916802 -77.8156868 49.3793799 -77.25 47.0625 C-77.00765625 46.08410156 -76.7653125 45.10570312 -76.515625 44.09765625 C-76.34546875 43.40542969 -76.1753125 42.71320312 -76 42 C-74.5410574 42.47730838 -73.08286504 42.95691042 -71.625 43.4375 C-70.81289062 43.70433594 -70.00078125 43.97117188 -69.1640625 44.24609375 C-67 45 -67 45 -65 46 C-65.04125 44.7625 -65.0825 43.525 -65.125 42.25 C-65.13658291 38.98362038 -64.8568702 36.7853053 -63 34 C-62.34 34 -61.68 34 -61 34 C-61 33.34 -61 32.68 -61 32 C-60.0925 32.309375 -59.185 32.61875 -58.25 32.9375 C-55.83105932 33.72830753 -53.46799921 34.40446106 -51 35 C-51.04640625 34.39414062 -51.0928125 33.78828125 -51.140625 33.1640625 C-51.43809301 26.25855509 -49.95864155 21.20786398 -47 15 C-42.63204596 15 -42.25341007 15.22762148 -39.25 18 C-38.63640625 18.556875 -38.0228125 19.11375 -37.390625 19.6875 C-36.70226562 20.3371875 -36.70226562 20.3371875 -36 21 C-35.46632812 20.34773438 -34.93265625 19.69546875 -34.3828125 19.0234375 C-29.12816816 12.85968515 -24.17182157 8.70057654 -17 5 C-15.96875 4.42894531 -14.9375 3.85789062 -13.875 3.26953125 C-4.93385736 -1.51880126 -4.93385736 -1.51880126 0 0 Z " fill="#FEFEFE" transform="translate(125,1)"/>
<path d="M0 0 C-3.81090048 21.655442 -20.21578008 52.50417354 -38 66 C-41.265625 67.234375 -41.265625 67.234375 -44 68 C-46.76490561 61.16905673 -46.22839544 54.18075456 -45 47 C-43.44921875 43.56640625 -43.44921875 43.56640625 -42 41 C-41.01 41.66 -40.02 42.32 -39 43 C-38.70703125 45.1640625 -38.70703125 45.1640625 -38.8125 47.625 C-38.83957031 48.44226563 -38.86664063 49.25953125 -38.89453125 50.1015625 C-38.92933594 50.72804687 -38.96414062 51.35453125 -39 52 C-33.18479977 45.70279119 -30.78265824 40.54535017 -30 32 C-30.66 32 -31.32 32 -32 32 C-30.4114658 27.71095765 -27.56872632 25.67654474 -24 23 C-23.34 23 -22.68 23 -22 23 C-21.67 24.32 -21.34 25.64 -21 27 C-19.35 23.37 -17.7 19.74 -16 16 C-25.50527231 20.47684215 -32.82919884 25.06769857 -39.92578125 32.875 C-40.61027344 33.57625 -41.29476562 34.2775 -42 35 C-42.66 35 -43.32 35 -44 35 C-44.34671602 30.12671371 -44.58645757 26.21983175 -42.4375 21.75 C-33.82123026 12.02908029 -13.53180408 0 0 0 Z " fill="#FEFEFE" transform="translate(231,81)"/>
<path d="M0 0 C6.76916347 2.16863941 13.39908245 4.61510335 20 7.25 C21.39992188 7.78560547 21.39992188 7.78560547 22.828125 8.33203125 C30.41059585 11.37137361 37.93448664 15.43782037 42.625 22.375 C44.36383591 26.95920375 43.98464375 30.28013161 43 35 C39.97943201 33.68531542 38.36956856 32.45925222 36.4375 29.8125 C31.20225579 23.43162983 23.4194563 19.40893938 16 16 C17.65 19.96 19.3 23.92 21 28 C21 26.35 21 24.7 21 23 C25.44562582 24.39719669 28.21482835 26.23182659 31 30 C30.73952628 31.92099372 30.46802511 33.84322954 30.078125 35.7421875 C29.90129618 40.85254054 33.2666125 46.1410634 36.671875 49.79296875 C37.11015625 50.19128906 37.5484375 50.58960938 38 51 C37.938125 49.72125 37.87625 48.4425 37.8125 47.125 C37.70703125 44.9453125 37.70703125 44.9453125 38 43 C38.99 42.34 39.98 41.68 41 41 C44.58035316 46.60403103 45.13898546 50.41241578 45.125 57.0625 C45.12886719 58.90521484 45.12886719 58.90521484 45.1328125 60.78515625 C45 64 45 64 44 67 C36.99521222 66.65830304 33.58131535 62.83521523 29.09375 57.90625 C17.8269783 44.49342655 0 18.09459546 0 0 Z " fill="#FEFEFE" transform="translate(0,81)"/>
<path d="M0 0 C0.66 0 1.32 0 2 0 C2.45439453 0.88751953 2.45439453 0.88751953 2.91796875 1.79296875 C5.49625956 6.65602187 8.01146698 10.23938315 12 14 C12 14.66 12 15.32 12 16 C3.96498906 20.07877462 3.96498906 20.07877462 -0.0625 19.75 C-0.701875 19.5025 -1.34125 19.255 -2 19 C-4.34802849 11.95591454 -2.81412376 6.56628878 0 0 Z " fill="#FEFEFE" transform="translate(79,165)"/>
<path d="M0 0 C0.66 0 1.32 0 2 0 C5.77013995 5.65520993 5.51701173 11.35838782 5 18 C4.67 18.66 4.34 19.32 4 20 C-0.97306516 19.50269348 -4.63799813 18.44697666 -9 16 C-7.15767888 12.09285522 -4.78691425 8.66904682 -2.33984375 5.12109375 C-0.85075698 2.95108832 -0.85075698 2.95108832 0 0 Z " fill="#FEFEFE" transform="translate(149,165)"/>
</svg>
