<?xml version="1.0" encoding="UTF-8"?>
<!-- Generator: visioncortex VTracer 0.6.4 -->
<svg version="1.1" xmlns="http://www.w3.org/2000/svg" width="188" height="290">
<path d="M0 0 C2.01208432 -0.01744832 4.02402292 -0.04970007 6.03591919 -0.08227539 C16.54838926 -0.11933074 26.31118884 0.92704174 35.4927063 6.41967773 C38.22360428 8.32014922 38.22360428 8.32014922 41.3052063 9.23217773 C40.7998938 8.6662793 40.2945813 8.10038086 39.7739563 7.51733398 C38.79942505 6.41711914 38.79942505 6.41711914 37.8052063 5.29467773 C37.1555188 4.5637793 36.5058313 3.83288086 35.8364563 3.07983398 C34.3052063 1.23217773 34.3052063 1.23217773 34.3052063 0.23217773 C44.55243973 -0.93228061 53.93632166 4.97552676 61.81692505 10.97436523 C66.47441416 15.20046996 70.30690458 20.23727257 72.3052063 26.23217773 C72.45495869 19.17566522 72.45495869 19.17566522 71.3052063 12.23217773 C76.92947339 14.61555549 81.60320431 19.73823057 84.2661438 25.20483398 C85.2848521 28.56361862 85.35249005 31.75682187 85.3052063 35.23217773 C85.95747192 35.33014648 86.60973755 35.42811523 87.2817688 35.52905273 C93.88781888 36.65929139 98.73211134 38.14446378 103.1802063 43.48217773 C103.5514563 44.05967773 103.9227063 44.63717773 104.3052063 45.23217773 C103.9752063 45.89217773 103.6452063 46.55217773 103.3052063 47.23217773 C102.3152063 46.90217773 101.3252063 46.57217773 100.3052063 46.23217773 C98.91080966 46.16552398 97.51350755 46.14679575 96.1177063 46.16967773 C94.8595813 46.19030273 93.6014563 46.21092773 92.3052063 46.23217773 C93.1714563 46.74780273 94.0377063 47.26342773 94.9302063 47.79467773 C99.5561445 50.89328717 103.56908871 54.76092582 105.1802063 60.16967773 C105.2214563 60.85030273 105.2627063 61.53092773 105.3052063 62.23217773 C105.9652063 62.23217773 106.6252063 62.23217773 107.3052063 62.23217773 C107.3052063 64.21217773 107.3052063 66.19217773 107.3052063 68.23217773 C106.1605188 67.76811523 106.1605188 67.76811523 104.9927063 67.29467773 C103.11730953 66.5532418 101.21835978 65.86989556 99.3052063 65.23217773 C100.2952063 66.56249023 100.2952063 66.56249023 101.3052063 67.91967773 C104.44199569 73.26547373 103.62940242 79.24355499 103.3052063 85.23217773 C102.6452063 85.23217773 101.9852063 85.23217773 101.3052063 85.23217773 C100.3152063 84.24217773 99.3252063 83.25217773 98.3052063 82.23217773 C98.3052063 86.52217773 98.3052063 90.81217773 98.3052063 95.23217773 C97.3152063 95.23217773 96.3252063 95.23217773 95.3052063 95.23217773 C95.2845813 96.03655273 95.2639563 96.84092773 95.2427063 97.66967773 C94.06766884 102.13482009 91.84017686 104.69171061 88.8989563 108.18139648 C87.11868329 110.23766854 87.11868329 110.23766854 86.3052063 113.23217773 C85.3152063 113.23217773 84.3252063 113.23217773 83.3052063 113.23217773 C83.15825317 111.92506836 83.15825317 111.92506836 83.0083313 110.59155273 C82.08707305 103.25325427 80.68262057 96.59680967 78.1098938 89.65795898 C77.3052063 87.23217773 77.3052063 87.23217773 77.3052063 84.23217773 C77.9445813 84.56217773 78.5839563 84.89217773 79.2427063 85.23217773 C81.07315197 86.30488999 81.07315197 86.30488999 82.3052063 86.23217773 C78.90997265 81.53018749 75.46529606 77.26991191 71.3052063 73.23217773 C71.3052063 72.90217773 71.3052063 72.57217773 71.3052063 72.23217773 C74.2752063 72.23217773 77.2452063 72.23217773 80.3052063 72.23217773 C75.32445717 69.61073082 70.76228279 67.59644686 65.3052063 66.23217773 C65.3052063 65.57217773 65.3052063 64.91217773 65.3052063 64.23217773 C67.9452063 62.91217773 70.5852063 61.59217773 73.3052063 60.23217773 C68.33603994 60.74622943 64.01494279 61.46602655 59.3052063 63.23217773 C59.3052063 62.24217773 59.3052063 61.25217773 59.3052063 60.23217773 C60.77554374 58.99055945 62.2509811 57.75351956 63.77005005 56.57202148 C65.85038105 54.75636363 67.05150458 52.66993108 68.3052063 50.23217773 C67.9752063 49.90217773 67.6452063 49.57217773 67.3052063 49.23217773 C66.58204224 49.88186523 66.58204224 49.88186523 65.8442688 50.54467773 C65.21262817 51.10155273 64.58098755 51.65842773 63.9302063 52.23217773 C63.30372192 52.78905273 62.67723755 53.34592773 62.0317688 53.91967773 C60.3052063 55.23217773 60.3052063 55.23217773 58.3052063 55.23217773 C58.3052063 50.94217773 58.3052063 46.65217773 58.3052063 42.23217773 C57.9545813 43.69655273 57.6039563 45.16092773 57.2427063 46.66967773 C55.52845206 52.44704418 52.57024567 56.97741556 48.3052063 61.23217773 C47.6452063 61.23217773 46.9852063 61.23217773 46.3052063 61.23217773 C46.24462036 60.32854492 46.18403442 59.42491211 46.12161255 58.49389648 C46.03782349 57.3144043 45.95403442 56.13491211 45.8677063 54.91967773 C45.78649536 53.74791992 45.70528442 52.57616211 45.62161255 51.36889648 C45.41846919 48.20626816 45.41846919 48.20626816 44.3052063 45.23217773 C44.15825317 46.1615918 44.01130005 47.09100586 43.8598938 48.04858398 C42.45135115 55.81175871 41.26742075 60.90424141 35.3052063 66.23217773 C34.6452063 66.23217773 33.9852063 66.23217773 33.3052063 66.23217773 C33.35161255 65.55413086 33.3980188 64.87608398 33.4458313 64.17749023 C33.75345162 56.2452804 32.84389316 49.50358093 27.64505005 43.22827148 C22.85455076 38.67385429 15.14546107 33.23217773 8.3052063 33.23217773 C9.04963989 33.72524414 9.04963989 33.72524414 9.80911255 34.22827148 C17.12681232 39.35204988 23.01673367 45.4052119 25.3052063 54.23217773 C25.5708313 57.73999023 25.5708313 57.73999023 25.5552063 61.35717773 C25.56294067 63.15541992 25.56294067 63.15541992 25.5708313 64.98999023 C25.3229267 68.0158846 24.89540302 69.69543535 23.3052063 72.23217773 C24.02063599 72.05041992 24.73606567 71.86866211 25.47317505 71.68139648 C27.58509694 71.14863482 29.69851191 70.62177282 31.8130188 70.09936523 C34.08232103 69.53584723 36.34824322 68.95847301 38.6098938 68.36499023 C52.79232547 64.79387435 52.79232547 64.79387435 59.3052063 66.23217773 C62.47658268 68.15709275 64.89077007 70.4305206 67.3052063 73.23217773 C68.02329468 74.06519409 68.02329468 74.06519409 68.75588989 74.91503906 C70.74439929 77.8890294 71.66481921 80.81975664 72.7505188 84.22827148 C72.96586273 84.89883072 73.18120667 85.56938995 73.40307617 86.26026917 C73.85537682 87.67365474 74.30396678 89.08823254 74.74905396 90.50390625 C75.42761824 92.66144882 76.11731289 94.81517495 76.80911255 96.96850586 C81.22780289 110.82456267 84.97661686 127.57512762 78.84817505 141.57983398 C76.11227347 146.28281418 72.93340679 150.64168979 69.64505005 154.97045898 C67.4653333 157.88693221 65.83328737 160.9205004 64.3052063 164.23217773 C68.96779526 159.74253459 68.96779526 159.74253459 73.1177063 154.79467773 C73.5095813 154.27905273 73.9014563 153.76342773 74.3052063 153.23217773 C74.9652063 153.23217773 75.6252063 153.23217773 76.3052063 153.23217773 C75.82883541 157.52143039 75.33169821 161.80763198 74.81594849 166.09228516 C74.6436813 167.5473622 74.47690976 169.0031016 74.31594849 170.45947266 C73.02669047 182.07473242 70.48576096 189.18231112 62.6802063 198.04467773 C62.12824585 198.67559326 61.5762854 199.30650879 61.00759888 199.95654297 C56.17290721 205.40243386 51.12140107 210.62618863 45.9927063 215.79467773 C45.25262329 216.54402588 44.51254028 217.29337402 43.75003052 218.06542969 C33.67338642 228.08460243 27.76547007 231.42022325 13.4927063 231.48217773 C11.728302 231.51311523 11.728302 231.51311523 9.92825317 231.54467773 C2.92080731 231.57636771 -2.02531802 231.38636534 -7.5307312 226.65405273 C-8.03862183 226.10233398 -8.54651245 225.55061523 -9.0697937 224.98217773 C-11.45395478 222.48324304 -13.87691475 220.15841073 -16.5072937 217.91967773 C-25.15139463 210.4270111 -32.57453465 202.16222434 -39.6947937 193.23217773 C-40.55846558 192.42264648 -41.42213745 191.61311523 -42.3119812 190.77905273 C-46.33743972 185.95871901 -46.29758454 179.22937372 -47.0072937 173.23217773 C-47.17551636 171.97405273 -47.34373901 170.71592773 -47.51705933 169.41967773 C-48.2226014 163.98268415 -48.78727588 158.72117576 -48.6947937 153.23217773 C-44.36069904 156.41901205 -41.0757975 160.0959669 -37.6947937 164.23217773 C-40.25612666 159.36693221 -43.00766083 154.74085879 -46.11520386 150.20068359 C-54.86437548 137.26488971 -56.04930885 124.8890196 -53.41964722 109.66577148 C-52.21798629 103.97356559 -50.48966661 98.46313146 -48.65597534 92.94897461 C-48.00543681 90.97654765 -47.38610291 88.9959313 -46.76705933 87.01342773 C-43.87847011 78.06741441 -40.63633799 71.47170485 -32.64401245 66.23217773 C-18.90339403 61.57310712 1.5379677 70.09659187 14.3052063 75.23217773 C15.61764313 70.38462879 15.9164519 66.14741396 14.3677063 61.29467773 C7.72608699 51.43287936 -1.89702143 47.01729146 -13.0697937 43.91967773 C-16.40320392 43.28747924 -19.3192637 43.17988079 -22.6947937 43.23217773 C-21.81178589 43.62147461 -20.92877808 44.01077148 -20.01901245 44.41186523 C-9.31860455 49.32632629 -0.75481044 55.56938984 6.3052063 65.23217773 C6.3052063 65.89217773 6.3052063 66.55217773 6.3052063 67.23217773 C4.05335248 66.10625082 1.80460912 64.97617433 -0.4369812 63.82983398 C-15.51001119 56.4436734 -31.31757726 53.71432492 -47.6947937 58.23217773 C-47.00772339 58.35334961 -46.32065308 58.47452148 -45.61276245 58.59936523 C-44.71170776 58.76694336 -43.81065308 58.93452148 -42.8822937 59.10717773 C-41.98897339 59.26959961 -41.09565308 59.43202148 -40.17526245 59.59936523 C-37.6947937 60.23217773 -37.6947937 60.23217773 -34.6947937 62.23217773 C-36.19431676 65.23122386 -38.43133296 65.47574376 -41.5072937 66.66967773 C-45.34559373 68.16105131 -48.51735805 69.5932905 -51.6947937 72.23217773 C-49.3847937 72.23217773 -47.0747937 72.23217773 -44.6947937 72.23217773 C-46.25749075 76.45145977 -49.31527465 78.41591186 -52.6947937 81.23217773 C-54.06733958 83.38198271 -54.06733958 83.38198271 -54.6947937 85.23217773 C-52.2197937 84.73717773 -52.2197937 84.73717773 -49.6947937 84.23217773 C-50.1525656 85.91983012 -50.6110426 87.60729126 -51.0697937 89.29467773 C-51.47971558 90.81254883 -51.47971558 90.81254883 -51.8979187 92.36108398 C-52.4911613 94.49850216 -53.14099848 96.62037038 -53.8197937 98.73217773 C-55.01803441 103.52514056 -55.356761 108.31291234 -55.6947937 113.23217773 C-56.6847937 113.23217773 -57.6747937 113.23217773 -58.6947937 113.23217773 C-60.36935905 111.22031134 -61.81313873 109.27458814 -63.2572937 107.10717773 C-63.85574097 106.2525293 -63.85574097 106.2525293 -64.46627808 105.38061523 C-67.8975732 100.33964744 -69.76359508 95.47536257 -70.3197937 89.35717773 C-70.43194214 88.18541992 -70.43194214 88.18541992 -70.5463562 86.98999023 C-70.59534058 86.40991211 -70.64432495 85.82983398 -70.6947937 85.23217773 C-71.3547937 86.22217773 -72.0147937 87.21217773 -72.6947937 88.23217773 C-73.3547937 88.23217773 -74.0147937 88.23217773 -74.6947937 88.23217773 C-76.93071025 81.52442808 -75.32284086 76.47378974 -72.6947937 70.23217773 C-73.2929187 70.74780273 -73.8910437 71.26342773 -74.5072937 71.79467773 C-75.2291687 72.26905273 -75.9510437 72.74342773 -76.6947937 73.23217773 C-77.6847937 72.90217773 -78.6747937 72.57217773 -79.6947937 72.23217773 C-79.31676832 62.66813559 -76.7161534 57.87400447 -69.6947937 51.23217773 C-69.1997937 50.73717773 -69.1997937 50.73717773 -68.6947937 50.23217773 C-72.3247937 49.57217773 -75.9547937 48.91217773 -79.6947937 48.23217773 C-78.05022351 46.53777208 -76.38749284 44.87773842 -74.6947937 43.23217773 C-73.91555542 42.45874023 -73.91555542 42.45874023 -73.12057495 41.66967773 C-68.72769236 37.57374991 -64.48397603 35.72870106 -58.6947937 34.23217773 C-59.6022937 33.69592773 -60.5097937 33.15967773 -61.4447937 32.60717773 C-64.81311004 30.3642941 -66.72631871 27.79057484 -68.6947937 24.23217773 C-68.6947937 23.24217773 -68.6947937 22.25217773 -68.6947937 21.23217773 C-68.02577026 21.26698242 -67.35674683 21.30178711 -66.66744995 21.33764648 C-55.00240142 21.66645993 -43.93888657 19.22432523 -32.6322937 16.60717773 C-25.02700021 14.91612877 -17.45602436 14.52448382 -9.6947937 14.23217773 C-10.5404187 13.92924805 -11.3860437 13.62631836 -12.2572937 13.31420898 C-18.93383495 10.84844091 -24.82407314 8.26110361 -30.6947937 4.23217773 C-30.3647937 3.24217773 -30.0347937 2.25217773 -29.6947937 1.23217773 C-19.81255499 0.33524845 -9.91924147 0.07377186 0 0 Z M42.3052063 40.23217773 C43.3052063 42.23217773 43.3052063 42.23217773 43.3052063 42.23217773 Z M-30.6947937 41.23217773 C-30.6947937 41.56217773 -30.6947937 41.89217773 -30.6947937 42.23217773 C-29.0447937 42.23217773 -27.3947937 42.23217773 -25.6947937 42.23217773 C-25.6947937 41.90217773 -25.6947937 41.57217773 -25.6947937 41.23217773 C-27.3447937 41.23217773 -28.9947937 41.23217773 -30.6947937 41.23217773 Z M-44.6947937 112.23217773 C-45.0247937 112.89217773 -45.3547937 113.55217773 -45.6947937 114.23217773 C-44.62551636 114.28825195 -44.62551636 114.28825195 -43.53463745 114.34545898 C-37.62159566 114.75133399 -32.92812902 115.38797376 -27.6947937 118.23217773 C-27.3647937 118.89217773 -27.0347937 119.55217773 -26.6947937 120.23217773 C-27.7054187 120.17030273 -28.7160437 120.10842773 -29.7572937 120.04467773 C-34.24978742 120.25860601 -36.70565332 121.27831306 -40.6947937 123.23217773 C-37.84203233 126.16418247 -35.04399586 128.87533177 -31.6947937 131.23217773 C-31.0347937 130.90217773 -30.3747937 130.57217773 -29.6947937 130.23217773 C-29.17530151 130.72202148 -28.65580933 131.21186523 -28.12057495 131.71655273 C-24.89135227 133.7341669 -22.66505757 133.56414445 -18.8822937 133.48217773 C-17.63705933 133.46026367 -16.39182495 133.43834961 -15.1088562 133.41577148 C-11.59091687 133.29441698 -11.59091687 133.29441698 -7.7572937 132.54467773 C-3.57950612 132.11837288 -1.40147629 133.34101315 2.3052063 135.23217773 C2.50661106 131.60689206 2.16297395 129.36716065 0.3052063 126.23217773 C1.6252063 125.90217773 2.9452063 125.57217773 4.3052063 125.23217773 C4.6352063 123.58217773 4.9652063 121.93217773 5.3052063 120.23217773 C4.3152063 120.23217773 3.3252063 120.23217773 2.3052063 120.23217773 C-6.04987614 118.70911583 -13.8991636 115.80099388 -21.75534058 112.65771484 C-29.93111995 109.48711191 -36.78026271 107.78025405 -44.6947937 112.23217773 Z M55.05130005 110.87670898 C54.03100708 111.22411133 53.01071411 111.57151367 51.95950317 111.92944336 C50.89796021 112.2974707 49.83641724 112.66549805 48.7427063 113.04467773 C27.88205983 120.23217773 27.88205983 120.23217773 22.3052063 120.23217773 C22.6352063 121.88217773 22.9652063 123.53217773 23.3052063 125.23217773 C24.2952063 125.56217773 25.2852063 125.89217773 26.3052063 126.23217773 C25.9752063 128.87217773 25.6452063 131.51217773 25.3052063 134.23217773 C26.4189563 133.86092773 27.5327063 133.48967773 28.6802063 133.10717773 C32.20776371 132.20665692 34.64972114 132.32615992 38.1802063 133.16967773 C45.82212625 134.96295036 52.52253118 134.23551304 59.41067505 130.41967773 C62.48682566 128.49153385 65.40051677 126.41069488 68.3052063 124.23217773 C67.3152063 123.57217773 66.3252063 122.91217773 65.3052063 122.23217773 C64.7483313 121.86092773 64.1914563 121.48967773 63.6177063 121.10717773 C60.14173048 119.79194364 57.0080147 120.10875079 53.3052063 120.23217773 C56.34867222 116.70816457 59.6285392 115.47202485 64.19973755 114.81811523 C65.16266724 114.74850586 66.12559692 114.67889648 67.1177063 114.60717773 C68.09352661 114.53241211 69.06934692 114.45764648 70.07473755 114.38061523 C71.17881958 114.30713867 71.17881958 114.30713867 72.3052063 114.23217773 C69.80758531 111.58976713 67.80687219 110.34246204 64.3052063 109.23217773 C60.55922125 109.23217773 58.51664523 109.67905687 55.05130005 110.87670898 Z M-2.6947937 163.23217773 C-3.11349923 165.56289653 -3.11349923 165.56289653 -2.6947937 168.23217773 C-0.62063706 170.26214444 -0.62063706 170.26214444 2.3052063 172.23217773 C3.62014382 173.47961333 4.93248108 174.72979355 6.2427063 175.98217773 C8.73572689 178.13502916 10.10456492 179.17365733 13.3052063 180.10717773 C17.98755549 178.74149255 20.842518 175.55266118 24.3052063 172.23217773 C25.96172442 170.88625676 27.62326698 169.54619283 29.3052063 168.23217773 C28.9752063 167.57217773 28.6452063 166.91217773 28.3052063 166.23217773 C23.46724805 166.58005419 23.46724805 166.58005419 19.3052063 168.79467773 C16.2683339 170.97742977 13.947831 170.61561191 10.3052063 170.23217773 C8.63853963 169.23217773 6.97187297 168.23217773 5.3052063 167.23217773 C1.59626722 166.98117907 1.59626722 166.98117907 -1.6947937 167.23217773 C-2.0247937 165.91217773 -2.3547937 164.59217773 -2.6947937 163.23217773 Z M-4.39694214 187.48925781 C-6.81034825 188.26953775 -9.20157069 188.77688635 -11.6947937 189.23217773 C-11.6947937 189.56217773 -11.6947937 189.89217773 -11.6947937 190.23217773 C5.1352063 190.23217773 21.9652063 190.23217773 39.3052063 190.23217773 C38.8102063 189.24217773 38.8102063 189.24217773 38.3052063 188.23217773 C36.41025444 187.97523511 34.51253781 187.72400931 32.60598755 187.57592773 C30.3052063 187.23217773 30.3052063 187.23217773 27.67630005 186.22045898 C23.09385086 184.87705268 18.80529791 184.90278552 14.0552063 184.91967773 C13.16446411 184.90356445 12.27372192 184.88745117 11.35598755 184.87084961 C5.7123053 184.86675405 0.9461898 185.66459719 -4.39694214 187.48925781 Z M0.3052063 200.23217773 C2.00343945 202.55801879 3.37062747 204.04339281 6.2583313 204.62670898 C8.61861339 204.77113184 10.94107302 204.77749658 13.3052063 204.73217773 C14.51563599 204.75538086 14.51563599 204.75538086 15.7505188 204.77905273 C20.70148225 204.74754235 20.70148225 204.74754235 24.8677063 202.20092773 C25.3420813 201.55124023 25.8164563 200.90155273 26.3052063 200.23217773 C22.11647006 199.21916283 18.1701474 199.09851219 13.8677063 199.10717773 C12.59024536 199.10459961 11.31278442 199.10202148 9.99661255 199.09936523 C6.6659726 199.21919778 3.57156173 199.59607142 0.3052063 200.23217773 Z " fill="#FFFFFF" transform="translate(80.69479370117188,-0.232177734375)"/>
<path d="M0 0 C0.66 0 1.32 0 2 0 C2.0501123 0.55349121 2.10022461 1.10698242 2.15185547 1.67724609 C2.81388785 18.41814356 2.81388785 18.41814356 8.25 33.8125 C10 37 10 37 9.328125 39.41015625 C2.7306852 52.27516386 -9.64939274 63.36656325 -21 72 C-22.03157227 72.79543213 -22.03157227 72.79543213 -23.08398438 73.60693359 C-31.341323 79.95232621 -39.68146762 86.12479835 -48.6875 91.375 C-49.30971436 91.75011719 -49.93192871 92.12523437 -50.57299805 92.51171875 C-55.37567996 95.19072182 -58.65123866 95.57781465 -64 95 C-87.1629293 85.67283504 -110.91897374 63.98610341 -126.25 44.6875 C-127.01828125 43.72199219 -127.7865625 42.75648438 -128.578125 41.76171875 C-130 39 -130 39 -129.421875 36.45703125 C-128 34 -128 34 -126.4765625 31.8359375 C-124.27864239 27.61453538 -123.94769837 23.31071395 -123.375 18.625 C-123.25382812 17.70460937 -123.13265625 16.78421875 -123.0078125 15.8359375 C-122.77262538 14.0464703 -122.54166232 12.25644161 -122.31542969 10.46582031 C-121.91111589 7.30516292 -121.46034538 4.15293158 -121 1 C-117.06413804 2.31195399 -116.0362299 4.1961314 -113.5625 7.5 C-112.80066406 8.5003125 -112.03882812 9.500625 -111.25390625 10.53125 C-108.56284589 14.42611518 -106.79628501 18.63702623 -105 23 C-104.66105713 23.81726563 -104.32211426 24.63453125 -103.97290039 25.4765625 C-103.26592421 27.18447243 -102.55938884 28.8925649 -101.85327148 30.60083008 C-97.95061574 39.97186736 -93.71948705 48.5999904 -88 57 C-88 53.38970831 -88.96092582 50.44193324 -90 47 C-86.66034485 48.43022759 -84.72987793 50.18902452 -82.3125 52.875 C-76.19660351 59.18559731 -68.60878149 62.11635124 -59.875 62.3125 C-50.48900285 62.22897611 -44.87846523 59.03962801 -38 53 C-37.34 53 -36.68 53 -36 53 C-35.62875 52.071875 -35.62875 52.071875 -35.25 51.125 C-33.79371361 48.64931313 -32.62187494 48.04874998 -30 47 C-30.66666667 50.33333333 -31.33333333 53.66666667 -32 57 C-24.22237514 46.84333695 -18.72857567 34.39049108 -14.6875 22.3125 C-11.73541098 14.20995779 -6.07971662 6.14387622 0 0 Z M-86 59 C-85 61 -85 61 -85 61 Z " fill="#FFFFFF" transform="translate(154,195)"/>
<path d="M0 0 C3.94106157 0.73170445 6.54252154 2.33598984 9.125 5.39453125 C10.92904458 8.94559602 12.30359512 12.49285806 13.125 16.39453125 C12.795 17.38453125 12.465 18.37453125 12.125 19.39453125 C11.44953125 18.84023437 10.7740625 18.2859375 10.078125 17.71484375 C9.18609375 16.99039063 8.2940625 16.2659375 7.375 15.51953125 C6.49328125 14.80023438 5.6115625 14.0809375 4.703125 13.33984375 C2.54323076 11.71010537 0.585234 10.4866912 -1.875 9.39453125 C-1.545 12.03453125 -1.215 14.67453125 -0.875 17.39453125 C-0.545 16.73453125 -0.215 16.07453125 0.125 15.39453125 C2 15.70703125 2 15.70703125 4.125 16.39453125 C6.125 19.39453125 6.125 19.39453125 5.77734375 22.06640625 C5.54144531 23.0821875 5.30554687 24.09796875 5.0625 25.14453125 C4.01422913 30.81752657 3.90736402 33.56807728 7.125 38.39453125 C9.0573333 40.03334556 10.89058476 41.15318945 13.125 42.39453125 C12.444375 41.50765625 11.76375 40.62078125 11.0625 39.70703125 C9.125 36.39453125 9.125 36.39453125 9.25 33.70703125 C10.125 31.39453125 10.125 31.39453125 12.125 28.39453125 C12.785 28.39453125 13.445 28.39453125 14.125 28.39453125 C14.31835938 29.13058594 14.51171875 29.86664063 14.7109375 30.625 C15.10152344 32.08873047 15.10152344 32.08873047 15.5 33.58203125 C15.75523438 34.54496094 16.01046875 35.50789063 16.2734375 36.5 C17.04560793 39.35509016 17.04560793 39.35509016 18.1875 41.80078125 C19.38997089 45.12761737 19.55229743 48.18133544 19.75 51.70703125 C19.82476563 52.96128906 19.89953125 54.21554688 19.9765625 55.5078125 C20.05003906 56.93673828 20.05003906 56.93673828 20.125 58.39453125 C11.49077249 57.13864361 6.4933117 52.68085976 1.17578125 45.9140625 C-5.97142459 35.4180574 -9.29483541 25.28835491 -9.375 12.70703125 C-9.38136475 11.83312744 -9.38772949 10.95922363 -9.39428711 10.05883789 C-9.26965385 3.92170368 -9.26965385 3.92170368 -7.58007812 1.66479492 C-5.18029424 -0.12301659 -2.92533277 -0.14519115 0 0 Z " fill="#FFFFFF" transform="translate(8.875,104.60546875)"/>
<path d="M0 0 C2.1113897 1.54881448 2.88333513 2.45647894 3.43579102 5.03027344 C3.51111582 7.60589565 3.56928864 10.17303116 3.5625 12.75 C3.56008301 13.69069336 3.55766602 14.63138672 3.55517578 15.60058594 C3.17311241 30.2688228 -3.60692461 43.45560439 -14.19921875 53.5546875 C-17.01616997 55.81558111 -19.54264909 56.93619972 -23 58 C-23.99 57.67 -24.98 57.34 -26 57 C-24.93765841 46.7095568 -22.54686801 37.66589221 -19 28 C-16 29 -16 29 -15 31 C-14.74202425 34.95562822 -14.90559811 37.59659693 -17 41 C-13.9174542 40.10768411 -12.3702836 39.61713933 -10.6875 36.8125 C-9.47374556 31.84714093 -9.72375954 27.69901002 -11.25 22.875 C-12 19 -12 19 -10.125 16 C-9.42375 15.34 -8.7225 14.68 -8 14 C-6.68 14.33 -5.36 14.66 -4 15 C-4 13.35 -4 11.7 -4 10 C-8.403606 11.33442606 -11.14241507 13.69297007 -14.44921875 16.7578125 C-16 18 -16 18 -18 18 C-17.50502584 10.82287468 -15.79277419 6.94792831 -10.75 1.625 C-6.8245545 -0.69458143 -4.52519552 -0.51090917 0 0 Z " fill="#FFFFFF" transform="translate(185,105)"/>
<path d="" fill="#FFFFFF" transform="translate(0,0)"/>
</svg>
