<?xml version="1.0" encoding="UTF-8"?>
<!-- Generator: visioncortex VTracer 0.6.4 -->
<svg version="1.1" xmlns="http://www.w3.org/2000/svg" width="238" height="290">
<path d="M0 0 C3.99839931 2.12887747 7.80137158 4.27234632 11.390625 7.0390625 C13.98259712 8.83733201 13.98259712 8.83733201 16.890625 8.1640625 C20.39562561 6.37719944 23.54158793 4.29218048 26.77734375 2.0625 C36.02743462 -4.06234794 44.95528802 -6.52414986 56.078125 -5.4609375 C62.51494646 -3.78821087 67.66029634 0.89674874 71.078125 6.5390625 C70.078125 9.5390625 70.078125 9.5390625 68.015625 10.7265625 C67.37625 10.9946875 66.736875 11.2628125 66.078125 11.5390625 C67.00625 11.8071875 67.934375 12.0753125 68.890625 12.3515625 C71.97497675 13.50063472 73.14460653 13.99525944 75.078125 16.5390625 C75.4140625 18.88671875 75.4140625 18.88671875 75.453125 21.6015625 C75.78025159 26.99203976 77.37405111 30.51092653 79.921875 35.19921875 C82.29085408 39.99320006 82.66053554 44.44883819 81.078125 49.6015625 C78.15297346 56.40020237 72.23592711 60.78430511 66.078125 64.5390625 C68.718125 63.8790625 71.358125 63.2190625 74.078125 62.5390625 C73.748125 66.1690625 73.418125 69.7990625 73.078125 73.5390625 C73.57183594 72.889375 74.06554687 72.2396875 74.57421875 71.5703125 C75.21488281 70.735 75.85554687 69.8996875 76.515625 69.0390625 C77.15371094 68.20375 77.79179687 67.3684375 78.44921875 66.5078125 C79.25552734 65.53328125 79.25552734 65.53328125 80.078125 64.5390625 C80.408125 64.5390625 80.738125 64.5390625 81.078125 64.5390625 C81.29726562 65.32667969 81.51640625 66.11429687 81.7421875 66.92578125 C83.86297832 74.2106115 86.47960614 80.94361501 89.80859375 87.76171875 C92.77349784 94.24801661 93.31285561 101.81705218 91.5 108.75 C86.41266292 120.08088712 73.41807755 132.59071957 62.078125 137.5390625 C53.83874586 139.83134113 45.93087374 137.3387574 38.12890625 134.4453125 C34.75702881 133.44367925 31.96339538 133.30634824 28.453125 133.3515625 C27.34710938 133.35800781 26.24109375 133.36445313 25.1015625 133.37109375 C22.56320097 133.51211383 20.50487051 133.86232301 18.078125 134.5390625 C13.72540602 134.8055555 9.93261861 134.33094573 5.703125 133.4140625 C-1.41119606 132.04368098 -6.67828122 133.7380232 -13.359375 136.1015625 C-20.26426741 138.44730121 -27.08721546 139.73298997 -33.9375 136.6640625 C-45.12492405 130.32158587 -57.7839209 118.9529248 -61.921875 106.5390625 C-63.33621142 95.94761135 -60.2311877 88.5632721 -55.74658203 79.30419922 C-53.41142466 74.30621587 -51.80008916 68.98399028 -50.921875 63.5390625 C-47.9921742 66.36413113 -45.42012783 69.32702315 -42.921875 72.5390625 C-42.921875 69.2390625 -42.921875 65.9390625 -42.921875 62.5390625 C-41.931875 62.5390625 -40.941875 62.5390625 -39.921875 62.5390625 C-40.80875 61.8790625 -41.695625 61.2190625 -42.609375 60.5390625 C-47.28218224 56.60814645 -50.76018688 51.7237937 -51.984375 45.6640625 C-52.4170644 39.90246148 -49.60104929 34.48498231 -46.80859375 29.5859375 C-45.69261342 27.00984194 -45.64679668 24.83686948 -45.546875 22.0390625 C-45.14774227 16.8778634 -45.14774227 16.8778634 -43.171875 13.9140625 C-40.71683507 12.41376032 -38.77013688 11.85553604 -35.921875 11.5390625 C-37.571875 10.5490625 -39.221875 9.5590625 -40.921875 8.5390625 C-39.57674464 2.99039978 -35.39573716 -0.26071538 -30.921875 -3.4609375 C-20.51324579 -8.57246854 -9.71090734 -4.85545367 0 0 Z M-31.921875 23.5390625 C-31.591875 24.5290625 -31.261875 25.5190625 -30.921875 26.5390625 C-32.2521875 26.631875 -32.2521875 26.631875 -33.609375 26.7265625 C-37.66269492 27.72077305 -39.22019249 29.44007374 -41.921875 32.5390625 C-41.17421875 32.45527344 -40.4265625 32.37148437 -39.65625 32.28515625 C-38.67140625 32.18332031 -37.6865625 32.08148438 -36.671875 31.9765625 C-35.69734375 31.87214844 -34.7228125 31.76773438 -33.71875 31.66015625 C-31.1587398 31.54931782 -29.34039341 31.76168158 -26.921875 32.5390625 C-26.921875 33.1990625 -26.921875 33.8590625 -26.921875 34.5390625 C-31.871875 36.0240625 -31.871875 36.0240625 -36.921875 37.5390625 C-35.601875 38.1990625 -34.281875 38.8590625 -32.921875 39.5390625 C-30.88612081 41.25508591 -28.96082992 43.0611565 -27.01953125 44.8828125 C-22.32074147 48.59284391 -17.9241067 48.80873525 -12.109375 48.6640625 C-11.41650391 48.65503906 -10.72363281 48.64601563 -10.00976562 48.63671875 C-8.31365105 48.61332407 -6.61771629 48.57745891 -4.921875 48.5390625 C-4.921875 49.5290625 -4.921875 50.5190625 -4.921875 51.5390625 C-2.45957503 50.82160894 -2.45957503 50.82160894 0.078125 49.5390625 C0.76080638 48.21385747 1.4288291 46.88094068 2.078125 45.5390625 C3.02558594 45.35150391 3.02558594 45.35150391 3.9921875 45.16015625 C6.20840929 44.7263129 6.20840929 44.7263129 7.37890625 42.796875 C7.71277344 42.09304687 8.04664063 41.38921875 8.390625 40.6640625 C8.73738281 39.96539062 9.08414063 39.26671875 9.44140625 38.546875 C10.3484577 36.36971632 10.3484577 36.36971632 9.078125 33.5390625 C8.294375 34.5084375 7.510625 35.4778125 6.703125 36.4765625 C4.30569167 39.44180898 3.0278671 40.39761155 -0.859375 40.9765625 C-10.43608793 40.75890993 -18.53125715 32.63669678 -25.29296875 26.61328125 C-27.67701709 24.73225648 -28.96571122 23.90945654 -31.921875 23.5390625 Z M56.734375 25.98828125 C56.06970215 26.50487305 55.4050293 27.02146484 54.72021484 27.55371094 C54.0133252 28.10575195 53.30643555 28.65779297 52.578125 29.2265625 C38.53858868 39.94994466 38.53858868 39.94994466 30.765625 40.9765625 C27.79320333 40.4926799 25.66289404 40.11864358 23.078125 38.5390625 C21.765625 35.4140625 21.765625 35.4140625 21.078125 32.5390625 C20.1181724 35.11267774 19.96949236 36.24391902 20.93359375 38.86328125 C21.37316406 39.64316406 21.81273438 40.42304687 22.265625 41.2265625 C22.69230469 42.01417969 23.11898437 42.80179688 23.55859375 43.61328125 C25.35145038 45.88546201 26.3156318 46.0171952 29.078125 46.5390625 C30.328125 48.6015625 30.328125 48.6015625 31.078125 50.5390625 C31.738125 50.5390625 32.398125 50.5390625 33.078125 50.5390625 C33.078125 49.8790625 33.078125 49.2190625 33.078125 48.5390625 C34.2125 48.58546875 35.346875 48.631875 36.515625 48.6796875 C46.49952476 48.96857861 53.18416976 49.10675406 60.890625 41.9140625 C61.6125 41.1303125 62.334375 40.3465625 63.078125 39.5390625 C64.068125 38.8790625 65.058125 38.2190625 66.078125 37.5390625 C61.8143969 35.17995897 61.8143969 35.17995897 57.078125 34.5390625 C57.078125 33.8790625 57.078125 33.2190625 57.078125 32.5390625 C62.31284186 31.78293673 66.85066641 31.3327259 72.078125 32.5390625 C71.27375 31.7346875 70.469375 30.9303125 69.640625 30.1015625 C68.453125 28.9140625 67.265625 27.7265625 66.078125 26.5390625 C64.41195385 26.49842418 62.74424405 26.4963415 61.078125 26.5390625 C61.408125 25.5490625 61.738125 24.5590625 62.078125 23.5390625 C59.47183833 23.5390625 58.76491027 24.38443279 56.734375 25.98828125 Z M33.078125 50.5390625 C33.408125 51.1990625 33.738125 51.8590625 34.078125 52.5390625 C35.068125 52.2090625 36.058125 51.8790625 37.078125 51.5390625 C35.758125 51.2090625 34.438125 50.8790625 33.078125 50.5390625 Z M-3.921875 58.5390625 C-4.581875 60.1890625 -5.241875 61.8390625 -5.921875 63.5390625 C-2.79945031 67.61179035 0.1172621 68.2228453 4.95703125 68.94921875 C7.078125 69.5390625 7.078125 69.5390625 8.546875 71.0703125 C10.67186603 73.1085692 12.11548527 72.97220139 15.015625 72.9765625 C19.03706114 72.93486119 19.03706114 72.93486119 22.203125 70.6015625 C22.821875 69.9209375 23.440625 69.2403125 24.078125 68.5390625 C26.73188095 67.95599908 29.36604195 67.79735612 32.078125 67.5390625 C35.12560407 65.8901868 35.12560407 65.8901868 35.953125 63.6015625 C36.31955098 61.42841436 36.31955098 61.42841436 34.640625 59.7890625 C34.125 59.3765625 33.609375 58.9640625 33.078125 58.5390625 C33.078125 59.8590625 33.078125 61.1790625 33.078125 62.5390625 C32.48644531 62.51585937 31.89476562 62.49265625 31.28515625 62.46875 C26.32191538 62.30391055 26.32191538 62.30391055 21.578125 63.5390625 C17.84112829 65.03386118 14.05527751 65.02286638 10.078125 64.5390625 C9.42457031 64.20648438 8.77101563 63.87390625 8.09765625 63.53125 C5.67460439 62.34081446 4.0094871 62.33519891 1.328125 62.4140625 C0.12929687 62.44113281 0.12929687 62.44113281 -1.09375 62.46875 C-1.99867187 62.50355469 -1.99867187 62.50355469 -2.921875 62.5390625 C-3.251875 61.2190625 -3.581875 59.8990625 -3.921875 58.5390625 Z M-23.921875 68.5390625 C-33.28023687 78.48692748 -36.14634499 89.63420278 -35.796875 102.9140625 C-35.76722656 103.7390625 -35.73757812 104.5640625 -35.70703125 105.4140625 C-35.61062826 110.93532438 -36.38798386 114.61721113 -38.921875 119.5390625 C-34.85285426 122.54238733 -31.98240494 124.19334903 -26.921875 124.5390625 C-24.02875069 124.0054178 -21.27843603 123.1381527 -18.484375 122.2265625 C-17.02739113 121.77198353 -15.57036038 121.3175548 -14.11328125 120.86328125 C-11.55967482 120.0666347 -9.04116809 119.23000709 -6.515625 118.34375 C-1.8282913 117.29419484 2.38122542 117.59849587 7.140625 117.9765625 C12.65971654 118.38855677 17.61602061 118.69372025 23.078125 117.5390625 C31.36075218 116.96784683 38.80313202 119.14840213 46.64453125 121.69921875 C56.40131837 124.87281056 56.40131837 124.87281056 66.078125 122.5390625 C68.16323827 120.60480054 68.16323827 120.60480054 69.078125 118.5390625 C68.583125 117.91128906 68.088125 117.28351563 67.578125 116.63671875 C65.48859631 112.32162434 65.88050803 108.69038589 66.078125 103.9765625 C66.30881337 91.79841348 64.76507714 81.44376611 57.078125 71.5390625 C54.99371946 69.79589727 54.99371946 69.79589727 53.078125 68.5390625 C52.65402344 69.51488281 52.22992188 70.49070312 51.79296875 71.49609375 C51.20172874 72.78180615 50.60921274 74.06693231 50.015625 75.3515625 C49.74041016 75.99416016 49.46519531 76.63675781 49.18164062 77.29882812 C48.74174805 78.23178711 48.74174805 78.23178711 48.29296875 79.18359375 C48.03636475 79.75440674 47.77976074 80.32521973 47.51538086 80.91333008 C44.5897392 84.22262986 40.85157909 85.34232666 36.5933075 85.81471252 C33.67493924 85.93507426 30.77235895 85.9548893 27.8515625 85.9375 C26.2527977 85.94180527 26.2527977 85.94180527 24.62173462 85.94619751 C22.37770046 85.94823184 20.13364831 85.94274631 17.88964844 85.93017578 C14.45727972 85.91408198 11.02608285 85.93006291 7.59375 85.94921875 C5.40885157 85.94723683 3.22395387 85.94339421 1.0390625 85.9375 C-0.49701157 85.94660904 -0.49701157 85.94660904 -2.06411743 85.9559021 C-10.97341219 85.86796202 -10.97341219 85.86796202 -14.921875 82.5390625 C-16.65234375 80.19921875 -16.65234375 80.19921875 -18.109375 77.6015625 C-18.59792969 76.74691406 -19.08648437 75.89226562 -19.58984375 75.01171875 C-20.74246379 72.87210442 -21.85336045 70.72166804 -22.921875 68.5390625 C-23.251875 68.5390625 -23.581875 68.5390625 -23.921875 68.5390625 Z " fill="#FEFEFE" transform="translate(103.921875,70.4609375)"/>
<path d="M0 0 C0.66 0 1.32 0 2 0 C1.98952637 0.66306152 1.97905273 1.32612305 1.96826172 2.00927734 C1.65247621 25.14955941 3.17431325 46.08807711 11 68 C8.83125748 67.49396008 7.00032373 67.00016187 5 66 C11.06956289 75.86116637 17.69591565 85.01665887 25 94 C24.87882812 93.42032471 24.75765625 92.84064941 24.6328125 92.2434082 C24.08342593 89.60080599 23.54164897 86.95669854 23 84.3125 C22.80921875 83.40048828 22.6184375 82.48847656 22.421875 81.54882812 C22.24140625 80.66259766 22.0609375 79.77636719 21.875 78.86328125 C21.62363281 77.64572144 21.62363281 77.64572144 21.3671875 76.40356445 C20.9846287 73.89938135 20.93701491 71.52924498 21 69 C21.66 69 22.32 69 23 69 C23.4846875 70.22074219 23.969375 71.44148438 24.46875 72.69921875 C30.20470559 86.89021572 36.83338332 99.39489454 47 111 C47.66386719 111.75925781 48.32773438 112.51851563 49.01171875 113.30078125 C58.88144404 123.86375896 74.51508562 134.47239652 89.31640625 135.25390625 C104.62148177 133.80582778 118.46401046 123.51834132 129 113 C129.75925781 112.25234375 130.51851562 111.5046875 131.30078125 110.734375 C142.38920301 99.16717855 149.95934543 84.12196372 155 69 C155.66 69 156.32 69 157 69 C156.02716362 77.4346984 155.06297567 85.7480973 153 94 C157.65902024 89.17128035 161.53634242 83.94275474 165.25 78.375 C165.67394043 77.74198975 166.09788086 77.10897949 166.53466797 76.45678711 C168.97287983 72.75111129 171.09637264 69.0173954 173 65 C172.38125 65.495 171.7625 65.99 171.125 66.5 C169 68 169 68 167 68 C167.4125 66.845 167.825 65.69 168.25 64.5 C175.26295083 43.12878017 176.39567922 22.36500723 176 0 C176.66 0 177.32 0 178 0 C179.18579102 1.62963867 179.18579102 1.62963867 180.50390625 3.91796875 C181.23710083 5.17202515 181.23710083 5.17202515 181.98510742 6.45141602 C182.50564697 7.35432373 183.02618652 8.25723145 183.5625 9.1875 C190.35805793 20.7319082 197.43011265 31.60631969 206.4453125 41.5625 C208 44 208 44 208.0703125 46.32421875 C206.50812087 50.22969783 204.21506823 53.42138858 201.75 56.8125 C201.2142334 57.55806152 200.6784668 58.30362305 200.12646484 59.07177734 C183.02095245 82.62601326 163.24595883 103.46189663 140 121 C139.41138184 121.45084961 138.82276367 121.90169922 138.21630859 122.36621094 C125.62320833 132.00165936 112.30668309 140.40685845 98.25 147.75 C97.60683838 148.09764404 96.96367676 148.44528809 96.30102539 148.8034668 C92.06127064 150.93930837 89.52885501 151.41777844 85 150 C82.05857554 148.75679503 79.25201439 147.31904132 76.4375 145.8125 C75.20652588 145.15797852 75.20652588 145.15797852 73.95068359 144.49023438 C54.04641882 133.65726596 36.04003545 119.85390794 19 105 C18.49662109 104.56123535 17.99324219 104.1224707 17.47460938 103.67041016 C12.24584021 99.08410116 7.24866792 94.46197771 2.828125 89.08203125 C1.18647144 87.21237025 -0.51770596 85.50992444 -2.30078125 83.77734375 C-6.06914073 80.0372842 -9.26322799 75.99717015 -12.4375 71.75 C-12.99808105 71.00782227 -13.55866211 70.26564453 -14.13623047 69.50097656 C-15.76475293 67.33930407 -17.38439595 65.17133882 -19 63 C-19.43618652 62.41476563 -19.87237305 61.82953125 -20.32177734 61.2265625 C-22.58691322 58.17787737 -24.84191292 55.12550543 -27 52 C-27.58523437 51.18015625 -28.17046875 50.3603125 -28.7734375 49.515625 C-30 47 -30 47 -29.90234375 44.43359375 C-28.86182137 41.62733641 -27.65763032 40.19135475 -25.5625 38.0625 C-16.64596904 28.40028051 -9.90194211 17.5227702 -3.57885742 6.04541016 C-2.921073 4.86664307 -2.921073 4.86664307 -2.25 3.6640625 C-1.86328125 2.95717285 -1.4765625 2.2502832 -1.078125 1.52197266 C-0.72234375 1.01972168 -0.3665625 0.5174707 0 0 Z " fill="#FEFEFE" transform="translate(30,139)"/>
<path d="M0 0 C11.05618669 3.12880356 19.44974206 12.20542716 25 22 C26.61268464 25.93805712 27.90929713 29.88833721 29 34 C32.01679014 29.46330032 34.53967505 25.31027254 36 20 C39.83672222 21.4561547 40.96544196 23.21358953 42.6875 26.875 C43.31205078 28.17050781 43.31205078 28.17050781 43.94921875 29.4921875 C45.65492761 33.56306143 46.12058217 36.83575479 46.0625 41.25 C46.05347656 42.14203125 46.04445313 43.0340625 46.03515625 43.953125 C46.02355469 44.62859375 46.01195312 45.3040625 46 46 C51.08441876 42.35248219 52.79444959 40.14830711 54 34 C59.48471627 36.17251748 61.51755538 40.91098852 64 46 C67.0871114 54.86816436 67.05920294 64.43057157 63 73 C62.01 73.33 61.02 73.66 60 74 C59 68.25 59 68.25 59 66 C58.34 66.99 57.68 67.98 57 69 C54.04590299 67.62845496 51.55991624 66.01136276 49 64 C49.33 63.01 49.66 62.02 50 61 C50.66 61 51.32 61 52 61 C52.33 59.35 52.66 57.7 53 56 C52.236875 56.495 51.47375 56.99 50.6875 57.5 C45.71898225 59.52109197 41.29348964 59.25431356 36 59 C36 58.34 36 57.68 36 57 C35.401875 57.33 34.80375 57.66 34.1875 58 C32 59 32 59 29 59 C29.4640625 57.9790625 29.4640625 57.9790625 29.9375 56.9375 C31.13370649 53.63034088 31.59005397 50.48454122 32 47 C31.6596875 47.58007812 31.319375 48.16015625 30.96875 48.7578125 C26.93603929 55.25734093 22.43463521 60.52178826 15 63 C15.57584432 60.61435923 16.22227595 58.33317216 17 56 C17.09357692 54.14772748 17.12993909 52.2921282 17.125 50.4375 C17.12757813 49.46683594 17.13015625 48.49617188 17.1328125 47.49609375 C17.16650953 45.00047047 17.16650953 45.00047047 16 43 C15.8040625 43.67804687 15.608125 44.35609375 15.40625 45.0546875 C13.26360445 51.72274823 10.45022276 56.33043056 5.90625 61.62890625 C3.29425571 64.87784177 1.68807361 68.20183437 0 72 C-0.66 72 -1.32 72 -2 72 C-3.26171875 70.49609375 -3.26171875 70.49609375 -4.6875 68.4375 C-6.81958471 65.46407794 -8.99321983 62.97165956 -11.6875 60.5 C-16.73842667 55.60517261 -18.1427715 49.857828 -19 43 C-20.0690003 46.20700089 -20.13332529 48.56992069 -20.125 51.9375 C-20.12757812 52.97777344 -20.13015625 54.01804688 -20.1328125 55.08984375 C-20.01932023 57.57665971 -19.71928571 59.63092407 -19 62 C-24.34256597 60.49740332 -28.23728366 56.94028273 -32 53 C-33.5 50.0625 -33.5 50.0625 -34 48 C-34 51.3 -34 54.6 -34 58 C-37.37462715 57.45276317 -39.08235 56.9451 -42 55 C-41.34 56.32 -40.68 57.64 -40 59 C-43.24315782 59.96604701 -46.18508666 60.13419024 -49.5625 60.125 C-50.51253906 60.12757812 -51.46257812 60.13015625 -52.44140625 60.1328125 C-55 60 -55 60 -58 59 C-56.36587557 60.70840281 -55.13093906 61.93453047 -53 63 C-54.13719419 66.41158256 -55.04342944 67.11854601 -58 69 C-58.66 69 -59.32 69 -60 69 C-60.33 68.67 -60.66 68.34 -61 68 C-61.33 70.31 -61.66 72.62 -62 75 C-62.66 75 -63.32 75 -64 75 C-68.07016755 66.78698334 -69.71204089 59.04014427 -67.1640625 50.05078125 C-64.60299296 43.30149648 -64.60299296 43.30149648 -62 42 C-61.443125 42.78375 -60.88625 43.5675 -60.3125 44.375 C-57.92331435 47.08704858 -56.39926587 47.96133543 -53 49 C-53.03480469 48.443125 -53.06960937 47.88625 -53.10546875 47.3125 C-53.43975357 37.88885185 -50.83925104 32.39749059 -44.5234375 25.46875 C-43 24 -43 24 -42 24 C-41.80083984 25.04800781 -41.80083984 25.04800781 -41.59765625 26.1171875 C-41.42105469 27.02726562 -41.24445313 27.93734375 -41.0625 28.875 C-40.88847656 29.77992187 -40.71445313 30.68484375 -40.53515625 31.6171875 C-40.10036299 33.99956317 -40.10036299 33.99956317 -39 36 C-38.57589844 35.43152344 -38.15179688 34.86304688 -37.71484375 34.27734375 C-31.8375648 26.54000289 -26.36664165 19.46673404 -17 16 C-16.34 16 -15.68 16 -15 16 C-15.01160156 16.77085938 -15.02320313 17.54171875 -15.03515625 18.3359375 C-15.04417969 19.33882812 -15.05320313 20.34171875 -15.0625 21.375 C-15.07410156 22.37273438 -15.08570313 23.37046875 -15.09765625 24.3984375 C-15.18006602 26.98432453 -15.18006602 26.98432453 -14 29 C-6.07494525 19.78616207 -1.90457209 12.00381622 0 0 Z M37 55 C36.67 55.66 36.34 56.32 36 57 C36.66 57 37.32 57 38 57 C37.67 56.34 37.34 55.68 37 55 Z " fill="#FEFEFE" transform="translate(120,0)"/>
<path d="M0 0 C1.31097656 0.29197266 1.31097656 0.29197266 2.6484375 0.58984375 C3.62683594 0.82380859 3.62683594 0.82380859 4.625 1.0625 C4.625 1.7225 4.625 2.3825 4.625 3.0625 C5.80835938 2.76214844 6.99171875 2.46179688 8.2109375 2.15234375 C24.6249382 -1.87117295 34.87543689 0.45236151 50.625 6.0625 C50.625 6.7225 50.625 7.3825 50.625 8.0625 C52.275 8.3925 53.925 8.7225 55.625 9.0625 C51.58351981 18.61508955 41.99758243 25.48077838 33.625 31.0625 C27.46133206 33.11705598 20.27355112 32.37053086 13.80322266 32.41259766 C11.94502187 32.42910493 10.08688321 32.45632549 8.22900391 32.49462891 C-11.72844863 32.90352024 -11.72844863 32.90352024 -18.375 27.0625 C-19.02694336 26.50433594 -19.67888672 25.94617188 -20.35058594 25.37109375 C-22.29272856 23.60357995 -24.11891048 21.76878691 -25.9375 19.875 C-26.56462891 19.24658203 -27.19175781 18.61816406 -27.83789062 17.97070312 C-32.375 13.34453381 -32.375 13.34453381 -32.375 11.0625 C-33.035 11.0625 -33.695 11.0625 -34.375 11.0625 C-34.375 10.4025 -34.375 9.7425 -34.375 9.0625 C-32.725 8.7325 -31.075 8.4025 -29.375 8.0625 C-29.375 7.4025 -29.375 6.7425 -29.375 6.0625 C-26.50182985 5.07767124 -23.62667255 4.0995007 -20.75 3.125 C-19.94175781 2.84720703 -19.13351563 2.56941406 -18.30078125 2.28320312 C-11.98401848 0.15193764 -6.66436904 -1.5310037 0 0 Z " fill="#FEFEFE" transform="translate(108.375,206.9375)"/>
<path d="M0 0 C-1.24155214 6.17854772 -2.88527449 12.06591496 -5 18 C-5.2983374 18.84232178 -5.5966748 19.68464355 -5.90405273 20.55249023 C-8.49594453 27.77196567 -11.24688663 34.92762497 -14.0625 42.0625 C-14.66094727 43.59487305 -14.66094727 43.59487305 -15.27148438 45.15820312 C-25.51061722 70.74771073 -25.51061722 70.74771073 -37 76 C-37.66 76 -38.32 76 -39 76 C-38.95875 75.21625 -38.9175 74.4325 -38.875 73.625 C-38.71271266 70.83883881 -38.71271266 70.83883881 -41 69 C-41.30078125 65.91796875 -41.30078125 65.91796875 -41.3125 62.1875 C-41.32925781 60.96417969 -41.34601563 59.74085937 -41.36328125 58.48046875 C-40.97997138 54.80811293 -40.26212474 52.8895754 -38 50 C-37.34 50 -36.68 50 -36 50 C-35.34 52.97 -34.68 55.94 -34 59 C-33.195625 57.7625 -32.39125 56.525 -31.5625 55.25 C-31.11003906 54.55390625 -30.65757812 53.8578125 -30.19140625 53.140625 C-28.16350654 49.49705437 -27.87680207 46.37745917 -27.9375 42.25 C-27.94652344 41.45078125 -27.95554688 40.6515625 -27.96484375 39.828125 C-27.97644531 39.22484375 -27.98804688 38.6215625 -28 38 C-28.66 37.67 -29.32 37.34 -30 37 C-28.59835111 32.23439379 -25.84588526 29.04117557 -22 26 C-21.34 26 -20.68 26 -20 26 C-20 27.98 -20 29.96 -20 32 C-19.16280617 29.70967689 -18.3301071 27.41789043 -17.5 25.125 C-17.26152344 24.47402344 -17.02304688 23.82304688 -16.77734375 23.15234375 C-15.45122467 19.66542411 -15.45122467 19.66542411 -15 16 C-15.61488281 16.49371094 -16.22976562 16.98742187 -16.86328125 17.49609375 C-17.67152344 18.13675781 -18.47976562 18.77742188 -19.3125 19.4375 C-20.11300781 20.07558594 -20.91351563 20.71367188 -21.73828125 21.37109375 C-24 23 -24 23 -27 24 C-27.70537798 25.31326469 -28.3659481 26.65085197 -29 28 C-30.18107168 29.48049831 -31.3928794 30.93670782 -32.625 32.375 C-37.59581303 38.45650752 -41.27209333 45.1192361 -45 52 C-47.70334057 49.29665943 -48.23864421 46.28082031 -49.1875 42.6875 C-49.37763672 42.02298828 -49.56777344 41.35847656 -49.76367188 40.67382812 C-50.80507773 36.78873101 -51.47562447 33.79812907 -50 30 C-39.07230874 16.91755272 -22.05018699 9.2071318 -7 2 C-6.25234375 1.5978125 -5.5046875 1.195625 -4.734375 0.78125 C-3 0 -3 0 0 0 Z " fill="#FEFEFE" transform="translate(235,51)"/>
<path d="M0 0 C6.07396657 0.48031367 10.78831237 3.17976811 16.0625 6 C17.46314697 6.74431274 17.46314697 6.74431274 18.89208984 7.50366211 C26.33600983 11.52178221 33.3003111 15.81226792 40 21 C40.80147461 21.58515381 40.80147461 21.58515381 41.61914062 22.18212891 C50.50069756 28.72213658 50.50069756 28.72213658 51.59765625 33.7265625 C51.22500692 40.17975818 48.70933991 46.19067117 46 52 C43.0186558 49.42926009 41.61555295 46.49792284 39.875 43 C34.43835005 32.74346292 26.53746475 20.84582158 15 17 C16.65 21.62 18.3 26.24 20 31 C20.33 29.35 20.66 27.7 21 26 C28.66742597 31.96583144 28.66742597 31.96583144 30 37 C29.01 37.495 29.01 37.495 28 38 C27.46637267 46.4046304 29.34677939 52.02016909 34 59 C34.66 56.36 35.32 53.72 36 51 C37.9375 51.8125 37.9375 51.8125 40 53 C41.11630207 56.34890621 41.16765424 58.97539261 41.1875 62.5 C41.20167969 63.6446875 41.21585938 64.789375 41.23046875 65.96875 C41 69 41 69 39 72 C39 73.32 39 74.64 39 76 C30.21529175 73.3379672 26.11135638 66.95147655 21.76611328 59.32226562 C19.02401497 54.16405802 16.78435802 48.86116369 14.625 43.4375 C14.16311279 42.291604 13.70122559 41.14570801 13.2253418 39.96508789 C0 6.63541332 0 6.63541332 0 0 Z " fill="#FEFEFE" transform="translate(3,51)"/>
<path d="M0 0 C0.33 0 0.66 0 1 0 C1.25523438 1.485 1.25523438 1.485 1.515625 3 C2.79887585 10.12556168 4.01242982 16.82842495 8 23 C8.41636719 23.64710938 8.83273438 24.29421875 9.26171875 24.9609375 C11.29415748 27.95161311 12.96820409 29.97880272 16 32 C15.67 33.32 15.34 34.64 15 36 C14.21625 36.0825 13.4325 36.165 12.625 36.25 C11.75875 36.4975 10.8925 36.745 10 37 C9.30062468 38.31647119 8.63270867 39.65022151 8 41 C6.125 42 6.125 42 4 42 C1.75 40.0625 1.75 40.0625 0 38 C0 39.65 0 41.3 0 43 C-1.32 43 -2.64 43 -4 43 C-9.2618223 33.95624292 -9.55286645 23.75813816 -7.234375 13.66796875 C-5.501892 8.64239307 -3.28032643 4.18524407 0 0 Z M-2 35 C-1 37 -1 37 -1 37 Z " fill="#FEFEFE" transform="translate(80,145)"/>
<path d="M0 0 C3 1 3 1 4.3515625 3.109375 C4.98191406 4.41648438 4.98191406 4.41648438 5.625 5.75 C6.05039063 6.61109375 6.47578125 7.4721875 6.9140625 8.359375 C10.32485801 16.65325185 10.70608268 29.37167898 7.6875 37.9375 C6 41 6 41 3 43 C1.68 42.34 0.36 41.68 -1 41 C-0.34 39.35 0.32 37.7 1 36 C-1.475 38.475 -1.475 38.475 -4 41 C-5.65 40.34 -7.3 39.68 -9 39 C-8.34 36.69 -7.68 34.38 -7 32 C-7.99 33.32 -8.98 34.64 -10 36 C-12.16874252 35.49396008 -13.99967627 35.00016187 -16 34 C-15 31 -15 31 -12.8125 29.4375 C-4.29378572 22.05461429 -0.98819999 10.87019992 0 0 Z " fill="#FEFEFE" transform="translate(157,146)"/>
<path d="M0 0 C0.66 0 1.32 0 2 0 C2.33 1.98 2.66 3.96 3 6 C10.26 6 17.52 6 25 6 C25.33 4.02 25.66 2.04 26 0 C28.45103548 0.98041419 29.76758786 1.6513818 31.25 3.875 C32 6 32 6 32 10 C19.56838268 10.75131468 7.4100432 11.25646855 -5 10 C-2.77855153 3.01009749 -2.77855153 3.01009749 0 0 Z " fill="#FEFEFE" transform="translate(105,175)"/>
<path d="M0 0 C-0.33 1.32 -0.66 2.64 -1 4 C-1.886875 4.144375 -2.77375 4.28875 -3.6875 4.4375 C-6.47117646 4.91019978 -9.23483757 5.43070185 -12 6 C-12.33 7.32 -12.66 8.64 -13 10 C-14.75 9.875 -14.75 9.875 -17 9 C-21 3.88888889 -21 3.88888889 -21 0 C-13.78194245 -0.7938642 -7.19172157 -1.07875823 0 0 Z " fill="#FEFEFE" transform="translate(119,158)"/>
<path d="M0 0 C6.6 0 13.2 0 20 0 C18.875 6.75 18.875 6.75 15 10 C14.01 9.67 13.02 9.34 12 9 C11.70351562 8.33484375 11.40703125 7.6696875 11.1015625 6.984375 C10.73804688 6.32953125 10.37453125 5.6746875 10 5 C7.81458448 4.3006486 7.81458448 4.3006486 5.375 4.25 C4.14910156 4.16492188 4.14910156 4.16492188 2.8984375 4.078125 C2.27195312 4.05234375 1.64546875 4.0265625 1 4 C0.67 2.68 0.34 1.36 0 0 Z " fill="#FEFEFE" transform="translate(120,158)"/>
<path d="M0 0 C0.99 0 1.98 0 3 0 C3 0.66 3 1.32 3 2 C2.01 2 1.02 2 0 2 C0 1.34 0 0.68 0 0 Z " fill="#FEFEFE" transform="translate(132,135)"/>
<path d="M0 0 C0.66 0 1.32 0 2 0 C2 0.66 2 1.32 2 2 C1.34 2 0.68 2 0 2 C0 1.34 0 0.68 0 0 Z " fill="#FEFEFE" transform="translate(106,135)"/>
<path d="" fill="#FEFEFE" transform="translate(0,0)"/>
<path d="" fill="#FEFEFE" transform="translate(0,0)"/>
</svg>
