<?xml version="1.0" encoding="UTF-8"?>
<!-- Generator: visioncortex VTracer 0.6.4 -->
<svg version="1.1" xmlns="http://www.w3.org/2000/svg" width="234" height="290">
<path d="M0 0 C7.0918717 0.44324198 12.34415866 6.07857452 16.875 11.0625 C22.95547672 17.97727469 22.51650921 25.16967912 22 34 C21.52819507 36.80235858 20.86803686 39.28738481 20 42 C19.01 42 18.02 42 17 42 C17.78375 42.556875 18.5675 43.11375 19.375 43.6875 C22.08704858 46.07668565 22.96133543 47.60073413 24 51 C22.02 51.495 22.02 51.495 20 52 C20.58048096 52.08781738 21.16096191 52.17563477 21.7590332 52.26611328 C29.02036466 53.52317096 35.43555894 55.97466715 42.1875 58.875 C43.22841797 59.30941406 44.26933594 59.74382813 45.34179688 60.19140625 C50.78340485 62.49242905 55.95127099 64.92934445 61 68 C61 68.66 61 69.32 61 70 C57.535 70.99 57.535 70.99 54 72 C57.96 72 61.92 72 66 72 C65.01 73.98 65.01 73.98 64 76 C59.11987615 85.98207152 57.55959066 95.05288903 59 106 C60.3239773 109.34190132 61.64719222 111.23545085 64 114 C64.07476562 113.38253906 64.14953125 112.76507813 64.2265625 112.12890625 C65.27137094 105.3991107 67.42986612 100.14140062 72 95 C72.66 95 73.32 95 74 95 C74.12955078 95.8353125 74.12955078 95.8353125 74.26171875 96.6875 C75.39305071 102.83198186 77.4843147 108.4843147 82 113 C82.09796875 112.43152344 82.1959375 111.86304687 82.296875 111.27734375 C83.59894941 104.55370091 85.42110025 99.57889975 90.375 94.625 C93.59951316 92.62887281 95.17451337 92 99 92 C102.73782378 93.14924134 106.35564787 94.58610098 110 96 C115.34565139 97.74551882 118.60000735 96.23759541 123.53515625 94.0078125 C130.24541343 91.26415743 139.02829432 90.52989714 145.875 93.1875 C152.31798761 96.92443281 154.99414842 101.04264067 157 108 C157.37966646 109.65672637 157.73760976 111.32070245 158 113 C159.98 110.69 161.96 108.38 164 106 C168.43093367 108.21546684 169.62477252 109.75852236 172 114 C172 115.32 172 116.64 172 118 C170.68 117.67 169.36 117.34 168 117 C168.495 117.721875 168.99 118.44375 169.5 119.1875 C173.30191038 126.88184244 171.25620324 137.0089854 169.06640625 144.921875 C167.14159203 150.47774901 164.62006267 155.74291632 162 161 C162.78375 160.175 163.5675 159.35 164.375 158.5 C167 156 167 156 169 156 C166.64086681 178.72217752 158.41587936 191.79661924 142.3828125 207.609375 C141.79523666 208.18916107 141.20766083 208.76894714 140.60227966 209.36630249 C138.17263593 211.7594529 135.74061969 214.15001353 133.29833984 216.53027344 C126.09418123 223.56221337 119.36748298 230.64255757 113.36795044 238.74700928 C112.28603256 240.19599757 111.14811211 241.60287726 110 243 C109.34 243 108.68 243 108 243 C106.85767566 241.52296234 105.7888774 239.98904081 104.75 238.4375 C97.56521527 228.37370579 88.80769572 219.7336152 80.00390625 211.08984375 C78.93291719 210.03412419 77.86195386 208.97837854 76.79101562 207.92260742 C74.68605165 205.84853582 72.56733391 203.79002586 70.43945312 201.73950195 C57.16769838 188.8044697 50.76225906 175.67534705 50 157 C53.69418201 158.231394 55.35109746 160.20791354 58 163 C57.44570312 161.85402344 56.89140625 160.70804688 56.3203125 159.52734375 C55.58825566 157.99753266 54.85650084 156.46757702 54.125 154.9375 C53.76019531 154.18533203 53.39539062 153.43316406 53.01953125 152.65820312 C49.59263837 145.46172808 47.65748271 139.04900463 47.75 131 C47.73839844 129.99066406 47.73839844 129.99066406 47.7265625 128.9609375 C47.74474943 124.25052382 48.54799467 120.42515911 50 116 C48.02 116.99 48.02 116.99 46 118 C46.90422845 109.38958577 48.57544741 102.48120914 53 95 C52.33097656 95.74056641 52.33097656 95.74056641 51.6484375 96.49609375 C50 98 50 98 47.625 98.0625 C43.9112101 96.55929933 42.31094096 94.20964022 40 91 C39.67 90.01 39.34 89.02 39 88 C39 89.65 39 91.3 39 93 C36.03487804 92.66093897 35.04145101 92.04293699 32.9296875 89.85546875 C32.25164063 88.97503906 31.57359375 88.09460938 30.875 87.1875 C29.85019531 85.87845703 29.85019531 85.87845703 28.8046875 84.54296875 C27 82 27 82 25 78 C25.495 82.95 25.495 82.95 26 88 C21.42730974 85.71365487 20.0047845 84.00637934 17 80 C17 79.34 17 78.68 17 78 C15.515 77.505 15.515 77.505 14 77 C12.83203125 74.49609375 12.83203125 74.49609375 11.8125 71.4375 C11.29623047 69.91962891 11.29623047 69.91962891 10.76953125 68.37109375 C10.51558594 67.58863281 10.26164062 66.80617188 10 66 C9.67 68.97 9.34 71.94 9 75 C8.34 75 7.68 75 7 75 C3 68.25 3 68.25 3 66 C2.34 66 1.68 66 1 66 C-1.12046792 62.46588679 -1.53199289 59.05606165 -2 55 C-4.44613806 62.64418144 -2.24330879 69.61577523 0 77 C-0.66 77 -1.32 77 -2 77 C-2.81498562 75.3970947 -3.62689927 73.79262722 -4.4375 72.1875 C-4.88996094 71.29417969 -5.34242188 70.40085937 -5.80859375 69.48046875 C-9.38380592 62.03699424 -9.39440252 52.38738793 -6.90625 44.55859375 C-4.18282632 38.8872088 -0.80485267 34.44174088 3.4453125 29.8515625 C6.61882339 26.07205456 8.12904202 22.44420775 7.8671875 17.484375 C6.9723897 12.05051199 5.27730238 8.36973651 2 4 C2 3.34 2 2.68 2 2 C1.34 2 0.68 2 0 2 C0 1.34 0 0.68 0 0 Z M11 62 C12 64 12 64 12 64 Z M60.1875 129 C59.00220703 129.8353125 59.00220703 129.8353125 57.79296875 130.6875 C57.20128906 131.120625 56.60960938 131.55375 56 132 C58.93799692 132.89844995 60.99103614 132.99580384 64 132.4375 C66.65278098 132.05217986 67.84478895 131.94826298 70.4375 132.8125 C72 134 72 134 73 136 C71.906875 136.103125 70.81375 136.20625 69.6875 136.3125 C66.14440371 136.97307727 65.06756277 137.2027092 63 140 C64.03125 140.4125 65.0625 140.825 66.125 141.25 C68.7216208 142.28864832 70.46314559 143.36089267 72.70703125 145.109375 C76.93777754 147.53841557 79.81573357 147.3316518 84.5625 147 C92.2269388 146.46728488 92.2269388 146.46728488 95.90234375 149 C96.59457031 149.66 97.28679687 150.32 98 151 C98.66 151 99.32 151 100 151 C100.20970559 146.85906302 100.20970559 146.85906302 99 143 C99.99 142.67 100.98 142.34 102 142 C102.33 140.02 102.66 138.04 103 136 C101.75283203 136.32871094 101.75283203 136.32871094 100.48046875 136.6640625 C96.21812038 137.07546762 93.17879006 135.96171911 89.3125 134.375 C88.61278076 134.10155762 87.91306152 133.82811523 87.19213867 133.54638672 C82.13426017 131.54364542 77.19703597 129.31914557 72.33203125 126.8828125 C67.29834727 124.97726379 64.46100395 125.93838523 60.1875 129 Z M137.5 131.4375 C123.16821079 138.05607026 123.16821079 138.05607026 117 136 C117.33 137.98 117.66 139.96 118 142 C118.99 142.33 119.98 142.66 121 143 C120.67 143.66 120.34 144.32 120 145 C119.960008 146.99960012 119.95653201 149.00047242 120 151 C120.825 150.34 121.65 149.68 122.5 149 C126.55237027 146.60504089 130.38412064 146.87116397 134.9375 147.0625 C140.79985188 147.28566224 144.67604377 146.93829233 149.3828125 143.24609375 C151.69614251 141.46360034 154.21294262 140.76644078 157 140 C153.57653445 136.85041169 150.55737263 136.43820891 146 136 C147.61961117 134.03941805 148.7619371 133.08162156 151.1875 132.25 C154.94327146 131.91615365 158.27272482 132.4314326 162 133 C157.76676211 128.39581367 157.76676211 128.39581367 152.03125 126.66015625 C146.72998804 126.7383581 142.22024319 129.23761297 137.5 131.4375 Z M95 171 C94.21717352 172.79199472 94.21717352 172.79199472 94 175 C95.54881801 178.09763601 96.63741886 178.87656812 99.9375 180 C100.948125 180.33 101.95875 180.66 103 181 C103.639375 181.721875 104.27875 182.44375 104.9375 183.1875 C106.98055697 185.38506685 106.98055697 185.38506685 110.5 185 C114.30394196 183.91315944 115.40492012 182.85458787 118 180 C119.64991582 179.29289322 121.31562256 178.62056011 123 178 C123.66 177.34 124.32 176.68 125 176 C124.6814823 173.89179203 124.6814823 173.89179203 124 172 C123.67 172.66 123.34 173.32 123 174 C120.96875 174.81640625 120.96875 174.81640625 118.5 175.5625 C115.48668507 176.32548337 115.48668507 176.32548337 113 178 C108.18064558 178.43812313 106.04756523 177.42853914 102 175 C98.79083829 174.74863967 98.79083829 174.74863967 96 175 C95.67 173.68 95.34 172.36 95 171 Z M93 194 C89.5 194.1875 89.5 194.1875 87 194 C89.00042836 196.44429467 89.00042836 196.44429467 92.99072266 196.22705078 C94.71520169 196.22673337 96.43970033 196.21539124 98.1640625 196.1953125 C99.07127045 196.1924826 99.97847839 196.18965271 100.91317749 196.18673706 C103.81725123 196.17552153 106.72101912 196.15041463 109.625 196.125 C111.59114139 196.11497197 113.5572876 196.10584581 115.5234375 196.09765625 C120.34907659 196.07557772 125.1744864 196.04103865 130 196 C129.40574219 195.70351562 128.81148437 195.40703125 128.19921875 195.1015625 C126.39983664 194.20027341 124.60543573 193.28904566 122.8125 192.375 C113.46523769 188.92478641 101.89379161 189.97262267 93 194 Z M99 205 C100.90917247 207.57353652 102.01624133 208.00347324 105.21484375 208.6875 C107.05755859 208.8421875 107.05755859 208.8421875 108.9375 209 C110.16339844 209.12375 111.38929687 209.2475 112.65234375 209.375 C116.18651366 209.33683864 116.18651366 209.33683864 118.44140625 206.5 C119.21291016 205.2625 119.21291016 205.2625 120 204 C116.26519624 203.14023854 112.76802846 202.8367132 108.9375 202.8125 C107.40416016 202.79123047 107.40416016 202.79123047 105.83984375 202.76953125 C103.01956841 202.99841192 101.3944664 203.54724221 99 205 Z " fill="#FEFEFE" transform="translate(8,0)"/>
<path d="M0 0 C10.67014386 1.37477695 19.46630621 7.60496321 26 16 C28.26843026 19.89476352 30.21505921 23.86313724 32 28 C34.89158993 24.40741858 36.05306524 22.82251115 35.75 18.125 C35.5025 17.09375 35.255 16.0625 35 15 C37.89573124 15.99852802 38.97265909 16.96094156 40.75 19.5 C42.38991031 24.09174888 42.25734187 28.17722273 42 33 C28 40 28 40 25.8046875 41 C22.74105207 42.69759885 20.36344055 45.17342289 17.8046875 47.5390625 C16 49 16 49 14 49 C14.165 48.34 14.33 47.68 14.5 47 C15.12183299 43.26900206 15.06408926 39.78126622 15 36 C14.01 39.63 13.02 43.26 12 47 C11.34 47 10.68 47 10 47 C9.505 44.03 9.505 44.03 9 41 C8.72285156 41.91523437 8.44570312 42.83046875 8.16015625 43.7734375 C7.79792969 44.96195313 7.43570313 46.15046875 7.0625 47.375 C6.70285156 48.55835938 6.34320313 49.74171875 5.97265625 50.9609375 C5 54 5 54 4 56 C3.34 56 2.68 56 2 56 C1.93683594 55.18917969 1.87367188 54.37835938 1.80859375 53.54296875 C0.54863186 42.15026067 -4.09299074 34.45337582 -12.12890625 26.4375 C-14.57734396 24.55644556 -17.21408307 23.31285847 -20 22 C-19.02160156 22.80050781 -19.02160156 22.80050781 -18.0234375 23.6171875 C-11.19334678 29.43989021 -5.8764317 35.37070489 -3 44 C-2.87934544 46.10163415 -2.82463991 48.20744033 -2.8125 50.3125 C-2.79832031 51.42238281 -2.78414063 52.53226563 -2.76953125 53.67578125 C-3.00666843 57.0961836 -3.77891499 59.80973443 -5 63 C-5.66 63 -6.32 63 -7 63 C-8.32 59.37 -9.64 55.74 -11 52 C-12.32 52 -13.64 52 -15 52 C-15.845625 51.525625 -16.69125 51.05125 -17.5625 50.5625 C-22.96495409 48.10683905 -29.13670789 47.00355859 -34.83984375 48.98828125 C-35.55269531 49.32214844 -36.26554687 49.65601563 -37 50 C-36.29875 49.95359375 -35.5975 49.9071875 -34.875 49.859375 C-26.37365089 49.53595411 -21.39230167 51.03173604 -15 56.625 C-13 59 -13 59 -13 61 C-13.556875 60.77183594 -14.11375 60.54367188 -14.6875 60.30859375 C-21.04582549 57.91348128 -25.76680761 57.16666575 -32.1015625 59.91015625 C-38.68565604 63.54743639 -42.21612687 68.85787361 -44.3125 76 C-44.539375 76.99 -44.76625 77.98 -45 79 C-45.66 79 -46.32 79 -47 79 C-50.12599409 73.13876108 -49.78168996 66.13636757 -48 59.875 C-47.505 58.451875 -47.505 58.451875 -47 57 C-52.67173919 62.11568633 -56.91772148 66.8142098 -60.02734375 73.8359375 C-61 76 -61 76 -63 79 C-66.66866857 73.49699715 -65.66322437 66.36063356 -64.41796875 60.05078125 C-61.40420507 50.40398517 -54.64224627 43.04725705 -46.01953125 37.9375 C-43.41583309 36.72882 -40.72592526 35.89297152 -38 35 C-39.3300708 35.0314209 -39.3300708 35.0314209 -40.68701172 35.06347656 C-44.02322079 35.13224643 -47.35866095 35.18208383 -50.6953125 35.21972656 C-52.13065587 35.23966189 -53.56591997 35.26682074 -55.00097656 35.30175781 C-64.91569099 35.53683472 -73.85153753 35.45511652 -81.7265625 28.640625 C-82.35304688 27.85171875 -82.97953125 27.0628125 -83.625 26.25 C-84.27726562 25.45078125 -84.92953125 24.6515625 -85.6015625 23.828125 C-86.06304687 23.22484375 -86.52453125 22.6215625 -87 22 C-86.505 20.515 -86.505 20.515 -86 19 C-85.28585938 19.32226562 -84.57171875 19.64453125 -83.8359375 19.9765625 C-75.16094655 23.10720662 -66.35980057 20.50577948 -57.84765625 18.0234375 C-51.96687743 16.45921004 -46.04199509 15.70753718 -40 15 C-47.00629124 13.1150587 -53.76410027 11.60299164 -61 11 C-60.67 10.01 -60.34 9.02 -60 8 C-43.12301258 0.64738998 -23.2060804 -0.51802391 -6 6 C-2.12860805 8.08288023 1.46790605 10.38580989 5 13 C4.54554036 11.58208592 4.08625056 10.16571954 3.625 8.75 C3.36976563 7.96109375 3.11453125 7.1721875 2.8515625 6.359375 C2.04826333 4.13372042 1.10288338 2.09068328 0 0 Z M7 34 C8 36 8 36 8 36 Z M-14 48 C-13.67 48.99 -13.34 49.98 -13 51 C-13 50.01 -13 49.02 -13 48 C-13.33 48 -13.66 48 -14 48 Z " fill="#FEFEFE" transform="translate(134,26)"/>
<path d="M0 0 C0.66 0 1.32 0 2 0 C2.15855469 1.11117187 2.31710938 2.22234375 2.48046875 3.3671875 C4.63534655 18.26000069 4.63534655 18.26000069 13.3125 30.125 C14.199375 30.74375 15.08625 31.3625 16 32 C13.22107738 49.51929481 -16.96660824 71.23189077 -30.5625 81.3125 C-49.54127402 95.09445953 -49.54127402 95.09445953 -55.45703125 94.8671875 C-70.79937908 91.11194911 -86.92135944 75.70095963 -98 65 C-98.62519531 64.40058594 -99.25039062 63.80117188 -99.89453125 63.18359375 C-109.33335153 54.09500799 -118.60554726 44.87607411 -126 34 C-126 33.34 -126 32.68 -126 32 C-122.53846154 29 -122.53846154 29 -120 29 C-115.39367836 20.34182136 -112.49220692 10.66593739 -111 1 C-107.32370135 2.22543288 -106.62957615 3.49075721 -104.4375 6.625 C-103.53837891 7.88183594 -103.53837891 7.88183594 -102.62109375 9.1640625 C-100.76354864 12.41364744 -99.91763882 15.37098391 -99 19 C-94.69167422 35.00389351 -89.79486868 51.72696097 -78 64 C-77.01 64.495 -77.01 64.495 -76 65 C-76.3609375 64.16855469 -76.721875 63.33710938 -77.09375 62.48046875 C-77.5578125 61.39378906 -78.021875 60.30710938 -78.5 59.1875 C-78.9640625 58.10855469 -79.428125 57.02960938 -79.90625 55.91796875 C-81 53 -81 53 -81 50 C-77.88313729 51.03895424 -76.85696909 52.1693094 -74.6484375 54.46484375 C-68.54467018 60.14915787 -61.87593673 64.91593213 -53.375 65.0625 C-44.13673754 63.55529787 -35.95867306 56.902829 -30 50 C-28.6725145 53.98245651 -30.00092171 56.44789543 -31.4375 60.1875 C-31.68048828 60.84169922 -31.92347656 61.49589844 -32.17382812 62.16992188 C-32.7743293 63.78303286 -33.38609203 65.3919435 -34 67 C-21.61624081 54.20219415 -14.75942559 37.56554206 -10.9375 20.375 C-9.52463469 14.0201876 -7.32000212 9.83110096 -3 5 C-2.4225 4.01 -1.845 3.02 -1.25 2 C-0.8375 1.34 -0.425 0.68 0 0 Z " fill="#FEFEFE" transform="translate(172,195)"/>
<path d="M0 0 C-0.40992188 0.59167969 -0.81984375 1.18335938 -1.2421875 1.79296875 C-1.78101563 2.58316406 -2.31984375 3.37335937 -2.875 4.1875 C-3.40867187 4.96480469 -3.94234375 5.74210938 -4.4921875 6.54296875 C-7.48403376 11.41828299 -8.58425725 15.25480367 -8 21 C-6.00562224 27.05886916 -1.99069359 31.72106893 2.09765625 36.5078125 C6.70075207 42.53815159 7.55169671 47.36288414 7.5 54.75 C7.49718018 55.63727783 7.49436035 56.52455566 7.49145508 57.4387207 C7.32977591 63.98462332 6.47483573 69.89490572 2 75 C0.515 75.495 0.515 75.495 -1 76 C-0.5359375 74.8553125 -0.5359375 74.8553125 -0.0625 73.6875 C1.61120753 69.45400449 2.11136766 66.35719204 2.0625 61.8125 C2.05347656 60.72582031 2.04445313 59.63914063 2.03515625 58.51953125 C2.02355469 57.68808594 2.01195312 56.85664062 2 56 C0.68 58.97 -0.64 61.94 -2 65 C-2.66 65 -3.32 65 -4 65 C-4.103125 65.7425 -4.20625 66.485 -4.3125 67.25 C-5.04933797 70.1973519 -5.94799142 71.78383074 -8 74 C-8.66 74 -9.32 74 -10 74 C-9.96744792 71.98177083 -9.93489583 69.96354167 -9.90234375 67.9453125 C-9.87350758 65.91814596 -9.87350758 65.91814596 -11 64 C-11.06316406 64.61746094 -11.12632812 65.23492187 -11.19140625 65.87109375 C-12.44406978 74.53425101 -16.43513495 79.75201185 -22.8125 85.5625 C-25 87 -25 87 -27 87 C-26.67 83.7 -26.34 80.4 -26 77 C-26.33 77.804375 -26.66 78.60875 -27 79.4375 C-29.38689461 84.24588189 -33.14138437 88.31342455 -37 92 C-37.66 92 -38.32 92 -39 92 C-39 89.36 -39 86.72 -39 84 C-39.226875 85.051875 -39.45375 86.10375 -39.6875 87.1875 C-41.06573713 92.01621733 -43.96917961 94.84737221 -48.3125 97.3125 C-48.869375 97.539375 -49.42625 97.76625 -50 98 C-50.33 96.02 -50.66 94.04 -51 92 C-51.30292969 92.81984375 -51.60585937 93.6396875 -51.91796875 94.484375 C-52.33691406 95.56203125 -52.75585938 96.6396875 -53.1875 97.75 C-53.59355469 98.81734375 -53.99960938 99.8846875 -54.41796875 100.984375 C-56.1603644 104.30568227 -57.94342059 105.8835114 -61 108 C-61.07476562 107.29875 -61.14953125 106.5975 -61.2265625 105.875 C-62.17936358 98.9998863 -63.64893528 93.68647852 -69 89 C-75.16752911 85.4032574 -81.16528035 85.81569576 -88 87 C-85.9596745 82.13221836 -82.57661148 80.32528016 -78 78 C-75.66501936 77.14573879 -73.43062607 76.55701847 -71 76 C-71 75.01 -71 74.02 -71 73 C-64.53261488 70.00584022 -59.99272215 69.81066406 -53 71 C-55.64 70.34 -58.28 69.68 -61 69 C-60.04080048 66.60620411 -59.42979629 65.26533015 -57.20336914 63.89086914 C-56.48785889 63.60848389 -55.77234863 63.32609863 -55.03515625 63.03515625 C-53.8426123 62.55091187 -53.8426123 62.55091187 -52.62597656 62.05688477 C-51.35705566 61.56466431 -51.35705566 61.56466431 -50.0625 61.0625 C-48.32884947 60.36601938 -46.5957727 59.66810884 -44.86328125 58.96875 C-44.02490723 58.63359375 -43.1865332 58.2984375 -42.32275391 57.953125 C-39.41375024 56.75943672 -36.58304476 55.42553132 -33.75 54.0625 C-29.76497257 52.20986635 -26.38058405 51.29203894 -22 51 C-23.485 50.505 -23.485 50.505 -25 50 C-25 49.34 -25 48.68 -25 48 C-24.34 48 -23.68 48 -23 48 C-22.71125 47.21625 -22.4225 46.4325 -22.125 45.625 C-21 43 -21 43 -19 41 C-19.66 40.01 -20.32 39.02 -21 38 C-23.44815601 30.19739752 -23.67933837 22.50769774 -20.8125 14.8125 C-16.72162619 8.46459237 -8.46197967 -2.82065989 0 0 Z M0 50 C1 52 1 52 1 52 Z M-27 72 C-26 74 -26 74 -26 74 Z M-53 88 C-52 90 -52 90 -52 90 Z " fill="#FEFEFE" transform="translate(227,1)"/>
<path d="M0 0 C13.06593346 6.42886298 25.4170844 14.19510074 37 23 C37.90363281 23.639375 38.80726562 24.27875 39.73828125 24.9375 C42.37807972 27.34477736 43.19835405 29.19255238 44.3125 32.5625 C44.63863281 33.51253906 44.96476562 34.46257812 45.30078125 35.44140625 C46 38 46 38 46 41 C43 40 43 40 40.5625 37 C34.28907154 29.39679244 25.39661137 24.00567216 17 19 C18.98 23.29 20.96 27.58 23 32 C23 30.35 23 28.7 23 27 C28.40489519 28.52012677 31.98492628 32.27385218 36 36 C35.505 36.99 35.505 36.99 35 38 C34.01 37.67 33.02 37.34 32 37 C34.00111501 44.67094087 35.97663767 51.48498136 43 56 C42.505 53.03 42.505 53.03 42 50 C43.32 50 44.64 50 46 50 C49.28623034 57.14397899 50.13505096 63.16704442 50 71 C28.5446892 63.34280427 16.16645433 37.93871138 6.9375 18.875 C6.47214844 17.91553467 6.00679687 16.95606934 5.52734375 15.9675293 C3.04242541 10.68938894 1.18992086 5.71430921 0 0 Z " fill="#FEFEFE" transform="translate(4,91)"/>
<path d="M0 0 C0.66 0 1.32 0 2 0 C0.17598428 6.61896612 -2.02515492 12.81311729 -5 19 C-5.38881348 19.81033691 -5.77762695 20.62067383 -6.17822266 21.45556641 C-15.15536441 39.76808434 -27.32678181 61.09298714 -46 71 C-46.99 71 -47.98 71 -49 71 C-48.57563645 68.10168721 -48.13608143 65.20707766 -47.6875 62.3125 C-47.56955078 61.49587891 -47.45160156 60.67925781 -47.33007812 59.83789062 C-46.60829088 55.26657138 -45.78448108 51.82963644 -43 48 C-41.4375 49.1875 -41.4375 49.1875 -40 51 C-40.3125 53.6875 -40.3125 53.6875 -41 56 C-36.16526187 52.64254297 -32.88360435 48.78477199 -31.53125 42.9921875 C-31.2898952 41.33622543 -31.13615593 39.66791009 -31 38 C-31.99 37.34 -32.98 36.68 -34 36 C-23.63106796 27 -23.63106796 27 -21 27 C-21 28.32 -21 29.64 -21 31 C-19.02 27.04 -17.04 23.08 -15 19 C-24.25323643 24.91776749 -32.34145997 31.15835081 -40 39.0625 C-42 41 -42 41 -44 41 C-43.73988711 39.62293175 -43.46626234 38.24841445 -43.1875 36.875 C-43.03667969 36.10929687 -42.88585937 35.34359375 -42.73046875 34.5546875 C-39.00687035 21.53204924 -24.7698862 15.49304729 -13.79541016 9.06542969 C-6.50593482 5.06242994 -6.50593482 5.06242994 0 0 Z " fill="#FEFEFE" transform="translate(229,91)"/>
</svg>
