<?xml version="1.0" encoding="UTF-8"?>
<svg version="1.1" xmlns="http://www.w3.org/2000/svg" width="1024" height="1024">
<path d="M0 0 C1.82521883 2.73782825 2.37355961 3.97933013 3.00219727 7.06103516 C3.17357208 7.88568268 3.3449469 8.7103302 3.52151489 9.55996704 C3.70132904 10.46056854 3.88114319 11.36117004 4.06640625 12.2890625 C4.26088348 13.23808441 4.45536072 14.18710632 4.6557312 15.16488647 C5.29877492 18.31679546 5.93109952 21.47073938 6.5625 24.625 C7.01243023 26.85026465 7.46238174 29.075525 7.91235352 31.30078125 C11.31294086 48.20413437 14.47306663 65.1470025 17.54443359 82.11279297 C20.09504303 96.18503957 22.76873648 110.22941614 25.50790405 124.26611328 C31.67449915 155.87860134 37.42478647 187.56232738 43.14672279 219.2576828 C44.9171015 229.0623536 46.70664502 238.86294006 48.5390625 248.65625 C52.67241587 270.76926831 56.56122132 292.91381834 60.21968079 315.11001587 C60.55959344 317.16988626 60.90104676 319.22949641 61.24279785 321.2890625 C61.87818953 325.12261316 62.50433011 328.95764027 63.12890625 332.79296875 C63.31902786 333.94053146 63.50914948 335.08809418 63.70503235 336.27043152 C63.87657333 337.33514175 64.04811432 338.39985199 64.22485352 339.49682617 C64.3753566 340.41936691 64.52585968 341.34190765 64.68092346 342.29240417 C65.40635637 348.4482285 64.8548853 352.01266632 61.8515625 357.48046875 C61.52349609 358.08654465 61.19542969 358.69262054 60.85742188 359.31706238 C59.79146606 361.28041379 58.70853166 363.23380264 57.625 365.1875 C56.88335452 366.54505444 56.1429641 367.90329526 55.40380859 369.26220703 C54.29839 371.2934718 53.19186948 373.32406038 52.08023071 375.35192871 C49.58976832 379.89564884 47.17510463 384.47288862 44.80566406 389.08105469 C37.81219567 402.66886052 29.53723793 415.33966421 21 428 C19.33048066 430.4981007 17.6653587 432.99912435 16 435.5 C15.1433038 436.785206 14.28653395 438.07036291 13.4296875 439.35546875 C13.01686523 439.97470215 12.60404297 440.59393555 12.17871094 441.23193359 C7.125 448.8125 7.125 448.8125 5.18359375 451.703125 C3.50289293 454.24071264 1.85561481 456.79132232 0.22265625 459.359375 C-5.76186835 468.68185426 -11.81929955 476.51717921 -20 484 C-23.36215351 487.2892895 -26.54910091 490.68522855 -29.6875 494.1875 C-35.42353343 500.53792589 -41.49767492 506.5380719 -47.62963867 512.50463867 C-52.2468102 517.04913858 -56.30285299 521.68003087 -60 527 C-60.61258667 527.87833496 -60.61258667 527.87833496 -61.23754883 528.77441406 C-62.42559382 530.50541839 -63.59187139 532.24885373 -64.75 534 C-65.38397705 534.95604126 -65.38397705 534.95604126 -66.03076172 535.93139648 C-71.97558703 544.94313629 -77.85241107 554.01442752 -83.03393555 563.48999023 C-86.53873188 569.87514989 -90.47617153 575.34215208 -95.28198242 580.80932617 C-97.840333 583.76126261 -100.14178579 586.86559215 -102.46875 590.00390625 C-110.42549885 600.35781095 -119.95422516 609.32620209 -129.22216797 618.4864502 C-131.18434697 620.42950433 -133.13895494 622.38008201 -135.09337139 624.33093929 C-137.45885382 626.69123246 -139.82897416 629.04683225 -142.19921875 631.40234375 C-143.49638069 632.69313087 -143.49638069 632.69313087 -144.81974792 634.00999451 C-149.18211246 638.32154376 -153.6008873 642.5028969 -158.26878357 646.48306274 C-161.68956479 649.48044099 -164.80036634 652.79839623 -167.94921875 656.07617188 C-169.2639718 657.41980193 -170.62816888 658.71469976 -172 660 C-172.66 660 -173.32 660 -174 660 C-174.25394531 660.59039063 -174.50789063 661.18078125 -174.76953125 661.7890625 C-176.13506908 664.24269555 -177.54091684 665.57844906 -179.6875 667.375 C-180.39519531 667.97183594 -181.10289062 668.56867187 -181.83203125 669.18359375 C-182.54746094 669.78300781 -183.26289063 670.38242187 -184 671 C-184.66386719 671.58910156 -185.32773437 672.17820312 -186.01171875 672.78515625 C-186.93404297 673.60306641 -186.93404297 673.60306641 -187.875 674.4375 C-188.42929687 674.93121094 -188.98359375 675.42492187 -189.5546875 675.93359375 C-191 677 -191 677 -193 677 C-193.33 677.99 -193.66 678.98 -194 680 C-195.62890625 681.60546875 -195.62890625 681.60546875 -197.5625 683.1875 C-198.20316406 683.71730469 -198.84382813 684.24710938 -199.50390625 684.79296875 C-199.99761719 685.19128906 -200.49132812 685.58960938 -201 686 C-201.66 685.67 -202.32 685.34 -203 685 C-202.27296875 683.65421875 -202.27296875 683.65421875 -201.53125 682.28125 C-200.85404602 681.02089815 -200.17696992 679.76047758 -199.5 678.5 C-199.18546875 677.91863281 -198.8709375 677.33726562 -198.546875 676.73828125 C-196.01986761 672.02444055 -193.6219071 667.25040177 -191.2421875 662.4609375 C-187.16979523 654.2766198 -182.92048915 646.19390862 -178.625 638.125 C-177.84241253 636.6514724 -177.06002812 635.17783695 -176.27783203 633.70410156 C-174.65927122 630.6548783 -173.039855 627.60611159 -171.41992188 624.55761719 C-169.07190459 620.13736278 -166.73022106 615.71377885 -164.390625 611.2890625 C-154.63375789 592.83794182 -144.83580973 574.40916101 -135 556 C-135.80219971 555.94175049 -135.80219971 555.94175049 -136.62060547 555.88232422 C-144.0841458 555.2446118 -151.39734046 553.92593052 -158.75524902 552.56307983 C-163.05091429 551.76896925 -167.34964014 550.99179282 -171.6484375 550.21484375 C-172.60431763 550.04203384 -173.56019775 549.86922394 -174.54504395 549.69117737 C-187.25116231 547.40297313 -199.9759961 545.22213671 -212.70052719 543.03915024 C-214.75796202 542.68613387 -216.81534191 542.33279882 -218.87271118 541.97940063 C-233.81866059 539.41269977 -248.76766654 536.86508214 -263.72265625 534.3515625 C-287.09029563 530.42204555 -310.43623056 526.44164364 -333.71923828 522.03613281 C-348.51854665 519.24151822 -363.34946746 516.64267932 -378.1875 514.0625 C-397.15500418 510.76276674 -416.09317433 507.34024683 -435.00854492 503.75393677 C-450.91085982 500.74004125 -466.83460476 497.87527427 -482.78344727 495.1184082 C-483.57439789 494.98167191 -484.36534851 494.84493561 -485.18026733 494.70405579 C-486.64002191 494.45214411 -488.09991143 494.20101249 -489.55996704 493.95085144 C-493.05114771 493.35025586 -496.5303753 492.71505929 -500 492 C-499.67 491.34 -499.34 490.68 -499 490 C-496.32576313 489.3071339 -493.70690449 488.73879194 -490.99609375 488.23046875 C-490.16658707 488.06758865 -489.33708038 487.90470856 -488.48243713 487.7368927 C-485.80230152 487.21229109 -483.12006676 486.69951018 -480.4375 486.1875 C-476.97732195 485.51710476 -473.5180096 484.84228446 -470.05859375 484.16796875 C-469.16377289 483.99437836 -468.26895203 483.82078796 -467.34701538 483.64193726 C-459.77212302 482.16699473 -452.21815168 480.60034822 -444.66539001 479.01652527 C-436.38716873 477.28290803 -428.10159115 475.58706527 -419.8125 473.90625 C-419.14718891 473.77132896 -418.48187782 473.63640793 -417.79640579 473.49739838 C-414.31896899 472.79236531 -410.84141797 472.08789763 -407.36380005 471.38375854 C-402.86595855 470.47300926 -398.36838915 469.56092072 -393.87084961 468.64868164 C-381.08262736 466.05510132 -368.29409624 463.46306323 -355.5041647 460.87792397 C-324.72513567 454.65665066 -293.96696648 448.34930917 -263.23901367 441.87915039 C-250.14201631 439.1222238 -237.04237512 436.37996273 -223.93359375 433.6796875 C-222.93509462 433.47399391 -222.93509462 433.47399391 -221.9164238 433.2641449 C-215.92176972 432.02950729 -209.92679173 430.79644702 -203.93151855 429.56481934 C-189.88862363 426.67913695 -175.85177869 423.76978926 -161.83203125 420.7734375 C-160.62562988 420.51601776 -159.41922852 420.25859802 -158.17626953 419.99337769 C-152.50309337 418.78211163 -146.83129066 417.56497669 -141.16162109 416.33740234 C-139.15335908 415.90704562 -137.14506043 415.47685982 -135.13671875 415.046875 C-134.25111771 414.85274017 -133.36551666 414.65860535 -132.45307922 414.45858765 C-126.65478591 413.22425118 -120.90860329 412.47365329 -115 412 C-123.60161549 397.74775158 -132.36511267 383.61597058 -141.34033203 369.59619141 C-143.92638541 365.55087048 -146.49713844 361.49596725 -149.0625 357.4375 C-149.54952393 356.66728516 -150.03654785 355.89707031 -150.53833008 355.10351562 C-153.62458306 350.21121046 -156.67094366 345.29566782 -159.70141602 340.36865234 C-165.50157446 330.94108764 -171.46838235 321.64070595 -177.54516602 312.38916016 C-181.84931359 305.8172359 -186.00698726 299.17425017 -190.06323242 292.44702148 C-193.66945537 286.48270119 -197.43686425 280.63313419 -201.29785156 274.83056641 C-204.23710243 270.36392706 -206.68566286 265.82198319 -209 261 C-205.38119828 262.31949667 -202.43303327 263.91493294 -199.2890625 266.1328125 C-198.38551025 266.76614502 -197.48195801 267.39947754 -196.55102539 268.05200195 C-195.58543701 268.73609131 -194.61984863 269.42018066 -193.625 270.125 C-191.5534706 271.5795484 -189.4818535 273.03397191 -187.41015625 274.48828125 C-186.34941895 275.2354541 -185.28868164 275.98262695 -184.19580078 276.75244141 C-179.1642796 280.29103453 -174.11347372 283.80175626 -169.0625 287.3125 C-168.09715332 287.9842627 -167.13180664 288.65602539 -166.13720703 289.34814453 C-160.14843642 293.51393378 -154.14553654 297.65825796 -148.12841797 301.78295898 C-142.29547673 305.78597241 -136.49166827 309.83042119 -130.6875 313.875 C-121.22415132 320.46755866 -111.7211123 326.99934206 -102.19482422 333.50048828 C-91.7673721 340.62456068 -81.37742989 347.80332345 -71 355 C-69.64950742 351.11715445 -68.54935107 347.29536569 -67.703125 343.2734375 C-67.47004639 342.17523682 -67.23696777 341.07703613 -66.99682617 339.94555664 C-66.75037354 338.76727295 -66.5039209 337.58898926 -66.25 336.375 C-65.70983086 333.81896911 -65.16946118 331.26298058 -64.62890625 328.70703125 C-64.49192825 328.05687546 -64.35495026 327.40671967 -64.21382141 326.73686218 C-63.35409697 322.65847344 -62.47864286 318.58386335 -61.58984375 314.51171875 C-58.75919161 301.52459074 -56.08050651 288.5122922 -53.48561096 275.47629738 C-52.49922981 270.52133441 -51.50991258 265.56695755 -50.52075195 260.61254883 C-50.3145479 259.57946059 -50.10834385 258.54637236 -49.89589119 257.48197842 C-47.81841166 247.07941643 -45.72256284 236.68057942 -43.62592125 226.28186607 C-42.37567426 220.07761401 -41.12870725 213.87270192 -39.88174725 207.66778851 C-38.82321804 202.40163929 -37.76277722 197.13588698 -36.69873047 191.87084961 C-35.64021771 186.6326879 -34.58643737 181.39359411 -33.53588867 176.15382957 C-33.14210039 174.19403224 -32.74663772 172.23457048 -32.34936523 170.27547646 C-31.8000087 167.56515154 -31.25674576 164.85366948 -30.71484375 162.1418457 C-30.5549144 161.36017532 -30.39498505 160.57850494 -30.23020935 159.77314758 C-29.46173451 155.89514147 -28.87802852 152.07420885 -28.52514648 148.13543701 C-28.01372544 142.57319509 -26.97994426 137.1640117 -25.8828125 131.69116211 C-25.66969421 130.6086618 -25.45657593 129.5261615 -25.23699951 128.41085815 C-24.53767701 124.86541002 -23.83155333 121.32135738 -23.125 117.77734375 C-22.63527796 115.30544402 -22.14586197 112.83348365 -21.65673828 110.36146545 C-20.63420232 105.19911402 -19.60845731 100.03741081 -18.58007812 94.8762207 C-17.39051774 88.90584781 -16.20714792 82.93427272 -15.02700233 76.96203226 C-13.88953971 71.20654562 -12.74772266 65.45192965 -11.60394287 59.69769478 C-11.11801345 57.2509577 -10.63319061 54.8040006 -10.1494751 52.35682487 C-9.47580283 48.95188493 -8.79719711 45.54796623 -8.1171875 42.14428711 C-7.91663757 41.12566086 -7.71608765 40.10703461 -7.50946045 39.05754089 C-7.32441956 38.13664673 -7.13937866 37.21575256 -6.94873047 36.26695251 C-6.78871552 35.46231032 -6.62870056 34.65766813 -6.46383667 33.82864285 C-6 32 -6 32 -5 31 C-4.55798058 28.71525908 -4.17153519 26.41972285 -3.80859375 24.12109375 C-3.69902847 23.4344313 -3.5894632 22.74776886 -3.47657776 22.04029846 C-3.12639029 19.83995311 -2.78188869 17.63875966 -2.4375 15.4375 C-2.20154491 13.94850855 -1.96522158 12.4595754 -1.72851562 10.97070312 C-1.14806419 7.3144698 -0.57270991 3.65745488 0 0 Z " fill="#000000" transform="translate(511,20)"/>
<path d="M0 0 C-0.08844809 2.00075676 -0.19662823 4.000644 -0.3125 6 C-0.37050781 7.11375 -0.42851563 8.2275 -0.48828125 9.375 C-1.58559389 17.14832926 -5.1214896 23.30134692 -9.25 29.875 C-9.74306641 30.66656494 -10.23613281 31.45812988 -10.74414062 32.27368164 C-12.15286278 34.52223667 -13.57419618 36.7622507 -15 39 C-15.93585938 40.48693359 -15.93585938 40.48693359 -16.890625 42.00390625 C-23.41723408 51.87302629 -32.09623714 59.66696834 -41.52563477 66.68139648 C-47.72878057 71.35214277 -53.3233253 76.71459892 -59 82 C-58.41230835 82.10751587 -57.8246167 82.21503174 -57.21911621 82.32580566 C-7.01164899 91.51648041 -7.01164899 91.51648041 16.375 96.25 C28.34227015 98.67024721 40.31377559 101.05265709 52.3125 103.3125 C53.52663574 103.54291992 54.74077148 103.77333984 55.99169922 104.01074219 C61.72500655 105.08205027 67.45742318 106.08344772 73.22299862 106.96168518 C85.3052179 108.80956795 97.30309525 111.05652684 109.30859375 113.34375 C111.494686 113.75841496 113.68080824 114.17292186 115.86695862 114.58728027 C120.4112695 115.44931573 124.95516669 116.31349116 129.4987793 117.17919922 C135.29292143 118.2829572 141.08815211 119.38087816 146.88371181 120.47716522 C151.38398745 121.32917635 155.88363347 122.1844757 160.38310432 123.04072571 C162.51932957 123.44681058 164.65575338 123.85185243 166.79238701 124.25578308 C186.30808976 127.94828993 186.30808976 127.94828993 195.59230042 130.38430786 C199.16283028 131.29735664 202.76222538 131.96897881 206.390625 132.60546875 C207.46386017 132.79886589 207.46386017 132.79886589 208.55877686 132.99617004 C210.78852253 133.39708965 213.01921322 133.79241937 215.25 134.1875 C216.78522336 134.46251623 218.32038013 134.73790452 219.85546875 135.01367188 C223.56956069 135.6800616 227.2845104 136.3414496 231 137 C228.15685299 139.84314701 224.94469331 139.91686488 221.1171875 140.55078125 C220.31129181 140.6914653 219.50539612 140.83214935 218.67507935 140.97709656 C216.07629048 141.42976718 213.47585376 141.87186148 210.875 142.3125 C200.43223718 144.09796071 190.0202535 145.95075118 179.65625 148.15234375 C161.4862776 152.00555188 143.23927585 155.48011703 125.00488281 159.01269531 C119.65405006 160.04957892 114.30436181 161.0922504 108.95490456 162.13620377 C104.79292354 162.94739755 100.63016092 163.75452241 96.46717453 164.56053925 C94.49347512 164.94337557 92.52006145 165.32768834 90.54695511 165.71356964 C87.79595133 166.25117039 85.04388764 166.78299253 82.29150391 167.31347656 C81.49554306 167.47033936 80.69958221 167.62720215 79.87950134 167.78881836 C75.01903424 168.71807398 70.19558203 169.31917189 65.26865196 169.77286911 C62.49562845 170.05049622 59.78608836 170.50626843 57.05078125 171.03710938 C55.97706772 171.24310257 54.90335419 171.44909576 53.79710388 171.66133118 C52.07222496 171.99912849 52.07222496 171.99912849 50.3125 172.34375 C48.39016445 172.71411476 46.46782823 173.08447604 44.54547024 173.45472431 C42.4734476 173.85462287 40.40184861 174.25665313 38.33035278 174.65927124 C31.54862424 175.97702884 24.76406923 177.28013081 17.97984505 178.58496666 C15.5253503 179.05717682 13.0709541 179.52989697 10.61656189 180.00263977 C-8.92160462 183.76361633 -28.47374252 187.45064317 -48.02585602 191.13829422 C-51.8972665 191.86853495 -55.76860199 192.59917278 -59.63993835 193.32980633 C-68.89078525 195.07569167 -78.14178903 196.82074408 -87.3928833 198.56531811 C-95.76597086 200.14435347 -104.13886381 201.7244192 -112.51171875 203.3046875 C-124.341002 205.53722122 -136.1704209 207.76903449 -148 210 C-145.35177584 214.84154678 -142.69752837 219.63545349 -139.65234375 224.2421875 C-139.05349365 225.15299072 -138.45464355 226.06379395 -137.83764648 227.00219727 C-137.21059814 227.95022217 -136.5835498 228.89824707 -135.9375 229.875 C-131.21263408 237.0685177 -126.51872919 244.27654917 -121.9375 251.5625 C-121.21880737 252.70537476 -121.21880737 252.70537476 -120.4855957 253.87133789 C-119.50287039 255.43437027 -118.52020502 256.99744034 -117.53759766 258.56054688 C-114.74763978 262.98691383 -111.93575248 267.39931962 -109.125 271.8125 C-108.24920288 273.18801025 -108.24920288 273.18801025 -107.35571289 274.59130859 C-105.57075602 277.39438466 -103.78543886 280.19723092 -102 283 C-99.62458809 286.72890452 -97.24952189 290.45802865 -94.875 294.1875 C-94.29468018 295.09886719 -93.71436035 296.01023437 -93.11645508 296.94921875 C-88.84311664 303.66455065 -84.59188329 310.39358763 -80.35400391 317.13134766 C-77.86995493 321.07205572 -75.36041905 324.99340473 -72.80859375 328.890625 C-72.29514404 329.67590576 -71.78169434 330.46118652 -71.25268555 331.27026367 C-70.27259302 332.76532276 -69.28855929 334.25780779 -68.30004883 335.74731445 C-65 340.7803635 -65 340.7803635 -65 343 C-68.88770698 341.6009879 -72.03569614 339.77299641 -75.4375 337.4375 C-79.7356345 334.5216539 -84.05609291 331.66553904 -88.4375 328.875 C-94.25785863 325.15646019 -100.00991796 321.34109537 -105.75 317.5 C-114.48433034 311.65567588 -123.26637808 305.88726658 -132.06820679 300.14544678 C-138.41980282 296.00158031 -144.7627485 291.84731183 -151.0625 287.625 C-158.2782046 282.79353568 -165.55234845 278.05542921 -172.86376953 273.37011719 C-174.28818611 272.45653709 -175.71104126 271.54051788 -177.13232422 270.62207031 C-179.20845152 269.28210735 -181.2908085 267.9523762 -183.375 266.625 C-184.28270142 266.0362207 -184.28270142 266.0362207 -185.20874023 265.43554688 C-188.93231943 263.0830744 -192.72816808 261.16133265 -196.74853516 259.35693359 C-198.22611801 258.69182266 -198.22611801 258.69182266 -199.73355103 258.01327515 C-200.85544327 257.51170395 -200.85544327 257.51170395 -202 257 C-209.79142488 295.31869221 -209.79142488 295.31869221 -217 333.75 C-217.15445587 334.61084198 -217.30891174 335.47168396 -217.4680481 336.35861206 C-217.78615195 338.1325858 -218.10421058 339.90656765 -218.42222595 341.68055725 C-218.66375145 343.02784157 -218.66375145 343.02784157 -218.91015625 344.40234375 C-219.07274429 345.30991928 -219.23533234 346.21749481 -219.40284729 347.15257263 C-221.68926373 359.88330694 -224.06598853 372.59739805 -226.4375 385.3125 C-226.78663452 387.18671127 -226.78663452 387.18671127 -227.14282227 389.0987854 C-229.59223316 402.24203586 -232.06203017 415.38089872 -234.59765625 428.5078125 C-234.80289413 429.57176743 -235.00813202 430.63572235 -235.21958923 431.73191833 C-236.17208553 436.66600529 -237.12920554 441.59910629 -238.09545898 446.53051758 C-238.43875377 448.30027077 -238.78194009 450.07004501 -239.125 451.83984375 C-239.27143448 452.57723785 -239.41786896 453.31463196 -239.56874084 454.07437134 C-240.5020931 458.91456911 -241.26777237 463.76722403 -241.97504807 468.64455128 C-243.77462045 481.02714733 -246.04820705 493.29422473 -248.421875 505.578125 C-248.84945912 507.80454041 -249.27680145 510.03100226 -249.70391846 512.25750732 C-250.59553974 516.90037539 -251.49006001 521.54267256 -252.38671875 526.18457031 C-253.51609746 532.0324533 -254.63815764 537.88171197 -255.75818634 543.73139191 C-260.51565955 568.56157272 -265.36805555 593.35137931 -271 618 C-272.58538911 615.12671572 -273.37741637 612.6539226 -273.87255859 609.41625977 C-274.08980087 608.04509254 -274.08980087 608.04509254 -274.31143188 606.64622498 C-274.46389374 605.6505098 -274.61635559 604.65479462 -274.7734375 603.62890625 C-276.27281018 594.25579409 -277.90300103 584.91735714 -279.6640625 575.58984375 C-279.89997101 574.33899994 -280.13587952 573.08815613 -280.37893677 571.79940796 C-280.87156186 569.19282699 -281.36480951 566.586373 -281.85906982 563.98010254 C-283.18987128 556.96085936 -284.50860793 549.93934026 -285.828125 542.91796875 C-285.9617532 542.20720814 -286.09538139 541.49644753 -286.23305893 540.76414871 C-288.98928547 526.10049898 -291.70210475 511.42908481 -294.375 496.75 C-294.68890686 495.02666946 -294.68890686 495.02666946 -295.00915527 493.26852417 C-297.53846544 479.35620958 -299.95054381 465.43285012 -302.20187378 451.47317505 C-305.13712985 433.37883967 -308.68917185 415.39463083 -312.14580917 397.39446545 C-312.80461238 393.9635697 -313.46305498 390.53260495 -314.12109375 387.1015625 C-314.24936554 386.43282923 -314.37763733 385.76409595 -314.50979614 385.07509804 C-316.58450757 374.25082338 -318.58490201 363.41604059 -320.5 352.5625 C-323.99112165 332.78598629 -327.71767634 313.05384732 -331.43861389 293.31955433 C-336.64029235 265.72943879 -336.64029235 265.72943879 -339 252 C-339.58491211 252.15670166 -340.16982422 252.31340332 -340.77246094 252.47485352 C-343.42912232 253.18064445 -346.08940368 253.87169779 -348.75 254.5625 C-349.67039062 254.80935547 -350.59078125 255.05621094 -351.5390625 255.31054688 C-352.87324219 255.65375977 -352.87324219 255.65375977 -354.234375 256.00390625 C-355.45979004 256.32597046 -355.45979004 256.32597046 -356.70996094 256.65454102 C-359.14145409 257.02133876 -360.68425298 256.76494053 -363 256 C-359.34566059 251.98858377 -355.6760657 247.99149127 -352 244 C-351.47376541 243.42816986 -350.94753082 242.85633972 -350.40534973 242.2671814 C-339.36924298 230.30583053 -327.90946551 218.79123837 -316.375 207.3125 C-314.55835636 205.50088906 -312.74194886 203.68904129 -310.92578125 201.87695312 C-306.91477793 197.87575187 -302.9013511 193.87699812 -298.8862915 189.87986755 C-297.29558617 188.29457952 -295.70770105 186.70657204 -294.12158203 185.11669922 C-286.17834577 177.19174428 -277.78091701 170.0788542 -268.80419922 163.35839844 C-266.88140712 161.91071031 -264.97275153 160.44583421 -263.06640625 158.9765625 C-240.63884499 141.69570339 -218.25959974 125.35733311 -192.7109375 112.94702148 C-187.73266401 110.4829966 -183.25193091 107.61502551 -178.8203125 104.25 C-177 103 -177 103 -175 103 C-175 102.34 -175 101.68 -175 101 C-174.45085937 100.80535156 -173.90171875 100.61070312 -173.3359375 100.41015625 C-169.9986617 98.39551317 -167.94975986 95.49520498 -165.625 92.4375 C-165.16867187 91.85419922 -164.71234375 91.27089844 -164.2421875 90.66992188 C-162.25000807 88.09295943 -160.33093364 85.54410848 -158.63671875 82.75854492 C-154.90587555 76.63843769 -150.7796313 73.22750299 -144.75 69.4375 C-143.04105271 68.31802367 -141.33399909 67.19565089 -139.62890625 66.0703125 C-138.41678467 65.27608887 -138.41678467 65.27608887 -137.18017578 64.46582031 C-134.56843496 62.70984138 -132.11497898 60.81446096 -129.6875 58.8125 C-112.84651646 45.02284449 -112.84651646 45.02284449 -105.4375 43.5 C-98.67754233 42.05774488 -94.13214296 37.81548346 -88.92382812 33.5390625 C-85.29114044 30.63291235 -81.50942645 27.92627282 -77.75 25.1875 C-71.39673116 20.53552225 -65.11046497 15.8085883 -58.875 11 C-40.00576363 -3.50982184 -23.22438447 -7.74146149 0 0 Z " fill="#000000" transform="translate(783,387)"/>
<path d="M0 0 C-2.6014602 46.4267271 -17.73302664 93.88463126 -37 136 C-37.47405273 137.0415625 -37.94810547 138.083125 -38.43652344 139.15625 C-53.47492532 171.94539078 -72.32804329 202.90612576 -95 231 C-95.78117187 231.9796875 -96.56234375 232.959375 -97.3671875 233.96875 C-99.54949619 236.67139563 -101.76396807 239.34164838 -104 242 C-104.47324707 242.56348145 -104.94649414 243.12696289 -105.43408203 243.70751953 C-115.74166568 255.95165968 -115.74166568 255.95165968 -121.4296875 261.43359375 C-123.19529439 263.19480859 -124.81224597 265.04622906 -126.4375 266.9375 C-131.77985207 273.11459458 -137.56339082 278.72048707 -143.7578125 284.03515625 C-145.92154869 285.9312526 -148.02509332 287.88286798 -150.12451172 289.84960938 C-156.49140074 295.79176288 -163.16206494 301.20068356 -170.06787109 306.50048828 C-172.09108584 308.07069108 -174.08775819 309.67057235 -176.08203125 311.27734375 C-187.85579068 320.70384965 -200.23359853 328.9810132 -213 337 C-214.03737305 337.65476318 -214.03737305 337.65476318 -215.09570312 338.32275391 C-275.02341781 375.92723733 -344.51222226 399.05203891 -415 405 C-414.43435782 397.46495819 -413.43657132 390.11365072 -412.06640625 382.68530273 C-411.8727951 381.61401627 -411.67918396 380.5427298 -411.47970581 379.4389801 C-410.8453812 375.93630406 -410.20412903 372.43493848 -409.5625 368.93359375 C-409.11758567 366.48794022 -408.67301084 364.0422249 -408.22875977 361.59645081 C-407.30040159 356.49139418 -406.36874433 351.3869545 -405.43457031 346.28295898 C-404.23534765 339.72995421 -403.04320969 333.17569457 -401.85334778 326.62098598 C-400.93781725 321.58070399 -400.01920516 316.54098766 -399.09957886 311.50145149 C-398.65858862 309.08338256 -398.21842189 306.6651633 -397.77908325 304.24679375 C-397.16696687 300.88067914 -396.55086086 297.51531983 -395.93359375 294.15014648 C-395.66082108 292.6439827 -395.66082108 292.6439827 -395.38253784 291.10739136 C-395.21432526 290.19498184 -395.04611267 289.28257233 -394.87280273 288.34251404 C-394.65490334 287.14994318 -394.65490334 287.14994318 -394.43260193 285.93327999 C-394 284 -394 284 -393 282 C-390.32983398 281.16552734 -390.32983398 281.16552734 -386.74609375 280.3359375 C-385.41544439 280.02012472 -384.08488163 279.70394687 -382.75439453 279.38745117 C-382.05074768 279.22296478 -381.34710083 279.05847839 -380.62213135 278.88900757 C-327.30727234 266.34490439 -278.93300942 242.25235927 -237 207 C-235.9493553 206.13655257 -234.89856705 205.27327979 -233.84765625 204.41015625 C-220.90505031 193.66758648 -208.403717 181.88882878 -198.046875 168.6015625 C-196.16411202 166.20858512 -194.19388403 163.91968366 -192.18359375 161.63378906 C-169.32325068 135.43557538 -151.54053134 103.3122262 -139 71 C-138.6704834 70.16210938 -138.3409668 69.32421875 -138.00146484 68.4609375 C-132.20340039 53.5983715 -127.91139433 38.45667474 -124 23 C-97.00080127 17.59271293 -69.93697672 12.53582367 -42.86304855 7.51912308 C-40.05452837 6.99852234 -37.24613818 6.47722519 -34.43777466 5.95578003 C-29.96036129 5.12464264 -25.48257279 4.29555681 -21.00447083 3.46813774 C-19.32400609 3.15741634 -17.64364607 2.84612809 -15.96339417 2.53425789 C-13.64656481 2.10444842 -11.32932852 1.6769072 -9.01196289 1.25 C-8.32607873 1.12229186 -7.64019457 0.99458372 -6.93352604 0.86300564 C-2.2286213 0 -2.2286213 0 0 0 Z " fill="#000000" transform="translate(970,567)"/>
<path d="M0 0 C-0.700398 6.32552655 -1.82499353 12.49426012 -3.10131836 18.72705078 C-3.31283035 19.77196686 -3.52434235 20.81688293 -3.74226379 21.89346313 C-4.43839016 25.32804379 -5.13893446 28.76170497 -5.83984375 32.1953125 C-6.32702477 34.59085978 -6.81404734 36.9864393 -7.30091858 39.38204956 C-8.3202663 44.39394605 -9.3418644 49.40537737 -10.36499023 54.41650391 C-11.67539455 60.83584565 -12.97967707 67.25641352 -14.28221798 73.67735481 C-15.28586505 78.62097857 -16.29300732 83.56388533 -17.30117989 88.50658798 C-17.78353947 90.87381771 -18.26475298 93.24128127 -18.74479485 95.60898209 C-19.4160382 98.9173113 -20.09204506 102.2246326 -20.76928711 105.53173828 C-20.96624176 106.50747803 -21.16319641 107.48321777 -21.36611938 108.48852539 C-23.33482322 118.05046688 -23.33482322 118.05046688 -25 122 C-27.55249023 123.1809082 -27.55249023 123.1809082 -30.80859375 123.80078125 C-32.01676758 124.05053711 -33.22494141 124.30029297 -34.46972656 124.55761719 C-35.11558716 124.67987671 -35.76144775 124.80213623 -36.42687988 124.92810059 C-39.8651683 125.58544806 -43.2812226 126.34285395 -46.69921875 127.09765625 C-47.74766464 127.3272554 -47.74766464 127.3272554 -48.81729126 127.56149292 C-97.88190782 138.5167997 -143.81633475 164.89964984 -182 197 C-183.0506447 197.86344743 -184.10143295 198.72672021 -185.15234375 199.58984375 C-198.09494969 210.33241352 -210.596283 222.11117122 -220.953125 235.3984375 C-222.83588798 237.79141488 -224.80611597 240.08031634 -226.81640625 242.36621094 C-249.67674932 268.56442462 -267.45946866 300.6877738 -280 333 C-280.3295166 333.83789062 -280.6590332 334.67578125 -280.99853516 335.5390625 C-286.51306276 349.67481953 -290.65677862 364.0305078 -294.37084961 378.73535156 C-295 381 -295 381 -296 383 C-298.938751 383.77003233 -301.83095303 384.41435008 -304.80810547 384.99951172 C-305.73358185 385.18845001 -306.65905823 385.37738831 -307.61257935 385.572052 C-310.69585979 386.19940707 -313.78145773 386.81450279 -316.8671875 387.4296875 C-319.01758174 387.86488033 -321.16781775 388.30085567 -323.31790161 388.73757935 C-329.00718212 389.89108203 -334.69847269 391.03434906 -340.39025879 392.17541504 C-346.10898019 393.32348637 -351.82594607 394.48022316 -357.54296875 395.63671875 C-364.00515232 396.94382233 -370.46745803 398.25024428 -376.93136597 399.54879761 C-378.90851008 399.94642265 -380.88565245 400.34405632 -382.86279297 400.74169922 C-383.8062602 400.93098936 -384.74972744 401.1202795 -385.72178459 401.31530571 C-390.31922509 402.24152084 -394.91048651 403.18914459 -399.49420166 404.18121338 C-400.36328722 404.36854097 -401.23237278 404.55586857 -402.12779427 404.74887276 C-403.74941586 405.10024463 -405.37010945 405.45594042 -406.98962212 405.81690788 C-410.71854149 406.62495849 -414.1795508 407.20605346 -418 407 C-418.3811003 398.47288068 -416.96421682 390.30456634 -415.5 381.9375 C-415.30026581 380.78760086 -415.30026581 380.78760086 -415.09649658 379.61447144 C-408.40266318 341.41406868 -397.12102352 304.29899542 -381 269 C-380.29689697 267.44563232 -380.29689697 267.44563232 -379.57958984 265.85986328 C-372.34821704 249.9802091 -364.05702024 234.90542537 -355 220 C-354.53851563 219.23333008 -354.07703125 218.46666016 -353.6015625 217.67675781 C-337.74787792 191.38606422 -318.72115621 164.91468316 -296.5703125 143.56640625 C-294.80470561 141.80519141 -293.18775403 139.95377094 -291.5625 138.0625 C-286.22014793 131.88540542 -280.43660918 126.27951293 -274.2421875 120.96484375 C-272.07845131 119.0687474 -269.97490668 117.11713202 -267.87548828 115.15039062 C-261.50859926 109.20823712 -254.83793506 103.79931644 -247.93212891 98.49951172 C-245.90891416 96.92930892 -243.91224181 95.32942765 -241.91796875 93.72265625 C-230.14420932 84.29615035 -217.76640147 76.0189868 -205 68 C-204.30841797 67.56349121 -203.61683594 67.12698242 -202.90429688 66.67724609 C-144.97621845 30.32752917 -69.50663815 0 0 0 Z " fill="#000000" transform="translate(473,53)"/>
<path d="M0 0 C11.35214663 0.46567925 22.37703409 1.57820414 33.5625 3.5625 C34.68242844 3.75848785 34.68242844 3.75848785 35.82498169 3.95843506 C73.85372901 10.66246318 110.86296963 21.92548259 146 38 C147.56234375 38.7110791 147.56234375 38.7110791 149.15625 39.43652344 C174.621541 51.11591701 197.94815251 65.2793984 221.04345703 81.02978516 C223.65459799 82.76982707 226.29360063 84.41349003 229 86 C229.82242187 85.29875 230.64484375 84.5975 231.4921875 83.875 C238.24065931 78.13402074 245.05518484 72.5028832 252 67 C254.71017987 64.83563971 257.41750022 62.66771143 260.125 60.5 C261.44005833 59.44785938 262.75515874 58.39577134 264.0703125 57.34375 C265.03710938 56.5703125 266.00390625 55.796875 267 55 C267 59.01899959 265.05132443 61.08393818 262.75 64.1875 C262.29963379 64.8055249 261.84926758 65.4235498 261.38525391 66.06030273 C259.93235474 68.04689455 258.46786115 70.02444298 257 72 C256.54012695 72.62100586 256.08025391 73.24201172 255.60644531 73.88183594 C250.80187614 80.35933365 245.93217545 86.78657398 241.03125 93.19140625 C228.4535327 109.43402354 228.4535327 109.43402354 216.859375 126.37890625 C215.93898438 127.67634766 215.93898438 127.67634766 215 129 C214.34 129 213.68 129 213 129 C212.75121094 129.54785156 212.50242187 130.09570312 212.24609375 130.66015625 C207.55595426 139.46703259 200.24295796 147.24605693 193.7734375 154.796875 C193.33717041 155.31137207 192.90090332 155.82586914 192.45141602 156.35595703 C191.40991556 157.53568185 190.32662545 158.6790037 189.21850586 159.79638672 C184.23432928 164.9819243 182.4151362 169.68188688 180.8125 176.625 C179.30906522 182.84913231 177.99637317 187.83605899 174 193 C168.99064132 199.49461327 166.98813131 205.69892907 168 214 C169.57488932 217.65087979 171.38270114 220.88001004 173.53125 224.22265625 C175 227 175 227 174.96875 229.1015625 C171.95034097 235.01667052 165.73949555 239.5447762 160.5 243.4375 C155.29852383 247.36569815 151.1964289 252.03795756 147 257 C146.19949219 257.93714844 145.39898438 258.87429688 144.57421875 259.83984375 C142.32162433 262.52747277 140.09717288 265.18906656 138 268 C137.57775146 268.51248291 137.15550293 269.02496582 136.72045898 269.55297852 C135.39423122 271.39186127 134.57531931 272.800923 134 275 C134.65005429 278.46783757 136.11594493 281.42185698 137.6875 284.5625 C138.46793592 286.20694406 139.24283188 287.85403065 140.01171875 289.50390625 C140.37185059 290.2736377 140.73198242 291.04336914 141.10302734 291.83642578 C142.21564303 294.5201493 142.72402163 297.11392108 143 300 C138.69027051 303.36473897 134.35614557 306.69557007 130 310 C129.39655762 310.45890625 128.79311523 310.9178125 128.17138672 311.390625 C116.79572732 319.98021973 116.79572732 319.98021973 110.6875 321.9375 C105.15331793 323.82744126 102.66889365 327.73825435 99.2421875 332.29296875 C96.08519295 336.10446217 92.41775621 338.78645196 88 341 C87.34 341 86.68 341 86 341 C85.7628125 341.70125 85.525625 342.4025 85.28125 343.125 C83.76430541 346.52887567 81.81032699 349.07553545 79.5 352 C78.59217912 353.15603896 77.68463465 354.31229504 76.77734375 355.46875 C76.31440918 356.05527344 75.85147461 356.64179688 75.37451172 357.24609375 C74.06824485 358.91291812 72.78198002 360.59274824 71.50390625 362.28125 C66.8505481 368.42431549 62.06221781 374.4120466 57.03540039 380.25463867 C53.41080078 384.47043512 49.99396433 388.82160261 46.65625 393.26953125 C39.36257331 400.76700185 29.87422091 406.19190237 21.18383789 411.96435547 C19.43338344 413.12773593 17.68629576 414.296049 15.93945312 415.46484375 C10.1934839 419.29778704 4.40327513 423.01592278 -1.54516602 426.52978516 C-7.12990559 429.87451929 -12.57557849 433.44781522 -18.05273438 436.96484375 C-22.96954039 440.11022906 -27.89834328 443.16339419 -33 446 C-26.10052242 424.58473843 -17.77089068 405.18371909 -4.19775391 387.21948242 C2.26198789 378.54174053 6.80910006 369.41824379 10.87109375 359.42578125 C15.19678589 348.91802263 19.85063998 341.95312897 28 334 C29.70198923 332.15912441 31.3905376 330.3056895 33.0625 328.4375 C33.77535156 327.65246094 34.48820313 326.86742187 35.22265625 326.05859375 C37.14127304 323.92230206 37.14127304 323.92230206 39 321 C39.66 321 40.32 321 41 321 C41.24621094 320.45730469 41.49242187 319.91460937 41.74609375 319.35546875 C43.28052798 316.47302687 45.1437376 313.95545139 47.0625 311.3125 C50.75834613 306.09729267 53.94879595 300.71124281 56.9375 295.0625 C57.31463135 294.35327393 57.6917627 293.64404785 58.08032227 292.91333008 C60.92432075 287.43324099 63.13551412 282.45699721 63.1875 276.1875 C63.70382771 269.93524077 67.00860819 266.57364558 71 262 C71.95379221 260.65725876 72.89320639 259.3040917 73.8125 257.9375 C74.534375 256.968125 75.25625 255.99875 76 255 C76.66 255 77.32 255 78 255 C78.26296875 254.42765625 78.5259375 253.8553125 78.796875 253.265625 C80.0767023 250.85556061 81.54804648 248.88127512 83.25 246.75 C86.18911318 243.0500308 88.99903 239.2835551 91.73828125 235.43359375 C92.15464844 234.96050781 92.57101562 234.48742187 93 234 C93.66 234 94.32 234 95 234 C95.3403125 233.2265625 95.3403125 233.2265625 95.6875 232.4375 C97.48217618 229.10452995 99.49965015 225.85296329 102 223 C102.66 223 103.32 223 104 223 C104.309375 222.38125 104.61875 221.7625 104.9375 221.125 C105.625 219.75 106.3125 218.375 107 217 C107.21269991 214.87721275 107.41992013 212.7536845 107.59472656 210.62744141 C109.16360114 191.69893451 112.88737404 174.3357804 123 158 C122.28585937 157.72470459 121.57171875 157.44940918 120.8359375 157.16577148 C118.02323919 156.00955296 115.33992233 154.7167623 112.625 153.34765625 C88.26729529 141.22659425 63.40875965 131.72906474 37 125 C35.6996582 124.66548828 35.6996582 124.66548828 34.37304688 124.32421875 C29.92316493 123.18286429 25.46722968 122.07186882 21 121 C19.34002399 114.72376999 18.12467099 108.43863238 17.02880859 102.04174805 C16.75039375 100.4378849 16.75039375 100.4378849 16.46635437 98.80162048 C15.85739924 95.28882862 15.25278919 91.77530529 14.6484375 88.26171875 C14.22550093 85.81407957 13.80237188 83.36647364 13.37905884 80.91889954 C12.49459857 75.80099889 11.61225362 70.68273938 10.73144531 65.56420898 C9.82608559 60.30367931 8.91836701 55.04356835 8.0078125 49.78393555 C6.90737479 43.42741095 5.80938499 37.07046935 4.71358109 30.7131443 C4.29564363 28.29004414 3.87698228 25.86706872 3.45759201 23.44421959 C2.87341016 20.06698964 2.29246079 16.68921956 1.71240234 13.3112793 C1.5378804 12.30605225 1.36335846 11.3008252 1.18354797 10.26513672 C0.94808006 8.88795723 0.94808006 8.88795723 0.70785522 7.48295593 C0.57034033 6.68493403 0.43282543 5.88691214 0.29114342 5.06470776 C0 3 0 3 0 0 Z " fill="#000000" transform="translate(557,54)"/>
<path d="M0 0 C-0.23641423 4.01088965 -0.60607114 8.00162206 -1 12 C-1.10538086 13.18118408 -1.10538086 13.18118408 -1.21289062 14.38623047 C-2.93727524 32.67101611 -2.93727524 32.67101611 -9.70703125 38.82421875 C-12.51348072 41.4872381 -14.58493372 44.50758585 -16.75 47.6875 C-21.62421696 54.69692494 -27.05163558 61.12376585 -32.69580078 67.52099609 C-34.3516615 69.39879547 -35.98650063 71.29455132 -37.625 73.1875 C-41.18295039 77.24130167 -44.82783066 81.21576991 -48.47265625 85.19140625 C-49.30667969 86.11824219 -50.14070312 87.04507813 -51 88 C-51.76376953 88.79482788 -51.76376953 88.79482788 -52.54296875 89.60571289 C-56.50636428 93.8906462 -58.30902835 97.73488108 -59.875 103.3125 C-61.90960002 109.95019238 -64.26873045 116.2956607 -67.125 122.625 C-67.44968262 123.34598877 -67.77436523 124.06697754 -68.10888672 124.80981445 C-70.29597148 129.596631 -72.62543571 134.30363952 -75 139 C-74.18917969 139.23460937 -73.37835938 139.46921875 -72.54296875 139.7109375 C-68.20950114 141.28761259 -64.34822601 143.41251655 -60.3125 145.625 C-50.77483925 150.73403248 -41.06842399 155.05308221 -31 159 C-30.17757812 159.32709961 -29.35515625 159.65419922 -28.5078125 159.99121094 C-13.33635889 165.97226476 2.191486 170.18493988 17.96435547 174.21386719 C21.32864587 175.08510855 24.66705567 176.01650823 28 177 C31.05761714 189.34896981 33.31651461 201.85380849 35.66796875 214.3515625 C36.11193448 216.70237033 36.55605426 219.05314908 37.00032043 221.40390015 C37.92568167 226.30361191 38.84914124 231.20367719 39.77124023 236.10400391 C40.95457814 242.39174614 42.14279079 248.67855583 43.33240795 254.96511269 C44.24798379 259.80646003 45.16097462 264.64829205 46.07317543 269.49027634 C46.51055442 271.81013609 46.94875203 274.12984165 47.38777733 276.44939041 C47.99837925 279.67752155 48.60549498 282.90628898 49.21166992 286.13525391 C49.39397156 287.09522278 49.57627319 288.05519165 49.76409912 289.04425049 C49.92804672 289.92148773 50.09199432 290.79872498 50.26091003 291.70254517 C50.40450046 292.4645756 50.54809088 293.22660603 50.69603252 294.01172829 C51 296 51 296 51 299 C39.64785337 298.53432075 28.62296591 297.42179586 17.4375 295.4375 C16.69088104 295.30684143 15.94426208 295.17618286 15.17501831 295.04156494 C-22.85372901 288.33753682 -59.86296963 277.07451741 -95 261 C-96.0415625 260.52594727 -97.083125 260.05189453 -98.15625 259.56347656 C-130.97708166 244.51053998 -161.83828689 225.62847329 -190 203 C-197.53772256 206.71831024 -205.04418561 210.48745166 -212.48828125 214.390625 C-213.60468994 214.97561768 -214.72109863 215.56061035 -215.87133789 216.16333008 C-218.10555054 217.33653792 -220.33784811 218.51340075 -222.56811523 219.6940918 C-223.60266846 220.23718994 -224.63722168 220.78028809 -225.703125 221.33984375 C-226.62770508 221.82831787 -227.55228516 222.31679199 -228.50488281 222.82006836 C-230.69477354 223.85565954 -232.63469326 224.52700785 -235 225 C-231.68383475 221.0886256 -228.32104092 217.23504965 -224.875 213.4375 C-221.19362311 209.35947644 -217.57804102 205.23103102 -214 201.0625 C-213.49339844 200.47251221 -212.98679688 199.88252441 -212.46484375 199.2746582 C-208.44762616 194.57262893 -204.56637291 189.77484029 -200.7421875 184.9140625 C-200.16726562 184.28242187 -199.59234375 183.65078125 -199 183 C-198.34 183 -197.68 183 -197 183 C-196.7525 182.46246094 -196.505 181.92492187 -196.25 181.37109375 C-194.13290554 177.3552302 -191.44476018 173.70920092 -188.875 169.97265625 C-186.9665795 167.2138828 -186.9665795 167.2138828 -186.24180603 164.69052124 C-184.58384335 161.09834687 -182.05599661 158.69282379 -179.25610352 155.97900391 C-178.66875931 155.39764679 -178.0814151 154.81628967 -177.47627258 154.21731567 C-176.20166283 152.95744633 -174.9236385 151.70102422 -173.64261055 150.44768143 C-171.60297456 148.4511792 -169.57347448 146.4448598 -167.54637146 144.43563843 C-161.78107264 138.72518197 -155.9965098 133.03435701 -150.20922852 127.34619141 C-146.66447146 123.86077506 -143.13006386 120.36510904 -139.60105705 116.86375046 C-137.62450243 114.90901729 -135.63648963 112.96649493 -133.64784241 111.02407837 C-122.28178095 99.81216493 -113.41099689 87.5391302 -105 74 C-103.58668395 71.80543424 -102.15275631 69.63765036 -100.66015625 67.49609375 C-98.90126924 64.93038376 -98.90126924 64.93038376 -97.24609375 61.78515625 C-90.39411119 49.95910507 -79.75032066 45.44322465 -67.86523438 39.49316406 C-61.55515989 36.2047851 -55.76753556 32.14818904 -50 28 C-49.18015625 27.41089844 -48.3603125 26.82179688 -47.515625 26.21484375 C-44.27392437 23.78356828 -41.3291169 21.34523479 -38.52734375 18.40625 C-30.24221519 9.92302413 -21.34784903 6.42944328 -10.17626953 2.73779297 C-8.44709186 2.15157186 -6.74616921 1.48214957 -5.05859375 0.78515625 C-3 0 -3 0 0 0 Z " fill="#000000" transform="translate(417,672)"/>
<path d="M0 0 C7.17414594 0.60441051 14.19656903 1.63959874 21.27709961 2.93017578 C22.35638733 3.12390274 23.43567505 3.3176297 24.54766846 3.51722717 C35.70993683 5.52816548 46.86242761 7.59334402 58.01391602 9.66308594 C63.96551492 10.76703488 69.92169842 11.84346649 75.88026994 12.90906346 C81.62937206 13.93921839 87.37183018 15.00319364 93.11255074 16.07897568 C95.55030335 16.53052539 97.99006382 16.97137025 100.43171501 17.40134048 C103.83680212 18.00320061 107.23249843 18.64339004 110.62866211 19.29345703 C111.64009781 19.46308456 112.65153351 19.6327121 113.69361877 19.80747986 C120.32459581 21.13472361 120.32459581 21.13472361 122.27359867 23.63163757 C123.09667969 25.49710083 123.09667969 25.49710083 124 29 C124.27207275 29.9084668 124.54414551 30.81693359 124.82446289 31.75292969 C125.0383667 32.63368164 125.25227051 33.51443359 125.47265625 34.421875 C125.72692383 35.43330566 125.98119141 36.44473633 126.24316406 37.48681641 C126.51354492 38.56366699 126.78392578 39.64051758 127.0625 40.75 C140.70097144 92.90274641 167.47601422 138.52798347 202.1875 179.3125 C202.67452393 179.88726074 203.16154785 180.46202148 203.66333008 181.05419922 C206.94547818 184.88698365 210.39445265 188.46923437 214 192 C211.80193107 197.89291812 208.51549291 202.80987649 205 208 C204.36892334 208.93658447 204.36892334 208.93658447 203.72509766 209.89208984 C196.82883769 219.99292238 188.11809046 231.96063651 176 236 C175.29458423 237.31324438 174.63227082 238.65001636 174 240 C172.97218703 241.2176465 171.90622836 242.40369856 170.8125 243.5625 C167.34795056 247.43338548 164.67062415 251.53704556 161.94140625 255.9453125 C155.83261103 265.55713918 149.05295901 275.93057277 141 284 C138 284 138 284 135.109375 281.4375 C133.98111834 280.30000085 132.86178724 279.15360155 131.75 278 C131.16299316 277.40131104 130.57598633 276.80262207 129.97119141 276.18579102 C126.45738537 272.5789008 123.04559933 268.90847803 119.7890625 265.06640625 C117.96313993 262.95742582 116.0687368 260.92169833 114.16137695 258.88647461 C108.21401005 252.51730863 102.80244806 245.84201566 97.49951172 238.93212891 C95.92930892 236.90891416 94.32942765 234.91224181 92.72265625 232.91796875 C83.29615035 221.14420932 75.0189868 208.76640147 67 196 C66.56349121 195.30841797 66.12698242 194.61683594 65.67724609 193.90429688 C29.74900536 136.64789647 4.15227679 67.85101788 0 0 Z " fill="#000000" transform="translate(54,561)"/>
<path d="M0 0 C0.9065332 0.00894287 1.81306641 0.01788574 2.74707031 0.02709961 C5.66606154 0.07515192 8.58216637 0.15514633 11.5 0.25 C12.46099609 0.2804541 13.42199219 0.3109082 14.41210938 0.34228516 C26.39413909 0.81378164 37.72446911 2.4308489 49.3125 5.5625 C50.38661133 5.84617432 51.46072266 6.12984863 52.56738281 6.42211914 C53.5622168 6.71207764 54.55705078 7.00203613 55.58203125 7.30078125 C56.46093018 7.55512939 57.3398291 7.80947754 58.24536133 8.0715332 C64.61856124 11.40271198 66.07856441 21.19166556 68.1875 27.5625 C68.40587524 28.22037506 68.62425049 28.87825012 68.84924316 29.55606079 C80.52796616 64.96123835 90.69168371 104.77816791 89.5 142.25 C82.68533483 141.58374551 76.04047666 140.49857167 69.32055664 139.19628906 C68.23980865 138.98959595 67.15906067 138.78290283 66.04556274 138.56994629 C62.49949469 137.88991165 58.95466627 137.20373248 55.41015625 136.515625 C54.19629179 136.28006645 52.98242733 136.0445079 51.7317791 135.80181122 C45.98048374 134.68423102 40.22996307 133.56278789 34.48038775 132.43639207 C27.85473355 131.13869242 21.22598367 129.85854492 14.59422976 128.59239793 C8.83624202 127.49164917 3.08315952 126.36680777 -2.66848946 125.23345184 C-5.11314041 124.75547126 -7.55929089 124.28509633 -10.00687981 123.82239532 C-13.41777283 123.1759318 -16.82214881 122.50214222 -20.22631836 121.82128906 C-21.75122139 121.54203583 -21.75122139 121.54203583 -23.30693054 121.25714111 C-25.81753386 120.7392652 -28.13244942 120.23210736 -30.5 119.25 C-32.10617065 116.7376709 -32.10617065 116.7376709 -32.5 114.25 C-32.78460083 113.0748584 -32.78460083 113.0748584 -33.07495117 111.87597656 C-33.22939697 111.05581055 -33.38384277 110.23564453 -33.54296875 109.390625 C-33.72569336 108.45283203 -33.90841797 107.51503906 -34.09667969 106.54882812 C-34.29165039 105.54271484 -34.48662109 104.53660156 -34.6875 103.5 C-39.1656138 81.39899325 -45.17791484 59.22419177 -54.68237305 38.69628906 C-55.59822533 35.9561159 -55.6653046 34.86969571 -54.5 32.25 C-53.09228516 30.8371582 -53.09228516 30.8371582 -51.2890625 29.55078125 C-50.62664551 29.06843018 -49.96422852 28.5860791 -49.28173828 28.08911133 C-48.57001465 27.58532959 -47.85829102 27.08154785 -47.125 26.5625 C-45.65494756 25.49136856 -44.18620174 24.41844164 -42.71875 23.34375 C-41.996875 22.8178125 -41.275 22.291875 -40.53125 21.75 C-33.25395544 16.37599787 -26.4997119 10.47037942 -20.08203125 4.09765625 C-14.11505975 -0.17220384 -7.06669852 -0.08045705 0 0 Z " fill="#000000" transform="translate(882.5,339.75)"/>
<path d="M0 0 C2.3195956 1.26883862 4.48679765 2.552615 6.6875 4 C7.30109375 4.39864258 7.9146875 4.79728516 8.546875 5.20800781 C13.30852698 8.37664366 17.56991187 11.91505706 21.71875 15.859375 C24.03247782 18.0970301 24.03247782 18.0970301 26.88671875 20.2421875 C30.73031033 23.4202379 33.45545152 27.3199039 36.3125 31.375 C36.87646484 32.17010986 37.44042969 32.96521973 38.02148438 33.78442383 C57.64291404 61.74049661 57.64291404 61.74049661 57 78 C56.3100293 78.23485107 55.62005859 78.46970215 54.90917969 78.71166992 C38.14831101 84.42784391 21.45912847 90.31462707 4.82714844 96.39575195 C-2.25790408 98.97899525 -9.3287938 101.46247406 -16.55395508 103.6315918 C-28.94069343 107.39620087 -39.95755983 113.52614296 -51.21852112 119.79956055 C-58.23118744 123.70203085 -65.31547497 127.46830413 -72.40487671 131.22906494 C-74.53193146 132.35876475 -76.65643681 133.49313825 -78.78051758 134.62841797 C-80.08406843 135.32273893 -81.38769416 136.01691933 -82.69140625 136.7109375 C-83.83810791 137.32243652 -84.98480957 137.93393555 -86.16625977 138.56396484 C-89 140 -89 140 -92 141 C-93.14624023 139.3815918 -93.14624023 139.3815918 -94 137 C-93.18383789 134.25317383 -93.18383789 134.25317383 -91.66015625 130.89453125 C-88.63991454 123.89244571 -86.19766991 116.77167107 -83.87109375 109.51171875 C-83.51109283 108.39459503 -83.15109192 107.27747131 -82.78018188 106.12649536 C-81.28273025 101.46916592 -79.79441205 96.80896947 -78.31079102 92.1472168 C-77.21276763 88.70397036 -76.1049142 85.26400076 -74.99609375 81.82421875 C-74.66886826 80.7854509 -74.34164276 79.74668304 -74.00450134 78.67643738 C-70.84283117 68.89477977 -66.7043293 60.35589142 -60.375 52.25 C-59.85574951 51.57388672 -59.33649902 50.89777344 -58.80151367 50.20117188 C-57.73091868 48.81029123 -56.65663033 47.42224542 -55.57861328 46.03710938 C-54.06512632 44.08404176 -52.57493253 42.11533136 -51.08984375 40.140625 C-45.92540617 33.33299819 -40.68364646 27.39632934 -34 22 C-33.39929688 21.47535156 -32.79859375 20.95070313 -32.1796875 20.41015625 C-28.26887119 17 -28.26887119 17 -26 17 C-26 16.34 -26 15.68 -26 15 C-24.03392096 13.33362813 -22.06711254 11.78193869 -20 10.25 C-18.802006 9.35296785 -17.60408917 8.45583264 -16.40625 7.55859375 C-15.82101562 7.12272949 -15.23578125 6.68686523 -14.6328125 6.23779297 C-13.24022491 5.1821083 -11.88174195 4.08168366 -10.53125 2.97265625 C-9.8609375 2.42480469 -9.190625 1.87695312 -8.5 1.3125 C-7.64921875 0.59513672 -7.64921875 0.59513672 -6.78125 -0.13671875 C-4.11956063 -1.42670417 -2.78986909 -0.92457311 0 0 Z " fill="#000000" transform="translate(934,98)"/>
<path d="M0 0 C0.74822021 0.44972168 1.49644043 0.89944336 2.26733398 1.36279297 C7.50571723 4.53119287 12.6729961 7.79806137 17.6875 11.3125 C16.43153887 18.01095934 13.31266245 21.45649166 8.6875 26.3125 C7.33009009 27.78950549 5.97282721 29.26665162 4.61914062 30.74707031 C3.66476815 31.79063039 2.70903752 32.83295 1.75195312 33.87402344 C-2.86229434 38.8935333 -7.46088575 43.91040584 -11.625 49.3125 C-12.181875 49.9725 -12.73875 50.6325 -13.3125 51.3125 C-13.9725 51.3125 -14.6325 51.3125 -15.3125 51.3125 C-15.3125 51.9725 -15.3125 52.6325 -15.3125 53.3125 C-18.1944452 56.34421118 -20.88821736 56.70581184 -24.97373962 56.88180542 C-25.70299149 56.89760651 -26.43224335 56.91340759 -27.18359375 56.9296875 C-27.94293716 56.95475372 -28.70228058 56.97981995 -29.4846344 57.00564575 C-31.08729216 57.05452013 -32.69018691 57.09609845 -34.29321289 57.13085938 C-36.73902536 57.18724698 -39.1822331 57.27564891 -41.62695312 57.3671875 C-43.18744711 57.4107902 -44.7479948 57.45251905 -46.30859375 57.4921875 C-47.3994352 57.53410721 -47.3994352 57.53410721 -48.51231384 57.57687378 C-55.62642485 57.68620059 -59.10077877 54.70523755 -64.125 50.0625 C-67.89795968 46.58844445 -71.73644108 43.24717076 -75.71875 40.015625 C-77.64531586 37.95684384 -78.41115475 35.96245502 -79.3125 33.3125 C-78.55066406 32.51328125 -77.78882813 31.7140625 -77.00390625 30.890625 C-75.96047674 29.78168336 -74.91754624 28.67227207 -73.875 27.5625 C-73.3171582 26.97702393 -72.75931641 26.39154785 -72.18457031 25.78833008 C-68.71320177 22.07264673 -66.14353247 18.40293774 -63.5625 14 C-57.42194261 5.54141006 -47.08528358 3.84775925 -37.44384766 1.19287109 C-34.44027464 0.34842354 -31.47804957 -0.57665241 -28.51171875 -1.54296875 C-26.73718228 -2.11261227 -24.9624527 -2.68165471 -23.1875 -3.25 C-22.37756592 -3.51409668 -21.56763184 -3.77819336 -20.7331543 -4.05029297 C-12.23950226 -6.64475033 -7.3277511 -4.49722284 0 0 Z " fill="#000000" transform="translate(962.3125,253.6875)"/>
<path d="M0 0 C1.94586628 2.27669362 3.40774584 4.28299742 4.9375 6.8125 C5.36208496 7.481604 5.78666992 8.15070801 6.22412109 8.84008789 C7.50751411 10.87934279 8.7590994 12.9346552 10 15 C10.56146729 15.93247559 10.56146729 15.93247559 11.13427734 16.88378906 C13.1359538 20.23001206 15.08869909 23.60142851 17 27 C11.57534247 33.78082192 11.57534247 33.78082192 8 36 C7.34 36 6.68 36 6 36 C5.67 36.99 5.34 37.98 5 39 C-3.79426747 44.58097743 -11.81502844 46.05285063 -22.08984375 46.53515625 C-22.95259415 46.57813339 -23.81534454 46.62111053 -24.70423889 46.66539001 C-26.52206445 46.75522779 -28.33997418 46.84337629 -30.15795898 46.92993164 C-32.92517923 47.06191237 -35.69208009 47.19945935 -38.45898438 47.33789062 C-40.23175474 47.42480812 -42.00454074 47.5114072 -43.77734375 47.59765625 C-44.5973436 47.63826675 -45.41734344 47.67887726 -46.26219177 47.72071838 C-50.84781761 47.93688788 -55.40928597 48.03948589 -60 48 C-59.51305804 43.3526943 -57.42810262 40.51834112 -54.5625 37 C-53.64946004 35.84787773 -52.73670779 34.6955274 -51.82421875 33.54296875 C-51.3554834 32.95692871 -50.88674805 32.37088867 -50.40380859 31.76708984 C-48.6163901 29.51711853 -46.87060883 27.23701533 -45.12719727 24.95288086 C-27.74784679 2.18589786 -27.74784679 2.18589786 -12.42578125 -0.44140625 C-8.0604747 -1.02690577 -4.27151978 -1.31810022 0 0 Z " fill="#000000" transform="translate(826,292)"/>
<path d="" fill="#000000" transform="translate(0,0)"/>
<path d="" fill="#000000" transform="translate(0,0)"/>
<path d="" fill="#000000" transform="translate(0,0)"/>
<path d="" fill="#000000" transform="translate(0,0)"/>
<path d="" fill="#000000" transform="translate(0,0)"/>
</svg>
